{
  "header": {
    "keySignatures": [
      {
        "key": "C",
        "scale": "major",
        "ticks": 0
      }
    ],
    "meta": [
      {
        "text": "Touhou 6: Enbodiment of Scarlet Devil - Shanghai Alice of Meiji 17 ",
        "ticks": 0,
        "type": "marker"
      },
      {
        "text": "loopStart",
        "ticks": 2880,
        "type": "marker"
      },
      {
        "text": "loopEnd",
        "ticks": 26401,
        "type": "marker"
      }
    ],
    "name": "Touhou 6: Enbodiment of Scarlet Devil - Shanghai Alice of Meiji 17 ",
    "ppq": 120,
    "tempos": [
      {
        "bpm": 143.99988480009216,
        "ticks": 0
      }
    ],
    "timeSignatures": [
      {
        "ticks": 0,
        "timeSignature": [
          3,
          4
        ],
        "measures": 0
      },
      {
        "ticks": 11520,
        "timeSignature": [
          4,
          4
        ],
        "measures": 32
      },
      {
        "ticks": 23520,
        "timeSignature": [
          3,
          4
        ],
        "measures": 57
      }
    ]
  },
  "tracks": [
    {
      "channel": 0,
      "controlChanges": {
        "7": [
          {
            "number": 7,
            "ticks": 0,
            "time": 0,
            "value": 1
          }
        ],
        "10": [
          {
            "number": 10,
            "ticks": 0,
            "time": 0,
            "value": 0.3779527559055118
          }
        ]
      },
      "pitchBends": [],
      "instrument": {
        "family": "piano",
        "number": 0,
        "name": "acoustic grand piano"
      },
      "name": "Touhou 6: Enbodiment of Scarlet Devil - Shanghai Alice of Meiji 17 ",
      "notes": [
        {
          "duration": 0.10416675,
          "durationTicks": 30,
          "midi": 55,
          "name": "G3",
          "ticks": 0,
          "time": 0,
          "velocity": 0.5354330708661418
        },
        {
          "duration": 0.10416675,
          "durationTicks": 30,
          "midi": 58,
          "name": "A#3",
          "ticks": 30,
          "time": 0.10416675,
          "velocity": 0.5354330708661418
        },
        {
          "duration": 0.10416675000000003,
          "durationTicks": 30,
          "midi": 62,
          "name": "D4",
          "ticks": 60,
          "time": 0.2083335,
          "velocity": 0.5354330708661418
        },
        {
          "duration": 0.10416674999999997,
          "durationTicks": 30,
          "midi": 67,
          "name": "G4",
          "ticks": 90,
          "time": 0.31250025000000003,
          "velocity": 0.5354330708661418
        },
        {
          "duration": 0.10416674999999997,
          "durationTicks": 30,
          "midi": 70,
          "name": "A#4",
          "ticks": 120,
          "time": 0.416667,
          "velocity": 0.5354330708661418
        },
        {
          "duration": 0.10416675000000009,
          "durationTicks": 30,
          "midi": 74,
          "name": "D5",
          "ticks": 150,
          "time": 0.52083375,
          "velocity": 0.5354330708661418
        },
        {
          "duration": 0.10416674999999997,
          "durationTicks": 30,
          "midi": 55,
          "name": "G3",
          "ticks": 180,
          "time": 0.6250005000000001,
          "velocity": 0.5354330708661418
        },
        {
          "duration": 0.10416674999999997,
          "durationTicks": 30,
          "midi": 58,
          "name": "A#3",
          "ticks": 210,
          "time": 0.72916725,
          "velocity": 0.5354330708661418
        },
        {
          "duration": 0.10416674999999997,
          "durationTicks": 30,
          "midi": 63,
          "name": "D#4",
          "ticks": 240,
          "time": 0.833334,
          "velocity": 0.5354330708661418
        },
        {
          "duration": 0.10416674999999997,
          "durationTicks": 30,
          "midi": 67,
          "name": "G4",
          "ticks": 270,
          "time": 0.93750075,
          "velocity": 0.5354330708661418
        },
        {
          "duration": 0.10416675000000009,
          "durationTicks": 30,
          "midi": 70,
          "name": "A#4",
          "ticks": 300,
          "time": 1.0416675,
          "velocity": 0.5354330708661418
        },
        {
          "duration": 0.10416675000000009,
          "durationTicks": 30,
          "midi": 75,
          "name": "D#5",
          "ticks": 330,
          "time": 1.14583425,
          "velocity": 0.5354330708661418
        },
        {
          "duration": 0.10416674999999986,
          "durationTicks": 30,
          "midi": 53,
          "name": "F3",
          "ticks": 360,
          "time": 1.2500010000000001,
          "velocity": 0.5354330708661418
        },
        {
          "duration": 0.10416675000000009,
          "durationTicks": 30,
          "midi": 57,
          "name": "A3",
          "ticks": 390,
          "time": 1.35416775,
          "velocity": 0.5354330708661418
        },
        {
          "duration": 0.10416674999999986,
          "durationTicks": 30,
          "midi": 60,
          "name": "C4",
          "ticks": 420,
          "time": 1.4583345,
          "velocity": 0.5354330708661418
        },
        {
          "duration": 0.10416675000000009,
          "durationTicks": 30,
          "midi": 65,
          "name": "F4",
          "ticks": 450,
          "time": 1.56250125,
          "velocity": 0.5354330708661418
        },
        {
          "duration": 0.10416675000000009,
          "durationTicks": 30,
          "midi": 69,
          "name": "A4",
          "ticks": 480,
          "time": 1.666668,
          "velocity": 0.5354330708661418
        },
        {
          "duration": 0.10416674999999986,
          "durationTicks": 30,
          "midi": 72,
          "name": "C5",
          "ticks": 510,
          "time": 1.7708347500000001,
          "velocity": 0.5354330708661418
        },
        {
          "duration": 0.10416675000000009,
          "durationTicks": 30,
          "midi": 53,
          "name": "F3",
          "ticks": 540,
          "time": 1.8750015,
          "velocity": 0.5354330708661418
        },
        {
          "duration": 0.10416674999999986,
          "durationTicks": 30,
          "midi": 57,
          "name": "A3",
          "ticks": 570,
          "time": 1.97916825,
          "velocity": 0.5354330708661418
        },
        {
          "duration": 0.10416675000000009,
          "durationTicks": 30,
          "midi": 62,
          "name": "D4",
          "ticks": 600,
          "time": 2.083335,
          "velocity": 0.5354330708661418
        },
        {
          "duration": 0.10416675000000009,
          "durationTicks": 30,
          "midi": 65,
          "name": "F4",
          "ticks": 630,
          "time": 2.18750175,
          "velocity": 0.5354330708661418
        },
        {
          "duration": 0.10416675000000009,
          "durationTicks": 30,
          "midi": 69,
          "name": "A4",
          "ticks": 660,
          "time": 2.2916685,
          "velocity": 0.5354330708661418
        },
        {
          "duration": 0.10416675000000009,
          "durationTicks": 30,
          "midi": 74,
          "name": "D5",
          "ticks": 690,
          "time": 2.39583525,
          "velocity": 0.5354330708661418
        },
        {
          "duration": 0.10416674999999964,
          "durationTicks": 30,
          "midi": 51,
          "name": "D#3",
          "ticks": 720,
          "time": 2.5000020000000003,
          "velocity": 0.5354330708661418
        },
        {
          "duration": 0.10416675000000009,
          "durationTicks": 30,
          "midi": 55,
          "name": "G3",
          "ticks": 750,
          "time": 2.60416875,
          "velocity": 0.5354330708661418
        },
        {
          "duration": 0.10416675000000009,
          "durationTicks": 30,
          "midi": 58,
          "name": "A#3",
          "ticks": 780,
          "time": 2.7083355,
          "velocity": 0.5354330708661418
        },
        {
          "duration": 0.10416675000000009,
          "durationTicks": 30,
          "midi": 63,
          "name": "D#4",
          "ticks": 810,
          "time": 2.81250225,
          "velocity": 0.5354330708661418
        },
        {
          "duration": 0.10416675000000009,
          "durationTicks": 30,
          "midi": 67,
          "name": "G4",
          "ticks": 840,
          "time": 2.916669,
          "velocity": 0.5354330708661418
        },
        {
          "duration": 0.10416674999999964,
          "durationTicks": 30,
          "midi": 70,
          "name": "A#4",
          "ticks": 870,
          "time": 3.0208357500000003,
          "velocity": 0.5354330708661418
        },
        {
          "duration": 0.10416675000000009,
          "durationTicks": 30,
          "midi": 51,
          "name": "D#3",
          "ticks": 900,
          "time": 3.1250025,
          "velocity": 0.5354330708661418
        },
        {
          "duration": 0.10416675000000009,
          "durationTicks": 30,
          "midi": 55,
          "name": "G3",
          "ticks": 930,
          "time": 3.22916925,
          "velocity": 0.5354330708661418
        },
        {
          "duration": 0.10416675000000009,
          "durationTicks": 30,
          "midi": 60,
          "name": "C4",
          "ticks": 960,
          "time": 3.333336,
          "velocity": 0.5354330708661418
        },
        {
          "duration": 0.10416675000000009,
          "durationTicks": 30,
          "midi": 63,
          "name": "D#4",
          "ticks": 990,
          "time": 3.43750275,
          "velocity": 0.5354330708661418
        },
        {
          "duration": 0.10416674999999964,
          "durationTicks": 30,
          "midi": 67,
          "name": "G4",
          "ticks": 1020,
          "time": 3.5416695000000002,
          "velocity": 0.5354330708661418
        },
        {
          "duration": 0.10416675000000009,
          "durationTicks": 30,
          "midi": 72,
          "name": "C5",
          "ticks": 1050,
          "time": 3.64583625,
          "velocity": 0.5354330708661418
        },
        {
          "duration": 0.10416675000000009,
          "durationTicks": 30,
          "midi": 50,
          "name": "D3",
          "ticks": 1080,
          "time": 3.750003,
          "velocity": 0.5354330708661418
        },
        {
          "duration": 0.10416675000000009,
          "durationTicks": 30,
          "midi": 54,
          "name": "F#3",
          "ticks": 1110,
          "time": 3.85416975,
          "velocity": 0.5354330708661418
        },
        {
          "duration": 0.10416674999999964,
          "durationTicks": 30,
          "midi": 57,
          "name": "A3",
          "ticks": 1140,
          "time": 3.9583365,
          "velocity": 0.5354330708661418
        },
        {
          "duration": 0.10416675000000009,
          "durationTicks": 30,
          "midi": 62,
          "name": "D4",
          "ticks": 1170,
          "time": 4.06250325,
          "velocity": 0.5354330708661418
        },
        {
          "duration": 0.10416675000000009,
          "durationTicks": 30,
          "midi": 66,
          "name": "F#4",
          "ticks": 1200,
          "time": 4.16667,
          "velocity": 0.5354330708661418
        },
        {
          "duration": 0.10416675000000009,
          "durationTicks": 30,
          "midi": 69,
          "name": "A4",
          "ticks": 1230,
          "time": 4.27083675,
          "velocity": 0.5354330708661418
        },
        {
          "duration": 0.10416675000000009,
          "durationTicks": 30,
          "midi": 74,
          "name": "D5",
          "ticks": 1260,
          "time": 4.3750035,
          "velocity": 0.5354330708661418
        },
        {
          "duration": 0.10416675000000009,
          "durationTicks": 30,
          "midi": 69,
          "name": "A4",
          "ticks": 1290,
          "time": 4.47917025,
          "velocity": 0.5354330708661418
        },
        {
          "duration": 0.10416675000000009,
          "durationTicks": 30,
          "midi": 66,
          "name": "F#4",
          "ticks": 1320,
          "time": 4.583337,
          "velocity": 0.5354330708661418
        },
        {
          "duration": 0.10416675000000009,
          "durationTicks": 30,
          "midi": 62,
          "name": "D4",
          "ticks": 1350,
          "time": 4.68750375,
          "velocity": 0.5354330708661418
        },
        {
          "duration": 0.10416675000000009,
          "durationTicks": 30,
          "midi": 57,
          "name": "A3",
          "ticks": 1380,
          "time": 4.7916705,
          "velocity": 0.5354330708661418
        },
        {
          "duration": 0.10416675000000009,
          "durationTicks": 30,
          "midi": 54,
          "name": "F#3",
          "ticks": 1410,
          "time": 4.8958372500000005,
          "velocity": 0.5354330708661418
        },
        {
          "duration": 0.1041667499999992,
          "durationTicks": 30,
          "midi": 55,
          "name": "G3",
          "ticks": 1440,
          "time": 5.000004000000001,
          "velocity": 0.5354330708661418
        },
        {
          "duration": 0.10416675000000009,
          "durationTicks": 30,
          "midi": 58,
          "name": "A#3",
          "ticks": 1470,
          "time": 5.10417075,
          "velocity": 0.5354330708661418
        },
        {
          "duration": 0.10416675000000009,
          "durationTicks": 30,
          "midi": 62,
          "name": "D4",
          "ticks": 1500,
          "time": 5.2083375,
          "velocity": 0.5354330708661418
        },
        {
          "duration": 0.10416675000000009,
          "durationTicks": 30,
          "midi": 67,
          "name": "G4",
          "ticks": 1530,
          "time": 5.31250425,
          "velocity": 0.5354330708661418
        },
        {
          "duration": 0.10416675000000009,
          "durationTicks": 30,
          "midi": 70,
          "name": "A#4",
          "ticks": 1560,
          "time": 5.416671,
          "velocity": 0.5354330708661418
        },
        {
          "duration": 0.10416675000000009,
          "durationTicks": 30,
          "midi": 74,
          "name": "D5",
          "ticks": 1590,
          "time": 5.52083775,
          "velocity": 0.5354330708661418
        },
        {
          "duration": 0.10416675000000009,
          "durationTicks": 30,
          "midi": 55,
          "name": "G3",
          "ticks": 1620,
          "time": 5.6250045,
          "velocity": 0.5354330708661418
        },
        {
          "duration": 0.10416675000000009,
          "durationTicks": 30,
          "midi": 58,
          "name": "A#3",
          "ticks": 1650,
          "time": 5.72917125,
          "velocity": 0.5354330708661418
        },
        {
          "duration": 0.10416675000000009,
          "durationTicks": 30,
          "midi": 63,
          "name": "D#4",
          "ticks": 1680,
          "time": 5.833338,
          "velocity": 0.5354330708661418
        },
        {
          "duration": 0.10416675000000009,
          "durationTicks": 30,
          "midi": 67,
          "name": "G4",
          "ticks": 1710,
          "time": 5.93750475,
          "velocity": 0.5354330708661418
        },
        {
          "duration": 0.1041667499999992,
          "durationTicks": 30,
          "midi": 70,
          "name": "A#4",
          "ticks": 1740,
          "time": 6.0416715000000005,
          "velocity": 0.5354330708661418
        },
        {
          "duration": 0.10416675000000009,
          "durationTicks": 30,
          "midi": 75,
          "name": "D#5",
          "ticks": 1770,
          "time": 6.14583825,
          "velocity": 0.5354330708661418
        },
        {
          "duration": 0.10416675000000009,
          "durationTicks": 30,
          "midi": 53,
          "name": "F3",
          "ticks": 1800,
          "time": 6.250005,
          "velocity": 0.5354330708661418
        },
        {
          "duration": 0.10416675000000009,
          "durationTicks": 30,
          "midi": 57,
          "name": "A3",
          "ticks": 1830,
          "time": 6.35417175,
          "velocity": 0.5354330708661418
        },
        {
          "duration": 0.10416675000000009,
          "durationTicks": 30,
          "midi": 60,
          "name": "C4",
          "ticks": 1860,
          "time": 6.4583385,
          "velocity": 0.5354330708661418
        },
        {
          "duration": 0.10416675000000009,
          "durationTicks": 30,
          "midi": 65,
          "name": "F4",
          "ticks": 1890,
          "time": 6.56250525,
          "velocity": 0.5354330708661418
        },
        {
          "duration": 0.10416675000000009,
          "durationTicks": 30,
          "midi": 69,
          "name": "A4",
          "ticks": 1920,
          "time": 6.666672,
          "velocity": 0.5354330708661418
        },
        {
          "duration": 0.10416675000000009,
          "durationTicks": 30,
          "midi": 72,
          "name": "C5",
          "ticks": 1950,
          "time": 6.77083875,
          "velocity": 0.5354330708661418
        },
        {
          "duration": 0.10416675000000009,
          "durationTicks": 30,
          "midi": 53,
          "name": "F3",
          "ticks": 1980,
          "time": 6.8750055,
          "velocity": 0.5354330708661418
        },
        {
          "duration": 0.10416675000000009,
          "durationTicks": 30,
          "midi": 57,
          "name": "A3",
          "ticks": 2010,
          "time": 6.97917225,
          "velocity": 0.5354330708661418
        },
        {
          "duration": 0.10416675000000009,
          "durationTicks": 30,
          "midi": 62,
          "name": "D4",
          "ticks": 2040,
          "time": 7.0833390000000005,
          "velocity": 0.5354330708661418
        },
        {
          "duration": 0.1041667499999992,
          "durationTicks": 30,
          "midi": 65,
          "name": "F4",
          "ticks": 2070,
          "time": 7.187505750000001,
          "velocity": 0.5354330708661418
        },
        {
          "duration": 0.10416675000000009,
          "durationTicks": 30,
          "midi": 69,
          "name": "A4",
          "ticks": 2100,
          "time": 7.2916725,
          "velocity": 0.5354330708661418
        },
        {
          "duration": 0.10416675000000009,
          "durationTicks": 30,
          "midi": 74,
          "name": "D5",
          "ticks": 2130,
          "time": 7.39583925,
          "velocity": 0.5354330708661418
        },
        {
          "duration": 0.10416675000000009,
          "durationTicks": 30,
          "midi": 51,
          "name": "D#3",
          "ticks": 2160,
          "time": 7.500006,
          "velocity": 0.5354330708661418
        },
        {
          "duration": 0.10416675000000009,
          "durationTicks": 30,
          "midi": 55,
          "name": "G3",
          "ticks": 2190,
          "time": 7.60417275,
          "velocity": 0.5354330708661418
        },
        {
          "duration": 0.10416675000000009,
          "durationTicks": 30,
          "midi": 58,
          "name": "A#3",
          "ticks": 2220,
          "time": 7.7083395,
          "velocity": 0.5354330708661418
        },
        {
          "duration": 0.10416675000000009,
          "durationTicks": 30,
          "midi": 63,
          "name": "D#4",
          "ticks": 2250,
          "time": 7.81250625,
          "velocity": 0.5354330708661418
        },
        {
          "duration": 0.10416675000000009,
          "durationTicks": 30,
          "midi": 67,
          "name": "G4",
          "ticks": 2280,
          "time": 7.916673,
          "velocity": 0.5354330708661418
        },
        {
          "duration": 0.1041667499999992,
          "durationTicks": 30,
          "midi": 70,
          "name": "A#4",
          "ticks": 2310,
          "time": 8.02083975,
          "velocity": 0.5354330708661418
        },
        {
          "duration": 0.10416675000000097,
          "durationTicks": 30,
          "midi": 52,
          "name": "E3",
          "ticks": 2340,
          "time": 8.1250065,
          "velocity": 0.5354330708661418
        },
        {
          "duration": 0.1041667499999992,
          "durationTicks": 30,
          "midi": 57,
          "name": "A3",
          "ticks": 2370,
          "time": 8.22917325,
          "velocity": 0.5354330708661418
        },
        {
          "duration": 0.10416675000000097,
          "durationTicks": 30,
          "midi": 61,
          "name": "C#4",
          "ticks": 2400,
          "time": 8.33334,
          "velocity": 0.5354330708661418
        },
        {
          "duration": 0.1041667499999992,
          "durationTicks": 30,
          "midi": 64,
          "name": "E4",
          "ticks": 2430,
          "time": 8.43750675,
          "velocity": 0.5354330708661418
        },
        {
          "duration": 0.10416675000000097,
          "durationTicks": 30,
          "midi": 69,
          "name": "A4",
          "ticks": 2460,
          "time": 8.5416735,
          "velocity": 0.5354330708661418
        },
        {
          "duration": 0.1041667499999992,
          "durationTicks": 30,
          "midi": 73,
          "name": "C#5",
          "ticks": 2490,
          "time": 8.645840250000001,
          "velocity": 0.5354330708661418
        },
        {
          "duration": 0.10416675000000097,
          "durationTicks": 30,
          "midi": 54,
          "name": "F#3",
          "ticks": 2520,
          "time": 8.750007,
          "velocity": 0.5354330708661418
        },
        {
          "duration": 0.1041667499999992,
          "durationTicks": 30,
          "midi": 57,
          "name": "A3",
          "ticks": 2550,
          "time": 8.854173750000001,
          "velocity": 0.5354330708661418
        },
        {
          "duration": 0.1041667499999992,
          "durationTicks": 30,
          "midi": 62,
          "name": "D4",
          "ticks": 2580,
          "time": 8.9583405,
          "velocity": 0.5354330708661418
        },
        {
          "duration": 0.10416675000000097,
          "durationTicks": 30,
          "midi": 66,
          "name": "F#4",
          "ticks": 2610,
          "time": 9.06250725,
          "velocity": 0.5354330708661418
        },
        {
          "duration": 0.1041667499999992,
          "durationTicks": 30,
          "midi": 69,
          "name": "A4",
          "ticks": 2640,
          "time": 9.166674,
          "velocity": 0.5354330708661418
        },
        {
          "duration": 0.10416675000000097,
          "durationTicks": 30,
          "midi": 74,
          "name": "D5",
          "ticks": 2670,
          "time": 9.27084075,
          "velocity": 0.5354330708661418
        },
        {
          "duration": 0.1041667499999992,
          "durationTicks": 30,
          "midi": 78,
          "name": "F#5",
          "ticks": 2700,
          "time": 9.3750075,
          "velocity": 0.5354330708661418
        },
        {
          "duration": 0.10416675000000097,
          "durationTicks": 30,
          "midi": 74,
          "name": "D5",
          "ticks": 2730,
          "time": 9.47917425,
          "velocity": 0.5354330708661418
        },
        {
          "duration": 0.1041667499999992,
          "durationTicks": 30,
          "midi": 69,
          "name": "A4",
          "ticks": 2760,
          "time": 9.583341,
          "velocity": 0.5354330708661418
        },
        {
          "duration": 0.10416675000000097,
          "durationTicks": 30,
          "midi": 66,
          "name": "F#4",
          "ticks": 2790,
          "time": 9.68750775,
          "velocity": 0.5354330708661418
        },
        {
          "duration": 0.1041667499999992,
          "durationTicks": 30,
          "midi": 62,
          "name": "D4",
          "ticks": 2820,
          "time": 9.791674500000001,
          "velocity": 0.5354330708661418
        },
        {
          "duration": 0.10416675000000097,
          "durationTicks": 30,
          "midi": 57,
          "name": "A3",
          "ticks": 2850,
          "time": 9.89584125,
          "velocity": 0.5354330708661418
        },
        {
          "duration": 0.1041667499999992,
          "durationTicks": 30,
          "midi": 55,
          "name": "G3",
          "ticks": 2880,
          "time": 10.000008000000001,
          "velocity": 0.5354330708661418
        },
        {
          "duration": 0.1041667499999992,
          "durationTicks": 30,
          "midi": 58,
          "name": "A#3",
          "ticks": 2910,
          "time": 10.10417475,
          "velocity": 0.5354330708661418
        },
        {
          "duration": 0.10416675000000097,
          "durationTicks": 30,
          "midi": 62,
          "name": "D4",
          "ticks": 2940,
          "time": 10.2083415,
          "velocity": 0.5354330708661418
        },
        {
          "duration": 0.1041667499999992,
          "durationTicks": 30,
          "midi": 67,
          "name": "G4",
          "ticks": 2970,
          "time": 10.31250825,
          "velocity": 0.5354330708661418
        },
        {
          "duration": 0.10416675000000097,
          "durationTicks": 30,
          "midi": 70,
          "name": "A#4",
          "ticks": 3000,
          "time": 10.416675,
          "velocity": 0.5354330708661418
        },
        {
          "duration": 0.1041667499999992,
          "durationTicks": 30,
          "midi": 74,
          "name": "D5",
          "ticks": 3030,
          "time": 10.52084175,
          "velocity": 0.5354330708661418
        },
        {
          "duration": 0.10416675000000097,
          "durationTicks": 30,
          "midi": 55,
          "name": "G3",
          "ticks": 3060,
          "time": 10.6250085,
          "velocity": 0.5354330708661418
        },
        {
          "duration": 0.1041667499999992,
          "durationTicks": 30,
          "midi": 58,
          "name": "A#3",
          "ticks": 3090,
          "time": 10.72917525,
          "velocity": 0.5354330708661418
        },
        {
          "duration": 0.10416675000000097,
          "durationTicks": 30,
          "midi": 63,
          "name": "D#4",
          "ticks": 3120,
          "time": 10.833342,
          "velocity": 0.5354330708661418
        },
        {
          "duration": 0.1041667499999992,
          "durationTicks": 30,
          "midi": 67,
          "name": "G4",
          "ticks": 3150,
          "time": 10.937508750000001,
          "velocity": 0.5354330708661418
        },
        {
          "duration": 0.1041667499999992,
          "durationTicks": 30,
          "midi": 70,
          "name": "A#4",
          "ticks": 3180,
          "time": 11.0416755,
          "velocity": 0.5354330708661418
        },
        {
          "duration": 0.10416675000000097,
          "durationTicks": 30,
          "midi": 75,
          "name": "D#5",
          "ticks": 3210,
          "time": 11.14584225,
          "velocity": 0.5354330708661418
        },
        {
          "duration": 0.1041667499999992,
          "durationTicks": 30,
          "midi": 53,
          "name": "F3",
          "ticks": 3240,
          "time": 11.250009,
          "velocity": 0.5354330708661418
        },
        {
          "duration": 0.10416675000000097,
          "durationTicks": 30,
          "midi": 57,
          "name": "A3",
          "ticks": 3270,
          "time": 11.35417575,
          "velocity": 0.5354330708661418
        },
        {
          "duration": 0.1041667499999992,
          "durationTicks": 30,
          "midi": 60,
          "name": "C4",
          "ticks": 3300,
          "time": 11.4583425,
          "velocity": 0.5354330708661418
        },
        {
          "duration": 0.10416675000000097,
          "durationTicks": 30,
          "midi": 65,
          "name": "F4",
          "ticks": 3330,
          "time": 11.56250925,
          "velocity": 0.5354330708661418
        },
        {
          "duration": 0.1041667499999992,
          "durationTicks": 30,
          "midi": 69,
          "name": "A4",
          "ticks": 3360,
          "time": 11.666676,
          "velocity": 0.5354330708661418
        },
        {
          "duration": 0.10416675000000097,
          "durationTicks": 30,
          "midi": 72,
          "name": "C5",
          "ticks": 3390,
          "time": 11.77084275,
          "velocity": 0.5354330708661418
        },
        {
          "duration": 0.1041667499999992,
          "durationTicks": 30,
          "midi": 53,
          "name": "F3",
          "ticks": 3420,
          "time": 11.8750095,
          "velocity": 0.5354330708661418
        },
        {
          "duration": 0.10416675000000097,
          "durationTicks": 30,
          "midi": 57,
          "name": "A3",
          "ticks": 3450,
          "time": 11.97917625,
          "velocity": 0.5354330708661418
        },
        {
          "duration": 0.1041667499999992,
          "durationTicks": 30,
          "midi": 62,
          "name": "D4",
          "ticks": 3480,
          "time": 12.083343000000001,
          "velocity": 0.5354330708661418
        },
        {
          "duration": 0.1041667499999992,
          "durationTicks": 30,
          "midi": 65,
          "name": "F4",
          "ticks": 3510,
          "time": 12.18750975,
          "velocity": 0.5354330708661418
        },
        {
          "duration": 0.10416675000000097,
          "durationTicks": 30,
          "midi": 69,
          "name": "A4",
          "ticks": 3540,
          "time": 12.2916765,
          "velocity": 0.5354330708661418
        },
        {
          "duration": 0.1041667499999992,
          "durationTicks": 30,
          "midi": 74,
          "name": "D5",
          "ticks": 3570,
          "time": 12.39584325,
          "velocity": 0.5354330708661418
        },
        {
          "duration": 0.10416675000000097,
          "durationTicks": 30,
          "midi": 51,
          "name": "D#3",
          "ticks": 3600,
          "time": 12.50001,
          "velocity": 0.5354330708661418
        },
        {
          "duration": 0.1041667499999992,
          "durationTicks": 30,
          "midi": 55,
          "name": "G3",
          "ticks": 3630,
          "time": 12.60417675,
          "velocity": 0.5354330708661418
        },
        {
          "duration": 0.10416675000000097,
          "durationTicks": 30,
          "midi": 58,
          "name": "A#3",
          "ticks": 3660,
          "time": 12.7083435,
          "velocity": 0.5354330708661418
        },
        {
          "duration": 0.1041667499999992,
          "durationTicks": 30,
          "midi": 63,
          "name": "D#4",
          "ticks": 3690,
          "time": 12.81251025,
          "velocity": 0.5354330708661418
        },
        {
          "duration": 0.10416675000000097,
          "durationTicks": 30,
          "midi": 67,
          "name": "G4",
          "ticks": 3720,
          "time": 12.916677,
          "velocity": 0.5354330708661418
        },
        {
          "duration": 0.1041667499999992,
          "durationTicks": 30,
          "midi": 70,
          "name": "A#4",
          "ticks": 3750,
          "time": 13.020843750000001,
          "velocity": 0.5354330708661418
        },
        {
          "duration": 0.10416675000000097,
          "durationTicks": 30,
          "midi": 52,
          "name": "E3",
          "ticks": 3780,
          "time": 13.1250105,
          "velocity": 0.5354330708661418
        },
        {
          "duration": 0.1041667499999992,
          "durationTicks": 30,
          "midi": 57,
          "name": "A3",
          "ticks": 3810,
          "time": 13.229177250000001,
          "velocity": 0.5354330708661418
        },
        {
          "duration": 0.1041667499999992,
          "durationTicks": 30,
          "midi": 61,
          "name": "C#4",
          "ticks": 3840,
          "time": 13.333344,
          "velocity": 0.5354330708661418
        },
        {
          "duration": 0.10416675000000097,
          "durationTicks": 30,
          "midi": 64,
          "name": "E4",
          "ticks": 3870,
          "time": 13.43751075,
          "velocity": 0.5354330708661418
        },
        {
          "duration": 0.1041667499999992,
          "durationTicks": 30,
          "midi": 67,
          "name": "G4",
          "ticks": 3900,
          "time": 13.5416775,
          "velocity": 0.5354330708661418
        },
        {
          "duration": 0.10416675000000097,
          "durationTicks": 30,
          "midi": 73,
          "name": "C#5",
          "ticks": 3930,
          "time": 13.64584425,
          "velocity": 0.5354330708661418
        },
        {
          "duration": 0.1041667499999992,
          "durationTicks": 30,
          "midi": 54,
          "name": "F#3",
          "ticks": 3960,
          "time": 13.750011,
          "velocity": 0.5354330708661418
        },
        {
          "duration": 0.10416675000000097,
          "durationTicks": 30,
          "midi": 57,
          "name": "A3",
          "ticks": 3990,
          "time": 13.85417775,
          "velocity": 0.5354330708661418
        },
        {
          "duration": 0.1041667499999992,
          "durationTicks": 30,
          "midi": 62,
          "name": "D4",
          "ticks": 4020,
          "time": 13.9583445,
          "velocity": 0.5354330708661418
        },
        {
          "duration": 0.10416675000000097,
          "durationTicks": 30,
          "midi": 66,
          "name": "F#4",
          "ticks": 4050,
          "time": 14.06251125,
          "velocity": 0.5354330708661418
        },
        {
          "duration": 0.1041667499999992,
          "durationTicks": 30,
          "midi": 69,
          "name": "A4",
          "ticks": 4080,
          "time": 14.166678000000001,
          "velocity": 0.5354330708661418
        },
        {
          "duration": 0.10416675000000097,
          "durationTicks": 30,
          "midi": 74,
          "name": "D5",
          "ticks": 4110,
          "time": 14.27084475,
          "velocity": 0.5354330708661418
        },
        {
          "duration": 0.1041667499999992,
          "durationTicks": 30,
          "midi": 78,
          "name": "F#5",
          "ticks": 4140,
          "time": 14.375011500000001,
          "velocity": 0.5354330708661418
        },
        {
          "duration": 0.1041667499999992,
          "durationTicks": 30,
          "midi": 74,
          "name": "D5",
          "ticks": 4170,
          "time": 14.47917825,
          "velocity": 0.5354330708661418
        },
        {
          "duration": 0.10416675000000097,
          "durationTicks": 30,
          "midi": 69,
          "name": "A4",
          "ticks": 4200,
          "time": 14.583345,
          "velocity": 0.5354330708661418
        },
        {
          "duration": 0.1041667499999992,
          "durationTicks": 30,
          "midi": 66,
          "name": "F#4",
          "ticks": 4230,
          "time": 14.68751175,
          "velocity": 0.5354330708661418
        },
        {
          "duration": 0.10416675000000097,
          "durationTicks": 30,
          "midi": 62,
          "name": "D4",
          "ticks": 4260,
          "time": 14.7916785,
          "velocity": 0.5354330708661418
        },
        {
          "duration": 0.1041667499999992,
          "durationTicks": 30,
          "midi": 57,
          "name": "A3",
          "ticks": 4290,
          "time": 14.89584525,
          "velocity": 0.5354330708661418
        },
        {
          "duration": 0.10416675000000097,
          "durationTicks": 30,
          "midi": 55,
          "name": "G3",
          "ticks": 4320,
          "time": 15.000012,
          "velocity": 0.5354330708661418
        },
        {
          "duration": 0.1041667499999992,
          "durationTicks": 30,
          "midi": 58,
          "name": "A#3",
          "ticks": 4350,
          "time": 15.10417875,
          "velocity": 0.5354330708661418
        },
        {
          "duration": 0.10416675000000097,
          "durationTicks": 30,
          "midi": 62,
          "name": "D4",
          "ticks": 4380,
          "time": 15.2083455,
          "velocity": 0.5354330708661418
        },
        {
          "duration": 0.1041667499999992,
          "durationTicks": 30,
          "midi": 67,
          "name": "G4",
          "ticks": 4410,
          "time": 15.312512250000001,
          "velocity": 0.5354330708661418
        },
        {
          "duration": 0.10416675000000097,
          "durationTicks": 30,
          "midi": 70,
          "name": "A#4",
          "ticks": 4440,
          "time": 15.416679,
          "velocity": 0.5354330708661418
        },
        {
          "duration": 0.1041667499999992,
          "durationTicks": 30,
          "midi": 74,
          "name": "D5",
          "ticks": 4470,
          "time": 15.520845750000001,
          "velocity": 0.5354330708661418
        },
        {
          "duration": 0.1041667499999992,
          "durationTicks": 30,
          "midi": 55,
          "name": "G3",
          "ticks": 4500,
          "time": 15.6250125,
          "velocity": 0.5354330708661418
        },
        {
          "duration": 0.10416675000000097,
          "durationTicks": 30,
          "midi": 58,
          "name": "A#3",
          "ticks": 4530,
          "time": 15.72917925,
          "velocity": 0.5354330708661418
        },
        {
          "duration": 0.1041667499999992,
          "durationTicks": 30,
          "midi": 63,
          "name": "D#4",
          "ticks": 4560,
          "time": 15.833346,
          "velocity": 0.5354330708661418
        },
        {
          "duration": 0.10416675000000097,
          "durationTicks": 30,
          "midi": 67,
          "name": "G4",
          "ticks": 4590,
          "time": 15.93751275,
          "velocity": 0.5354330708661418
        },
        {
          "duration": 0.10416675000000097,
          "durationTicks": 30,
          "midi": 70,
          "name": "A#4",
          "ticks": 4620,
          "time": 16.0416795,
          "velocity": 0.5354330708661418
        },
        {
          "duration": 0.10416674999999742,
          "durationTicks": 30,
          "midi": 75,
          "name": "D#5",
          "ticks": 4650,
          "time": 16.14584625,
          "velocity": 0.5354330708661418
        },
        {
          "duration": 0.10416675000000097,
          "durationTicks": 30,
          "midi": 53,
          "name": "F3",
          "ticks": 4680,
          "time": 16.250013,
          "velocity": 0.5354330708661418
        },
        {
          "duration": 0.10416675000000097,
          "durationTicks": 30,
          "midi": 57,
          "name": "A3",
          "ticks": 4710,
          "time": 16.35417975,
          "velocity": 0.5354330708661418
        },
        {
          "duration": 0.10416675000000097,
          "durationTicks": 30,
          "midi": 60,
          "name": "C4",
          "ticks": 4740,
          "time": 16.4583465,
          "velocity": 0.5354330708661418
        },
        {
          "duration": 0.10416674999999742,
          "durationTicks": 30,
          "midi": 65,
          "name": "F4",
          "ticks": 4770,
          "time": 16.562513250000002,
          "velocity": 0.5354330708661418
        },
        {
          "duration": 0.10416675000000097,
          "durationTicks": 30,
          "midi": 69,
          "name": "A4",
          "ticks": 4800,
          "time": 16.66668,
          "velocity": 0.5354330708661418
        },
        {
          "duration": 0.10416675000000097,
          "durationTicks": 30,
          "midi": 72,
          "name": "C5",
          "ticks": 4830,
          "time": 16.77084675,
          "velocity": 0.5354330708661418
        },
        {
          "duration": 0.10416674999999742,
          "durationTicks": 30,
          "midi": 53,
          "name": "F3",
          "ticks": 4860,
          "time": 16.8750135,
          "velocity": 0.5354330708661418
        },
        {
          "duration": 0.10416675000000097,
          "durationTicks": 30,
          "midi": 57,
          "name": "A3",
          "ticks": 4890,
          "time": 16.97918025,
          "velocity": 0.5354330708661418
        },
        {
          "duration": 0.10416675000000097,
          "durationTicks": 30,
          "midi": 62,
          "name": "D4",
          "ticks": 4920,
          "time": 17.083347,
          "velocity": 0.5354330708661418
        },
        {
          "duration": 0.10416675000000097,
          "durationTicks": 30,
          "midi": 65,
          "name": "F4",
          "ticks": 4950,
          "time": 17.18751375,
          "velocity": 0.5354330708661418
        },
        {
          "duration": 0.10416674999999742,
          "durationTicks": 30,
          "midi": 69,
          "name": "A4",
          "ticks": 4980,
          "time": 17.291680500000002,
          "velocity": 0.5354330708661418
        },
        {
          "duration": 0.10416675000000097,
          "durationTicks": 30,
          "midi": 74,
          "name": "D5",
          "ticks": 5010,
          "time": 17.39584725,
          "velocity": 0.5354330708661418
        },
        {
          "duration": 0.10416675000000097,
          "durationTicks": 30,
          "midi": 51,
          "name": "D#3",
          "ticks": 5040,
          "time": 17.500014,
          "velocity": 0.5354330708661418
        },
        {
          "duration": 0.10416675000000097,
          "durationTicks": 30,
          "midi": 55,
          "name": "G3",
          "ticks": 5070,
          "time": 17.60418075,
          "velocity": 0.5354330708661418
        },
        {
          "duration": 0.10416674999999742,
          "durationTicks": 30,
          "midi": 58,
          "name": "A#3",
          "ticks": 5100,
          "time": 17.708347500000002,
          "velocity": 0.5354330708661418
        },
        {
          "duration": 0.10416675000000097,
          "durationTicks": 30,
          "midi": 63,
          "name": "D#4",
          "ticks": 5130,
          "time": 17.81251425,
          "velocity": 0.5354330708661418
        },
        {
          "duration": 0.10416675000000097,
          "durationTicks": 30,
          "midi": 67,
          "name": "G4",
          "ticks": 5160,
          "time": 17.916681,
          "velocity": 0.5354330708661418
        },
        {
          "duration": 0.10416674999999742,
          "durationTicks": 30,
          "midi": 70,
          "name": "A#4",
          "ticks": 5190,
          "time": 18.02084775,
          "velocity": 0.5354330708661418
        },
        {
          "duration": 0.10416675000000097,
          "durationTicks": 30,
          "midi": 52,
          "name": "E3",
          "ticks": 5220,
          "time": 18.1250145,
          "velocity": 0.5354330708661418
        },
        {
          "duration": 0.10416675000000097,
          "durationTicks": 30,
          "midi": 57,
          "name": "A3",
          "ticks": 5250,
          "time": 18.22918125,
          "velocity": 0.5354330708661418
        },
        {
          "duration": 0.10416675000000097,
          "durationTicks": 30,
          "midi": 61,
          "name": "C#4",
          "ticks": 5280,
          "time": 18.333348,
          "velocity": 0.5354330708661418
        },
        {
          "duration": 0.10416674999999742,
          "durationTicks": 30,
          "midi": 64,
          "name": "E4",
          "ticks": 5310,
          "time": 18.437514750000002,
          "velocity": 0.5354330708661418
        },
        {
          "duration": 0.10416675000000097,
          "durationTicks": 30,
          "midi": 69,
          "name": "A4",
          "ticks": 5340,
          "time": 18.5416815,
          "velocity": 0.5354330708661418
        },
        {
          "duration": 0.10416675000000097,
          "durationTicks": 30,
          "midi": 73,
          "name": "C#5",
          "ticks": 5370,
          "time": 18.64584825,
          "velocity": 0.5354330708661418
        },
        {
          "duration": 0.10416675000000097,
          "durationTicks": 30,
          "midi": 54,
          "name": "F#3",
          "ticks": 5400,
          "time": 18.750015,
          "velocity": 0.5354330708661418
        },
        {
          "duration": 0.10416674999999742,
          "durationTicks": 30,
          "midi": 57,
          "name": "A3",
          "ticks": 5430,
          "time": 18.854181750000002,
          "velocity": 0.5354330708661418
        },
        {
          "duration": 0.10416675000000097,
          "durationTicks": 30,
          "midi": 62,
          "name": "D4",
          "ticks": 5460,
          "time": 18.9583485,
          "velocity": 0.5354330708661418
        },
        {
          "duration": 0.10416675000000097,
          "durationTicks": 30,
          "midi": 66,
          "name": "F#4",
          "ticks": 5490,
          "time": 19.06251525,
          "velocity": 0.5354330708661418
        },
        {
          "duration": 0.10416674999999742,
          "durationTicks": 30,
          "midi": 69,
          "name": "A4",
          "ticks": 5520,
          "time": 19.166682,
          "velocity": 0.5354330708661418
        },
        {
          "duration": 0.10416675000000097,
          "durationTicks": 30,
          "midi": 74,
          "name": "D5",
          "ticks": 5550,
          "time": 19.27084875,
          "velocity": 0.5354330708661418
        },
        {
          "duration": 0.10416675000000097,
          "durationTicks": 30,
          "midi": 78,
          "name": "F#5",
          "ticks": 5580,
          "time": 19.3750155,
          "velocity": 0.5354330708661418
        },
        {
          "duration": 0.10416675000000097,
          "durationTicks": 30,
          "midi": 74,
          "name": "D5",
          "ticks": 5610,
          "time": 19.47918225,
          "velocity": 0.5354330708661418
        },
        {
          "duration": 0.10416674999999742,
          "durationTicks": 30,
          "midi": 69,
          "name": "A4",
          "ticks": 5640,
          "time": 19.583349000000002,
          "velocity": 0.5354330708661418
        },
        {
          "duration": 0.10416675000000097,
          "durationTicks": 30,
          "midi": 66,
          "name": "F#4",
          "ticks": 5670,
          "time": 19.68751575,
          "velocity": 0.5354330708661418
        },
        {
          "duration": 0.10416675000000097,
          "durationTicks": 30,
          "midi": 62,
          "name": "D4",
          "ticks": 5700,
          "time": 19.7916825,
          "velocity": 0.5354330708661418
        },
        {
          "duration": 0.10416675000000097,
          "durationTicks": 30,
          "midi": 57,
          "name": "A3",
          "ticks": 5730,
          "time": 19.89584925,
          "velocity": 0.5354330708661418
        },
        {
          "duration": 0.10416674999999742,
          "durationTicks": 30,
          "midi": 55,
          "name": "G3",
          "ticks": 5760,
          "time": 20.000016000000002,
          "velocity": 0.5354330708661418
        },
        {
          "duration": 0.10416675000000097,
          "durationTicks": 30,
          "midi": 58,
          "name": "A#3",
          "ticks": 5790,
          "time": 20.10418275,
          "velocity": 0.5354330708661418
        },
        {
          "duration": 0.10416675000000097,
          "durationTicks": 30,
          "midi": 62,
          "name": "D4",
          "ticks": 5820,
          "time": 20.2083495,
          "velocity": 0.5354330708661418
        },
        {
          "duration": 0.10416674999999742,
          "durationTicks": 30,
          "midi": 67,
          "name": "G4",
          "ticks": 5850,
          "time": 20.31251625,
          "velocity": 0.5354330708661418
        },
        {
          "duration": 0.10416675000000097,
          "durationTicks": 30,
          "midi": 70,
          "name": "A#4",
          "ticks": 5880,
          "time": 20.416683,
          "velocity": 0.5354330708661418
        },
        {
          "duration": 0.10416675000000097,
          "durationTicks": 30,
          "midi": 74,
          "name": "D5",
          "ticks": 5910,
          "time": 20.52084975,
          "velocity": 0.5354330708661418
        },
        {
          "duration": 0.10416675000000097,
          "durationTicks": 30,
          "midi": 55,
          "name": "G3",
          "ticks": 5940,
          "time": 20.6250165,
          "velocity": 0.5354330708661418
        },
        {
          "duration": 0.10416674999999742,
          "durationTicks": 30,
          "midi": 58,
          "name": "A#3",
          "ticks": 5970,
          "time": 20.729183250000002,
          "velocity": 0.5354330708661418
        },
        {
          "duration": 0.10416675000000097,
          "durationTicks": 30,
          "midi": 63,
          "name": "D#4",
          "ticks": 6000,
          "time": 20.83335,
          "velocity": 0.5354330708661418
        },
        {
          "duration": 0.10416675000000097,
          "durationTicks": 30,
          "midi": 67,
          "name": "G4",
          "ticks": 6030,
          "time": 20.93751675,
          "velocity": 0.5354330708661418
        },
        {
          "duration": 0.10416674999999742,
          "durationTicks": 30,
          "midi": 70,
          "name": "A#4",
          "ticks": 6060,
          "time": 21.0416835,
          "velocity": 0.5354330708661418
        },
        {
          "duration": 0.10416675000000097,
          "durationTicks": 30,
          "midi": 75,
          "name": "D#5",
          "ticks": 6090,
          "time": 21.14585025,
          "velocity": 0.5354330708661418
        },
        {
          "duration": 0.10416675000000097,
          "durationTicks": 30,
          "midi": 53,
          "name": "F3",
          "ticks": 6120,
          "time": 21.250017,
          "velocity": 0.5354330708661418
        },
        {
          "duration": 0.10416675000000097,
          "durationTicks": 30,
          "midi": 57,
          "name": "A3",
          "ticks": 6150,
          "time": 21.35418375,
          "velocity": 0.5354330708661418
        },
        {
          "duration": 0.10416674999999742,
          "durationTicks": 30,
          "midi": 60,
          "name": "C4",
          "ticks": 6180,
          "time": 21.4583505,
          "velocity": 0.5354330708661418
        },
        {
          "duration": 0.10416675000000097,
          "durationTicks": 30,
          "midi": 65,
          "name": "F4",
          "ticks": 6210,
          "time": 21.56251725,
          "velocity": 0.5354330708661418
        },
        {
          "duration": 0.10416675000000097,
          "durationTicks": 30,
          "midi": 69,
          "name": "A4",
          "ticks": 6240,
          "time": 21.666684,
          "velocity": 0.5354330708661418
        },
        {
          "duration": 0.10416675000000097,
          "durationTicks": 30,
          "midi": 72,
          "name": "C5",
          "ticks": 6270,
          "time": 21.77085075,
          "velocity": 0.5354330708661418
        },
        {
          "duration": 0.10416674999999742,
          "durationTicks": 30,
          "midi": 53,
          "name": "F3",
          "ticks": 6300,
          "time": 21.875017500000002,
          "velocity": 0.5354330708661418
        },
        {
          "duration": 0.10416675000000097,
          "durationTicks": 30,
          "midi": 57,
          "name": "A3",
          "ticks": 6330,
          "time": 21.97918425,
          "velocity": 0.5354330708661418
        },
        {
          "duration": 0.10416675000000097,
          "durationTicks": 30,
          "midi": 62,
          "name": "D4",
          "ticks": 6360,
          "time": 22.083351,
          "velocity": 0.5354330708661418
        },
        {
          "duration": 0.10416674999999742,
          "durationTicks": 30,
          "midi": 65,
          "name": "F4",
          "ticks": 6390,
          "time": 22.18751775,
          "velocity": 0.5354330708661418
        },
        {
          "duration": 0.10416675000000097,
          "durationTicks": 30,
          "midi": 69,
          "name": "A4",
          "ticks": 6420,
          "time": 22.2916845,
          "velocity": 0.5354330708661418
        },
        {
          "duration": 0.10416675000000097,
          "durationTicks": 30,
          "midi": 74,
          "name": "D5",
          "ticks": 6450,
          "time": 22.39585125,
          "velocity": 0.5354330708661418
        },
        {
          "duration": 0.10416675000000097,
          "durationTicks": 30,
          "midi": 51,
          "name": "D#3",
          "ticks": 6480,
          "time": 22.500018,
          "velocity": 0.5354330708661418
        },
        {
          "duration": 0.10416674999999742,
          "durationTicks": 30,
          "midi": 55,
          "name": "G3",
          "ticks": 6510,
          "time": 22.60418475,
          "velocity": 0.5354330708661418
        },
        {
          "duration": 0.10416675000000097,
          "durationTicks": 30,
          "midi": 58,
          "name": "A#3",
          "ticks": 6540,
          "time": 22.7083515,
          "velocity": 0.5354330708661418
        },
        {
          "duration": 0.10416675000000097,
          "durationTicks": 30,
          "midi": 63,
          "name": "D#4",
          "ticks": 6570,
          "time": 22.81251825,
          "velocity": 0.5354330708661418
        },
        {
          "duration": 0.10416675000000097,
          "durationTicks": 30,
          "midi": 67,
          "name": "G4",
          "ticks": 6600,
          "time": 22.916685,
          "velocity": 0.5354330708661418
        },
        {
          "duration": 0.10416674999999742,
          "durationTicks": 30,
          "midi": 70,
          "name": "A#4",
          "ticks": 6630,
          "time": 23.020851750000002,
          "velocity": 0.5354330708661418
        },
        {
          "duration": 0.10416675000000097,
          "durationTicks": 30,
          "midi": 52,
          "name": "E3",
          "ticks": 6660,
          "time": 23.1250185,
          "velocity": 0.5354330708661418
        },
        {
          "duration": 0.10416675000000097,
          "durationTicks": 30,
          "midi": 57,
          "name": "A3",
          "ticks": 6690,
          "time": 23.22918525,
          "velocity": 0.5354330708661418
        },
        {
          "duration": 0.10416674999999742,
          "durationTicks": 30,
          "midi": 61,
          "name": "C#4",
          "ticks": 6720,
          "time": 23.333352,
          "velocity": 0.5354330708661418
        },
        {
          "duration": 0.10416675000000097,
          "durationTicks": 30,
          "midi": 64,
          "name": "E4",
          "ticks": 6750,
          "time": 23.43751875,
          "velocity": 0.5354330708661418
        },
        {
          "duration": 0.10416675000000097,
          "durationTicks": 30,
          "midi": 67,
          "name": "G4",
          "ticks": 6780,
          "time": 23.5416855,
          "velocity": 0.5354330708661418
        },
        {
          "duration": 0.10416675000000097,
          "durationTicks": 30,
          "midi": 73,
          "name": "C#5",
          "ticks": 6810,
          "time": 23.64585225,
          "velocity": 0.5354330708661418
        },
        {
          "duration": 0.10416674999999742,
          "durationTicks": 30,
          "midi": 54,
          "name": "F#3",
          "ticks": 6840,
          "time": 23.750019,
          "velocity": 0.5354330708661418
        },
        {
          "duration": 0.10416675000000097,
          "durationTicks": 30,
          "midi": 57,
          "name": "A3",
          "ticks": 6870,
          "time": 23.85418575,
          "velocity": 0.5354330708661418
        },
        {
          "duration": 0.10416675000000097,
          "durationTicks": 30,
          "midi": 62,
          "name": "D4",
          "ticks": 6900,
          "time": 23.9583525,
          "velocity": 0.5354330708661418
        },
        {
          "duration": 0.10416675000000097,
          "durationTicks": 30,
          "midi": 66,
          "name": "F#4",
          "ticks": 6930,
          "time": 24.06251925,
          "velocity": 0.5354330708661418
        },
        {
          "duration": 0.10416674999999742,
          "durationTicks": 30,
          "midi": 69,
          "name": "A4",
          "ticks": 6960,
          "time": 24.166686000000002,
          "velocity": 0.5354330708661418
        },
        {
          "duration": 0.10416675000000097,
          "durationTicks": 30,
          "midi": 74,
          "name": "D5",
          "ticks": 6990,
          "time": 24.27085275,
          "velocity": 0.5354330708661418
        },
        {
          "duration": 0.10416675000000097,
          "durationTicks": 30,
          "midi": 78,
          "name": "F#5",
          "ticks": 7020,
          "time": 24.3750195,
          "velocity": 0.5354330708661418
        },
        {
          "duration": 0.10416674999999742,
          "durationTicks": 30,
          "midi": 74,
          "name": "D5",
          "ticks": 7050,
          "time": 24.47918625,
          "velocity": 0.5354330708661418
        },
        {
          "duration": 0.10416675000000097,
          "durationTicks": 30,
          "midi": 69,
          "name": "A4",
          "ticks": 7080,
          "time": 24.583353,
          "velocity": 0.5354330708661418
        },
        {
          "duration": 0.10416675000000097,
          "durationTicks": 30,
          "midi": 66,
          "name": "F#4",
          "ticks": 7110,
          "time": 24.68751975,
          "velocity": 0.5354330708661418
        },
        {
          "duration": 0.10416675000000097,
          "durationTicks": 30,
          "midi": 62,
          "name": "D4",
          "ticks": 7140,
          "time": 24.7916865,
          "velocity": 0.5354330708661418
        },
        {
          "duration": 0.10416674999999742,
          "durationTicks": 30,
          "midi": 57,
          "name": "A3",
          "ticks": 7170,
          "time": 24.895853250000002,
          "velocity": 0.5354330708661418
        },
        {
          "duration": 0.10416675000000097,
          "durationTicks": 30,
          "midi": 55,
          "name": "G3",
          "ticks": 7200,
          "time": 25.00002,
          "velocity": 0.5354330708661418
        },
        {
          "duration": 0.10416675000000097,
          "durationTicks": 30,
          "midi": 58,
          "name": "A#3",
          "ticks": 7230,
          "time": 25.10418675,
          "velocity": 0.5354330708661418
        },
        {
          "duration": 0.10416675000000097,
          "durationTicks": 30,
          "midi": 62,
          "name": "D4",
          "ticks": 7260,
          "time": 25.2083535,
          "velocity": 0.5354330708661418
        },
        {
          "duration": 0.10416674999999742,
          "durationTicks": 30,
          "midi": 67,
          "name": "G4",
          "ticks": 7290,
          "time": 25.312520250000002,
          "velocity": 0.5354330708661418
        },
        {
          "duration": 0.10416675000000097,
          "durationTicks": 30,
          "midi": 70,
          "name": "A#4",
          "ticks": 7320,
          "time": 25.416687,
          "velocity": 0.5354330708661418
        },
        {
          "duration": 0.10416675000000097,
          "durationTicks": 30,
          "midi": 74,
          "name": "D5",
          "ticks": 7350,
          "time": 25.52085375,
          "velocity": 0.5354330708661418
        },
        {
          "duration": 0.10416674999999742,
          "durationTicks": 30,
          "midi": 55,
          "name": "G3",
          "ticks": 7380,
          "time": 25.6250205,
          "velocity": 0.5354330708661418
        },
        {
          "duration": 0.10416675000000097,
          "durationTicks": 30,
          "midi": 58,
          "name": "A#3",
          "ticks": 7410,
          "time": 25.72918725,
          "velocity": 0.5354330708661418
        },
        {
          "duration": 0.10416675000000097,
          "durationTicks": 30,
          "midi": 63,
          "name": "D#4",
          "ticks": 7440,
          "time": 25.833354,
          "velocity": 0.5354330708661418
        },
        {
          "duration": 0.10416675000000097,
          "durationTicks": 30,
          "midi": 67,
          "name": "G4",
          "ticks": 7470,
          "time": 25.93752075,
          "velocity": 0.5354330708661418
        },
        {
          "duration": 0.10416674999999742,
          "durationTicks": 30,
          "midi": 70,
          "name": "A#4",
          "ticks": 7500,
          "time": 26.041687500000002,
          "velocity": 0.5354330708661418
        },
        {
          "duration": 0.10416675000000097,
          "durationTicks": 30,
          "midi": 75,
          "name": "D#5",
          "ticks": 7530,
          "time": 26.14585425,
          "velocity": 0.5354330708661418
        },
        {
          "duration": 0.10416675000000097,
          "durationTicks": 30,
          "midi": 53,
          "name": "F3",
          "ticks": 7560,
          "time": 26.250021,
          "velocity": 0.5354330708661418
        },
        {
          "duration": 0.10416675000000097,
          "durationTicks": 30,
          "midi": 57,
          "name": "A3",
          "ticks": 7590,
          "time": 26.35418775,
          "velocity": 0.5354330708661418
        },
        {
          "duration": 0.10416674999999742,
          "durationTicks": 30,
          "midi": 60,
          "name": "C4",
          "ticks": 7620,
          "time": 26.458354500000002,
          "velocity": 0.5354330708661418
        },
        {
          "duration": 0.10416675000000097,
          "durationTicks": 30,
          "midi": 65,
          "name": "F4",
          "ticks": 7650,
          "time": 26.56252125,
          "velocity": 0.5354330708661418
        },
        {
          "duration": 0.10416675000000097,
          "durationTicks": 30,
          "midi": 69,
          "name": "A4",
          "ticks": 7680,
          "time": 26.666688,
          "velocity": 0.5354330708661418
        },
        {
          "duration": 0.10416674999999742,
          "durationTicks": 30,
          "midi": 72,
          "name": "C5",
          "ticks": 7710,
          "time": 26.77085475,
          "velocity": 0.5354330708661418
        },
        {
          "duration": 0.10416675000000097,
          "durationTicks": 30,
          "midi": 53,
          "name": "F3",
          "ticks": 7740,
          "time": 26.8750215,
          "velocity": 0.5354330708661418
        },
        {
          "duration": 0.10416675000000097,
          "durationTicks": 30,
          "midi": 57,
          "name": "A3",
          "ticks": 7770,
          "time": 26.97918825,
          "velocity": 0.5354330708661418
        },
        {
          "duration": 0.10416675000000097,
          "durationTicks": 30,
          "midi": 62,
          "name": "D4",
          "ticks": 7800,
          "time": 27.083355,
          "velocity": 0.5354330708661418
        },
        {
          "duration": 0.10416674999999742,
          "durationTicks": 30,
          "midi": 65,
          "name": "F4",
          "ticks": 7830,
          "time": 27.187521750000002,
          "velocity": 0.5354330708661418
        },
        {
          "duration": 0.10416675000000097,
          "durationTicks": 30,
          "midi": 69,
          "name": "A4",
          "ticks": 7860,
          "time": 27.2916885,
          "velocity": 0.5354330708661418
        },
        {
          "duration": 0.10416675000000097,
          "durationTicks": 30,
          "midi": 74,
          "name": "D5",
          "ticks": 7890,
          "time": 27.39585525,
          "velocity": 0.5354330708661418
        },
        {
          "duration": 0.10416675000000097,
          "durationTicks": 30,
          "midi": 51,
          "name": "D#3",
          "ticks": 7920,
          "time": 27.500022,
          "velocity": 0.5354330708661418
        },
        {
          "duration": 0.10416674999999742,
          "durationTicks": 30,
          "midi": 55,
          "name": "G3",
          "ticks": 7950,
          "time": 27.604188750000002,
          "velocity": 0.5354330708661418
        },
        {
          "duration": 0.10416675000000097,
          "durationTicks": 30,
          "midi": 58,
          "name": "A#3",
          "ticks": 7980,
          "time": 27.7083555,
          "velocity": 0.5354330708661418
        },
        {
          "duration": 0.10416675000000097,
          "durationTicks": 30,
          "midi": 63,
          "name": "D#4",
          "ticks": 8010,
          "time": 27.81252225,
          "velocity": 0.5354330708661418
        },
        {
          "duration": 0.10416674999999742,
          "durationTicks": 30,
          "midi": 67,
          "name": "G4",
          "ticks": 8040,
          "time": 27.916689,
          "velocity": 0.5354330708661418
        },
        {
          "duration": 0.10416675000000097,
          "durationTicks": 30,
          "midi": 70,
          "name": "A#4",
          "ticks": 8070,
          "time": 28.02085575,
          "velocity": 0.5354330708661418
        },
        {
          "duration": 0.10416675000000097,
          "durationTicks": 30,
          "midi": 52,
          "name": "E3",
          "ticks": 8100,
          "time": 28.1250225,
          "velocity": 0.5354330708661418
        },
        {
          "duration": 0.10416675000000097,
          "durationTicks": 30,
          "midi": 57,
          "name": "A3",
          "ticks": 8130,
          "time": 28.22918925,
          "velocity": 0.5354330708661418
        },
        {
          "duration": 0.10416674999999742,
          "durationTicks": 30,
          "midi": 61,
          "name": "C#4",
          "ticks": 8160,
          "time": 28.333356000000002,
          "velocity": 0.5354330708661418
        },
        {
          "duration": 0.10416675000000097,
          "durationTicks": 30,
          "midi": 64,
          "name": "E4",
          "ticks": 8190,
          "time": 28.43752275,
          "velocity": 0.5354330708661418
        },
        {
          "duration": 0.10416675000000097,
          "durationTicks": 30,
          "midi": 69,
          "name": "A4",
          "ticks": 8220,
          "time": 28.5416895,
          "velocity": 0.5354330708661418
        },
        {
          "duration": 0.10416675000000097,
          "durationTicks": 30,
          "midi": 73,
          "name": "C#5",
          "ticks": 8250,
          "time": 28.64585625,
          "velocity": 0.5354330708661418
        },
        {
          "duration": 0.10416674999999742,
          "durationTicks": 30,
          "midi": 54,
          "name": "F#3",
          "ticks": 8280,
          "time": 28.750023000000002,
          "velocity": 0.5354330708661418
        },
        {
          "duration": 0.10416675000000097,
          "durationTicks": 30,
          "midi": 57,
          "name": "A3",
          "ticks": 8310,
          "time": 28.85418975,
          "velocity": 0.5354330708661418
        },
        {
          "duration": 0.10416675000000097,
          "durationTicks": 30,
          "midi": 62,
          "name": "D4",
          "ticks": 8340,
          "time": 28.9583565,
          "velocity": 0.5354330708661418
        },
        {
          "duration": 0.10416674999999742,
          "durationTicks": 30,
          "midi": 66,
          "name": "F#4",
          "ticks": 8370,
          "time": 29.06252325,
          "velocity": 0.5354330708661418
        },
        {
          "duration": 0.10416675000000097,
          "durationTicks": 30,
          "midi": 69,
          "name": "A4",
          "ticks": 8400,
          "time": 29.16669,
          "velocity": 0.5354330708661418
        },
        {
          "duration": 0.10416675000000097,
          "durationTicks": 30,
          "midi": 74,
          "name": "D5",
          "ticks": 8430,
          "time": 29.27085675,
          "velocity": 0.5354330708661418
        },
        {
          "duration": 0.10416675000000097,
          "durationTicks": 30,
          "midi": 78,
          "name": "F#5",
          "ticks": 8460,
          "time": 29.3750235,
          "velocity": 0.5354330708661418
        },
        {
          "duration": 0.10416674999999742,
          "durationTicks": 30,
          "midi": 74,
          "name": "D5",
          "ticks": 8490,
          "time": 29.479190250000002,
          "velocity": 0.5354330708661418
        },
        {
          "duration": 0.10416675000000097,
          "durationTicks": 30,
          "midi": 69,
          "name": "A4",
          "ticks": 8520,
          "time": 29.583357,
          "velocity": 0.5354330708661418
        },
        {
          "duration": 0.10416675000000097,
          "durationTicks": 30,
          "midi": 66,
          "name": "F#4",
          "ticks": 8550,
          "time": 29.68752375,
          "velocity": 0.5354330708661418
        },
        {
          "duration": 0.10416675000000097,
          "durationTicks": 30,
          "midi": 62,
          "name": "D4",
          "ticks": 8580,
          "time": 29.7916905,
          "velocity": 0.5354330708661418
        },
        {
          "duration": 0.10416674999999742,
          "durationTicks": 30,
          "midi": 57,
          "name": "A3",
          "ticks": 8610,
          "time": 29.895857250000002,
          "velocity": 0.5354330708661418
        },
        {
          "duration": 0.10416675000000097,
          "durationTicks": 30,
          "midi": 55,
          "name": "G3",
          "ticks": 8640,
          "time": 30.000024,
          "velocity": 0.5354330708661418
        },
        {
          "duration": 0.10416675000000097,
          "durationTicks": 30,
          "midi": 58,
          "name": "A#3",
          "ticks": 8670,
          "time": 30.10419075,
          "velocity": 0.5354330708661418
        },
        {
          "duration": 0.10416674999999742,
          "durationTicks": 30,
          "midi": 62,
          "name": "D4",
          "ticks": 8700,
          "time": 30.2083575,
          "velocity": 0.5354330708661418
        },
        {
          "duration": 0.10416675000000097,
          "durationTicks": 30,
          "midi": 67,
          "name": "G4",
          "ticks": 8730,
          "time": 30.31252425,
          "velocity": 0.5354330708661418
        },
        {
          "duration": 0.10416675000000097,
          "durationTicks": 30,
          "midi": 70,
          "name": "A#4",
          "ticks": 8760,
          "time": 30.416691,
          "velocity": 0.5354330708661418
        },
        {
          "duration": 0.10416675000000097,
          "durationTicks": 30,
          "midi": 74,
          "name": "D5",
          "ticks": 8790,
          "time": 30.52085775,
          "velocity": 0.5354330708661418
        },
        {
          "duration": 0.10416674999999742,
          "durationTicks": 30,
          "midi": 55,
          "name": "G3",
          "ticks": 8820,
          "time": 30.625024500000002,
          "velocity": 0.5354330708661418
        },
        {
          "duration": 0.10416675000000097,
          "durationTicks": 30,
          "midi": 58,
          "name": "A#3",
          "ticks": 8850,
          "time": 30.72919125,
          "velocity": 0.5354330708661418
        },
        {
          "duration": 0.10416675000000097,
          "durationTicks": 30,
          "midi": 63,
          "name": "D#4",
          "ticks": 8880,
          "time": 30.833358,
          "velocity": 0.5354330708661418
        },
        {
          "duration": 0.10416675000000097,
          "durationTicks": 30,
          "midi": 67,
          "name": "G4",
          "ticks": 8910,
          "time": 30.93752475,
          "velocity": 0.5354330708661418
        },
        {
          "duration": 0.10416674999999742,
          "durationTicks": 30,
          "midi": 70,
          "name": "A#4",
          "ticks": 8940,
          "time": 31.041691500000002,
          "velocity": 0.5354330708661418
        },
        {
          "duration": 0.10416675000000097,
          "durationTicks": 30,
          "midi": 75,
          "name": "D#5",
          "ticks": 8970,
          "time": 31.14585825,
          "velocity": 0.5354330708661418
        },
        {
          "duration": 0.10416675000000097,
          "durationTicks": 30,
          "midi": 53,
          "name": "F3",
          "ticks": 9000,
          "time": 31.250025,
          "velocity": 0.5354330708661418
        },
        {
          "duration": 0.10416674999999742,
          "durationTicks": 30,
          "midi": 57,
          "name": "A3",
          "ticks": 9030,
          "time": 31.354191750000002,
          "velocity": 0.5354330708661418
        },
        {
          "duration": 0.10416675000000097,
          "durationTicks": 30,
          "midi": 60,
          "name": "C4",
          "ticks": 9060,
          "time": 31.4583585,
          "velocity": 0.5354330708661418
        },
        {
          "duration": 0.10416675000000097,
          "durationTicks": 30,
          "midi": 65,
          "name": "F4",
          "ticks": 9090,
          "time": 31.56252525,
          "velocity": 0.5354330708661418
        },
        {
          "duration": 0.10416675000000097,
          "durationTicks": 30,
          "midi": 69,
          "name": "A4",
          "ticks": 9120,
          "time": 31.666692,
          "velocity": 0.5354330708661418
        },
        {
          "duration": 0.10416674999999742,
          "durationTicks": 30,
          "midi": 72,
          "name": "C5",
          "ticks": 9150,
          "time": 31.770858750000002,
          "velocity": 0.5354330708661418
        },
        {
          "duration": 0.10416675000000097,
          "durationTicks": 30,
          "midi": 53,
          "name": "F3",
          "ticks": 9180,
          "time": 31.8750255,
          "velocity": 0.5354330708661418
        },
        {
          "duration": 0.10416675000000097,
          "durationTicks": 30,
          "midi": 57,
          "name": "A3",
          "ticks": 9210,
          "time": 31.97919225,
          "velocity": 0.5354330708661418
        },
        {
          "duration": 0.10416674999999742,
          "durationTicks": 30,
          "midi": 62,
          "name": "D4",
          "ticks": 9240,
          "time": 32.083359,
          "velocity": 0.5354330708661418
        },
        {
          "duration": 0.10416675000000453,
          "durationTicks": 30,
          "midi": 65,
          "name": "F4",
          "ticks": 9270,
          "time": 32.18752575,
          "velocity": 0.5354330708661418
        },
        {
          "duration": 0.10416674999999742,
          "durationTicks": 30,
          "midi": 69,
          "name": "A4",
          "ticks": 9300,
          "time": 32.2916925,
          "velocity": 0.5354330708661418
        },
        {
          "duration": 0.10416674999999742,
          "durationTicks": 30,
          "midi": 74,
          "name": "D5",
          "ticks": 9330,
          "time": 32.39585925,
          "velocity": 0.5354330708661418
        },
        {
          "duration": 0.10416675000000453,
          "durationTicks": 30,
          "midi": 51,
          "name": "D#3",
          "ticks": 9360,
          "time": 32.500026,
          "velocity": 0.5354330708661418
        },
        {
          "duration": 0.10416674999999742,
          "durationTicks": 30,
          "midi": 55,
          "name": "G3",
          "ticks": 9390,
          "time": 32.60419275,
          "velocity": 0.5354330708661418
        },
        {
          "duration": 0.10416674999999742,
          "durationTicks": 30,
          "midi": 58,
          "name": "A#3",
          "ticks": 9420,
          "time": 32.7083595,
          "velocity": 0.5354330708661418
        },
        {
          "duration": 0.10416675000000453,
          "durationTicks": 30,
          "midi": 63,
          "name": "D#4",
          "ticks": 9450,
          "time": 32.81252625,
          "velocity": 0.5354330708661418
        },
        {
          "duration": 0.10416674999999742,
          "durationTicks": 30,
          "midi": 67,
          "name": "G4",
          "ticks": 9480,
          "time": 32.916693,
          "velocity": 0.5354330708661418
        },
        {
          "duration": 0.10416675000000453,
          "durationTicks": 30,
          "midi": 70,
          "name": "A#4",
          "ticks": 9510,
          "time": 33.02085975,
          "velocity": 0.5354330708661418
        },
        {
          "duration": 0.10416674999999742,
          "durationTicks": 30,
          "midi": 52,
          "name": "E3",
          "ticks": 9540,
          "time": 33.125026500000004,
          "velocity": 0.5354330708661418
        },
        {
          "duration": 0.10416674999999742,
          "durationTicks": 30,
          "midi": 57,
          "name": "A3",
          "ticks": 9570,
          "time": 33.22919325,
          "velocity": 0.5354330708661418
        },
        {
          "duration": 0.10416675000000453,
          "durationTicks": 30,
          "midi": 61,
          "name": "C#4",
          "ticks": 9600,
          "time": 33.33336,
          "velocity": 0.5354330708661418
        },
        {
          "duration": 0.10416674999999742,
          "durationTicks": 30,
          "midi": 64,
          "name": "E4",
          "ticks": 9630,
          "time": 33.43752675,
          "velocity": 0.5354330708661418
        },
        {
          "duration": 0.10416674999999742,
          "durationTicks": 30,
          "midi": 67,
          "name": "G4",
          "ticks": 9660,
          "time": 33.5416935,
          "velocity": 0.5354330708661418
        },
        {
          "duration": 0.10416675000000453,
          "durationTicks": 30,
          "midi": 73,
          "name": "C#5",
          "ticks": 9690,
          "time": 33.64586025,
          "velocity": 0.5354330708661418
        },
        {
          "duration": 0.10416674999999742,
          "durationTicks": 30,
          "midi": 54,
          "name": "F#3",
          "ticks": 9720,
          "time": 33.750027,
          "velocity": 0.5354330708661418
        },
        {
          "duration": 0.10416674999999742,
          "durationTicks": 30,
          "midi": 57,
          "name": "A3",
          "ticks": 9750,
          "time": 33.85419375,
          "velocity": 0.5354330708661418
        },
        {
          "duration": 0.10416675000000453,
          "durationTicks": 30,
          "midi": 62,
          "name": "D4",
          "ticks": 9780,
          "time": 33.9583605,
          "velocity": 0.5354330708661418
        },
        {
          "duration": 0.10416674999999742,
          "durationTicks": 30,
          "midi": 66,
          "name": "F#4",
          "ticks": 9810,
          "time": 34.06252725,
          "velocity": 0.5354330708661418
        },
        {
          "duration": 0.10416675000000453,
          "durationTicks": 30,
          "midi": 69,
          "name": "A4",
          "ticks": 9840,
          "time": 34.166694,
          "velocity": 0.5354330708661418
        },
        {
          "duration": 0.10416674999999742,
          "durationTicks": 30,
          "midi": 74,
          "name": "D5",
          "ticks": 9870,
          "time": 34.270860750000004,
          "velocity": 0.5354330708661418
        },
        {
          "duration": 0.10416674999999742,
          "durationTicks": 30,
          "midi": 78,
          "name": "F#5",
          "ticks": 9900,
          "time": 34.3750275,
          "velocity": 0.5354330708661418
        },
        {
          "duration": 0.10416675000000453,
          "durationTicks": 30,
          "midi": 74,
          "name": "D5",
          "ticks": 9930,
          "time": 34.47919425,
          "velocity": 0.5354330708661418
        },
        {
          "duration": 0.10416674999999742,
          "durationTicks": 30,
          "midi": 69,
          "name": "A4",
          "ticks": 9960,
          "time": 34.583361000000004,
          "velocity": 0.5354330708661418
        },
        {
          "duration": 0.10416674999999742,
          "durationTicks": 30,
          "midi": 66,
          "name": "F#4",
          "ticks": 9990,
          "time": 34.68752775,
          "velocity": 0.5354330708661418
        },
        {
          "duration": 0.10416675000000453,
          "durationTicks": 30,
          "midi": 62,
          "name": "D4",
          "ticks": 10020,
          "time": 34.7916945,
          "velocity": 0.5354330708661418
        },
        {
          "duration": 0.10416674999999742,
          "durationTicks": 30,
          "midi": 57,
          "name": "A3",
          "ticks": 10050,
          "time": 34.89586125,
          "velocity": 0.5354330708661418
        },
        {
          "duration": 0.10416674999999742,
          "durationTicks": 30,
          "midi": 55,
          "name": "G3",
          "ticks": 10080,
          "time": 35.000028,
          "velocity": 0.5354330708661418
        },
        {
          "duration": 0.10416675000000453,
          "durationTicks": 30,
          "midi": 58,
          "name": "A#3",
          "ticks": 10110,
          "time": 35.10419475,
          "velocity": 0.5354330708661418
        },
        {
          "duration": 0.10416674999999742,
          "durationTicks": 30,
          "midi": 62,
          "name": "D4",
          "ticks": 10140,
          "time": 35.2083615,
          "velocity": 0.5354330708661418
        },
        {
          "duration": 0.10416675000000453,
          "durationTicks": 30,
          "midi": 67,
          "name": "G4",
          "ticks": 10170,
          "time": 35.31252825,
          "velocity": 0.5354330708661418
        },
        {
          "duration": 0.10416674999999742,
          "durationTicks": 30,
          "midi": 70,
          "name": "A#4",
          "ticks": 10200,
          "time": 35.416695000000004,
          "velocity": 0.5354330708661418
        },
        {
          "duration": 0.10416674999999742,
          "durationTicks": 30,
          "midi": 74,
          "name": "D5",
          "ticks": 10230,
          "time": 35.52086175,
          "velocity": 0.5354330708661418
        },
        {
          "duration": 0.10416675000000453,
          "durationTicks": 30,
          "midi": 55,
          "name": "G3",
          "ticks": 10260,
          "time": 35.6250285,
          "velocity": 0.5354330708661418
        },
        {
          "duration": 0.10416674999999742,
          "durationTicks": 30,
          "midi": 58,
          "name": "A#3",
          "ticks": 10290,
          "time": 35.729195250000004,
          "velocity": 0.5354330708661418
        },
        {
          "duration": 0.10416674999999742,
          "durationTicks": 30,
          "midi": 63,
          "name": "D#4",
          "ticks": 10320,
          "time": 35.833362,
          "velocity": 0.5354330708661418
        },
        {
          "duration": 0.10416675000000453,
          "durationTicks": 30,
          "midi": 67,
          "name": "G4",
          "ticks": 10350,
          "time": 35.93752875,
          "velocity": 0.5354330708661418
        },
        {
          "duration": 0.10416674999999742,
          "durationTicks": 30,
          "midi": 70,
          "name": "A#4",
          "ticks": 10380,
          "time": 36.0416955,
          "velocity": 0.5354330708661418
        },
        {
          "duration": 0.10416674999999742,
          "durationTicks": 30,
          "midi": 75,
          "name": "D#5",
          "ticks": 10410,
          "time": 36.14586225,
          "velocity": 0.5354330708661418
        },
        {
          "duration": 0.10416675000000453,
          "durationTicks": 30,
          "midi": 53,
          "name": "F3",
          "ticks": 10440,
          "time": 36.250029,
          "velocity": 0.5354330708661418
        },
        {
          "duration": 0.10416674999999742,
          "durationTicks": 30,
          "midi": 57,
          "name": "A3",
          "ticks": 10470,
          "time": 36.35419575,
          "velocity": 0.5354330708661418
        },
        {
          "duration": 0.10416675000000453,
          "durationTicks": 30,
          "midi": 60,
          "name": "C4",
          "ticks": 10500,
          "time": 36.4583625,
          "velocity": 0.5354330708661418
        },
        {
          "duration": 0.10416674999999742,
          "durationTicks": 30,
          "midi": 65,
          "name": "F4",
          "ticks": 10530,
          "time": 36.562529250000004,
          "velocity": 0.5354330708661418
        },
        {
          "duration": 0.10416674999999742,
          "durationTicks": 30,
          "midi": 69,
          "name": "A4",
          "ticks": 10560,
          "time": 36.666696,
          "velocity": 0.5354330708661418
        },
        {
          "duration": 0.10416675000000453,
          "durationTicks": 30,
          "midi": 72,
          "name": "C5",
          "ticks": 10590,
          "time": 36.77086275,
          "velocity": 0.5354330708661418
        },
        {
          "duration": 0.10416674999999742,
          "durationTicks": 30,
          "midi": 53,
          "name": "F3",
          "ticks": 10620,
          "time": 36.875029500000004,
          "velocity": 0.5354330708661418
        },
        {
          "duration": 0.10416674999999742,
          "durationTicks": 30,
          "midi": 57,
          "name": "A3",
          "ticks": 10650,
          "time": 36.97919625,
          "velocity": 0.5354330708661418
        },
        {
          "duration": 0.10416675000000453,
          "durationTicks": 30,
          "midi": 62,
          "name": "D4",
          "ticks": 10680,
          "time": 37.083363,
          "velocity": 0.5354330708661418
        },
        {
          "duration": 0.10416674999999742,
          "durationTicks": 30,
          "midi": 65,
          "name": "F4",
          "ticks": 10710,
          "time": 37.18752975,
          "velocity": 0.5354330708661418
        },
        {
          "duration": 0.10416674999999742,
          "durationTicks": 30,
          "midi": 69,
          "name": "A4",
          "ticks": 10740,
          "time": 37.2916965,
          "velocity": 0.5354330708661418
        },
        {
          "duration": 0.10416675000000453,
          "durationTicks": 30,
          "midi": 74,
          "name": "D5",
          "ticks": 10770,
          "time": 37.39586325,
          "velocity": 0.5354330708661418
        },
        {
          "duration": 0.10416674999999742,
          "durationTicks": 30,
          "midi": 51,
          "name": "D#3",
          "ticks": 10800,
          "time": 37.50003,
          "velocity": 0.5354330708661418
        },
        {
          "duration": 0.10416675000000453,
          "durationTicks": 30,
          "midi": 55,
          "name": "G3",
          "ticks": 10830,
          "time": 37.60419675,
          "velocity": 0.5354330708661418
        },
        {
          "duration": 0.10416674999999742,
          "durationTicks": 30,
          "midi": 58,
          "name": "A#3",
          "ticks": 10860,
          "time": 37.708363500000004,
          "velocity": 0.5354330708661418
        },
        {
          "duration": 0.10416674999999742,
          "durationTicks": 30,
          "midi": 63,
          "name": "D#4",
          "ticks": 10890,
          "time": 37.81253025,
          "velocity": 0.5354330708661418
        },
        {
          "duration": 0.10416675000000453,
          "durationTicks": 30,
          "midi": 67,
          "name": "G4",
          "ticks": 10920,
          "time": 37.916697,
          "velocity": 0.5354330708661418
        },
        {
          "duration": 0.10416674999999742,
          "durationTicks": 30,
          "midi": 70,
          "name": "A#4",
          "ticks": 10950,
          "time": 38.020863750000004,
          "velocity": 0.5354330708661418
        },
        {
          "duration": 0.10416674999999742,
          "durationTicks": 30,
          "midi": 52,
          "name": "E3",
          "ticks": 10980,
          "time": 38.1250305,
          "velocity": 0.5354330708661418
        },
        {
          "duration": 0.10416675000000453,
          "durationTicks": 30,
          "midi": 57,
          "name": "A3",
          "ticks": 11010,
          "time": 38.22919725,
          "velocity": 0.5354330708661418
        },
        {
          "duration": 0.10416674999999742,
          "durationTicks": 30,
          "midi": 61,
          "name": "C#4",
          "ticks": 11040,
          "time": 38.333364,
          "velocity": 0.5354330708661418
        },
        {
          "duration": 0.10416674999999742,
          "durationTicks": 30,
          "midi": 64,
          "name": "E4",
          "ticks": 11070,
          "time": 38.43753075,
          "velocity": 0.5354330708661418
        },
        {
          "duration": 0.10416675000000453,
          "durationTicks": 30,
          "midi": 69,
          "name": "A4",
          "ticks": 11100,
          "time": 38.5416975,
          "velocity": 0.5354330708661418
        },
        {
          "duration": 0.10416674999999742,
          "durationTicks": 30,
          "midi": 73,
          "name": "C#5",
          "ticks": 11130,
          "time": 38.64586425,
          "velocity": 0.5354330708661418
        },
        {
          "duration": 0.10416675000000453,
          "durationTicks": 30,
          "midi": 54,
          "name": "F#3",
          "ticks": 11160,
          "time": 38.750031,
          "velocity": 0.5354330708661418
        },
        {
          "duration": 0.10416674999999742,
          "durationTicks": 30,
          "midi": 57,
          "name": "A3",
          "ticks": 11190,
          "time": 38.854197750000004,
          "velocity": 0.5354330708661418
        },
        {
          "duration": 0.10416674999999742,
          "durationTicks": 30,
          "midi": 62,
          "name": "D4",
          "ticks": 11220,
          "time": 38.9583645,
          "velocity": 0.5354330708661418
        },
        {
          "duration": 0.10416675000000453,
          "durationTicks": 30,
          "midi": 66,
          "name": "F#4",
          "ticks": 11250,
          "time": 39.06253125,
          "velocity": 0.5354330708661418
        },
        {
          "duration": 0.10416674999999742,
          "durationTicks": 30,
          "midi": 69,
          "name": "A4",
          "ticks": 11280,
          "time": 39.166698000000004,
          "velocity": 0.5354330708661418
        },
        {
          "duration": 0.10416674999999742,
          "durationTicks": 30,
          "midi": 74,
          "name": "D5",
          "ticks": 11310,
          "time": 39.27086475,
          "velocity": 0.5354330708661418
        },
        {
          "duration": 0.10416675000000453,
          "durationTicks": 30,
          "midi": 78,
          "name": "F#5",
          "ticks": 11340,
          "time": 39.3750315,
          "velocity": 0.5354330708661418
        },
        {
          "duration": 0.10416674999999742,
          "durationTicks": 30,
          "midi": 74,
          "name": "D5",
          "ticks": 11370,
          "time": 39.47919825,
          "velocity": 0.5354330708661418
        },
        {
          "duration": 0.10416674999999742,
          "durationTicks": 30,
          "midi": 69,
          "name": "A4",
          "ticks": 11400,
          "time": 39.583365,
          "velocity": 0.5354330708661418
        },
        {
          "duration": 0.10416675000000453,
          "durationTicks": 30,
          "midi": 66,
          "name": "F#4",
          "ticks": 11430,
          "time": 39.68753175,
          "velocity": 0.5354330708661418
        },
        {
          "duration": 0.10416674999999742,
          "durationTicks": 30,
          "midi": 62,
          "name": "D4",
          "ticks": 11460,
          "time": 39.7916985,
          "velocity": 0.5354330708661418
        },
        {
          "duration": 0.10416675000000453,
          "durationTicks": 30,
          "midi": 57,
          "name": "A3",
          "ticks": 11490,
          "time": 39.89586525,
          "velocity": 0.5354330708661418
        },
        {
          "duration": 0.10416675000000453,
          "durationTicks": 30,
          "midi": 52,
          "name": "E3",
          "ticks": 23520,
          "time": 81.666732,
          "velocity": 0.5354330708661418
        },
        {
          "duration": 0.10416675000000453,
          "durationTicks": 30,
          "midi": 55,
          "name": "G3",
          "ticks": 23550,
          "time": 81.77089875,
          "velocity": 0.5354330708661418
        },
        {
          "duration": 0.10416674999999032,
          "durationTicks": 30,
          "midi": 59,
          "name": "B3",
          "ticks": 23580,
          "time": 81.8750655,
          "velocity": 0.5354330708661418
        },
        {
          "duration": 0.10416675000000453,
          "durationTicks": 30,
          "midi": 64,
          "name": "E4",
          "ticks": 23610,
          "time": 81.97923225,
          "velocity": 0.5354330708661418
        },
        {
          "duration": 0.10416675000000453,
          "durationTicks": 30,
          "midi": 67,
          "name": "G4",
          "ticks": 23640,
          "time": 82.083399,
          "velocity": 0.5354330708661418
        },
        {
          "duration": 0.10416674999999032,
          "durationTicks": 30,
          "midi": 71,
          "name": "B4",
          "ticks": 23670,
          "time": 82.18756575,
          "velocity": 0.5354330708661418
        },
        {
          "duration": 0.10416675000000453,
          "durationTicks": 30,
          "midi": 52,
          "name": "E3",
          "ticks": 23700,
          "time": 82.2917325,
          "velocity": 0.5354330708661418
        },
        {
          "duration": 0.10416675000000453,
          "durationTicks": 30,
          "midi": 55,
          "name": "G3",
          "ticks": 23730,
          "time": 82.39589925,
          "velocity": 0.5354330708661418
        },
        {
          "duration": 0.10416675000000453,
          "durationTicks": 30,
          "midi": 60,
          "name": "C4",
          "ticks": 23760,
          "time": 82.500066,
          "velocity": 0.5354330708661418
        },
        {
          "duration": 0.10416674999999032,
          "durationTicks": 30,
          "midi": 64,
          "name": "E4",
          "ticks": 23790,
          "time": 82.60423275000001,
          "velocity": 0.5354330708661418
        },
        {
          "duration": 0.10416675000000453,
          "durationTicks": 30,
          "midi": 67,
          "name": "G4",
          "ticks": 23820,
          "time": 82.7083995,
          "velocity": 0.5354330708661418
        },
        {
          "duration": 0.10416675000000453,
          "durationTicks": 30,
          "midi": 72,
          "name": "C5",
          "ticks": 23850,
          "time": 82.81256625,
          "velocity": 0.5354330708661418
        },
        {
          "duration": 0.10416674999999032,
          "durationTicks": 30,
          "midi": 50,
          "name": "D3",
          "ticks": 23880,
          "time": 82.91673300000001,
          "velocity": 0.5354330708661418
        },
        {
          "duration": 0.10416675000000453,
          "durationTicks": 30,
          "midi": 54,
          "name": "F#3",
          "ticks": 23910,
          "time": 83.02089975,
          "velocity": 0.5354330708661418
        },
        {
          "duration": 0.10416675000000453,
          "durationTicks": 30,
          "midi": 57,
          "name": "A3",
          "ticks": 23940,
          "time": 83.1250665,
          "velocity": 0.5354330708661418
        },
        {
          "duration": 0.10416674999999032,
          "durationTicks": 30,
          "midi": 62,
          "name": "D4",
          "ticks": 23970,
          "time": 83.22923325000001,
          "velocity": 0.5354330708661418
        },
        {
          "duration": 0.10416675000000453,
          "durationTicks": 30,
          "midi": 66,
          "name": "F#4",
          "ticks": 24000,
          "time": 83.3334,
          "velocity": 0.5354330708661418
        },
        {
          "duration": 0.10416675000000453,
          "durationTicks": 30,
          "midi": 69,
          "name": "A4",
          "ticks": 24030,
          "time": 83.43756675,
          "velocity": 0.5354330708661418
        },
        {
          "duration": 0.10416674999999032,
          "durationTicks": 30,
          "midi": 50,
          "name": "D3",
          "ticks": 24060,
          "time": 83.5417335,
          "velocity": 0.5354330708661418
        },
        {
          "duration": 0.10416675000000453,
          "durationTicks": 30,
          "midi": 54,
          "name": "F#3",
          "ticks": 24090,
          "time": 83.64590025,
          "velocity": 0.5354330708661418
        },
        {
          "duration": 0.10416675000000453,
          "durationTicks": 30,
          "midi": 59,
          "name": "B3",
          "ticks": 24120,
          "time": 83.750067,
          "velocity": 0.5354330708661418
        },
        {
          "duration": 0.10416674999999032,
          "durationTicks": 30,
          "midi": 62,
          "name": "D4",
          "ticks": 24150,
          "time": 83.85423375,
          "velocity": 0.5354330708661418
        },
        {
          "duration": 0.10416675000000453,
          "durationTicks": 30,
          "midi": 66,
          "name": "F#4",
          "ticks": 24180,
          "time": 83.9584005,
          "velocity": 0.5354330708661418
        },
        {
          "duration": 0.10416675000000453,
          "durationTicks": 30,
          "midi": 71,
          "name": "B4",
          "ticks": 24210,
          "time": 84.06256725,
          "velocity": 0.5354330708661418
        },
        {
          "duration": 0.10416674999999032,
          "durationTicks": 30,
          "midi": 48,
          "name": "C3",
          "ticks": 24240,
          "time": 84.166734,
          "velocity": 0.5354330708661418
        },
        {
          "duration": 0.10416675000000453,
          "durationTicks": 30,
          "midi": 52,
          "name": "E3",
          "ticks": 24270,
          "time": 84.27090075,
          "velocity": 0.5354330708661418
        },
        {
          "duration": 0.10416675000000453,
          "durationTicks": 30,
          "midi": 55,
          "name": "G3",
          "ticks": 24300,
          "time": 84.3750675,
          "velocity": 0.5354330708661418
        },
        {
          "duration": 0.10416674999999032,
          "durationTicks": 30,
          "midi": 60,
          "name": "C4",
          "ticks": 24330,
          "time": 84.47923425,
          "velocity": 0.5354330708661418
        },
        {
          "duration": 0.10416675000000453,
          "durationTicks": 30,
          "midi": 64,
          "name": "E4",
          "ticks": 24360,
          "time": 84.583401,
          "velocity": 0.5354330708661418
        },
        {
          "duration": 0.10416675000000453,
          "durationTicks": 30,
          "midi": 67,
          "name": "G4",
          "ticks": 24390,
          "time": 84.68756775,
          "velocity": 0.5354330708661418
        },
        {
          "duration": 0.10416675000000453,
          "durationTicks": 30,
          "midi": 48,
          "name": "C3",
          "ticks": 24420,
          "time": 84.7917345,
          "velocity": 0.5354330708661418
        },
        {
          "duration": 0.10416674999999032,
          "durationTicks": 30,
          "midi": 52,
          "name": "E3",
          "ticks": 24450,
          "time": 84.89590125000001,
          "velocity": 0.5354330708661418
        },
        {
          "duration": 0.10416675000000453,
          "durationTicks": 30,
          "midi": 57,
          "name": "A3",
          "ticks": 24480,
          "time": 85.000068,
          "velocity": 0.5354330708661418
        },
        {
          "duration": 0.10416675000000453,
          "durationTicks": 30,
          "midi": 60,
          "name": "C4",
          "ticks": 24510,
          "time": 85.10423475,
          "velocity": 0.5354330708661418
        },
        {
          "duration": 0.10416674999999032,
          "durationTicks": 30,
          "midi": 64,
          "name": "E4",
          "ticks": 24540,
          "time": 85.20840150000001,
          "velocity": 0.5354330708661418
        },
        {
          "duration": 0.10416675000000453,
          "durationTicks": 30,
          "midi": 69,
          "name": "A4",
          "ticks": 24570,
          "time": 85.31256825,
          "velocity": 0.5354330708661418
        },
        {
          "duration": 0.10416675000000453,
          "durationTicks": 30,
          "midi": 47,
          "name": "B2",
          "ticks": 24600,
          "time": 85.416735,
          "velocity": 0.5354330708661418
        },
        {
          "duration": 0.10416674999999032,
          "durationTicks": 30,
          "midi": 51,
          "name": "D#3",
          "ticks": 24630,
          "time": 85.52090175000001,
          "velocity": 0.5354330708661418
        },
        {
          "duration": 0.10416675000000453,
          "durationTicks": 30,
          "midi": 54,
          "name": "F#3",
          "ticks": 24660,
          "time": 85.6250685,
          "velocity": 0.5354330708661418
        },
        {
          "duration": 0.10416675000000453,
          "durationTicks": 30,
          "midi": 59,
          "name": "B3",
          "ticks": 24690,
          "time": 85.72923525,
          "velocity": 0.5354330708661418
        },
        {
          "duration": 0.10416674999999032,
          "durationTicks": 30,
          "midi": 63,
          "name": "D#4",
          "ticks": 24720,
          "time": 85.833402,
          "velocity": 0.5354330708661418
        },
        {
          "duration": 0.10416675000000453,
          "durationTicks": 30,
          "midi": 66,
          "name": "F#4",
          "ticks": 24750,
          "time": 85.93756875,
          "velocity": 0.5354330708661418
        },
        {
          "duration": 0.10416675000000453,
          "durationTicks": 30,
          "midi": 71,
          "name": "B4",
          "ticks": 24780,
          "time": 86.0417355,
          "velocity": 0.5354330708661418
        },
        {
          "duration": 0.10416674999999032,
          "durationTicks": 30,
          "midi": 66,
          "name": "F#4",
          "ticks": 24810,
          "time": 86.14590225,
          "velocity": 0.5354330708661418
        },
        {
          "duration": 0.10416675000000453,
          "durationTicks": 30,
          "midi": 63,
          "name": "D#4",
          "ticks": 24840,
          "time": 86.250069,
          "velocity": 0.5354330708661418
        },
        {
          "duration": 0.10416675000000453,
          "durationTicks": 30,
          "midi": 59,
          "name": "B3",
          "ticks": 24870,
          "time": 86.35423575,
          "velocity": 0.5354330708661418
        },
        {
          "duration": 0.10416674999999032,
          "durationTicks": 30,
          "midi": 54,
          "name": "F#3",
          "ticks": 24900,
          "time": 86.4584025,
          "velocity": 0.5354330708661418
        },
        {
          "duration": 0.10416675000000453,
          "durationTicks": 30,
          "midi": 51,
          "name": "D#3",
          "ticks": 24930,
          "time": 86.56256925,
          "velocity": 0.5354330708661418
        },
        {
          "duration": 0.10416675000000453,
          "durationTicks": 30,
          "midi": 52,
          "name": "E3",
          "ticks": 24960,
          "time": 86.666736,
          "velocity": 0.5354330708661418
        },
        {
          "duration": 0.10416674999999032,
          "durationTicks": 30,
          "midi": 55,
          "name": "G3",
          "ticks": 24990,
          "time": 86.77090275,
          "velocity": 0.5354330708661418
        },
        {
          "duration": 0.10416675000000453,
          "durationTicks": 30,
          "midi": 59,
          "name": "B3",
          "ticks": 25020,
          "time": 86.8750695,
          "velocity": 0.5354330708661418
        },
        {
          "duration": 0.10416675000000453,
          "durationTicks": 30,
          "midi": 64,
          "name": "E4",
          "ticks": 25050,
          "time": 86.97923625,
          "velocity": 0.5354330708661418
        },
        {
          "duration": 0.10416675000000453,
          "durationTicks": 30,
          "midi": 67,
          "name": "G4",
          "ticks": 25080,
          "time": 87.083403,
          "velocity": 0.5354330708661418
        },
        {
          "duration": 0.10416674999999032,
          "durationTicks": 30,
          "midi": 71,
          "name": "B4",
          "ticks": 25110,
          "time": 87.18756975000001,
          "velocity": 0.5354330708661418
        },
        {
          "duration": 0.10416675000000453,
          "durationTicks": 30,
          "midi": 52,
          "name": "E3",
          "ticks": 25140,
          "time": 87.2917365,
          "velocity": 0.5354330708661418
        },
        {
          "duration": 0.10416675000000453,
          "durationTicks": 30,
          "midi": 55,
          "name": "G3",
          "ticks": 25170,
          "time": 87.39590325,
          "velocity": 0.5354330708661418
        },
        {
          "duration": 0.10416674999999032,
          "durationTicks": 30,
          "midi": 60,
          "name": "C4",
          "ticks": 25200,
          "time": 87.50007000000001,
          "velocity": 0.5354330708661418
        },
        {
          "duration": 0.10416675000000453,
          "durationTicks": 30,
          "midi": 64,
          "name": "E4",
          "ticks": 25230,
          "time": 87.60423675,
          "velocity": 0.5354330708661418
        },
        {
          "duration": 0.10416675000000453,
          "durationTicks": 30,
          "midi": 67,
          "name": "G4",
          "ticks": 25260,
          "time": 87.7084035,
          "velocity": 0.5354330708661418
        },
        {
          "duration": 0.10416674999999032,
          "durationTicks": 30,
          "midi": 72,
          "name": "C5",
          "ticks": 25290,
          "time": 87.81257025000001,
          "velocity": 0.5354330708661418
        },
        {
          "duration": 0.10416675000000453,
          "durationTicks": 30,
          "midi": 50,
          "name": "D3",
          "ticks": 25320,
          "time": 87.916737,
          "velocity": 0.5354330708661418
        },
        {
          "duration": 0.10416675000000453,
          "durationTicks": 30,
          "midi": 54,
          "name": "F#3",
          "ticks": 25350,
          "time": 88.02090375,
          "velocity": 0.5354330708661418
        },
        {
          "duration": 0.10416674999999032,
          "durationTicks": 30,
          "midi": 57,
          "name": "A3",
          "ticks": 25380,
          "time": 88.1250705,
          "velocity": 0.5354330708661418
        },
        {
          "duration": 0.10416675000000453,
          "durationTicks": 30,
          "midi": 62,
          "name": "D4",
          "ticks": 25410,
          "time": 88.22923725,
          "velocity": 0.5354330708661418
        },
        {
          "duration": 0.10416675000000453,
          "durationTicks": 30,
          "midi": 66,
          "name": "F#4",
          "ticks": 25440,
          "time": 88.333404,
          "velocity": 0.5354330708661418
        },
        {
          "duration": 0.10416674999999032,
          "durationTicks": 30,
          "midi": 69,
          "name": "A4",
          "ticks": 25470,
          "time": 88.43757075,
          "velocity": 0.5354330708661418
        },
        {
          "duration": 0.10416675000000453,
          "durationTicks": 30,
          "midi": 50,
          "name": "D3",
          "ticks": 25500,
          "time": 88.5417375,
          "velocity": 0.5354330708661418
        },
        {
          "duration": 0.10416675000000453,
          "durationTicks": 30,
          "midi": 54,
          "name": "F#3",
          "ticks": 25530,
          "time": 88.64590425,
          "velocity": 0.5354330708661418
        },
        {
          "duration": 0.10416674999999032,
          "durationTicks": 30,
          "midi": 59,
          "name": "B3",
          "ticks": 25560,
          "time": 88.750071,
          "velocity": 0.5354330708661418
        },
        {
          "duration": 0.10416675000000453,
          "durationTicks": 30,
          "midi": 62,
          "name": "D4",
          "ticks": 25590,
          "time": 88.85423775,
          "velocity": 0.5354330708661418
        },
        {
          "duration": 0.10416675000000453,
          "durationTicks": 30,
          "midi": 66,
          "name": "F#4",
          "ticks": 25620,
          "time": 88.9584045,
          "velocity": 0.5354330708661418
        },
        {
          "duration": 0.10416674999999032,
          "durationTicks": 30,
          "midi": 71,
          "name": "B4",
          "ticks": 25650,
          "time": 89.06257125,
          "velocity": 0.5354330708661418
        },
        {
          "duration": 0.10416675000000453,
          "durationTicks": 30,
          "midi": 48,
          "name": "C3",
          "ticks": 25680,
          "time": 89.166738,
          "velocity": 0.5354330708661418
        },
        {
          "duration": 0.10416675000000453,
          "durationTicks": 30,
          "midi": 52,
          "name": "E3",
          "ticks": 25710,
          "time": 89.27090475,
          "velocity": 0.5354330708661418
        },
        {
          "duration": 0.10416675000000453,
          "durationTicks": 30,
          "midi": 55,
          "name": "G3",
          "ticks": 25740,
          "time": 89.3750715,
          "velocity": 0.5354330708661418
        },
        {
          "duration": 0.10416674999999032,
          "durationTicks": 30,
          "midi": 60,
          "name": "C4",
          "ticks": 25770,
          "time": 89.47923825000001,
          "velocity": 0.5354330708661418
        },
        {
          "duration": 0.10416675000000453,
          "durationTicks": 30,
          "midi": 64,
          "name": "E4",
          "ticks": 25800,
          "time": 89.583405,
          "velocity": 0.5354330708661418
        },
        {
          "duration": 0.10416675000000453,
          "durationTicks": 30,
          "midi": 67,
          "name": "G4",
          "ticks": 25830,
          "time": 89.68757175,
          "velocity": 0.5354330708661418
        },
        {
          "duration": 0.10416674999999032,
          "durationTicks": 30,
          "midi": 49,
          "name": "C#3",
          "ticks": 25860,
          "time": 89.79173850000001,
          "velocity": 0.5354330708661418
        },
        {
          "duration": 0.10416675000000453,
          "durationTicks": 30,
          "midi": 54,
          "name": "F#3",
          "ticks": 25890,
          "time": 89.89590525,
          "velocity": 0.5354330708661418
        },
        {
          "duration": 0.10416675000000453,
          "durationTicks": 30,
          "midi": 58,
          "name": "A#3",
          "ticks": 25920,
          "time": 90.000072,
          "velocity": 0.5354330708661418
        },
        {
          "duration": 0.10416674999999032,
          "durationTicks": 30,
          "midi": 61,
          "name": "C#4",
          "ticks": 25950,
          "time": 90.10423875000001,
          "velocity": 0.5354330708661418
        },
        {
          "duration": 0.10416675000000453,
          "durationTicks": 30,
          "midi": 66,
          "name": "F#4",
          "ticks": 25980,
          "time": 90.2084055,
          "velocity": 0.5354330708661418
        },
        {
          "duration": 0.10416675000000453,
          "durationTicks": 30,
          "midi": 70,
          "name": "A#4",
          "ticks": 26010,
          "time": 90.31257225,
          "velocity": 0.5354330708661418
        },
        {
          "duration": 0.10416674999999032,
          "durationTicks": 30,
          "midi": 51,
          "name": "D#3",
          "ticks": 26040,
          "time": 90.416739,
          "velocity": 0.5354330708661418
        },
        {
          "duration": 0.10416675000000453,
          "durationTicks": 30,
          "midi": 54,
          "name": "F#3",
          "ticks": 26070,
          "time": 90.52090575,
          "velocity": 0.5354330708661418
        },
        {
          "duration": 0.10416675000000453,
          "durationTicks": 30,
          "midi": 59,
          "name": "B3",
          "ticks": 26100,
          "time": 90.6250725,
          "velocity": 0.5354330708661418
        },
        {
          "duration": 0.10416674999999032,
          "durationTicks": 30,
          "midi": 63,
          "name": "D#4",
          "ticks": 26130,
          "time": 90.72923925,
          "velocity": 0.5354330708661418
        },
        {
          "duration": 0.10416675000000453,
          "durationTicks": 30,
          "midi": 66,
          "name": "F#4",
          "ticks": 26160,
          "time": 90.833406,
          "velocity": 0.5354330708661418
        },
        {
          "duration": 0.10416675000000453,
          "durationTicks": 30,
          "midi": 71,
          "name": "B4",
          "ticks": 26190,
          "time": 90.93757275,
          "velocity": 0.5354330708661418
        },
        {
          "duration": 0.10416674999999032,
          "durationTicks": 30,
          "midi": 75,
          "name": "D#5",
          "ticks": 26220,
          "time": 91.0417395,
          "velocity": 0.5354330708661418
        },
        {
          "duration": 0.10416675000000453,
          "durationTicks": 30,
          "midi": 71,
          "name": "B4",
          "ticks": 26250,
          "time": 91.14590625,
          "velocity": 0.5354330708661418
        },
        {
          "duration": 0.10416675000000453,
          "durationTicks": 30,
          "midi": 66,
          "name": "F#4",
          "ticks": 26280,
          "time": 91.250073,
          "velocity": 0.5354330708661418
        },
        {
          "duration": 0.10416674999999032,
          "durationTicks": 30,
          "midi": 63,
          "name": "D#4",
          "ticks": 26310,
          "time": 91.35423975,
          "velocity": 0.5354330708661418
        },
        {
          "duration": 0.10416675000000453,
          "durationTicks": 30,
          "midi": 59,
          "name": "B3",
          "ticks": 26340,
          "time": 91.4584065,
          "velocity": 0.5354330708661418
        },
        {
          "duration": 0.10416675000000453,
          "durationTicks": 30,
          "midi": 54,
          "name": "F#3",
          "ticks": 26370,
          "time": 91.56257325,
          "velocity": 0.5354330708661418
        }
      ],
      "endOfTrackTicks": 26400
    },
    {
      "channel": 1,
      "controlChanges": {
        "7": [
          {
            "number": 7,
            "ticks": 0,
            "time": 0,
            "value": 1
          }
        ],
        "10": [
          {
            "number": 10,
            "ticks": 0,
            "time": 0,
            "value": 0.3779527559055118
          }
        ]
      },
      "pitchBends": [],
      "instrument": {
        "family": "piano",
        "number": 1,
        "name": "bright acoustic piano"
      },
      "name": "Touhou 6: Enbodiment of Scarlet Devil - Shanghai Alice of Meiji 17 ",
      "notes": [
        {
          "duration": 0.6250005000000001,
          "durationTicks": 180,
          "midi": 55,
          "name": "G3",
          "ticks": 0,
          "time": 0,
          "velocity": 0.44881889763779526
        },
        {
          "duration": 0.6250005000000001,
          "durationTicks": 180,
          "midi": 50,
          "name": "D3",
          "ticks": 0,
          "time": 0,
          "velocity": 0.44881889763779526
        },
        {
          "duration": 0.6250005000000001,
          "durationTicks": 180,
          "midi": 55,
          "name": "G3",
          "ticks": 180,
          "time": 0.6250005000000001,
          "velocity": 0.44881889763779526
        },
        {
          "duration": 0.6250005000000001,
          "durationTicks": 180,
          "midi": 51,
          "name": "D#3",
          "ticks": 180,
          "time": 0.6250005000000001,
          "velocity": 0.44881889763779526
        },
        {
          "duration": 0.6250004999999998,
          "durationTicks": 180,
          "midi": 53,
          "name": "F3",
          "ticks": 360,
          "time": 1.2500010000000001,
          "velocity": 0.44881889763779526
        },
        {
          "duration": 0.6250004999999998,
          "durationTicks": 180,
          "midi": 48,
          "name": "C3",
          "ticks": 360,
          "time": 1.2500010000000001,
          "velocity": 0.44881889763779526
        },
        {
          "duration": 0.6250005000000003,
          "durationTicks": 180,
          "midi": 53,
          "name": "F3",
          "ticks": 540,
          "time": 1.8750015,
          "velocity": 0.44881889763779526
        },
        {
          "duration": 0.6250005000000003,
          "durationTicks": 180,
          "midi": 50,
          "name": "D3",
          "ticks": 540,
          "time": 1.8750015,
          "velocity": 0.44881889763779526
        },
        {
          "duration": 0.6250004999999996,
          "durationTicks": 180,
          "midi": 51,
          "name": "D#3",
          "ticks": 720,
          "time": 2.5000020000000003,
          "velocity": 0.44881889763779526
        },
        {
          "duration": 0.6250004999999996,
          "durationTicks": 180,
          "midi": 46,
          "name": "A#2",
          "ticks": 720,
          "time": 2.5000020000000003,
          "velocity": 0.44881889763779526
        },
        {
          "duration": 0.6250005000000001,
          "durationTicks": 180,
          "midi": 51,
          "name": "D#3",
          "ticks": 900,
          "time": 3.1250025,
          "velocity": 0.44881889763779526
        },
        {
          "duration": 0.6250005000000001,
          "durationTicks": 180,
          "midi": 48,
          "name": "C3",
          "ticks": 900,
          "time": 3.1250025,
          "velocity": 0.44881889763779526
        },
        {
          "duration": 1.2500010000000006,
          "durationTicks": 360,
          "midi": 50,
          "name": "D3",
          "ticks": 1080,
          "time": 3.750003,
          "velocity": 0.44881889763779526
        },
        {
          "duration": 1.2500010000000006,
          "durationTicks": 360,
          "midi": 45,
          "name": "A2",
          "ticks": 1080,
          "time": 3.750003,
          "velocity": 0.44881889763779526
        },
        {
          "duration": 0.6250004999999996,
          "durationTicks": 180,
          "midi": 55,
          "name": "G3",
          "ticks": 1440,
          "time": 5.000004000000001,
          "velocity": 0.44881889763779526
        },
        {
          "duration": 0.6250004999999996,
          "durationTicks": 180,
          "midi": 50,
          "name": "D3",
          "ticks": 1440,
          "time": 5.000004000000001,
          "velocity": 0.44881889763779526
        },
        {
          "duration": 0.6250004999999996,
          "durationTicks": 180,
          "midi": 55,
          "name": "G3",
          "ticks": 1620,
          "time": 5.6250045,
          "velocity": 0.44881889763779526
        },
        {
          "duration": 0.6250004999999996,
          "durationTicks": 180,
          "midi": 51,
          "name": "D#3",
          "ticks": 1620,
          "time": 5.6250045,
          "velocity": 0.44881889763779526
        },
        {
          "duration": 0.6250005000000005,
          "durationTicks": 180,
          "midi": 53,
          "name": "F3",
          "ticks": 1800,
          "time": 6.250005,
          "velocity": 0.44881889763779526
        },
        {
          "duration": 0.6250005000000005,
          "durationTicks": 180,
          "midi": 48,
          "name": "C3",
          "ticks": 1800,
          "time": 6.250005,
          "velocity": 0.44881889763779526
        },
        {
          "duration": 0.6250004999999996,
          "durationTicks": 180,
          "midi": 53,
          "name": "F3",
          "ticks": 1980,
          "time": 6.8750055,
          "velocity": 0.44881889763779526
        },
        {
          "duration": 0.6250004999999996,
          "durationTicks": 180,
          "midi": 50,
          "name": "D3",
          "ticks": 1980,
          "time": 6.8750055,
          "velocity": 0.44881889763779526
        },
        {
          "duration": 0.6250004999999996,
          "durationTicks": 180,
          "midi": 51,
          "name": "D#3",
          "ticks": 2160,
          "time": 7.500006,
          "velocity": 0.44881889763779526
        },
        {
          "duration": 0.6250004999999996,
          "durationTicks": 180,
          "midi": 46,
          "name": "A#2",
          "ticks": 2160,
          "time": 7.500006,
          "velocity": 0.44881889763779526
        },
        {
          "duration": 0.6250005000000005,
          "durationTicks": 180,
          "midi": 52,
          "name": "E3",
          "ticks": 2340,
          "time": 8.1250065,
          "velocity": 0.44881889763779526
        },
        {
          "duration": 0.6250005000000005,
          "durationTicks": 180,
          "midi": 49,
          "name": "C#3",
          "ticks": 2340,
          "time": 8.1250065,
          "velocity": 0.44881889763779526
        },
        {
          "duration": 1.250001000000001,
          "durationTicks": 360,
          "midi": 54,
          "name": "F#3",
          "ticks": 2520,
          "time": 8.750007,
          "velocity": 0.44881889763779526
        },
        {
          "duration": 1.250001000000001,
          "durationTicks": 360,
          "midi": 50,
          "name": "D3",
          "ticks": 2520,
          "time": 8.750007,
          "velocity": 0.44881889763779526
        },
        {
          "duration": 0.6250004999999987,
          "durationTicks": 180,
          "midi": 55,
          "name": "G3",
          "ticks": 2880,
          "time": 10.000008000000001,
          "velocity": 0.44881889763779526
        },
        {
          "duration": 0.6250004999999987,
          "durationTicks": 180,
          "midi": 50,
          "name": "D3",
          "ticks": 2880,
          "time": 10.000008000000001,
          "velocity": 0.44881889763779526
        },
        {
          "duration": 0.6250005000000005,
          "durationTicks": 180,
          "midi": 55,
          "name": "G3",
          "ticks": 3060,
          "time": 10.6250085,
          "velocity": 0.44881889763779526
        },
        {
          "duration": 0.6250005000000005,
          "durationTicks": 180,
          "midi": 51,
          "name": "D#3",
          "ticks": 3060,
          "time": 10.6250085,
          "velocity": 0.44881889763779526
        },
        {
          "duration": 0.6250005000000005,
          "durationTicks": 180,
          "midi": 53,
          "name": "F3",
          "ticks": 3240,
          "time": 11.250009,
          "velocity": 0.44881889763779526
        },
        {
          "duration": 0.6250005000000005,
          "durationTicks": 180,
          "midi": 48,
          "name": "C3",
          "ticks": 3240,
          "time": 11.250009,
          "velocity": 0.44881889763779526
        },
        {
          "duration": 0.6250004999999987,
          "durationTicks": 180,
          "midi": 53,
          "name": "F3",
          "ticks": 3420,
          "time": 11.8750095,
          "velocity": 0.44881889763779526
        },
        {
          "duration": 0.6250004999999987,
          "durationTicks": 180,
          "midi": 50,
          "name": "D3",
          "ticks": 3420,
          "time": 11.8750095,
          "velocity": 0.44881889763779526
        },
        {
          "duration": 0.6250005000000005,
          "durationTicks": 180,
          "midi": 51,
          "name": "D#3",
          "ticks": 3600,
          "time": 12.50001,
          "velocity": 0.44881889763779526
        },
        {
          "duration": 0.6250005000000005,
          "durationTicks": 180,
          "midi": 46,
          "name": "A#2",
          "ticks": 3600,
          "time": 12.50001,
          "velocity": 0.44881889763779526
        },
        {
          "duration": 0.6250005000000005,
          "durationTicks": 180,
          "midi": 52,
          "name": "E3",
          "ticks": 3780,
          "time": 13.1250105,
          "velocity": 0.44881889763779526
        },
        {
          "duration": 0.6250005000000005,
          "durationTicks": 180,
          "midi": 49,
          "name": "C#3",
          "ticks": 3780,
          "time": 13.1250105,
          "velocity": 0.44881889763779526
        },
        {
          "duration": 1.2500009999999993,
          "durationTicks": 360,
          "midi": 54,
          "name": "F#3",
          "ticks": 3960,
          "time": 13.750011,
          "velocity": 0.44881889763779526
        },
        {
          "duration": 1.2500009999999993,
          "durationTicks": 360,
          "midi": 50,
          "name": "D3",
          "ticks": 3960,
          "time": 13.750011,
          "velocity": 0.44881889763779526
        },
        {
          "duration": 0.6250005000000005,
          "durationTicks": 180,
          "midi": 55,
          "name": "G3",
          "ticks": 4320,
          "time": 15.000012,
          "velocity": 0.44881889763779526
        },
        {
          "duration": 0.6250005000000005,
          "durationTicks": 180,
          "midi": 50,
          "name": "D3",
          "ticks": 4320,
          "time": 15.000012,
          "velocity": 0.44881889763779526
        },
        {
          "duration": 0.6250004999999987,
          "durationTicks": 180,
          "midi": 55,
          "name": "G3",
          "ticks": 4500,
          "time": 15.6250125,
          "velocity": 0.44881889763779526
        },
        {
          "duration": 0.6250004999999987,
          "durationTicks": 180,
          "midi": 51,
          "name": "D#3",
          "ticks": 4500,
          "time": 15.6250125,
          "velocity": 0.44881889763779526
        },
        {
          "duration": 0.6250005000000023,
          "durationTicks": 180,
          "midi": 53,
          "name": "F3",
          "ticks": 4680,
          "time": 16.250013,
          "velocity": 0.44881889763779526
        },
        {
          "duration": 0.6250005000000023,
          "durationTicks": 180,
          "midi": 48,
          "name": "C3",
          "ticks": 4680,
          "time": 16.250013,
          "velocity": 0.44881889763779526
        },
        {
          "duration": 0.6250004999999987,
          "durationTicks": 180,
          "midi": 53,
          "name": "F3",
          "ticks": 4860,
          "time": 16.8750135,
          "velocity": 0.44881889763779526
        },
        {
          "duration": 0.6250004999999987,
          "durationTicks": 180,
          "midi": 50,
          "name": "D3",
          "ticks": 4860,
          "time": 16.8750135,
          "velocity": 0.44881889763779526
        },
        {
          "duration": 0.6250004999999987,
          "durationTicks": 180,
          "midi": 51,
          "name": "D#3",
          "ticks": 5040,
          "time": 17.500014,
          "velocity": 0.44881889763779526
        },
        {
          "duration": 0.6250004999999987,
          "durationTicks": 180,
          "midi": 46,
          "name": "A#2",
          "ticks": 5040,
          "time": 17.500014,
          "velocity": 0.44881889763779526
        },
        {
          "duration": 0.6250005000000023,
          "durationTicks": 180,
          "midi": 52,
          "name": "E3",
          "ticks": 5220,
          "time": 18.1250145,
          "velocity": 0.44881889763779526
        },
        {
          "duration": 0.6250005000000023,
          "durationTicks": 180,
          "midi": 49,
          "name": "C#3",
          "ticks": 5220,
          "time": 18.1250145,
          "velocity": 0.44881889763779526
        },
        {
          "duration": 1.250001000000001,
          "durationTicks": 360,
          "midi": 54,
          "name": "F#3",
          "ticks": 5400,
          "time": 18.750015,
          "velocity": 0.44881889763779526
        },
        {
          "duration": 1.250001000000001,
          "durationTicks": 360,
          "midi": 50,
          "name": "D3",
          "ticks": 5400,
          "time": 18.750015,
          "velocity": 0.44881889763779526
        },
        {
          "duration": 0.6250004999999987,
          "durationTicks": 180,
          "midi": 55,
          "name": "G3",
          "ticks": 5760,
          "time": 20.000016000000002,
          "velocity": 0.44881889763779526
        },
        {
          "duration": 0.6250004999999987,
          "durationTicks": 180,
          "midi": 50,
          "name": "D3",
          "ticks": 5760,
          "time": 20.000016000000002,
          "velocity": 0.44881889763779526
        },
        {
          "duration": 0.6250004999999987,
          "durationTicks": 180,
          "midi": 55,
          "name": "G3",
          "ticks": 5940,
          "time": 20.6250165,
          "velocity": 0.44881889763779526
        },
        {
          "duration": 0.6250004999999987,
          "durationTicks": 180,
          "midi": 51,
          "name": "D#3",
          "ticks": 5940,
          "time": 20.6250165,
          "velocity": 0.44881889763779526
        },
        {
          "duration": 0.6250005000000023,
          "durationTicks": 180,
          "midi": 53,
          "name": "F3",
          "ticks": 6120,
          "time": 21.250017,
          "velocity": 0.44881889763779526
        },
        {
          "duration": 0.6250005000000023,
          "durationTicks": 180,
          "midi": 48,
          "name": "C3",
          "ticks": 6120,
          "time": 21.250017,
          "velocity": 0.44881889763779526
        },
        {
          "duration": 0.6250004999999987,
          "durationTicks": 180,
          "midi": 53,
          "name": "F3",
          "ticks": 6300,
          "time": 21.875017500000002,
          "velocity": 0.44881889763779526
        },
        {
          "duration": 0.6250004999999987,
          "durationTicks": 180,
          "midi": 50,
          "name": "D3",
          "ticks": 6300,
          "time": 21.875017500000002,
          "velocity": 0.44881889763779526
        },
        {
          "duration": 0.6250004999999987,
          "durationTicks": 180,
          "midi": 51,
          "name": "D#3",
          "ticks": 6480,
          "time": 22.500018,
          "velocity": 0.44881889763779526
        },
        {
          "duration": 0.6250004999999987,
          "durationTicks": 180,
          "midi": 46,
          "name": "A#2",
          "ticks": 6480,
          "time": 22.500018,
          "velocity": 0.44881889763779526
        },
        {
          "duration": 0.6250005000000023,
          "durationTicks": 180,
          "midi": 52,
          "name": "E3",
          "ticks": 6660,
          "time": 23.1250185,
          "velocity": 0.44881889763779526
        },
        {
          "duration": 0.6250005000000023,
          "durationTicks": 180,
          "midi": 49,
          "name": "C#3",
          "ticks": 6660,
          "time": 23.1250185,
          "velocity": 0.44881889763779526
        },
        {
          "duration": 1.2500009999999975,
          "durationTicks": 360,
          "midi": 54,
          "name": "F#3",
          "ticks": 6840,
          "time": 23.750019,
          "velocity": 0.44881889763779526
        },
        {
          "duration": 1.2500009999999975,
          "durationTicks": 360,
          "midi": 50,
          "name": "D3",
          "ticks": 6840,
          "time": 23.750019,
          "velocity": 0.44881889763779526
        },
        {
          "duration": 0.6250005000000023,
          "durationTicks": 180,
          "midi": 55,
          "name": "G3",
          "ticks": 7200,
          "time": 25.00002,
          "velocity": 0.44881889763779526
        },
        {
          "duration": 0.6250005000000023,
          "durationTicks": 180,
          "midi": 50,
          "name": "D3",
          "ticks": 7200,
          "time": 25.00002,
          "velocity": 0.44881889763779526
        },
        {
          "duration": 0.6250004999999987,
          "durationTicks": 180,
          "midi": 55,
          "name": "G3",
          "ticks": 7380,
          "time": 25.6250205,
          "velocity": 0.44881889763779526
        },
        {
          "duration": 0.6250004999999987,
          "durationTicks": 180,
          "midi": 51,
          "name": "D#3",
          "ticks": 7380,
          "time": 25.6250205,
          "velocity": 0.44881889763779526
        },
        {
          "duration": 0.6250004999999987,
          "durationTicks": 180,
          "midi": 53,
          "name": "F3",
          "ticks": 7560,
          "time": 26.250021,
          "velocity": 0.44881889763779526
        },
        {
          "duration": 0.6250004999999987,
          "durationTicks": 180,
          "midi": 48,
          "name": "C3",
          "ticks": 7560,
          "time": 26.250021,
          "velocity": 0.44881889763779526
        },
        {
          "duration": 0.6250005000000023,
          "durationTicks": 180,
          "midi": 53,
          "name": "F3",
          "ticks": 7740,
          "time": 26.8750215,
          "velocity": 0.44881889763779526
        },
        {
          "duration": 0.6250005000000023,
          "durationTicks": 180,
          "midi": 50,
          "name": "D3",
          "ticks": 7740,
          "time": 26.8750215,
          "velocity": 0.44881889763779526
        },
        {
          "duration": 0.6250004999999987,
          "durationTicks": 180,
          "midi": 51,
          "name": "D#3",
          "ticks": 7920,
          "time": 27.500022,
          "velocity": 0.44881889763779526
        },
        {
          "duration": 0.6250004999999987,
          "durationTicks": 180,
          "midi": 46,
          "name": "A#2",
          "ticks": 7920,
          "time": 27.500022,
          "velocity": 0.44881889763779526
        },
        {
          "duration": 0.6250005000000023,
          "durationTicks": 180,
          "midi": 52,
          "name": "E3",
          "ticks": 8100,
          "time": 28.1250225,
          "velocity": 0.44881889763779526
        },
        {
          "duration": 0.6250005000000023,
          "durationTicks": 180,
          "midi": 49,
          "name": "C#3",
          "ticks": 8100,
          "time": 28.1250225,
          "velocity": 0.44881889763779526
        },
        {
          "duration": 1.2500009999999975,
          "durationTicks": 360,
          "midi": 54,
          "name": "F#3",
          "ticks": 8280,
          "time": 28.750023000000002,
          "velocity": 0.44881889763779526
        },
        {
          "duration": 1.2500009999999975,
          "durationTicks": 360,
          "midi": 50,
          "name": "D3",
          "ticks": 8280,
          "time": 28.750023000000002,
          "velocity": 0.44881889763779526
        },
        {
          "duration": 0.6250005000000023,
          "durationTicks": 180,
          "midi": 55,
          "name": "G3",
          "ticks": 8640,
          "time": 30.000024,
          "velocity": 0.44881889763779526
        },
        {
          "duration": 0.6250005000000023,
          "durationTicks": 180,
          "midi": 50,
          "name": "D3",
          "ticks": 8640,
          "time": 30.000024,
          "velocity": 0.44881889763779526
        },
        {
          "duration": 0.6250004999999987,
          "durationTicks": 180,
          "midi": 55,
          "name": "G3",
          "ticks": 8820,
          "time": 30.625024500000002,
          "velocity": 0.44881889763779526
        },
        {
          "duration": 0.6250004999999987,
          "durationTicks": 180,
          "midi": 51,
          "name": "D#3",
          "ticks": 8820,
          "time": 30.625024500000002,
          "velocity": 0.44881889763779526
        },
        {
          "duration": 0.6250004999999987,
          "durationTicks": 180,
          "midi": 53,
          "name": "F3",
          "ticks": 9000,
          "time": 31.250025,
          "velocity": 0.44881889763779526
        },
        {
          "duration": 0.6250004999999987,
          "durationTicks": 180,
          "midi": 48,
          "name": "C3",
          "ticks": 9000,
          "time": 31.250025,
          "velocity": 0.44881889763779526
        },
        {
          "duration": 0.6250004999999987,
          "durationTicks": 180,
          "midi": 53,
          "name": "F3",
          "ticks": 9180,
          "time": 31.8750255,
          "velocity": 0.44881889763779526
        },
        {
          "duration": 0.6250004999999987,
          "durationTicks": 180,
          "midi": 50,
          "name": "D3",
          "ticks": 9180,
          "time": 31.8750255,
          "velocity": 0.44881889763779526
        },
        {
          "duration": 0.6250005000000058,
          "durationTicks": 180,
          "midi": 51,
          "name": "D#3",
          "ticks": 9360,
          "time": 32.500026,
          "velocity": 0.44881889763779526
        },
        {
          "duration": 0.6250005000000058,
          "durationTicks": 180,
          "midi": 46,
          "name": "A#2",
          "ticks": 9360,
          "time": 32.500026,
          "velocity": 0.44881889763779526
        },
        {
          "duration": 0.6250004999999987,
          "durationTicks": 180,
          "midi": 52,
          "name": "E3",
          "ticks": 9540,
          "time": 33.125026500000004,
          "velocity": 0.44881889763779526
        },
        {
          "duration": 0.6250004999999987,
          "durationTicks": 180,
          "midi": 49,
          "name": "C#3",
          "ticks": 9540,
          "time": 33.125026500000004,
          "velocity": 0.44881889763779526
        },
        {
          "duration": 1.2500009999999975,
          "durationTicks": 360,
          "midi": 54,
          "name": "F#3",
          "ticks": 9720,
          "time": 33.750027,
          "velocity": 0.44881889763779526
        },
        {
          "duration": 1.2500009999999975,
          "durationTicks": 360,
          "midi": 50,
          "name": "D3",
          "ticks": 9720,
          "time": 33.750027,
          "velocity": 0.44881889763779526
        },
        {
          "duration": 0.6250004999999987,
          "durationTicks": 180,
          "midi": 55,
          "name": "G3",
          "ticks": 10080,
          "time": 35.000028,
          "velocity": 0.44881889763779526
        },
        {
          "duration": 0.6250004999999987,
          "durationTicks": 180,
          "midi": 50,
          "name": "D3",
          "ticks": 10080,
          "time": 35.000028,
          "velocity": 0.44881889763779526
        },
        {
          "duration": 0.6250004999999987,
          "durationTicks": 180,
          "midi": 55,
          "name": "G3",
          "ticks": 10260,
          "time": 35.6250285,
          "velocity": 0.44881889763779526
        },
        {
          "duration": 0.6250004999999987,
          "durationTicks": 180,
          "midi": 51,
          "name": "D#3",
          "ticks": 10260,
          "time": 35.6250285,
          "velocity": 0.44881889763779526
        },
        {
          "duration": 0.6250005000000058,
          "durationTicks": 180,
          "midi": 53,
          "name": "F3",
          "ticks": 10440,
          "time": 36.250029,
          "velocity": 0.44881889763779526
        },
        {
          "duration": 0.6250005000000058,
          "durationTicks": 180,
          "midi": 48,
          "name": "C3",
          "ticks": 10440,
          "time": 36.250029,
          "velocity": 0.44881889763779526
        },
        {
          "duration": 0.6250004999999987,
          "durationTicks": 180,
          "midi": 53,
          "name": "F3",
          "ticks": 10620,
          "time": 36.875029500000004,
          "velocity": 0.44881889763779526
        },
        {
          "duration": 0.6250004999999987,
          "durationTicks": 180,
          "midi": 50,
          "name": "D3",
          "ticks": 10620,
          "time": 36.875029500000004,
          "velocity": 0.44881889763779526
        },
        {
          "duration": 0.6250004999999987,
          "durationTicks": 180,
          "midi": 51,
          "name": "D#3",
          "ticks": 10800,
          "time": 37.50003,
          "velocity": 0.44881889763779526
        },
        {
          "duration": 0.6250004999999987,
          "durationTicks": 180,
          "midi": 46,
          "name": "A#2",
          "ticks": 10800,
          "time": 37.50003,
          "velocity": 0.44881889763779526
        },
        {
          "duration": 0.6250004999999987,
          "durationTicks": 180,
          "midi": 52,
          "name": "E3",
          "ticks": 10980,
          "time": 38.1250305,
          "velocity": 0.44881889763779526
        },
        {
          "duration": 0.6250004999999987,
          "durationTicks": 180,
          "midi": 49,
          "name": "C#3",
          "ticks": 10980,
          "time": 38.1250305,
          "velocity": 0.44881889763779526
        },
        {
          "duration": 0.8333340000000007,
          "durationTicks": 240,
          "midi": 54,
          "name": "F#3",
          "ticks": 11160,
          "time": 38.750031,
          "velocity": 0.44881889763779526
        },
        {
          "duration": 0.8333340000000007,
          "durationTicks": 240,
          "midi": 50,
          "name": "D3",
          "ticks": 11160,
          "time": 38.750031,
          "velocity": 0.44881889763779526
        },
        {
          "duration": 0.10416674999999742,
          "durationTicks": 30,
          "midi": 74,
          "name": "D5",
          "ticks": 11400,
          "time": 39.583365,
          "velocity": 0.7874015748031497
        },
        {
          "duration": 0.10416675000000453,
          "durationTicks": 30,
          "midi": 72,
          "name": "C5",
          "ticks": 11430,
          "time": 39.68753175,
          "velocity": 0.7874015748031497
        },
        {
          "duration": 0.10416674999999742,
          "durationTicks": 30,
          "midi": 70,
          "name": "A#4",
          "ticks": 11460,
          "time": 39.7916985,
          "velocity": 0.7874015748031497
        },
        {
          "duration": 0.10416675000000453,
          "durationTicks": 30,
          "midi": 69,
          "name": "A4",
          "ticks": 11490,
          "time": 39.89586525,
          "velocity": 0.7874015748031497
        },
        {
          "duration": 0.10416674999999742,
          "durationTicks": 30,
          "midi": 67,
          "name": "G4",
          "ticks": 11520,
          "time": 40.000032000000004,
          "velocity": 0.7874015748031497
        },
        {
          "duration": 0.10416674999999742,
          "durationTicks": 30,
          "midi": 62,
          "name": "D4",
          "ticks": 11550,
          "time": 40.10419875,
          "velocity": 0.7874015748031497
        },
        {
          "duration": 0.10416675000000453,
          "durationTicks": 30,
          "midi": 69,
          "name": "A4",
          "ticks": 11580,
          "time": 40.2083655,
          "velocity": 0.7874015748031497
        },
        {
          "duration": 0.10416674999999742,
          "durationTicks": 30,
          "midi": 65,
          "name": "F4",
          "ticks": 11610,
          "time": 40.312532250000004,
          "velocity": 0.7874015748031497
        },
        {
          "duration": 0.10416674999999742,
          "durationTicks": 30,
          "midi": 70,
          "name": "A#4",
          "ticks": 11640,
          "time": 40.416699,
          "velocity": 0.7874015748031497
        },
        {
          "duration": 0.10416675000000453,
          "durationTicks": 30,
          "midi": 67,
          "name": "G4",
          "ticks": 11670,
          "time": 40.52086575,
          "velocity": 0.7874015748031497
        },
        {
          "duration": 0.10416674999999742,
          "durationTicks": 30,
          "midi": 72,
          "name": "C5",
          "ticks": 11700,
          "time": 40.6250325,
          "velocity": 0.7874015748031497
        },
        {
          "duration": 0.10416674999999742,
          "durationTicks": 30,
          "midi": 69,
          "name": "A4",
          "ticks": 11730,
          "time": 40.72919925,
          "velocity": 0.7874015748031497
        },
        {
          "duration": 0.4166670000000039,
          "durationTicks": 120,
          "midi": 74,
          "name": "D5",
          "ticks": 11760,
          "time": 40.833366,
          "velocity": 0.7874015748031497
        },
        {
          "duration": 0.4166669999999968,
          "durationTicks": 120,
          "midi": 79,
          "name": "G5",
          "ticks": 11880,
          "time": 41.250033,
          "velocity": 0.7874015748031497
        },
        {
          "duration": 0.4166670000000039,
          "durationTicks": 120,
          "midi": 79,
          "name": "G5",
          "ticks": 12000,
          "time": 41.6667,
          "velocity": 0.7874015748031497
        },
        {
          "duration": 0.20833349999999484,
          "durationTicks": 60,
          "midi": 77,
          "name": "F5",
          "ticks": 12120,
          "time": 42.083367,
          "velocity": 0.7874015748031497
        },
        {
          "duration": 0.20833350000000195,
          "durationTicks": 60,
          "midi": 79,
          "name": "G5",
          "ticks": 12180,
          "time": 42.2917005,
          "velocity": 0.7874015748031497
        },
        {
          "duration": 0.05208337500000226,
          "durationTicks": 15,
          "midi": 74,
          "name": "D5",
          "ticks": 12240,
          "time": 42.500034,
          "velocity": 0.7874015748031497
        },
        {
          "duration": 0.05208337500000226,
          "durationTicks": 15,
          "midi": 72,
          "name": "C5",
          "ticks": 12255,
          "time": 42.552117375,
          "velocity": 0.7874015748031497
        },
        {
          "duration": 0.05208337499999516,
          "durationTicks": 15,
          "midi": 74,
          "name": "D5",
          "ticks": 12270,
          "time": 42.604200750000004,
          "velocity": 0.7874015748031497
        },
        {
          "duration": 0.05208337500000226,
          "durationTicks": 15,
          "midi": 72,
          "name": "C5",
          "ticks": 12285,
          "time": 42.656284125,
          "velocity": 0.7874015748031497
        },
        {
          "duration": 0.6250004999999987,
          "durationTicks": 180,
          "midi": 74,
          "name": "D5",
          "ticks": 12300,
          "time": 42.7083675,
          "velocity": 0.7874015748031497
        },
        {
          "duration": 0.20833350000000195,
          "durationTicks": 60,
          "midi": 72,
          "name": "C5",
          "ticks": 12480,
          "time": 43.333368,
          "velocity": 0.7874015748031497
        },
        {
          "duration": 0.20833350000000195,
          "durationTicks": 60,
          "midi": 74,
          "name": "D5",
          "ticks": 12540,
          "time": 43.5417015,
          "velocity": 0.7874015748031497
        },
        {
          "duration": 0.4166669999999968,
          "durationTicks": 120,
          "midi": 67,
          "name": "G4",
          "ticks": 12600,
          "time": 43.750035000000004,
          "velocity": 0.7874015748031497
        },
        {
          "duration": 0.20833350000000195,
          "durationTicks": 60,
          "midi": 72,
          "name": "C5",
          "ticks": 12720,
          "time": 44.166702,
          "velocity": 0.7874015748031497
        },
        {
          "duration": 0.20833349999999484,
          "durationTicks": 60,
          "midi": 74,
          "name": "D5",
          "ticks": 12780,
          "time": 44.3750355,
          "velocity": 0.7874015748031497
        },
        {
          "duration": 0.4166670000000039,
          "durationTicks": 120,
          "midi": 67,
          "name": "G4",
          "ticks": 12840,
          "time": 44.583369,
          "velocity": 0.7874015748031497
        },
        {
          "duration": 0.4166669999999968,
          "durationTicks": 120,
          "midi": 67,
          "name": "G4",
          "ticks": 12960,
          "time": 45.000036,
          "velocity": 0.7874015748031497
        },
        {
          "duration": 0.20833350000000195,
          "durationTicks": 60,
          "midi": 69,
          "name": "A4",
          "ticks": 13080,
          "time": 45.416703,
          "velocity": 0.7874015748031497
        },
        {
          "duration": 0.20833350000000195,
          "durationTicks": 60,
          "midi": 70,
          "name": "A#4",
          "ticks": 13140,
          "time": 45.6250365,
          "velocity": 0.7874015748031497
        },
        {
          "duration": 0.4166669999999968,
          "durationTicks": 120,
          "midi": 72,
          "name": "C5",
          "ticks": 13200,
          "time": 45.83337,
          "velocity": 0.7874015748031497
        },
        {
          "duration": 0.10416675000000453,
          "durationTicks": 30,
          "midi": 74,
          "name": "D5",
          "ticks": 13320,
          "time": 46.250037,
          "velocity": 0.7874015748031497
        },
        {
          "duration": 0.10416674999999742,
          "durationTicks": 30,
          "midi": 72,
          "name": "C5",
          "ticks": 13350,
          "time": 46.35420375,
          "velocity": 0.7874015748031497
        },
        {
          "duration": 0.10416674999999742,
          "durationTicks": 30,
          "midi": 70,
          "name": "A#4",
          "ticks": 13380,
          "time": 46.4583705,
          "velocity": 0.7874015748031497
        },
        {
          "duration": 0.10416675000000453,
          "durationTicks": 30,
          "midi": 69,
          "name": "A4",
          "ticks": 13410,
          "time": 46.56253725,
          "velocity": 0.7874015748031497
        },
        {
          "duration": 0.10416674999999742,
          "durationTicks": 30,
          "midi": 67,
          "name": "G4",
          "ticks": 13440,
          "time": 46.666704,
          "velocity": 0.7874015748031497
        },
        {
          "duration": 0.10416674999999742,
          "durationTicks": 30,
          "midi": 62,
          "name": "D4",
          "ticks": 13470,
          "time": 46.77087075,
          "velocity": 0.7874015748031497
        },
        {
          "duration": 0.10416675000000453,
          "durationTicks": 30,
          "midi": 69,
          "name": "A4",
          "ticks": 13500,
          "time": 46.8750375,
          "velocity": 0.7874015748031497
        },
        {
          "duration": 0.10416674999999742,
          "durationTicks": 30,
          "midi": 65,
          "name": "F4",
          "ticks": 13530,
          "time": 46.97920425,
          "velocity": 0.7874015748031497
        },
        {
          "duration": 0.10416675000000453,
          "durationTicks": 30,
          "midi": 70,
          "name": "A#4",
          "ticks": 13560,
          "time": 47.083371,
          "velocity": 0.7874015748031497
        },
        {
          "duration": 0.10416674999999742,
          "durationTicks": 30,
          "midi": 67,
          "name": "G4",
          "ticks": 13590,
          "time": 47.187537750000004,
          "velocity": 0.7874015748031497
        },
        {
          "duration": 0.10416674999999742,
          "durationTicks": 30,
          "midi": 72,
          "name": "C5",
          "ticks": 13620,
          "time": 47.2917045,
          "velocity": 0.7874015748031497
        },
        {
          "duration": 0.10416675000000453,
          "durationTicks": 30,
          "midi": 69,
          "name": "A4",
          "ticks": 13650,
          "time": 47.39587125,
          "velocity": 0.7874015748031497
        },
        {
          "duration": 0.4166669999999968,
          "durationTicks": 120,
          "midi": 74,
          "name": "D5",
          "ticks": 13680,
          "time": 47.500038,
          "velocity": 0.7874015748031497
        },
        {
          "duration": 0.10416674999999742,
          "durationTicks": 30,
          "midi": 79,
          "name": "G5",
          "ticks": 13800,
          "time": 47.916705,
          "velocity": 0.7874015748031497
        },
        {
          "duration": 0.10416675000000453,
          "durationTicks": 30,
          "midi": 74,
          "name": "D5",
          "ticks": 13830,
          "time": 48.02087175,
          "velocity": 0.7874015748031497
        },
        {
          "duration": 0.10416674999999742,
          "durationTicks": 30,
          "midi": 81,
          "name": "A5",
          "ticks": 13860,
          "time": 48.1250385,
          "velocity": 0.7874015748031497
        },
        {
          "duration": 0.10416675000000453,
          "durationTicks": 30,
          "midi": 74,
          "name": "D5",
          "ticks": 13890,
          "time": 48.22920525,
          "velocity": 0.7874015748031497
        },
        {
          "duration": 0.10416674999999742,
          "durationTicks": 30,
          "midi": 82,
          "name": "A#5",
          "ticks": 13920,
          "time": 48.333372000000004,
          "velocity": 0.7874015748031497
        },
        {
          "duration": 0.10416674999999742,
          "durationTicks": 30,
          "midi": 84,
          "name": "C6",
          "ticks": 13950,
          "time": 48.43753875,
          "velocity": 0.7874015748031497
        },
        {
          "duration": 0.10416675000000453,
          "durationTicks": 30,
          "midi": 86,
          "name": "D6",
          "ticks": 13980,
          "time": 48.5417055,
          "velocity": 0.7874015748031497
        },
        {
          "duration": 0.10416674999999742,
          "durationTicks": 30,
          "midi": 79,
          "name": "G5",
          "ticks": 14010,
          "time": 48.645872250000004,
          "velocity": 0.7874015748031497
        },
        {
          "duration": 0.20833350000000195,
          "durationTicks": 60,
          "midi": 81,
          "name": "A5",
          "ticks": 14040,
          "time": 48.750039,
          "velocity": 0.7874015748031497
        },
        {
          "duration": 0.20833349999999484,
          "durationTicks": 60,
          "midi": 77,
          "name": "F5",
          "ticks": 14100,
          "time": 48.9583725,
          "velocity": 0.7874015748031497
        },
        {
          "duration": 0.20833350000000195,
          "durationTicks": 60,
          "midi": 79,
          "name": "G5",
          "ticks": 14160,
          "time": 49.166706,
          "velocity": 0.7874015748031497
        },
        {
          "duration": 0.20833350000000195,
          "durationTicks": 60,
          "midi": 74,
          "name": "D5",
          "ticks": 14220,
          "time": 49.3750395,
          "velocity": 0.7874015748031497
        },
        {
          "duration": 0.10416674999999742,
          "durationTicks": 30,
          "midi": 81,
          "name": "A5",
          "ticks": 14280,
          "time": 49.583373,
          "velocity": 0.7874015748031497
        },
        {
          "duration": 0.10416675000000453,
          "durationTicks": 30,
          "midi": 82,
          "name": "A#5",
          "ticks": 14310,
          "time": 49.68753975,
          "velocity": 0.7874015748031497
        },
        {
          "duration": 0.20833349999999484,
          "durationTicks": 60,
          "midi": 84,
          "name": "C6",
          "ticks": 14340,
          "time": 49.791706500000004,
          "velocity": 0.7874015748031497
        },
        {
          "duration": 0.10416675000000453,
          "durationTicks": 30,
          "midi": 86,
          "name": "D6",
          "ticks": 14400,
          "time": 50.00004,
          "velocity": 0.7874015748031497
        },
        {
          "duration": 0.10416674999999742,
          "durationTicks": 30,
          "midi": 82,
          "name": "A#5",
          "ticks": 14430,
          "time": 50.10420675,
          "velocity": 0.7874015748031497
        },
        {
          "duration": 0.10416674999999742,
          "durationTicks": 30,
          "midi": 79,
          "name": "G5",
          "ticks": 14460,
          "time": 50.2083735,
          "velocity": 0.7874015748031497
        },
        {
          "duration": 0.10416675000000453,
          "durationTicks": 30,
          "midi": 84,
          "name": "C6",
          "ticks": 14490,
          "time": 50.31254025,
          "velocity": 0.7874015748031497
        },
        {
          "duration": 0.10416674999999742,
          "durationTicks": 30,
          "midi": 81,
          "name": "A5",
          "ticks": 14520,
          "time": 50.416707,
          "velocity": 0.7874015748031497
        },
        {
          "duration": 0.10416675000000453,
          "durationTicks": 30,
          "midi": 77,
          "name": "F5",
          "ticks": 14550,
          "time": 50.52087375,
          "velocity": 0.7874015748031497
        },
        {
          "duration": 0.10416674999999742,
          "durationTicks": 30,
          "midi": 81,
          "name": "A5",
          "ticks": 14580,
          "time": 50.625040500000004,
          "velocity": 0.7874015748031497
        },
        {
          "duration": 0.10416674999999742,
          "durationTicks": 30,
          "midi": 82,
          "name": "A#5",
          "ticks": 14610,
          "time": 50.72920725,
          "velocity": 0.7874015748031497
        },
        {
          "duration": 0.10416675000000453,
          "durationTicks": 30,
          "midi": 81,
          "name": "A5",
          "ticks": 14640,
          "time": 50.833374,
          "velocity": 0.7874015748031497
        },
        {
          "duration": 0.10416674999999742,
          "durationTicks": 30,
          "midi": 77,
          "name": "F5",
          "ticks": 14670,
          "time": 50.937540750000004,
          "velocity": 0.7874015748031497
        },
        {
          "duration": 0.10416674999999742,
          "durationTicks": 30,
          "midi": 74,
          "name": "D5",
          "ticks": 14700,
          "time": 51.0417075,
          "velocity": 0.7874015748031497
        },
        {
          "duration": 0.10416675000000453,
          "durationTicks": 30,
          "midi": 79,
          "name": "G5",
          "ticks": 14730,
          "time": 51.14587425,
          "velocity": 0.7874015748031497
        },
        {
          "duration": 0.10416674999999742,
          "durationTicks": 30,
          "midi": 72,
          "name": "C5",
          "ticks": 14760,
          "time": 51.250041,
          "velocity": 0.7874015748031497
        },
        {
          "duration": 0.10416674999999742,
          "durationTicks": 30,
          "midi": 74,
          "name": "D5",
          "ticks": 14790,
          "time": 51.35420775,
          "velocity": 0.7874015748031497
        },
        {
          "duration": 0.10416675000000453,
          "durationTicks": 30,
          "midi": 77,
          "name": "F5",
          "ticks": 14820,
          "time": 51.4583745,
          "velocity": 0.7874015748031497
        },
        {
          "duration": 0.10416674999999742,
          "durationTicks": 30,
          "midi": 82,
          "name": "A#5",
          "ticks": 14850,
          "time": 51.56254125,
          "velocity": 0.7874015748031497
        },
        {
          "duration": 0.10416675000000453,
          "durationTicks": 30,
          "midi": 70,
          "name": "A#4",
          "ticks": 14880,
          "time": 51.666708,
          "velocity": 0.7874015748031497
        },
        {
          "duration": 0.10416674999999742,
          "durationTicks": 30,
          "midi": 74,
          "name": "D5",
          "ticks": 14910,
          "time": 51.770874750000004,
          "velocity": 0.7874015748031497
        },
        {
          "duration": 0.10416674999999742,
          "durationTicks": 30,
          "midi": 81,
          "name": "A5",
          "ticks": 14940,
          "time": 51.8750415,
          "velocity": 0.7874015748031497
        },
        {
          "duration": 0.10416675000000453,
          "durationTicks": 30,
          "midi": 72,
          "name": "C5",
          "ticks": 14970,
          "time": 51.97920825,
          "velocity": 0.7874015748031497
        },
        {
          "duration": 0.10416674999999742,
          "durationTicks": 30,
          "midi": 79,
          "name": "G5",
          "ticks": 15000,
          "time": 52.083375000000004,
          "velocity": 0.7874015748031497
        },
        {
          "duration": 0.10416674999999742,
          "durationTicks": 30,
          "midi": 70,
          "name": "A#4",
          "ticks": 15030,
          "time": 52.18754175,
          "velocity": 0.7874015748031497
        },
        {
          "duration": 0.10416675000000453,
          "durationTicks": 30,
          "midi": 77,
          "name": "F5",
          "ticks": 15060,
          "time": 52.2917085,
          "velocity": 0.7874015748031497
        },
        {
          "duration": 0.10416674999999742,
          "durationTicks": 30,
          "midi": 69,
          "name": "A4",
          "ticks": 15090,
          "time": 52.39587525,
          "velocity": 0.7874015748031497
        },
        {
          "duration": 0.10416674999999742,
          "durationTicks": 30,
          "midi": 70,
          "name": "A#4",
          "ticks": 15120,
          "time": 52.500042,
          "velocity": 0.7874015748031497
        },
        {
          "duration": 0.10416675000000453,
          "durationTicks": 30,
          "midi": 72,
          "name": "C5",
          "ticks": 15150,
          "time": 52.60420875,
          "velocity": 0.7874015748031497
        },
        {
          "duration": 0.10416674999999742,
          "durationTicks": 30,
          "midi": 67,
          "name": "G4",
          "ticks": 15180,
          "time": 52.7083755,
          "velocity": 0.7874015748031497
        },
        {
          "duration": 0.10416675000000453,
          "durationTicks": 30,
          "midi": 69,
          "name": "A4",
          "ticks": 15210,
          "time": 52.81254225,
          "velocity": 0.7874015748031497
        },
        {
          "duration": 0.10416674999999742,
          "durationTicks": 30,
          "midi": 70,
          "name": "A#4",
          "ticks": 15240,
          "time": 52.916709000000004,
          "velocity": 0.7874015748031497
        },
        {
          "duration": 0.10416674999999742,
          "durationTicks": 30,
          "midi": 65,
          "name": "F4",
          "ticks": 15270,
          "time": 53.02087575,
          "velocity": 0.7874015748031497
        },
        {
          "duration": 0.10416675000000453,
          "durationTicks": 30,
          "midi": 67,
          "name": "G4",
          "ticks": 15300,
          "time": 53.1250425,
          "velocity": 0.7874015748031497
        },
        {
          "duration": 0.10416674999999742,
          "durationTicks": 30,
          "midi": 69,
          "name": "A4",
          "ticks": 15330,
          "time": 53.229209250000004,
          "velocity": 0.7874015748031497
        },
        {
          "duration": 0.10416674999999742,
          "durationTicks": 30,
          "midi": 64,
          "name": "E4",
          "ticks": 15360,
          "time": 53.333376,
          "velocity": 0.7874015748031497
        },
        {
          "duration": 0.10416675000000453,
          "durationTicks": 30,
          "midi": 59,
          "name": "B3",
          "ticks": 15390,
          "time": 53.43754275,
          "velocity": 0.7874015748031497
        },
        {
          "duration": 0.10416674999999742,
          "durationTicks": 30,
          "midi": 66,
          "name": "F#4",
          "ticks": 15420,
          "time": 53.5417095,
          "velocity": 0.7874015748031497
        },
        {
          "duration": 0.10416674999999742,
          "durationTicks": 30,
          "midi": 62,
          "name": "D4",
          "ticks": 15450,
          "time": 53.64587625,
          "velocity": 0.7874015748031497
        },
        {
          "duration": 0.10416675000000453,
          "durationTicks": 30,
          "midi": 67,
          "name": "G4",
          "ticks": 15480,
          "time": 53.750043,
          "velocity": 0.7874015748031497
        },
        {
          "duration": 0.10416674999999742,
          "durationTicks": 30,
          "midi": 64,
          "name": "E4",
          "ticks": 15510,
          "time": 53.85420975,
          "velocity": 0.7874015748031497
        },
        {
          "duration": 0.10416675000000453,
          "durationTicks": 30,
          "midi": 69,
          "name": "A4",
          "ticks": 15540,
          "time": 53.9583765,
          "velocity": 0.7874015748031497
        },
        {
          "duration": 0.10416674999999742,
          "durationTicks": 30,
          "midi": 66,
          "name": "F#4",
          "ticks": 15570,
          "time": 54.062543250000004,
          "velocity": 0.7874015748031497
        },
        {
          "duration": 0.4166669999999968,
          "durationTicks": 120,
          "midi": 71,
          "name": "B4",
          "ticks": 15600,
          "time": 54.16671,
          "velocity": 0.7874015748031497
        },
        {
          "duration": 0.4166670000000039,
          "durationTicks": 120,
          "midi": 76,
          "name": "E5",
          "ticks": 15720,
          "time": 54.583377,
          "velocity": 0.7874015748031497
        },
        {
          "duration": 0.4166669999999968,
          "durationTicks": 120,
          "midi": 76,
          "name": "E5",
          "ticks": 15840,
          "time": 55.000044,
          "velocity": 0.7874015748031497
        },
        {
          "duration": 0.20833350000000195,
          "durationTicks": 60,
          "midi": 74,
          "name": "D5",
          "ticks": 15960,
          "time": 55.416711,
          "velocity": 0.7874015748031497
        },
        {
          "duration": 0.20833350000000195,
          "durationTicks": 60,
          "midi": 76,
          "name": "E5",
          "ticks": 16020,
          "time": 55.6250445,
          "velocity": 0.7874015748031497
        },
        {
          "duration": 0.05208337499999516,
          "durationTicks": 15,
          "midi": 71,
          "name": "B4",
          "ticks": 16080,
          "time": 55.833378,
          "velocity": 0.7874015748031497
        },
        {
          "duration": 0.05208337500000226,
          "durationTicks": 15,
          "midi": 69,
          "name": "A4",
          "ticks": 16095,
          "time": 55.885461375,
          "velocity": 0.7874015748031497
        },
        {
          "duration": 0.05208337500000226,
          "durationTicks": 15,
          "midi": 71,
          "name": "B4",
          "ticks": 16110,
          "time": 55.93754475,
          "velocity": 0.7874015748031497
        },
        {
          "duration": 0.05208337499999516,
          "durationTicks": 15,
          "midi": 69,
          "name": "A4",
          "ticks": 16125,
          "time": 55.989628125,
          "velocity": 0.7874015748031497
        },
        {
          "duration": 0.6250005000000058,
          "durationTicks": 180,
          "midi": 71,
          "name": "B4",
          "ticks": 16140,
          "time": 56.0417115,
          "velocity": 0.7874015748031497
        },
        {
          "duration": 0.20833349999999484,
          "durationTicks": 60,
          "midi": 69,
          "name": "A4",
          "ticks": 16320,
          "time": 56.666712000000004,
          "velocity": 0.7874015748031497
        },
        {
          "duration": 0.20833350000000195,
          "durationTicks": 60,
          "midi": 71,
          "name": "B4",
          "ticks": 16380,
          "time": 56.8750455,
          "velocity": 0.7874015748031497
        },
        {
          "duration": 0.4166670000000039,
          "durationTicks": 120,
          "midi": 64,
          "name": "E4",
          "ticks": 16440,
          "time": 57.083379,
          "velocity": 0.7874015748031497
        },
        {
          "duration": 0.20833349999999484,
          "durationTicks": 60,
          "midi": 69,
          "name": "A4",
          "ticks": 16560,
          "time": 57.500046000000005,
          "velocity": 0.7874015748031497
        },
        {
          "duration": 0.20833350000000195,
          "durationTicks": 60,
          "midi": 71,
          "name": "B4",
          "ticks": 16620,
          "time": 57.7083795,
          "velocity": 0.7874015748031497
        },
        {
          "duration": 0.4166669999999968,
          "durationTicks": 120,
          "midi": 64,
          "name": "E4",
          "ticks": 16680,
          "time": 57.916713,
          "velocity": 0.7874015748031497
        },
        {
          "duration": 0.8333340000000007,
          "durationTicks": 240,
          "midi": 64,
          "name": "E4",
          "ticks": 16800,
          "time": 58.33338,
          "velocity": 0.7874015748031497
        },
        {
          "duration": 0.4166670000000039,
          "durationTicks": 120,
          "midi": 66,
          "name": "F#4",
          "ticks": 17040,
          "time": 59.166714,
          "velocity": 0.7874015748031497
        },
        {
          "duration": 0.10416674999999742,
          "durationTicks": 30,
          "midi": 71,
          "name": "B4",
          "ticks": 17160,
          "time": 59.583381,
          "velocity": 0.7874015748031497
        },
        {
          "duration": 0.10416675000000453,
          "durationTicks": 30,
          "midi": 69,
          "name": "A4",
          "ticks": 17190,
          "time": 59.68754775,
          "velocity": 0.7874015748031497
        },
        {
          "duration": 0.10416674999999742,
          "durationTicks": 30,
          "midi": 67,
          "name": "G4",
          "ticks": 17220,
          "time": 59.791714500000005,
          "velocity": 0.7874015748031497
        },
        {
          "duration": 0.10416674999999742,
          "durationTicks": 30,
          "midi": 66,
          "name": "F#4",
          "ticks": 17250,
          "time": 59.89588125,
          "velocity": 0.7874015748031497
        },
        {
          "duration": 0.10416675000000453,
          "durationTicks": 30,
          "midi": 64,
          "name": "E4",
          "ticks": 17280,
          "time": 60.000048,
          "velocity": 0.7874015748031497
        },
        {
          "duration": 0.10416674999999742,
          "durationTicks": 30,
          "midi": 59,
          "name": "B3",
          "ticks": 17310,
          "time": 60.104214750000004,
          "velocity": 0.7874015748031497
        },
        {
          "duration": 0.10416674999999742,
          "durationTicks": 30,
          "midi": 66,
          "name": "F#4",
          "ticks": 17340,
          "time": 60.2083815,
          "velocity": 0.7874015748031497
        },
        {
          "duration": 0.10416675000000453,
          "durationTicks": 30,
          "midi": 62,
          "name": "D4",
          "ticks": 17370,
          "time": 60.31254825,
          "velocity": 0.7874015748031497
        },
        {
          "duration": 0.10416674999999742,
          "durationTicks": 30,
          "midi": 67,
          "name": "G4",
          "ticks": 17400,
          "time": 60.416715,
          "velocity": 0.7874015748031497
        },
        {
          "duration": 0.10416674999999742,
          "durationTicks": 30,
          "midi": 64,
          "name": "E4",
          "ticks": 17430,
          "time": 60.52088175,
          "velocity": 0.7874015748031497
        },
        {
          "duration": 0.10416675000000453,
          "durationTicks": 30,
          "midi": 69,
          "name": "A4",
          "ticks": 17460,
          "time": 60.6250485,
          "velocity": 0.7874015748031497
        },
        {
          "duration": 0.10416674999999742,
          "durationTicks": 30,
          "midi": 66,
          "name": "F#4",
          "ticks": 17490,
          "time": 60.72921525,
          "velocity": 0.7874015748031497
        },
        {
          "duration": 0.4166670000000039,
          "durationTicks": 120,
          "midi": 71,
          "name": "B4",
          "ticks": 17520,
          "time": 60.833382,
          "velocity": 0.7874015748031497
        },
        {
          "duration": 0.10416674999999742,
          "durationTicks": 30,
          "midi": 76,
          "name": "E5",
          "ticks": 17640,
          "time": 61.250049000000004,
          "velocity": 0.7874015748031497
        },
        {
          "duration": 0.10416674999999742,
          "durationTicks": 30,
          "midi": 71,
          "name": "B4",
          "ticks": 17670,
          "time": 61.35421575,
          "velocity": 0.7874015748031497
        },
        {
          "duration": 0.10416675000000453,
          "durationTicks": 30,
          "midi": 78,
          "name": "F#5",
          "ticks": 17700,
          "time": 61.4583825,
          "velocity": 0.7874015748031497
        },
        {
          "duration": 0.10416674999999742,
          "durationTicks": 30,
          "midi": 71,
          "name": "B4",
          "ticks": 17730,
          "time": 61.562549250000004,
          "velocity": 0.7874015748031497
        },
        {
          "duration": 0.10416674999999742,
          "durationTicks": 30,
          "midi": 79,
          "name": "G5",
          "ticks": 17760,
          "time": 61.666716,
          "velocity": 0.7874015748031497
        },
        {
          "duration": 0.10416675000000453,
          "durationTicks": 30,
          "midi": 81,
          "name": "A5",
          "ticks": 17790,
          "time": 61.77088275,
          "velocity": 0.7874015748031497
        },
        {
          "duration": 0.10416674999999742,
          "durationTicks": 30,
          "midi": 83,
          "name": "B5",
          "ticks": 17820,
          "time": 61.8750495,
          "velocity": 0.7874015748031497
        },
        {
          "duration": 0.10416675000000453,
          "durationTicks": 30,
          "midi": 76,
          "name": "E5",
          "ticks": 17850,
          "time": 61.97921625,
          "velocity": 0.7874015748031497
        },
        {
          "duration": 0.20833349999999484,
          "durationTicks": 60,
          "midi": 78,
          "name": "F#5",
          "ticks": 17880,
          "time": 62.083383000000005,
          "velocity": 0.7874015748031497
        },
        {
          "duration": 0.20833350000000195,
          "durationTicks": 60,
          "midi": 74,
          "name": "D5",
          "ticks": 17940,
          "time": 62.2917165,
          "velocity": 0.7874015748031497
        },
        {
          "duration": 0.20833350000000195,
          "durationTicks": 60,
          "midi": 76,
          "name": "E5",
          "ticks": 18000,
          "time": 62.50005,
          "velocity": 0.7874015748031497
        },
        {
          "duration": 0.20833349999999484,
          "durationTicks": 60,
          "midi": 71,
          "name": "B4",
          "ticks": 18060,
          "time": 62.708383500000004,
          "velocity": 0.7874015748031497
        },
        {
          "duration": 0.10416675000000453,
          "durationTicks": 30,
          "midi": 78,
          "name": "F#5",
          "ticks": 18120,
          "time": 62.916717,
          "velocity": 0.7874015748031497
        },
        {
          "duration": 0.10416674999999742,
          "durationTicks": 30,
          "midi": 79,
          "name": "G5",
          "ticks": 18150,
          "time": 63.02088375,
          "velocity": 0.7874015748031497
        },
        {
          "duration": 0.20833350000000195,
          "durationTicks": 60,
          "midi": 81,
          "name": "A5",
          "ticks": 18180,
          "time": 63.1250505,
          "velocity": 0.7874015748031497
        },
        {
          "duration": 0.10416674999999742,
          "durationTicks": 30,
          "midi": 83,
          "name": "B5",
          "ticks": 18240,
          "time": 63.333384,
          "velocity": 0.7874015748031497
        },
        {
          "duration": 0.10416675000000453,
          "durationTicks": 30,
          "midi": 79,
          "name": "G5",
          "ticks": 18270,
          "time": 63.43755075,
          "velocity": 0.7874015748031497
        },
        {
          "duration": 0.10416674999999742,
          "durationTicks": 30,
          "midi": 76,
          "name": "E5",
          "ticks": 18300,
          "time": 63.541717500000004,
          "velocity": 0.7874015748031497
        },
        {
          "duration": 0.10416674999999742,
          "durationTicks": 30,
          "midi": 81,
          "name": "A5",
          "ticks": 18330,
          "time": 63.64588425,
          "velocity": 0.7874015748031497
        },
        {
          "duration": 0.10416675000000453,
          "durationTicks": 30,
          "midi": 78,
          "name": "F#5",
          "ticks": 18360,
          "time": 63.750051,
          "velocity": 0.7874015748031497
        },
        {
          "duration": 0.10416674999999742,
          "durationTicks": 30,
          "midi": 74,
          "name": "D5",
          "ticks": 18390,
          "time": 63.854217750000004,
          "velocity": 0.7874015748031497
        },
        {
          "duration": 0.10416674999999742,
          "durationTicks": 30,
          "midi": 78,
          "name": "F#5",
          "ticks": 18420,
          "time": 63.9583845,
          "velocity": 0.7874015748031497
        },
        {
          "duration": 0.10416675000000453,
          "durationTicks": 30,
          "midi": 79,
          "name": "G5",
          "ticks": 18450,
          "time": 64.06255125,
          "velocity": 0.7874015748031497
        },
        {
          "duration": 0.10416675000000453,
          "durationTicks": 30,
          "midi": 78,
          "name": "F#5",
          "ticks": 18480,
          "time": 64.166718,
          "velocity": 0.7874015748031497
        },
        {
          "duration": 0.10416674999999032,
          "durationTicks": 30,
          "midi": 74,
          "name": "D5",
          "ticks": 18510,
          "time": 64.27088475000001,
          "velocity": 0.7874015748031497
        },
        {
          "duration": 0.10416675000000453,
          "durationTicks": 30,
          "midi": 71,
          "name": "B4",
          "ticks": 18540,
          "time": 64.3750515,
          "velocity": 0.7874015748031497
        },
        {
          "duration": 0.10416675000000453,
          "durationTicks": 30,
          "midi": 76,
          "name": "E5",
          "ticks": 18570,
          "time": 64.47921825,
          "velocity": 0.7874015748031497
        },
        {
          "duration": 0.10416674999999032,
          "durationTicks": 30,
          "midi": 69,
          "name": "A4",
          "ticks": 18600,
          "time": 64.583385,
          "velocity": 0.7874015748031497
        },
        {
          "duration": 0.10416675000000453,
          "durationTicks": 30,
          "midi": 71,
          "name": "B4",
          "ticks": 18630,
          "time": 64.68755175,
          "velocity": 0.7874015748031497
        },
        {
          "duration": 0.10416675000000453,
          "durationTicks": 30,
          "midi": 74,
          "name": "D5",
          "ticks": 18660,
          "time": 64.7917185,
          "velocity": 0.7874015748031497
        },
        {
          "duration": 0.10416674999999032,
          "durationTicks": 30,
          "midi": 79,
          "name": "G5",
          "ticks": 18690,
          "time": 64.89588525,
          "velocity": 0.7874015748031497
        },
        {
          "duration": 0.10416675000000453,
          "durationTicks": 30,
          "midi": 67,
          "name": "G4",
          "ticks": 18720,
          "time": 65.000052,
          "velocity": 0.7874015748031497
        },
        {
          "duration": 0.10416675000000453,
          "durationTicks": 30,
          "midi": 71,
          "name": "B4",
          "ticks": 18750,
          "time": 65.10421875,
          "velocity": 0.7874015748031497
        },
        {
          "duration": 0.10416674999999032,
          "durationTicks": 30,
          "midi": 78,
          "name": "F#5",
          "ticks": 18780,
          "time": 65.2083855,
          "velocity": 0.7874015748031497
        },
        {
          "duration": 0.10416675000000453,
          "durationTicks": 30,
          "midi": 69,
          "name": "A4",
          "ticks": 18810,
          "time": 65.31255225,
          "velocity": 0.7874015748031497
        },
        {
          "duration": 0.10416675000000453,
          "durationTicks": 30,
          "midi": 76,
          "name": "E5",
          "ticks": 18840,
          "time": 65.416719,
          "velocity": 0.7874015748031497
        },
        {
          "duration": 0.10416674999999032,
          "durationTicks": 30,
          "midi": 67,
          "name": "G4",
          "ticks": 18870,
          "time": 65.52088575,
          "velocity": 0.7874015748031497
        },
        {
          "duration": 0.10416675000000453,
          "durationTicks": 30,
          "midi": 74,
          "name": "D5",
          "ticks": 18900,
          "time": 65.6250525,
          "velocity": 0.7874015748031497
        },
        {
          "duration": 0.10416675000000453,
          "durationTicks": 30,
          "midi": 66,
          "name": "F#4",
          "ticks": 18930,
          "time": 65.72921925,
          "velocity": 0.7874015748031497
        },
        {
          "duration": 0.10416674999999032,
          "durationTicks": 30,
          "midi": 67,
          "name": "G4",
          "ticks": 18960,
          "time": 65.833386,
          "velocity": 0.7874015748031497
        },
        {
          "duration": 0.10416675000000453,
          "durationTicks": 30,
          "midi": 69,
          "name": "A4",
          "ticks": 18990,
          "time": 65.93755275,
          "velocity": 0.7874015748031497
        },
        {
          "duration": 0.10416675000000453,
          "durationTicks": 30,
          "midi": 64,
          "name": "E4",
          "ticks": 19020,
          "time": 66.0417195,
          "velocity": 0.7874015748031497
        },
        {
          "duration": 0.10416675000000453,
          "durationTicks": 30,
          "midi": 66,
          "name": "F#4",
          "ticks": 19050,
          "time": 66.14588625,
          "velocity": 0.7874015748031497
        },
        {
          "duration": 0.10416674999999032,
          "durationTicks": 30,
          "midi": 67,
          "name": "G4",
          "ticks": 19080,
          "time": 66.25005300000001,
          "velocity": 0.7874015748031497
        },
        {
          "duration": 0.10416675000000453,
          "durationTicks": 30,
          "midi": 62,
          "name": "D4",
          "ticks": 19110,
          "time": 66.35421975,
          "velocity": 0.7874015748031497
        },
        {
          "duration": 0.10416675000000453,
          "durationTicks": 30,
          "midi": 64,
          "name": "E4",
          "ticks": 19140,
          "time": 66.4583865,
          "velocity": 0.7874015748031497
        },
        {
          "duration": 0.10416674999999032,
          "durationTicks": 30,
          "midi": 66,
          "name": "F#4",
          "ticks": 19170,
          "time": 66.56255325000001,
          "velocity": 0.7874015748031497
        },
        {
          "duration": 0.10416675000000453,
          "durationTicks": 30,
          "midi": 64,
          "name": "E4",
          "ticks": 19200,
          "time": 66.66672,
          "velocity": 0.7874015748031497
        },
        {
          "duration": 0.10416675000000453,
          "durationTicks": 30,
          "midi": 59,
          "name": "B3",
          "ticks": 19230,
          "time": 66.77088675,
          "velocity": 0.7874015748031497
        },
        {
          "duration": 0.10416674999999032,
          "durationTicks": 30,
          "midi": 66,
          "name": "F#4",
          "ticks": 19260,
          "time": 66.8750535,
          "velocity": 0.7874015748031497
        },
        {
          "duration": 0.10416675000000453,
          "durationTicks": 30,
          "midi": 62,
          "name": "D4",
          "ticks": 19290,
          "time": 66.97922025,
          "velocity": 0.7874015748031497
        },
        {
          "duration": 0.10416675000000453,
          "durationTicks": 30,
          "midi": 67,
          "name": "G4",
          "ticks": 19320,
          "time": 67.083387,
          "velocity": 0.7874015748031497
        },
        {
          "duration": 0.10416674999999032,
          "durationTicks": 30,
          "midi": 64,
          "name": "E4",
          "ticks": 19350,
          "time": 67.18755375,
          "velocity": 0.7874015748031497
        },
        {
          "duration": 0.10416675000000453,
          "durationTicks": 30,
          "midi": 69,
          "name": "A4",
          "ticks": 19380,
          "time": 67.2917205,
          "velocity": 0.7874015748031497
        },
        {
          "duration": 0.10416675000000453,
          "durationTicks": 30,
          "midi": 66,
          "name": "F#4",
          "ticks": 19410,
          "time": 67.39588725,
          "velocity": 0.7874015748031497
        },
        {
          "duration": 0.4166669999999897,
          "durationTicks": 120,
          "midi": 71,
          "name": "B4",
          "ticks": 19440,
          "time": 67.500054,
          "velocity": 0.7874015748031497
        },
        {
          "duration": 0.4166670000000039,
          "durationTicks": 120,
          "midi": 76,
          "name": "E5",
          "ticks": 19560,
          "time": 67.916721,
          "velocity": 0.7874015748031497
        },
        {
          "duration": 0.4166670000000039,
          "durationTicks": 120,
          "midi": 76,
          "name": "E5",
          "ticks": 19680,
          "time": 68.333388,
          "velocity": 0.7874015748031497
        },
        {
          "duration": 0.20833349999999484,
          "durationTicks": 60,
          "midi": 74,
          "name": "D5",
          "ticks": 19800,
          "time": 68.750055,
          "velocity": 0.7874015748031497
        },
        {
          "duration": 0.20833350000000905,
          "durationTicks": 60,
          "midi": 76,
          "name": "E5",
          "ticks": 19860,
          "time": 68.9583885,
          "velocity": 0.7874015748031497
        },
        {
          "duration": 0.05208337499999516,
          "durationTicks": 15,
          "midi": 71,
          "name": "B4",
          "ticks": 19920,
          "time": 69.16672200000001,
          "velocity": 0.7874015748031497
        },
        {
          "duration": 0.05208337499999516,
          "durationTicks": 15,
          "midi": 69,
          "name": "A4",
          "ticks": 19935,
          "time": 69.218805375,
          "velocity": 0.7874015748031497
        },
        {
          "duration": 0.05208337500000937,
          "durationTicks": 15,
          "midi": 71,
          "name": "B4",
          "ticks": 19950,
          "time": 69.27088875,
          "velocity": 0.7874015748031497
        },
        {
          "duration": 0.05208337499999516,
          "durationTicks": 15,
          "midi": 69,
          "name": "A4",
          "ticks": 19965,
          "time": 69.322972125,
          "velocity": 0.7874015748031497
        },
        {
          "duration": 0.6250004999999987,
          "durationTicks": 180,
          "midi": 71,
          "name": "B4",
          "ticks": 19980,
          "time": 69.3750555,
          "velocity": 0.7874015748031497
        },
        {
          "duration": 0.20833349999999484,
          "durationTicks": 60,
          "midi": 69,
          "name": "A4",
          "ticks": 20160,
          "time": 70.000056,
          "velocity": 0.7874015748031497
        },
        {
          "duration": 0.20833350000000905,
          "durationTicks": 60,
          "midi": 71,
          "name": "B4",
          "ticks": 20220,
          "time": 70.2083895,
          "velocity": 0.7874015748031497
        },
        {
          "duration": 0.4166670000000039,
          "durationTicks": 120,
          "midi": 64,
          "name": "E4",
          "ticks": 20280,
          "time": 70.416723,
          "velocity": 0.7874015748031497
        },
        {
          "duration": 0.20833349999999484,
          "durationTicks": 60,
          "midi": 69,
          "name": "A4",
          "ticks": 20400,
          "time": 70.83339000000001,
          "velocity": 0.7874015748031497
        },
        {
          "duration": 0.20833349999999484,
          "durationTicks": 60,
          "midi": 71,
          "name": "B4",
          "ticks": 20460,
          "time": 71.0417235,
          "velocity": 0.7874015748031497
        },
        {
          "duration": 0.4166670000000039,
          "durationTicks": 120,
          "midi": 64,
          "name": "E4",
          "ticks": 20520,
          "time": 71.250057,
          "velocity": 0.7874015748031497
        },
        {
          "duration": 0.8333339999999936,
          "durationTicks": 240,
          "midi": 64,
          "name": "E4",
          "ticks": 20640,
          "time": 71.666724,
          "velocity": 0.7874015748031497
        },
        {
          "duration": 0.4166670000000039,
          "durationTicks": 120,
          "midi": 66,
          "name": "F#4",
          "ticks": 20880,
          "time": 72.500058,
          "velocity": 0.7874015748031497
        },
        {
          "duration": 0.10416675000000453,
          "durationTicks": 30,
          "midi": 71,
          "name": "B4",
          "ticks": 21000,
          "time": 72.916725,
          "velocity": 0.7874015748031497
        },
        {
          "duration": 0.10416675000000453,
          "durationTicks": 30,
          "midi": 69,
          "name": "A4",
          "ticks": 21030,
          "time": 73.02089175,
          "velocity": 0.7874015748031497
        },
        {
          "duration": 0.10416674999999032,
          "durationTicks": 30,
          "midi": 67,
          "name": "G4",
          "ticks": 21060,
          "time": 73.12505850000001,
          "velocity": 0.7874015748031497
        },
        {
          "duration": 0.10416675000000453,
          "durationTicks": 30,
          "midi": 66,
          "name": "F#4",
          "ticks": 21090,
          "time": 73.22922525,
          "velocity": 0.7874015748031497
        },
        {
          "duration": 0.10416675000000453,
          "durationTicks": 30,
          "midi": 64,
          "name": "E4",
          "ticks": 21120,
          "time": 73.333392,
          "velocity": 0.7874015748031497
        },
        {
          "duration": 0.10416674999999032,
          "durationTicks": 30,
          "midi": 59,
          "name": "B3",
          "ticks": 21150,
          "time": 73.43755875000001,
          "velocity": 0.7874015748031497
        },
        {
          "duration": 0.10416675000000453,
          "durationTicks": 30,
          "midi": 66,
          "name": "F#4",
          "ticks": 21180,
          "time": 73.5417255,
          "velocity": 0.7874015748031497
        },
        {
          "duration": 0.10416675000000453,
          "durationTicks": 30,
          "midi": 62,
          "name": "D4",
          "ticks": 21210,
          "time": 73.64589225,
          "velocity": 0.7874015748031497
        },
        {
          "duration": 0.10416674999999032,
          "durationTicks": 30,
          "midi": 67,
          "name": "G4",
          "ticks": 21240,
          "time": 73.75005900000001,
          "velocity": 0.7874015748031497
        },
        {
          "duration": 0.10416675000000453,
          "durationTicks": 30,
          "midi": 64,
          "name": "E4",
          "ticks": 21270,
          "time": 73.85422575,
          "velocity": 0.7874015748031497
        },
        {
          "duration": 0.10416675000000453,
          "durationTicks": 30,
          "midi": 69,
          "name": "A4",
          "ticks": 21300,
          "time": 73.9583925,
          "velocity": 0.7874015748031497
        },
        {
          "duration": 0.10416674999999032,
          "durationTicks": 30,
          "midi": 66,
          "name": "F#4",
          "ticks": 21330,
          "time": 74.06255925,
          "velocity": 0.7874015748031497
        },
        {
          "duration": 0.4166670000000039,
          "durationTicks": 120,
          "midi": 71,
          "name": "B4",
          "ticks": 21360,
          "time": 74.166726,
          "velocity": 0.7874015748031497
        },
        {
          "duration": 0.10416675000000453,
          "durationTicks": 30,
          "midi": 76,
          "name": "E5",
          "ticks": 21480,
          "time": 74.583393,
          "velocity": 0.7874015748031497
        },
        {
          "duration": 0.10416674999999032,
          "durationTicks": 30,
          "midi": 71,
          "name": "B4",
          "ticks": 21510,
          "time": 74.68755975,
          "velocity": 0.7874015748031497
        },
        {
          "duration": 0.10416675000000453,
          "durationTicks": 30,
          "midi": 78,
          "name": "F#5",
          "ticks": 21540,
          "time": 74.7917265,
          "velocity": 0.7874015748031497
        },
        {
          "duration": 0.10416675000000453,
          "durationTicks": 30,
          "midi": 71,
          "name": "B4",
          "ticks": 21570,
          "time": 74.89589325,
          "velocity": 0.7874015748031497
        },
        {
          "duration": 0.10416674999999032,
          "durationTicks": 30,
          "midi": 79,
          "name": "G5",
          "ticks": 21600,
          "time": 75.00006,
          "velocity": 0.7874015748031497
        },
        {
          "duration": 0.10416675000000453,
          "durationTicks": 30,
          "midi": 81,
          "name": "A5",
          "ticks": 21630,
          "time": 75.10422675,
          "velocity": 0.7874015748031497
        },
        {
          "duration": 0.10416675000000453,
          "durationTicks": 30,
          "midi": 83,
          "name": "B5",
          "ticks": 21660,
          "time": 75.2083935,
          "velocity": 0.7874015748031497
        },
        {
          "duration": 0.10416675000000453,
          "durationTicks": 30,
          "midi": 76,
          "name": "E5",
          "ticks": 21690,
          "time": 75.31256025,
          "velocity": 0.7874015748031497
        },
        {
          "duration": 0.20833349999999484,
          "durationTicks": 60,
          "midi": 78,
          "name": "F#5",
          "ticks": 21720,
          "time": 75.41672700000001,
          "velocity": 0.7874015748031497
        },
        {
          "duration": 0.20833349999999484,
          "durationTicks": 60,
          "midi": 74,
          "name": "D5",
          "ticks": 21780,
          "time": 75.6250605,
          "velocity": 0.7874015748031497
        },
        {
          "duration": 0.20833350000000905,
          "durationTicks": 60,
          "midi": 76,
          "name": "E5",
          "ticks": 21840,
          "time": 75.833394,
          "velocity": 0.7874015748031497
        },
        {
          "duration": 0.20833349999999484,
          "durationTicks": 60,
          "midi": 71,
          "name": "B4",
          "ticks": 21900,
          "time": 76.04172750000001,
          "velocity": 0.7874015748031497
        },
        {
          "duration": 0.10416675000000453,
          "durationTicks": 30,
          "midi": 78,
          "name": "F#5",
          "ticks": 21960,
          "time": 76.250061,
          "velocity": 0.7874015748031497
        },
        {
          "duration": 0.10416674999999032,
          "durationTicks": 30,
          "midi": 79,
          "name": "G5",
          "ticks": 21990,
          "time": 76.35422775,
          "velocity": 0.7874015748031497
        },
        {
          "duration": 0.20833350000000905,
          "durationTicks": 60,
          "midi": 81,
          "name": "A5",
          "ticks": 22020,
          "time": 76.4583945,
          "velocity": 0.7874015748031497
        },
        {
          "duration": 0.10416674999999032,
          "durationTicks": 30,
          "midi": 83,
          "name": "B5",
          "ticks": 22080,
          "time": 76.666728,
          "velocity": 0.7874015748031497
        },
        {
          "duration": 0.10416675000000453,
          "durationTicks": 30,
          "midi": 79,
          "name": "G5",
          "ticks": 22110,
          "time": 76.77089475,
          "velocity": 0.7874015748031497
        },
        {
          "duration": 0.10416675000000453,
          "durationTicks": 30,
          "midi": 76,
          "name": "E5",
          "ticks": 22140,
          "time": 76.8750615,
          "velocity": 0.7874015748031497
        },
        {
          "duration": 0.10416674999999032,
          "durationTicks": 30,
          "midi": 81,
          "name": "A5",
          "ticks": 22170,
          "time": 76.97922825,
          "velocity": 0.7874015748031497
        },
        {
          "duration": 0.10416675000000453,
          "durationTicks": 30,
          "midi": 78,
          "name": "F#5",
          "ticks": 22200,
          "time": 77.083395,
          "velocity": 0.7874015748031497
        },
        {
          "duration": 0.10416675000000453,
          "durationTicks": 30,
          "midi": 74,
          "name": "D5",
          "ticks": 22230,
          "time": 77.18756175,
          "velocity": 0.7874015748031497
        },
        {
          "duration": 0.10416674999999032,
          "durationTicks": 30,
          "midi": 78,
          "name": "F#5",
          "ticks": 22260,
          "time": 77.2917285,
          "velocity": 0.7874015748031497
        },
        {
          "duration": 0.10416675000000453,
          "durationTicks": 30,
          "midi": 79,
          "name": "G5",
          "ticks": 22290,
          "time": 77.39589525,
          "velocity": 0.7874015748031497
        },
        {
          "duration": 0.10416675000000453,
          "durationTicks": 30,
          "midi": 78,
          "name": "F#5",
          "ticks": 22320,
          "time": 77.500062,
          "velocity": 0.7874015748031497
        },
        {
          "duration": 0.10416675000000453,
          "durationTicks": 30,
          "midi": 74,
          "name": "D5",
          "ticks": 22350,
          "time": 77.60422875,
          "velocity": 0.7874015748031497
        },
        {
          "duration": 0.10416674999999032,
          "durationTicks": 30,
          "midi": 71,
          "name": "B4",
          "ticks": 22380,
          "time": 77.70839550000001,
          "velocity": 0.7874015748031497
        },
        {
          "duration": 0.10416675000000453,
          "durationTicks": 30,
          "midi": 76,
          "name": "E5",
          "ticks": 22410,
          "time": 77.81256225,
          "velocity": 0.7874015748031497
        },
        {
          "duration": 0.10416675000000453,
          "durationTicks": 30,
          "midi": 69,
          "name": "A4",
          "ticks": 22440,
          "time": 77.916729,
          "velocity": 0.7874015748031497
        },
        {
          "duration": 0.10416674999999032,
          "durationTicks": 30,
          "midi": 71,
          "name": "B4",
          "ticks": 22470,
          "time": 78.02089575000001,
          "velocity": 0.7874015748031497
        },
        {
          "duration": 0.10416675000000453,
          "durationTicks": 30,
          "midi": 74,
          "name": "D5",
          "ticks": 22500,
          "time": 78.1250625,
          "velocity": 0.7874015748031497
        },
        {
          "duration": 0.10416675000000453,
          "durationTicks": 30,
          "midi": 79,
          "name": "G5",
          "ticks": 22530,
          "time": 78.22922925,
          "velocity": 0.7874015748031497
        },
        {
          "duration": 0.10416674999999032,
          "durationTicks": 30,
          "midi": 67,
          "name": "G4",
          "ticks": 22560,
          "time": 78.33339600000001,
          "velocity": 0.7874015748031497
        },
        {
          "duration": 0.10416675000000453,
          "durationTicks": 30,
          "midi": 71,
          "name": "B4",
          "ticks": 22590,
          "time": 78.43756275,
          "velocity": 0.7874015748031497
        },
        {
          "duration": 0.10416675000000453,
          "durationTicks": 30,
          "midi": 78,
          "name": "F#5",
          "ticks": 22620,
          "time": 78.5417295,
          "velocity": 0.7874015748031497
        },
        {
          "duration": 0.10416674999999032,
          "durationTicks": 30,
          "midi": 69,
          "name": "A4",
          "ticks": 22650,
          "time": 78.64589625,
          "velocity": 0.7874015748031497
        },
        {
          "duration": 0.10416675000000453,
          "durationTicks": 30,
          "midi": 76,
          "name": "E5",
          "ticks": 22680,
          "time": 78.750063,
          "velocity": 0.7874015748031497
        },
        {
          "duration": 0.10416675000000453,
          "durationTicks": 30,
          "midi": 67,
          "name": "G4",
          "ticks": 22710,
          "time": 78.85422975,
          "velocity": 0.7874015748031497
        },
        {
          "duration": 0.10416674999999032,
          "durationTicks": 30,
          "midi": 74,
          "name": "D5",
          "ticks": 22740,
          "time": 78.9583965,
          "velocity": 0.7874015748031497
        },
        {
          "duration": 0.10416675000000453,
          "durationTicks": 30,
          "midi": 66,
          "name": "F#4",
          "ticks": 22770,
          "time": 79.06256325,
          "velocity": 0.7874015748031497
        },
        {
          "duration": 0.10416675000000453,
          "durationTicks": 30,
          "midi": 67,
          "name": "G4",
          "ticks": 22800,
          "time": 79.16673,
          "velocity": 0.7874015748031497
        },
        {
          "duration": 0.10416674999999032,
          "durationTicks": 30,
          "midi": 69,
          "name": "A4",
          "ticks": 22830,
          "time": 79.27089675,
          "velocity": 0.7874015748031497
        },
        {
          "duration": 0.10416675000000453,
          "durationTicks": 30,
          "midi": 64,
          "name": "E4",
          "ticks": 22860,
          "time": 79.3750635,
          "velocity": 0.7874015748031497
        },
        {
          "duration": 0.10416675000000453,
          "durationTicks": 30,
          "midi": 66,
          "name": "F#4",
          "ticks": 22890,
          "time": 79.47923025,
          "velocity": 0.7874015748031497
        },
        {
          "duration": 0.10416674999999032,
          "durationTicks": 30,
          "midi": 67,
          "name": "G4",
          "ticks": 22920,
          "time": 79.583397,
          "velocity": 0.7874015748031497
        },
        {
          "duration": 0.10416675000000453,
          "durationTicks": 30,
          "midi": 62,
          "name": "D4",
          "ticks": 22950,
          "time": 79.68756375,
          "velocity": 0.7874015748031497
        },
        {
          "duration": 0.10416675000000453,
          "durationTicks": 30,
          "midi": 64,
          "name": "E4",
          "ticks": 22980,
          "time": 79.7917305,
          "velocity": 0.7874015748031497
        },
        {
          "duration": 0.10416675000000453,
          "durationTicks": 30,
          "midi": 66,
          "name": "F#4",
          "ticks": 23010,
          "time": 79.89589725,
          "velocity": 0.7874015748031497
        },
        {
          "duration": 1.6666679999999872,
          "durationTicks": 480,
          "midi": 71,
          "name": "B4",
          "ticks": 23040,
          "time": 80.00006400000001,
          "velocity": 0.7874015748031497
        },
        {
          "duration": 0.6250004999999987,
          "durationTicks": 180,
          "midi": 52,
          "name": "E3",
          "ticks": 23520,
          "time": 81.666732,
          "velocity": 0.44881889763779526
        },
        {
          "duration": 0.6250004999999987,
          "durationTicks": 180,
          "midi": 47,
          "name": "B2",
          "ticks": 23520,
          "time": 81.666732,
          "velocity": 0.44881889763779526
        },
        {
          "duration": 0.625000500000013,
          "durationTicks": 180,
          "midi": 52,
          "name": "E3",
          "ticks": 23700,
          "time": 82.2917325,
          "velocity": 0.44881889763779526
        },
        {
          "duration": 0.625000500000013,
          "durationTicks": 180,
          "midi": 48,
          "name": "C3",
          "ticks": 23700,
          "time": 82.2917325,
          "velocity": 0.44881889763779526
        },
        {
          "duration": 0.6250004999999987,
          "durationTicks": 180,
          "midi": 50,
          "name": "D3",
          "ticks": 23880,
          "time": 82.91673300000001,
          "velocity": 0.44881889763779526
        },
        {
          "duration": 0.6250004999999987,
          "durationTicks": 180,
          "midi": 45,
          "name": "A2",
          "ticks": 23880,
          "time": 82.91673300000001,
          "velocity": 0.44881889763779526
        },
        {
          "duration": 0.6250004999999987,
          "durationTicks": 180,
          "midi": 50,
          "name": "D3",
          "ticks": 24060,
          "time": 83.5417335,
          "velocity": 0.44881889763779526
        },
        {
          "duration": 0.6250004999999987,
          "durationTicks": 180,
          "midi": 47,
          "name": "B2",
          "ticks": 24060,
          "time": 83.5417335,
          "velocity": 0.44881889763779526
        },
        {
          "duration": 0.6250004999999987,
          "durationTicks": 180,
          "midi": 48,
          "name": "C3",
          "ticks": 24240,
          "time": 84.166734,
          "velocity": 0.44881889763779526
        },
        {
          "duration": 0.6250004999999987,
          "durationTicks": 180,
          "midi": 43,
          "name": "G2",
          "ticks": 24240,
          "time": 84.166734,
          "velocity": 0.44881889763779526
        },
        {
          "duration": 0.6250004999999987,
          "durationTicks": 180,
          "midi": 48,
          "name": "C3",
          "ticks": 24420,
          "time": 84.7917345,
          "velocity": 0.44881889763779526
        },
        {
          "duration": 0.6250004999999987,
          "durationTicks": 180,
          "midi": 45,
          "name": "A2",
          "ticks": 24420,
          "time": 84.7917345,
          "velocity": 0.44881889763779526
        },
        {
          "duration": 1.2500009999999975,
          "durationTicks": 360,
          "midi": 51,
          "name": "D#3",
          "ticks": 24600,
          "time": 85.416735,
          "velocity": 0.44881889763779526
        },
        {
          "duration": 1.2500009999999975,
          "durationTicks": 360,
          "midi": 47,
          "name": "B2",
          "ticks": 24600,
          "time": 85.416735,
          "velocity": 0.44881889763779526
        },
        {
          "duration": 0.6250004999999987,
          "durationTicks": 180,
          "midi": 52,
          "name": "E3",
          "ticks": 24960,
          "time": 86.666736,
          "velocity": 0.44881889763779526
        },
        {
          "duration": 0.6250004999999987,
          "durationTicks": 180,
          "midi": 47,
          "name": "B2",
          "ticks": 24960,
          "time": 86.666736,
          "velocity": 0.44881889763779526
        },
        {
          "duration": 0.6250004999999987,
          "durationTicks": 180,
          "midi": 52,
          "name": "E3",
          "ticks": 25140,
          "time": 87.2917365,
          "velocity": 0.44881889763779526
        },
        {
          "duration": 0.6250004999999987,
          "durationTicks": 180,
          "midi": 48,
          "name": "C3",
          "ticks": 25140,
          "time": 87.2917365,
          "velocity": 0.44881889763779526
        },
        {
          "duration": 0.6250004999999987,
          "durationTicks": 180,
          "midi": 50,
          "name": "D3",
          "ticks": 25320,
          "time": 87.916737,
          "velocity": 0.44881889763779526
        },
        {
          "duration": 0.6250004999999987,
          "durationTicks": 180,
          "midi": 45,
          "name": "A2",
          "ticks": 25320,
          "time": 87.916737,
          "velocity": 0.44881889763779526
        },
        {
          "duration": 0.6250004999999987,
          "durationTicks": 180,
          "midi": 50,
          "name": "D3",
          "ticks": 25500,
          "time": 88.5417375,
          "velocity": 0.44881889763779526
        },
        {
          "duration": 0.6250004999999987,
          "durationTicks": 180,
          "midi": 47,
          "name": "B2",
          "ticks": 25500,
          "time": 88.5417375,
          "velocity": 0.44881889763779526
        },
        {
          "duration": 0.625000500000013,
          "durationTicks": 180,
          "midi": 48,
          "name": "C3",
          "ticks": 25680,
          "time": 89.166738,
          "velocity": 0.44881889763779526
        },
        {
          "duration": 0.625000500000013,
          "durationTicks": 180,
          "midi": 43,
          "name": "G2",
          "ticks": 25680,
          "time": 89.166738,
          "velocity": 0.44881889763779526
        },
        {
          "duration": 0.6250004999999987,
          "durationTicks": 180,
          "midi": 49,
          "name": "C#3",
          "ticks": 25860,
          "time": 89.79173850000001,
          "velocity": 0.44881889763779526
        },
        {
          "duration": 0.6250004999999987,
          "durationTicks": 180,
          "midi": 46,
          "name": "A#2",
          "ticks": 25860,
          "time": 89.79173850000001,
          "velocity": 0.44881889763779526
        },
        {
          "duration": 1.2500009999999975,
          "durationTicks": 360,
          "midi": 51,
          "name": "D#3",
          "ticks": 26040,
          "time": 90.416739,
          "velocity": 0.44881889763779526
        },
        {
          "duration": 1.2500009999999975,
          "durationTicks": 360,
          "midi": 47,
          "name": "B2",
          "ticks": 26040,
          "time": 90.416739,
          "velocity": 0.44881889763779526
        }
      ],
      "endOfTrackTicks": 26400
    },
    {
      "channel": 2,
      "controlChanges": {
        "7": [
          {
            "number": 7,
            "ticks": 0,
            "time": 0,
            "value": 1
          }
        ],
        "10": [
          {
            "number": 10,
            "ticks": 0,
            "time": 0,
            "value": 0.6456692913385826
          }
        ]
      },
      "pitchBends": [],
      "instrument": {
        "family": "piano",
        "number": 1,
        "name": "bright acoustic piano"
      },
      "name": "Touhou 6: Enbodiment of Scarlet Devil - Shanghai Alice of Meiji 17 ",
      "notes": [
        {
          "duration": 0.10416675,
          "durationTicks": 30,
          "midi": 67,
          "name": "G4",
          "ticks": 0,
          "time": 0,
          "velocity": 0.5354330708661418
        },
        {
          "duration": 0.10416675,
          "durationTicks": 30,
          "midi": 70,
          "name": "A#4",
          "ticks": 30,
          "time": 0.10416675,
          "velocity": 0.5354330708661418
        },
        {
          "duration": 0.10416675000000003,
          "durationTicks": 30,
          "midi": 74,
          "name": "D5",
          "ticks": 60,
          "time": 0.2083335,
          "velocity": 0.5354330708661418
        },
        {
          "duration": 0.10416674999999997,
          "durationTicks": 30,
          "midi": 79,
          "name": "G5",
          "ticks": 90,
          "time": 0.31250025000000003,
          "velocity": 0.5354330708661418
        },
        {
          "duration": 0.10416674999999997,
          "durationTicks": 30,
          "midi": 82,
          "name": "A#5",
          "ticks": 120,
          "time": 0.416667,
          "velocity": 0.5354330708661418
        },
        {
          "duration": 0.10416675000000009,
          "durationTicks": 30,
          "midi": 86,
          "name": "D6",
          "ticks": 150,
          "time": 0.52083375,
          "velocity": 0.5354330708661418
        },
        {
          "duration": 0.10416674999999997,
          "durationTicks": 30,
          "midi": 67,
          "name": "G4",
          "ticks": 180,
          "time": 0.6250005000000001,
          "velocity": 0.5354330708661418
        },
        {
          "duration": 0.10416674999999997,
          "durationTicks": 30,
          "midi": 70,
          "name": "A#4",
          "ticks": 210,
          "time": 0.72916725,
          "velocity": 0.5354330708661418
        },
        {
          "duration": 0.10416674999999997,
          "durationTicks": 30,
          "midi": 75,
          "name": "D#5",
          "ticks": 240,
          "time": 0.833334,
          "velocity": 0.5354330708661418
        },
        {
          "duration": 0.10416674999999997,
          "durationTicks": 30,
          "midi": 79,
          "name": "G5",
          "ticks": 270,
          "time": 0.93750075,
          "velocity": 0.5354330708661418
        },
        {
          "duration": 0.10416675000000009,
          "durationTicks": 30,
          "midi": 82,
          "name": "A#5",
          "ticks": 300,
          "time": 1.0416675,
          "velocity": 0.5354330708661418
        },
        {
          "duration": 0.10416675000000009,
          "durationTicks": 30,
          "midi": 87,
          "name": "D#6",
          "ticks": 330,
          "time": 1.14583425,
          "velocity": 0.5354330708661418
        },
        {
          "duration": 0.10416674999999986,
          "durationTicks": 30,
          "midi": 65,
          "name": "F4",
          "ticks": 360,
          "time": 1.2500010000000001,
          "velocity": 0.5354330708661418
        },
        {
          "duration": 0.10416675000000009,
          "durationTicks": 30,
          "midi": 69,
          "name": "A4",
          "ticks": 390,
          "time": 1.35416775,
          "velocity": 0.5354330708661418
        },
        {
          "duration": 0.10416674999999986,
          "durationTicks": 30,
          "midi": 72,
          "name": "C5",
          "ticks": 420,
          "time": 1.4583345,
          "velocity": 0.5354330708661418
        },
        {
          "duration": 0.10416675000000009,
          "durationTicks": 30,
          "midi": 77,
          "name": "F5",
          "ticks": 450,
          "time": 1.56250125,
          "velocity": 0.5354330708661418
        },
        {
          "duration": 0.10416675000000009,
          "durationTicks": 30,
          "midi": 81,
          "name": "A5",
          "ticks": 480,
          "time": 1.666668,
          "velocity": 0.5354330708661418
        },
        {
          "duration": 0.10416674999999986,
          "durationTicks": 30,
          "midi": 84,
          "name": "C6",
          "ticks": 510,
          "time": 1.7708347500000001,
          "velocity": 0.5354330708661418
        },
        {
          "duration": 0.10416675000000009,
          "durationTicks": 30,
          "midi": 65,
          "name": "F4",
          "ticks": 540,
          "time": 1.8750015,
          "velocity": 0.5354330708661418
        },
        {
          "duration": 0.10416674999999986,
          "durationTicks": 30,
          "midi": 69,
          "name": "A4",
          "ticks": 570,
          "time": 1.97916825,
          "velocity": 0.5354330708661418
        },
        {
          "duration": 0.10416675000000009,
          "durationTicks": 30,
          "midi": 74,
          "name": "D5",
          "ticks": 600,
          "time": 2.083335,
          "velocity": 0.5354330708661418
        },
        {
          "duration": 0.10416675000000009,
          "durationTicks": 30,
          "midi": 77,
          "name": "F5",
          "ticks": 630,
          "time": 2.18750175,
          "velocity": 0.5354330708661418
        },
        {
          "duration": 0.10416675000000009,
          "durationTicks": 30,
          "midi": 81,
          "name": "A5",
          "ticks": 660,
          "time": 2.2916685,
          "velocity": 0.5354330708661418
        },
        {
          "duration": 0.10416675000000009,
          "durationTicks": 30,
          "midi": 86,
          "name": "D6",
          "ticks": 690,
          "time": 2.39583525,
          "velocity": 0.5354330708661418
        },
        {
          "duration": 0.10416674999999964,
          "durationTicks": 30,
          "midi": 63,
          "name": "D#4",
          "ticks": 720,
          "time": 2.5000020000000003,
          "velocity": 0.5354330708661418
        },
        {
          "duration": 0.10416675000000009,
          "durationTicks": 30,
          "midi": 67,
          "name": "G4",
          "ticks": 750,
          "time": 2.60416875,
          "velocity": 0.5354330708661418
        },
        {
          "duration": 0.10416675000000009,
          "durationTicks": 30,
          "midi": 70,
          "name": "A#4",
          "ticks": 780,
          "time": 2.7083355,
          "velocity": 0.5354330708661418
        },
        {
          "duration": 0.10416675000000009,
          "durationTicks": 30,
          "midi": 75,
          "name": "D#5",
          "ticks": 810,
          "time": 2.81250225,
          "velocity": 0.5354330708661418
        },
        {
          "duration": 0.10416675000000009,
          "durationTicks": 30,
          "midi": 79,
          "name": "G5",
          "ticks": 840,
          "time": 2.916669,
          "velocity": 0.5354330708661418
        },
        {
          "duration": 0.10416674999999964,
          "durationTicks": 30,
          "midi": 82,
          "name": "A#5",
          "ticks": 870,
          "time": 3.0208357500000003,
          "velocity": 0.5354330708661418
        },
        {
          "duration": 0.10416675000000009,
          "durationTicks": 30,
          "midi": 63,
          "name": "D#4",
          "ticks": 900,
          "time": 3.1250025,
          "velocity": 0.5354330708661418
        },
        {
          "duration": 0.10416675000000009,
          "durationTicks": 30,
          "midi": 67,
          "name": "G4",
          "ticks": 930,
          "time": 3.22916925,
          "velocity": 0.5354330708661418
        },
        {
          "duration": 0.10416675000000009,
          "durationTicks": 30,
          "midi": 72,
          "name": "C5",
          "ticks": 960,
          "time": 3.333336,
          "velocity": 0.5354330708661418
        },
        {
          "duration": 0.10416675000000009,
          "durationTicks": 30,
          "midi": 75,
          "name": "D#5",
          "ticks": 990,
          "time": 3.43750275,
          "velocity": 0.5354330708661418
        },
        {
          "duration": 0.10416674999999964,
          "durationTicks": 30,
          "midi": 79,
          "name": "G5",
          "ticks": 1020,
          "time": 3.5416695000000002,
          "velocity": 0.5354330708661418
        },
        {
          "duration": 0.10416675000000009,
          "durationTicks": 30,
          "midi": 84,
          "name": "C6",
          "ticks": 1050,
          "time": 3.64583625,
          "velocity": 0.5354330708661418
        },
        {
          "duration": 0.10416675000000009,
          "durationTicks": 30,
          "midi": 62,
          "name": "D4",
          "ticks": 1080,
          "time": 3.750003,
          "velocity": 0.5354330708661418
        },
        {
          "duration": 0.10416675000000009,
          "durationTicks": 30,
          "midi": 66,
          "name": "F#4",
          "ticks": 1110,
          "time": 3.85416975,
          "velocity": 0.5354330708661418
        },
        {
          "duration": 0.10416674999999964,
          "durationTicks": 30,
          "midi": 69,
          "name": "A4",
          "ticks": 1140,
          "time": 3.9583365,
          "velocity": 0.5354330708661418
        },
        {
          "duration": 0.10416675000000009,
          "durationTicks": 30,
          "midi": 74,
          "name": "D5",
          "ticks": 1170,
          "time": 4.06250325,
          "velocity": 0.5354330708661418
        },
        {
          "duration": 0.10416675000000009,
          "durationTicks": 30,
          "midi": 78,
          "name": "F#5",
          "ticks": 1200,
          "time": 4.16667,
          "velocity": 0.5354330708661418
        },
        {
          "duration": 0.10416675000000009,
          "durationTicks": 30,
          "midi": 81,
          "name": "A5",
          "ticks": 1230,
          "time": 4.27083675,
          "velocity": 0.5354330708661418
        },
        {
          "duration": 0.10416675000000009,
          "durationTicks": 30,
          "midi": 86,
          "name": "D6",
          "ticks": 1260,
          "time": 4.3750035,
          "velocity": 0.5354330708661418
        },
        {
          "duration": 0.10416675000000009,
          "durationTicks": 30,
          "midi": 81,
          "name": "A5",
          "ticks": 1290,
          "time": 4.47917025,
          "velocity": 0.5354330708661418
        },
        {
          "duration": 0.10416675000000009,
          "durationTicks": 30,
          "midi": 78,
          "name": "F#5",
          "ticks": 1320,
          "time": 4.583337,
          "velocity": 0.5354330708661418
        },
        {
          "duration": 0.10416675000000009,
          "durationTicks": 30,
          "midi": 74,
          "name": "D5",
          "ticks": 1350,
          "time": 4.68750375,
          "velocity": 0.5354330708661418
        },
        {
          "duration": 0.10416675000000009,
          "durationTicks": 30,
          "midi": 69,
          "name": "A4",
          "ticks": 1380,
          "time": 4.7916705,
          "velocity": 0.5354330708661418
        },
        {
          "duration": 0.10416675000000009,
          "durationTicks": 30,
          "midi": 66,
          "name": "F#4",
          "ticks": 1410,
          "time": 4.8958372500000005,
          "velocity": 0.5354330708661418
        },
        {
          "duration": 0.1041667499999992,
          "durationTicks": 30,
          "midi": 67,
          "name": "G4",
          "ticks": 1440,
          "time": 5.000004000000001,
          "velocity": 0.5354330708661418
        },
        {
          "duration": 0.10416675000000009,
          "durationTicks": 30,
          "midi": 70,
          "name": "A#4",
          "ticks": 1470,
          "time": 5.10417075,
          "velocity": 0.5354330708661418
        },
        {
          "duration": 0.10416675000000009,
          "durationTicks": 30,
          "midi": 74,
          "name": "D5",
          "ticks": 1500,
          "time": 5.2083375,
          "velocity": 0.5354330708661418
        },
        {
          "duration": 0.10416675000000009,
          "durationTicks": 30,
          "midi": 79,
          "name": "G5",
          "ticks": 1530,
          "time": 5.31250425,
          "velocity": 0.5354330708661418
        },
        {
          "duration": 0.10416675000000009,
          "durationTicks": 30,
          "midi": 82,
          "name": "A#5",
          "ticks": 1560,
          "time": 5.416671,
          "velocity": 0.5354330708661418
        },
        {
          "duration": 0.10416675000000009,
          "durationTicks": 30,
          "midi": 86,
          "name": "D6",
          "ticks": 1590,
          "time": 5.52083775,
          "velocity": 0.5354330708661418
        },
        {
          "duration": 0.10416675000000009,
          "durationTicks": 30,
          "midi": 67,
          "name": "G4",
          "ticks": 1620,
          "time": 5.6250045,
          "velocity": 0.5354330708661418
        },
        {
          "duration": 0.10416675000000009,
          "durationTicks": 30,
          "midi": 70,
          "name": "A#4",
          "ticks": 1650,
          "time": 5.72917125,
          "velocity": 0.5354330708661418
        },
        {
          "duration": 0.10416675000000009,
          "durationTicks": 30,
          "midi": 75,
          "name": "D#5",
          "ticks": 1680,
          "time": 5.833338,
          "velocity": 0.5354330708661418
        },
        {
          "duration": 0.10416675000000009,
          "durationTicks": 30,
          "midi": 79,
          "name": "G5",
          "ticks": 1710,
          "time": 5.93750475,
          "velocity": 0.5354330708661418
        },
        {
          "duration": 0.1041667499999992,
          "durationTicks": 30,
          "midi": 82,
          "name": "A#5",
          "ticks": 1740,
          "time": 6.0416715000000005,
          "velocity": 0.5354330708661418
        },
        {
          "duration": 0.10416675000000009,
          "durationTicks": 30,
          "midi": 87,
          "name": "D#6",
          "ticks": 1770,
          "time": 6.14583825,
          "velocity": 0.5354330708661418
        },
        {
          "duration": 0.10416675000000009,
          "durationTicks": 30,
          "midi": 65,
          "name": "F4",
          "ticks": 1800,
          "time": 6.250005,
          "velocity": 0.5354330708661418
        },
        {
          "duration": 0.10416675000000009,
          "durationTicks": 30,
          "midi": 69,
          "name": "A4",
          "ticks": 1830,
          "time": 6.35417175,
          "velocity": 0.5354330708661418
        },
        {
          "duration": 0.10416675000000009,
          "durationTicks": 30,
          "midi": 72,
          "name": "C5",
          "ticks": 1860,
          "time": 6.4583385,
          "velocity": 0.5354330708661418
        },
        {
          "duration": 0.10416675000000009,
          "durationTicks": 30,
          "midi": 77,
          "name": "F5",
          "ticks": 1890,
          "time": 6.56250525,
          "velocity": 0.5354330708661418
        },
        {
          "duration": 0.10416675000000009,
          "durationTicks": 30,
          "midi": 81,
          "name": "A5",
          "ticks": 1920,
          "time": 6.666672,
          "velocity": 0.5354330708661418
        },
        {
          "duration": 0.10416675000000009,
          "durationTicks": 30,
          "midi": 84,
          "name": "C6",
          "ticks": 1950,
          "time": 6.77083875,
          "velocity": 0.5354330708661418
        },
        {
          "duration": 0.10416675000000009,
          "durationTicks": 30,
          "midi": 65,
          "name": "F4",
          "ticks": 1980,
          "time": 6.8750055,
          "velocity": 0.5354330708661418
        },
        {
          "duration": 0.10416675000000009,
          "durationTicks": 30,
          "midi": 69,
          "name": "A4",
          "ticks": 2010,
          "time": 6.97917225,
          "velocity": 0.5354330708661418
        },
        {
          "duration": 0.10416675000000009,
          "durationTicks": 30,
          "midi": 74,
          "name": "D5",
          "ticks": 2040,
          "time": 7.0833390000000005,
          "velocity": 0.5354330708661418
        },
        {
          "duration": 0.1041667499999992,
          "durationTicks": 30,
          "midi": 77,
          "name": "F5",
          "ticks": 2070,
          "time": 7.187505750000001,
          "velocity": 0.5354330708661418
        },
        {
          "duration": 0.10416675000000009,
          "durationTicks": 30,
          "midi": 81,
          "name": "A5",
          "ticks": 2100,
          "time": 7.2916725,
          "velocity": 0.5354330708661418
        },
        {
          "duration": 0.10416675000000009,
          "durationTicks": 30,
          "midi": 86,
          "name": "D6",
          "ticks": 2130,
          "time": 7.39583925,
          "velocity": 0.5354330708661418
        },
        {
          "duration": 0.10416675000000009,
          "durationTicks": 30,
          "midi": 63,
          "name": "D#4",
          "ticks": 2160,
          "time": 7.500006,
          "velocity": 0.5354330708661418
        },
        {
          "duration": 0.10416675000000009,
          "durationTicks": 30,
          "midi": 67,
          "name": "G4",
          "ticks": 2190,
          "time": 7.60417275,
          "velocity": 0.5354330708661418
        },
        {
          "duration": 0.10416675000000009,
          "durationTicks": 30,
          "midi": 70,
          "name": "A#4",
          "ticks": 2220,
          "time": 7.7083395,
          "velocity": 0.5354330708661418
        },
        {
          "duration": 0.10416675000000009,
          "durationTicks": 30,
          "midi": 75,
          "name": "D#5",
          "ticks": 2250,
          "time": 7.81250625,
          "velocity": 0.5354330708661418
        },
        {
          "duration": 0.10416675000000009,
          "durationTicks": 30,
          "midi": 79,
          "name": "G5",
          "ticks": 2280,
          "time": 7.916673,
          "velocity": 0.5354330708661418
        },
        {
          "duration": 0.1041667499999992,
          "durationTicks": 30,
          "midi": 82,
          "name": "A#5",
          "ticks": 2310,
          "time": 8.02083975,
          "velocity": 0.5354330708661418
        },
        {
          "duration": 0.10416675000000097,
          "durationTicks": 30,
          "midi": 64,
          "name": "E4",
          "ticks": 2340,
          "time": 8.1250065,
          "velocity": 0.5354330708661418
        },
        {
          "duration": 0.1041667499999992,
          "durationTicks": 30,
          "midi": 69,
          "name": "A4",
          "ticks": 2370,
          "time": 8.22917325,
          "velocity": 0.5354330708661418
        },
        {
          "duration": 0.10416675000000097,
          "durationTicks": 30,
          "midi": 73,
          "name": "C#5",
          "ticks": 2400,
          "time": 8.33334,
          "velocity": 0.5354330708661418
        },
        {
          "duration": 0.1041667499999992,
          "durationTicks": 30,
          "midi": 76,
          "name": "E5",
          "ticks": 2430,
          "time": 8.43750675,
          "velocity": 0.5354330708661418
        },
        {
          "duration": 0.10416675000000097,
          "durationTicks": 30,
          "midi": 81,
          "name": "A5",
          "ticks": 2460,
          "time": 8.5416735,
          "velocity": 0.5354330708661418
        },
        {
          "duration": 0.1041667499999992,
          "durationTicks": 30,
          "midi": 85,
          "name": "C#6",
          "ticks": 2490,
          "time": 8.645840250000001,
          "velocity": 0.5354330708661418
        },
        {
          "duration": 0.10416675000000097,
          "durationTicks": 30,
          "midi": 66,
          "name": "F#4",
          "ticks": 2520,
          "time": 8.750007,
          "velocity": 0.5354330708661418
        },
        {
          "duration": 0.1041667499999992,
          "durationTicks": 30,
          "midi": 69,
          "name": "A4",
          "ticks": 2550,
          "time": 8.854173750000001,
          "velocity": 0.5354330708661418
        },
        {
          "duration": 0.1041667499999992,
          "durationTicks": 30,
          "midi": 74,
          "name": "D5",
          "ticks": 2580,
          "time": 8.9583405,
          "velocity": 0.5354330708661418
        },
        {
          "duration": 0.10416675000000097,
          "durationTicks": 30,
          "midi": 78,
          "name": "F#5",
          "ticks": 2610,
          "time": 9.06250725,
          "velocity": 0.5354330708661418
        },
        {
          "duration": 0.1041667499999992,
          "durationTicks": 30,
          "midi": 81,
          "name": "A5",
          "ticks": 2640,
          "time": 9.166674,
          "velocity": 0.5354330708661418
        },
        {
          "duration": 0.10416675000000097,
          "durationTicks": 30,
          "midi": 86,
          "name": "D6",
          "ticks": 2670,
          "time": 9.27084075,
          "velocity": 0.5354330708661418
        },
        {
          "duration": 0.1041667499999992,
          "durationTicks": 30,
          "midi": 90,
          "name": "F#6",
          "ticks": 2700,
          "time": 9.3750075,
          "velocity": 0.5354330708661418
        },
        {
          "duration": 0.10416675000000097,
          "durationTicks": 30,
          "midi": 86,
          "name": "D6",
          "ticks": 2730,
          "time": 9.47917425,
          "velocity": 0.5354330708661418
        },
        {
          "duration": 0.1041667499999992,
          "durationTicks": 30,
          "midi": 81,
          "name": "A5",
          "ticks": 2760,
          "time": 9.583341,
          "velocity": 0.5354330708661418
        },
        {
          "duration": 0.10416675000000097,
          "durationTicks": 30,
          "midi": 78,
          "name": "F#5",
          "ticks": 2790,
          "time": 9.68750775,
          "velocity": 0.5354330708661418
        },
        {
          "duration": 0.1041667499999992,
          "durationTicks": 30,
          "midi": 74,
          "name": "D5",
          "ticks": 2820,
          "time": 9.791674500000001,
          "velocity": 0.5354330708661418
        },
        {
          "duration": 0.10416675000000097,
          "durationTicks": 30,
          "midi": 69,
          "name": "A4",
          "ticks": 2850,
          "time": 9.89584125,
          "velocity": 0.5354330708661418
        },
        {
          "duration": 0.1041667499999992,
          "durationTicks": 30,
          "midi": 67,
          "name": "G4",
          "ticks": 2880,
          "time": 10.000008000000001,
          "velocity": 0.5354330708661418
        },
        {
          "duration": 0.1041667499999992,
          "durationTicks": 30,
          "midi": 70,
          "name": "A#4",
          "ticks": 2910,
          "time": 10.10417475,
          "velocity": 0.5354330708661418
        },
        {
          "duration": 0.10416675000000097,
          "durationTicks": 30,
          "midi": 74,
          "name": "D5",
          "ticks": 2940,
          "time": 10.2083415,
          "velocity": 0.5354330708661418
        },
        {
          "duration": 0.1041667499999992,
          "durationTicks": 30,
          "midi": 79,
          "name": "G5",
          "ticks": 2970,
          "time": 10.31250825,
          "velocity": 0.5354330708661418
        },
        {
          "duration": 0.10416675000000097,
          "durationTicks": 30,
          "midi": 82,
          "name": "A#5",
          "ticks": 3000,
          "time": 10.416675,
          "velocity": 0.5354330708661418
        },
        {
          "duration": 0.1041667499999992,
          "durationTicks": 30,
          "midi": 86,
          "name": "D6",
          "ticks": 3030,
          "time": 10.52084175,
          "velocity": 0.5354330708661418
        },
        {
          "duration": 0.10416675000000097,
          "durationTicks": 30,
          "midi": 67,
          "name": "G4",
          "ticks": 3060,
          "time": 10.6250085,
          "velocity": 0.5354330708661418
        },
        {
          "duration": 0.1041667499999992,
          "durationTicks": 30,
          "midi": 70,
          "name": "A#4",
          "ticks": 3090,
          "time": 10.72917525,
          "velocity": 0.5354330708661418
        },
        {
          "duration": 0.10416675000000097,
          "durationTicks": 30,
          "midi": 75,
          "name": "D#5",
          "ticks": 3120,
          "time": 10.833342,
          "velocity": 0.5354330708661418
        },
        {
          "duration": 0.1041667499999992,
          "durationTicks": 30,
          "midi": 79,
          "name": "G5",
          "ticks": 3150,
          "time": 10.937508750000001,
          "velocity": 0.5354330708661418
        },
        {
          "duration": 0.1041667499999992,
          "durationTicks": 30,
          "midi": 82,
          "name": "A#5",
          "ticks": 3180,
          "time": 11.0416755,
          "velocity": 0.5354330708661418
        },
        {
          "duration": 0.10416675000000097,
          "durationTicks": 30,
          "midi": 87,
          "name": "D#6",
          "ticks": 3210,
          "time": 11.14584225,
          "velocity": 0.5354330708661418
        },
        {
          "duration": 0.1041667499999992,
          "durationTicks": 30,
          "midi": 65,
          "name": "F4",
          "ticks": 3240,
          "time": 11.250009,
          "velocity": 0.5354330708661418
        },
        {
          "duration": 0.10416675000000097,
          "durationTicks": 30,
          "midi": 69,
          "name": "A4",
          "ticks": 3270,
          "time": 11.35417575,
          "velocity": 0.5354330708661418
        },
        {
          "duration": 0.1041667499999992,
          "durationTicks": 30,
          "midi": 72,
          "name": "C5",
          "ticks": 3300,
          "time": 11.4583425,
          "velocity": 0.5354330708661418
        },
        {
          "duration": 0.10416675000000097,
          "durationTicks": 30,
          "midi": 77,
          "name": "F5",
          "ticks": 3330,
          "time": 11.56250925,
          "velocity": 0.5354330708661418
        },
        {
          "duration": 0.1041667499999992,
          "durationTicks": 30,
          "midi": 81,
          "name": "A5",
          "ticks": 3360,
          "time": 11.666676,
          "velocity": 0.5354330708661418
        },
        {
          "duration": 0.10416675000000097,
          "durationTicks": 30,
          "midi": 84,
          "name": "C6",
          "ticks": 3390,
          "time": 11.77084275,
          "velocity": 0.5354330708661418
        },
        {
          "duration": 0.1041667499999992,
          "durationTicks": 30,
          "midi": 65,
          "name": "F4",
          "ticks": 3420,
          "time": 11.8750095,
          "velocity": 0.5354330708661418
        },
        {
          "duration": 0.10416675000000097,
          "durationTicks": 30,
          "midi": 69,
          "name": "A4",
          "ticks": 3450,
          "time": 11.97917625,
          "velocity": 0.5354330708661418
        },
        {
          "duration": 0.1041667499999992,
          "durationTicks": 30,
          "midi": 74,
          "name": "D5",
          "ticks": 3480,
          "time": 12.083343000000001,
          "velocity": 0.5354330708661418
        },
        {
          "duration": 0.1041667499999992,
          "durationTicks": 30,
          "midi": 77,
          "name": "F5",
          "ticks": 3510,
          "time": 12.18750975,
          "velocity": 0.5354330708661418
        },
        {
          "duration": 0.10416675000000097,
          "durationTicks": 30,
          "midi": 81,
          "name": "A5",
          "ticks": 3540,
          "time": 12.2916765,
          "velocity": 0.5354330708661418
        },
        {
          "duration": 0.1041667499999992,
          "durationTicks": 30,
          "midi": 86,
          "name": "D6",
          "ticks": 3570,
          "time": 12.39584325,
          "velocity": 0.5354330708661418
        },
        {
          "duration": 0.10416675000000097,
          "durationTicks": 30,
          "midi": 63,
          "name": "D#4",
          "ticks": 3600,
          "time": 12.50001,
          "velocity": 0.5354330708661418
        },
        {
          "duration": 0.1041667499999992,
          "durationTicks": 30,
          "midi": 67,
          "name": "G4",
          "ticks": 3630,
          "time": 12.60417675,
          "velocity": 0.5354330708661418
        },
        {
          "duration": 0.10416675000000097,
          "durationTicks": 30,
          "midi": 70,
          "name": "A#4",
          "ticks": 3660,
          "time": 12.7083435,
          "velocity": 0.5354330708661418
        },
        {
          "duration": 0.1041667499999992,
          "durationTicks": 30,
          "midi": 75,
          "name": "D#5",
          "ticks": 3690,
          "time": 12.81251025,
          "velocity": 0.5354330708661418
        },
        {
          "duration": 0.10416675000000097,
          "durationTicks": 30,
          "midi": 79,
          "name": "G5",
          "ticks": 3720,
          "time": 12.916677,
          "velocity": 0.5354330708661418
        },
        {
          "duration": 0.1041667499999992,
          "durationTicks": 30,
          "midi": 82,
          "name": "A#5",
          "ticks": 3750,
          "time": 13.020843750000001,
          "velocity": 0.5354330708661418
        },
        {
          "duration": 0.10416675000000097,
          "durationTicks": 30,
          "midi": 64,
          "name": "E4",
          "ticks": 3780,
          "time": 13.1250105,
          "velocity": 0.5354330708661418
        },
        {
          "duration": 0.1041667499999992,
          "durationTicks": 30,
          "midi": 69,
          "name": "A4",
          "ticks": 3810,
          "time": 13.229177250000001,
          "velocity": 0.5354330708661418
        },
        {
          "duration": 0.1041667499999992,
          "durationTicks": 30,
          "midi": 73,
          "name": "C#5",
          "ticks": 3840,
          "time": 13.333344,
          "velocity": 0.5354330708661418
        },
        {
          "duration": 0.10416675000000097,
          "durationTicks": 30,
          "midi": 76,
          "name": "E5",
          "ticks": 3870,
          "time": 13.43751075,
          "velocity": 0.5354330708661418
        },
        {
          "duration": 0.1041667499999992,
          "durationTicks": 30,
          "midi": 79,
          "name": "G5",
          "ticks": 3900,
          "time": 13.5416775,
          "velocity": 0.5354330708661418
        },
        {
          "duration": 0.10416675000000097,
          "durationTicks": 30,
          "midi": 85,
          "name": "C#6",
          "ticks": 3930,
          "time": 13.64584425,
          "velocity": 0.5354330708661418
        },
        {
          "duration": 0.1041667499999992,
          "durationTicks": 30,
          "midi": 66,
          "name": "F#4",
          "ticks": 3960,
          "time": 13.750011,
          "velocity": 0.5354330708661418
        },
        {
          "duration": 0.10416675000000097,
          "durationTicks": 30,
          "midi": 69,
          "name": "A4",
          "ticks": 3990,
          "time": 13.85417775,
          "velocity": 0.5354330708661418
        },
        {
          "duration": 0.1041667499999992,
          "durationTicks": 30,
          "midi": 74,
          "name": "D5",
          "ticks": 4020,
          "time": 13.9583445,
          "velocity": 0.5354330708661418
        },
        {
          "duration": 0.10416675000000097,
          "durationTicks": 30,
          "midi": 78,
          "name": "F#5",
          "ticks": 4050,
          "time": 14.06251125,
          "velocity": 0.5354330708661418
        },
        {
          "duration": 0.1041667499999992,
          "durationTicks": 30,
          "midi": 81,
          "name": "A5",
          "ticks": 4080,
          "time": 14.166678000000001,
          "velocity": 0.5354330708661418
        },
        {
          "duration": 0.10416675000000097,
          "durationTicks": 30,
          "midi": 86,
          "name": "D6",
          "ticks": 4110,
          "time": 14.27084475,
          "velocity": 0.5354330708661418
        },
        {
          "duration": 0.1041667499999992,
          "durationTicks": 30,
          "midi": 90,
          "name": "F#6",
          "ticks": 4140,
          "time": 14.375011500000001,
          "velocity": 0.5354330708661418
        },
        {
          "duration": 0.1041667499999992,
          "durationTicks": 30,
          "midi": 86,
          "name": "D6",
          "ticks": 4170,
          "time": 14.47917825,
          "velocity": 0.5354330708661418
        },
        {
          "duration": 0.10416675000000097,
          "durationTicks": 30,
          "midi": 81,
          "name": "A5",
          "ticks": 4200,
          "time": 14.583345,
          "velocity": 0.5354330708661418
        },
        {
          "duration": 0.1041667499999992,
          "durationTicks": 30,
          "midi": 78,
          "name": "F#5",
          "ticks": 4230,
          "time": 14.68751175,
          "velocity": 0.5354330708661418
        },
        {
          "duration": 0.10416675000000097,
          "durationTicks": 30,
          "midi": 74,
          "name": "D5",
          "ticks": 4260,
          "time": 14.7916785,
          "velocity": 0.5354330708661418
        },
        {
          "duration": 0.1041667499999992,
          "durationTicks": 30,
          "midi": 69,
          "name": "A4",
          "ticks": 4290,
          "time": 14.89584525,
          "velocity": 0.5354330708661418
        },
        {
          "duration": 0.10416675000000097,
          "durationTicks": 30,
          "midi": 67,
          "name": "G4",
          "ticks": 4320,
          "time": 15.000012,
          "velocity": 0.5354330708661418
        },
        {
          "duration": 0.1041667499999992,
          "durationTicks": 30,
          "midi": 70,
          "name": "A#4",
          "ticks": 4350,
          "time": 15.10417875,
          "velocity": 0.5354330708661418
        },
        {
          "duration": 0.10416675000000097,
          "durationTicks": 30,
          "midi": 74,
          "name": "D5",
          "ticks": 4380,
          "time": 15.2083455,
          "velocity": 0.5354330708661418
        },
        {
          "duration": 0.1041667499999992,
          "durationTicks": 30,
          "midi": 79,
          "name": "G5",
          "ticks": 4410,
          "time": 15.312512250000001,
          "velocity": 0.5354330708661418
        },
        {
          "duration": 0.10416675000000097,
          "durationTicks": 30,
          "midi": 82,
          "name": "A#5",
          "ticks": 4440,
          "time": 15.416679,
          "velocity": 0.5354330708661418
        },
        {
          "duration": 0.1041667499999992,
          "durationTicks": 30,
          "midi": 86,
          "name": "D6",
          "ticks": 4470,
          "time": 15.520845750000001,
          "velocity": 0.5354330708661418
        },
        {
          "duration": 0.1041667499999992,
          "durationTicks": 30,
          "midi": 67,
          "name": "G4",
          "ticks": 4500,
          "time": 15.6250125,
          "velocity": 0.5354330708661418
        },
        {
          "duration": 0.10416675000000097,
          "durationTicks": 30,
          "midi": 70,
          "name": "A#4",
          "ticks": 4530,
          "time": 15.72917925,
          "velocity": 0.5354330708661418
        },
        {
          "duration": 0.1041667499999992,
          "durationTicks": 30,
          "midi": 75,
          "name": "D#5",
          "ticks": 4560,
          "time": 15.833346,
          "velocity": 0.5354330708661418
        },
        {
          "duration": 0.10416675000000097,
          "durationTicks": 30,
          "midi": 79,
          "name": "G5",
          "ticks": 4590,
          "time": 15.93751275,
          "velocity": 0.5354330708661418
        },
        {
          "duration": 0.10416675000000097,
          "durationTicks": 30,
          "midi": 82,
          "name": "A#5",
          "ticks": 4620,
          "time": 16.0416795,
          "velocity": 0.5354330708661418
        },
        {
          "duration": 0.10416674999999742,
          "durationTicks": 30,
          "midi": 87,
          "name": "D#6",
          "ticks": 4650,
          "time": 16.14584625,
          "velocity": 0.5354330708661418
        },
        {
          "duration": 0.10416675000000097,
          "durationTicks": 30,
          "midi": 65,
          "name": "F4",
          "ticks": 4680,
          "time": 16.250013,
          "velocity": 0.5354330708661418
        },
        {
          "duration": 0.10416675000000097,
          "durationTicks": 30,
          "midi": 69,
          "name": "A4",
          "ticks": 4710,
          "time": 16.35417975,
          "velocity": 0.5354330708661418
        },
        {
          "duration": 0.10416675000000097,
          "durationTicks": 30,
          "midi": 72,
          "name": "C5",
          "ticks": 4740,
          "time": 16.4583465,
          "velocity": 0.5354330708661418
        },
        {
          "duration": 0.10416674999999742,
          "durationTicks": 30,
          "midi": 77,
          "name": "F5",
          "ticks": 4770,
          "time": 16.562513250000002,
          "velocity": 0.5354330708661418
        },
        {
          "duration": 0.10416675000000097,
          "durationTicks": 30,
          "midi": 81,
          "name": "A5",
          "ticks": 4800,
          "time": 16.66668,
          "velocity": 0.5354330708661418
        },
        {
          "duration": 0.10416675000000097,
          "durationTicks": 30,
          "midi": 84,
          "name": "C6",
          "ticks": 4830,
          "time": 16.77084675,
          "velocity": 0.5354330708661418
        },
        {
          "duration": 0.10416674999999742,
          "durationTicks": 30,
          "midi": 65,
          "name": "F4",
          "ticks": 4860,
          "time": 16.8750135,
          "velocity": 0.5354330708661418
        },
        {
          "duration": 0.10416675000000097,
          "durationTicks": 30,
          "midi": 69,
          "name": "A4",
          "ticks": 4890,
          "time": 16.97918025,
          "velocity": 0.5354330708661418
        },
        {
          "duration": 0.10416675000000097,
          "durationTicks": 30,
          "midi": 74,
          "name": "D5",
          "ticks": 4920,
          "time": 17.083347,
          "velocity": 0.5354330708661418
        },
        {
          "duration": 0.10416675000000097,
          "durationTicks": 30,
          "midi": 77,
          "name": "F5",
          "ticks": 4950,
          "time": 17.18751375,
          "velocity": 0.5354330708661418
        },
        {
          "duration": 0.10416674999999742,
          "durationTicks": 30,
          "midi": 81,
          "name": "A5",
          "ticks": 4980,
          "time": 17.291680500000002,
          "velocity": 0.5354330708661418
        },
        {
          "duration": 0.10416675000000097,
          "durationTicks": 30,
          "midi": 86,
          "name": "D6",
          "ticks": 5010,
          "time": 17.39584725,
          "velocity": 0.5354330708661418
        },
        {
          "duration": 0.10416675000000097,
          "durationTicks": 30,
          "midi": 63,
          "name": "D#4",
          "ticks": 5040,
          "time": 17.500014,
          "velocity": 0.5354330708661418
        },
        {
          "duration": 0.10416675000000097,
          "durationTicks": 30,
          "midi": 67,
          "name": "G4",
          "ticks": 5070,
          "time": 17.60418075,
          "velocity": 0.5354330708661418
        },
        {
          "duration": 0.10416674999999742,
          "durationTicks": 30,
          "midi": 70,
          "name": "A#4",
          "ticks": 5100,
          "time": 17.708347500000002,
          "velocity": 0.5354330708661418
        },
        {
          "duration": 0.10416675000000097,
          "durationTicks": 30,
          "midi": 75,
          "name": "D#5",
          "ticks": 5130,
          "time": 17.81251425,
          "velocity": 0.5354330708661418
        },
        {
          "duration": 0.10416675000000097,
          "durationTicks": 30,
          "midi": 79,
          "name": "G5",
          "ticks": 5160,
          "time": 17.916681,
          "velocity": 0.5354330708661418
        },
        {
          "duration": 0.10416674999999742,
          "durationTicks": 30,
          "midi": 82,
          "name": "A#5",
          "ticks": 5190,
          "time": 18.02084775,
          "velocity": 0.5354330708661418
        },
        {
          "duration": 0.10416675000000097,
          "durationTicks": 30,
          "midi": 64,
          "name": "E4",
          "ticks": 5220,
          "time": 18.1250145,
          "velocity": 0.5354330708661418
        },
        {
          "duration": 0.10416675000000097,
          "durationTicks": 30,
          "midi": 69,
          "name": "A4",
          "ticks": 5250,
          "time": 18.22918125,
          "velocity": 0.5354330708661418
        },
        {
          "duration": 0.10416675000000097,
          "durationTicks": 30,
          "midi": 73,
          "name": "C#5",
          "ticks": 5280,
          "time": 18.333348,
          "velocity": 0.5354330708661418
        },
        {
          "duration": 0.10416674999999742,
          "durationTicks": 30,
          "midi": 76,
          "name": "E5",
          "ticks": 5310,
          "time": 18.437514750000002,
          "velocity": 0.5354330708661418
        },
        {
          "duration": 0.10416675000000097,
          "durationTicks": 30,
          "midi": 81,
          "name": "A5",
          "ticks": 5340,
          "time": 18.5416815,
          "velocity": 0.5354330708661418
        },
        {
          "duration": 0.10416675000000097,
          "durationTicks": 30,
          "midi": 85,
          "name": "C#6",
          "ticks": 5370,
          "time": 18.64584825,
          "velocity": 0.5354330708661418
        },
        {
          "duration": 0.10416675000000097,
          "durationTicks": 30,
          "midi": 66,
          "name": "F#4",
          "ticks": 5400,
          "time": 18.750015,
          "velocity": 0.5354330708661418
        },
        {
          "duration": 0.10416674999999742,
          "durationTicks": 30,
          "midi": 69,
          "name": "A4",
          "ticks": 5430,
          "time": 18.854181750000002,
          "velocity": 0.5354330708661418
        },
        {
          "duration": 0.10416675000000097,
          "durationTicks": 30,
          "midi": 74,
          "name": "D5",
          "ticks": 5460,
          "time": 18.9583485,
          "velocity": 0.5354330708661418
        },
        {
          "duration": 0.10416675000000097,
          "durationTicks": 30,
          "midi": 78,
          "name": "F#5",
          "ticks": 5490,
          "time": 19.06251525,
          "velocity": 0.5354330708661418
        },
        {
          "duration": 0.10416674999999742,
          "durationTicks": 30,
          "midi": 81,
          "name": "A5",
          "ticks": 5520,
          "time": 19.166682,
          "velocity": 0.5354330708661418
        },
        {
          "duration": 0.10416675000000097,
          "durationTicks": 30,
          "midi": 86,
          "name": "D6",
          "ticks": 5550,
          "time": 19.27084875,
          "velocity": 0.5354330708661418
        },
        {
          "duration": 0.10416675000000097,
          "durationTicks": 30,
          "midi": 90,
          "name": "F#6",
          "ticks": 5580,
          "time": 19.3750155,
          "velocity": 0.5354330708661418
        },
        {
          "duration": 0.10416675000000097,
          "durationTicks": 30,
          "midi": 86,
          "name": "D6",
          "ticks": 5610,
          "time": 19.47918225,
          "velocity": 0.5354330708661418
        },
        {
          "duration": 0.10416674999999742,
          "durationTicks": 30,
          "midi": 81,
          "name": "A5",
          "ticks": 5640,
          "time": 19.583349000000002,
          "velocity": 0.5354330708661418
        },
        {
          "duration": 0.10416675000000097,
          "durationTicks": 30,
          "midi": 78,
          "name": "F#5",
          "ticks": 5670,
          "time": 19.68751575,
          "velocity": 0.5354330708661418
        },
        {
          "duration": 0.10416675000000097,
          "durationTicks": 30,
          "midi": 74,
          "name": "D5",
          "ticks": 5700,
          "time": 19.7916825,
          "velocity": 0.5354330708661418
        },
        {
          "duration": 0.10416675000000097,
          "durationTicks": 30,
          "midi": 69,
          "name": "A4",
          "ticks": 5730,
          "time": 19.89584925,
          "velocity": 0.5354330708661418
        },
        {
          "duration": 0.10416674999999742,
          "durationTicks": 30,
          "midi": 67,
          "name": "G4",
          "ticks": 5760,
          "time": 20.000016000000002,
          "velocity": 0.5354330708661418
        },
        {
          "duration": 0.10416675000000097,
          "durationTicks": 30,
          "midi": 70,
          "name": "A#4",
          "ticks": 5790,
          "time": 20.10418275,
          "velocity": 0.5354330708661418
        },
        {
          "duration": 0.10416675000000097,
          "durationTicks": 30,
          "midi": 74,
          "name": "D5",
          "ticks": 5820,
          "time": 20.2083495,
          "velocity": 0.5354330708661418
        },
        {
          "duration": 0.10416674999999742,
          "durationTicks": 30,
          "midi": 79,
          "name": "G5",
          "ticks": 5850,
          "time": 20.31251625,
          "velocity": 0.5354330708661418
        },
        {
          "duration": 0.10416675000000097,
          "durationTicks": 30,
          "midi": 82,
          "name": "A#5",
          "ticks": 5880,
          "time": 20.416683,
          "velocity": 0.5354330708661418
        },
        {
          "duration": 0.10416675000000097,
          "durationTicks": 30,
          "midi": 86,
          "name": "D6",
          "ticks": 5910,
          "time": 20.52084975,
          "velocity": 0.5354330708661418
        },
        {
          "duration": 0.10416675000000097,
          "durationTicks": 30,
          "midi": 67,
          "name": "G4",
          "ticks": 5940,
          "time": 20.6250165,
          "velocity": 0.5354330708661418
        },
        {
          "duration": 0.10416674999999742,
          "durationTicks": 30,
          "midi": 70,
          "name": "A#4",
          "ticks": 5970,
          "time": 20.729183250000002,
          "velocity": 0.5354330708661418
        },
        {
          "duration": 0.10416675000000097,
          "durationTicks": 30,
          "midi": 75,
          "name": "D#5",
          "ticks": 6000,
          "time": 20.83335,
          "velocity": 0.5354330708661418
        },
        {
          "duration": 0.10416675000000097,
          "durationTicks": 30,
          "midi": 79,
          "name": "G5",
          "ticks": 6030,
          "time": 20.93751675,
          "velocity": 0.5354330708661418
        },
        {
          "duration": 0.10416674999999742,
          "durationTicks": 30,
          "midi": 82,
          "name": "A#5",
          "ticks": 6060,
          "time": 21.0416835,
          "velocity": 0.5354330708661418
        },
        {
          "duration": 0.10416675000000097,
          "durationTicks": 30,
          "midi": 87,
          "name": "D#6",
          "ticks": 6090,
          "time": 21.14585025,
          "velocity": 0.5354330708661418
        },
        {
          "duration": 0.10416675000000097,
          "durationTicks": 30,
          "midi": 65,
          "name": "F4",
          "ticks": 6120,
          "time": 21.250017,
          "velocity": 0.5354330708661418
        },
        {
          "duration": 0.10416675000000097,
          "durationTicks": 30,
          "midi": 69,
          "name": "A4",
          "ticks": 6150,
          "time": 21.35418375,
          "velocity": 0.5354330708661418
        },
        {
          "duration": 0.10416674999999742,
          "durationTicks": 30,
          "midi": 72,
          "name": "C5",
          "ticks": 6180,
          "time": 21.4583505,
          "velocity": 0.5354330708661418
        },
        {
          "duration": 0.10416675000000097,
          "durationTicks": 30,
          "midi": 77,
          "name": "F5",
          "ticks": 6210,
          "time": 21.56251725,
          "velocity": 0.5354330708661418
        },
        {
          "duration": 0.10416675000000097,
          "durationTicks": 30,
          "midi": 81,
          "name": "A5",
          "ticks": 6240,
          "time": 21.666684,
          "velocity": 0.5354330708661418
        },
        {
          "duration": 0.10416675000000097,
          "durationTicks": 30,
          "midi": 84,
          "name": "C6",
          "ticks": 6270,
          "time": 21.77085075,
          "velocity": 0.5354330708661418
        },
        {
          "duration": 0.10416674999999742,
          "durationTicks": 30,
          "midi": 65,
          "name": "F4",
          "ticks": 6300,
          "time": 21.875017500000002,
          "velocity": 0.5354330708661418
        },
        {
          "duration": 0.10416675000000097,
          "durationTicks": 30,
          "midi": 69,
          "name": "A4",
          "ticks": 6330,
          "time": 21.97918425,
          "velocity": 0.5354330708661418
        },
        {
          "duration": 0.10416675000000097,
          "durationTicks": 30,
          "midi": 74,
          "name": "D5",
          "ticks": 6360,
          "time": 22.083351,
          "velocity": 0.5354330708661418
        },
        {
          "duration": 0.10416674999999742,
          "durationTicks": 30,
          "midi": 77,
          "name": "F5",
          "ticks": 6390,
          "time": 22.18751775,
          "velocity": 0.5354330708661418
        },
        {
          "duration": 0.10416675000000097,
          "durationTicks": 30,
          "midi": 81,
          "name": "A5",
          "ticks": 6420,
          "time": 22.2916845,
          "velocity": 0.5354330708661418
        },
        {
          "duration": 0.10416675000000097,
          "durationTicks": 30,
          "midi": 86,
          "name": "D6",
          "ticks": 6450,
          "time": 22.39585125,
          "velocity": 0.5354330708661418
        },
        {
          "duration": 0.10416675000000097,
          "durationTicks": 30,
          "midi": 63,
          "name": "D#4",
          "ticks": 6480,
          "time": 22.500018,
          "velocity": 0.5354330708661418
        },
        {
          "duration": 0.10416674999999742,
          "durationTicks": 30,
          "midi": 67,
          "name": "G4",
          "ticks": 6510,
          "time": 22.60418475,
          "velocity": 0.5354330708661418
        },
        {
          "duration": 0.10416675000000097,
          "durationTicks": 30,
          "midi": 70,
          "name": "A#4",
          "ticks": 6540,
          "time": 22.7083515,
          "velocity": 0.5354330708661418
        },
        {
          "duration": 0.10416675000000097,
          "durationTicks": 30,
          "midi": 75,
          "name": "D#5",
          "ticks": 6570,
          "time": 22.81251825,
          "velocity": 0.5354330708661418
        },
        {
          "duration": 0.10416675000000097,
          "durationTicks": 30,
          "midi": 79,
          "name": "G5",
          "ticks": 6600,
          "time": 22.916685,
          "velocity": 0.5354330708661418
        },
        {
          "duration": 0.10416674999999742,
          "durationTicks": 30,
          "midi": 82,
          "name": "A#5",
          "ticks": 6630,
          "time": 23.020851750000002,
          "velocity": 0.5354330708661418
        },
        {
          "duration": 0.10416675000000097,
          "durationTicks": 30,
          "midi": 64,
          "name": "E4",
          "ticks": 6660,
          "time": 23.1250185,
          "velocity": 0.5354330708661418
        },
        {
          "duration": 0.10416675000000097,
          "durationTicks": 30,
          "midi": 69,
          "name": "A4",
          "ticks": 6690,
          "time": 23.22918525,
          "velocity": 0.5354330708661418
        },
        {
          "duration": 0.10416674999999742,
          "durationTicks": 30,
          "midi": 73,
          "name": "C#5",
          "ticks": 6720,
          "time": 23.333352,
          "velocity": 0.5354330708661418
        },
        {
          "duration": 0.10416675000000097,
          "durationTicks": 30,
          "midi": 76,
          "name": "E5",
          "ticks": 6750,
          "time": 23.43751875,
          "velocity": 0.5354330708661418
        },
        {
          "duration": 0.10416675000000097,
          "durationTicks": 30,
          "midi": 79,
          "name": "G5",
          "ticks": 6780,
          "time": 23.5416855,
          "velocity": 0.5354330708661418
        },
        {
          "duration": 0.10416675000000097,
          "durationTicks": 30,
          "midi": 85,
          "name": "C#6",
          "ticks": 6810,
          "time": 23.64585225,
          "velocity": 0.5354330708661418
        },
        {
          "duration": 0.10416674999999742,
          "durationTicks": 30,
          "midi": 66,
          "name": "F#4",
          "ticks": 6840,
          "time": 23.750019,
          "velocity": 0.5354330708661418
        },
        {
          "duration": 0.10416675000000097,
          "durationTicks": 30,
          "midi": 69,
          "name": "A4",
          "ticks": 6870,
          "time": 23.85418575,
          "velocity": 0.5354330708661418
        },
        {
          "duration": 0.10416675000000097,
          "durationTicks": 30,
          "midi": 74,
          "name": "D5",
          "ticks": 6900,
          "time": 23.9583525,
          "velocity": 0.5354330708661418
        },
        {
          "duration": 0.10416675000000097,
          "durationTicks": 30,
          "midi": 78,
          "name": "F#5",
          "ticks": 6930,
          "time": 24.06251925,
          "velocity": 0.5354330708661418
        },
        {
          "duration": 0.10416674999999742,
          "durationTicks": 30,
          "midi": 81,
          "name": "A5",
          "ticks": 6960,
          "time": 24.166686000000002,
          "velocity": 0.5354330708661418
        },
        {
          "duration": 0.10416675000000097,
          "durationTicks": 30,
          "midi": 86,
          "name": "D6",
          "ticks": 6990,
          "time": 24.27085275,
          "velocity": 0.5354330708661418
        },
        {
          "duration": 0.10416675000000097,
          "durationTicks": 30,
          "midi": 90,
          "name": "F#6",
          "ticks": 7020,
          "time": 24.3750195,
          "velocity": 0.5354330708661418
        },
        {
          "duration": 0.10416674999999742,
          "durationTicks": 30,
          "midi": 86,
          "name": "D6",
          "ticks": 7050,
          "time": 24.47918625,
          "velocity": 0.5354330708661418
        },
        {
          "duration": 0.10416675000000097,
          "durationTicks": 30,
          "midi": 81,
          "name": "A5",
          "ticks": 7080,
          "time": 24.583353,
          "velocity": 0.5354330708661418
        },
        {
          "duration": 0.10416675000000097,
          "durationTicks": 30,
          "midi": 78,
          "name": "F#5",
          "ticks": 7110,
          "time": 24.68751975,
          "velocity": 0.5354330708661418
        },
        {
          "duration": 0.10416675000000097,
          "durationTicks": 30,
          "midi": 74,
          "name": "D5",
          "ticks": 7140,
          "time": 24.7916865,
          "velocity": 0.5354330708661418
        },
        {
          "duration": 0.10416674999999742,
          "durationTicks": 30,
          "midi": 69,
          "name": "A4",
          "ticks": 7170,
          "time": 24.895853250000002,
          "velocity": 0.5354330708661418
        },
        {
          "duration": 0.10416675000000097,
          "durationTicks": 30,
          "midi": 67,
          "name": "G4",
          "ticks": 7200,
          "time": 25.00002,
          "velocity": 0.5354330708661418
        },
        {
          "duration": 0.10416675000000097,
          "durationTicks": 30,
          "midi": 70,
          "name": "A#4",
          "ticks": 7230,
          "time": 25.10418675,
          "velocity": 0.5354330708661418
        },
        {
          "duration": 0.10416675000000097,
          "durationTicks": 30,
          "midi": 74,
          "name": "D5",
          "ticks": 7260,
          "time": 25.2083535,
          "velocity": 0.5354330708661418
        },
        {
          "duration": 0.10416674999999742,
          "durationTicks": 30,
          "midi": 79,
          "name": "G5",
          "ticks": 7290,
          "time": 25.312520250000002,
          "velocity": 0.5354330708661418
        },
        {
          "duration": 0.10416675000000097,
          "durationTicks": 30,
          "midi": 82,
          "name": "A#5",
          "ticks": 7320,
          "time": 25.416687,
          "velocity": 0.5354330708661418
        },
        {
          "duration": 0.10416675000000097,
          "durationTicks": 30,
          "midi": 86,
          "name": "D6",
          "ticks": 7350,
          "time": 25.52085375,
          "velocity": 0.5354330708661418
        },
        {
          "duration": 0.10416674999999742,
          "durationTicks": 30,
          "midi": 67,
          "name": "G4",
          "ticks": 7380,
          "time": 25.6250205,
          "velocity": 0.5354330708661418
        },
        {
          "duration": 0.10416675000000097,
          "durationTicks": 30,
          "midi": 70,
          "name": "A#4",
          "ticks": 7410,
          "time": 25.72918725,
          "velocity": 0.5354330708661418
        },
        {
          "duration": 0.10416675000000097,
          "durationTicks": 30,
          "midi": 75,
          "name": "D#5",
          "ticks": 7440,
          "time": 25.833354,
          "velocity": 0.5354330708661418
        },
        {
          "duration": 0.10416675000000097,
          "durationTicks": 30,
          "midi": 79,
          "name": "G5",
          "ticks": 7470,
          "time": 25.93752075,
          "velocity": 0.5354330708661418
        },
        {
          "duration": 0.10416674999999742,
          "durationTicks": 30,
          "midi": 82,
          "name": "A#5",
          "ticks": 7500,
          "time": 26.041687500000002,
          "velocity": 0.5354330708661418
        },
        {
          "duration": 0.10416675000000097,
          "durationTicks": 30,
          "midi": 87,
          "name": "D#6",
          "ticks": 7530,
          "time": 26.14585425,
          "velocity": 0.5354330708661418
        },
        {
          "duration": 0.10416675000000097,
          "durationTicks": 30,
          "midi": 65,
          "name": "F4",
          "ticks": 7560,
          "time": 26.250021,
          "velocity": 0.5354330708661418
        },
        {
          "duration": 0.10416675000000097,
          "durationTicks": 30,
          "midi": 69,
          "name": "A4",
          "ticks": 7590,
          "time": 26.35418775,
          "velocity": 0.5354330708661418
        },
        {
          "duration": 0.10416674999999742,
          "durationTicks": 30,
          "midi": 72,
          "name": "C5",
          "ticks": 7620,
          "time": 26.458354500000002,
          "velocity": 0.5354330708661418
        },
        {
          "duration": 0.10416675000000097,
          "durationTicks": 30,
          "midi": 77,
          "name": "F5",
          "ticks": 7650,
          "time": 26.56252125,
          "velocity": 0.5354330708661418
        },
        {
          "duration": 0.10416675000000097,
          "durationTicks": 30,
          "midi": 81,
          "name": "A5",
          "ticks": 7680,
          "time": 26.666688,
          "velocity": 0.5354330708661418
        },
        {
          "duration": 0.10416674999999742,
          "durationTicks": 30,
          "midi": 84,
          "name": "C6",
          "ticks": 7710,
          "time": 26.77085475,
          "velocity": 0.5354330708661418
        },
        {
          "duration": 0.10416675000000097,
          "durationTicks": 30,
          "midi": 65,
          "name": "F4",
          "ticks": 7740,
          "time": 26.8750215,
          "velocity": 0.5354330708661418
        },
        {
          "duration": 0.10416675000000097,
          "durationTicks": 30,
          "midi": 69,
          "name": "A4",
          "ticks": 7770,
          "time": 26.97918825,
          "velocity": 0.5354330708661418
        },
        {
          "duration": 0.10416675000000097,
          "durationTicks": 30,
          "midi": 74,
          "name": "D5",
          "ticks": 7800,
          "time": 27.083355,
          "velocity": 0.5354330708661418
        },
        {
          "duration": 0.10416674999999742,
          "durationTicks": 30,
          "midi": 77,
          "name": "F5",
          "ticks": 7830,
          "time": 27.187521750000002,
          "velocity": 0.5354330708661418
        },
        {
          "duration": 0.10416675000000097,
          "durationTicks": 30,
          "midi": 81,
          "name": "A5",
          "ticks": 7860,
          "time": 27.2916885,
          "velocity": 0.5354330708661418
        },
        {
          "duration": 0.10416675000000097,
          "durationTicks": 30,
          "midi": 86,
          "name": "D6",
          "ticks": 7890,
          "time": 27.39585525,
          "velocity": 0.5354330708661418
        },
        {
          "duration": 0.10416675000000097,
          "durationTicks": 30,
          "midi": 63,
          "name": "D#4",
          "ticks": 7920,
          "time": 27.500022,
          "velocity": 0.5354330708661418
        },
        {
          "duration": 0.10416674999999742,
          "durationTicks": 30,
          "midi": 67,
          "name": "G4",
          "ticks": 7950,
          "time": 27.604188750000002,
          "velocity": 0.5354330708661418
        },
        {
          "duration": 0.10416675000000097,
          "durationTicks": 30,
          "midi": 70,
          "name": "A#4",
          "ticks": 7980,
          "time": 27.7083555,
          "velocity": 0.5354330708661418
        },
        {
          "duration": 0.10416675000000097,
          "durationTicks": 30,
          "midi": 75,
          "name": "D#5",
          "ticks": 8010,
          "time": 27.81252225,
          "velocity": 0.5354330708661418
        },
        {
          "duration": 0.10416674999999742,
          "durationTicks": 30,
          "midi": 79,
          "name": "G5",
          "ticks": 8040,
          "time": 27.916689,
          "velocity": 0.5354330708661418
        },
        {
          "duration": 0.10416675000000097,
          "durationTicks": 30,
          "midi": 82,
          "name": "A#5",
          "ticks": 8070,
          "time": 28.02085575,
          "velocity": 0.5354330708661418
        },
        {
          "duration": 0.10416675000000097,
          "durationTicks": 30,
          "midi": 64,
          "name": "E4",
          "ticks": 8100,
          "time": 28.1250225,
          "velocity": 0.5354330708661418
        },
        {
          "duration": 0.10416675000000097,
          "durationTicks": 30,
          "midi": 69,
          "name": "A4",
          "ticks": 8130,
          "time": 28.22918925,
          "velocity": 0.5354330708661418
        },
        {
          "duration": 0.10416674999999742,
          "durationTicks": 30,
          "midi": 73,
          "name": "C#5",
          "ticks": 8160,
          "time": 28.333356000000002,
          "velocity": 0.5354330708661418
        },
        {
          "duration": 0.10416675000000097,
          "durationTicks": 30,
          "midi": 76,
          "name": "E5",
          "ticks": 8190,
          "time": 28.43752275,
          "velocity": 0.5354330708661418
        },
        {
          "duration": 0.10416675000000097,
          "durationTicks": 30,
          "midi": 81,
          "name": "A5",
          "ticks": 8220,
          "time": 28.5416895,
          "velocity": 0.5354330708661418
        },
        {
          "duration": 0.10416675000000097,
          "durationTicks": 30,
          "midi": 85,
          "name": "C#6",
          "ticks": 8250,
          "time": 28.64585625,
          "velocity": 0.5354330708661418
        },
        {
          "duration": 0.10416674999999742,
          "durationTicks": 30,
          "midi": 66,
          "name": "F#4",
          "ticks": 8280,
          "time": 28.750023000000002,
          "velocity": 0.5354330708661418
        },
        {
          "duration": 0.10416675000000097,
          "durationTicks": 30,
          "midi": 69,
          "name": "A4",
          "ticks": 8310,
          "time": 28.85418975,
          "velocity": 0.5354330708661418
        },
        {
          "duration": 0.10416675000000097,
          "durationTicks": 30,
          "midi": 74,
          "name": "D5",
          "ticks": 8340,
          "time": 28.9583565,
          "velocity": 0.5354330708661418
        },
        {
          "duration": 0.10416674999999742,
          "durationTicks": 30,
          "midi": 78,
          "name": "F#5",
          "ticks": 8370,
          "time": 29.06252325,
          "velocity": 0.5354330708661418
        },
        {
          "duration": 0.10416675000000097,
          "durationTicks": 30,
          "midi": 81,
          "name": "A5",
          "ticks": 8400,
          "time": 29.16669,
          "velocity": 0.5354330708661418
        },
        {
          "duration": 0.10416675000000097,
          "durationTicks": 30,
          "midi": 86,
          "name": "D6",
          "ticks": 8430,
          "time": 29.27085675,
          "velocity": 0.5354330708661418
        },
        {
          "duration": 0.10416675000000097,
          "durationTicks": 30,
          "midi": 90,
          "name": "F#6",
          "ticks": 8460,
          "time": 29.3750235,
          "velocity": 0.5354330708661418
        },
        {
          "duration": 0.10416674999999742,
          "durationTicks": 30,
          "midi": 86,
          "name": "D6",
          "ticks": 8490,
          "time": 29.479190250000002,
          "velocity": 0.5354330708661418
        },
        {
          "duration": 0.10416675000000097,
          "durationTicks": 30,
          "midi": 81,
          "name": "A5",
          "ticks": 8520,
          "time": 29.583357,
          "velocity": 0.5354330708661418
        },
        {
          "duration": 0.10416675000000097,
          "durationTicks": 30,
          "midi": 78,
          "name": "F#5",
          "ticks": 8550,
          "time": 29.68752375,
          "velocity": 0.5354330708661418
        },
        {
          "duration": 0.10416675000000097,
          "durationTicks": 30,
          "midi": 74,
          "name": "D5",
          "ticks": 8580,
          "time": 29.7916905,
          "velocity": 0.5354330708661418
        },
        {
          "duration": 0.10416674999999742,
          "durationTicks": 30,
          "midi": 69,
          "name": "A4",
          "ticks": 8610,
          "time": 29.895857250000002,
          "velocity": 0.5354330708661418
        },
        {
          "duration": 0.10416675000000097,
          "durationTicks": 30,
          "midi": 67,
          "name": "G4",
          "ticks": 8640,
          "time": 30.000024,
          "velocity": 0.5354330708661418
        },
        {
          "duration": 0.10416675000000097,
          "durationTicks": 30,
          "midi": 70,
          "name": "A#4",
          "ticks": 8670,
          "time": 30.10419075,
          "velocity": 0.5354330708661418
        },
        {
          "duration": 0.10416674999999742,
          "durationTicks": 30,
          "midi": 74,
          "name": "D5",
          "ticks": 8700,
          "time": 30.2083575,
          "velocity": 0.5354330708661418
        },
        {
          "duration": 0.10416675000000097,
          "durationTicks": 30,
          "midi": 79,
          "name": "G5",
          "ticks": 8730,
          "time": 30.31252425,
          "velocity": 0.5354330708661418
        },
        {
          "duration": 0.10416675000000097,
          "durationTicks": 30,
          "midi": 82,
          "name": "A#5",
          "ticks": 8760,
          "time": 30.416691,
          "velocity": 0.5354330708661418
        },
        {
          "duration": 0.10416675000000097,
          "durationTicks": 30,
          "midi": 86,
          "name": "D6",
          "ticks": 8790,
          "time": 30.52085775,
          "velocity": 0.5354330708661418
        },
        {
          "duration": 0.10416674999999742,
          "durationTicks": 30,
          "midi": 67,
          "name": "G4",
          "ticks": 8820,
          "time": 30.625024500000002,
          "velocity": 0.5354330708661418
        },
        {
          "duration": 0.10416675000000097,
          "durationTicks": 30,
          "midi": 70,
          "name": "A#4",
          "ticks": 8850,
          "time": 30.72919125,
          "velocity": 0.5354330708661418
        },
        {
          "duration": 0.10416675000000097,
          "durationTicks": 30,
          "midi": 75,
          "name": "D#5",
          "ticks": 8880,
          "time": 30.833358,
          "velocity": 0.5354330708661418
        },
        {
          "duration": 0.10416675000000097,
          "durationTicks": 30,
          "midi": 79,
          "name": "G5",
          "ticks": 8910,
          "time": 30.93752475,
          "velocity": 0.5354330708661418
        },
        {
          "duration": 0.10416674999999742,
          "durationTicks": 30,
          "midi": 82,
          "name": "A#5",
          "ticks": 8940,
          "time": 31.041691500000002,
          "velocity": 0.5354330708661418
        },
        {
          "duration": 0.10416675000000097,
          "durationTicks": 30,
          "midi": 87,
          "name": "D#6",
          "ticks": 8970,
          "time": 31.14585825,
          "velocity": 0.5354330708661418
        },
        {
          "duration": 0.10416675000000097,
          "durationTicks": 30,
          "midi": 65,
          "name": "F4",
          "ticks": 9000,
          "time": 31.250025,
          "velocity": 0.5354330708661418
        },
        {
          "duration": 0.10416674999999742,
          "durationTicks": 30,
          "midi": 69,
          "name": "A4",
          "ticks": 9030,
          "time": 31.354191750000002,
          "velocity": 0.5354330708661418
        },
        {
          "duration": 0.10416675000000097,
          "durationTicks": 30,
          "midi": 72,
          "name": "C5",
          "ticks": 9060,
          "time": 31.4583585,
          "velocity": 0.5354330708661418
        },
        {
          "duration": 0.10416675000000097,
          "durationTicks": 30,
          "midi": 77,
          "name": "F5",
          "ticks": 9090,
          "time": 31.56252525,
          "velocity": 0.5354330708661418
        },
        {
          "duration": 0.10416675000000097,
          "durationTicks": 30,
          "midi": 81,
          "name": "A5",
          "ticks": 9120,
          "time": 31.666692,
          "velocity": 0.5354330708661418
        },
        {
          "duration": 0.10416674999999742,
          "durationTicks": 30,
          "midi": 84,
          "name": "C6",
          "ticks": 9150,
          "time": 31.770858750000002,
          "velocity": 0.5354330708661418
        },
        {
          "duration": 0.10416675000000097,
          "durationTicks": 30,
          "midi": 65,
          "name": "F4",
          "ticks": 9180,
          "time": 31.8750255,
          "velocity": 0.5354330708661418
        },
        {
          "duration": 0.10416675000000097,
          "durationTicks": 30,
          "midi": 69,
          "name": "A4",
          "ticks": 9210,
          "time": 31.97919225,
          "velocity": 0.5354330708661418
        },
        {
          "duration": 0.10416674999999742,
          "durationTicks": 30,
          "midi": 74,
          "name": "D5",
          "ticks": 9240,
          "time": 32.083359,
          "velocity": 0.5354330708661418
        },
        {
          "duration": 0.10416675000000453,
          "durationTicks": 30,
          "midi": 77,
          "name": "F5",
          "ticks": 9270,
          "time": 32.18752575,
          "velocity": 0.5354330708661418
        },
        {
          "duration": 0.10416674999999742,
          "durationTicks": 30,
          "midi": 81,
          "name": "A5",
          "ticks": 9300,
          "time": 32.2916925,
          "velocity": 0.5354330708661418
        },
        {
          "duration": 0.10416674999999742,
          "durationTicks": 30,
          "midi": 86,
          "name": "D6",
          "ticks": 9330,
          "time": 32.39585925,
          "velocity": 0.5354330708661418
        },
        {
          "duration": 0.10416675000000453,
          "durationTicks": 30,
          "midi": 63,
          "name": "D#4",
          "ticks": 9360,
          "time": 32.500026,
          "velocity": 0.5354330708661418
        },
        {
          "duration": 0.10416674999999742,
          "durationTicks": 30,
          "midi": 67,
          "name": "G4",
          "ticks": 9390,
          "time": 32.60419275,
          "velocity": 0.5354330708661418
        },
        {
          "duration": 0.10416674999999742,
          "durationTicks": 30,
          "midi": 70,
          "name": "A#4",
          "ticks": 9420,
          "time": 32.7083595,
          "velocity": 0.5354330708661418
        },
        {
          "duration": 0.10416675000000453,
          "durationTicks": 30,
          "midi": 75,
          "name": "D#5",
          "ticks": 9450,
          "time": 32.81252625,
          "velocity": 0.5354330708661418
        },
        {
          "duration": 0.10416674999999742,
          "durationTicks": 30,
          "midi": 79,
          "name": "G5",
          "ticks": 9480,
          "time": 32.916693,
          "velocity": 0.5354330708661418
        },
        {
          "duration": 0.10416675000000453,
          "durationTicks": 30,
          "midi": 82,
          "name": "A#5",
          "ticks": 9510,
          "time": 33.02085975,
          "velocity": 0.5354330708661418
        },
        {
          "duration": 0.10416674999999742,
          "durationTicks": 30,
          "midi": 64,
          "name": "E4",
          "ticks": 9540,
          "time": 33.125026500000004,
          "velocity": 0.5354330708661418
        },
        {
          "duration": 0.10416674999999742,
          "durationTicks": 30,
          "midi": 69,
          "name": "A4",
          "ticks": 9570,
          "time": 33.22919325,
          "velocity": 0.5354330708661418
        },
        {
          "duration": 0.10416675000000453,
          "durationTicks": 30,
          "midi": 73,
          "name": "C#5",
          "ticks": 9600,
          "time": 33.33336,
          "velocity": 0.5354330708661418
        },
        {
          "duration": 0.10416674999999742,
          "durationTicks": 30,
          "midi": 76,
          "name": "E5",
          "ticks": 9630,
          "time": 33.43752675,
          "velocity": 0.5354330708661418
        },
        {
          "duration": 0.10416674999999742,
          "durationTicks": 30,
          "midi": 79,
          "name": "G5",
          "ticks": 9660,
          "time": 33.5416935,
          "velocity": 0.5354330708661418
        },
        {
          "duration": 0.10416675000000453,
          "durationTicks": 30,
          "midi": 85,
          "name": "C#6",
          "ticks": 9690,
          "time": 33.64586025,
          "velocity": 0.5354330708661418
        },
        {
          "duration": 0.10416674999999742,
          "durationTicks": 30,
          "midi": 66,
          "name": "F#4",
          "ticks": 9720,
          "time": 33.750027,
          "velocity": 0.5354330708661418
        },
        {
          "duration": 0.10416674999999742,
          "durationTicks": 30,
          "midi": 69,
          "name": "A4",
          "ticks": 9750,
          "time": 33.85419375,
          "velocity": 0.5354330708661418
        },
        {
          "duration": 0.10416675000000453,
          "durationTicks": 30,
          "midi": 74,
          "name": "D5",
          "ticks": 9780,
          "time": 33.9583605,
          "velocity": 0.5354330708661418
        },
        {
          "duration": 0.10416674999999742,
          "durationTicks": 30,
          "midi": 78,
          "name": "F#5",
          "ticks": 9810,
          "time": 34.06252725,
          "velocity": 0.5354330708661418
        },
        {
          "duration": 0.10416675000000453,
          "durationTicks": 30,
          "midi": 81,
          "name": "A5",
          "ticks": 9840,
          "time": 34.166694,
          "velocity": 0.5354330708661418
        },
        {
          "duration": 0.10416674999999742,
          "durationTicks": 30,
          "midi": 86,
          "name": "D6",
          "ticks": 9870,
          "time": 34.270860750000004,
          "velocity": 0.5354330708661418
        },
        {
          "duration": 0.10416674999999742,
          "durationTicks": 30,
          "midi": 90,
          "name": "F#6",
          "ticks": 9900,
          "time": 34.3750275,
          "velocity": 0.5354330708661418
        },
        {
          "duration": 0.10416675000000453,
          "durationTicks": 30,
          "midi": 86,
          "name": "D6",
          "ticks": 9930,
          "time": 34.47919425,
          "velocity": 0.5354330708661418
        },
        {
          "duration": 0.10416674999999742,
          "durationTicks": 30,
          "midi": 81,
          "name": "A5",
          "ticks": 9960,
          "time": 34.583361000000004,
          "velocity": 0.5354330708661418
        },
        {
          "duration": 0.10416674999999742,
          "durationTicks": 30,
          "midi": 78,
          "name": "F#5",
          "ticks": 9990,
          "time": 34.68752775,
          "velocity": 0.5354330708661418
        },
        {
          "duration": 0.10416675000000453,
          "durationTicks": 30,
          "midi": 74,
          "name": "D5",
          "ticks": 10020,
          "time": 34.7916945,
          "velocity": 0.5354330708661418
        },
        {
          "duration": 0.10416674999999742,
          "durationTicks": 30,
          "midi": 69,
          "name": "A4",
          "ticks": 10050,
          "time": 34.89586125,
          "velocity": 0.5354330708661418
        },
        {
          "duration": 0.10416674999999742,
          "durationTicks": 30,
          "midi": 67,
          "name": "G4",
          "ticks": 10080,
          "time": 35.000028,
          "velocity": 0.5354330708661418
        },
        {
          "duration": 0.10416675000000453,
          "durationTicks": 30,
          "midi": 70,
          "name": "A#4",
          "ticks": 10110,
          "time": 35.10419475,
          "velocity": 0.5354330708661418
        },
        {
          "duration": 0.10416674999999742,
          "durationTicks": 30,
          "midi": 74,
          "name": "D5",
          "ticks": 10140,
          "time": 35.2083615,
          "velocity": 0.5354330708661418
        },
        {
          "duration": 0.10416675000000453,
          "durationTicks": 30,
          "midi": 79,
          "name": "G5",
          "ticks": 10170,
          "time": 35.31252825,
          "velocity": 0.5354330708661418
        },
        {
          "duration": 0.10416674999999742,
          "durationTicks": 30,
          "midi": 82,
          "name": "A#5",
          "ticks": 10200,
          "time": 35.416695000000004,
          "velocity": 0.5354330708661418
        },
        {
          "duration": 0.10416674999999742,
          "durationTicks": 30,
          "midi": 86,
          "name": "D6",
          "ticks": 10230,
          "time": 35.52086175,
          "velocity": 0.5354330708661418
        },
        {
          "duration": 0.10416675000000453,
          "durationTicks": 30,
          "midi": 67,
          "name": "G4",
          "ticks": 10260,
          "time": 35.6250285,
          "velocity": 0.5354330708661418
        },
        {
          "duration": 0.10416674999999742,
          "durationTicks": 30,
          "midi": 70,
          "name": "A#4",
          "ticks": 10290,
          "time": 35.729195250000004,
          "velocity": 0.5354330708661418
        },
        {
          "duration": 0.10416674999999742,
          "durationTicks": 30,
          "midi": 75,
          "name": "D#5",
          "ticks": 10320,
          "time": 35.833362,
          "velocity": 0.5354330708661418
        },
        {
          "duration": 0.10416675000000453,
          "durationTicks": 30,
          "midi": 79,
          "name": "G5",
          "ticks": 10350,
          "time": 35.93752875,
          "velocity": 0.5354330708661418
        },
        {
          "duration": 0.10416674999999742,
          "durationTicks": 30,
          "midi": 82,
          "name": "A#5",
          "ticks": 10380,
          "time": 36.0416955,
          "velocity": 0.5354330708661418
        },
        {
          "duration": 0.10416674999999742,
          "durationTicks": 30,
          "midi": 87,
          "name": "D#6",
          "ticks": 10410,
          "time": 36.14586225,
          "velocity": 0.5354330708661418
        },
        {
          "duration": 0.10416675000000453,
          "durationTicks": 30,
          "midi": 65,
          "name": "F4",
          "ticks": 10440,
          "time": 36.250029,
          "velocity": 0.5354330708661418
        },
        {
          "duration": 0.10416674999999742,
          "durationTicks": 30,
          "midi": 69,
          "name": "A4",
          "ticks": 10470,
          "time": 36.35419575,
          "velocity": 0.5354330708661418
        },
        {
          "duration": 0.10416675000000453,
          "durationTicks": 30,
          "midi": 72,
          "name": "C5",
          "ticks": 10500,
          "time": 36.4583625,
          "velocity": 0.5354330708661418
        },
        {
          "duration": 0.10416674999999742,
          "durationTicks": 30,
          "midi": 77,
          "name": "F5",
          "ticks": 10530,
          "time": 36.562529250000004,
          "velocity": 0.5354330708661418
        },
        {
          "duration": 0.10416674999999742,
          "durationTicks": 30,
          "midi": 81,
          "name": "A5",
          "ticks": 10560,
          "time": 36.666696,
          "velocity": 0.5354330708661418
        },
        {
          "duration": 0.10416675000000453,
          "durationTicks": 30,
          "midi": 84,
          "name": "C6",
          "ticks": 10590,
          "time": 36.77086275,
          "velocity": 0.5354330708661418
        },
        {
          "duration": 0.10416674999999742,
          "durationTicks": 30,
          "midi": 65,
          "name": "F4",
          "ticks": 10620,
          "time": 36.875029500000004,
          "velocity": 0.5354330708661418
        },
        {
          "duration": 0.10416674999999742,
          "durationTicks": 30,
          "midi": 69,
          "name": "A4",
          "ticks": 10650,
          "time": 36.97919625,
          "velocity": 0.5354330708661418
        },
        {
          "duration": 0.10416675000000453,
          "durationTicks": 30,
          "midi": 74,
          "name": "D5",
          "ticks": 10680,
          "time": 37.083363,
          "velocity": 0.5354330708661418
        },
        {
          "duration": 0.10416674999999742,
          "durationTicks": 30,
          "midi": 77,
          "name": "F5",
          "ticks": 10710,
          "time": 37.18752975,
          "velocity": 0.5354330708661418
        },
        {
          "duration": 0.10416674999999742,
          "durationTicks": 30,
          "midi": 81,
          "name": "A5",
          "ticks": 10740,
          "time": 37.2916965,
          "velocity": 0.5354330708661418
        },
        {
          "duration": 0.10416675000000453,
          "durationTicks": 30,
          "midi": 86,
          "name": "D6",
          "ticks": 10770,
          "time": 37.39586325,
          "velocity": 0.5354330708661418
        },
        {
          "duration": 0.10416674999999742,
          "durationTicks": 30,
          "midi": 63,
          "name": "D#4",
          "ticks": 10800,
          "time": 37.50003,
          "velocity": 0.5354330708661418
        },
        {
          "duration": 0.10416675000000453,
          "durationTicks": 30,
          "midi": 67,
          "name": "G4",
          "ticks": 10830,
          "time": 37.60419675,
          "velocity": 0.5354330708661418
        },
        {
          "duration": 0.10416674999999742,
          "durationTicks": 30,
          "midi": 70,
          "name": "A#4",
          "ticks": 10860,
          "time": 37.708363500000004,
          "velocity": 0.5354330708661418
        },
        {
          "duration": 0.10416674999999742,
          "durationTicks": 30,
          "midi": 75,
          "name": "D#5",
          "ticks": 10890,
          "time": 37.81253025,
          "velocity": 0.5354330708661418
        },
        {
          "duration": 0.10416675000000453,
          "durationTicks": 30,
          "midi": 79,
          "name": "G5",
          "ticks": 10920,
          "time": 37.916697,
          "velocity": 0.5354330708661418
        },
        {
          "duration": 0.10416674999999742,
          "durationTicks": 30,
          "midi": 82,
          "name": "A#5",
          "ticks": 10950,
          "time": 38.020863750000004,
          "velocity": 0.5354330708661418
        },
        {
          "duration": 0.10416674999999742,
          "durationTicks": 30,
          "midi": 64,
          "name": "E4",
          "ticks": 10980,
          "time": 38.1250305,
          "velocity": 0.5354330708661418
        },
        {
          "duration": 0.10416675000000453,
          "durationTicks": 30,
          "midi": 69,
          "name": "A4",
          "ticks": 11010,
          "time": 38.22919725,
          "velocity": 0.5354330708661418
        },
        {
          "duration": 0.10416674999999742,
          "durationTicks": 30,
          "midi": 73,
          "name": "C#5",
          "ticks": 11040,
          "time": 38.333364,
          "velocity": 0.5354330708661418
        },
        {
          "duration": 0.10416674999999742,
          "durationTicks": 30,
          "midi": 76,
          "name": "E5",
          "ticks": 11070,
          "time": 38.43753075,
          "velocity": 0.5354330708661418
        },
        {
          "duration": 0.10416675000000453,
          "durationTicks": 30,
          "midi": 81,
          "name": "A5",
          "ticks": 11100,
          "time": 38.5416975,
          "velocity": 0.5354330708661418
        },
        {
          "duration": 0.10416674999999742,
          "durationTicks": 30,
          "midi": 85,
          "name": "C#6",
          "ticks": 11130,
          "time": 38.64586425,
          "velocity": 0.5354330708661418
        },
        {
          "duration": 0.10416675000000453,
          "durationTicks": 30,
          "midi": 66,
          "name": "F#4",
          "ticks": 11160,
          "time": 38.750031,
          "velocity": 0.5354330708661418
        },
        {
          "duration": 0.10416674999999742,
          "durationTicks": 30,
          "midi": 69,
          "name": "A4",
          "ticks": 11190,
          "time": 38.854197750000004,
          "velocity": 0.5354330708661418
        },
        {
          "duration": 0.10416674999999742,
          "durationTicks": 30,
          "midi": 74,
          "name": "D5",
          "ticks": 11220,
          "time": 38.9583645,
          "velocity": 0.5354330708661418
        },
        {
          "duration": 0.10416675000000453,
          "durationTicks": 30,
          "midi": 78,
          "name": "F#5",
          "ticks": 11250,
          "time": 39.06253125,
          "velocity": 0.5354330708661418
        },
        {
          "duration": 0.10416674999999742,
          "durationTicks": 30,
          "midi": 81,
          "name": "A5",
          "ticks": 11280,
          "time": 39.166698000000004,
          "velocity": 0.5354330708661418
        },
        {
          "duration": 0.10416674999999742,
          "durationTicks": 30,
          "midi": 86,
          "name": "D6",
          "ticks": 11310,
          "time": 39.27086475,
          "velocity": 0.5354330708661418
        },
        {
          "duration": 0.10416675000000453,
          "durationTicks": 30,
          "midi": 90,
          "name": "F#6",
          "ticks": 11340,
          "time": 39.3750315,
          "velocity": 0.5354330708661418
        },
        {
          "duration": 0.10416674999999742,
          "durationTicks": 30,
          "midi": 86,
          "name": "D6",
          "ticks": 11370,
          "time": 39.47919825,
          "velocity": 0.5354330708661418
        },
        {
          "duration": 0.10416674999999742,
          "durationTicks": 30,
          "midi": 81,
          "name": "A5",
          "ticks": 11400,
          "time": 39.583365,
          "velocity": 0.5354330708661418
        },
        {
          "duration": 0.10416675000000453,
          "durationTicks": 30,
          "midi": 78,
          "name": "F#5",
          "ticks": 11430,
          "time": 39.68753175,
          "velocity": 0.5354330708661418
        },
        {
          "duration": 0.10416674999999742,
          "durationTicks": 30,
          "midi": 74,
          "name": "D5",
          "ticks": 11460,
          "time": 39.7916985,
          "velocity": 0.5354330708661418
        },
        {
          "duration": 0.10416675000000453,
          "durationTicks": 30,
          "midi": 69,
          "name": "A4",
          "ticks": 11490,
          "time": 39.89586525,
          "velocity": 0.5354330708661418
        },
        {
          "duration": 0.20833350000000195,
          "durationTicks": 60,
          "midi": 82,
          "name": "A#5",
          "ticks": 11640,
          "time": 40.416699,
          "velocity": 0.36220472440944884
        },
        {
          "duration": 0.20833350000000195,
          "durationTicks": 60,
          "midi": 86,
          "name": "D6",
          "ticks": 11640,
          "time": 40.416699,
          "velocity": 0.36220472440944884
        },
        {
          "duration": 0.20833350000000195,
          "durationTicks": 60,
          "midi": 82,
          "name": "A#5",
          "ticks": 11880,
          "time": 41.250033,
          "velocity": 0.4015748031496063
        },
        {
          "duration": 0.20833350000000195,
          "durationTicks": 60,
          "midi": 86,
          "name": "D6",
          "ticks": 11880,
          "time": 41.250033,
          "velocity": 0.4015748031496063
        },
        {
          "duration": 0.20833349999999484,
          "durationTicks": 60,
          "midi": 77,
          "name": "F5",
          "ticks": 12120,
          "time": 42.083367,
          "velocity": 0.4015748031496063
        },
        {
          "duration": 0.20833349999999484,
          "durationTicks": 60,
          "midi": 81,
          "name": "A5",
          "ticks": 12120,
          "time": 42.083367,
          "velocity": 0.4015748031496063
        },
        {
          "duration": 0.20833349999999484,
          "durationTicks": 60,
          "midi": 67,
          "name": "G4",
          "ticks": 12360,
          "time": 42.916701,
          "velocity": 0.4015748031496063
        },
        {
          "duration": 0.20833349999999484,
          "durationTicks": 60,
          "midi": 70,
          "name": "A#4",
          "ticks": 12360,
          "time": 42.916701,
          "velocity": 0.4015748031496063
        },
        {
          "duration": 0.20833349999999484,
          "durationTicks": 60,
          "midi": 67,
          "name": "G4",
          "ticks": 12600,
          "time": 43.750035000000004,
          "velocity": 0.4015748031496063
        },
        {
          "duration": 0.20833349999999484,
          "durationTicks": 60,
          "midi": 74,
          "name": "D5",
          "ticks": 12600,
          "time": 43.750035000000004,
          "velocity": 0.4015748031496063
        },
        {
          "duration": 0.20833350000000195,
          "durationTicks": 60,
          "midi": 74,
          "name": "D5",
          "ticks": 12840,
          "time": 44.583369,
          "velocity": 0.4015748031496063
        },
        {
          "duration": 0.20833350000000195,
          "durationTicks": 60,
          "midi": 78,
          "name": "F#5",
          "ticks": 12840,
          "time": 44.583369,
          "velocity": 0.4015748031496063
        },
        {
          "duration": 0.20833350000000195,
          "durationTicks": 60,
          "midi": 62,
          "name": "D4",
          "ticks": 13080,
          "time": 45.416703,
          "velocity": 0.4015748031496063
        },
        {
          "duration": 0.20833350000000195,
          "durationTicks": 60,
          "midi": 69,
          "name": "A4",
          "ticks": 13080,
          "time": 45.416703,
          "velocity": 0.4015748031496063
        },
        {
          "duration": 0.20833350000000195,
          "durationTicks": 60,
          "midi": 72,
          "name": "C5",
          "ticks": 13320,
          "time": 46.250037,
          "velocity": 0.4015748031496063
        },
        {
          "duration": 0.20833350000000195,
          "durationTicks": 60,
          "midi": 77,
          "name": "F5",
          "ticks": 13320,
          "time": 46.250037,
          "velocity": 0.4015748031496063
        },
        {
          "duration": 0.20833350000000195,
          "durationTicks": 60,
          "midi": 77,
          "name": "F5",
          "ticks": 13380,
          "time": 46.4583705,
          "velocity": 0.4015748031496063
        },
        {
          "duration": 0.20833350000000195,
          "durationTicks": 60,
          "midi": 81,
          "name": "A5",
          "ticks": 13380,
          "time": 46.4583705,
          "velocity": 0.4015748031496063
        },
        {
          "duration": 0.20833350000000195,
          "durationTicks": 60,
          "midi": 82,
          "name": "A#5",
          "ticks": 13560,
          "time": 47.083371,
          "velocity": 0.4015748031496063
        },
        {
          "duration": 0.20833350000000195,
          "durationTicks": 60,
          "midi": 86,
          "name": "D6",
          "ticks": 13560,
          "time": 47.083371,
          "velocity": 0.4015748031496063
        },
        {
          "duration": 0.20833350000000195,
          "durationTicks": 60,
          "midi": 82,
          "name": "A#5",
          "ticks": 13800,
          "time": 47.916705,
          "velocity": 0.4015748031496063
        },
        {
          "duration": 0.20833350000000195,
          "durationTicks": 60,
          "midi": 86,
          "name": "D6",
          "ticks": 13800,
          "time": 47.916705,
          "velocity": 0.4015748031496063
        },
        {
          "duration": 0.20833350000000195,
          "durationTicks": 60,
          "midi": 74,
          "name": "D5",
          "ticks": 14040,
          "time": 48.750039,
          "velocity": 0.4015748031496063
        },
        {
          "duration": 0.20833350000000195,
          "durationTicks": 60,
          "midi": 81,
          "name": "A5",
          "ticks": 14040,
          "time": 48.750039,
          "velocity": 0.4015748031496063
        },
        {
          "duration": 0.20833350000000195,
          "durationTicks": 60,
          "midi": 69,
          "name": "A4",
          "ticks": 14280,
          "time": 49.583373,
          "velocity": 0.4015748031496063
        },
        {
          "duration": 0.20833350000000195,
          "durationTicks": 60,
          "midi": 62,
          "name": "D4",
          "ticks": 14280,
          "time": 49.583373,
          "velocity": 0.4015748031496063
        },
        {
          "duration": 0.20833350000000195,
          "durationTicks": 60,
          "midi": 70,
          "name": "A#4",
          "ticks": 14520,
          "time": 50.416707,
          "velocity": 0.4015748031496063
        },
        {
          "duration": 0.20833350000000195,
          "durationTicks": 60,
          "midi": 74,
          "name": "D5",
          "ticks": 14520,
          "time": 50.416707,
          "velocity": 0.4015748031496063
        },
        {
          "duration": 0.20833349999999484,
          "durationTicks": 60,
          "midi": 72,
          "name": "C5",
          "ticks": 14760,
          "time": 51.250041,
          "velocity": 0.4015748031496063
        },
        {
          "duration": 0.20833349999999484,
          "durationTicks": 60,
          "midi": 78,
          "name": "F#5",
          "ticks": 14760,
          "time": 51.250041,
          "velocity": 0.4015748031496063
        },
        {
          "duration": 0.20833349999999484,
          "durationTicks": 60,
          "midi": 74,
          "name": "D5",
          "ticks": 15000,
          "time": 52.083375000000004,
          "velocity": 0.4015748031496063
        },
        {
          "duration": 0.20833349999999484,
          "durationTicks": 60,
          "midi": 69,
          "name": "A4",
          "ticks": 15000,
          "time": 52.083375000000004,
          "velocity": 0.4015748031496063
        },
        {
          "duration": 0.20833349999999484,
          "durationTicks": 60,
          "midi": 69,
          "name": "A4",
          "ticks": 15240,
          "time": 52.916709000000004,
          "velocity": 0.4015748031496063
        },
        {
          "duration": 0.20833349999999484,
          "durationTicks": 60,
          "midi": 77,
          "name": "F5",
          "ticks": 15240,
          "time": 52.916709000000004,
          "velocity": 0.4015748031496063
        },
        {
          "duration": 0.20833350000000195,
          "durationTicks": 60,
          "midi": 79,
          "name": "G5",
          "ticks": 15480,
          "time": 53.750043,
          "velocity": 0.4015748031496063
        },
        {
          "duration": 0.20833350000000195,
          "durationTicks": 60,
          "midi": 83,
          "name": "B5",
          "ticks": 15480,
          "time": 53.750043,
          "velocity": 0.4015748031496063
        },
        {
          "duration": 0.20833350000000195,
          "durationTicks": 60,
          "midi": 79,
          "name": "G5",
          "ticks": 15720,
          "time": 54.583377,
          "velocity": 0.4015748031496063
        },
        {
          "duration": 0.20833350000000195,
          "durationTicks": 60,
          "midi": 83,
          "name": "B5",
          "ticks": 15720,
          "time": 54.583377,
          "velocity": 0.4015748031496063
        },
        {
          "duration": 0.20833350000000195,
          "durationTicks": 60,
          "midi": 74,
          "name": "D5",
          "ticks": 15960,
          "time": 55.416711,
          "velocity": 0.4015748031496063
        },
        {
          "duration": 0.20833350000000195,
          "durationTicks": 60,
          "midi": 78,
          "name": "F#5",
          "ticks": 15960,
          "time": 55.416711,
          "velocity": 0.4015748031496063
        },
        {
          "duration": 0.20833350000000195,
          "durationTicks": 60,
          "midi": 64,
          "name": "E4",
          "ticks": 16200,
          "time": 56.250045,
          "velocity": 0.4015748031496063
        },
        {
          "duration": 0.20833350000000195,
          "durationTicks": 60,
          "midi": 67,
          "name": "G4",
          "ticks": 16200,
          "time": 56.250045,
          "velocity": 0.4015748031496063
        },
        {
          "duration": 0.20833350000000195,
          "durationTicks": 60,
          "midi": 64,
          "name": "E4",
          "ticks": 16440,
          "time": 57.083379,
          "velocity": 0.4015748031496063
        },
        {
          "duration": 0.20833350000000195,
          "durationTicks": 60,
          "midi": 71,
          "name": "B4",
          "ticks": 16440,
          "time": 57.083379,
          "velocity": 0.4015748031496063
        },
        {
          "duration": 0.20833350000000195,
          "durationTicks": 60,
          "midi": 71,
          "name": "B4",
          "ticks": 16680,
          "time": 57.916713,
          "velocity": 0.4015748031496063
        },
        {
          "duration": 0.20833350000000195,
          "durationTicks": 60,
          "midi": 75,
          "name": "D#5",
          "ticks": 16680,
          "time": 57.916713,
          "velocity": 0.4015748031496063
        },
        {
          "duration": 0.20833350000000195,
          "durationTicks": 60,
          "midi": 71,
          "name": "B4",
          "ticks": 16920,
          "time": 58.750047,
          "velocity": 0.4015748031496063
        },
        {
          "duration": 0.20833350000000195,
          "durationTicks": 60,
          "midi": 78,
          "name": "F#5",
          "ticks": 16920,
          "time": 58.750047,
          "velocity": 0.4015748031496063
        },
        {
          "duration": 0.20833350000000195,
          "durationTicks": 60,
          "midi": 69,
          "name": "A4",
          "ticks": 17160,
          "time": 59.583381,
          "velocity": 0.4015748031496063
        },
        {
          "duration": 0.20833350000000195,
          "durationTicks": 60,
          "midi": 74,
          "name": "D5",
          "ticks": 17160,
          "time": 59.583381,
          "velocity": 0.4015748031496063
        },
        {
          "duration": 0.20833349999999484,
          "durationTicks": 60,
          "midi": 74,
          "name": "D5",
          "ticks": 17220,
          "time": 59.791714500000005,
          "velocity": 0.4015748031496063
        },
        {
          "duration": 0.20833349999999484,
          "durationTicks": 60,
          "midi": 78,
          "name": "F#5",
          "ticks": 17220,
          "time": 59.791714500000005,
          "velocity": 0.4015748031496063
        },
        {
          "duration": 0.20833349999999484,
          "durationTicks": 60,
          "midi": 79,
          "name": "G5",
          "ticks": 17400,
          "time": 60.416715,
          "velocity": 0.4015748031496063
        },
        {
          "duration": 0.20833349999999484,
          "durationTicks": 60,
          "midi": 83,
          "name": "B5",
          "ticks": 17400,
          "time": 60.416715,
          "velocity": 0.4015748031496063
        },
        {
          "duration": 0.20833349999999484,
          "durationTicks": 60,
          "midi": 79,
          "name": "G5",
          "ticks": 17640,
          "time": 61.250049000000004,
          "velocity": 0.4015748031496063
        },
        {
          "duration": 0.20833349999999484,
          "durationTicks": 60,
          "midi": 83,
          "name": "B5",
          "ticks": 17640,
          "time": 61.250049000000004,
          "velocity": 0.4015748031496063
        },
        {
          "duration": 0.20833349999999484,
          "durationTicks": 60,
          "midi": 71,
          "name": "B4",
          "ticks": 17880,
          "time": 62.083383000000005,
          "velocity": 0.4015748031496063
        },
        {
          "duration": 0.20833349999999484,
          "durationTicks": 60,
          "midi": 78,
          "name": "F#5",
          "ticks": 17880,
          "time": 62.083383000000005,
          "velocity": 0.4015748031496063
        },
        {
          "duration": 0.20833350000000195,
          "durationTicks": 60,
          "midi": 74,
          "name": "D5",
          "ticks": 18120,
          "time": 62.916717,
          "velocity": 0.4015748031496063
        },
        {
          "duration": 0.20833350000000195,
          "durationTicks": 60,
          "midi": 71,
          "name": "B4",
          "ticks": 18120,
          "time": 62.916717,
          "velocity": 0.4015748031496063
        },
        {
          "duration": 0.20833350000000195,
          "durationTicks": 60,
          "midi": 67,
          "name": "G4",
          "ticks": 18360,
          "time": 63.750051,
          "velocity": 0.4015748031496063
        },
        {
          "duration": 0.20833350000000195,
          "durationTicks": 60,
          "midi": 71,
          "name": "B4",
          "ticks": 18360,
          "time": 63.750051,
          "velocity": 0.4015748031496063
        },
        {
          "duration": 0.20833349999999484,
          "durationTicks": 60,
          "midi": 69,
          "name": "A4",
          "ticks": 18600,
          "time": 64.583385,
          "velocity": 0.4015748031496063
        },
        {
          "duration": 0.20833349999999484,
          "durationTicks": 60,
          "midi": 75,
          "name": "D#5",
          "ticks": 18600,
          "time": 64.583385,
          "velocity": 0.4015748031496063
        },
        {
          "duration": 0.20833349999999484,
          "durationTicks": 60,
          "midi": 71,
          "name": "B4",
          "ticks": 18840,
          "time": 65.416719,
          "velocity": 0.4015748031496063
        },
        {
          "duration": 0.20833349999999484,
          "durationTicks": 60,
          "midi": 66,
          "name": "F#4",
          "ticks": 18840,
          "time": 65.416719,
          "velocity": 0.4015748031496063
        },
        {
          "duration": 0.20833349999999484,
          "durationTicks": 60,
          "midi": 66,
          "name": "F#4",
          "ticks": 19080,
          "time": 66.25005300000001,
          "velocity": 0.4015748031496063
        },
        {
          "duration": 0.20833349999999484,
          "durationTicks": 60,
          "midi": 74,
          "name": "D5",
          "ticks": 19080,
          "time": 66.25005300000001,
          "velocity": 0.4015748031496063
        },
        {
          "duration": 0.20833349999999484,
          "durationTicks": 60,
          "midi": 79,
          "name": "G5",
          "ticks": 19320,
          "time": 67.083387,
          "velocity": 0.4015748031496063
        },
        {
          "duration": 0.20833349999999484,
          "durationTicks": 60,
          "midi": 83,
          "name": "B5",
          "ticks": 19320,
          "time": 67.083387,
          "velocity": 0.4015748031496063
        },
        {
          "duration": 0.20833350000000905,
          "durationTicks": 60,
          "midi": 79,
          "name": "G5",
          "ticks": 19560,
          "time": 67.916721,
          "velocity": 0.4015748031496063
        },
        {
          "duration": 0.20833350000000905,
          "durationTicks": 60,
          "midi": 83,
          "name": "B5",
          "ticks": 19560,
          "time": 67.916721,
          "velocity": 0.4015748031496063
        },
        {
          "duration": 0.20833349999999484,
          "durationTicks": 60,
          "midi": 74,
          "name": "D5",
          "ticks": 19800,
          "time": 68.750055,
          "velocity": 0.4015748031496063
        },
        {
          "duration": 0.20833349999999484,
          "durationTicks": 60,
          "midi": 78,
          "name": "F#5",
          "ticks": 19800,
          "time": 68.750055,
          "velocity": 0.4015748031496063
        },
        {
          "duration": 0.20833350000000905,
          "durationTicks": 60,
          "midi": 64,
          "name": "E4",
          "ticks": 20040,
          "time": 69.583389,
          "velocity": 0.4015748031496063
        },
        {
          "duration": 0.20833350000000905,
          "durationTicks": 60,
          "midi": 67,
          "name": "G4",
          "ticks": 20040,
          "time": 69.583389,
          "velocity": 0.4015748031496063
        },
        {
          "duration": 0.20833349999999484,
          "durationTicks": 60,
          "midi": 64,
          "name": "E4",
          "ticks": 20280,
          "time": 70.416723,
          "velocity": 0.4015748031496063
        },
        {
          "duration": 0.20833349999999484,
          "durationTicks": 60,
          "midi": 71,
          "name": "B4",
          "ticks": 20280,
          "time": 70.416723,
          "velocity": 0.4015748031496063
        },
        {
          "duration": 0.20833350000000905,
          "durationTicks": 60,
          "midi": 71,
          "name": "B4",
          "ticks": 20520,
          "time": 71.250057,
          "velocity": 0.4015748031496063
        },
        {
          "duration": 0.20833350000000905,
          "durationTicks": 60,
          "midi": 75,
          "name": "D#5",
          "ticks": 20520,
          "time": 71.250057,
          "velocity": 0.4015748031496063
        },
        {
          "duration": 0.20833349999999484,
          "durationTicks": 60,
          "midi": 71,
          "name": "B4",
          "ticks": 20760,
          "time": 72.083391,
          "velocity": 0.4015748031496063
        },
        {
          "duration": 0.20833349999999484,
          "durationTicks": 60,
          "midi": 78,
          "name": "F#5",
          "ticks": 20760,
          "time": 72.083391,
          "velocity": 0.4015748031496063
        },
        {
          "duration": 0.20833350000000905,
          "durationTicks": 60,
          "midi": 69,
          "name": "A4",
          "ticks": 21000,
          "time": 72.916725,
          "velocity": 0.4015748031496063
        },
        {
          "duration": 0.20833350000000905,
          "durationTicks": 60,
          "midi": 74,
          "name": "D5",
          "ticks": 21000,
          "time": 72.916725,
          "velocity": 0.4015748031496063
        },
        {
          "duration": 0.20833349999999484,
          "durationTicks": 60,
          "midi": 74,
          "name": "D5",
          "ticks": 21060,
          "time": 73.12505850000001,
          "velocity": 0.4015748031496063
        },
        {
          "duration": 0.20833349999999484,
          "durationTicks": 60,
          "midi": 78,
          "name": "F#5",
          "ticks": 21060,
          "time": 73.12505850000001,
          "velocity": 0.4015748031496063
        },
        {
          "duration": 0.20833349999999484,
          "durationTicks": 60,
          "midi": 79,
          "name": "G5",
          "ticks": 21240,
          "time": 73.75005900000001,
          "velocity": 0.4015748031496063
        },
        {
          "duration": 0.20833349999999484,
          "durationTicks": 60,
          "midi": 83,
          "name": "B5",
          "ticks": 21240,
          "time": 73.75005900000001,
          "velocity": 0.4015748031496063
        },
        {
          "duration": 0.20833349999999484,
          "durationTicks": 60,
          "midi": 79,
          "name": "G5",
          "ticks": 21480,
          "time": 74.583393,
          "velocity": 0.4015748031496063
        },
        {
          "duration": 0.20833349999999484,
          "durationTicks": 60,
          "midi": 83,
          "name": "B5",
          "ticks": 21480,
          "time": 74.583393,
          "velocity": 0.4015748031496063
        },
        {
          "duration": 0.20833349999999484,
          "durationTicks": 60,
          "midi": 71,
          "name": "B4",
          "ticks": 21720,
          "time": 75.41672700000001,
          "velocity": 0.4015748031496063
        },
        {
          "duration": 0.20833349999999484,
          "durationTicks": 60,
          "midi": 78,
          "name": "F#5",
          "ticks": 21720,
          "time": 75.41672700000001,
          "velocity": 0.4015748031496063
        },
        {
          "duration": 0.20833349999999484,
          "durationTicks": 60,
          "midi": 74,
          "name": "D5",
          "ticks": 21960,
          "time": 76.250061,
          "velocity": 0.4015748031496063
        },
        {
          "duration": 0.20833349999999484,
          "durationTicks": 60,
          "midi": 71,
          "name": "B4",
          "ticks": 21960,
          "time": 76.250061,
          "velocity": 0.4015748031496063
        },
        {
          "duration": 0.20833350000000905,
          "durationTicks": 60,
          "midi": 67,
          "name": "G4",
          "ticks": 22200,
          "time": 77.083395,
          "velocity": 0.4015748031496063
        },
        {
          "duration": 0.20833350000000905,
          "durationTicks": 60,
          "midi": 71,
          "name": "B4",
          "ticks": 22200,
          "time": 77.083395,
          "velocity": 0.4015748031496063
        },
        {
          "duration": 0.20833349999999484,
          "durationTicks": 60,
          "midi": 69,
          "name": "A4",
          "ticks": 22440,
          "time": 77.916729,
          "velocity": 0.4015748031496063
        },
        {
          "duration": 0.20833349999999484,
          "durationTicks": 60,
          "midi": 75,
          "name": "D#5",
          "ticks": 22440,
          "time": 77.916729,
          "velocity": 0.4015748031496063
        },
        {
          "duration": 0.20833350000000905,
          "durationTicks": 60,
          "midi": 71,
          "name": "B4",
          "ticks": 22680,
          "time": 78.750063,
          "velocity": 0.4015748031496063
        },
        {
          "duration": 0.20833350000000905,
          "durationTicks": 60,
          "midi": 66,
          "name": "F#4",
          "ticks": 22680,
          "time": 78.750063,
          "velocity": 0.4015748031496063
        },
        {
          "duration": 0.20833349999999484,
          "durationTicks": 60,
          "midi": 66,
          "name": "F#4",
          "ticks": 22920,
          "time": 79.583397,
          "velocity": 0.4015748031496063
        },
        {
          "duration": 0.20833349999999484,
          "durationTicks": 60,
          "midi": 74,
          "name": "D5",
          "ticks": 22920,
          "time": 79.583397,
          "velocity": 0.4015748031496063
        },
        {
          "duration": 0.10416675000000453,
          "durationTicks": 30,
          "midi": 64,
          "name": "E4",
          "ticks": 23520,
          "time": 81.666732,
          "velocity": 0.5354330708661418
        },
        {
          "duration": 0.10416675000000453,
          "durationTicks": 30,
          "midi": 67,
          "name": "G4",
          "ticks": 23550,
          "time": 81.77089875,
          "velocity": 0.5354330708661418
        },
        {
          "duration": 0.10416674999999032,
          "durationTicks": 30,
          "midi": 71,
          "name": "B4",
          "ticks": 23580,
          "time": 81.8750655,
          "velocity": 0.5354330708661418
        },
        {
          "duration": 0.10416675000000453,
          "durationTicks": 30,
          "midi": 76,
          "name": "E5",
          "ticks": 23610,
          "time": 81.97923225,
          "velocity": 0.5354330708661418
        },
        {
          "duration": 0.10416675000000453,
          "durationTicks": 30,
          "midi": 79,
          "name": "G5",
          "ticks": 23640,
          "time": 82.083399,
          "velocity": 0.5354330708661418
        },
        {
          "duration": 0.10416674999999032,
          "durationTicks": 30,
          "midi": 83,
          "name": "B5",
          "ticks": 23670,
          "time": 82.18756575,
          "velocity": 0.5354330708661418
        },
        {
          "duration": 0.10416675000000453,
          "durationTicks": 30,
          "midi": 64,
          "name": "E4",
          "ticks": 23700,
          "time": 82.2917325,
          "velocity": 0.5354330708661418
        },
        {
          "duration": 0.10416675000000453,
          "durationTicks": 30,
          "midi": 67,
          "name": "G4",
          "ticks": 23730,
          "time": 82.39589925,
          "velocity": 0.5354330708661418
        },
        {
          "duration": 0.10416675000000453,
          "durationTicks": 30,
          "midi": 72,
          "name": "C5",
          "ticks": 23760,
          "time": 82.500066,
          "velocity": 0.5354330708661418
        },
        {
          "duration": 0.10416674999999032,
          "durationTicks": 30,
          "midi": 76,
          "name": "E5",
          "ticks": 23790,
          "time": 82.60423275000001,
          "velocity": 0.5354330708661418
        },
        {
          "duration": 0.10416675000000453,
          "durationTicks": 30,
          "midi": 79,
          "name": "G5",
          "ticks": 23820,
          "time": 82.7083995,
          "velocity": 0.5354330708661418
        },
        {
          "duration": 0.10416675000000453,
          "durationTicks": 30,
          "midi": 84,
          "name": "C6",
          "ticks": 23850,
          "time": 82.81256625,
          "velocity": 0.5354330708661418
        },
        {
          "duration": 0.10416674999999032,
          "durationTicks": 30,
          "midi": 62,
          "name": "D4",
          "ticks": 23880,
          "time": 82.91673300000001,
          "velocity": 0.5354330708661418
        },
        {
          "duration": 0.10416675000000453,
          "durationTicks": 30,
          "midi": 66,
          "name": "F#4",
          "ticks": 23910,
          "time": 83.02089975,
          "velocity": 0.5354330708661418
        },
        {
          "duration": 0.10416675000000453,
          "durationTicks": 30,
          "midi": 69,
          "name": "A4",
          "ticks": 23940,
          "time": 83.1250665,
          "velocity": 0.5354330708661418
        },
        {
          "duration": 0.10416674999999032,
          "durationTicks": 30,
          "midi": 74,
          "name": "D5",
          "ticks": 23970,
          "time": 83.22923325000001,
          "velocity": 0.5354330708661418
        },
        {
          "duration": 0.10416675000000453,
          "durationTicks": 30,
          "midi": 78,
          "name": "F#5",
          "ticks": 24000,
          "time": 83.3334,
          "velocity": 0.5354330708661418
        },
        {
          "duration": 0.10416675000000453,
          "durationTicks": 30,
          "midi": 81,
          "name": "A5",
          "ticks": 24030,
          "time": 83.43756675,
          "velocity": 0.5354330708661418
        },
        {
          "duration": 0.10416674999999032,
          "durationTicks": 30,
          "midi": 62,
          "name": "D4",
          "ticks": 24060,
          "time": 83.5417335,
          "velocity": 0.5354330708661418
        },
        {
          "duration": 0.10416675000000453,
          "durationTicks": 30,
          "midi": 66,
          "name": "F#4",
          "ticks": 24090,
          "time": 83.64590025,
          "velocity": 0.5354330708661418
        },
        {
          "duration": 0.10416675000000453,
          "durationTicks": 30,
          "midi": 71,
          "name": "B4",
          "ticks": 24120,
          "time": 83.750067,
          "velocity": 0.5354330708661418
        },
        {
          "duration": 0.10416674999999032,
          "durationTicks": 30,
          "midi": 74,
          "name": "D5",
          "ticks": 24150,
          "time": 83.85423375,
          "velocity": 0.5354330708661418
        },
        {
          "duration": 0.10416675000000453,
          "durationTicks": 30,
          "midi": 78,
          "name": "F#5",
          "ticks": 24180,
          "time": 83.9584005,
          "velocity": 0.5354330708661418
        },
        {
          "duration": 0.10416675000000453,
          "durationTicks": 30,
          "midi": 83,
          "name": "B5",
          "ticks": 24210,
          "time": 84.06256725,
          "velocity": 0.5354330708661418
        },
        {
          "duration": 0.10416674999999032,
          "durationTicks": 30,
          "midi": 60,
          "name": "C4",
          "ticks": 24240,
          "time": 84.166734,
          "velocity": 0.5354330708661418
        },
        {
          "duration": 0.10416675000000453,
          "durationTicks": 30,
          "midi": 64,
          "name": "E4",
          "ticks": 24270,
          "time": 84.27090075,
          "velocity": 0.5354330708661418
        },
        {
          "duration": 0.10416675000000453,
          "durationTicks": 30,
          "midi": 67,
          "name": "G4",
          "ticks": 24300,
          "time": 84.3750675,
          "velocity": 0.5354330708661418
        },
        {
          "duration": 0.10416674999999032,
          "durationTicks": 30,
          "midi": 72,
          "name": "C5",
          "ticks": 24330,
          "time": 84.47923425,
          "velocity": 0.5354330708661418
        },
        {
          "duration": 0.10416675000000453,
          "durationTicks": 30,
          "midi": 76,
          "name": "E5",
          "ticks": 24360,
          "time": 84.583401,
          "velocity": 0.5354330708661418
        },
        {
          "duration": 0.10416675000000453,
          "durationTicks": 30,
          "midi": 79,
          "name": "G5",
          "ticks": 24390,
          "time": 84.68756775,
          "velocity": 0.5354330708661418
        },
        {
          "duration": 0.10416675000000453,
          "durationTicks": 30,
          "midi": 60,
          "name": "C4",
          "ticks": 24420,
          "time": 84.7917345,
          "velocity": 0.5354330708661418
        },
        {
          "duration": 0.10416674999999032,
          "durationTicks": 30,
          "midi": 64,
          "name": "E4",
          "ticks": 24450,
          "time": 84.89590125000001,
          "velocity": 0.5354330708661418
        },
        {
          "duration": 0.10416675000000453,
          "durationTicks": 30,
          "midi": 69,
          "name": "A4",
          "ticks": 24480,
          "time": 85.000068,
          "velocity": 0.5354330708661418
        },
        {
          "duration": 0.10416675000000453,
          "durationTicks": 30,
          "midi": 72,
          "name": "C5",
          "ticks": 24510,
          "time": 85.10423475,
          "velocity": 0.5354330708661418
        },
        {
          "duration": 0.10416674999999032,
          "durationTicks": 30,
          "midi": 76,
          "name": "E5",
          "ticks": 24540,
          "time": 85.20840150000001,
          "velocity": 0.5354330708661418
        },
        {
          "duration": 0.10416675000000453,
          "durationTicks": 30,
          "midi": 81,
          "name": "A5",
          "ticks": 24570,
          "time": 85.31256825,
          "velocity": 0.5354330708661418
        },
        {
          "duration": 0.10416675000000453,
          "durationTicks": 30,
          "midi": 59,
          "name": "B3",
          "ticks": 24600,
          "time": 85.416735,
          "velocity": 0.5354330708661418
        },
        {
          "duration": 0.10416674999999032,
          "durationTicks": 30,
          "midi": 63,
          "name": "D#4",
          "ticks": 24630,
          "time": 85.52090175000001,
          "velocity": 0.5354330708661418
        },
        {
          "duration": 0.10416675000000453,
          "durationTicks": 30,
          "midi": 66,
          "name": "F#4",
          "ticks": 24660,
          "time": 85.6250685,
          "velocity": 0.5354330708661418
        },
        {
          "duration": 0.10416675000000453,
          "durationTicks": 30,
          "midi": 71,
          "name": "B4",
          "ticks": 24690,
          "time": 85.72923525,
          "velocity": 0.5354330708661418
        },
        {
          "duration": 0.10416674999999032,
          "durationTicks": 30,
          "midi": 75,
          "name": "D#5",
          "ticks": 24720,
          "time": 85.833402,
          "velocity": 0.5354330708661418
        },
        {
          "duration": 0.10416675000000453,
          "durationTicks": 30,
          "midi": 78,
          "name": "F#5",
          "ticks": 24750,
          "time": 85.93756875,
          "velocity": 0.5354330708661418
        },
        {
          "duration": 0.10416675000000453,
          "durationTicks": 30,
          "midi": 83,
          "name": "B5",
          "ticks": 24780,
          "time": 86.0417355,
          "velocity": 0.5354330708661418
        },
        {
          "duration": 0.10416674999999032,
          "durationTicks": 30,
          "midi": 78,
          "name": "F#5",
          "ticks": 24810,
          "time": 86.14590225,
          "velocity": 0.5354330708661418
        },
        {
          "duration": 0.10416675000000453,
          "durationTicks": 30,
          "midi": 75,
          "name": "D#5",
          "ticks": 24840,
          "time": 86.250069,
          "velocity": 0.5354330708661418
        },
        {
          "duration": 0.10416675000000453,
          "durationTicks": 30,
          "midi": 71,
          "name": "B4",
          "ticks": 24870,
          "time": 86.35423575,
          "velocity": 0.5354330708661418
        },
        {
          "duration": 0.10416674999999032,
          "durationTicks": 30,
          "midi": 66,
          "name": "F#4",
          "ticks": 24900,
          "time": 86.4584025,
          "velocity": 0.5354330708661418
        },
        {
          "duration": 0.10416675000000453,
          "durationTicks": 30,
          "midi": 63,
          "name": "D#4",
          "ticks": 24930,
          "time": 86.56256925,
          "velocity": 0.5354330708661418
        },
        {
          "duration": 0.10416675000000453,
          "durationTicks": 30,
          "midi": 64,
          "name": "E4",
          "ticks": 24960,
          "time": 86.666736,
          "velocity": 0.5354330708661418
        },
        {
          "duration": 0.10416674999999032,
          "durationTicks": 30,
          "midi": 67,
          "name": "G4",
          "ticks": 24990,
          "time": 86.77090275,
          "velocity": 0.5354330708661418
        },
        {
          "duration": 0.10416675000000453,
          "durationTicks": 30,
          "midi": 71,
          "name": "B4",
          "ticks": 25020,
          "time": 86.8750695,
          "velocity": 0.5354330708661418
        },
        {
          "duration": 0.10416675000000453,
          "durationTicks": 30,
          "midi": 76,
          "name": "E5",
          "ticks": 25050,
          "time": 86.97923625,
          "velocity": 0.5354330708661418
        },
        {
          "duration": 0.10416675000000453,
          "durationTicks": 30,
          "midi": 79,
          "name": "G5",
          "ticks": 25080,
          "time": 87.083403,
          "velocity": 0.5354330708661418
        },
        {
          "duration": 0.10416674999999032,
          "durationTicks": 30,
          "midi": 83,
          "name": "B5",
          "ticks": 25110,
          "time": 87.18756975000001,
          "velocity": 0.5354330708661418
        },
        {
          "duration": 0.10416675000000453,
          "durationTicks": 30,
          "midi": 64,
          "name": "E4",
          "ticks": 25140,
          "time": 87.2917365,
          "velocity": 0.5354330708661418
        },
        {
          "duration": 0.10416675000000453,
          "durationTicks": 30,
          "midi": 67,
          "name": "G4",
          "ticks": 25170,
          "time": 87.39590325,
          "velocity": 0.5354330708661418
        },
        {
          "duration": 0.10416674999999032,
          "durationTicks": 30,
          "midi": 72,
          "name": "C5",
          "ticks": 25200,
          "time": 87.50007000000001,
          "velocity": 0.5354330708661418
        },
        {
          "duration": 0.10416675000000453,
          "durationTicks": 30,
          "midi": 76,
          "name": "E5",
          "ticks": 25230,
          "time": 87.60423675,
          "velocity": 0.5354330708661418
        },
        {
          "duration": 0.10416675000000453,
          "durationTicks": 30,
          "midi": 79,
          "name": "G5",
          "ticks": 25260,
          "time": 87.7084035,
          "velocity": 0.5354330708661418
        },
        {
          "duration": 0.10416674999999032,
          "durationTicks": 30,
          "midi": 84,
          "name": "C6",
          "ticks": 25290,
          "time": 87.81257025000001,
          "velocity": 0.5354330708661418
        },
        {
          "duration": 0.10416675000000453,
          "durationTicks": 30,
          "midi": 62,
          "name": "D4",
          "ticks": 25320,
          "time": 87.916737,
          "velocity": 0.5354330708661418
        },
        {
          "duration": 0.10416675000000453,
          "durationTicks": 30,
          "midi": 66,
          "name": "F#4",
          "ticks": 25350,
          "time": 88.02090375,
          "velocity": 0.5354330708661418
        },
        {
          "duration": 0.10416674999999032,
          "durationTicks": 30,
          "midi": 69,
          "name": "A4",
          "ticks": 25380,
          "time": 88.1250705,
          "velocity": 0.5354330708661418
        },
        {
          "duration": 0.10416675000000453,
          "durationTicks": 30,
          "midi": 74,
          "name": "D5",
          "ticks": 25410,
          "time": 88.22923725,
          "velocity": 0.5354330708661418
        },
        {
          "duration": 0.10416675000000453,
          "durationTicks": 30,
          "midi": 78,
          "name": "F#5",
          "ticks": 25440,
          "time": 88.333404,
          "velocity": 0.5354330708661418
        },
        {
          "duration": 0.10416674999999032,
          "durationTicks": 30,
          "midi": 81,
          "name": "A5",
          "ticks": 25470,
          "time": 88.43757075,
          "velocity": 0.5354330708661418
        },
        {
          "duration": 0.10416675000000453,
          "durationTicks": 30,
          "midi": 62,
          "name": "D4",
          "ticks": 25500,
          "time": 88.5417375,
          "velocity": 0.5354330708661418
        },
        {
          "duration": 0.10416675000000453,
          "durationTicks": 30,
          "midi": 66,
          "name": "F#4",
          "ticks": 25530,
          "time": 88.64590425,
          "velocity": 0.5354330708661418
        },
        {
          "duration": 0.10416674999999032,
          "durationTicks": 30,
          "midi": 71,
          "name": "B4",
          "ticks": 25560,
          "time": 88.750071,
          "velocity": 0.5354330708661418
        },
        {
          "duration": 0.10416675000000453,
          "durationTicks": 30,
          "midi": 74,
          "name": "D5",
          "ticks": 25590,
          "time": 88.85423775,
          "velocity": 0.5354330708661418
        },
        {
          "duration": 0.10416675000000453,
          "durationTicks": 30,
          "midi": 78,
          "name": "F#5",
          "ticks": 25620,
          "time": 88.9584045,
          "velocity": 0.5354330708661418
        },
        {
          "duration": 0.10416674999999032,
          "durationTicks": 30,
          "midi": 83,
          "name": "B5",
          "ticks": 25650,
          "time": 89.06257125,
          "velocity": 0.5354330708661418
        },
        {
          "duration": 0.10416675000000453,
          "durationTicks": 30,
          "midi": 60,
          "name": "C4",
          "ticks": 25680,
          "time": 89.166738,
          "velocity": 0.5354330708661418
        },
        {
          "duration": 0.10416675000000453,
          "durationTicks": 30,
          "midi": 64,
          "name": "E4",
          "ticks": 25710,
          "time": 89.27090475,
          "velocity": 0.5354330708661418
        },
        {
          "duration": 0.10416675000000453,
          "durationTicks": 30,
          "midi": 67,
          "name": "G4",
          "ticks": 25740,
          "time": 89.3750715,
          "velocity": 0.5354330708661418
        },
        {
          "duration": 0.10416674999999032,
          "durationTicks": 30,
          "midi": 72,
          "name": "C5",
          "ticks": 25770,
          "time": 89.47923825000001,
          "velocity": 0.5354330708661418
        },
        {
          "duration": 0.10416675000000453,
          "durationTicks": 30,
          "midi": 76,
          "name": "E5",
          "ticks": 25800,
          "time": 89.583405,
          "velocity": 0.5354330708661418
        },
        {
          "duration": 0.10416675000000453,
          "durationTicks": 30,
          "midi": 79,
          "name": "G5",
          "ticks": 25830,
          "time": 89.68757175,
          "velocity": 0.5354330708661418
        },
        {
          "duration": 0.10416674999999032,
          "durationTicks": 30,
          "midi": 61,
          "name": "C#4",
          "ticks": 25860,
          "time": 89.79173850000001,
          "velocity": 0.5354330708661418
        },
        {
          "duration": 0.10416675000000453,
          "durationTicks": 30,
          "midi": 66,
          "name": "F#4",
          "ticks": 25890,
          "time": 89.89590525,
          "velocity": 0.5354330708661418
        },
        {
          "duration": 0.10416675000000453,
          "durationTicks": 30,
          "midi": 70,
          "name": "A#4",
          "ticks": 25920,
          "time": 90.000072,
          "velocity": 0.5354330708661418
        },
        {
          "duration": 0.10416674999999032,
          "durationTicks": 30,
          "midi": 73,
          "name": "C#5",
          "ticks": 25950,
          "time": 90.10423875000001,
          "velocity": 0.5354330708661418
        },
        {
          "duration": 0.10416675000000453,
          "durationTicks": 30,
          "midi": 78,
          "name": "F#5",
          "ticks": 25980,
          "time": 90.2084055,
          "velocity": 0.5354330708661418
        },
        {
          "duration": 0.10416675000000453,
          "durationTicks": 30,
          "midi": 82,
          "name": "A#5",
          "ticks": 26010,
          "time": 90.31257225,
          "velocity": 0.5354330708661418
        },
        {
          "duration": 0.10416674999999032,
          "durationTicks": 30,
          "midi": 63,
          "name": "D#4",
          "ticks": 26040,
          "time": 90.416739,
          "velocity": 0.5354330708661418
        },
        {
          "duration": 0.10416675000000453,
          "durationTicks": 30,
          "midi": 66,
          "name": "F#4",
          "ticks": 26070,
          "time": 90.52090575,
          "velocity": 0.5354330708661418
        },
        {
          "duration": 0.10416675000000453,
          "durationTicks": 30,
          "midi": 71,
          "name": "B4",
          "ticks": 26100,
          "time": 90.6250725,
          "velocity": 0.5354330708661418
        },
        {
          "duration": 0.10416674999999032,
          "durationTicks": 30,
          "midi": 75,
          "name": "D#5",
          "ticks": 26130,
          "time": 90.72923925,
          "velocity": 0.5354330708661418
        },
        {
          "duration": 0.10416675000000453,
          "durationTicks": 30,
          "midi": 78,
          "name": "F#5",
          "ticks": 26160,
          "time": 90.833406,
          "velocity": 0.5354330708661418
        },
        {
          "duration": 0.10416675000000453,
          "durationTicks": 30,
          "midi": 83,
          "name": "B5",
          "ticks": 26190,
          "time": 90.93757275,
          "velocity": 0.5354330708661418
        },
        {
          "duration": 0.10416674999999032,
          "durationTicks": 30,
          "midi": 87,
          "name": "D#6",
          "ticks": 26220,
          "time": 91.0417395,
          "velocity": 0.5354330708661418
        },
        {
          "duration": 0.10416675000000453,
          "durationTicks": 30,
          "midi": 83,
          "name": "B5",
          "ticks": 26250,
          "time": 91.14590625,
          "velocity": 0.5354330708661418
        },
        {
          "duration": 0.10416675000000453,
          "durationTicks": 30,
          "midi": 78,
          "name": "F#5",
          "ticks": 26280,
          "time": 91.250073,
          "velocity": 0.5354330708661418
        },
        {
          "duration": 0.10416674999999032,
          "durationTicks": 30,
          "midi": 75,
          "name": "D#5",
          "ticks": 26310,
          "time": 91.35423975,
          "velocity": 0.5354330708661418
        },
        {
          "duration": 0.10416675000000453,
          "durationTicks": 30,
          "midi": 71,
          "name": "B4",
          "ticks": 26340,
          "time": 91.4584065,
          "velocity": 0.5354330708661418
        },
        {
          "duration": 0.10416675000000453,
          "durationTicks": 30,
          "midi": 66,
          "name": "F#4",
          "ticks": 26370,
          "time": 91.56257325,
          "velocity": 0.5354330708661418
        }
      ],
      "endOfTrackTicks": 26400
    },
    {
      "channel": 3,
      "controlChanges": {
        "7": [
          {
            "number": 7,
            "ticks": 0,
            "time": 0,
            "value": 1
          }
        ],
        "10": [
          {
            "number": 10,
            "ticks": 0,
            "time": 0,
            "value": 0.5669291338582677
          }
        ]
      },
      "pitchBends": [],
      "instrument": {
        "family": "piano",
        "number": 5,
        "name": "electric piano 2"
      },
      "name": "Touhou 6: Enbodiment of Scarlet Devil - Shanghai Alice of Meiji 17 ",
      "notes": [
        {
          "duration": 0.6250005000000001,
          "durationTicks": 180,
          "midi": 67,
          "name": "G4",
          "ticks": 0,
          "time": 0,
          "velocity": 0.1968503937007874
        },
        {
          "duration": 0.6250005000000001,
          "durationTicks": 180,
          "midi": 62,
          "name": "D4",
          "ticks": 0,
          "time": 0,
          "velocity": 0.1968503937007874
        },
        {
          "duration": 0.6250005000000001,
          "durationTicks": 180,
          "midi": 67,
          "name": "G4",
          "ticks": 180,
          "time": 0.6250005000000001,
          "velocity": 0.1968503937007874
        },
        {
          "duration": 0.6250005000000001,
          "durationTicks": 180,
          "midi": 63,
          "name": "D#4",
          "ticks": 180,
          "time": 0.6250005000000001,
          "velocity": 0.1968503937007874
        },
        {
          "duration": 0.6250004999999998,
          "durationTicks": 180,
          "midi": 65,
          "name": "F4",
          "ticks": 360,
          "time": 1.2500010000000001,
          "velocity": 0.1968503937007874
        },
        {
          "duration": 0.6250004999999998,
          "durationTicks": 180,
          "midi": 60,
          "name": "C4",
          "ticks": 360,
          "time": 1.2500010000000001,
          "velocity": 0.1968503937007874
        },
        {
          "duration": 0.6250005000000003,
          "durationTicks": 180,
          "midi": 65,
          "name": "F4",
          "ticks": 540,
          "time": 1.8750015,
          "velocity": 0.1968503937007874
        },
        {
          "duration": 0.6250005000000003,
          "durationTicks": 180,
          "midi": 62,
          "name": "D4",
          "ticks": 540,
          "time": 1.8750015,
          "velocity": 0.1968503937007874
        },
        {
          "duration": 0.6250004999999996,
          "durationTicks": 180,
          "midi": 63,
          "name": "D#4",
          "ticks": 720,
          "time": 2.5000020000000003,
          "velocity": 0.1968503937007874
        },
        {
          "duration": 0.6250004999999996,
          "durationTicks": 180,
          "midi": 58,
          "name": "A#3",
          "ticks": 720,
          "time": 2.5000020000000003,
          "velocity": 0.1968503937007874
        },
        {
          "duration": 0.6250005000000001,
          "durationTicks": 180,
          "midi": 63,
          "name": "D#4",
          "ticks": 900,
          "time": 3.1250025,
          "velocity": 0.1968503937007874
        },
        {
          "duration": 0.6250005000000001,
          "durationTicks": 180,
          "midi": 60,
          "name": "C4",
          "ticks": 900,
          "time": 3.1250025,
          "velocity": 0.1968503937007874
        },
        {
          "duration": 1.2500010000000006,
          "durationTicks": 360,
          "midi": 62,
          "name": "D4",
          "ticks": 1080,
          "time": 3.750003,
          "velocity": 0.1968503937007874
        },
        {
          "duration": 1.2500010000000006,
          "durationTicks": 360,
          "midi": 57,
          "name": "A3",
          "ticks": 1080,
          "time": 3.750003,
          "velocity": 0.1968503937007874
        },
        {
          "duration": 0.6250004999999996,
          "durationTicks": 180,
          "midi": 67,
          "name": "G4",
          "ticks": 1440,
          "time": 5.000004000000001,
          "velocity": 0.1968503937007874
        },
        {
          "duration": 0.6250004999999996,
          "durationTicks": 180,
          "midi": 62,
          "name": "D4",
          "ticks": 1440,
          "time": 5.000004000000001,
          "velocity": 0.1968503937007874
        },
        {
          "duration": 0.6250004999999996,
          "durationTicks": 180,
          "midi": 67,
          "name": "G4",
          "ticks": 1620,
          "time": 5.6250045,
          "velocity": 0.1968503937007874
        },
        {
          "duration": 0.6250004999999996,
          "durationTicks": 180,
          "midi": 63,
          "name": "D#4",
          "ticks": 1620,
          "time": 5.6250045,
          "velocity": 0.1968503937007874
        },
        {
          "duration": 0.6250005000000005,
          "durationTicks": 180,
          "midi": 65,
          "name": "F4",
          "ticks": 1800,
          "time": 6.250005,
          "velocity": 0.1968503937007874
        },
        {
          "duration": 0.6250005000000005,
          "durationTicks": 180,
          "midi": 60,
          "name": "C4",
          "ticks": 1800,
          "time": 6.250005,
          "velocity": 0.1968503937007874
        },
        {
          "duration": 0.6250004999999996,
          "durationTicks": 180,
          "midi": 65,
          "name": "F4",
          "ticks": 1980,
          "time": 6.8750055,
          "velocity": 0.1968503937007874
        },
        {
          "duration": 0.6250004999999996,
          "durationTicks": 180,
          "midi": 62,
          "name": "D4",
          "ticks": 1980,
          "time": 6.8750055,
          "velocity": 0.1968503937007874
        },
        {
          "duration": 0.6250004999999996,
          "durationTicks": 180,
          "midi": 63,
          "name": "D#4",
          "ticks": 2160,
          "time": 7.500006,
          "velocity": 0.1968503937007874
        },
        {
          "duration": 0.6250004999999996,
          "durationTicks": 180,
          "midi": 58,
          "name": "A#3",
          "ticks": 2160,
          "time": 7.500006,
          "velocity": 0.1968503937007874
        },
        {
          "duration": 0.6250005000000005,
          "durationTicks": 180,
          "midi": 64,
          "name": "E4",
          "ticks": 2340,
          "time": 8.1250065,
          "velocity": 0.1968503937007874
        },
        {
          "duration": 0.6250005000000005,
          "durationTicks": 180,
          "midi": 61,
          "name": "C#4",
          "ticks": 2340,
          "time": 8.1250065,
          "velocity": 0.1968503937007874
        },
        {
          "duration": 1.250001000000001,
          "durationTicks": 360,
          "midi": 66,
          "name": "F#4",
          "ticks": 2520,
          "time": 8.750007,
          "velocity": 0.1968503937007874
        },
        {
          "duration": 1.250001000000001,
          "durationTicks": 360,
          "midi": 62,
          "name": "D4",
          "ticks": 2520,
          "time": 8.750007,
          "velocity": 0.1968503937007874
        },
        {
          "duration": 0.6250004999999987,
          "durationTicks": 180,
          "midi": 67,
          "name": "G4",
          "ticks": 2880,
          "time": 10.000008000000001,
          "velocity": 0.1968503937007874
        },
        {
          "duration": 0.6250004999999987,
          "durationTicks": 180,
          "midi": 62,
          "name": "D4",
          "ticks": 2880,
          "time": 10.000008000000001,
          "velocity": 0.1968503937007874
        },
        {
          "duration": 0.6250005000000005,
          "durationTicks": 180,
          "midi": 67,
          "name": "G4",
          "ticks": 3060,
          "time": 10.6250085,
          "velocity": 0.1968503937007874
        },
        {
          "duration": 0.6250005000000005,
          "durationTicks": 180,
          "midi": 63,
          "name": "D#4",
          "ticks": 3060,
          "time": 10.6250085,
          "velocity": 0.1968503937007874
        },
        {
          "duration": 0.6250005000000005,
          "durationTicks": 180,
          "midi": 65,
          "name": "F4",
          "ticks": 3240,
          "time": 11.250009,
          "velocity": 0.1968503937007874
        },
        {
          "duration": 0.6250005000000005,
          "durationTicks": 180,
          "midi": 60,
          "name": "C4",
          "ticks": 3240,
          "time": 11.250009,
          "velocity": 0.1968503937007874
        },
        {
          "duration": 0.6250004999999987,
          "durationTicks": 180,
          "midi": 65,
          "name": "F4",
          "ticks": 3420,
          "time": 11.8750095,
          "velocity": 0.1968503937007874
        },
        {
          "duration": 0.6250004999999987,
          "durationTicks": 180,
          "midi": 62,
          "name": "D4",
          "ticks": 3420,
          "time": 11.8750095,
          "velocity": 0.1968503937007874
        },
        {
          "duration": 0.6250005000000005,
          "durationTicks": 180,
          "midi": 63,
          "name": "D#4",
          "ticks": 3600,
          "time": 12.50001,
          "velocity": 0.1968503937007874
        },
        {
          "duration": 0.6250005000000005,
          "durationTicks": 180,
          "midi": 58,
          "name": "A#3",
          "ticks": 3600,
          "time": 12.50001,
          "velocity": 0.1968503937007874
        },
        {
          "duration": 0.6250005000000005,
          "durationTicks": 180,
          "midi": 64,
          "name": "E4",
          "ticks": 3780,
          "time": 13.1250105,
          "velocity": 0.1968503937007874
        },
        {
          "duration": 0.6250005000000005,
          "durationTicks": 180,
          "midi": 61,
          "name": "C#4",
          "ticks": 3780,
          "time": 13.1250105,
          "velocity": 0.1968503937007874
        },
        {
          "duration": 1.2500009999999993,
          "durationTicks": 360,
          "midi": 66,
          "name": "F#4",
          "ticks": 3960,
          "time": 13.750011,
          "velocity": 0.1968503937007874
        },
        {
          "duration": 1.2500009999999993,
          "durationTicks": 360,
          "midi": 62,
          "name": "D4",
          "ticks": 3960,
          "time": 13.750011,
          "velocity": 0.1968503937007874
        },
        {
          "duration": 0.6250005000000005,
          "durationTicks": 180,
          "midi": 67,
          "name": "G4",
          "ticks": 4320,
          "time": 15.000012,
          "velocity": 0.1968503937007874
        },
        {
          "duration": 0.6250005000000005,
          "durationTicks": 180,
          "midi": 62,
          "name": "D4",
          "ticks": 4320,
          "time": 15.000012,
          "velocity": 0.1968503937007874
        },
        {
          "duration": 0.6250004999999987,
          "durationTicks": 180,
          "midi": 67,
          "name": "G4",
          "ticks": 4500,
          "time": 15.6250125,
          "velocity": 0.1968503937007874
        },
        {
          "duration": 0.6250004999999987,
          "durationTicks": 180,
          "midi": 63,
          "name": "D#4",
          "ticks": 4500,
          "time": 15.6250125,
          "velocity": 0.1968503937007874
        },
        {
          "duration": 0.6250005000000023,
          "durationTicks": 180,
          "midi": 65,
          "name": "F4",
          "ticks": 4680,
          "time": 16.250013,
          "velocity": 0.1968503937007874
        },
        {
          "duration": 0.6250005000000023,
          "durationTicks": 180,
          "midi": 60,
          "name": "C4",
          "ticks": 4680,
          "time": 16.250013,
          "velocity": 0.1968503937007874
        },
        {
          "duration": 0.6250004999999987,
          "durationTicks": 180,
          "midi": 65,
          "name": "F4",
          "ticks": 4860,
          "time": 16.8750135,
          "velocity": 0.1968503937007874
        },
        {
          "duration": 0.6250004999999987,
          "durationTicks": 180,
          "midi": 62,
          "name": "D4",
          "ticks": 4860,
          "time": 16.8750135,
          "velocity": 0.1968503937007874
        },
        {
          "duration": 0.6250004999999987,
          "durationTicks": 180,
          "midi": 63,
          "name": "D#4",
          "ticks": 5040,
          "time": 17.500014,
          "velocity": 0.1968503937007874
        },
        {
          "duration": 0.6250004999999987,
          "durationTicks": 180,
          "midi": 58,
          "name": "A#3",
          "ticks": 5040,
          "time": 17.500014,
          "velocity": 0.1968503937007874
        },
        {
          "duration": 0.6250005000000023,
          "durationTicks": 180,
          "midi": 64,
          "name": "E4",
          "ticks": 5220,
          "time": 18.1250145,
          "velocity": 0.1968503937007874
        },
        {
          "duration": 0.6250005000000023,
          "durationTicks": 180,
          "midi": 61,
          "name": "C#4",
          "ticks": 5220,
          "time": 18.1250145,
          "velocity": 0.1968503937007874
        },
        {
          "duration": 1.250001000000001,
          "durationTicks": 360,
          "midi": 66,
          "name": "F#4",
          "ticks": 5400,
          "time": 18.750015,
          "velocity": 0.1968503937007874
        },
        {
          "duration": 1.250001000000001,
          "durationTicks": 360,
          "midi": 62,
          "name": "D4",
          "ticks": 5400,
          "time": 18.750015,
          "velocity": 0.1968503937007874
        },
        {
          "duration": 0.6250004999999987,
          "durationTicks": 180,
          "midi": 67,
          "name": "G4",
          "ticks": 5760,
          "time": 20.000016000000002,
          "velocity": 0.1968503937007874
        },
        {
          "duration": 0.6250004999999987,
          "durationTicks": 180,
          "midi": 62,
          "name": "D4",
          "ticks": 5760,
          "time": 20.000016000000002,
          "velocity": 0.1968503937007874
        },
        {
          "duration": 0.6250004999999987,
          "durationTicks": 180,
          "midi": 67,
          "name": "G4",
          "ticks": 5940,
          "time": 20.6250165,
          "velocity": 0.1968503937007874
        },
        {
          "duration": 0.6250004999999987,
          "durationTicks": 180,
          "midi": 63,
          "name": "D#4",
          "ticks": 5940,
          "time": 20.6250165,
          "velocity": 0.1968503937007874
        },
        {
          "duration": 0.6250005000000023,
          "durationTicks": 180,
          "midi": 65,
          "name": "F4",
          "ticks": 6120,
          "time": 21.250017,
          "velocity": 0.1968503937007874
        },
        {
          "duration": 0.6250005000000023,
          "durationTicks": 180,
          "midi": 60,
          "name": "C4",
          "ticks": 6120,
          "time": 21.250017,
          "velocity": 0.1968503937007874
        },
        {
          "duration": 0.6250004999999987,
          "durationTicks": 180,
          "midi": 65,
          "name": "F4",
          "ticks": 6300,
          "time": 21.875017500000002,
          "velocity": 0.1968503937007874
        },
        {
          "duration": 0.6250004999999987,
          "durationTicks": 180,
          "midi": 62,
          "name": "D4",
          "ticks": 6300,
          "time": 21.875017500000002,
          "velocity": 0.1968503937007874
        },
        {
          "duration": 0.6250004999999987,
          "durationTicks": 180,
          "midi": 63,
          "name": "D#4",
          "ticks": 6480,
          "time": 22.500018,
          "velocity": 0.1968503937007874
        },
        {
          "duration": 0.6250004999999987,
          "durationTicks": 180,
          "midi": 58,
          "name": "A#3",
          "ticks": 6480,
          "time": 22.500018,
          "velocity": 0.1968503937007874
        },
        {
          "duration": 0.6250005000000023,
          "durationTicks": 180,
          "midi": 64,
          "name": "E4",
          "ticks": 6660,
          "time": 23.1250185,
          "velocity": 0.1968503937007874
        },
        {
          "duration": 0.6250005000000023,
          "durationTicks": 180,
          "midi": 61,
          "name": "C#4",
          "ticks": 6660,
          "time": 23.1250185,
          "velocity": 0.1968503937007874
        },
        {
          "duration": 1.2500009999999975,
          "durationTicks": 360,
          "midi": 66,
          "name": "F#4",
          "ticks": 6840,
          "time": 23.750019,
          "velocity": 0.1968503937007874
        },
        {
          "duration": 1.2500009999999975,
          "durationTicks": 360,
          "midi": 62,
          "name": "D4",
          "ticks": 6840,
          "time": 23.750019,
          "velocity": 0.1968503937007874
        },
        {
          "duration": 0.6250005000000023,
          "durationTicks": 180,
          "midi": 67,
          "name": "G4",
          "ticks": 7200,
          "time": 25.00002,
          "velocity": 0.1968503937007874
        },
        {
          "duration": 0.6250005000000023,
          "durationTicks": 180,
          "midi": 62,
          "name": "D4",
          "ticks": 7200,
          "time": 25.00002,
          "velocity": 0.1968503937007874
        },
        {
          "duration": 0.6250004999999987,
          "durationTicks": 180,
          "midi": 67,
          "name": "G4",
          "ticks": 7380,
          "time": 25.6250205,
          "velocity": 0.1968503937007874
        },
        {
          "duration": 0.6250004999999987,
          "durationTicks": 180,
          "midi": 63,
          "name": "D#4",
          "ticks": 7380,
          "time": 25.6250205,
          "velocity": 0.1968503937007874
        },
        {
          "duration": 0.6250004999999987,
          "durationTicks": 180,
          "midi": 65,
          "name": "F4",
          "ticks": 7560,
          "time": 26.250021,
          "velocity": 0.1968503937007874
        },
        {
          "duration": 0.6250004999999987,
          "durationTicks": 180,
          "midi": 60,
          "name": "C4",
          "ticks": 7560,
          "time": 26.250021,
          "velocity": 0.1968503937007874
        },
        {
          "duration": 0.6250005000000023,
          "durationTicks": 180,
          "midi": 65,
          "name": "F4",
          "ticks": 7740,
          "time": 26.8750215,
          "velocity": 0.1968503937007874
        },
        {
          "duration": 0.6250005000000023,
          "durationTicks": 180,
          "midi": 62,
          "name": "D4",
          "ticks": 7740,
          "time": 26.8750215,
          "velocity": 0.1968503937007874
        },
        {
          "duration": 0.6250004999999987,
          "durationTicks": 180,
          "midi": 63,
          "name": "D#4",
          "ticks": 7920,
          "time": 27.500022,
          "velocity": 0.1968503937007874
        },
        {
          "duration": 0.6250004999999987,
          "durationTicks": 180,
          "midi": 58,
          "name": "A#3",
          "ticks": 7920,
          "time": 27.500022,
          "velocity": 0.1968503937007874
        },
        {
          "duration": 0.6250005000000023,
          "durationTicks": 180,
          "midi": 64,
          "name": "E4",
          "ticks": 8100,
          "time": 28.1250225,
          "velocity": 0.1968503937007874
        },
        {
          "duration": 0.6250005000000023,
          "durationTicks": 180,
          "midi": 61,
          "name": "C#4",
          "ticks": 8100,
          "time": 28.1250225,
          "velocity": 0.1968503937007874
        },
        {
          "duration": 1.2500009999999975,
          "durationTicks": 360,
          "midi": 66,
          "name": "F#4",
          "ticks": 8280,
          "time": 28.750023000000002,
          "velocity": 0.1968503937007874
        },
        {
          "duration": 1.2500009999999975,
          "durationTicks": 360,
          "midi": 62,
          "name": "D4",
          "ticks": 8280,
          "time": 28.750023000000002,
          "velocity": 0.1968503937007874
        },
        {
          "duration": 0.6250005000000023,
          "durationTicks": 180,
          "midi": 67,
          "name": "G4",
          "ticks": 8640,
          "time": 30.000024,
          "velocity": 0.1968503937007874
        },
        {
          "duration": 0.6250005000000023,
          "durationTicks": 180,
          "midi": 62,
          "name": "D4",
          "ticks": 8640,
          "time": 30.000024,
          "velocity": 0.1968503937007874
        },
        {
          "duration": 0.6250004999999987,
          "durationTicks": 180,
          "midi": 67,
          "name": "G4",
          "ticks": 8820,
          "time": 30.625024500000002,
          "velocity": 0.1968503937007874
        },
        {
          "duration": 0.6250004999999987,
          "durationTicks": 180,
          "midi": 63,
          "name": "D#4",
          "ticks": 8820,
          "time": 30.625024500000002,
          "velocity": 0.1968503937007874
        },
        {
          "duration": 0.6250004999999987,
          "durationTicks": 180,
          "midi": 65,
          "name": "F4",
          "ticks": 9000,
          "time": 31.250025,
          "velocity": 0.1968503937007874
        },
        {
          "duration": 0.6250004999999987,
          "durationTicks": 180,
          "midi": 60,
          "name": "C4",
          "ticks": 9000,
          "time": 31.250025,
          "velocity": 0.1968503937007874
        },
        {
          "duration": 0.6250004999999987,
          "durationTicks": 180,
          "midi": 65,
          "name": "F4",
          "ticks": 9180,
          "time": 31.8750255,
          "velocity": 0.1968503937007874
        },
        {
          "duration": 0.6250004999999987,
          "durationTicks": 180,
          "midi": 62,
          "name": "D4",
          "ticks": 9180,
          "time": 31.8750255,
          "velocity": 0.1968503937007874
        },
        {
          "duration": 0.6250005000000058,
          "durationTicks": 180,
          "midi": 63,
          "name": "D#4",
          "ticks": 9360,
          "time": 32.500026,
          "velocity": 0.1968503937007874
        },
        {
          "duration": 0.6250005000000058,
          "durationTicks": 180,
          "midi": 58,
          "name": "A#3",
          "ticks": 9360,
          "time": 32.500026,
          "velocity": 0.1968503937007874
        },
        {
          "duration": 0.6250004999999987,
          "durationTicks": 180,
          "midi": 64,
          "name": "E4",
          "ticks": 9540,
          "time": 33.125026500000004,
          "velocity": 0.1968503937007874
        },
        {
          "duration": 0.6250004999999987,
          "durationTicks": 180,
          "midi": 61,
          "name": "C#4",
          "ticks": 9540,
          "time": 33.125026500000004,
          "velocity": 0.1968503937007874
        },
        {
          "duration": 1.2500009999999975,
          "durationTicks": 360,
          "midi": 66,
          "name": "F#4",
          "ticks": 9720,
          "time": 33.750027,
          "velocity": 0.1968503937007874
        },
        {
          "duration": 1.2500009999999975,
          "durationTicks": 360,
          "midi": 62,
          "name": "D4",
          "ticks": 9720,
          "time": 33.750027,
          "velocity": 0.1968503937007874
        },
        {
          "duration": 0.6250004999999987,
          "durationTicks": 180,
          "midi": 67,
          "name": "G4",
          "ticks": 10080,
          "time": 35.000028,
          "velocity": 0.1968503937007874
        },
        {
          "duration": 0.6250004999999987,
          "durationTicks": 180,
          "midi": 62,
          "name": "D4",
          "ticks": 10080,
          "time": 35.000028,
          "velocity": 0.1968503937007874
        },
        {
          "duration": 0.6250004999999987,
          "durationTicks": 180,
          "midi": 67,
          "name": "G4",
          "ticks": 10260,
          "time": 35.6250285,
          "velocity": 0.1968503937007874
        },
        {
          "duration": 0.6250004999999987,
          "durationTicks": 180,
          "midi": 63,
          "name": "D#4",
          "ticks": 10260,
          "time": 35.6250285,
          "velocity": 0.1968503937007874
        },
        {
          "duration": 0.6250005000000058,
          "durationTicks": 180,
          "midi": 65,
          "name": "F4",
          "ticks": 10440,
          "time": 36.250029,
          "velocity": 0.1968503937007874
        },
        {
          "duration": 0.6250005000000058,
          "durationTicks": 180,
          "midi": 60,
          "name": "C4",
          "ticks": 10440,
          "time": 36.250029,
          "velocity": 0.1968503937007874
        },
        {
          "duration": 0.6250004999999987,
          "durationTicks": 180,
          "midi": 65,
          "name": "F4",
          "ticks": 10620,
          "time": 36.875029500000004,
          "velocity": 0.1968503937007874
        },
        {
          "duration": 0.6250004999999987,
          "durationTicks": 180,
          "midi": 62,
          "name": "D4",
          "ticks": 10620,
          "time": 36.875029500000004,
          "velocity": 0.1968503937007874
        },
        {
          "duration": 0.6250004999999987,
          "durationTicks": 180,
          "midi": 63,
          "name": "D#4",
          "ticks": 10800,
          "time": 37.50003,
          "velocity": 0.1968503937007874
        },
        {
          "duration": 0.6250004999999987,
          "durationTicks": 180,
          "midi": 58,
          "name": "A#3",
          "ticks": 10800,
          "time": 37.50003,
          "velocity": 0.1968503937007874
        },
        {
          "duration": 0.6250004999999987,
          "durationTicks": 180,
          "midi": 64,
          "name": "E4",
          "ticks": 10980,
          "time": 38.1250305,
          "velocity": 0.1968503937007874
        },
        {
          "duration": 0.6250004999999987,
          "durationTicks": 180,
          "midi": 61,
          "name": "C#4",
          "ticks": 10980,
          "time": 38.1250305,
          "velocity": 0.1968503937007874
        },
        {
          "duration": 0.8333340000000007,
          "durationTicks": 240,
          "midi": 66,
          "name": "F#4",
          "ticks": 11160,
          "time": 38.750031,
          "velocity": 0.1968503937007874
        },
        {
          "duration": 0.8333340000000007,
          "durationTicks": 240,
          "midi": 62,
          "name": "D4",
          "ticks": 11160,
          "time": 38.750031,
          "velocity": 0.1968503937007874
        },
        {
          "duration": 0.10416674999999742,
          "durationTicks": 30,
          "midi": 74,
          "name": "D5",
          "ticks": 11400,
          "time": 39.583365,
          "velocity": 0.5354330708661418
        },
        {
          "duration": 0.10416674999999742,
          "durationTicks": 30,
          "midi": 70,
          "name": "A#4",
          "ticks": 11400,
          "time": 39.583365,
          "velocity": 0.3937007874015748
        },
        {
          "duration": 0.10416675000000453,
          "durationTicks": 30,
          "midi": 69,
          "name": "A4",
          "ticks": 11430,
          "time": 39.68753175,
          "velocity": 0.3937007874015748
        },
        {
          "duration": 0.10416674999999742,
          "durationTicks": 30,
          "midi": 67,
          "name": "G4",
          "ticks": 11460,
          "time": 39.7916985,
          "velocity": 0.3937007874015748
        },
        {
          "duration": 0.10416675000000453,
          "durationTicks": 30,
          "midi": 65,
          "name": "F4",
          "ticks": 11490,
          "time": 39.89586525,
          "velocity": 0.3937007874015748
        },
        {
          "duration": 0.10416674999999742,
          "durationTicks": 30,
          "midi": 62,
          "name": "D4",
          "ticks": 11520,
          "time": 40.000032000000004,
          "velocity": 0.3937007874015748
        },
        {
          "duration": 0.10416674999999742,
          "durationTicks": 30,
          "midi": 55,
          "name": "G3",
          "ticks": 11550,
          "time": 40.10419875,
          "velocity": 0.3937007874015748
        },
        {
          "duration": 0.10416675000000453,
          "durationTicks": 30,
          "midi": 65,
          "name": "F4",
          "ticks": 11580,
          "time": 40.2083655,
          "velocity": 0.3937007874015748
        },
        {
          "duration": 0.10416674999999742,
          "durationTicks": 30,
          "midi": 57,
          "name": "A3",
          "ticks": 11610,
          "time": 40.312532250000004,
          "velocity": 0.3937007874015748
        },
        {
          "duration": 0.10416674999999742,
          "durationTicks": 30,
          "midi": 67,
          "name": "G4",
          "ticks": 11640,
          "time": 40.416699,
          "velocity": 0.3937007874015748
        },
        {
          "duration": 0.10416675000000453,
          "durationTicks": 30,
          "midi": 58,
          "name": "A#3",
          "ticks": 11670,
          "time": 40.52086575,
          "velocity": 0.3937007874015748
        },
        {
          "duration": 0.10416674999999742,
          "durationTicks": 30,
          "midi": 69,
          "name": "A4",
          "ticks": 11700,
          "time": 40.6250325,
          "velocity": 0.3937007874015748
        },
        {
          "duration": 0.10416674999999742,
          "durationTicks": 30,
          "midi": 60,
          "name": "C4",
          "ticks": 11730,
          "time": 40.72919925,
          "velocity": 0.3937007874015748
        },
        {
          "duration": 0.4166670000000039,
          "durationTicks": 120,
          "midi": 70,
          "name": "A#4",
          "ticks": 11760,
          "time": 40.833366,
          "velocity": 0.3937007874015748
        },
        {
          "duration": 0.20833350000000195,
          "durationTicks": 60,
          "midi": 67,
          "name": "G4",
          "ticks": 11880,
          "time": 41.250033,
          "velocity": 0.3937007874015748
        },
        {
          "duration": 0.20833349999999484,
          "durationTicks": 60,
          "midi": 69,
          "name": "A4",
          "ticks": 11940,
          "time": 41.458366500000004,
          "velocity": 0.3937007874015748
        },
        {
          "duration": 0.20833350000000195,
          "durationTicks": 60,
          "midi": 74,
          "name": "D5",
          "ticks": 12000,
          "time": 41.6667,
          "velocity": 0.3937007874015748
        },
        {
          "duration": 0.20833350000000195,
          "durationTicks": 60,
          "midi": 67,
          "name": "G4",
          "ticks": 12060,
          "time": 41.8750335,
          "velocity": 0.3937007874015748
        },
        {
          "duration": 0.20833349999999484,
          "durationTicks": 60,
          "midi": 74,
          "name": "D5",
          "ticks": 12120,
          "time": 42.083367,
          "velocity": 0.3937007874015748
        },
        {
          "duration": 0.20833350000000195,
          "durationTicks": 60,
          "midi": 72,
          "name": "C5",
          "ticks": 12180,
          "time": 42.2917005,
          "velocity": 0.3937007874015748
        },
        {
          "duration": 0.20833350000000195,
          "durationTicks": 60,
          "midi": 70,
          "name": "A#4",
          "ticks": 12240,
          "time": 42.500034,
          "velocity": 0.3937007874015748
        },
        {
          "duration": 0.20833350000000195,
          "durationTicks": 60,
          "midi": 69,
          "name": "A4",
          "ticks": 12300,
          "time": 42.7083675,
          "velocity": 0.3937007874015748
        },
        {
          "duration": 0.20833349999999484,
          "durationTicks": 60,
          "midi": 62,
          "name": "D4",
          "ticks": 12360,
          "time": 42.916701,
          "velocity": 0.3937007874015748
        },
        {
          "duration": 0.20833350000000195,
          "durationTicks": 60,
          "midi": 65,
          "name": "F4",
          "ticks": 12420,
          "time": 43.1250345,
          "velocity": 0.3937007874015748
        },
        {
          "duration": 0.4166670000000039,
          "durationTicks": 120,
          "midi": 67,
          "name": "G4",
          "ticks": 12480,
          "time": 43.333368,
          "velocity": 0.3937007874015748
        },
        {
          "duration": 0.4166669999999968,
          "durationTicks": 120,
          "midi": 60,
          "name": "C4",
          "ticks": 12600,
          "time": 43.750035000000004,
          "velocity": 0.3937007874015748
        },
        {
          "duration": 0.31250024999999937,
          "durationTicks": 90,
          "midi": 69,
          "name": "A4",
          "ticks": 12720,
          "time": 44.166702,
          "velocity": 0.3937007874015748
        },
        {
          "duration": 0.31250024999999937,
          "durationTicks": 90,
          "midi": 66,
          "name": "F#4",
          "ticks": 12810,
          "time": 44.47920225,
          "velocity": 0.3937007874015748
        },
        {
          "duration": 0.20833350000000195,
          "durationTicks": 60,
          "midi": 62,
          "name": "D4",
          "ticks": 12900,
          "time": 44.7917025,
          "velocity": 0.3937007874015748
        },
        {
          "duration": 0.20833350000000195,
          "durationTicks": 60,
          "midi": 70,
          "name": "A#4",
          "ticks": 12960,
          "time": 45.000036,
          "velocity": 0.3937007874015748
        },
        {
          "duration": 0.20833349999999484,
          "durationTicks": 60,
          "midi": 62,
          "name": "D4",
          "ticks": 13020,
          "time": 45.2083695,
          "velocity": 0.3937007874015748
        },
        {
          "duration": 0.20833350000000195,
          "durationTicks": 60,
          "midi": 69,
          "name": "A4",
          "ticks": 13080,
          "time": 45.416703,
          "velocity": 0.3937007874015748
        },
        {
          "duration": 0.20833350000000195,
          "durationTicks": 60,
          "midi": 70,
          "name": "A#4",
          "ticks": 13140,
          "time": 45.6250365,
          "velocity": 0.3937007874015748
        },
        {
          "duration": 0.20833350000000195,
          "durationTicks": 60,
          "midi": 72,
          "name": "C5",
          "ticks": 13200,
          "time": 45.83337,
          "velocity": 0.3937007874015748
        },
        {
          "duration": 0.20833349999999484,
          "durationTicks": 60,
          "midi": 65,
          "name": "F4",
          "ticks": 13260,
          "time": 46.041703500000004,
          "velocity": 0.3937007874015748
        },
        {
          "duration": 0.10416675000000453,
          "durationTicks": 30,
          "midi": 77,
          "name": "F5",
          "ticks": 13320,
          "time": 46.250037,
          "velocity": 0.3937007874015748
        },
        {
          "duration": 0.10416674999999742,
          "durationTicks": 30,
          "midi": 72,
          "name": "C5",
          "ticks": 13350,
          "time": 46.35420375,
          "velocity": 0.3937007874015748
        },
        {
          "duration": 0.10416674999999742,
          "durationTicks": 30,
          "midi": 70,
          "name": "A#4",
          "ticks": 13380,
          "time": 46.4583705,
          "velocity": 0.3937007874015748
        },
        {
          "duration": 0.10416675000000453,
          "durationTicks": 30,
          "midi": 69,
          "name": "A4",
          "ticks": 13410,
          "time": 46.56253725,
          "velocity": 0.3937007874015748
        },
        {
          "duration": 0.10416674999999742,
          "durationTicks": 30,
          "midi": 62,
          "name": "D4",
          "ticks": 13440,
          "time": 46.666704,
          "velocity": 0.3937007874015748
        },
        {
          "duration": 0.10416674999999742,
          "durationTicks": 30,
          "midi": 55,
          "name": "G3",
          "ticks": 13470,
          "time": 46.77087075,
          "velocity": 0.3937007874015748
        },
        {
          "duration": 0.10416675000000453,
          "durationTicks": 30,
          "midi": 65,
          "name": "F4",
          "ticks": 13500,
          "time": 46.8750375,
          "velocity": 0.3937007874015748
        },
        {
          "duration": 0.10416674999999742,
          "durationTicks": 30,
          "midi": 57,
          "name": "A3",
          "ticks": 13530,
          "time": 46.97920425,
          "velocity": 0.3937007874015748
        },
        {
          "duration": 0.10416675000000453,
          "durationTicks": 30,
          "midi": 67,
          "name": "G4",
          "ticks": 13560,
          "time": 47.083371,
          "velocity": 0.3937007874015748
        },
        {
          "duration": 0.10416674999999742,
          "durationTicks": 30,
          "midi": 58,
          "name": "A#3",
          "ticks": 13590,
          "time": 47.187537750000004,
          "velocity": 0.3937007874015748
        },
        {
          "duration": 0.10416674999999742,
          "durationTicks": 30,
          "midi": 69,
          "name": "A4",
          "ticks": 13620,
          "time": 47.2917045,
          "velocity": 0.3937007874015748
        },
        {
          "duration": 0.10416675000000453,
          "durationTicks": 30,
          "midi": 60,
          "name": "C4",
          "ticks": 13650,
          "time": 47.39587125,
          "velocity": 0.3937007874015748
        },
        {
          "duration": 0.4166669999999968,
          "durationTicks": 120,
          "midi": 70,
          "name": "A#4",
          "ticks": 13680,
          "time": 47.500038,
          "velocity": 0.3937007874015748
        },
        {
          "duration": 0.20833350000000195,
          "durationTicks": 60,
          "midi": 67,
          "name": "G4",
          "ticks": 13800,
          "time": 47.916705,
          "velocity": 0.3937007874015748
        },
        {
          "duration": 0.20833350000000195,
          "durationTicks": 60,
          "midi": 69,
          "name": "A4",
          "ticks": 13860,
          "time": 48.1250385,
          "velocity": 0.3937007874015748
        },
        {
          "duration": 0.20833349999999484,
          "durationTicks": 60,
          "midi": 74,
          "name": "D5",
          "ticks": 13920,
          "time": 48.333372000000004,
          "velocity": 0.3937007874015748
        },
        {
          "duration": 0.20833350000000195,
          "durationTicks": 60,
          "midi": 67,
          "name": "G4",
          "ticks": 13980,
          "time": 48.5417055,
          "velocity": 0.3937007874015748
        },
        {
          "duration": 0.20833350000000195,
          "durationTicks": 60,
          "midi": 74,
          "name": "D5",
          "ticks": 14040,
          "time": 48.750039,
          "velocity": 0.3937007874015748
        },
        {
          "duration": 0.20833349999999484,
          "durationTicks": 60,
          "midi": 72,
          "name": "C5",
          "ticks": 14100,
          "time": 48.9583725,
          "velocity": 0.3937007874015748
        },
        {
          "duration": 0.20833350000000195,
          "durationTicks": 60,
          "midi": 70,
          "name": "A#4",
          "ticks": 14160,
          "time": 49.166706,
          "velocity": 0.3937007874015748
        },
        {
          "duration": 0.20833350000000195,
          "durationTicks": 60,
          "midi": 69,
          "name": "A4",
          "ticks": 14220,
          "time": 49.3750395,
          "velocity": 0.3937007874015748
        },
        {
          "duration": 0.20833350000000195,
          "durationTicks": 60,
          "midi": 62,
          "name": "D4",
          "ticks": 14280,
          "time": 49.583373,
          "velocity": 0.3937007874015748
        },
        {
          "duration": 0.20833349999999484,
          "durationTicks": 60,
          "midi": 65,
          "name": "F4",
          "ticks": 14340,
          "time": 49.791706500000004,
          "velocity": 0.3937007874015748
        },
        {
          "duration": 0.4166670000000039,
          "durationTicks": 120,
          "midi": 67,
          "name": "G4",
          "ticks": 14400,
          "time": 50.00004,
          "velocity": 0.3937007874015748
        },
        {
          "duration": 0.4166669999999968,
          "durationTicks": 120,
          "midi": 60,
          "name": "C4",
          "ticks": 14520,
          "time": 50.416707,
          "velocity": 0.3937007874015748
        },
        {
          "duration": 0.31250024999999937,
          "durationTicks": 90,
          "midi": 69,
          "name": "A4",
          "ticks": 14640,
          "time": 50.833374,
          "velocity": 0.3937007874015748
        },
        {
          "duration": 0.31250024999999937,
          "durationTicks": 90,
          "midi": 66,
          "name": "F#4",
          "ticks": 14730,
          "time": 51.14587425,
          "velocity": 0.3937007874015748
        },
        {
          "duration": 0.20833350000000195,
          "durationTicks": 60,
          "midi": 62,
          "name": "D4",
          "ticks": 14820,
          "time": 51.4583745,
          "velocity": 0.3937007874015748
        },
        {
          "duration": 0.20833350000000195,
          "durationTicks": 60,
          "midi": 70,
          "name": "A#4",
          "ticks": 14880,
          "time": 51.666708,
          "velocity": 0.3937007874015748
        },
        {
          "duration": 0.20833350000000195,
          "durationTicks": 60,
          "midi": 62,
          "name": "D4",
          "ticks": 14940,
          "time": 51.8750415,
          "velocity": 0.3937007874015748
        },
        {
          "duration": 0.20833349999999484,
          "durationTicks": 60,
          "midi": 69,
          "name": "A4",
          "ticks": 15000,
          "time": 52.083375000000004,
          "velocity": 0.3937007874015748
        },
        {
          "duration": 0.20833350000000195,
          "durationTicks": 60,
          "midi": 70,
          "name": "A#4",
          "ticks": 15060,
          "time": 52.2917085,
          "velocity": 0.3937007874015748
        },
        {
          "duration": 0.20833350000000195,
          "durationTicks": 60,
          "midi": 72,
          "name": "C5",
          "ticks": 15120,
          "time": 52.500042,
          "velocity": 0.3937007874015748
        },
        {
          "duration": 0.20833350000000195,
          "durationTicks": 60,
          "midi": 65,
          "name": "F4",
          "ticks": 15180,
          "time": 52.7083755,
          "velocity": 0.3937007874015748
        },
        {
          "duration": 0.10416674999999742,
          "durationTicks": 30,
          "midi": 77,
          "name": "F5",
          "ticks": 15240,
          "time": 52.916709000000004,
          "velocity": 0.3937007874015748
        },
        {
          "duration": 0.10416674999999742,
          "durationTicks": 30,
          "midi": 72,
          "name": "C5",
          "ticks": 15270,
          "time": 53.02087575,
          "velocity": 0.3937007874015748
        },
        {
          "duration": 0.10416675000000453,
          "durationTicks": 30,
          "midi": 70,
          "name": "A#4",
          "ticks": 15300,
          "time": 53.1250425,
          "velocity": 0.3937007874015748
        },
        {
          "duration": 0.10416674999999742,
          "durationTicks": 30,
          "midi": 69,
          "name": "A4",
          "ticks": 15330,
          "time": 53.229209250000004,
          "velocity": 0.3937007874015748
        },
        {
          "duration": 0.10416674999999742,
          "durationTicks": 30,
          "midi": 71,
          "name": "B4",
          "ticks": 15360,
          "time": 53.333376,
          "velocity": 0.3937007874015748
        },
        {
          "duration": 0.10416675000000453,
          "durationTicks": 30,
          "midi": 64,
          "name": "E4",
          "ticks": 15390,
          "time": 53.43754275,
          "velocity": 0.3937007874015748
        },
        {
          "duration": 0.10416674999999742,
          "durationTicks": 30,
          "midi": 74,
          "name": "D5",
          "ticks": 15420,
          "time": 53.5417095,
          "velocity": 0.3937007874015748
        },
        {
          "duration": 0.10416674999999742,
          "durationTicks": 30,
          "midi": 66,
          "name": "F#4",
          "ticks": 15450,
          "time": 53.64587625,
          "velocity": 0.3937007874015748
        },
        {
          "duration": 0.10416675000000453,
          "durationTicks": 30,
          "midi": 76,
          "name": "E5",
          "ticks": 15480,
          "time": 53.750043,
          "velocity": 0.3937007874015748
        },
        {
          "duration": 0.10416674999999742,
          "durationTicks": 30,
          "midi": 67,
          "name": "G4",
          "ticks": 15510,
          "time": 53.85420975,
          "velocity": 0.3937007874015748
        },
        {
          "duration": 0.10416675000000453,
          "durationTicks": 30,
          "midi": 78,
          "name": "F#5",
          "ticks": 15540,
          "time": 53.9583765,
          "velocity": 0.3937007874015748
        },
        {
          "duration": 0.10416674999999742,
          "durationTicks": 30,
          "midi": 69,
          "name": "A4",
          "ticks": 15570,
          "time": 54.062543250000004,
          "velocity": 0.3937007874015748
        },
        {
          "duration": 0.4166669999999968,
          "durationTicks": 120,
          "midi": 79,
          "name": "G5",
          "ticks": 15600,
          "time": 54.16671,
          "velocity": 0.3937007874015748
        },
        {
          "duration": 0.20833350000000195,
          "durationTicks": 60,
          "midi": 76,
          "name": "E5",
          "ticks": 15720,
          "time": 54.583377,
          "velocity": 0.3937007874015748
        },
        {
          "duration": 0.20833350000000195,
          "durationTicks": 60,
          "midi": 78,
          "name": "F#5",
          "ticks": 15780,
          "time": 54.7917105,
          "velocity": 0.3937007874015748
        },
        {
          "duration": 0.20833350000000195,
          "durationTicks": 60,
          "midi": 83,
          "name": "B5",
          "ticks": 15840,
          "time": 55.000044,
          "velocity": 0.3937007874015748
        },
        {
          "duration": 0.20833349999999484,
          "durationTicks": 60,
          "midi": 76,
          "name": "E5",
          "ticks": 15900,
          "time": 55.208377500000005,
          "velocity": 0.3937007874015748
        },
        {
          "duration": 0.20833350000000195,
          "durationTicks": 60,
          "midi": 83,
          "name": "B5",
          "ticks": 15960,
          "time": 55.416711,
          "velocity": 0.3937007874015748
        },
        {
          "duration": 0.20833350000000195,
          "durationTicks": 60,
          "midi": 81,
          "name": "A5",
          "ticks": 16020,
          "time": 55.6250445,
          "velocity": 0.3937007874015748
        },
        {
          "duration": 0.20833349999999484,
          "durationTicks": 60,
          "midi": 79,
          "name": "G5",
          "ticks": 16080,
          "time": 55.833378,
          "velocity": 0.3937007874015748
        },
        {
          "duration": 0.20833350000000195,
          "durationTicks": 60,
          "midi": 78,
          "name": "F#5",
          "ticks": 16140,
          "time": 56.0417115,
          "velocity": 0.3937007874015748
        },
        {
          "duration": 0.20833350000000195,
          "durationTicks": 60,
          "midi": 71,
          "name": "B4",
          "ticks": 16200,
          "time": 56.250045,
          "velocity": 0.3937007874015748
        },
        {
          "duration": 0.20833350000000195,
          "durationTicks": 60,
          "midi": 74,
          "name": "D5",
          "ticks": 16260,
          "time": 56.4583785,
          "velocity": 0.3937007874015748
        },
        {
          "duration": 0.4166669999999968,
          "durationTicks": 120,
          "midi": 76,
          "name": "E5",
          "ticks": 16320,
          "time": 56.666712000000004,
          "velocity": 0.3937007874015748
        },
        {
          "duration": 0.4166670000000039,
          "durationTicks": 120,
          "midi": 69,
          "name": "A4",
          "ticks": 16440,
          "time": 57.083379,
          "velocity": 0.3937007874015748
        },
        {
          "duration": 0.31250024999999937,
          "durationTicks": 90,
          "midi": 78,
          "name": "F#5",
          "ticks": 16560,
          "time": 57.500046000000005,
          "velocity": 0.3937007874015748
        },
        {
          "duration": 0.31250024999999937,
          "durationTicks": 90,
          "midi": 75,
          "name": "D#5",
          "ticks": 16650,
          "time": 57.812546250000004,
          "velocity": 0.3937007874015748
        },
        {
          "duration": 0.20833349999999484,
          "durationTicks": 60,
          "midi": 71,
          "name": "B4",
          "ticks": 16740,
          "time": 58.1250465,
          "velocity": 0.3937007874015748
        },
        {
          "duration": 0.20833350000000195,
          "durationTicks": 60,
          "midi": 79,
          "name": "G5",
          "ticks": 16800,
          "time": 58.33338,
          "velocity": 0.3937007874015748
        },
        {
          "duration": 0.20833350000000195,
          "durationTicks": 60,
          "midi": 71,
          "name": "B4",
          "ticks": 16860,
          "time": 58.5417135,
          "velocity": 0.3937007874015748
        },
        {
          "duration": 0.20833350000000195,
          "durationTicks": 60,
          "midi": 78,
          "name": "F#5",
          "ticks": 16920,
          "time": 58.750047,
          "velocity": 0.3937007874015748
        },
        {
          "duration": 0.20833349999999484,
          "durationTicks": 60,
          "midi": 79,
          "name": "G5",
          "ticks": 16980,
          "time": 58.958380500000004,
          "velocity": 0.3937007874015748
        },
        {
          "duration": 0.20833350000000195,
          "durationTicks": 60,
          "midi": 81,
          "name": "A5",
          "ticks": 17040,
          "time": 59.166714,
          "velocity": 0.3937007874015748
        },
        {
          "duration": 0.20833350000000195,
          "durationTicks": 60,
          "midi": 74,
          "name": "D5",
          "ticks": 17100,
          "time": 59.3750475,
          "velocity": 0.3937007874015748
        },
        {
          "duration": 0.10416674999999742,
          "durationTicks": 30,
          "midi": 86,
          "name": "D6",
          "ticks": 17160,
          "time": 59.583381,
          "velocity": 0.3937007874015748
        },
        {
          "duration": 0.10416675000000453,
          "durationTicks": 30,
          "midi": 81,
          "name": "A5",
          "ticks": 17190,
          "time": 59.68754775,
          "velocity": 0.3937007874015748
        },
        {
          "duration": 0.10416674999999742,
          "durationTicks": 30,
          "midi": 79,
          "name": "G5",
          "ticks": 17220,
          "time": 59.791714500000005,
          "velocity": 0.3937007874015748
        },
        {
          "duration": 0.10416674999999742,
          "durationTicks": 30,
          "midi": 78,
          "name": "F#5",
          "ticks": 17250,
          "time": 59.89588125,
          "velocity": 0.3937007874015748
        },
        {
          "duration": 0.10416675000000453,
          "durationTicks": 30,
          "midi": 71,
          "name": "B4",
          "ticks": 17280,
          "time": 60.000048,
          "velocity": 0.3937007874015748
        },
        {
          "duration": 0.10416674999999742,
          "durationTicks": 30,
          "midi": 64,
          "name": "E4",
          "ticks": 17310,
          "time": 60.104214750000004,
          "velocity": 0.3937007874015748
        },
        {
          "duration": 0.10416674999999742,
          "durationTicks": 30,
          "midi": 74,
          "name": "D5",
          "ticks": 17340,
          "time": 60.2083815,
          "velocity": 0.3937007874015748
        },
        {
          "duration": 0.10416675000000453,
          "durationTicks": 30,
          "midi": 66,
          "name": "F#4",
          "ticks": 17370,
          "time": 60.31254825,
          "velocity": 0.3937007874015748
        },
        {
          "duration": 0.10416674999999742,
          "durationTicks": 30,
          "midi": 76,
          "name": "E5",
          "ticks": 17400,
          "time": 60.416715,
          "velocity": 0.3937007874015748
        },
        {
          "duration": 0.10416674999999742,
          "durationTicks": 30,
          "midi": 67,
          "name": "G4",
          "ticks": 17430,
          "time": 60.52088175,
          "velocity": 0.3937007874015748
        },
        {
          "duration": 0.10416675000000453,
          "durationTicks": 30,
          "midi": 78,
          "name": "F#5",
          "ticks": 17460,
          "time": 60.6250485,
          "velocity": 0.3937007874015748
        },
        {
          "duration": 0.10416674999999742,
          "durationTicks": 30,
          "midi": 69,
          "name": "A4",
          "ticks": 17490,
          "time": 60.72921525,
          "velocity": 0.3937007874015748
        },
        {
          "duration": 0.4166670000000039,
          "durationTicks": 120,
          "midi": 79,
          "name": "G5",
          "ticks": 17520,
          "time": 60.833382,
          "velocity": 0.3937007874015748
        },
        {
          "duration": 0.20833349999999484,
          "durationTicks": 60,
          "midi": 76,
          "name": "E5",
          "ticks": 17640,
          "time": 61.250049000000004,
          "velocity": 0.3937007874015748
        },
        {
          "duration": 0.20833350000000195,
          "durationTicks": 60,
          "midi": 78,
          "name": "F#5",
          "ticks": 17700,
          "time": 61.4583825,
          "velocity": 0.3937007874015748
        },
        {
          "duration": 0.20833350000000195,
          "durationTicks": 60,
          "midi": 83,
          "name": "B5",
          "ticks": 17760,
          "time": 61.666716,
          "velocity": 0.3937007874015748
        },
        {
          "duration": 0.20833350000000195,
          "durationTicks": 60,
          "midi": 76,
          "name": "E5",
          "ticks": 17820,
          "time": 61.8750495,
          "velocity": 0.3937007874015748
        },
        {
          "duration": 0.20833349999999484,
          "durationTicks": 60,
          "midi": 83,
          "name": "B5",
          "ticks": 17880,
          "time": 62.083383000000005,
          "velocity": 0.3937007874015748
        },
        {
          "duration": 0.20833350000000195,
          "durationTicks": 60,
          "midi": 81,
          "name": "A5",
          "ticks": 17940,
          "time": 62.2917165,
          "velocity": 0.3937007874015748
        },
        {
          "duration": 0.20833350000000195,
          "durationTicks": 60,
          "midi": 79,
          "name": "G5",
          "ticks": 18000,
          "time": 62.50005,
          "velocity": 0.3937007874015748
        },
        {
          "duration": 0.20833349999999484,
          "durationTicks": 60,
          "midi": 78,
          "name": "F#5",
          "ticks": 18060,
          "time": 62.708383500000004,
          "velocity": 0.3937007874015748
        },
        {
          "duration": 0.20833350000000195,
          "durationTicks": 60,
          "midi": 71,
          "name": "B4",
          "ticks": 18120,
          "time": 62.916717,
          "velocity": 0.3937007874015748
        },
        {
          "duration": 0.20833350000000195,
          "durationTicks": 60,
          "midi": 74,
          "name": "D5",
          "ticks": 18180,
          "time": 63.1250505,
          "velocity": 0.3937007874015748
        },
        {
          "duration": 0.4166669999999968,
          "durationTicks": 120,
          "midi": 76,
          "name": "E5",
          "ticks": 18240,
          "time": 63.333384,
          "velocity": 0.3937007874015748
        },
        {
          "duration": 0.4166670000000039,
          "durationTicks": 120,
          "midi": 69,
          "name": "A4",
          "ticks": 18360,
          "time": 63.750051,
          "velocity": 0.3937007874015748
        },
        {
          "duration": 0.31250024999999937,
          "durationTicks": 90,
          "midi": 78,
          "name": "F#5",
          "ticks": 18480,
          "time": 64.166718,
          "velocity": 0.3937007874015748
        },
        {
          "duration": 0.31250024999999937,
          "durationTicks": 90,
          "midi": 75,
          "name": "D#5",
          "ticks": 18570,
          "time": 64.47921825,
          "velocity": 0.3937007874015748
        },
        {
          "duration": 0.20833349999999484,
          "durationTicks": 60,
          "midi": 71,
          "name": "B4",
          "ticks": 18660,
          "time": 64.7917185,
          "velocity": 0.3937007874015748
        },
        {
          "duration": 0.20833350000000905,
          "durationTicks": 60,
          "midi": 79,
          "name": "G5",
          "ticks": 18720,
          "time": 65.000052,
          "velocity": 0.3937007874015748
        },
        {
          "duration": 0.20833349999999484,
          "durationTicks": 60,
          "midi": 71,
          "name": "B4",
          "ticks": 18780,
          "time": 65.2083855,
          "velocity": 0.3937007874015748
        },
        {
          "duration": 0.20833349999999484,
          "durationTicks": 60,
          "midi": 78,
          "name": "F#5",
          "ticks": 18840,
          "time": 65.416719,
          "velocity": 0.3937007874015748
        },
        {
          "duration": 0.20833350000000905,
          "durationTicks": 60,
          "midi": 79,
          "name": "G5",
          "ticks": 18900,
          "time": 65.6250525,
          "velocity": 0.3937007874015748
        },
        {
          "duration": 0.20833349999999484,
          "durationTicks": 60,
          "midi": 81,
          "name": "A5",
          "ticks": 18960,
          "time": 65.833386,
          "velocity": 0.3937007874015748
        },
        {
          "duration": 0.20833350000000905,
          "durationTicks": 60,
          "midi": 74,
          "name": "D5",
          "ticks": 19020,
          "time": 66.0417195,
          "velocity": 0.3937007874015748
        },
        {
          "duration": 0.10416674999999032,
          "durationTicks": 30,
          "midi": 86,
          "name": "D6",
          "ticks": 19080,
          "time": 66.25005300000001,
          "velocity": 0.3937007874015748
        },
        {
          "duration": 0.10416675000000453,
          "durationTicks": 30,
          "midi": 81,
          "name": "A5",
          "ticks": 19110,
          "time": 66.35421975,
          "velocity": 0.3937007874015748
        },
        {
          "duration": 0.10416675000000453,
          "durationTicks": 30,
          "midi": 79,
          "name": "G5",
          "ticks": 19140,
          "time": 66.4583865,
          "velocity": 0.3937007874015748
        },
        {
          "duration": 0.10416674999999032,
          "durationTicks": 30,
          "midi": 78,
          "name": "F#5",
          "ticks": 19170,
          "time": 66.56255325000001,
          "velocity": 0.3937007874015748
        },
        {
          "duration": 0.10416675000000453,
          "durationTicks": 30,
          "midi": 71,
          "name": "B4",
          "ticks": 19200,
          "time": 66.66672,
          "velocity": 0.3937007874015748
        },
        {
          "duration": 0.10416675000000453,
          "durationTicks": 30,
          "midi": 64,
          "name": "E4",
          "ticks": 19230,
          "time": 66.77088675,
          "velocity": 0.3937007874015748
        },
        {
          "duration": 0.10416674999999032,
          "durationTicks": 30,
          "midi": 74,
          "name": "D5",
          "ticks": 19260,
          "time": 66.8750535,
          "velocity": 0.3937007874015748
        },
        {
          "duration": 0.10416675000000453,
          "durationTicks": 30,
          "midi": 66,
          "name": "F#4",
          "ticks": 19290,
          "time": 66.97922025,
          "velocity": 0.3937007874015748
        },
        {
          "duration": 0.10416675000000453,
          "durationTicks": 30,
          "midi": 76,
          "name": "E5",
          "ticks": 19320,
          "time": 67.083387,
          "velocity": 0.3937007874015748
        },
        {
          "duration": 0.10416674999999032,
          "durationTicks": 30,
          "midi": 67,
          "name": "G4",
          "ticks": 19350,
          "time": 67.18755375,
          "velocity": 0.3937007874015748
        },
        {
          "duration": 0.10416675000000453,
          "durationTicks": 30,
          "midi": 78,
          "name": "F#5",
          "ticks": 19380,
          "time": 67.2917205,
          "velocity": 0.3937007874015748
        },
        {
          "duration": 0.10416675000000453,
          "durationTicks": 30,
          "midi": 69,
          "name": "A4",
          "ticks": 19410,
          "time": 67.39588725,
          "velocity": 0.3937007874015748
        },
        {
          "duration": 0.4166669999999897,
          "durationTicks": 120,
          "midi": 79,
          "name": "G5",
          "ticks": 19440,
          "time": 67.500054,
          "velocity": 0.3937007874015748
        },
        {
          "duration": 0.20833350000000905,
          "durationTicks": 60,
          "midi": 76,
          "name": "E5",
          "ticks": 19560,
          "time": 67.916721,
          "velocity": 0.3937007874015748
        },
        {
          "duration": 0.20833349999999484,
          "durationTicks": 60,
          "midi": 78,
          "name": "F#5",
          "ticks": 19620,
          "time": 68.1250545,
          "velocity": 0.3937007874015748
        },
        {
          "duration": 0.31250024999999937,
          "durationTicks": 90,
          "midi": 76,
          "name": "E5",
          "ticks": 19680,
          "time": 68.333388,
          "velocity": 0.3937007874015748
        },
        {
          "duration": 0.31250024999999937,
          "durationTicks": 90,
          "midi": 83,
          "name": "B5",
          "ticks": 19770,
          "time": 68.64588825,
          "velocity": 0.3937007874015748
        },
        {
          "duration": 0.10416675000000453,
          "durationTicks": 30,
          "midi": 81,
          "name": "A5",
          "ticks": 19860,
          "time": 68.9583885,
          "velocity": 0.3937007874015748
        },
        {
          "duration": 0.10416675000000453,
          "durationTicks": 30,
          "midi": 79,
          "name": "G5",
          "ticks": 19890,
          "time": 69.06255525,
          "velocity": 0.3937007874015748
        },
        {
          "duration": 0.10416674999999032,
          "durationTicks": 30,
          "midi": 78,
          "name": "F#5",
          "ticks": 19920,
          "time": 69.16672200000001,
          "velocity": 0.3937007874015748
        },
        {
          "duration": 0.10416675000000453,
          "durationTicks": 30,
          "midi": 74,
          "name": "D5",
          "ticks": 19950,
          "time": 69.27088875,
          "velocity": 0.3937007874015748
        },
        {
          "duration": 0.10416675000000453,
          "durationTicks": 30,
          "midi": 76,
          "name": "E5",
          "ticks": 19980,
          "time": 69.3750555,
          "velocity": 0.3937007874015748
        },
        {
          "duration": 0.10416674999999032,
          "durationTicks": 30,
          "midi": 71,
          "name": "B4",
          "ticks": 20010,
          "time": 69.47922225,
          "velocity": 0.3937007874015748
        },
        {
          "duration": 0.10416675000000453,
          "durationTicks": 30,
          "midi": 74,
          "name": "D5",
          "ticks": 20040,
          "time": 69.583389,
          "velocity": 0.3937007874015748
        },
        {
          "duration": 0.10416675000000453,
          "durationTicks": 30,
          "midi": 69,
          "name": "A4",
          "ticks": 20070,
          "time": 69.68755575,
          "velocity": 0.3937007874015748
        },
        {
          "duration": 0.10416674999999032,
          "durationTicks": 30,
          "midi": 71,
          "name": "B4",
          "ticks": 20100,
          "time": 69.7917225,
          "velocity": 0.3937007874015748
        },
        {
          "duration": 0.10416675000000453,
          "durationTicks": 30,
          "midi": 67,
          "name": "G4",
          "ticks": 20130,
          "time": 69.89588925,
          "velocity": 0.3937007874015748
        },
        {
          "duration": 0.10416675000000453,
          "durationTicks": 30,
          "midi": 69,
          "name": "A4",
          "ticks": 20160,
          "time": 70.000056,
          "velocity": 0.3937007874015748
        },
        {
          "duration": 0.10416674999999032,
          "durationTicks": 30,
          "midi": 76,
          "name": "E5",
          "ticks": 20190,
          "time": 70.10422275,
          "velocity": 0.3937007874015748
        },
        {
          "duration": 0.10416675000000453,
          "durationTicks": 30,
          "midi": 72,
          "name": "C5",
          "ticks": 20220,
          "time": 70.2083895,
          "velocity": 0.3937007874015748
        },
        {
          "duration": 0.10416675000000453,
          "durationTicks": 30,
          "midi": 76,
          "name": "E5",
          "ticks": 20250,
          "time": 70.31255625,
          "velocity": 0.3937007874015748
        },
        {
          "duration": 0.10416674999999032,
          "durationTicks": 30,
          "midi": 81,
          "name": "A5",
          "ticks": 20280,
          "time": 70.416723,
          "velocity": 0.3937007874015748
        },
        {
          "duration": 0.10416675000000453,
          "durationTicks": 30,
          "midi": 86,
          "name": "D6",
          "ticks": 20310,
          "time": 70.52088975,
          "velocity": 0.3937007874015748
        },
        {
          "duration": 0.10416675000000453,
          "durationTicks": 30,
          "midi": 88,
          "name": "E6",
          "ticks": 20340,
          "time": 70.6250565,
          "velocity": 0.3937007874015748
        },
        {
          "duration": 0.10416675000000453,
          "durationTicks": 30,
          "midi": 86,
          "name": "D6",
          "ticks": 20370,
          "time": 70.72922325,
          "velocity": 0.3937007874015748
        },
        {
          "duration": 0.05208337499999516,
          "durationTicks": 15,
          "midi": 87,
          "name": "D#6",
          "ticks": 20400,
          "time": 70.83339000000001,
          "velocity": 0.3937007874015748
        },
        {
          "duration": 0.05208337499999516,
          "durationTicks": 15,
          "midi": 84,
          "name": "C6",
          "ticks": 20415,
          "time": 70.885473375,
          "velocity": 0.3937007874015748
        },
        {
          "duration": 0.10416675000000453,
          "durationTicks": 30,
          "midi": 83,
          "name": "B5",
          "ticks": 20430,
          "time": 70.93755675,
          "velocity": 0.3937007874015748
        },
        {
          "duration": 0.10416675000000453,
          "durationTicks": 30,
          "midi": 76,
          "name": "E5",
          "ticks": 20460,
          "time": 71.0417235,
          "velocity": 0.3937007874015748
        },
        {
          "duration": 0.10416674999999032,
          "durationTicks": 30,
          "midi": 75,
          "name": "D#5",
          "ticks": 20490,
          "time": 71.14589025000001,
          "velocity": 0.3937007874015748
        },
        {
          "duration": 0.10416675000000453,
          "durationTicks": 30,
          "midi": 72,
          "name": "C5",
          "ticks": 20520,
          "time": 71.250057,
          "velocity": 0.3937007874015748
        },
        {
          "duration": 0.10416675000000453,
          "durationTicks": 30,
          "midi": 75,
          "name": "D#5",
          "ticks": 20550,
          "time": 71.35422375,
          "velocity": 0.3937007874015748
        },
        {
          "duration": 0.10416674999999032,
          "durationTicks": 30,
          "midi": 71,
          "name": "B4",
          "ticks": 20580,
          "time": 71.45839050000001,
          "velocity": 0.3937007874015748
        },
        {
          "duration": 0.10416675000000453,
          "durationTicks": 30,
          "midi": 69,
          "name": "A4",
          "ticks": 20610,
          "time": 71.56255725,
          "velocity": 0.3937007874015748
        },
        {
          "duration": 0.10416675000000453,
          "durationTicks": 30,
          "midi": 64,
          "name": "E4",
          "ticks": 20640,
          "time": 71.666724,
          "velocity": 0.3937007874015748
        },
        {
          "duration": 0.10416674999999032,
          "durationTicks": 30,
          "midi": 66,
          "name": "F#4",
          "ticks": 20670,
          "time": 71.77089075,
          "velocity": 0.3937007874015748
        },
        {
          "duration": 0.10416675000000453,
          "durationTicks": 30,
          "midi": 67,
          "name": "G4",
          "ticks": 20700,
          "time": 71.8750575,
          "velocity": 0.3937007874015748
        },
        {
          "duration": 0.10416675000000453,
          "durationTicks": 30,
          "midi": 72,
          "name": "C5",
          "ticks": 20730,
          "time": 71.97922425,
          "velocity": 0.3937007874015748
        },
        {
          "duration": 0.10416674999999032,
          "durationTicks": 30,
          "midi": 74,
          "name": "D5",
          "ticks": 20760,
          "time": 72.083391,
          "velocity": 0.3937007874015748
        },
        {
          "duration": 0.10416675000000453,
          "durationTicks": 30,
          "midi": 76,
          "name": "E5",
          "ticks": 20790,
          "time": 72.18755775,
          "velocity": 0.3937007874015748
        },
        {
          "duration": 0.10416675000000453,
          "durationTicks": 30,
          "midi": 79,
          "name": "G5",
          "ticks": 20820,
          "time": 72.2917245,
          "velocity": 0.3937007874015748
        },
        {
          "duration": 0.10416674999999032,
          "durationTicks": 30,
          "midi": 84,
          "name": "C6",
          "ticks": 20850,
          "time": 72.39589125,
          "velocity": 0.3937007874015748
        },
        {
          "duration": 0.10416675000000453,
          "durationTicks": 30,
          "midi": 81,
          "name": "A5",
          "ticks": 20880,
          "time": 72.500058,
          "velocity": 0.3937007874015748
        },
        {
          "duration": 0.10416675000000453,
          "durationTicks": 30,
          "midi": 79,
          "name": "G5",
          "ticks": 20910,
          "time": 72.60422475,
          "velocity": 0.3937007874015748
        },
        {
          "duration": 0.10416674999999032,
          "durationTicks": 30,
          "midi": 78,
          "name": "F#5",
          "ticks": 20940,
          "time": 72.7083915,
          "velocity": 0.3937007874015748
        },
        {
          "duration": 0.10416675000000453,
          "durationTicks": 30,
          "midi": 74,
          "name": "D5",
          "ticks": 20970,
          "time": 72.81255825,
          "velocity": 0.3937007874015748
        },
        {
          "duration": 0.10416675000000453,
          "durationTicks": 30,
          "midi": 69,
          "name": "A4",
          "ticks": 21000,
          "time": 72.916725,
          "velocity": 0.3937007874015748
        },
        {
          "duration": 0.10416675000000453,
          "durationTicks": 30,
          "midi": 67,
          "name": "G4",
          "ticks": 21030,
          "time": 73.02089175,
          "velocity": 0.3937007874015748
        },
        {
          "duration": 0.10416674999999032,
          "durationTicks": 30,
          "midi": 66,
          "name": "F#4",
          "ticks": 21060,
          "time": 73.12505850000001,
          "velocity": 0.3937007874015748
        },
        {
          "duration": 0.10416675000000453,
          "durationTicks": 30,
          "midi": 74,
          "name": "D5",
          "ticks": 21090,
          "time": 73.22922525,
          "velocity": 0.3937007874015748
        },
        {
          "duration": 0.10416675000000453,
          "durationTicks": 30,
          "midi": 83,
          "name": "B5",
          "ticks": 21120,
          "time": 73.333392,
          "velocity": 0.3937007874015748
        },
        {
          "duration": 0.10416674999999032,
          "durationTicks": 30,
          "midi": 76,
          "name": "E5",
          "ticks": 21150,
          "time": 73.43755875000001,
          "velocity": 0.3937007874015748
        },
        {
          "duration": 0.10416675000000453,
          "durationTicks": 30,
          "midi": 86,
          "name": "D6",
          "ticks": 21180,
          "time": 73.5417255,
          "velocity": 0.3937007874015748
        },
        {
          "duration": 0.10416675000000453,
          "durationTicks": 30,
          "midi": 78,
          "name": "F#5",
          "ticks": 21210,
          "time": 73.64589225,
          "velocity": 0.3937007874015748
        },
        {
          "duration": 0.10416674999999032,
          "durationTicks": 30,
          "midi": 88,
          "name": "E6",
          "ticks": 21240,
          "time": 73.75005900000001,
          "velocity": 0.3937007874015748
        },
        {
          "duration": 0.10416675000000453,
          "durationTicks": 30,
          "midi": 79,
          "name": "G5",
          "ticks": 21270,
          "time": 73.85422575,
          "velocity": 0.3937007874015748
        },
        {
          "duration": 0.10416675000000453,
          "durationTicks": 30,
          "midi": 90,
          "name": "F#6",
          "ticks": 21300,
          "time": 73.9583925,
          "velocity": 0.3937007874015748
        },
        {
          "duration": 0.10416674999999032,
          "durationTicks": 30,
          "midi": 81,
          "name": "A5",
          "ticks": 21330,
          "time": 74.06255925,
          "velocity": 0.3937007874015748
        },
        {
          "duration": 0.4166670000000039,
          "durationTicks": 120,
          "midi": 91,
          "name": "G6",
          "ticks": 21360,
          "time": 74.166726,
          "velocity": 0.3937007874015748
        },
        {
          "duration": 0.20833349999999484,
          "durationTicks": 60,
          "midi": 88,
          "name": "E6",
          "ticks": 21480,
          "time": 74.583393,
          "velocity": 0.3937007874015748
        },
        {
          "duration": 0.20833350000000905,
          "durationTicks": 60,
          "midi": 90,
          "name": "F#6",
          "ticks": 21540,
          "time": 74.7917265,
          "velocity": 0.3937007874015748
        },
        {
          "duration": 0.10416674999999032,
          "durationTicks": 30,
          "midi": 88,
          "name": "E6",
          "ticks": 21600,
          "time": 75.00006,
          "velocity": 0.3937007874015748
        },
        {
          "duration": 0.10416675000000453,
          "durationTicks": 30,
          "midi": 90,
          "name": "F#6",
          "ticks": 21630,
          "time": 75.10422675,
          "velocity": 0.3937007874015748
        },
        {
          "duration": 0.10416675000000453,
          "durationTicks": 30,
          "midi": 91,
          "name": "G6",
          "ticks": 21660,
          "time": 75.2083935,
          "velocity": 0.3937007874015748
        },
        {
          "duration": 0.10416675000000453,
          "durationTicks": 30,
          "midi": 83,
          "name": "B5",
          "ticks": 21690,
          "time": 75.31256025,
          "velocity": 0.3937007874015748
        },
        {
          "duration": 0.20833349999999484,
          "durationTicks": 60,
          "midi": 86,
          "name": "D6",
          "ticks": 21720,
          "time": 75.41672700000001,
          "velocity": 0.3937007874015748
        },
        {
          "duration": 0.20833349999999484,
          "durationTicks": 60,
          "midi": 81,
          "name": "A5",
          "ticks": 21780,
          "time": 75.6250605,
          "velocity": 0.3937007874015748
        },
        {
          "duration": 0.20833350000000905,
          "durationTicks": 60,
          "midi": 83,
          "name": "B5",
          "ticks": 21840,
          "time": 75.833394,
          "velocity": 0.3937007874015748
        },
        {
          "duration": 0.20833349999999484,
          "durationTicks": 60,
          "midi": 88,
          "name": "E6",
          "ticks": 21900,
          "time": 76.04172750000001,
          "velocity": 0.3937007874015748
        },
        {
          "duration": 0.10416675000000453,
          "durationTicks": 30,
          "midi": 81,
          "name": "A5",
          "ticks": 21960,
          "time": 76.250061,
          "velocity": 0.3937007874015748
        },
        {
          "duration": 0.10416674999999032,
          "durationTicks": 30,
          "midi": 83,
          "name": "B5",
          "ticks": 21990,
          "time": 76.35422775,
          "velocity": 0.3937007874015748
        },
        {
          "duration": 0.20833350000000905,
          "durationTicks": 60,
          "midi": 90,
          "name": "F#6",
          "ticks": 22020,
          "time": 76.4583945,
          "velocity": 0.3937007874015748
        },
        {
          "duration": 0.10416674999999032,
          "durationTicks": 30,
          "midi": 91,
          "name": "G6",
          "ticks": 22080,
          "time": 76.666728,
          "velocity": 0.3937007874015748
        },
        {
          "duration": 0.10416675000000453,
          "durationTicks": 30,
          "midi": 88,
          "name": "E6",
          "ticks": 22110,
          "time": 76.77089475,
          "velocity": 0.3937007874015748
        },
        {
          "duration": 0.10416675000000453,
          "durationTicks": 30,
          "midi": 83,
          "name": "B5",
          "ticks": 22140,
          "time": 76.8750615,
          "velocity": 0.3937007874015748
        },
        {
          "duration": 0.10416674999999032,
          "durationTicks": 30,
          "midi": 90,
          "name": "F#6",
          "ticks": 22170,
          "time": 76.97922825,
          "velocity": 0.3937007874015748
        },
        {
          "duration": 0.10416675000000453,
          "durationTicks": 30,
          "midi": 86,
          "name": "D6",
          "ticks": 22200,
          "time": 77.083395,
          "velocity": 0.3937007874015748
        },
        {
          "duration": 0.10416675000000453,
          "durationTicks": 30,
          "midi": 81,
          "name": "A5",
          "ticks": 22230,
          "time": 77.18756175,
          "velocity": 0.3937007874015748
        },
        {
          "duration": 0.10416674999999032,
          "durationTicks": 30,
          "midi": 88,
          "name": "E6",
          "ticks": 22260,
          "time": 77.2917285,
          "velocity": 0.3937007874015748
        },
        {
          "duration": 0.10416675000000453,
          "durationTicks": 30,
          "midi": 81,
          "name": "A5",
          "ticks": 22290,
          "time": 77.39589525,
          "velocity": 0.3937007874015748
        },
        {
          "duration": 0.10416675000000453,
          "durationTicks": 30,
          "midi": 83,
          "name": "B5",
          "ticks": 22320,
          "time": 77.500062,
          "velocity": 0.3937007874015748
        },
        {
          "duration": 0.10416675000000453,
          "durationTicks": 30,
          "midi": 79,
          "name": "G5",
          "ticks": 22350,
          "time": 77.60422875,
          "velocity": 0.3937007874015748
        },
        {
          "duration": 0.10416674999999032,
          "durationTicks": 30,
          "midi": 81,
          "name": "A5",
          "ticks": 22380,
          "time": 77.70839550000001,
          "velocity": 0.3937007874015748
        },
        {
          "duration": 0.10416675000000453,
          "durationTicks": 30,
          "midi": 83,
          "name": "B5",
          "ticks": 22410,
          "time": 77.81256225,
          "velocity": 0.3937007874015748
        },
        {
          "duration": 0.10416675000000453,
          "durationTicks": 30,
          "midi": 86,
          "name": "D6",
          "ticks": 22440,
          "time": 77.916729,
          "velocity": 0.3937007874015748
        },
        {
          "duration": 0.10416674999999032,
          "durationTicks": 30,
          "midi": 78,
          "name": "F#5",
          "ticks": 22470,
          "time": 78.02089575000001,
          "velocity": 0.3937007874015748
        },
        {
          "duration": 0.10416675000000453,
          "durationTicks": 30,
          "midi": 79,
          "name": "G5",
          "ticks": 22500,
          "time": 78.1250625,
          "velocity": 0.3937007874015748
        },
        {
          "duration": 0.10416675000000453,
          "durationTicks": 30,
          "midi": 88,
          "name": "E6",
          "ticks": 22530,
          "time": 78.22922925,
          "velocity": 0.3937007874015748
        },
        {
          "duration": 0.10416674999999032,
          "durationTicks": 30,
          "midi": 76,
          "name": "E5",
          "ticks": 22560,
          "time": 78.33339600000001,
          "velocity": 0.3937007874015748
        },
        {
          "duration": 0.10416675000000453,
          "durationTicks": 30,
          "midi": 79,
          "name": "G5",
          "ticks": 22590,
          "time": 78.43756275,
          "velocity": 0.3937007874015748
        },
        {
          "duration": 0.10416675000000453,
          "durationTicks": 30,
          "midi": 86,
          "name": "D6",
          "ticks": 22620,
          "time": 78.5417295,
          "velocity": 0.3937007874015748
        },
        {
          "duration": 0.10416674999999032,
          "durationTicks": 30,
          "midi": 78,
          "name": "F#5",
          "ticks": 22650,
          "time": 78.64589625,
          "velocity": 0.3937007874015748
        },
        {
          "duration": 0.10416675000000453,
          "durationTicks": 30,
          "midi": 79,
          "name": "G5",
          "ticks": 22680,
          "time": 78.750063,
          "velocity": 0.3937007874015748
        },
        {
          "duration": 0.10416675000000453,
          "durationTicks": 30,
          "midi": 76,
          "name": "E5",
          "ticks": 22710,
          "time": 78.85422975,
          "velocity": 0.3937007874015748
        },
        {
          "duration": 0.10416674999999032,
          "durationTicks": 30,
          "midi": 78,
          "name": "F#5",
          "ticks": 22740,
          "time": 78.9583965,
          "velocity": 0.3937007874015748
        },
        {
          "duration": 0.10416675000000453,
          "durationTicks": 30,
          "midi": 74,
          "name": "D5",
          "ticks": 22770,
          "time": 79.06256325,
          "velocity": 0.3937007874015748
        },
        {
          "duration": 0.10416675000000453,
          "durationTicks": 30,
          "midi": 71,
          "name": "B4",
          "ticks": 22800,
          "time": 79.16673,
          "velocity": 0.3937007874015748
        },
        {
          "duration": 0.10416674999999032,
          "durationTicks": 30,
          "midi": 76,
          "name": "E5",
          "ticks": 22830,
          "time": 79.27089675,
          "velocity": 0.3937007874015748
        },
        {
          "duration": 0.10416675000000453,
          "durationTicks": 30,
          "midi": 67,
          "name": "G4",
          "ticks": 22860,
          "time": 79.3750635,
          "velocity": 0.3937007874015748
        },
        {
          "duration": 0.10416675000000453,
          "durationTicks": 30,
          "midi": 69,
          "name": "A4",
          "ticks": 22890,
          "time": 79.47923025,
          "velocity": 0.3937007874015748
        },
        {
          "duration": 0.10416674999999032,
          "durationTicks": 30,
          "midi": 71,
          "name": "B4",
          "ticks": 22920,
          "time": 79.583397,
          "velocity": 0.3937007874015748
        },
        {
          "duration": 0.10416675000000453,
          "durationTicks": 30,
          "midi": 64,
          "name": "E4",
          "ticks": 22950,
          "time": 79.68756375,
          "velocity": 0.3937007874015748
        },
        {
          "duration": 0.10416675000000453,
          "durationTicks": 30,
          "midi": 67,
          "name": "G4",
          "ticks": 22980,
          "time": 79.7917305,
          "velocity": 0.3937007874015748
        },
        {
          "duration": 0.10416675000000453,
          "durationTicks": 30,
          "midi": 69,
          "name": "A4",
          "ticks": 23010,
          "time": 79.89589725,
          "velocity": 0.3937007874015748
        },
        {
          "duration": 1.6666679999999872,
          "durationTicks": 480,
          "midi": 67,
          "name": "G4",
          "ticks": 23040,
          "time": 80.00006400000001,
          "velocity": 0.3937007874015748
        },
        {
          "duration": 0.6250004999999987,
          "durationTicks": 180,
          "midi": 64,
          "name": "E4",
          "ticks": 23520,
          "time": 81.666732,
          "velocity": 0.1968503937007874
        },
        {
          "duration": 0.6250004999999987,
          "durationTicks": 180,
          "midi": 59,
          "name": "B3",
          "ticks": 23520,
          "time": 81.666732,
          "velocity": 0.1968503937007874
        },
        {
          "duration": 0.625000500000013,
          "durationTicks": 180,
          "midi": 64,
          "name": "E4",
          "ticks": 23700,
          "time": 82.2917325,
          "velocity": 0.1968503937007874
        },
        {
          "duration": 0.625000500000013,
          "durationTicks": 180,
          "midi": 60,
          "name": "C4",
          "ticks": 23700,
          "time": 82.2917325,
          "velocity": 0.1968503937007874
        },
        {
          "duration": 0.6250004999999987,
          "durationTicks": 180,
          "midi": 62,
          "name": "D4",
          "ticks": 23880,
          "time": 82.91673300000001,
          "velocity": 0.1968503937007874
        },
        {
          "duration": 0.6250004999999987,
          "durationTicks": 180,
          "midi": 57,
          "name": "A3",
          "ticks": 23880,
          "time": 82.91673300000001,
          "velocity": 0.1968503937007874
        },
        {
          "duration": 0.6250004999999987,
          "durationTicks": 180,
          "midi": 62,
          "name": "D4",
          "ticks": 24060,
          "time": 83.5417335,
          "velocity": 0.1968503937007874
        },
        {
          "duration": 0.6250004999999987,
          "durationTicks": 180,
          "midi": 59,
          "name": "B3",
          "ticks": 24060,
          "time": 83.5417335,
          "velocity": 0.1968503937007874
        },
        {
          "duration": 0.6250004999999987,
          "durationTicks": 180,
          "midi": 60,
          "name": "C4",
          "ticks": 24240,
          "time": 84.166734,
          "velocity": 0.1968503937007874
        },
        {
          "duration": 0.6250004999999987,
          "durationTicks": 180,
          "midi": 55,
          "name": "G3",
          "ticks": 24240,
          "time": 84.166734,
          "velocity": 0.1968503937007874
        },
        {
          "duration": 0.6250004999999987,
          "durationTicks": 180,
          "midi": 60,
          "name": "C4",
          "ticks": 24420,
          "time": 84.7917345,
          "velocity": 0.1968503937007874
        },
        {
          "duration": 0.6250004999999987,
          "durationTicks": 180,
          "midi": 57,
          "name": "A3",
          "ticks": 24420,
          "time": 84.7917345,
          "velocity": 0.1968503937007874
        },
        {
          "duration": 1.2500009999999975,
          "durationTicks": 360,
          "midi": 63,
          "name": "D#4",
          "ticks": 24600,
          "time": 85.416735,
          "velocity": 0.1968503937007874
        },
        {
          "duration": 1.2500009999999975,
          "durationTicks": 360,
          "midi": 59,
          "name": "B3",
          "ticks": 24600,
          "time": 85.416735,
          "velocity": 0.1968503937007874
        },
        {
          "duration": 0.6250004999999987,
          "durationTicks": 180,
          "midi": 64,
          "name": "E4",
          "ticks": 24960,
          "time": 86.666736,
          "velocity": 0.1968503937007874
        },
        {
          "duration": 0.6250004999999987,
          "durationTicks": 180,
          "midi": 59,
          "name": "B3",
          "ticks": 24960,
          "time": 86.666736,
          "velocity": 0.1968503937007874
        },
        {
          "duration": 0.6250004999999987,
          "durationTicks": 180,
          "midi": 64,
          "name": "E4",
          "ticks": 25140,
          "time": 87.2917365,
          "velocity": 0.1968503937007874
        },
        {
          "duration": 0.6250004999999987,
          "durationTicks": 180,
          "midi": 60,
          "name": "C4",
          "ticks": 25140,
          "time": 87.2917365,
          "velocity": 0.1968503937007874
        },
        {
          "duration": 0.6250004999999987,
          "durationTicks": 180,
          "midi": 62,
          "name": "D4",
          "ticks": 25320,
          "time": 87.916737,
          "velocity": 0.1968503937007874
        },
        {
          "duration": 0.6250004999999987,
          "durationTicks": 180,
          "midi": 57,
          "name": "A3",
          "ticks": 25320,
          "time": 87.916737,
          "velocity": 0.1968503937007874
        },
        {
          "duration": 0.6250004999999987,
          "durationTicks": 180,
          "midi": 62,
          "name": "D4",
          "ticks": 25500,
          "time": 88.5417375,
          "velocity": 0.1968503937007874
        },
        {
          "duration": 0.6250004999999987,
          "durationTicks": 180,
          "midi": 59,
          "name": "B3",
          "ticks": 25500,
          "time": 88.5417375,
          "velocity": 0.1968503937007874
        },
        {
          "duration": 0.625000500000013,
          "durationTicks": 180,
          "midi": 60,
          "name": "C4",
          "ticks": 25680,
          "time": 89.166738,
          "velocity": 0.1968503937007874
        },
        {
          "duration": 0.625000500000013,
          "durationTicks": 180,
          "midi": 55,
          "name": "G3",
          "ticks": 25680,
          "time": 89.166738,
          "velocity": 0.1968503937007874
        },
        {
          "duration": 0.6250004999999987,
          "durationTicks": 180,
          "midi": 61,
          "name": "C#4",
          "ticks": 25860,
          "time": 89.79173850000001,
          "velocity": 0.1968503937007874
        },
        {
          "duration": 0.6250004999999987,
          "durationTicks": 180,
          "midi": 58,
          "name": "A#3",
          "ticks": 25860,
          "time": 89.79173850000001,
          "velocity": 0.1968503937007874
        },
        {
          "duration": 1.2500009999999975,
          "durationTicks": 360,
          "midi": 63,
          "name": "D#4",
          "ticks": 26040,
          "time": 90.416739,
          "velocity": 0.1968503937007874
        },
        {
          "duration": 1.2500009999999975,
          "durationTicks": 360,
          "midi": 59,
          "name": "B3",
          "ticks": 26040,
          "time": 90.416739,
          "velocity": 0.1968503937007874
        }
      ],
      "endOfTrackTicks": 26400
    },
    {
      "channel": 4,
      "controlChanges": {
        "6": [
          {
            "number": 6,
            "ticks": 2444,
            "time": 8.4861179,
            "value": 0.07086614173228346
          }
        ],
        "7": [
          {
            "number": 7,
            "ticks": 0,
            "time": 0,
            "value": 1
          }
        ],
        "10": [
          {
            "number": 10,
            "ticks": 0,
            "time": 0,
            "value": 0.5039370078740157
          }
        ],
        "38": [
          {
            "number": 38,
            "ticks": 2445,
            "time": 8.489590125,
            "value": 1
          }
        ],
        "100": [
          {
            "number": 100,
            "ticks": 2443,
            "time": 8.482645675,
            "value": 0
          }
        ],
        "101": [
          {
            "number": 101,
            "ticks": 2442,
            "time": 8.479173450000001,
            "value": 0
          }
        ]
      },
      "pitchBends": [
        {
          "ticks": 2760,
          "time": 9.583341,
          "value": 0
        },
        {
          "ticks": 2761,
          "time": 9.586813225,
          "value": -0.0084228515625
        },
        {
          "ticks": 2762,
          "time": 9.59028545,
          "value": -0.016845703125
        },
        {
          "ticks": 2763,
          "time": 9.593757674999999,
          "value": -0.0252685546875
        },
        {
          "ticks": 2764,
          "time": 9.5972299,
          "value": -0.03369140625
        },
        {
          "ticks": 2765,
          "time": 9.600702125000002,
          "value": -0.0421142578125
        },
        {
          "ticks": 2766,
          "time": 9.604174350000001,
          "value": -0.050537109375
        },
        {
          "ticks": 2767,
          "time": 9.607646575,
          "value": -0.058837890625
        },
        {
          "ticks": 2768,
          "time": 9.6111188,
          "value": -0.0672607421875
        },
        {
          "ticks": 2769,
          "time": 9.614591025,
          "value": -0.07568359375
        },
        {
          "ticks": 2770,
          "time": 9.61806325,
          "value": -0.0841064453125
        },
        {
          "ticks": 2771,
          "time": 9.621535475,
          "value": -0.092529296875
        },
        {
          "ticks": 2772,
          "time": 9.625007700000001,
          "value": -0.1009521484375
        },
        {
          "ticks": 2773,
          "time": 9.628479925,
          "value": -0.1092529296875
        },
        {
          "ticks": 2774,
          "time": 9.63195215,
          "value": -0.11767578125
        },
        {
          "ticks": 2775,
          "time": 9.635424375,
          "value": -0.1260986328125
        },
        {
          "ticks": 2776,
          "time": 9.6388966,
          "value": -0.134521484375
        },
        {
          "ticks": 2777,
          "time": 9.642368825,
          "value": -0.1429443359375
        },
        {
          "ticks": 2778,
          "time": 9.64584105,
          "value": -0.1513671875
        },
        {
          "ticks": 2779,
          "time": 9.649313275,
          "value": -0.15966796875
        },
        {
          "ticks": 2780,
          "time": 9.6527855,
          "value": -0.1680908203125
        },
        {
          "ticks": 2781,
          "time": 9.656257725,
          "value": -0.176513671875
        },
        {
          "ticks": 2782,
          "time": 9.659729950000001,
          "value": -0.1849365234375
        },
        {
          "ticks": 2783,
          "time": 9.663202175,
          "value": -0.193359375
        },
        {
          "ticks": 2784,
          "time": 9.6666744,
          "value": -0.2017822265625
        },
        {
          "ticks": 2785,
          "time": 9.670146625,
          "value": -0.210205078125
        },
        {
          "ticks": 2786,
          "time": 9.673618849999999,
          "value": -0.218505859375
        },
        {
          "ticks": 2787,
          "time": 9.677091075000002,
          "value": -0.2269287109375
        },
        {
          "ticks": 2788,
          "time": 9.680563300000001,
          "value": -0.2353515625
        },
        {
          "ticks": 2789,
          "time": 9.684035525,
          "value": -0.2437744140625
        },
        {
          "ticks": 2790,
          "time": 9.68750775,
          "value": -0.252197265625
        },
        {
          "ticks": 2791,
          "time": 9.690979975,
          "value": -0.2606201171875
        },
        {
          "ticks": 2792,
          "time": 9.6944522,
          "value": -0.2689208984375
        },
        {
          "ticks": 2793,
          "time": 9.697924425,
          "value": -0.27734375
        },
        {
          "ticks": 2794,
          "time": 9.701396650000001,
          "value": -0.2857666015625
        },
        {
          "ticks": 2795,
          "time": 9.704868875,
          "value": -0.294189453125
        },
        {
          "ticks": 2796,
          "time": 9.7083411,
          "value": -0.3026123046875
        },
        {
          "ticks": 2797,
          "time": 9.711813325,
          "value": -0.31103515625
        },
        {
          "ticks": 2798,
          "time": 9.71528555,
          "value": -0.3193359375
        },
        {
          "ticks": 2799,
          "time": 9.718757775,
          "value": -0.3277587890625
        },
        {
          "ticks": 2800,
          "time": 9.72223,
          "value": -0.336181640625
        },
        {
          "ticks": 2801,
          "time": 9.725702225,
          "value": -0.3446044921875
        },
        {
          "ticks": 2802,
          "time": 9.72917445,
          "value": -0.35302734375
        },
        {
          "ticks": 2803,
          "time": 9.732646675,
          "value": -0.3614501953125
        },
        {
          "ticks": 2804,
          "time": 9.736118900000001,
          "value": -0.3697509765625
        },
        {
          "ticks": 2805,
          "time": 9.739591125,
          "value": -0.378173828125
        },
        {
          "ticks": 2806,
          "time": 9.74306335,
          "value": -0.3865966796875
        },
        {
          "ticks": 2807,
          "time": 9.746535575,
          "value": -0.39501953125
        },
        {
          "ticks": 2808,
          "time": 9.750007799999999,
          "value": -0.4034423828125
        },
        {
          "ticks": 2809,
          "time": 9.753480025000002,
          "value": -0.411865234375
        },
        {
          "ticks": 2810,
          "time": 9.756952250000001,
          "value": -0.4202880859375
        },
        {
          "ticks": 2811,
          "time": 9.760424475,
          "value": -0.4285888671875
        },
        {
          "ticks": 2812,
          "time": 9.7638967,
          "value": -0.43701171875
        },
        {
          "ticks": 2813,
          "time": 9.767368925,
          "value": -0.4454345703125
        },
        {
          "ticks": 2814,
          "time": 9.77084115,
          "value": -0.453857421875
        },
        {
          "ticks": 2815,
          "time": 9.774313375,
          "value": -0.4622802734375
        },
        {
          "ticks": 2816,
          "time": 9.7777856,
          "value": -0.470703125
        },
        {
          "ticks": 2817,
          "time": 9.781257825,
          "value": -0.47900390625
        },
        {
          "ticks": 2818,
          "time": 9.78473005,
          "value": -0.4874267578125
        },
        {
          "ticks": 2819,
          "time": 9.788202275,
          "value": -0.495849609375
        },
        {
          "ticks": 2820,
          "time": 9.791674500000001,
          "value": -0.5042724609375
        },
        {
          "ticks": 2821,
          "time": 9.795146725,
          "value": -0.5126953125
        },
        {
          "ticks": 2822,
          "time": 9.79861895,
          "value": -0.5211181640625
        },
        {
          "ticks": 2823,
          "time": 9.802091175,
          "value": -0.5294189453125
        },
        {
          "ticks": 2824,
          "time": 9.8055634,
          "value": -0.537841796875
        },
        {
          "ticks": 2825,
          "time": 9.809035625,
          "value": -0.5462646484375
        },
        {
          "ticks": 2826,
          "time": 9.812507850000001,
          "value": -0.5546875
        },
        {
          "ticks": 2827,
          "time": 9.815980075,
          "value": -0.5631103515625
        },
        {
          "ticks": 2828,
          "time": 9.8194523,
          "value": -0.571533203125
        },
        {
          "ticks": 2829,
          "time": 9.822924525,
          "value": -0.579833984375
        },
        {
          "ticks": 2830,
          "time": 9.826396749999999,
          "value": -0.5882568359375
        },
        {
          "ticks": 2831,
          "time": 9.829868975,
          "value": -0.5966796875
        },
        {
          "ticks": 2832,
          "time": 9.833341200000001,
          "value": -0.6051025390625
        },
        {
          "ticks": 2833,
          "time": 9.836813425,
          "value": -0.613525390625
        },
        {
          "ticks": 2834,
          "time": 9.84028565,
          "value": -0.6219482421875
        },
        {
          "ticks": 2835,
          "time": 9.843757875,
          "value": -0.63037109375
        },
        {
          "ticks": 2836,
          "time": 9.8472301,
          "value": -0.638671875
        },
        {
          "ticks": 2837,
          "time": 9.850702325,
          "value": -0.6470947265625
        },
        {
          "ticks": 2838,
          "time": 9.85417455,
          "value": -0.655517578125
        },
        {
          "ticks": 2839,
          "time": 9.857646775000001,
          "value": -0.6639404296875
        },
        {
          "ticks": 2840,
          "time": 9.861119,
          "value": -0.67236328125
        },
        {
          "ticks": 2841,
          "time": 9.864591225,
          "value": -0.6807861328125
        },
        {
          "ticks": 2842,
          "time": 9.868063450000001,
          "value": -0.6890869140625
        },
        {
          "ticks": 2843,
          "time": 9.871535675,
          "value": -0.697509765625
        },
        {
          "ticks": 2844,
          "time": 9.8750079,
          "value": -0.7059326171875
        },
        {
          "ticks": 2845,
          "time": 9.878480125,
          "value": -0.71435546875
        },
        {
          "ticks": 2846,
          "time": 9.881952349999999,
          "value": -0.7227783203125
        },
        {
          "ticks": 2847,
          "time": 9.885424575,
          "value": -0.731201171875
        },
        {
          "ticks": 2848,
          "time": 9.888896800000001,
          "value": -0.739501953125
        },
        {
          "ticks": 2849,
          "time": 9.892369025,
          "value": -0.7479248046875
        },
        {
          "ticks": 2850,
          "time": 9.89584125,
          "value": -0.75634765625
        },
        {
          "ticks": 2851,
          "time": 9.899313475,
          "value": -0.7647705078125
        },
        {
          "ticks": 2852,
          "time": 9.902785699999999,
          "value": -0.773193359375
        },
        {
          "ticks": 2853,
          "time": 9.906257925,
          "value": -0.7816162109375
        },
        {
          "ticks": 2854,
          "time": 9.909730150000001,
          "value": -0.7899169921875
        },
        {
          "ticks": 2855,
          "time": 9.913202375000001,
          "value": -0.79833984375
        },
        {
          "ticks": 2856,
          "time": 9.9166746,
          "value": -0.8067626953125
        },
        {
          "ticks": 2857,
          "time": 9.920146825,
          "value": -0.815185546875
        },
        {
          "ticks": 2858,
          "time": 9.923619050000001,
          "value": -0.8236083984375
        },
        {
          "ticks": 2859,
          "time": 9.927091275,
          "value": -0.83203125
        },
        {
          "ticks": 2860,
          "time": 9.9305635,
          "value": -0.8404541015625
        },
        {
          "ticks": 2861,
          "time": 9.934035725,
          "value": -0.8487548828125
        },
        {
          "ticks": 2862,
          "time": 9.93750795,
          "value": -0.857177734375
        },
        {
          "ticks": 2863,
          "time": 9.940980175,
          "value": -0.8656005859375
        },
        {
          "ticks": 2864,
          "time": 9.944452400000001,
          "value": -0.8740234375
        },
        {
          "ticks": 2865,
          "time": 9.947924625,
          "value": -0.8824462890625
        },
        {
          "ticks": 2866,
          "time": 9.95139685,
          "value": -0.890869140625
        },
        {
          "ticks": 2867,
          "time": 9.954869075,
          "value": -0.899169921875
        },
        {
          "ticks": 2868,
          "time": 9.958341299999999,
          "value": -0.9075927734375
        },
        {
          "ticks": 2869,
          "time": 9.961813525,
          "value": -0.916015625
        },
        {
          "ticks": 2870,
          "time": 9.965285750000001,
          "value": -0.9244384765625
        },
        {
          "ticks": 2871,
          "time": 9.968757975,
          "value": -0.932861328125
        },
        {
          "ticks": 2872,
          "time": 9.9722302,
          "value": -0.9412841796875
        },
        {
          "ticks": 2873,
          "time": 9.975702425,
          "value": -0.9495849609375
        },
        {
          "ticks": 2874,
          "time": 9.97917465,
          "value": -0.9580078125
        },
        {
          "ticks": 2875,
          "time": 9.982646875,
          "value": -0.9664306640625
        },
        {
          "ticks": 2876,
          "time": 9.9861191,
          "value": -0.974853515625
        },
        {
          "ticks": 2877,
          "time": 9.989591325000001,
          "value": -0.9832763671875
        },
        {
          "ticks": 2878,
          "time": 9.99306355,
          "value": -0.99169921875
        },
        {
          "ticks": 2879,
          "time": 9.996535775,
          "value": -1
        },
        {
          "ticks": 2880,
          "time": 10.000008000000001,
          "value": 0
        },
        {
          "ticks": 26280,
          "time": 91.250073,
          "value": 0
        },
        {
          "ticks": 26281,
          "time": 91.253545225,
          "value": -0.0084228515625
        },
        {
          "ticks": 26282,
          "time": 91.25701745,
          "value": -0.016845703125
        },
        {
          "ticks": 26283,
          "time": 91.260489675,
          "value": -0.0252685546875
        },
        {
          "ticks": 26284,
          "time": 91.2639619,
          "value": -0.03369140625
        },
        {
          "ticks": 26285,
          "time": 91.267434125,
          "value": -0.0421142578125
        },
        {
          "ticks": 26286,
          "time": 91.27090635,
          "value": -0.050537109375
        },
        {
          "ticks": 26287,
          "time": 91.274378575,
          "value": -0.058837890625
        },
        {
          "ticks": 26288,
          "time": 91.2778508,
          "value": -0.0672607421875
        },
        {
          "ticks": 26289,
          "time": 91.28132302499999,
          "value": -0.07568359375
        },
        {
          "ticks": 26290,
          "time": 91.28479525,
          "value": -0.0841064453125
        },
        {
          "ticks": 26291,
          "time": 91.288267475,
          "value": -0.092529296875
        },
        {
          "ticks": 26292,
          "time": 91.2917397,
          "value": -0.1009521484375
        },
        {
          "ticks": 26293,
          "time": 91.29521192499999,
          "value": -0.1092529296875
        },
        {
          "ticks": 26294,
          "time": 91.29868415,
          "value": -0.11767578125
        },
        {
          "ticks": 26295,
          "time": 91.302156375,
          "value": -0.1260986328125
        },
        {
          "ticks": 26296,
          "time": 91.3056286,
          "value": -0.134521484375
        },
        {
          "ticks": 26297,
          "time": 91.309100825,
          "value": -0.1429443359375
        },
        {
          "ticks": 26298,
          "time": 91.31257305,
          "value": -0.1513671875
        },
        {
          "ticks": 26299,
          "time": 91.31604527500001,
          "value": -0.15966796875
        },
        {
          "ticks": 26300,
          "time": 91.3195175,
          "value": -0.1680908203125
        },
        {
          "ticks": 26301,
          "time": 91.32298972500001,
          "value": -0.176513671875
        },
        {
          "ticks": 26302,
          "time": 91.32646195000001,
          "value": -0.1849365234375
        },
        {
          "ticks": 26303,
          "time": 91.329934175,
          "value": -0.193359375
        },
        {
          "ticks": 26304,
          "time": 91.3334064,
          "value": -0.2017822265625
        },
        {
          "ticks": 26305,
          "time": 91.33687862500001,
          "value": -0.210205078125
        },
        {
          "ticks": 26306,
          "time": 91.34035085000001,
          "value": -0.218505859375
        },
        {
          "ticks": 26307,
          "time": 91.343823075,
          "value": -0.2269287109375
        },
        {
          "ticks": 26308,
          "time": 91.3472953,
          "value": -0.2353515625
        },
        {
          "ticks": 26309,
          "time": 91.35076752500001,
          "value": -0.2437744140625
        },
        {
          "ticks": 26310,
          "time": 91.35423975,
          "value": -0.252197265625
        },
        {
          "ticks": 26311,
          "time": 91.357711975,
          "value": -0.2606201171875
        },
        {
          "ticks": 26312,
          "time": 91.36118420000001,
          "value": -0.2689208984375
        },
        {
          "ticks": 26313,
          "time": 91.364656425,
          "value": -0.27734375
        },
        {
          "ticks": 26314,
          "time": 91.36812865,
          "value": -0.2857666015625
        },
        {
          "ticks": 26315,
          "time": 91.371600875,
          "value": -0.294189453125
        },
        {
          "ticks": 26316,
          "time": 91.37507310000001,
          "value": -0.3026123046875
        },
        {
          "ticks": 26317,
          "time": 91.378545325,
          "value": -0.31103515625
        },
        {
          "ticks": 26318,
          "time": 91.38201755,
          "value": -0.3193359375
        },
        {
          "ticks": 26319,
          "time": 91.385489775,
          "value": -0.3277587890625
        },
        {
          "ticks": 26320,
          "time": 91.388962,
          "value": -0.336181640625
        },
        {
          "ticks": 26321,
          "time": 91.392434225,
          "value": -0.3446044921875
        },
        {
          "ticks": 26322,
          "time": 91.39590645,
          "value": -0.35302734375
        },
        {
          "ticks": 26323,
          "time": 91.399378675,
          "value": -0.3614501953125
        },
        {
          "ticks": 26324,
          "time": 91.4028509,
          "value": -0.3697509765625
        },
        {
          "ticks": 26325,
          "time": 91.406323125,
          "value": -0.378173828125
        },
        {
          "ticks": 26326,
          "time": 91.40979535,
          "value": -0.3865966796875
        },
        {
          "ticks": 26327,
          "time": 91.413267575,
          "value": -0.39501953125
        },
        {
          "ticks": 26328,
          "time": 91.4167398,
          "value": -0.4034423828125
        },
        {
          "ticks": 26329,
          "time": 91.420212025,
          "value": -0.411865234375
        },
        {
          "ticks": 26330,
          "time": 91.42368425,
          "value": -0.4202880859375
        },
        {
          "ticks": 26331,
          "time": 91.427156475,
          "value": -0.4285888671875
        },
        {
          "ticks": 26332,
          "time": 91.4306287,
          "value": -0.43701171875
        },
        {
          "ticks": 26333,
          "time": 91.434100925,
          "value": -0.4454345703125
        },
        {
          "ticks": 26334,
          "time": 91.43757314999999,
          "value": -0.453857421875
        },
        {
          "ticks": 26335,
          "time": 91.441045375,
          "value": -0.4622802734375
        },
        {
          "ticks": 26336,
          "time": 91.4445176,
          "value": -0.470703125
        },
        {
          "ticks": 26337,
          "time": 91.447989825,
          "value": -0.47900390625
        },
        {
          "ticks": 26338,
          "time": 91.45146205,
          "value": -0.4874267578125
        },
        {
          "ticks": 26339,
          "time": 91.454934275,
          "value": -0.495849609375
        },
        {
          "ticks": 26340,
          "time": 91.4584065,
          "value": -0.5042724609375
        },
        {
          "ticks": 26341,
          "time": 91.461878725,
          "value": -0.5126953125
        },
        {
          "ticks": 26342,
          "time": 91.46535095,
          "value": -0.5211181640625
        },
        {
          "ticks": 26343,
          "time": 91.46882317500001,
          "value": -0.5294189453125
        },
        {
          "ticks": 26344,
          "time": 91.47229540000001,
          "value": -0.537841796875
        },
        {
          "ticks": 26345,
          "time": 91.475767625,
          "value": -0.5462646484375
        },
        {
          "ticks": 26346,
          "time": 91.47923985000001,
          "value": -0.5546875
        },
        {
          "ticks": 26347,
          "time": 91.48271207500001,
          "value": -0.5631103515625
        },
        {
          "ticks": 26348,
          "time": 91.4861843,
          "value": -0.571533203125
        },
        {
          "ticks": 26349,
          "time": 91.489656525,
          "value": -0.579833984375
        },
        {
          "ticks": 26350,
          "time": 91.49312875000001,
          "value": -0.5882568359375
        },
        {
          "ticks": 26351,
          "time": 91.496600975,
          "value": -0.5966796875
        },
        {
          "ticks": 26352,
          "time": 91.5000732,
          "value": -0.6051025390625
        },
        {
          "ticks": 26353,
          "time": 91.503545425,
          "value": -0.613525390625
        },
        {
          "ticks": 26354,
          "time": 91.50701765000001,
          "value": -0.6219482421875
        },
        {
          "ticks": 26355,
          "time": 91.510489875,
          "value": -0.63037109375
        },
        {
          "ticks": 26356,
          "time": 91.5139621,
          "value": -0.638671875
        },
        {
          "ticks": 26357,
          "time": 91.51743432500001,
          "value": -0.6470947265625
        },
        {
          "ticks": 26358,
          "time": 91.52090655,
          "value": -0.655517578125
        },
        {
          "ticks": 26359,
          "time": 91.524378775,
          "value": -0.6639404296875
        },
        {
          "ticks": 26360,
          "time": 91.527851,
          "value": -0.67236328125
        },
        {
          "ticks": 26361,
          "time": 91.53132322500001,
          "value": -0.6807861328125
        },
        {
          "ticks": 26362,
          "time": 91.53479545,
          "value": -0.6890869140625
        },
        {
          "ticks": 26363,
          "time": 91.538267675,
          "value": -0.697509765625
        },
        {
          "ticks": 26364,
          "time": 91.5417399,
          "value": -0.7059326171875
        },
        {
          "ticks": 26365,
          "time": 91.545212125,
          "value": -0.71435546875
        },
        {
          "ticks": 26366,
          "time": 91.54868435,
          "value": -0.7227783203125
        },
        {
          "ticks": 26367,
          "time": 91.552156575,
          "value": -0.731201171875
        },
        {
          "ticks": 26368,
          "time": 91.5556288,
          "value": -0.739501953125
        },
        {
          "ticks": 26369,
          "time": 91.559101025,
          "value": -0.7479248046875
        },
        {
          "ticks": 26370,
          "time": 91.56257325,
          "value": -0.75634765625
        },
        {
          "ticks": 26371,
          "time": 91.566045475,
          "value": -0.7647705078125
        },
        {
          "ticks": 26372,
          "time": 91.5695177,
          "value": -0.773193359375
        },
        {
          "ticks": 26373,
          "time": 91.572989925,
          "value": -0.7816162109375
        },
        {
          "ticks": 26374,
          "time": 91.57646215,
          "value": -0.7899169921875
        },
        {
          "ticks": 26375,
          "time": 91.579934375,
          "value": -0.79833984375
        },
        {
          "ticks": 26376,
          "time": 91.5834066,
          "value": -0.8067626953125
        },
        {
          "ticks": 26377,
          "time": 91.586878825,
          "value": -0.815185546875
        },
        {
          "ticks": 26378,
          "time": 91.59035105,
          "value": -0.8236083984375
        },
        {
          "ticks": 26379,
          "time": 91.59382327499999,
          "value": -0.83203125
        },
        {
          "ticks": 26380,
          "time": 91.5972955,
          "value": -0.8404541015625
        },
        {
          "ticks": 26381,
          "time": 91.600767725,
          "value": -0.8487548828125
        },
        {
          "ticks": 26382,
          "time": 91.60423995,
          "value": -0.857177734375
        },
        {
          "ticks": 26383,
          "time": 91.607712175,
          "value": -0.8656005859375
        },
        {
          "ticks": 26384,
          "time": 91.6111844,
          "value": -0.8740234375
        },
        {
          "ticks": 26385,
          "time": 91.61465662500001,
          "value": -0.8824462890625
        },
        {
          "ticks": 26386,
          "time": 91.61812885,
          "value": -0.890869140625
        },
        {
          "ticks": 26387,
          "time": 91.621601075,
          "value": -0.899169921875
        },
        {
          "ticks": 26388,
          "time": 91.62507330000001,
          "value": -0.9075927734375
        },
        {
          "ticks": 26389,
          "time": 91.628545525,
          "value": -0.916015625
        },
        {
          "ticks": 26390,
          "time": 91.63201775,
          "value": -0.9244384765625
        },
        {
          "ticks": 26391,
          "time": 91.63548997500001,
          "value": -0.932861328125
        },
        {
          "ticks": 26392,
          "time": 91.63896220000001,
          "value": -0.9412841796875
        },
        {
          "ticks": 26393,
          "time": 91.642434425,
          "value": -0.9495849609375
        },
        {
          "ticks": 26394,
          "time": 91.64590665,
          "value": -0.9580078125
        },
        {
          "ticks": 26395,
          "time": 91.64937887500001,
          "value": -0.9664306640625
        },
        {
          "ticks": 26396,
          "time": 91.6528511,
          "value": -0.974853515625
        },
        {
          "ticks": 26397,
          "time": 91.656323325,
          "value": -0.9832763671875
        },
        {
          "ticks": 26398,
          "time": 91.65979555,
          "value": -0.99169921875
        },
        {
          "ticks": 26399,
          "time": 91.66326777500001,
          "value": -1
        },
        {
          "ticks": 26400,
          "time": 91.66674,
          "value": 0
        }
      ],
      "instrument": {
        "family": "bass",
        "number": 36,
        "name": "slap bass 1"
      },
      "name": "Touhou 6: Enbodiment of Scarlet Devil - Shanghai Alice of Meiji 17 ",
      "notes": [
        {
          "duration": 0.6250005000000001,
          "durationTicks": 180,
          "midi": 50,
          "name": "D3",
          "ticks": 0,
          "time": 0,
          "velocity": 0.5984251968503937
        },
        {
          "duration": 0.6250005000000001,
          "durationTicks": 180,
          "midi": 51,
          "name": "D#3",
          "ticks": 180,
          "time": 0.6250005000000001,
          "velocity": 0.5984251968503937
        },
        {
          "duration": 0.6250004999999998,
          "durationTicks": 180,
          "midi": 48,
          "name": "C3",
          "ticks": 360,
          "time": 1.2500010000000001,
          "velocity": 0.5984251968503937
        },
        {
          "duration": 0.6250005000000003,
          "durationTicks": 180,
          "midi": 50,
          "name": "D3",
          "ticks": 540,
          "time": 1.8750015,
          "velocity": 0.5984251968503937
        },
        {
          "duration": 0.6250004999999996,
          "durationTicks": 180,
          "midi": 46,
          "name": "A#2",
          "ticks": 720,
          "time": 2.5000020000000003,
          "velocity": 0.5984251968503937
        },
        {
          "duration": 0.6250005000000001,
          "durationTicks": 180,
          "midi": 48,
          "name": "C3",
          "ticks": 900,
          "time": 3.1250025,
          "velocity": 0.5984251968503937
        },
        {
          "duration": 1.2500010000000006,
          "durationTicks": 360,
          "midi": 45,
          "name": "A2",
          "ticks": 1080,
          "time": 3.750003,
          "velocity": 0.5984251968503937
        },
        {
          "duration": 0.6250004999999996,
          "durationTicks": 180,
          "midi": 50,
          "name": "D3",
          "ticks": 1440,
          "time": 5.000004000000001,
          "velocity": 0.5984251968503937
        },
        {
          "duration": 0.6250004999999996,
          "durationTicks": 180,
          "midi": 51,
          "name": "D#3",
          "ticks": 1620,
          "time": 5.6250045,
          "velocity": 0.5984251968503937
        },
        {
          "duration": 0.6250005000000005,
          "durationTicks": 180,
          "midi": 48,
          "name": "C3",
          "ticks": 1800,
          "time": 6.250005,
          "velocity": 0.5984251968503937
        },
        {
          "duration": 0.6250004999999996,
          "durationTicks": 180,
          "midi": 50,
          "name": "D3",
          "ticks": 1980,
          "time": 6.8750055,
          "velocity": 0.5984251968503937
        },
        {
          "duration": 0.6250004999999996,
          "durationTicks": 180,
          "midi": 46,
          "name": "A#2",
          "ticks": 2160,
          "time": 7.500006,
          "velocity": 0.5984251968503937
        },
        {
          "duration": 0.6250005000000005,
          "durationTicks": 180,
          "midi": 49,
          "name": "C#3",
          "ticks": 2340,
          "time": 8.1250065,
          "velocity": 0.5984251968503937
        },
        {
          "duration": 0.8333340000000007,
          "durationTicks": 240,
          "midi": 50,
          "name": "D3",
          "ticks": 2520,
          "time": 8.750007,
          "velocity": 0.5984251968503937
        },
        {
          "duration": 0.41666700000000034,
          "durationTicks": 120,
          "midi": 62,
          "name": "D4",
          "ticks": 2760,
          "time": 9.583341,
          "velocity": 0.5984251968503937
        },
        {
          "duration": 0.1041667499999992,
          "durationTicks": 30,
          "midi": 43,
          "name": "G2",
          "ticks": 2880,
          "time": 10.000008000000001,
          "velocity": 0.5984251968503937
        },
        {
          "duration": 0.1041667499999992,
          "durationTicks": 30,
          "midi": 50,
          "name": "D3",
          "ticks": 2910,
          "time": 10.10417475,
          "velocity": 0.5984251968503937
        },
        {
          "duration": 0.20833350000000017,
          "durationTicks": 60,
          "midi": 43,
          "name": "G2",
          "ticks": 2940,
          "time": 10.2083415,
          "velocity": 0.5984251968503937
        },
        {
          "duration": 0.20833350000000017,
          "durationTicks": 60,
          "midi": 50,
          "name": "D3",
          "ticks": 3000,
          "time": 10.416675,
          "velocity": 0.5984251968503937
        },
        {
          "duration": 0.20833350000000017,
          "durationTicks": 60,
          "midi": 43,
          "name": "G2",
          "ticks": 3060,
          "time": 10.6250085,
          "velocity": 0.5984251968503937
        },
        {
          "duration": 0.20833350000000017,
          "durationTicks": 60,
          "midi": 51,
          "name": "D#3",
          "ticks": 3120,
          "time": 10.833342,
          "velocity": 0.5984251968503937
        },
        {
          "duration": 0.20833350000000017,
          "durationTicks": 60,
          "midi": 51,
          "name": "D#3",
          "ticks": 3180,
          "time": 11.0416755,
          "velocity": 0.5984251968503937
        },
        {
          "duration": 0.1041667499999992,
          "durationTicks": 30,
          "midi": 41,
          "name": "F2",
          "ticks": 3240,
          "time": 11.250009,
          "velocity": 0.5984251968503937
        },
        {
          "duration": 0.10416675000000097,
          "durationTicks": 30,
          "midi": 48,
          "name": "C3",
          "ticks": 3270,
          "time": 11.35417575,
          "velocity": 0.5984251968503937
        },
        {
          "duration": 0.20833350000000017,
          "durationTicks": 60,
          "midi": 41,
          "name": "F2",
          "ticks": 3300,
          "time": 11.4583425,
          "velocity": 0.5984251968503937
        },
        {
          "duration": 0.20833350000000017,
          "durationTicks": 60,
          "midi": 48,
          "name": "C3",
          "ticks": 3360,
          "time": 11.666676,
          "velocity": 0.5984251968503937
        },
        {
          "duration": 0.20833350000000017,
          "durationTicks": 60,
          "midi": 41,
          "name": "F2",
          "ticks": 3420,
          "time": 11.8750095,
          "velocity": 0.5984251968503937
        },
        {
          "duration": 0.2083334999999984,
          "durationTicks": 60,
          "midi": 50,
          "name": "D3",
          "ticks": 3480,
          "time": 12.083343000000001,
          "velocity": 0.5984251968503937
        },
        {
          "duration": 0.20833350000000017,
          "durationTicks": 60,
          "midi": 50,
          "name": "D3",
          "ticks": 3540,
          "time": 12.2916765,
          "velocity": 0.5984251968503937
        },
        {
          "duration": 0.10416675000000097,
          "durationTicks": 30,
          "midi": 39,
          "name": "D#2",
          "ticks": 3600,
          "time": 12.50001,
          "velocity": 0.5984251968503937
        },
        {
          "duration": 0.1041667499999992,
          "durationTicks": 30,
          "midi": 46,
          "name": "A#2",
          "ticks": 3630,
          "time": 12.60417675,
          "velocity": 0.5984251968503937
        },
        {
          "duration": 0.20833350000000017,
          "durationTicks": 60,
          "midi": 39,
          "name": "D#2",
          "ticks": 3660,
          "time": 12.7083435,
          "velocity": 0.5984251968503937
        },
        {
          "duration": 0.20833350000000017,
          "durationTicks": 60,
          "midi": 46,
          "name": "A#2",
          "ticks": 3720,
          "time": 12.916677,
          "velocity": 0.5984251968503937
        },
        {
          "duration": 0.20833350000000017,
          "durationTicks": 60,
          "midi": 40,
          "name": "E2",
          "ticks": 3780,
          "time": 13.1250105,
          "velocity": 0.5984251968503937
        },
        {
          "duration": 0.20833350000000017,
          "durationTicks": 60,
          "midi": 49,
          "name": "C#3",
          "ticks": 3840,
          "time": 13.333344,
          "velocity": 0.5984251968503937
        },
        {
          "duration": 0.20833350000000017,
          "durationTicks": 60,
          "midi": 49,
          "name": "C#3",
          "ticks": 3900,
          "time": 13.5416775,
          "velocity": 0.5984251968503937
        },
        {
          "duration": 0.1041667499999992,
          "durationTicks": 30,
          "midi": 42,
          "name": "F#2",
          "ticks": 3960,
          "time": 13.750011,
          "velocity": 0.5984251968503937
        },
        {
          "duration": 0.10416675000000097,
          "durationTicks": 30,
          "midi": 50,
          "name": "D3",
          "ticks": 3990,
          "time": 13.85417775,
          "velocity": 0.5984251968503937
        },
        {
          "duration": 0.20833350000000017,
          "durationTicks": 60,
          "midi": 42,
          "name": "F#2",
          "ticks": 4020,
          "time": 13.9583445,
          "velocity": 0.5984251968503937
        },
        {
          "duration": 0.20833350000000017,
          "durationTicks": 60,
          "midi": 50,
          "name": "D3",
          "ticks": 4080,
          "time": 14.166678000000001,
          "velocity": 0.5984251968503937
        },
        {
          "duration": 0.2083334999999984,
          "durationTicks": 60,
          "midi": 42,
          "name": "F#2",
          "ticks": 4140,
          "time": 14.375011500000001,
          "velocity": 0.5984251968503937
        },
        {
          "duration": 0.20833350000000017,
          "durationTicks": 60,
          "midi": 50,
          "name": "D3",
          "ticks": 4200,
          "time": 14.583345,
          "velocity": 0.5984251968503937
        },
        {
          "duration": 0.20833350000000017,
          "durationTicks": 60,
          "midi": 50,
          "name": "D3",
          "ticks": 4260,
          "time": 14.7916785,
          "velocity": 0.5984251968503937
        },
        {
          "duration": 0.10416675000000097,
          "durationTicks": 30,
          "midi": 43,
          "name": "G2",
          "ticks": 4320,
          "time": 15.000012,
          "velocity": 0.5984251968503937
        },
        {
          "duration": 0.1041667499999992,
          "durationTicks": 30,
          "midi": 50,
          "name": "D3",
          "ticks": 4350,
          "time": 15.10417875,
          "velocity": 0.5984251968503937
        },
        {
          "duration": 0.20833350000000017,
          "durationTicks": 60,
          "midi": 43,
          "name": "G2",
          "ticks": 4380,
          "time": 15.2083455,
          "velocity": 0.5984251968503937
        },
        {
          "duration": 0.20833350000000017,
          "durationTicks": 60,
          "midi": 50,
          "name": "D3",
          "ticks": 4440,
          "time": 15.416679,
          "velocity": 0.5984251968503937
        },
        {
          "duration": 0.20833350000000017,
          "durationTicks": 60,
          "midi": 43,
          "name": "G2",
          "ticks": 4500,
          "time": 15.6250125,
          "velocity": 0.5984251968503937
        },
        {
          "duration": 0.20833350000000017,
          "durationTicks": 60,
          "midi": 51,
          "name": "D#3",
          "ticks": 4560,
          "time": 15.833346,
          "velocity": 0.5984251968503937
        },
        {
          "duration": 0.2083334999999984,
          "durationTicks": 60,
          "midi": 51,
          "name": "D#3",
          "ticks": 4620,
          "time": 16.0416795,
          "velocity": 0.5984251968503937
        },
        {
          "duration": 0.10416675000000097,
          "durationTicks": 30,
          "midi": 41,
          "name": "F2",
          "ticks": 4680,
          "time": 16.250013,
          "velocity": 0.5984251968503937
        },
        {
          "duration": 0.10416675000000097,
          "durationTicks": 30,
          "midi": 48,
          "name": "C3",
          "ticks": 4710,
          "time": 16.35417975,
          "velocity": 0.5984251968503937
        },
        {
          "duration": 0.2083334999999984,
          "durationTicks": 60,
          "midi": 41,
          "name": "F2",
          "ticks": 4740,
          "time": 16.4583465,
          "velocity": 0.5984251968503937
        },
        {
          "duration": 0.20833350000000195,
          "durationTicks": 60,
          "midi": 48,
          "name": "C3",
          "ticks": 4800,
          "time": 16.66668,
          "velocity": 0.5984251968503937
        },
        {
          "duration": 0.2083334999999984,
          "durationTicks": 60,
          "midi": 41,
          "name": "F2",
          "ticks": 4860,
          "time": 16.8750135,
          "velocity": 0.5984251968503937
        },
        {
          "duration": 0.20833350000000195,
          "durationTicks": 60,
          "midi": 50,
          "name": "D3",
          "ticks": 4920,
          "time": 17.083347,
          "velocity": 0.5984251968503937
        },
        {
          "duration": 0.2083334999999984,
          "durationTicks": 60,
          "midi": 50,
          "name": "D3",
          "ticks": 4980,
          "time": 17.291680500000002,
          "velocity": 0.5984251968503937
        },
        {
          "duration": 0.10416675000000097,
          "durationTicks": 30,
          "midi": 39,
          "name": "D#2",
          "ticks": 5040,
          "time": 17.500014,
          "velocity": 0.5984251968503937
        },
        {
          "duration": 0.10416675000000097,
          "durationTicks": 30,
          "midi": 46,
          "name": "A#2",
          "ticks": 5070,
          "time": 17.60418075,
          "velocity": 0.5984251968503937
        },
        {
          "duration": 0.2083334999999984,
          "durationTicks": 60,
          "midi": 39,
          "name": "D#2",
          "ticks": 5100,
          "time": 17.708347500000002,
          "velocity": 0.5984251968503937
        },
        {
          "duration": 0.2083334999999984,
          "durationTicks": 60,
          "midi": 46,
          "name": "A#2",
          "ticks": 5160,
          "time": 17.916681,
          "velocity": 0.5984251968503937
        },
        {
          "duration": 0.20833350000000195,
          "durationTicks": 60,
          "midi": 40,
          "name": "E2",
          "ticks": 5220,
          "time": 18.1250145,
          "velocity": 0.5984251968503937
        },
        {
          "duration": 0.2083334999999984,
          "durationTicks": 60,
          "midi": 49,
          "name": "C#3",
          "ticks": 5280,
          "time": 18.333348,
          "velocity": 0.5984251968503937
        },
        {
          "duration": 0.20833350000000195,
          "durationTicks": 60,
          "midi": 49,
          "name": "C#3",
          "ticks": 5340,
          "time": 18.5416815,
          "velocity": 0.5984251968503937
        },
        {
          "duration": 0.10416675000000097,
          "durationTicks": 30,
          "midi": 42,
          "name": "F#2",
          "ticks": 5400,
          "time": 18.750015,
          "velocity": 0.5984251968503937
        },
        {
          "duration": 0.10416674999999742,
          "durationTicks": 30,
          "midi": 50,
          "name": "D3",
          "ticks": 5430,
          "time": 18.854181750000002,
          "velocity": 0.5984251968503937
        },
        {
          "duration": 0.20833350000000195,
          "durationTicks": 60,
          "midi": 42,
          "name": "F#2",
          "ticks": 5460,
          "time": 18.9583485,
          "velocity": 0.5984251968503937
        },
        {
          "duration": 0.2083334999999984,
          "durationTicks": 60,
          "midi": 50,
          "name": "D3",
          "ticks": 5520,
          "time": 19.166682,
          "velocity": 0.5984251968503937
        },
        {
          "duration": 0.20833350000000195,
          "durationTicks": 60,
          "midi": 42,
          "name": "F#2",
          "ticks": 5580,
          "time": 19.3750155,
          "velocity": 0.5984251968503937
        },
        {
          "duration": 0.2083334999999984,
          "durationTicks": 60,
          "midi": 50,
          "name": "D3",
          "ticks": 5640,
          "time": 19.583349000000002,
          "velocity": 0.5984251968503937
        },
        {
          "duration": 0.20833350000000195,
          "durationTicks": 60,
          "midi": 50,
          "name": "D3",
          "ticks": 5700,
          "time": 19.7916825,
          "velocity": 0.5984251968503937
        },
        {
          "duration": 0.10416674999999742,
          "durationTicks": 30,
          "midi": 43,
          "name": "G2",
          "ticks": 5760,
          "time": 20.000016000000002,
          "velocity": 0.5984251968503937
        },
        {
          "duration": 0.10416675000000097,
          "durationTicks": 30,
          "midi": 50,
          "name": "D3",
          "ticks": 5790,
          "time": 20.10418275,
          "velocity": 0.5984251968503937
        },
        {
          "duration": 0.2083334999999984,
          "durationTicks": 60,
          "midi": 43,
          "name": "G2",
          "ticks": 5820,
          "time": 20.2083495,
          "velocity": 0.5984251968503937
        },
        {
          "duration": 0.20833350000000195,
          "durationTicks": 60,
          "midi": 50,
          "name": "D3",
          "ticks": 5880,
          "time": 20.416683,
          "velocity": 0.5984251968503937
        },
        {
          "duration": 0.2083334999999984,
          "durationTicks": 60,
          "midi": 43,
          "name": "G2",
          "ticks": 5940,
          "time": 20.6250165,
          "velocity": 0.5984251968503937
        },
        {
          "duration": 0.20833350000000195,
          "durationTicks": 60,
          "midi": 51,
          "name": "D#3",
          "ticks": 6000,
          "time": 20.83335,
          "velocity": 0.5984251968503937
        },
        {
          "duration": 0.2083334999999984,
          "durationTicks": 60,
          "midi": 51,
          "name": "D#3",
          "ticks": 6060,
          "time": 21.0416835,
          "velocity": 0.5984251968503937
        },
        {
          "duration": 0.10416675000000097,
          "durationTicks": 30,
          "midi": 41,
          "name": "F2",
          "ticks": 6120,
          "time": 21.250017,
          "velocity": 0.5984251968503937
        },
        {
          "duration": 0.10416675000000097,
          "durationTicks": 30,
          "midi": 48,
          "name": "C3",
          "ticks": 6150,
          "time": 21.35418375,
          "velocity": 0.5984251968503937
        },
        {
          "duration": 0.2083334999999984,
          "durationTicks": 60,
          "midi": 41,
          "name": "F2",
          "ticks": 6180,
          "time": 21.4583505,
          "velocity": 0.5984251968503937
        },
        {
          "duration": 0.20833350000000195,
          "durationTicks": 60,
          "midi": 48,
          "name": "C3",
          "ticks": 6240,
          "time": 21.666684,
          "velocity": 0.5984251968503937
        },
        {
          "duration": 0.2083334999999984,
          "durationTicks": 60,
          "midi": 41,
          "name": "F2",
          "ticks": 6300,
          "time": 21.875017500000002,
          "velocity": 0.5984251968503937
        },
        {
          "duration": 0.2083334999999984,
          "durationTicks": 60,
          "midi": 50,
          "name": "D3",
          "ticks": 6360,
          "time": 22.083351,
          "velocity": 0.5984251968503937
        },
        {
          "duration": 0.20833350000000195,
          "durationTicks": 60,
          "midi": 50,
          "name": "D3",
          "ticks": 6420,
          "time": 22.2916845,
          "velocity": 0.5984251968503937
        },
        {
          "duration": 0.10416675000000097,
          "durationTicks": 30,
          "midi": 39,
          "name": "D#2",
          "ticks": 6480,
          "time": 22.500018,
          "velocity": 0.5984251968503937
        },
        {
          "duration": 0.10416674999999742,
          "durationTicks": 30,
          "midi": 46,
          "name": "A#2",
          "ticks": 6510,
          "time": 22.60418475,
          "velocity": 0.5984251968503937
        },
        {
          "duration": 0.20833350000000195,
          "durationTicks": 60,
          "midi": 39,
          "name": "D#2",
          "ticks": 6540,
          "time": 22.7083515,
          "velocity": 0.5984251968503937
        },
        {
          "duration": 0.2083334999999984,
          "durationTicks": 60,
          "midi": 46,
          "name": "A#2",
          "ticks": 6600,
          "time": 22.916685,
          "velocity": 0.5984251968503937
        },
        {
          "duration": 0.20833350000000195,
          "durationTicks": 60,
          "midi": 40,
          "name": "E2",
          "ticks": 6660,
          "time": 23.1250185,
          "velocity": 0.5984251968503937
        },
        {
          "duration": 0.2083334999999984,
          "durationTicks": 60,
          "midi": 49,
          "name": "C#3",
          "ticks": 6720,
          "time": 23.333352,
          "velocity": 0.5984251968503937
        },
        {
          "duration": 0.20833350000000195,
          "durationTicks": 60,
          "midi": 49,
          "name": "C#3",
          "ticks": 6780,
          "time": 23.5416855,
          "velocity": 0.5984251968503937
        },
        {
          "duration": 0.10416674999999742,
          "durationTicks": 30,
          "midi": 42,
          "name": "F#2",
          "ticks": 6840,
          "time": 23.750019,
          "velocity": 0.5984251968503937
        },
        {
          "duration": 0.10416675000000097,
          "durationTicks": 30,
          "midi": 50,
          "name": "D3",
          "ticks": 6870,
          "time": 23.85418575,
          "velocity": 0.5984251968503937
        },
        {
          "duration": 0.20833350000000195,
          "durationTicks": 60,
          "midi": 42,
          "name": "F#2",
          "ticks": 6900,
          "time": 23.9583525,
          "velocity": 0.5984251968503937
        },
        {
          "duration": 0.2083334999999984,
          "durationTicks": 60,
          "midi": 50,
          "name": "D3",
          "ticks": 6960,
          "time": 24.166686000000002,
          "velocity": 0.5984251968503937
        },
        {
          "duration": 0.2083334999999984,
          "durationTicks": 60,
          "midi": 42,
          "name": "F#2",
          "ticks": 7020,
          "time": 24.3750195,
          "velocity": 0.5984251968503937
        },
        {
          "duration": 0.20833350000000195,
          "durationTicks": 60,
          "midi": 50,
          "name": "D3",
          "ticks": 7080,
          "time": 24.583353,
          "velocity": 0.5984251968503937
        },
        {
          "duration": 0.2083334999999984,
          "durationTicks": 60,
          "midi": 50,
          "name": "D3",
          "ticks": 7140,
          "time": 24.7916865,
          "velocity": 0.5984251968503937
        },
        {
          "duration": 0.10416675000000097,
          "durationTicks": 30,
          "midi": 43,
          "name": "G2",
          "ticks": 7200,
          "time": 25.00002,
          "velocity": 0.5984251968503937
        },
        {
          "duration": 0.10416675000000097,
          "durationTicks": 30,
          "midi": 50,
          "name": "D3",
          "ticks": 7230,
          "time": 25.10418675,
          "velocity": 0.5984251968503937
        },
        {
          "duration": 0.2083334999999984,
          "durationTicks": 60,
          "midi": 43,
          "name": "G2",
          "ticks": 7260,
          "time": 25.2083535,
          "velocity": 0.5984251968503937
        },
        {
          "duration": 0.20833350000000195,
          "durationTicks": 60,
          "midi": 50,
          "name": "D3",
          "ticks": 7320,
          "time": 25.416687,
          "velocity": 0.5984251968503937
        },
        {
          "duration": 0.2083334999999984,
          "durationTicks": 60,
          "midi": 43,
          "name": "G2",
          "ticks": 7380,
          "time": 25.6250205,
          "velocity": 0.5984251968503937
        },
        {
          "duration": 0.20833350000000195,
          "durationTicks": 60,
          "midi": 51,
          "name": "D#3",
          "ticks": 7440,
          "time": 25.833354,
          "velocity": 0.5984251968503937
        },
        {
          "duration": 0.2083334999999984,
          "durationTicks": 60,
          "midi": 51,
          "name": "D#3",
          "ticks": 7500,
          "time": 26.041687500000002,
          "velocity": 0.5984251968503937
        },
        {
          "duration": 0.10416675000000097,
          "durationTicks": 30,
          "midi": 41,
          "name": "F2",
          "ticks": 7560,
          "time": 26.250021,
          "velocity": 0.5984251968503937
        },
        {
          "duration": 0.10416675000000097,
          "durationTicks": 30,
          "midi": 48,
          "name": "C3",
          "ticks": 7590,
          "time": 26.35418775,
          "velocity": 0.5984251968503937
        },
        {
          "duration": 0.2083334999999984,
          "durationTicks": 60,
          "midi": 41,
          "name": "F2",
          "ticks": 7620,
          "time": 26.458354500000002,
          "velocity": 0.5984251968503937
        },
        {
          "duration": 0.2083334999999984,
          "durationTicks": 60,
          "midi": 48,
          "name": "C3",
          "ticks": 7680,
          "time": 26.666688,
          "velocity": 0.5984251968503937
        },
        {
          "duration": 0.20833350000000195,
          "durationTicks": 60,
          "midi": 41,
          "name": "F2",
          "ticks": 7740,
          "time": 26.8750215,
          "velocity": 0.5984251968503937
        },
        {
          "duration": 0.2083334999999984,
          "durationTicks": 60,
          "midi": 50,
          "name": "D3",
          "ticks": 7800,
          "time": 27.083355,
          "velocity": 0.5984251968503937
        },
        {
          "duration": 0.20833350000000195,
          "durationTicks": 60,
          "midi": 50,
          "name": "D3",
          "ticks": 7860,
          "time": 27.2916885,
          "velocity": 0.5984251968503937
        },
        {
          "duration": 0.10416675000000097,
          "durationTicks": 30,
          "midi": 39,
          "name": "D#2",
          "ticks": 7920,
          "time": 27.500022,
          "velocity": 0.5984251968503937
        },
        {
          "duration": 0.10416674999999742,
          "durationTicks": 30,
          "midi": 46,
          "name": "A#2",
          "ticks": 7950,
          "time": 27.604188750000002,
          "velocity": 0.5984251968503937
        },
        {
          "duration": 0.20833350000000195,
          "durationTicks": 60,
          "midi": 39,
          "name": "D#2",
          "ticks": 7980,
          "time": 27.7083555,
          "velocity": 0.5984251968503937
        },
        {
          "duration": 0.2083334999999984,
          "durationTicks": 60,
          "midi": 46,
          "name": "A#2",
          "ticks": 8040,
          "time": 27.916689,
          "velocity": 0.5984251968503937
        },
        {
          "duration": 0.20833350000000195,
          "durationTicks": 60,
          "midi": 40,
          "name": "E2",
          "ticks": 8100,
          "time": 28.1250225,
          "velocity": 0.5984251968503937
        },
        {
          "duration": 0.2083334999999984,
          "durationTicks": 60,
          "midi": 49,
          "name": "C#3",
          "ticks": 8160,
          "time": 28.333356000000002,
          "velocity": 0.5984251968503937
        },
        {
          "duration": 0.20833350000000195,
          "durationTicks": 60,
          "midi": 49,
          "name": "C#3",
          "ticks": 8220,
          "time": 28.5416895,
          "velocity": 0.5984251968503937
        },
        {
          "duration": 0.10416674999999742,
          "durationTicks": 30,
          "midi": 42,
          "name": "F#2",
          "ticks": 8280,
          "time": 28.750023000000002,
          "velocity": 0.5984251968503937
        },
        {
          "duration": 0.10416675000000097,
          "durationTicks": 30,
          "midi": 50,
          "name": "D3",
          "ticks": 8310,
          "time": 28.85418975,
          "velocity": 0.5984251968503937
        },
        {
          "duration": 0.2083334999999984,
          "durationTicks": 60,
          "midi": 42,
          "name": "F#2",
          "ticks": 8340,
          "time": 28.9583565,
          "velocity": 0.5984251968503937
        },
        {
          "duration": 0.20833350000000195,
          "durationTicks": 60,
          "midi": 50,
          "name": "D3",
          "ticks": 8400,
          "time": 29.16669,
          "velocity": 0.5984251968503937
        },
        {
          "duration": 0.2083334999999984,
          "durationTicks": 60,
          "midi": 42,
          "name": "F#2",
          "ticks": 8460,
          "time": 29.3750235,
          "velocity": 0.5984251968503937
        },
        {
          "duration": 0.20833350000000195,
          "durationTicks": 60,
          "midi": 50,
          "name": "D3",
          "ticks": 8520,
          "time": 29.583357,
          "velocity": 0.5984251968503937
        },
        {
          "duration": 0.2083334999999984,
          "durationTicks": 60,
          "midi": 50,
          "name": "D3",
          "ticks": 8580,
          "time": 29.7916905,
          "velocity": 0.5984251968503937
        },
        {
          "duration": 0.10416675000000097,
          "durationTicks": 30,
          "midi": 43,
          "name": "G2",
          "ticks": 8640,
          "time": 30.000024,
          "velocity": 0.5984251968503937
        },
        {
          "duration": 0.10416675000000097,
          "durationTicks": 30,
          "midi": 50,
          "name": "D3",
          "ticks": 8670,
          "time": 30.10419075,
          "velocity": 0.5984251968503937
        },
        {
          "duration": 0.2083334999999984,
          "durationTicks": 60,
          "midi": 43,
          "name": "G2",
          "ticks": 8700,
          "time": 30.2083575,
          "velocity": 0.5984251968503937
        },
        {
          "duration": 0.20833350000000195,
          "durationTicks": 60,
          "midi": 50,
          "name": "D3",
          "ticks": 8760,
          "time": 30.416691,
          "velocity": 0.5984251968503937
        },
        {
          "duration": 0.2083334999999984,
          "durationTicks": 60,
          "midi": 43,
          "name": "G2",
          "ticks": 8820,
          "time": 30.625024500000002,
          "velocity": 0.5984251968503937
        },
        {
          "duration": 0.20833350000000195,
          "durationTicks": 60,
          "midi": 51,
          "name": "D#3",
          "ticks": 8880,
          "time": 30.833358,
          "velocity": 0.5984251968503937
        },
        {
          "duration": 0.2083334999999984,
          "durationTicks": 60,
          "midi": 51,
          "name": "D#3",
          "ticks": 8940,
          "time": 31.041691500000002,
          "velocity": 0.5984251968503937
        },
        {
          "duration": 0.10416675000000097,
          "durationTicks": 30,
          "midi": 41,
          "name": "F2",
          "ticks": 9000,
          "time": 31.250025,
          "velocity": 0.5984251968503937
        },
        {
          "duration": 0.10416674999999742,
          "durationTicks": 30,
          "midi": 48,
          "name": "C3",
          "ticks": 9030,
          "time": 31.354191750000002,
          "velocity": 0.5984251968503937
        },
        {
          "duration": 0.20833350000000195,
          "durationTicks": 60,
          "midi": 41,
          "name": "F2",
          "ticks": 9060,
          "time": 31.4583585,
          "velocity": 0.5984251968503937
        },
        {
          "duration": 0.2083334999999984,
          "durationTicks": 60,
          "midi": 48,
          "name": "C3",
          "ticks": 9120,
          "time": 31.666692,
          "velocity": 0.5984251968503937
        },
        {
          "duration": 0.20833350000000195,
          "durationTicks": 60,
          "midi": 41,
          "name": "F2",
          "ticks": 9180,
          "time": 31.8750255,
          "velocity": 0.5984251968503937
        },
        {
          "duration": 0.20833350000000195,
          "durationTicks": 60,
          "midi": 50,
          "name": "D3",
          "ticks": 9240,
          "time": 32.083359,
          "velocity": 0.5984251968503937
        },
        {
          "duration": 0.20833349999999484,
          "durationTicks": 60,
          "midi": 50,
          "name": "D3",
          "ticks": 9300,
          "time": 32.2916925,
          "velocity": 0.5984251968503937
        },
        {
          "duration": 0.10416675000000453,
          "durationTicks": 30,
          "midi": 39,
          "name": "D#2",
          "ticks": 9360,
          "time": 32.500026,
          "velocity": 0.5984251968503937
        },
        {
          "duration": 0.10416674999999742,
          "durationTicks": 30,
          "midi": 46,
          "name": "A#2",
          "ticks": 9390,
          "time": 32.60419275,
          "velocity": 0.5984251968503937
        },
        {
          "duration": 0.20833350000000195,
          "durationTicks": 60,
          "midi": 39,
          "name": "D#2",
          "ticks": 9420,
          "time": 32.7083595,
          "velocity": 0.5984251968503937
        },
        {
          "duration": 0.20833350000000195,
          "durationTicks": 60,
          "midi": 46,
          "name": "A#2",
          "ticks": 9480,
          "time": 32.916693,
          "velocity": 0.5984251968503937
        },
        {
          "duration": 0.20833349999999484,
          "durationTicks": 60,
          "midi": 40,
          "name": "E2",
          "ticks": 9540,
          "time": 33.125026500000004,
          "velocity": 0.5984251968503937
        },
        {
          "duration": 0.20833350000000195,
          "durationTicks": 60,
          "midi": 49,
          "name": "C#3",
          "ticks": 9600,
          "time": 33.33336,
          "velocity": 0.5984251968503937
        },
        {
          "duration": 0.20833350000000195,
          "durationTicks": 60,
          "midi": 49,
          "name": "C#3",
          "ticks": 9660,
          "time": 33.5416935,
          "velocity": 0.5984251968503937
        },
        {
          "duration": 0.10416674999999742,
          "durationTicks": 30,
          "midi": 42,
          "name": "F#2",
          "ticks": 9720,
          "time": 33.750027,
          "velocity": 0.5984251968503937
        },
        {
          "duration": 0.10416674999999742,
          "durationTicks": 30,
          "midi": 50,
          "name": "D3",
          "ticks": 9750,
          "time": 33.85419375,
          "velocity": 0.5984251968503937
        },
        {
          "duration": 0.20833350000000195,
          "durationTicks": 60,
          "midi": 42,
          "name": "F#2",
          "ticks": 9780,
          "time": 33.9583605,
          "velocity": 0.5984251968503937
        },
        {
          "duration": 0.20833350000000195,
          "durationTicks": 60,
          "midi": 50,
          "name": "D3",
          "ticks": 9840,
          "time": 34.166694,
          "velocity": 0.5984251968503937
        },
        {
          "duration": 0.20833350000000195,
          "durationTicks": 60,
          "midi": 42,
          "name": "F#2",
          "ticks": 9900,
          "time": 34.3750275,
          "velocity": 0.5984251968503937
        },
        {
          "duration": 0.20833349999999484,
          "durationTicks": 60,
          "midi": 50,
          "name": "D3",
          "ticks": 9960,
          "time": 34.583361000000004,
          "velocity": 0.5984251968503937
        },
        {
          "duration": 0.20833350000000195,
          "durationTicks": 60,
          "midi": 50,
          "name": "D3",
          "ticks": 10020,
          "time": 34.7916945,
          "velocity": 0.5984251968503937
        },
        {
          "duration": 0.10416674999999742,
          "durationTicks": 30,
          "midi": 43,
          "name": "G2",
          "ticks": 10080,
          "time": 35.000028,
          "velocity": 0.5984251968503937
        },
        {
          "duration": 0.10416675000000453,
          "durationTicks": 30,
          "midi": 50,
          "name": "D3",
          "ticks": 10110,
          "time": 35.10419475,
          "velocity": 0.5984251968503937
        },
        {
          "duration": 0.20833350000000195,
          "durationTicks": 60,
          "midi": 43,
          "name": "G2",
          "ticks": 10140,
          "time": 35.2083615,
          "velocity": 0.5984251968503937
        },
        {
          "duration": 0.20833349999999484,
          "durationTicks": 60,
          "midi": 50,
          "name": "D3",
          "ticks": 10200,
          "time": 35.416695000000004,
          "velocity": 0.5984251968503937
        },
        {
          "duration": 0.20833350000000195,
          "durationTicks": 60,
          "midi": 43,
          "name": "G2",
          "ticks": 10260,
          "time": 35.6250285,
          "velocity": 0.5984251968503937
        },
        {
          "duration": 0.20833350000000195,
          "durationTicks": 60,
          "midi": 51,
          "name": "D#3",
          "ticks": 10320,
          "time": 35.833362,
          "velocity": 0.5984251968503937
        },
        {
          "duration": 0.20833349999999484,
          "durationTicks": 60,
          "midi": 51,
          "name": "D#3",
          "ticks": 10380,
          "time": 36.0416955,
          "velocity": 0.5984251968503937
        },
        {
          "duration": 0.10416675000000453,
          "durationTicks": 30,
          "midi": 41,
          "name": "F2",
          "ticks": 10440,
          "time": 36.250029,
          "velocity": 0.5984251968503937
        },
        {
          "duration": 0.10416674999999742,
          "durationTicks": 30,
          "midi": 48,
          "name": "C3",
          "ticks": 10470,
          "time": 36.35419575,
          "velocity": 0.5984251968503937
        },
        {
          "duration": 0.20833350000000195,
          "durationTicks": 60,
          "midi": 41,
          "name": "F2",
          "ticks": 10500,
          "time": 36.4583625,
          "velocity": 0.5984251968503937
        },
        {
          "duration": 0.20833350000000195,
          "durationTicks": 60,
          "midi": 48,
          "name": "C3",
          "ticks": 10560,
          "time": 36.666696,
          "velocity": 0.5984251968503937
        },
        {
          "duration": 0.20833349999999484,
          "durationTicks": 60,
          "midi": 41,
          "name": "F2",
          "ticks": 10620,
          "time": 36.875029500000004,
          "velocity": 0.5984251968503937
        },
        {
          "duration": 0.20833350000000195,
          "durationTicks": 60,
          "midi": 50,
          "name": "D3",
          "ticks": 10680,
          "time": 37.083363,
          "velocity": 0.5984251968503937
        },
        {
          "duration": 0.20833350000000195,
          "durationTicks": 60,
          "midi": 50,
          "name": "D3",
          "ticks": 10740,
          "time": 37.2916965,
          "velocity": 0.5984251968503937
        },
        {
          "duration": 0.10416674999999742,
          "durationTicks": 30,
          "midi": 39,
          "name": "D#2",
          "ticks": 10800,
          "time": 37.50003,
          "velocity": 0.5984251968503937
        },
        {
          "duration": 0.10416675000000453,
          "durationTicks": 30,
          "midi": 46,
          "name": "A#2",
          "ticks": 10830,
          "time": 37.60419675,
          "velocity": 0.5984251968503937
        },
        {
          "duration": 0.20833349999999484,
          "durationTicks": 60,
          "midi": 39,
          "name": "D#2",
          "ticks": 10860,
          "time": 37.708363500000004,
          "velocity": 0.5984251968503937
        },
        {
          "duration": 0.20833350000000195,
          "durationTicks": 60,
          "midi": 46,
          "name": "A#2",
          "ticks": 10920,
          "time": 37.916697,
          "velocity": 0.5984251968503937
        },
        {
          "duration": 0.20833350000000195,
          "durationTicks": 60,
          "midi": 40,
          "name": "E2",
          "ticks": 10980,
          "time": 38.1250305,
          "velocity": 0.5984251968503937
        },
        {
          "duration": 0.20833349999999484,
          "durationTicks": 60,
          "midi": 49,
          "name": "C#3",
          "ticks": 11040,
          "time": 38.333364,
          "velocity": 0.5984251968503937
        },
        {
          "duration": 0.20833350000000195,
          "durationTicks": 60,
          "midi": 49,
          "name": "C#3",
          "ticks": 11100,
          "time": 38.5416975,
          "velocity": 0.5984251968503937
        },
        {
          "duration": 0.10416675000000453,
          "durationTicks": 30,
          "midi": 42,
          "name": "F#2",
          "ticks": 11160,
          "time": 38.750031,
          "velocity": 0.5984251968503937
        },
        {
          "duration": 0.10416674999999742,
          "durationTicks": 30,
          "midi": 50,
          "name": "D3",
          "ticks": 11190,
          "time": 38.854197750000004,
          "velocity": 0.5984251968503937
        },
        {
          "duration": 0.20833350000000195,
          "durationTicks": 60,
          "midi": 42,
          "name": "F#2",
          "ticks": 11220,
          "time": 38.9583645,
          "velocity": 0.5984251968503937
        },
        {
          "duration": 0.20833349999999484,
          "durationTicks": 60,
          "midi": 50,
          "name": "D3",
          "ticks": 11280,
          "time": 39.166698000000004,
          "velocity": 0.5984251968503937
        },
        {
          "duration": 0.20833350000000195,
          "durationTicks": 60,
          "midi": 42,
          "name": "F#2",
          "ticks": 11340,
          "time": 39.3750315,
          "velocity": 0.5984251968503937
        },
        {
          "duration": 0.20833350000000195,
          "durationTicks": 60,
          "midi": 50,
          "name": "D3",
          "ticks": 11400,
          "time": 39.583365,
          "velocity": 0.5984251968503937
        },
        {
          "duration": 0.20833350000000195,
          "durationTicks": 60,
          "midi": 50,
          "name": "D3",
          "ticks": 11460,
          "time": 39.7916985,
          "velocity": 0.5984251968503937
        },
        {
          "duration": 0.20833349999999484,
          "durationTicks": 60,
          "midi": 43,
          "name": "G2",
          "ticks": 11520,
          "time": 40.000032000000004,
          "velocity": 0.5984251968503937
        },
        {
          "duration": 0.20833350000000195,
          "durationTicks": 60,
          "midi": 50,
          "name": "D3",
          "ticks": 11580,
          "time": 40.2083655,
          "velocity": 0.5984251968503937
        },
        {
          "duration": 0.20833350000000195,
          "durationTicks": 60,
          "midi": 43,
          "name": "G2",
          "ticks": 11640,
          "time": 40.416699,
          "velocity": 0.5984251968503937
        },
        {
          "duration": 0.20833349999999484,
          "durationTicks": 60,
          "midi": 50,
          "name": "D3",
          "ticks": 11700,
          "time": 40.6250325,
          "velocity": 0.5984251968503937
        },
        {
          "duration": 0.20833350000000195,
          "durationTicks": 60,
          "midi": 41,
          "name": "F2",
          "ticks": 11760,
          "time": 40.833366,
          "velocity": 0.5984251968503937
        },
        {
          "duration": 0.20833350000000195,
          "durationTicks": 60,
          "midi": 48,
          "name": "C3",
          "ticks": 11820,
          "time": 41.0416995,
          "velocity": 0.5984251968503937
        },
        {
          "duration": 0.20833350000000195,
          "durationTicks": 60,
          "midi": 41,
          "name": "F2",
          "ticks": 11880,
          "time": 41.250033,
          "velocity": 0.5984251968503937
        },
        {
          "duration": 0.20833349999999484,
          "durationTicks": 60,
          "midi": 48,
          "name": "C3",
          "ticks": 11940,
          "time": 41.458366500000004,
          "velocity": 0.5984251968503937
        },
        {
          "duration": 0.20833350000000195,
          "durationTicks": 60,
          "midi": 39,
          "name": "D#2",
          "ticks": 12000,
          "time": 41.6667,
          "velocity": 0.5984251968503937
        },
        {
          "duration": 0.20833350000000195,
          "durationTicks": 60,
          "midi": 46,
          "name": "A#2",
          "ticks": 12060,
          "time": 41.8750335,
          "velocity": 0.5984251968503937
        },
        {
          "duration": 0.20833349999999484,
          "durationTicks": 60,
          "midi": 39,
          "name": "D#2",
          "ticks": 12120,
          "time": 42.083367,
          "velocity": 0.5984251968503937
        },
        {
          "duration": 0.20833350000000195,
          "durationTicks": 60,
          "midi": 46,
          "name": "A#2",
          "ticks": 12180,
          "time": 42.2917005,
          "velocity": 0.5984251968503937
        },
        {
          "duration": 0.20833350000000195,
          "durationTicks": 60,
          "midi": 41,
          "name": "F2",
          "ticks": 12240,
          "time": 42.500034,
          "velocity": 0.5984251968503937
        },
        {
          "duration": 0.20833350000000195,
          "durationTicks": 60,
          "midi": 48,
          "name": "C3",
          "ticks": 12300,
          "time": 42.7083675,
          "velocity": 0.5984251968503937
        },
        {
          "duration": 0.20833349999999484,
          "durationTicks": 60,
          "midi": 41,
          "name": "F2",
          "ticks": 12360,
          "time": 42.916701,
          "velocity": 0.5984251968503937
        },
        {
          "duration": 0.20833350000000195,
          "durationTicks": 60,
          "midi": 48,
          "name": "C3",
          "ticks": 12420,
          "time": 43.1250345,
          "velocity": 0.5984251968503937
        },
        {
          "duration": 0.20833350000000195,
          "durationTicks": 60,
          "midi": 36,
          "name": "C2",
          "ticks": 12480,
          "time": 43.333368,
          "velocity": 0.5984251968503937
        },
        {
          "duration": 0.20833350000000195,
          "durationTicks": 60,
          "midi": 43,
          "name": "G2",
          "ticks": 12540,
          "time": 43.5417015,
          "velocity": 0.5984251968503937
        },
        {
          "duration": 0.20833349999999484,
          "durationTicks": 60,
          "midi": 36,
          "name": "C2",
          "ticks": 12600,
          "time": 43.750035000000004,
          "velocity": 0.5984251968503937
        },
        {
          "duration": 0.20833350000000195,
          "durationTicks": 60,
          "midi": 43,
          "name": "G2",
          "ticks": 12660,
          "time": 43.9583685,
          "velocity": 0.5984251968503937
        },
        {
          "duration": 0.20833350000000195,
          "durationTicks": 60,
          "midi": 38,
          "name": "D2",
          "ticks": 12720,
          "time": 44.166702,
          "velocity": 0.5984251968503937
        },
        {
          "duration": 0.20833349999999484,
          "durationTicks": 60,
          "midi": 45,
          "name": "A2",
          "ticks": 12780,
          "time": 44.3750355,
          "velocity": 0.5984251968503937
        },
        {
          "duration": 0.20833350000000195,
          "durationTicks": 60,
          "midi": 38,
          "name": "D2",
          "ticks": 12840,
          "time": 44.583369,
          "velocity": 0.5984251968503937
        },
        {
          "duration": 0.20833350000000195,
          "durationTicks": 60,
          "midi": 45,
          "name": "A2",
          "ticks": 12900,
          "time": 44.7917025,
          "velocity": 0.5984251968503937
        },
        {
          "duration": 0.20833350000000195,
          "durationTicks": 60,
          "midi": 39,
          "name": "D#2",
          "ticks": 12960,
          "time": 45.000036,
          "velocity": 0.5984251968503937
        },
        {
          "duration": 0.20833349999999484,
          "durationTicks": 60,
          "midi": 46,
          "name": "A#2",
          "ticks": 13020,
          "time": 45.2083695,
          "velocity": 0.5984251968503937
        },
        {
          "duration": 0.20833350000000195,
          "durationTicks": 60,
          "midi": 39,
          "name": "D#2",
          "ticks": 13080,
          "time": 45.416703,
          "velocity": 0.5984251968503937
        },
        {
          "duration": 0.20833350000000195,
          "durationTicks": 60,
          "midi": 46,
          "name": "A#2",
          "ticks": 13140,
          "time": 45.6250365,
          "velocity": 0.5984251968503937
        },
        {
          "duration": 0.20833350000000195,
          "durationTicks": 60,
          "midi": 41,
          "name": "F2",
          "ticks": 13200,
          "time": 45.83337,
          "velocity": 0.5984251968503937
        },
        {
          "duration": 0.20833349999999484,
          "durationTicks": 60,
          "midi": 48,
          "name": "C3",
          "ticks": 13260,
          "time": 46.041703500000004,
          "velocity": 0.5984251968503937
        },
        {
          "duration": 0.20833350000000195,
          "durationTicks": 60,
          "midi": 41,
          "name": "F2",
          "ticks": 13320,
          "time": 46.250037,
          "velocity": 0.5984251968503937
        },
        {
          "duration": 0.20833350000000195,
          "durationTicks": 60,
          "midi": 48,
          "name": "C3",
          "ticks": 13380,
          "time": 46.4583705,
          "velocity": 0.5984251968503937
        },
        {
          "duration": 0.20833349999999484,
          "durationTicks": 60,
          "midi": 43,
          "name": "G2",
          "ticks": 13440,
          "time": 46.666704,
          "velocity": 0.5984251968503937
        },
        {
          "duration": 0.20833350000000195,
          "durationTicks": 60,
          "midi": 50,
          "name": "D3",
          "ticks": 13500,
          "time": 46.8750375,
          "velocity": 0.5984251968503937
        },
        {
          "duration": 0.20833350000000195,
          "durationTicks": 60,
          "midi": 43,
          "name": "G2",
          "ticks": 13560,
          "time": 47.083371,
          "velocity": 0.5984251968503937
        },
        {
          "duration": 0.20833350000000195,
          "durationTicks": 60,
          "midi": 50,
          "name": "D3",
          "ticks": 13620,
          "time": 47.2917045,
          "velocity": 0.5984251968503937
        },
        {
          "duration": 0.20833349999999484,
          "durationTicks": 60,
          "midi": 41,
          "name": "F2",
          "ticks": 13680,
          "time": 47.500038,
          "velocity": 0.5984251968503937
        },
        {
          "duration": 0.20833350000000195,
          "durationTicks": 60,
          "midi": 48,
          "name": "C3",
          "ticks": 13740,
          "time": 47.7083715,
          "velocity": 0.5984251968503937
        },
        {
          "duration": 0.20833350000000195,
          "durationTicks": 60,
          "midi": 41,
          "name": "F2",
          "ticks": 13800,
          "time": 47.916705,
          "velocity": 0.5984251968503937
        },
        {
          "duration": 0.20833350000000195,
          "durationTicks": 60,
          "midi": 48,
          "name": "C3",
          "ticks": 13860,
          "time": 48.1250385,
          "velocity": 0.5984251968503937
        },
        {
          "duration": 0.20833349999999484,
          "durationTicks": 60,
          "midi": 39,
          "name": "D#2",
          "ticks": 13920,
          "time": 48.333372000000004,
          "velocity": 0.5984251968503937
        },
        {
          "duration": 0.20833350000000195,
          "durationTicks": 60,
          "midi": 46,
          "name": "A#2",
          "ticks": 13980,
          "time": 48.5417055,
          "velocity": 0.5984251968503937
        },
        {
          "duration": 0.20833350000000195,
          "durationTicks": 60,
          "midi": 39,
          "name": "D#2",
          "ticks": 14040,
          "time": 48.750039,
          "velocity": 0.5984251968503937
        },
        {
          "duration": 0.20833349999999484,
          "durationTicks": 60,
          "midi": 46,
          "name": "A#2",
          "ticks": 14100,
          "time": 48.9583725,
          "velocity": 0.5984251968503937
        },
        {
          "duration": 0.20833350000000195,
          "durationTicks": 60,
          "midi": 41,
          "name": "F2",
          "ticks": 14160,
          "time": 49.166706,
          "velocity": 0.5984251968503937
        },
        {
          "duration": 0.20833350000000195,
          "durationTicks": 60,
          "midi": 48,
          "name": "C3",
          "ticks": 14220,
          "time": 49.3750395,
          "velocity": 0.5984251968503937
        },
        {
          "duration": 0.20833350000000195,
          "durationTicks": 60,
          "midi": 41,
          "name": "F2",
          "ticks": 14280,
          "time": 49.583373,
          "velocity": 0.5984251968503937
        },
        {
          "duration": 0.20833349999999484,
          "durationTicks": 60,
          "midi": 48,
          "name": "C3",
          "ticks": 14340,
          "time": 49.791706500000004,
          "velocity": 0.5984251968503937
        },
        {
          "duration": 0.20833350000000195,
          "durationTicks": 60,
          "midi": 36,
          "name": "C2",
          "ticks": 14400,
          "time": 50.00004,
          "velocity": 0.5984251968503937
        },
        {
          "duration": 0.20833350000000195,
          "durationTicks": 60,
          "midi": 43,
          "name": "G2",
          "ticks": 14460,
          "time": 50.2083735,
          "velocity": 0.5984251968503937
        },
        {
          "duration": 0.20833350000000195,
          "durationTicks": 60,
          "midi": 36,
          "name": "C2",
          "ticks": 14520,
          "time": 50.416707,
          "velocity": 0.5984251968503937
        },
        {
          "duration": 0.20833349999999484,
          "durationTicks": 60,
          "midi": 43,
          "name": "G2",
          "ticks": 14580,
          "time": 50.625040500000004,
          "velocity": 0.5984251968503937
        },
        {
          "duration": 0.20833350000000195,
          "durationTicks": 60,
          "midi": 38,
          "name": "D2",
          "ticks": 14640,
          "time": 50.833374,
          "velocity": 0.5984251968503937
        },
        {
          "duration": 0.20833350000000195,
          "durationTicks": 60,
          "midi": 45,
          "name": "A2",
          "ticks": 14700,
          "time": 51.0417075,
          "velocity": 0.5984251968503937
        },
        {
          "duration": 0.20833349999999484,
          "durationTicks": 60,
          "midi": 38,
          "name": "D2",
          "ticks": 14760,
          "time": 51.250041,
          "velocity": 0.5984251968503937
        },
        {
          "duration": 0.20833350000000195,
          "durationTicks": 60,
          "midi": 45,
          "name": "A2",
          "ticks": 14820,
          "time": 51.4583745,
          "velocity": 0.5984251968503937
        },
        {
          "duration": 0.20833350000000195,
          "durationTicks": 60,
          "midi": 39,
          "name": "D#2",
          "ticks": 14880,
          "time": 51.666708,
          "velocity": 0.5984251968503937
        },
        {
          "duration": 0.20833350000000195,
          "durationTicks": 60,
          "midi": 46,
          "name": "A#2",
          "ticks": 14940,
          "time": 51.8750415,
          "velocity": 0.5984251968503937
        },
        {
          "duration": 0.20833349999999484,
          "durationTicks": 60,
          "midi": 39,
          "name": "D#2",
          "ticks": 15000,
          "time": 52.083375000000004,
          "velocity": 0.5984251968503937
        },
        {
          "duration": 0.20833350000000195,
          "durationTicks": 60,
          "midi": 46,
          "name": "A#2",
          "ticks": 15060,
          "time": 52.2917085,
          "velocity": 0.5984251968503937
        },
        {
          "duration": 0.20833350000000195,
          "durationTicks": 60,
          "midi": 41,
          "name": "F2",
          "ticks": 15120,
          "time": 52.500042,
          "velocity": 0.5984251968503937
        },
        {
          "duration": 0.20833350000000195,
          "durationTicks": 60,
          "midi": 48,
          "name": "C3",
          "ticks": 15180,
          "time": 52.7083755,
          "velocity": 0.5984251968503937
        },
        {
          "duration": 0.20833349999999484,
          "durationTicks": 60,
          "midi": 41,
          "name": "F2",
          "ticks": 15240,
          "time": 52.916709000000004,
          "velocity": 0.5984251968503937
        },
        {
          "duration": 0.20833350000000195,
          "durationTicks": 60,
          "midi": 48,
          "name": "C3",
          "ticks": 15300,
          "time": 53.1250425,
          "velocity": 0.5984251968503937
        },
        {
          "duration": 0.20833350000000195,
          "durationTicks": 60,
          "midi": 40,
          "name": "E2",
          "ticks": 15360,
          "time": 53.333376,
          "velocity": 0.5984251968503937
        },
        {
          "duration": 0.20833349999999484,
          "durationTicks": 60,
          "midi": 47,
          "name": "B2",
          "ticks": 15420,
          "time": 53.5417095,
          "velocity": 0.5984251968503937
        },
        {
          "duration": 0.20833350000000195,
          "durationTicks": 60,
          "midi": 40,
          "name": "E2",
          "ticks": 15480,
          "time": 53.750043,
          "velocity": 0.5984251968503937
        },
        {
          "duration": 0.20833350000000195,
          "durationTicks": 60,
          "midi": 47,
          "name": "B2",
          "ticks": 15540,
          "time": 53.9583765,
          "velocity": 0.5984251968503937
        },
        {
          "duration": 0.20833350000000195,
          "durationTicks": 60,
          "midi": 38,
          "name": "D2",
          "ticks": 15600,
          "time": 54.16671,
          "velocity": 0.5984251968503937
        },
        {
          "duration": 0.20833349999999484,
          "durationTicks": 60,
          "midi": 45,
          "name": "A2",
          "ticks": 15660,
          "time": 54.375043500000004,
          "velocity": 0.5984251968503937
        },
        {
          "duration": 0.20833350000000195,
          "durationTicks": 60,
          "midi": 38,
          "name": "D2",
          "ticks": 15720,
          "time": 54.583377,
          "velocity": 0.5984251968503937
        },
        {
          "duration": 0.20833350000000195,
          "durationTicks": 60,
          "midi": 45,
          "name": "A2",
          "ticks": 15780,
          "time": 54.7917105,
          "velocity": 0.5984251968503937
        },
        {
          "duration": 0.20833350000000195,
          "durationTicks": 60,
          "midi": 36,
          "name": "C2",
          "ticks": 15840,
          "time": 55.000044,
          "velocity": 0.5984251968503937
        },
        {
          "duration": 0.20833349999999484,
          "durationTicks": 60,
          "midi": 43,
          "name": "G2",
          "ticks": 15900,
          "time": 55.208377500000005,
          "velocity": 0.5984251968503937
        },
        {
          "duration": 0.20833350000000195,
          "durationTicks": 60,
          "midi": 36,
          "name": "C2",
          "ticks": 15960,
          "time": 55.416711,
          "velocity": 0.5984251968503937
        },
        {
          "duration": 0.20833350000000195,
          "durationTicks": 60,
          "midi": 43,
          "name": "G2",
          "ticks": 16020,
          "time": 55.6250445,
          "velocity": 0.5984251968503937
        },
        {
          "duration": 0.20833349999999484,
          "durationTicks": 60,
          "midi": 38,
          "name": "D2",
          "ticks": 16080,
          "time": 55.833378,
          "velocity": 0.5984251968503937
        },
        {
          "duration": 0.20833350000000195,
          "durationTicks": 60,
          "midi": 45,
          "name": "A2",
          "ticks": 16140,
          "time": 56.0417115,
          "velocity": 0.5984251968503937
        },
        {
          "duration": 0.20833350000000195,
          "durationTicks": 60,
          "midi": 38,
          "name": "D2",
          "ticks": 16200,
          "time": 56.250045,
          "velocity": 0.5984251968503937
        },
        {
          "duration": 0.20833350000000195,
          "durationTicks": 60,
          "midi": 45,
          "name": "A2",
          "ticks": 16260,
          "time": 56.4583785,
          "velocity": 0.5984251968503937
        },
        {
          "duration": 0.20833349999999484,
          "durationTicks": 60,
          "midi": 33,
          "name": "A1",
          "ticks": 16320,
          "time": 56.666712000000004,
          "velocity": 0.5984251968503937
        },
        {
          "duration": 0.20833350000000195,
          "durationTicks": 60,
          "midi": 40,
          "name": "E2",
          "ticks": 16380,
          "time": 56.8750455,
          "velocity": 0.5984251968503937
        },
        {
          "duration": 0.20833350000000195,
          "durationTicks": 60,
          "midi": 33,
          "name": "A1",
          "ticks": 16440,
          "time": 57.083379,
          "velocity": 0.5984251968503937
        },
        {
          "duration": 0.20833350000000195,
          "durationTicks": 60,
          "midi": 40,
          "name": "E2",
          "ticks": 16500,
          "time": 57.2917125,
          "velocity": 0.5984251968503937
        },
        {
          "duration": 0.20833349999999484,
          "durationTicks": 60,
          "midi": 35,
          "name": "B1",
          "ticks": 16560,
          "time": 57.500046000000005,
          "velocity": 0.5984251968503937
        },
        {
          "duration": 0.20833350000000195,
          "durationTicks": 60,
          "midi": 42,
          "name": "F#2",
          "ticks": 16620,
          "time": 57.7083795,
          "velocity": 0.5984251968503937
        },
        {
          "duration": 0.20833350000000195,
          "durationTicks": 60,
          "midi": 35,
          "name": "B1",
          "ticks": 16680,
          "time": 57.916713,
          "velocity": 0.5984251968503937
        },
        {
          "duration": 0.20833349999999484,
          "durationTicks": 60,
          "midi": 42,
          "name": "F#2",
          "ticks": 16740,
          "time": 58.1250465,
          "velocity": 0.5984251968503937
        },
        {
          "duration": 0.20833350000000195,
          "durationTicks": 60,
          "midi": 36,
          "name": "C2",
          "ticks": 16800,
          "time": 58.33338,
          "velocity": 0.5984251968503937
        },
        {
          "duration": 0.20833350000000195,
          "durationTicks": 60,
          "midi": 43,
          "name": "G2",
          "ticks": 16860,
          "time": 58.5417135,
          "velocity": 0.5984251968503937
        },
        {
          "duration": 0.20833350000000195,
          "durationTicks": 60,
          "midi": 36,
          "name": "C2",
          "ticks": 16920,
          "time": 58.750047,
          "velocity": 0.5984251968503937
        },
        {
          "duration": 0.20833349999999484,
          "durationTicks": 60,
          "midi": 43,
          "name": "G2",
          "ticks": 16980,
          "time": 58.958380500000004,
          "velocity": 0.5984251968503937
        },
        {
          "duration": 0.20833350000000195,
          "durationTicks": 60,
          "midi": 38,
          "name": "D2",
          "ticks": 17040,
          "time": 59.166714,
          "velocity": 0.5984251968503937
        },
        {
          "duration": 0.20833350000000195,
          "durationTicks": 60,
          "midi": 45,
          "name": "A2",
          "ticks": 17100,
          "time": 59.3750475,
          "velocity": 0.5984251968503937
        },
        {
          "duration": 0.20833350000000195,
          "durationTicks": 60,
          "midi": 38,
          "name": "D2",
          "ticks": 17160,
          "time": 59.583381,
          "velocity": 0.5984251968503937
        },
        {
          "duration": 0.20833349999999484,
          "durationTicks": 60,
          "midi": 45,
          "name": "A2",
          "ticks": 17220,
          "time": 59.791714500000005,
          "velocity": 0.5984251968503937
        },
        {
          "duration": 0.20833350000000195,
          "durationTicks": 60,
          "midi": 40,
          "name": "E2",
          "ticks": 17280,
          "time": 60.000048,
          "velocity": 0.5984251968503937
        },
        {
          "duration": 0.20833350000000195,
          "durationTicks": 60,
          "midi": 47,
          "name": "B2",
          "ticks": 17340,
          "time": 60.2083815,
          "velocity": 0.5984251968503937
        },
        {
          "duration": 0.20833349999999484,
          "durationTicks": 60,
          "midi": 40,
          "name": "E2",
          "ticks": 17400,
          "time": 60.416715,
          "velocity": 0.5984251968503937
        },
        {
          "duration": 0.20833350000000195,
          "durationTicks": 60,
          "midi": 47,
          "name": "B2",
          "ticks": 17460,
          "time": 60.6250485,
          "velocity": 0.5984251968503937
        },
        {
          "duration": 0.20833350000000195,
          "durationTicks": 60,
          "midi": 38,
          "name": "D2",
          "ticks": 17520,
          "time": 60.833382,
          "velocity": 0.5984251968503937
        },
        {
          "duration": 0.20833350000000195,
          "durationTicks": 60,
          "midi": 45,
          "name": "A2",
          "ticks": 17580,
          "time": 61.0417155,
          "velocity": 0.5984251968503937
        },
        {
          "duration": 0.20833349999999484,
          "durationTicks": 60,
          "midi": 38,
          "name": "D2",
          "ticks": 17640,
          "time": 61.250049000000004,
          "velocity": 0.5984251968503937
        },
        {
          "duration": 0.20833350000000195,
          "durationTicks": 60,
          "midi": 45,
          "name": "A2",
          "ticks": 17700,
          "time": 61.4583825,
          "velocity": 0.5984251968503937
        },
        {
          "duration": 0.20833350000000195,
          "durationTicks": 60,
          "midi": 36,
          "name": "C2",
          "ticks": 17760,
          "time": 61.666716,
          "velocity": 0.5984251968503937
        },
        {
          "duration": 0.20833350000000195,
          "durationTicks": 60,
          "midi": 43,
          "name": "G2",
          "ticks": 17820,
          "time": 61.8750495,
          "velocity": 0.5984251968503937
        },
        {
          "duration": 0.20833349999999484,
          "durationTicks": 60,
          "midi": 36,
          "name": "C2",
          "ticks": 17880,
          "time": 62.083383000000005,
          "velocity": 0.5984251968503937
        },
        {
          "duration": 0.20833350000000195,
          "durationTicks": 60,
          "midi": 43,
          "name": "G2",
          "ticks": 17940,
          "time": 62.2917165,
          "velocity": 0.5984251968503937
        },
        {
          "duration": 0.20833350000000195,
          "durationTicks": 60,
          "midi": 38,
          "name": "D2",
          "ticks": 18000,
          "time": 62.50005,
          "velocity": 0.5984251968503937
        },
        {
          "duration": 0.20833349999999484,
          "durationTicks": 60,
          "midi": 45,
          "name": "A2",
          "ticks": 18060,
          "time": 62.708383500000004,
          "velocity": 0.5984251968503937
        },
        {
          "duration": 0.20833350000000195,
          "durationTicks": 60,
          "midi": 38,
          "name": "D2",
          "ticks": 18120,
          "time": 62.916717,
          "velocity": 0.5984251968503937
        },
        {
          "duration": 0.20833350000000195,
          "durationTicks": 60,
          "midi": 45,
          "name": "A2",
          "ticks": 18180,
          "time": 63.1250505,
          "velocity": 0.5984251968503937
        },
        {
          "duration": 0.20833350000000195,
          "durationTicks": 60,
          "midi": 33,
          "name": "A1",
          "ticks": 18240,
          "time": 63.333384,
          "velocity": 0.5984251968503937
        },
        {
          "duration": 0.20833349999999484,
          "durationTicks": 60,
          "midi": 40,
          "name": "E2",
          "ticks": 18300,
          "time": 63.541717500000004,
          "velocity": 0.5984251968503937
        },
        {
          "duration": 0.20833350000000195,
          "durationTicks": 60,
          "midi": 33,
          "name": "A1",
          "ticks": 18360,
          "time": 63.750051,
          "velocity": 0.5984251968503937
        },
        {
          "duration": 0.20833350000000195,
          "durationTicks": 60,
          "midi": 40,
          "name": "E2",
          "ticks": 18420,
          "time": 63.9583845,
          "velocity": 0.5984251968503937
        },
        {
          "duration": 0.20833349999999484,
          "durationTicks": 60,
          "midi": 35,
          "name": "B1",
          "ticks": 18480,
          "time": 64.166718,
          "velocity": 0.5984251968503937
        },
        {
          "duration": 0.20833350000000905,
          "durationTicks": 60,
          "midi": 42,
          "name": "F#2",
          "ticks": 18540,
          "time": 64.3750515,
          "velocity": 0.5984251968503937
        },
        {
          "duration": 0.20833349999999484,
          "durationTicks": 60,
          "midi": 35,
          "name": "B1",
          "ticks": 18600,
          "time": 64.583385,
          "velocity": 0.5984251968503937
        },
        {
          "duration": 0.20833349999999484,
          "durationTicks": 60,
          "midi": 42,
          "name": "F#2",
          "ticks": 18660,
          "time": 64.7917185,
          "velocity": 0.5984251968503937
        },
        {
          "duration": 0.20833350000000905,
          "durationTicks": 60,
          "midi": 36,
          "name": "C2",
          "ticks": 18720,
          "time": 65.000052,
          "velocity": 0.5984251968503937
        },
        {
          "duration": 0.20833349999999484,
          "durationTicks": 60,
          "midi": 43,
          "name": "G2",
          "ticks": 18780,
          "time": 65.2083855,
          "velocity": 0.5984251968503937
        },
        {
          "duration": 0.20833349999999484,
          "durationTicks": 60,
          "midi": 36,
          "name": "C2",
          "ticks": 18840,
          "time": 65.416719,
          "velocity": 0.5984251968503937
        },
        {
          "duration": 0.20833350000000905,
          "durationTicks": 60,
          "midi": 43,
          "name": "G2",
          "ticks": 18900,
          "time": 65.6250525,
          "velocity": 0.5984251968503937
        },
        {
          "duration": 0.20833349999999484,
          "durationTicks": 60,
          "midi": 38,
          "name": "D2",
          "ticks": 18960,
          "time": 65.833386,
          "velocity": 0.5984251968503937
        },
        {
          "duration": 0.20833350000000905,
          "durationTicks": 60,
          "midi": 45,
          "name": "A2",
          "ticks": 19020,
          "time": 66.0417195,
          "velocity": 0.5984251968503937
        },
        {
          "duration": 0.20833349999999484,
          "durationTicks": 60,
          "midi": 38,
          "name": "D2",
          "ticks": 19080,
          "time": 66.25005300000001,
          "velocity": 0.5984251968503937
        },
        {
          "duration": 0.20833349999999484,
          "durationTicks": 60,
          "midi": 45,
          "name": "A2",
          "ticks": 19140,
          "time": 66.4583865,
          "velocity": 0.5984251968503937
        },
        {
          "duration": 0.20833350000000905,
          "durationTicks": 60,
          "midi": 40,
          "name": "E2",
          "ticks": 19200,
          "time": 66.66672,
          "velocity": 0.5984251968503937
        },
        {
          "duration": 0.20833349999999484,
          "durationTicks": 60,
          "midi": 47,
          "name": "B2",
          "ticks": 19260,
          "time": 66.8750535,
          "velocity": 0.5984251968503937
        },
        {
          "duration": 0.20833349999999484,
          "durationTicks": 60,
          "midi": 40,
          "name": "E2",
          "ticks": 19320,
          "time": 67.083387,
          "velocity": 0.5984251968503937
        },
        {
          "duration": 0.20833350000000905,
          "durationTicks": 60,
          "midi": 47,
          "name": "B2",
          "ticks": 19380,
          "time": 67.2917205,
          "velocity": 0.5984251968503937
        },
        {
          "duration": 0.20833349999999484,
          "durationTicks": 60,
          "midi": 38,
          "name": "D2",
          "ticks": 19440,
          "time": 67.500054,
          "velocity": 0.5984251968503937
        },
        {
          "duration": 0.20833349999999484,
          "durationTicks": 60,
          "midi": 45,
          "name": "A2",
          "ticks": 19500,
          "time": 67.7083875,
          "velocity": 0.5984251968503937
        },
        {
          "duration": 0.20833350000000905,
          "durationTicks": 60,
          "midi": 38,
          "name": "D2",
          "ticks": 19560,
          "time": 67.916721,
          "velocity": 0.5984251968503937
        },
        {
          "duration": 0.20833349999999484,
          "durationTicks": 60,
          "midi": 45,
          "name": "A2",
          "ticks": 19620,
          "time": 68.1250545,
          "velocity": 0.5984251968503937
        },
        {
          "duration": 0.20833350000000905,
          "durationTicks": 60,
          "midi": 36,
          "name": "C2",
          "ticks": 19680,
          "time": 68.333388,
          "velocity": 0.5984251968503937
        },
        {
          "duration": 0.20833349999999484,
          "durationTicks": 60,
          "midi": 43,
          "name": "G2",
          "ticks": 19740,
          "time": 68.54172150000001,
          "velocity": 0.5984251968503937
        },
        {
          "duration": 0.20833349999999484,
          "durationTicks": 60,
          "midi": 36,
          "name": "C2",
          "ticks": 19800,
          "time": 68.750055,
          "velocity": 0.5984251968503937
        },
        {
          "duration": 0.20833350000000905,
          "durationTicks": 60,
          "midi": 43,
          "name": "G2",
          "ticks": 19860,
          "time": 68.9583885,
          "velocity": 0.5984251968503937
        },
        {
          "duration": 0.20833349999999484,
          "durationTicks": 60,
          "midi": 38,
          "name": "D2",
          "ticks": 19920,
          "time": 69.16672200000001,
          "velocity": 0.5984251968503937
        },
        {
          "duration": 0.20833349999999484,
          "durationTicks": 60,
          "midi": 45,
          "name": "A2",
          "ticks": 19980,
          "time": 69.3750555,
          "velocity": 0.5984251968503937
        },
        {
          "duration": 0.20833350000000905,
          "durationTicks": 60,
          "midi": 38,
          "name": "D2",
          "ticks": 20040,
          "time": 69.583389,
          "velocity": 0.5984251968503937
        },
        {
          "duration": 0.20833349999999484,
          "durationTicks": 60,
          "midi": 45,
          "name": "A2",
          "ticks": 20100,
          "time": 69.7917225,
          "velocity": 0.5984251968503937
        },
        {
          "duration": 0.20833349999999484,
          "durationTicks": 60,
          "midi": 33,
          "name": "A1",
          "ticks": 20160,
          "time": 70.000056,
          "velocity": 0.5984251968503937
        },
        {
          "duration": 0.20833350000000905,
          "durationTicks": 60,
          "midi": 40,
          "name": "E2",
          "ticks": 20220,
          "time": 70.2083895,
          "velocity": 0.5984251968503937
        },
        {
          "duration": 0.20833349999999484,
          "durationTicks": 60,
          "midi": 33,
          "name": "A1",
          "ticks": 20280,
          "time": 70.416723,
          "velocity": 0.5984251968503937
        },
        {
          "duration": 0.20833350000000905,
          "durationTicks": 60,
          "midi": 40,
          "name": "E2",
          "ticks": 20340,
          "time": 70.6250565,
          "velocity": 0.5984251968503937
        },
        {
          "duration": 0.20833349999999484,
          "durationTicks": 60,
          "midi": 35,
          "name": "B1",
          "ticks": 20400,
          "time": 70.83339000000001,
          "velocity": 0.5984251968503937
        },
        {
          "duration": 0.20833349999999484,
          "durationTicks": 60,
          "midi": 42,
          "name": "F#2",
          "ticks": 20460,
          "time": 71.0417235,
          "velocity": 0.5984251968503937
        },
        {
          "duration": 0.20833350000000905,
          "durationTicks": 60,
          "midi": 35,
          "name": "B1",
          "ticks": 20520,
          "time": 71.250057,
          "velocity": 0.5984251968503937
        },
        {
          "duration": 0.20833349999999484,
          "durationTicks": 60,
          "midi": 42,
          "name": "F#2",
          "ticks": 20580,
          "time": 71.45839050000001,
          "velocity": 0.5984251968503937
        },
        {
          "duration": 0.20833349999999484,
          "durationTicks": 60,
          "midi": 36,
          "name": "C2",
          "ticks": 20640,
          "time": 71.666724,
          "velocity": 0.5984251968503937
        },
        {
          "duration": 0.20833350000000905,
          "durationTicks": 60,
          "midi": 43,
          "name": "G2",
          "ticks": 20700,
          "time": 71.8750575,
          "velocity": 0.5984251968503937
        },
        {
          "duration": 0.20833349999999484,
          "durationTicks": 60,
          "midi": 36,
          "name": "C2",
          "ticks": 20760,
          "time": 72.083391,
          "velocity": 0.5984251968503937
        },
        {
          "duration": 0.20833349999999484,
          "durationTicks": 60,
          "midi": 43,
          "name": "G2",
          "ticks": 20820,
          "time": 72.2917245,
          "velocity": 0.5984251968503937
        },
        {
          "duration": 0.20833350000000905,
          "durationTicks": 60,
          "midi": 38,
          "name": "D2",
          "ticks": 20880,
          "time": 72.500058,
          "velocity": 0.5984251968503937
        },
        {
          "duration": 0.20833349999999484,
          "durationTicks": 60,
          "midi": 45,
          "name": "A2",
          "ticks": 20940,
          "time": 72.7083915,
          "velocity": 0.5984251968503937
        },
        {
          "duration": 0.20833350000000905,
          "durationTicks": 60,
          "midi": 38,
          "name": "D2",
          "ticks": 21000,
          "time": 72.916725,
          "velocity": 0.5984251968503937
        },
        {
          "duration": 0.20833349999999484,
          "durationTicks": 60,
          "midi": 45,
          "name": "A2",
          "ticks": 21060,
          "time": 73.12505850000001,
          "velocity": 0.5984251968503937
        },
        {
          "duration": 0.20833349999999484,
          "durationTicks": 60,
          "midi": 40,
          "name": "E2",
          "ticks": 21120,
          "time": 73.333392,
          "velocity": 0.5984251968503937
        },
        {
          "duration": 0.20833350000000905,
          "durationTicks": 60,
          "midi": 47,
          "name": "B2",
          "ticks": 21180,
          "time": 73.5417255,
          "velocity": 0.5984251968503937
        },
        {
          "duration": 0.20833349999999484,
          "durationTicks": 60,
          "midi": 40,
          "name": "E2",
          "ticks": 21240,
          "time": 73.75005900000001,
          "velocity": 0.5984251968503937
        },
        {
          "duration": 0.20833349999999484,
          "durationTicks": 60,
          "midi": 47,
          "name": "B2",
          "ticks": 21300,
          "time": 73.9583925,
          "velocity": 0.5984251968503937
        },
        {
          "duration": 0.20833350000000905,
          "durationTicks": 60,
          "midi": 38,
          "name": "D2",
          "ticks": 21360,
          "time": 74.166726,
          "velocity": 0.5984251968503937
        },
        {
          "duration": 0.20833349999999484,
          "durationTicks": 60,
          "midi": 45,
          "name": "A2",
          "ticks": 21420,
          "time": 74.3750595,
          "velocity": 0.5984251968503937
        },
        {
          "duration": 0.20833349999999484,
          "durationTicks": 60,
          "midi": 38,
          "name": "D2",
          "ticks": 21480,
          "time": 74.583393,
          "velocity": 0.5984251968503937
        },
        {
          "duration": 0.20833350000000905,
          "durationTicks": 60,
          "midi": 45,
          "name": "A2",
          "ticks": 21540,
          "time": 74.7917265,
          "velocity": 0.5984251968503937
        },
        {
          "duration": 0.20833349999999484,
          "durationTicks": 60,
          "midi": 36,
          "name": "C2",
          "ticks": 21600,
          "time": 75.00006,
          "velocity": 0.5984251968503937
        },
        {
          "duration": 0.20833350000000905,
          "durationTicks": 60,
          "midi": 43,
          "name": "G2",
          "ticks": 21660,
          "time": 75.2083935,
          "velocity": 0.5984251968503937
        },
        {
          "duration": 0.20833349999999484,
          "durationTicks": 60,
          "midi": 36,
          "name": "C2",
          "ticks": 21720,
          "time": 75.41672700000001,
          "velocity": 0.5984251968503937
        },
        {
          "duration": 0.20833349999999484,
          "durationTicks": 60,
          "midi": 43,
          "name": "G2",
          "ticks": 21780,
          "time": 75.6250605,
          "velocity": 0.5984251968503937
        },
        {
          "duration": 0.20833350000000905,
          "durationTicks": 60,
          "midi": 38,
          "name": "D2",
          "ticks": 21840,
          "time": 75.833394,
          "velocity": 0.5984251968503937
        },
        {
          "duration": 0.20833349999999484,
          "durationTicks": 60,
          "midi": 45,
          "name": "A2",
          "ticks": 21900,
          "time": 76.04172750000001,
          "velocity": 0.5984251968503937
        },
        {
          "duration": 0.20833349999999484,
          "durationTicks": 60,
          "midi": 38,
          "name": "D2",
          "ticks": 21960,
          "time": 76.250061,
          "velocity": 0.5984251968503937
        },
        {
          "duration": 0.20833350000000905,
          "durationTicks": 60,
          "midi": 45,
          "name": "A2",
          "ticks": 22020,
          "time": 76.4583945,
          "velocity": 0.5984251968503937
        },
        {
          "duration": 0.20833349999999484,
          "durationTicks": 60,
          "midi": 33,
          "name": "A1",
          "ticks": 22080,
          "time": 76.666728,
          "velocity": 0.5984251968503937
        },
        {
          "duration": 0.20833349999999484,
          "durationTicks": 60,
          "midi": 40,
          "name": "E2",
          "ticks": 22140,
          "time": 76.8750615,
          "velocity": 0.5984251968503937
        },
        {
          "duration": 0.20833350000000905,
          "durationTicks": 60,
          "midi": 33,
          "name": "A1",
          "ticks": 22200,
          "time": 77.083395,
          "velocity": 0.5984251968503937
        },
        {
          "duration": 0.20833349999999484,
          "durationTicks": 60,
          "midi": 40,
          "name": "E2",
          "ticks": 22260,
          "time": 77.2917285,
          "velocity": 0.5984251968503937
        },
        {
          "duration": 0.20833350000000905,
          "durationTicks": 60,
          "midi": 35,
          "name": "B1",
          "ticks": 22320,
          "time": 77.500062,
          "velocity": 0.5984251968503937
        },
        {
          "duration": 0.20833349999999484,
          "durationTicks": 60,
          "midi": 42,
          "name": "F#2",
          "ticks": 22380,
          "time": 77.70839550000001,
          "velocity": 0.5984251968503937
        },
        {
          "duration": 0.20833349999999484,
          "durationTicks": 60,
          "midi": 35,
          "name": "B1",
          "ticks": 22440,
          "time": 77.916729,
          "velocity": 0.5984251968503937
        },
        {
          "duration": 0.20833350000000905,
          "durationTicks": 60,
          "midi": 42,
          "name": "F#2",
          "ticks": 22500,
          "time": 78.1250625,
          "velocity": 0.5984251968503937
        },
        {
          "duration": 0.20833349999999484,
          "durationTicks": 60,
          "midi": 36,
          "name": "C2",
          "ticks": 22560,
          "time": 78.33339600000001,
          "velocity": 0.5984251968503937
        },
        {
          "duration": 0.20833349999999484,
          "durationTicks": 60,
          "midi": 43,
          "name": "G2",
          "ticks": 22620,
          "time": 78.5417295,
          "velocity": 0.5984251968503937
        },
        {
          "duration": 0.20833350000000905,
          "durationTicks": 60,
          "midi": 36,
          "name": "C2",
          "ticks": 22680,
          "time": 78.750063,
          "velocity": 0.5984251968503937
        },
        {
          "duration": 0.20833349999999484,
          "durationTicks": 60,
          "midi": 43,
          "name": "G2",
          "ticks": 22740,
          "time": 78.9583965,
          "velocity": 0.5984251968503937
        },
        {
          "duration": 0.20833349999999484,
          "durationTicks": 60,
          "midi": 38,
          "name": "D2",
          "ticks": 22800,
          "time": 79.16673,
          "velocity": 0.5984251968503937
        },
        {
          "duration": 0.20833350000000905,
          "durationTicks": 60,
          "midi": 45,
          "name": "A2",
          "ticks": 22860,
          "time": 79.3750635,
          "velocity": 0.5984251968503937
        },
        {
          "duration": 0.20833349999999484,
          "durationTicks": 60,
          "midi": 38,
          "name": "D2",
          "ticks": 22920,
          "time": 79.583397,
          "velocity": 0.5984251968503937
        },
        {
          "duration": 0.20833350000000905,
          "durationTicks": 60,
          "midi": 45,
          "name": "A2",
          "ticks": 22980,
          "time": 79.7917305,
          "velocity": 0.5984251968503937
        },
        {
          "duration": 1.6666679999999872,
          "durationTicks": 480,
          "midi": 40,
          "name": "E2",
          "ticks": 23040,
          "time": 80.00006400000001,
          "velocity": 0.5984251968503937
        },
        {
          "duration": 0.6250004999999987,
          "durationTicks": 180,
          "midi": 47,
          "name": "B2",
          "ticks": 23520,
          "time": 81.666732,
          "velocity": 0.5984251968503937
        },
        {
          "duration": 0.625000500000013,
          "durationTicks": 180,
          "midi": 48,
          "name": "C3",
          "ticks": 23700,
          "time": 82.2917325,
          "velocity": 0.5984251968503937
        },
        {
          "duration": 0.6250004999999987,
          "durationTicks": 180,
          "midi": 45,
          "name": "A2",
          "ticks": 23880,
          "time": 82.91673300000001,
          "velocity": 0.5984251968503937
        },
        {
          "duration": 0.6250004999999987,
          "durationTicks": 180,
          "midi": 47,
          "name": "B2",
          "ticks": 24060,
          "time": 83.5417335,
          "velocity": 0.5984251968503937
        },
        {
          "duration": 0.6250004999999987,
          "durationTicks": 180,
          "midi": 43,
          "name": "G2",
          "ticks": 24240,
          "time": 84.166734,
          "velocity": 0.5984251968503937
        },
        {
          "duration": 0.6250004999999987,
          "durationTicks": 180,
          "midi": 45,
          "name": "A2",
          "ticks": 24420,
          "time": 84.7917345,
          "velocity": 0.5984251968503937
        },
        {
          "duration": 1.2500009999999975,
          "durationTicks": 360,
          "midi": 42,
          "name": "F#2",
          "ticks": 24600,
          "time": 85.416735,
          "velocity": 0.5984251968503937
        },
        {
          "duration": 0.6250004999999987,
          "durationTicks": 180,
          "midi": 47,
          "name": "B2",
          "ticks": 24960,
          "time": 86.666736,
          "velocity": 0.5984251968503937
        },
        {
          "duration": 0.6250004999999987,
          "durationTicks": 180,
          "midi": 48,
          "name": "C3",
          "ticks": 25140,
          "time": 87.2917365,
          "velocity": 0.5984251968503937
        },
        {
          "duration": 0.6250004999999987,
          "durationTicks": 180,
          "midi": 45,
          "name": "A2",
          "ticks": 25320,
          "time": 87.916737,
          "velocity": 0.5984251968503937
        },
        {
          "duration": 0.6250004999999987,
          "durationTicks": 180,
          "midi": 47,
          "name": "B2",
          "ticks": 25500,
          "time": 88.5417375,
          "velocity": 0.5984251968503937
        },
        {
          "duration": 0.625000500000013,
          "durationTicks": 180,
          "midi": 43,
          "name": "G2",
          "ticks": 25680,
          "time": 89.166738,
          "velocity": 0.5984251968503937
        },
        {
          "duration": 0.6250004999999987,
          "durationTicks": 180,
          "midi": 46,
          "name": "A#2",
          "ticks": 25860,
          "time": 89.79173850000001,
          "velocity": 0.5984251968503937
        },
        {
          "duration": 0.8333339999999936,
          "durationTicks": 240,
          "midi": 47,
          "name": "B2",
          "ticks": 26040,
          "time": 90.416739,
          "velocity": 0.5984251968503937
        },
        {
          "duration": 0.4166670000000039,
          "durationTicks": 120,
          "midi": 59,
          "name": "B3",
          "ticks": 26280,
          "time": 91.250073,
          "velocity": 0.5984251968503937
        }
      ],
      "endOfTrackTicks": 26400
    },
    {
      "channel": 5,
      "controlChanges": {
        "7": [
          {
            "number": 7,
            "ticks": 0,
            "time": 0,
            "value": 1
          }
        ],
        "10": [
          {
            "number": 10,
            "ticks": 0,
            "time": 0,
            "value": 0.6299212598425197
          }
        ]
      },
      "pitchBends": [],
      "instrument": {
        "family": "organ",
        "number": 16,
        "name": "drawbar organ"
      },
      "name": "Touhou 6: Enbodiment of Scarlet Devil - Shanghai Alice of Meiji 17 ",
      "notes": [
        {
          "duration": 0.05208337500000049,
          "durationTicks": 15,
          "midi": 91,
          "name": "G6",
          "ticks": 2940,
          "time": 10.2083415,
          "velocity": 0.5984251968503937
        },
        {
          "duration": 0.05208337500000049,
          "durationTicks": 15,
          "midi": 94,
          "name": "A#6",
          "ticks": 2940,
          "time": 10.2083415,
          "velocity": 0.5984251968503937
        },
        {
          "duration": 0.05208337500000049,
          "durationTicks": 15,
          "midi": 86,
          "name": "D6",
          "ticks": 2940,
          "time": 10.2083415,
          "velocity": 0.5984251968503937
        },
        {
          "duration": 0.05208337500000049,
          "durationTicks": 15,
          "midi": 91,
          "name": "G6",
          "ticks": 3060,
          "time": 10.6250085,
          "velocity": 0.5984251968503937
        },
        {
          "duration": 0.05208337500000049,
          "durationTicks": 15,
          "midi": 87,
          "name": "D#6",
          "ticks": 3060,
          "time": 10.6250085,
          "velocity": 0.5984251968503937
        },
        {
          "duration": 0.05208337500000049,
          "durationTicks": 15,
          "midi": 94,
          "name": "A#6",
          "ticks": 3060,
          "time": 10.6250085,
          "velocity": 0.5984251968503937
        },
        {
          "duration": 0.05208337500000049,
          "durationTicks": 15,
          "midi": 87,
          "name": "D#6",
          "ticks": 3180,
          "time": 11.0416755,
          "velocity": 0.5984251968503937
        },
        {
          "duration": 0.05208337500000049,
          "durationTicks": 15,
          "midi": 91,
          "name": "G6",
          "ticks": 3180,
          "time": 11.0416755,
          "velocity": 0.5984251968503937
        },
        {
          "duration": 0.05208337500000049,
          "durationTicks": 15,
          "midi": 94,
          "name": "A#6",
          "ticks": 3180,
          "time": 11.0416755,
          "velocity": 0.5984251968503937
        },
        {
          "duration": 0.05208337500000049,
          "durationTicks": 15,
          "midi": 93,
          "name": "A6",
          "ticks": 3300,
          "time": 11.4583425,
          "velocity": 0.5984251968503937
        },
        {
          "duration": 0.05208337500000049,
          "durationTicks": 15,
          "midi": 89,
          "name": "F6",
          "ticks": 3300,
          "time": 11.4583425,
          "velocity": 0.5984251968503937
        },
        {
          "duration": 0.05208337500000049,
          "durationTicks": 15,
          "midi": 84,
          "name": "C6",
          "ticks": 3300,
          "time": 11.4583425,
          "velocity": 0.5984251968503937
        },
        {
          "duration": 0.05208337499999871,
          "durationTicks": 15,
          "midi": 93,
          "name": "A6",
          "ticks": 3420,
          "time": 11.8750095,
          "velocity": 0.5984251968503937
        },
        {
          "duration": 0.05208337499999871,
          "durationTicks": 15,
          "midi": 89,
          "name": "F6",
          "ticks": 3420,
          "time": 11.8750095,
          "velocity": 0.5984251968503937
        },
        {
          "duration": 0.05208337499999871,
          "durationTicks": 15,
          "midi": 86,
          "name": "D6",
          "ticks": 3420,
          "time": 11.8750095,
          "velocity": 0.5984251968503937
        },
        {
          "duration": 0.05208337500000049,
          "durationTicks": 15,
          "midi": 93,
          "name": "A6",
          "ticks": 3540,
          "time": 12.2916765,
          "velocity": 0.5984251968503937
        },
        {
          "duration": 0.05208337500000049,
          "durationTicks": 15,
          "midi": 89,
          "name": "F6",
          "ticks": 3540,
          "time": 12.2916765,
          "velocity": 0.5984251968503937
        },
        {
          "duration": 0.05208337500000049,
          "durationTicks": 15,
          "midi": 86,
          "name": "D6",
          "ticks": 3540,
          "time": 12.2916765,
          "velocity": 0.5984251968503937
        },
        {
          "duration": 0.05208337500000049,
          "durationTicks": 15,
          "midi": 91,
          "name": "G6",
          "ticks": 3660,
          "time": 12.7083435,
          "velocity": 0.5984251968503937
        },
        {
          "duration": 0.05208337500000049,
          "durationTicks": 15,
          "midi": 87,
          "name": "D#6",
          "ticks": 3660,
          "time": 12.7083435,
          "velocity": 0.5984251968503937
        },
        {
          "duration": 0.05208337500000049,
          "durationTicks": 15,
          "midi": 82,
          "name": "A#5",
          "ticks": 3660,
          "time": 12.7083435,
          "velocity": 0.5984251968503937
        },
        {
          "duration": 0.05208337500000049,
          "durationTicks": 15,
          "midi": 91,
          "name": "G6",
          "ticks": 3780,
          "time": 13.1250105,
          "velocity": 0.5984251968503937
        },
        {
          "duration": 0.05208337500000049,
          "durationTicks": 15,
          "midi": 88,
          "name": "E6",
          "ticks": 3780,
          "time": 13.1250105,
          "velocity": 0.5984251968503937
        },
        {
          "duration": 0.05208337500000049,
          "durationTicks": 15,
          "midi": 85,
          "name": "C#6",
          "ticks": 3780,
          "time": 13.1250105,
          "velocity": 0.5984251968503937
        },
        {
          "duration": 0.05208337500000049,
          "durationTicks": 15,
          "midi": 91,
          "name": "G6",
          "ticks": 3900,
          "time": 13.5416775,
          "velocity": 0.5984251968503937
        },
        {
          "duration": 0.05208337500000049,
          "durationTicks": 15,
          "midi": 88,
          "name": "E6",
          "ticks": 3900,
          "time": 13.5416775,
          "velocity": 0.5984251968503937
        },
        {
          "duration": 0.05208337500000049,
          "durationTicks": 15,
          "midi": 85,
          "name": "C#6",
          "ticks": 3900,
          "time": 13.5416775,
          "velocity": 0.5984251968503937
        },
        {
          "duration": 0.05208337499999871,
          "durationTicks": 15,
          "midi": 93,
          "name": "A6",
          "ticks": 4020,
          "time": 13.9583445,
          "velocity": 0.5984251968503937
        },
        {
          "duration": 0.05208337499999871,
          "durationTicks": 15,
          "midi": 90,
          "name": "F#6",
          "ticks": 4020,
          "time": 13.9583445,
          "velocity": 0.5984251968503937
        },
        {
          "duration": 0.05208337499999871,
          "durationTicks": 15,
          "midi": 86,
          "name": "D6",
          "ticks": 4020,
          "time": 13.9583445,
          "velocity": 0.5984251968503937
        },
        {
          "duration": 0.05208337499999871,
          "durationTicks": 15,
          "midi": 93,
          "name": "A6",
          "ticks": 4140,
          "time": 14.375011500000001,
          "velocity": 0.5984251968503937
        },
        {
          "duration": 0.05208337499999871,
          "durationTicks": 15,
          "midi": 90,
          "name": "F#6",
          "ticks": 4140,
          "time": 14.375011500000001,
          "velocity": 0.5984251968503937
        },
        {
          "duration": 0.05208337499999871,
          "durationTicks": 15,
          "midi": 86,
          "name": "D6",
          "ticks": 4140,
          "time": 14.375011500000001,
          "velocity": 0.5984251968503937
        },
        {
          "duration": 0.05208337500000049,
          "durationTicks": 15,
          "midi": 93,
          "name": "A6",
          "ticks": 4260,
          "time": 14.7916785,
          "velocity": 0.5984251968503937
        },
        {
          "duration": 0.05208337500000049,
          "durationTicks": 15,
          "midi": 90,
          "name": "F#6",
          "ticks": 4260,
          "time": 14.7916785,
          "velocity": 0.5984251968503937
        },
        {
          "duration": 0.05208337500000049,
          "durationTicks": 15,
          "midi": 86,
          "name": "D6",
          "ticks": 4260,
          "time": 14.7916785,
          "velocity": 0.5984251968503937
        },
        {
          "duration": 0.05208337500000049,
          "durationTicks": 15,
          "midi": 91,
          "name": "G6",
          "ticks": 4380,
          "time": 15.2083455,
          "velocity": 0.5984251968503937
        },
        {
          "duration": 0.05208337500000049,
          "durationTicks": 15,
          "midi": 94,
          "name": "A#6",
          "ticks": 4380,
          "time": 15.2083455,
          "velocity": 0.5984251968503937
        },
        {
          "duration": 0.05208337500000049,
          "durationTicks": 15,
          "midi": 86,
          "name": "D6",
          "ticks": 4380,
          "time": 15.2083455,
          "velocity": 0.5984251968503937
        },
        {
          "duration": 0.05208337500000049,
          "durationTicks": 15,
          "midi": 91,
          "name": "G6",
          "ticks": 4500,
          "time": 15.6250125,
          "velocity": 0.5984251968503937
        },
        {
          "duration": 0.05208337500000049,
          "durationTicks": 15,
          "midi": 87,
          "name": "D#6",
          "ticks": 4500,
          "time": 15.6250125,
          "velocity": 0.5984251968503937
        },
        {
          "duration": 0.05208337500000049,
          "durationTicks": 15,
          "midi": 94,
          "name": "A#6",
          "ticks": 4500,
          "time": 15.6250125,
          "velocity": 0.5984251968503937
        },
        {
          "duration": 0.05208337499999871,
          "durationTicks": 15,
          "midi": 87,
          "name": "D#6",
          "ticks": 4620,
          "time": 16.0416795,
          "velocity": 0.5984251968503937
        },
        {
          "duration": 0.05208337499999871,
          "durationTicks": 15,
          "midi": 91,
          "name": "G6",
          "ticks": 4620,
          "time": 16.0416795,
          "velocity": 0.5984251968503937
        },
        {
          "duration": 0.05208337499999871,
          "durationTicks": 15,
          "midi": 94,
          "name": "A#6",
          "ticks": 4620,
          "time": 16.0416795,
          "velocity": 0.5984251968503937
        },
        {
          "duration": 0.05208337499999871,
          "durationTicks": 15,
          "midi": 93,
          "name": "A6",
          "ticks": 4740,
          "time": 16.4583465,
          "velocity": 0.5984251968503937
        },
        {
          "duration": 0.05208337499999871,
          "durationTicks": 15,
          "midi": 89,
          "name": "F6",
          "ticks": 4740,
          "time": 16.4583465,
          "velocity": 0.5984251968503937
        },
        {
          "duration": 0.05208337499999871,
          "durationTicks": 15,
          "midi": 84,
          "name": "C6",
          "ticks": 4740,
          "time": 16.4583465,
          "velocity": 0.5984251968503937
        },
        {
          "duration": 0.05208337499999871,
          "durationTicks": 15,
          "midi": 93,
          "name": "A6",
          "ticks": 4860,
          "time": 16.8750135,
          "velocity": 0.5984251968503937
        },
        {
          "duration": 0.05208337499999871,
          "durationTicks": 15,
          "midi": 89,
          "name": "F6",
          "ticks": 4860,
          "time": 16.8750135,
          "velocity": 0.5984251968503937
        },
        {
          "duration": 0.05208337499999871,
          "durationTicks": 15,
          "midi": 86,
          "name": "D6",
          "ticks": 4860,
          "time": 16.8750135,
          "velocity": 0.5984251968503937
        },
        {
          "duration": 0.05208337499999871,
          "durationTicks": 15,
          "midi": 93,
          "name": "A6",
          "ticks": 4980,
          "time": 17.291680500000002,
          "velocity": 0.5984251968503937
        },
        {
          "duration": 0.05208337499999871,
          "durationTicks": 15,
          "midi": 89,
          "name": "F6",
          "ticks": 4980,
          "time": 17.291680500000002,
          "velocity": 0.5984251968503937
        },
        {
          "duration": 0.05208337499999871,
          "durationTicks": 15,
          "midi": 86,
          "name": "D6",
          "ticks": 4980,
          "time": 17.291680500000002,
          "velocity": 0.5984251968503937
        },
        {
          "duration": 0.05208337499999871,
          "durationTicks": 15,
          "midi": 91,
          "name": "G6",
          "ticks": 5100,
          "time": 17.708347500000002,
          "velocity": 0.5984251968503937
        },
        {
          "duration": 0.05208337499999871,
          "durationTicks": 15,
          "midi": 87,
          "name": "D#6",
          "ticks": 5100,
          "time": 17.708347500000002,
          "velocity": 0.5984251968503937
        },
        {
          "duration": 0.05208337499999871,
          "durationTicks": 15,
          "midi": 82,
          "name": "A#5",
          "ticks": 5100,
          "time": 17.708347500000002,
          "velocity": 0.5984251968503937
        },
        {
          "duration": 0.05208337500000226,
          "durationTicks": 15,
          "midi": 91,
          "name": "G6",
          "ticks": 5220,
          "time": 18.1250145,
          "velocity": 0.5984251968503937
        },
        {
          "duration": 0.05208337500000226,
          "durationTicks": 15,
          "midi": 88,
          "name": "E6",
          "ticks": 5220,
          "time": 18.1250145,
          "velocity": 0.5984251968503937
        },
        {
          "duration": 0.05208337500000226,
          "durationTicks": 15,
          "midi": 85,
          "name": "C#6",
          "ticks": 5220,
          "time": 18.1250145,
          "velocity": 0.5984251968503937
        },
        {
          "duration": 0.05208337500000226,
          "durationTicks": 15,
          "midi": 91,
          "name": "G6",
          "ticks": 5340,
          "time": 18.5416815,
          "velocity": 0.5984251968503937
        },
        {
          "duration": 0.05208337500000226,
          "durationTicks": 15,
          "midi": 88,
          "name": "E6",
          "ticks": 5340,
          "time": 18.5416815,
          "velocity": 0.5984251968503937
        },
        {
          "duration": 0.05208337500000226,
          "durationTicks": 15,
          "midi": 85,
          "name": "C#6",
          "ticks": 5340,
          "time": 18.5416815,
          "velocity": 0.5984251968503937
        },
        {
          "duration": 0.05208337500000226,
          "durationTicks": 15,
          "midi": 93,
          "name": "A6",
          "ticks": 5460,
          "time": 18.9583485,
          "velocity": 0.5984251968503937
        },
        {
          "duration": 0.05208337500000226,
          "durationTicks": 15,
          "midi": 90,
          "name": "F#6",
          "ticks": 5460,
          "time": 18.9583485,
          "velocity": 0.5984251968503937
        },
        {
          "duration": 0.05208337500000226,
          "durationTicks": 15,
          "midi": 86,
          "name": "D6",
          "ticks": 5460,
          "time": 18.9583485,
          "velocity": 0.5984251968503937
        },
        {
          "duration": 0.05208337500000226,
          "durationTicks": 15,
          "midi": 93,
          "name": "A6",
          "ticks": 5580,
          "time": 19.3750155,
          "velocity": 0.5984251968503937
        },
        {
          "duration": 0.05208337500000226,
          "durationTicks": 15,
          "midi": 90,
          "name": "F#6",
          "ticks": 5580,
          "time": 19.3750155,
          "velocity": 0.5984251968503937
        },
        {
          "duration": 0.05208337500000226,
          "durationTicks": 15,
          "midi": 86,
          "name": "D6",
          "ticks": 5580,
          "time": 19.3750155,
          "velocity": 0.5984251968503937
        },
        {
          "duration": 0.05208337499999871,
          "durationTicks": 15,
          "midi": 93,
          "name": "A6",
          "ticks": 5700,
          "time": 19.7916825,
          "velocity": 0.5984251968503937
        },
        {
          "duration": 0.05208337499999871,
          "durationTicks": 15,
          "midi": 90,
          "name": "F#6",
          "ticks": 5700,
          "time": 19.7916825,
          "velocity": 0.5984251968503937
        },
        {
          "duration": 0.05208337499999871,
          "durationTicks": 15,
          "midi": 86,
          "name": "D6",
          "ticks": 5700,
          "time": 19.7916825,
          "velocity": 0.5984251968503937
        },
        {
          "duration": 0.05208337499999871,
          "durationTicks": 15,
          "midi": 91,
          "name": "G6",
          "ticks": 5820,
          "time": 20.2083495,
          "velocity": 0.5984251968503937
        },
        {
          "duration": 0.05208337499999871,
          "durationTicks": 15,
          "midi": 94,
          "name": "A#6",
          "ticks": 5820,
          "time": 20.2083495,
          "velocity": 0.5984251968503937
        },
        {
          "duration": 0.05208337499999871,
          "durationTicks": 15,
          "midi": 86,
          "name": "D6",
          "ticks": 5820,
          "time": 20.2083495,
          "velocity": 0.5984251968503937
        },
        {
          "duration": 0.05208337499999871,
          "durationTicks": 15,
          "midi": 91,
          "name": "G6",
          "ticks": 5940,
          "time": 20.6250165,
          "velocity": 0.5984251968503937
        },
        {
          "duration": 0.05208337499999871,
          "durationTicks": 15,
          "midi": 87,
          "name": "D#6",
          "ticks": 5940,
          "time": 20.6250165,
          "velocity": 0.5984251968503937
        },
        {
          "duration": 0.05208337499999871,
          "durationTicks": 15,
          "midi": 94,
          "name": "A#6",
          "ticks": 5940,
          "time": 20.6250165,
          "velocity": 0.5984251968503937
        },
        {
          "duration": 0.05208337499999871,
          "durationTicks": 15,
          "midi": 87,
          "name": "D#6",
          "ticks": 6060,
          "time": 21.0416835,
          "velocity": 0.5984251968503937
        },
        {
          "duration": 0.05208337499999871,
          "durationTicks": 15,
          "midi": 91,
          "name": "G6",
          "ticks": 6060,
          "time": 21.0416835,
          "velocity": 0.5984251968503937
        },
        {
          "duration": 0.05208337499999871,
          "durationTicks": 15,
          "midi": 94,
          "name": "A#6",
          "ticks": 6060,
          "time": 21.0416835,
          "velocity": 0.5984251968503937
        },
        {
          "duration": 0.05208337499999871,
          "durationTicks": 15,
          "midi": 93,
          "name": "A6",
          "ticks": 6180,
          "time": 21.4583505,
          "velocity": 0.5984251968503937
        },
        {
          "duration": 0.05208337499999871,
          "durationTicks": 15,
          "midi": 89,
          "name": "F6",
          "ticks": 6180,
          "time": 21.4583505,
          "velocity": 0.5984251968503937
        },
        {
          "duration": 0.05208337499999871,
          "durationTicks": 15,
          "midi": 84,
          "name": "C6",
          "ticks": 6180,
          "time": 21.4583505,
          "velocity": 0.5984251968503937
        },
        {
          "duration": 0.05208337499999871,
          "durationTicks": 15,
          "midi": 93,
          "name": "A6",
          "ticks": 6300,
          "time": 21.875017500000002,
          "velocity": 0.5984251968503937
        },
        {
          "duration": 0.05208337499999871,
          "durationTicks": 15,
          "midi": 89,
          "name": "F6",
          "ticks": 6300,
          "time": 21.875017500000002,
          "velocity": 0.5984251968503937
        },
        {
          "duration": 0.05208337499999871,
          "durationTicks": 15,
          "midi": 86,
          "name": "D6",
          "ticks": 6300,
          "time": 21.875017500000002,
          "velocity": 0.5984251968503937
        },
        {
          "duration": 0.05208337500000226,
          "durationTicks": 15,
          "midi": 93,
          "name": "A6",
          "ticks": 6420,
          "time": 22.2916845,
          "velocity": 0.5984251968503937
        },
        {
          "duration": 0.05208337500000226,
          "durationTicks": 15,
          "midi": 89,
          "name": "F6",
          "ticks": 6420,
          "time": 22.2916845,
          "velocity": 0.5984251968503937
        },
        {
          "duration": 0.05208337500000226,
          "durationTicks": 15,
          "midi": 86,
          "name": "D6",
          "ticks": 6420,
          "time": 22.2916845,
          "velocity": 0.5984251968503937
        },
        {
          "duration": 0.05208337500000226,
          "durationTicks": 15,
          "midi": 91,
          "name": "G6",
          "ticks": 6540,
          "time": 22.7083515,
          "velocity": 0.5984251968503937
        },
        {
          "duration": 0.05208337500000226,
          "durationTicks": 15,
          "midi": 87,
          "name": "D#6",
          "ticks": 6540,
          "time": 22.7083515,
          "velocity": 0.5984251968503937
        },
        {
          "duration": 0.05208337500000226,
          "durationTicks": 15,
          "midi": 82,
          "name": "A#5",
          "ticks": 6540,
          "time": 22.7083515,
          "velocity": 0.5984251968503937
        },
        {
          "duration": 0.05208337500000226,
          "durationTicks": 15,
          "midi": 91,
          "name": "G6",
          "ticks": 6660,
          "time": 23.1250185,
          "velocity": 0.5984251968503937
        },
        {
          "duration": 0.05208337500000226,
          "durationTicks": 15,
          "midi": 88,
          "name": "E6",
          "ticks": 6660,
          "time": 23.1250185,
          "velocity": 0.5984251968503937
        },
        {
          "duration": 0.05208337500000226,
          "durationTicks": 15,
          "midi": 85,
          "name": "C#6",
          "ticks": 6660,
          "time": 23.1250185,
          "velocity": 0.5984251968503937
        },
        {
          "duration": 0.05208337500000226,
          "durationTicks": 15,
          "midi": 91,
          "name": "G6",
          "ticks": 6780,
          "time": 23.5416855,
          "velocity": 0.5984251968503937
        },
        {
          "duration": 0.05208337500000226,
          "durationTicks": 15,
          "midi": 88,
          "name": "E6",
          "ticks": 6780,
          "time": 23.5416855,
          "velocity": 0.5984251968503937
        },
        {
          "duration": 0.05208337500000226,
          "durationTicks": 15,
          "midi": 85,
          "name": "C#6",
          "ticks": 6780,
          "time": 23.5416855,
          "velocity": 0.5984251968503937
        },
        {
          "duration": 0.05208337499999871,
          "durationTicks": 15,
          "midi": 93,
          "name": "A6",
          "ticks": 6900,
          "time": 23.9583525,
          "velocity": 0.5984251968503937
        },
        {
          "duration": 0.05208337499999871,
          "durationTicks": 15,
          "midi": 90,
          "name": "F#6",
          "ticks": 6900,
          "time": 23.9583525,
          "velocity": 0.5984251968503937
        },
        {
          "duration": 0.05208337499999871,
          "durationTicks": 15,
          "midi": 86,
          "name": "D6",
          "ticks": 6900,
          "time": 23.9583525,
          "velocity": 0.5984251968503937
        },
        {
          "duration": 0.05208337499999871,
          "durationTicks": 15,
          "midi": 93,
          "name": "A6",
          "ticks": 7020,
          "time": 24.3750195,
          "velocity": 0.5984251968503937
        },
        {
          "duration": 0.05208337499999871,
          "durationTicks": 15,
          "midi": 90,
          "name": "F#6",
          "ticks": 7020,
          "time": 24.3750195,
          "velocity": 0.5984251968503937
        },
        {
          "duration": 0.05208337499999871,
          "durationTicks": 15,
          "midi": 86,
          "name": "D6",
          "ticks": 7020,
          "time": 24.3750195,
          "velocity": 0.5984251968503937
        },
        {
          "duration": 0.05208337499999871,
          "durationTicks": 15,
          "midi": 93,
          "name": "A6",
          "ticks": 7140,
          "time": 24.7916865,
          "velocity": 0.5984251968503937
        },
        {
          "duration": 0.05208337499999871,
          "durationTicks": 15,
          "midi": 90,
          "name": "F#6",
          "ticks": 7140,
          "time": 24.7916865,
          "velocity": 0.5984251968503937
        },
        {
          "duration": 0.05208337499999871,
          "durationTicks": 15,
          "midi": 86,
          "name": "D6",
          "ticks": 7140,
          "time": 24.7916865,
          "velocity": 0.5984251968503937
        },
        {
          "duration": 0.05208337499999871,
          "durationTicks": 15,
          "midi": 91,
          "name": "G6",
          "ticks": 7260,
          "time": 25.2083535,
          "velocity": 0.5984251968503937
        },
        {
          "duration": 0.05208337499999871,
          "durationTicks": 15,
          "midi": 94,
          "name": "A#6",
          "ticks": 7260,
          "time": 25.2083535,
          "velocity": 0.5984251968503937
        },
        {
          "duration": 0.05208337499999871,
          "durationTicks": 15,
          "midi": 86,
          "name": "D6",
          "ticks": 7260,
          "time": 25.2083535,
          "velocity": 0.5984251968503937
        },
        {
          "duration": 0.05208337499999871,
          "durationTicks": 15,
          "midi": 91,
          "name": "G6",
          "ticks": 7380,
          "time": 25.6250205,
          "velocity": 0.5984251968503937
        },
        {
          "duration": 0.05208337499999871,
          "durationTicks": 15,
          "midi": 87,
          "name": "D#6",
          "ticks": 7380,
          "time": 25.6250205,
          "velocity": 0.5984251968503937
        },
        {
          "duration": 0.05208337499999871,
          "durationTicks": 15,
          "midi": 94,
          "name": "A#6",
          "ticks": 7380,
          "time": 25.6250205,
          "velocity": 0.5984251968503937
        },
        {
          "duration": 0.05208337499999871,
          "durationTicks": 15,
          "midi": 87,
          "name": "D#6",
          "ticks": 7500,
          "time": 26.041687500000002,
          "velocity": 0.5984251968503937
        },
        {
          "duration": 0.05208337499999871,
          "durationTicks": 15,
          "midi": 91,
          "name": "G6",
          "ticks": 7500,
          "time": 26.041687500000002,
          "velocity": 0.5984251968503937
        },
        {
          "duration": 0.05208337499999871,
          "durationTicks": 15,
          "midi": 94,
          "name": "A#6",
          "ticks": 7500,
          "time": 26.041687500000002,
          "velocity": 0.5984251968503937
        },
        {
          "duration": 0.05208337499999871,
          "durationTicks": 15,
          "midi": 93,
          "name": "A6",
          "ticks": 7620,
          "time": 26.458354500000002,
          "velocity": 0.5984251968503937
        },
        {
          "duration": 0.05208337499999871,
          "durationTicks": 15,
          "midi": 89,
          "name": "F6",
          "ticks": 7620,
          "time": 26.458354500000002,
          "velocity": 0.5984251968503937
        },
        {
          "duration": 0.05208337499999871,
          "durationTicks": 15,
          "midi": 84,
          "name": "C6",
          "ticks": 7620,
          "time": 26.458354500000002,
          "velocity": 0.5984251968503937
        },
        {
          "duration": 0.05208337500000226,
          "durationTicks": 15,
          "midi": 93,
          "name": "A6",
          "ticks": 7740,
          "time": 26.8750215,
          "velocity": 0.5984251968503937
        },
        {
          "duration": 0.05208337500000226,
          "durationTicks": 15,
          "midi": 89,
          "name": "F6",
          "ticks": 7740,
          "time": 26.8750215,
          "velocity": 0.5984251968503937
        },
        {
          "duration": 0.05208337500000226,
          "durationTicks": 15,
          "midi": 86,
          "name": "D6",
          "ticks": 7740,
          "time": 26.8750215,
          "velocity": 0.5984251968503937
        },
        {
          "duration": 0.05208337500000226,
          "durationTicks": 15,
          "midi": 93,
          "name": "A6",
          "ticks": 7860,
          "time": 27.2916885,
          "velocity": 0.5984251968503937
        },
        {
          "duration": 0.05208337500000226,
          "durationTicks": 15,
          "midi": 89,
          "name": "F6",
          "ticks": 7860,
          "time": 27.2916885,
          "velocity": 0.5984251968503937
        },
        {
          "duration": 0.05208337500000226,
          "durationTicks": 15,
          "midi": 86,
          "name": "D6",
          "ticks": 7860,
          "time": 27.2916885,
          "velocity": 0.5984251968503937
        },
        {
          "duration": 0.05208337500000226,
          "durationTicks": 15,
          "midi": 91,
          "name": "G6",
          "ticks": 7980,
          "time": 27.7083555,
          "velocity": 0.5984251968503937
        },
        {
          "duration": 0.05208337500000226,
          "durationTicks": 15,
          "midi": 87,
          "name": "D#6",
          "ticks": 7980,
          "time": 27.7083555,
          "velocity": 0.5984251968503937
        },
        {
          "duration": 0.05208337500000226,
          "durationTicks": 15,
          "midi": 82,
          "name": "A#5",
          "ticks": 7980,
          "time": 27.7083555,
          "velocity": 0.5984251968503937
        },
        {
          "duration": 0.05208337500000226,
          "durationTicks": 15,
          "midi": 91,
          "name": "G6",
          "ticks": 8100,
          "time": 28.1250225,
          "velocity": 0.5984251968503937
        },
        {
          "duration": 0.05208337500000226,
          "durationTicks": 15,
          "midi": 88,
          "name": "E6",
          "ticks": 8100,
          "time": 28.1250225,
          "velocity": 0.5984251968503937
        },
        {
          "duration": 0.05208337500000226,
          "durationTicks": 15,
          "midi": 85,
          "name": "C#6",
          "ticks": 8100,
          "time": 28.1250225,
          "velocity": 0.5984251968503937
        },
        {
          "duration": 0.05208337499999871,
          "durationTicks": 15,
          "midi": 91,
          "name": "G6",
          "ticks": 8220,
          "time": 28.5416895,
          "velocity": 0.5984251968503937
        },
        {
          "duration": 0.05208337499999871,
          "durationTicks": 15,
          "midi": 88,
          "name": "E6",
          "ticks": 8220,
          "time": 28.5416895,
          "velocity": 0.5984251968503937
        },
        {
          "duration": 0.05208337499999871,
          "durationTicks": 15,
          "midi": 85,
          "name": "C#6",
          "ticks": 8220,
          "time": 28.5416895,
          "velocity": 0.5984251968503937
        },
        {
          "duration": 0.05208337499999871,
          "durationTicks": 15,
          "midi": 93,
          "name": "A6",
          "ticks": 8340,
          "time": 28.9583565,
          "velocity": 0.5984251968503937
        },
        {
          "duration": 0.05208337499999871,
          "durationTicks": 15,
          "midi": 90,
          "name": "F#6",
          "ticks": 8340,
          "time": 28.9583565,
          "velocity": 0.5984251968503937
        },
        {
          "duration": 0.05208337499999871,
          "durationTicks": 15,
          "midi": 86,
          "name": "D6",
          "ticks": 8340,
          "time": 28.9583565,
          "velocity": 0.5984251968503937
        },
        {
          "duration": 0.05208337499999871,
          "durationTicks": 15,
          "midi": 93,
          "name": "A6",
          "ticks": 8460,
          "time": 29.3750235,
          "velocity": 0.5984251968503937
        },
        {
          "duration": 0.05208337499999871,
          "durationTicks": 15,
          "midi": 90,
          "name": "F#6",
          "ticks": 8460,
          "time": 29.3750235,
          "velocity": 0.5984251968503937
        },
        {
          "duration": 0.05208337499999871,
          "durationTicks": 15,
          "midi": 86,
          "name": "D6",
          "ticks": 8460,
          "time": 29.3750235,
          "velocity": 0.5984251968503937
        },
        {
          "duration": 0.05208337499999871,
          "durationTicks": 15,
          "midi": 93,
          "name": "A6",
          "ticks": 8580,
          "time": 29.7916905,
          "velocity": 0.5984251968503937
        },
        {
          "duration": 0.05208337499999871,
          "durationTicks": 15,
          "midi": 90,
          "name": "F#6",
          "ticks": 8580,
          "time": 29.7916905,
          "velocity": 0.5984251968503937
        },
        {
          "duration": 0.05208337499999871,
          "durationTicks": 15,
          "midi": 86,
          "name": "D6",
          "ticks": 8580,
          "time": 29.7916905,
          "velocity": 0.5984251968503937
        },
        {
          "duration": 0.05208337499999871,
          "durationTicks": 15,
          "midi": 91,
          "name": "G6",
          "ticks": 8700,
          "time": 30.2083575,
          "velocity": 0.5984251968503937
        },
        {
          "duration": 0.05208337499999871,
          "durationTicks": 15,
          "midi": 94,
          "name": "A#6",
          "ticks": 8700,
          "time": 30.2083575,
          "velocity": 0.5984251968503937
        },
        {
          "duration": 0.05208337499999871,
          "durationTicks": 15,
          "midi": 86,
          "name": "D6",
          "ticks": 8700,
          "time": 30.2083575,
          "velocity": 0.5984251968503937
        },
        {
          "duration": 0.05208337499999871,
          "durationTicks": 15,
          "midi": 91,
          "name": "G6",
          "ticks": 8820,
          "time": 30.625024500000002,
          "velocity": 0.5984251968503937
        },
        {
          "duration": 0.05208337499999871,
          "durationTicks": 15,
          "midi": 87,
          "name": "D#6",
          "ticks": 8820,
          "time": 30.625024500000002,
          "velocity": 0.5984251968503937
        },
        {
          "duration": 0.05208337499999871,
          "durationTicks": 15,
          "midi": 94,
          "name": "A#6",
          "ticks": 8820,
          "time": 30.625024500000002,
          "velocity": 0.5984251968503937
        },
        {
          "duration": 0.05208337499999871,
          "durationTicks": 15,
          "midi": 87,
          "name": "D#6",
          "ticks": 8940,
          "time": 31.041691500000002,
          "velocity": 0.5984251968503937
        },
        {
          "duration": 0.05208337499999871,
          "durationTicks": 15,
          "midi": 91,
          "name": "G6",
          "ticks": 8940,
          "time": 31.041691500000002,
          "velocity": 0.5984251968503937
        },
        {
          "duration": 0.05208337499999871,
          "durationTicks": 15,
          "midi": 94,
          "name": "A#6",
          "ticks": 8940,
          "time": 31.041691500000002,
          "velocity": 0.5984251968503937
        },
        {
          "duration": 0.05208337500000226,
          "durationTicks": 15,
          "midi": 93,
          "name": "A6",
          "ticks": 9060,
          "time": 31.4583585,
          "velocity": 0.5984251968503937
        },
        {
          "duration": 0.05208337500000226,
          "durationTicks": 15,
          "midi": 89,
          "name": "F6",
          "ticks": 9060,
          "time": 31.4583585,
          "velocity": 0.5984251968503937
        },
        {
          "duration": 0.05208337500000226,
          "durationTicks": 15,
          "midi": 84,
          "name": "C6",
          "ticks": 9060,
          "time": 31.4583585,
          "velocity": 0.5984251968503937
        },
        {
          "duration": 0.05208337500000226,
          "durationTicks": 15,
          "midi": 93,
          "name": "A6",
          "ticks": 9180,
          "time": 31.8750255,
          "velocity": 0.5984251968503937
        },
        {
          "duration": 0.05208337500000226,
          "durationTicks": 15,
          "midi": 89,
          "name": "F6",
          "ticks": 9180,
          "time": 31.8750255,
          "velocity": 0.5984251968503937
        },
        {
          "duration": 0.05208337500000226,
          "durationTicks": 15,
          "midi": 86,
          "name": "D6",
          "ticks": 9180,
          "time": 31.8750255,
          "velocity": 0.5984251968503937
        },
        {
          "duration": 0.05208337499999516,
          "durationTicks": 15,
          "midi": 93,
          "name": "A6",
          "ticks": 9300,
          "time": 32.2916925,
          "velocity": 0.5984251968503937
        },
        {
          "duration": 0.05208337499999516,
          "durationTicks": 15,
          "midi": 89,
          "name": "F6",
          "ticks": 9300,
          "time": 32.2916925,
          "velocity": 0.5984251968503937
        },
        {
          "duration": 0.05208337499999516,
          "durationTicks": 15,
          "midi": 86,
          "name": "D6",
          "ticks": 9300,
          "time": 32.2916925,
          "velocity": 0.5984251968503937
        },
        {
          "duration": 0.05208337500000226,
          "durationTicks": 15,
          "midi": 91,
          "name": "G6",
          "ticks": 9420,
          "time": 32.7083595,
          "velocity": 0.5984251968503937
        },
        {
          "duration": 0.05208337500000226,
          "durationTicks": 15,
          "midi": 87,
          "name": "D#6",
          "ticks": 9420,
          "time": 32.7083595,
          "velocity": 0.5984251968503937
        },
        {
          "duration": 0.05208337500000226,
          "durationTicks": 15,
          "midi": 82,
          "name": "A#5",
          "ticks": 9420,
          "time": 32.7083595,
          "velocity": 0.5984251968503937
        },
        {
          "duration": 0.05208337499999516,
          "durationTicks": 15,
          "midi": 91,
          "name": "G6",
          "ticks": 9540,
          "time": 33.125026500000004,
          "velocity": 0.5984251968503937
        },
        {
          "duration": 0.05208337499999516,
          "durationTicks": 15,
          "midi": 88,
          "name": "E6",
          "ticks": 9540,
          "time": 33.125026500000004,
          "velocity": 0.5984251968503937
        },
        {
          "duration": 0.05208337499999516,
          "durationTicks": 15,
          "midi": 85,
          "name": "C#6",
          "ticks": 9540,
          "time": 33.125026500000004,
          "velocity": 0.5984251968503937
        },
        {
          "duration": 0.05208337500000226,
          "durationTicks": 15,
          "midi": 91,
          "name": "G6",
          "ticks": 9660,
          "time": 33.5416935,
          "velocity": 0.5984251968503937
        },
        {
          "duration": 0.05208337500000226,
          "durationTicks": 15,
          "midi": 88,
          "name": "E6",
          "ticks": 9660,
          "time": 33.5416935,
          "velocity": 0.5984251968503937
        },
        {
          "duration": 0.05208337500000226,
          "durationTicks": 15,
          "midi": 85,
          "name": "C#6",
          "ticks": 9660,
          "time": 33.5416935,
          "velocity": 0.5984251968503937
        },
        {
          "duration": 0.05208337500000226,
          "durationTicks": 15,
          "midi": 93,
          "name": "A6",
          "ticks": 9780,
          "time": 33.9583605,
          "velocity": 0.5984251968503937
        },
        {
          "duration": 0.05208337500000226,
          "durationTicks": 15,
          "midi": 90,
          "name": "F#6",
          "ticks": 9780,
          "time": 33.9583605,
          "velocity": 0.5984251968503937
        },
        {
          "duration": 0.05208337500000226,
          "durationTicks": 15,
          "midi": 86,
          "name": "D6",
          "ticks": 9780,
          "time": 33.9583605,
          "velocity": 0.5984251968503937
        },
        {
          "duration": 0.05208337500000226,
          "durationTicks": 15,
          "midi": 93,
          "name": "A6",
          "ticks": 9900,
          "time": 34.3750275,
          "velocity": 0.5984251968503937
        },
        {
          "duration": 0.05208337500000226,
          "durationTicks": 15,
          "midi": 90,
          "name": "F#6",
          "ticks": 9900,
          "time": 34.3750275,
          "velocity": 0.5984251968503937
        },
        {
          "duration": 0.05208337500000226,
          "durationTicks": 15,
          "midi": 86,
          "name": "D6",
          "ticks": 9900,
          "time": 34.3750275,
          "velocity": 0.5984251968503937
        },
        {
          "duration": 0.05208337500000226,
          "durationTicks": 15,
          "midi": 93,
          "name": "A6",
          "ticks": 10020,
          "time": 34.7916945,
          "velocity": 0.5984251968503937
        },
        {
          "duration": 0.05208337500000226,
          "durationTicks": 15,
          "midi": 90,
          "name": "F#6",
          "ticks": 10020,
          "time": 34.7916945,
          "velocity": 0.5984251968503937
        },
        {
          "duration": 0.05208337500000226,
          "durationTicks": 15,
          "midi": 86,
          "name": "D6",
          "ticks": 10020,
          "time": 34.7916945,
          "velocity": 0.5984251968503937
        },
        {
          "duration": 0.05208337499999516,
          "durationTicks": 15,
          "midi": 91,
          "name": "G6",
          "ticks": 10140,
          "time": 35.2083615,
          "velocity": 0.5984251968503937
        },
        {
          "duration": 0.05208337499999516,
          "durationTicks": 15,
          "midi": 94,
          "name": "A#6",
          "ticks": 10140,
          "time": 35.2083615,
          "velocity": 0.5984251968503937
        },
        {
          "duration": 0.05208337499999516,
          "durationTicks": 15,
          "midi": 86,
          "name": "D6",
          "ticks": 10140,
          "time": 35.2083615,
          "velocity": 0.5984251968503937
        },
        {
          "duration": 0.05208337500000226,
          "durationTicks": 15,
          "midi": 91,
          "name": "G6",
          "ticks": 10260,
          "time": 35.6250285,
          "velocity": 0.5984251968503937
        },
        {
          "duration": 0.05208337500000226,
          "durationTicks": 15,
          "midi": 87,
          "name": "D#6",
          "ticks": 10260,
          "time": 35.6250285,
          "velocity": 0.5984251968503937
        },
        {
          "duration": 0.05208337500000226,
          "durationTicks": 15,
          "midi": 94,
          "name": "A#6",
          "ticks": 10260,
          "time": 35.6250285,
          "velocity": 0.5984251968503937
        },
        {
          "duration": 0.05208337499999516,
          "durationTicks": 15,
          "midi": 87,
          "name": "D#6",
          "ticks": 10380,
          "time": 36.0416955,
          "velocity": 0.5984251968503937
        },
        {
          "duration": 0.05208337499999516,
          "durationTicks": 15,
          "midi": 91,
          "name": "G6",
          "ticks": 10380,
          "time": 36.0416955,
          "velocity": 0.5984251968503937
        },
        {
          "duration": 0.05208337499999516,
          "durationTicks": 15,
          "midi": 94,
          "name": "A#6",
          "ticks": 10380,
          "time": 36.0416955,
          "velocity": 0.5984251968503937
        },
        {
          "duration": 0.05208337500000226,
          "durationTicks": 15,
          "midi": 93,
          "name": "A6",
          "ticks": 10500,
          "time": 36.4583625,
          "velocity": 0.5984251968503937
        },
        {
          "duration": 0.05208337500000226,
          "durationTicks": 15,
          "midi": 89,
          "name": "F6",
          "ticks": 10500,
          "time": 36.4583625,
          "velocity": 0.5984251968503937
        },
        {
          "duration": 0.05208337500000226,
          "durationTicks": 15,
          "midi": 84,
          "name": "C6",
          "ticks": 10500,
          "time": 36.4583625,
          "velocity": 0.5984251968503937
        },
        {
          "duration": 0.05208337499999516,
          "durationTicks": 15,
          "midi": 93,
          "name": "A6",
          "ticks": 10620,
          "time": 36.875029500000004,
          "velocity": 0.5984251968503937
        },
        {
          "duration": 0.05208337499999516,
          "durationTicks": 15,
          "midi": 89,
          "name": "F6",
          "ticks": 10620,
          "time": 36.875029500000004,
          "velocity": 0.5984251968503937
        },
        {
          "duration": 0.05208337499999516,
          "durationTicks": 15,
          "midi": 86,
          "name": "D6",
          "ticks": 10620,
          "time": 36.875029500000004,
          "velocity": 0.5984251968503937
        },
        {
          "duration": 0.05208337500000226,
          "durationTicks": 15,
          "midi": 93,
          "name": "A6",
          "ticks": 10740,
          "time": 37.2916965,
          "velocity": 0.5984251968503937
        },
        {
          "duration": 0.05208337500000226,
          "durationTicks": 15,
          "midi": 89,
          "name": "F6",
          "ticks": 10740,
          "time": 37.2916965,
          "velocity": 0.5984251968503937
        },
        {
          "duration": 0.05208337500000226,
          "durationTicks": 15,
          "midi": 86,
          "name": "D6",
          "ticks": 10740,
          "time": 37.2916965,
          "velocity": 0.5984251968503937
        },
        {
          "duration": 0.05208337499999516,
          "durationTicks": 15,
          "midi": 91,
          "name": "G6",
          "ticks": 10860,
          "time": 37.708363500000004,
          "velocity": 0.5984251968503937
        },
        {
          "duration": 0.05208337499999516,
          "durationTicks": 15,
          "midi": 87,
          "name": "D#6",
          "ticks": 10860,
          "time": 37.708363500000004,
          "velocity": 0.5984251968503937
        },
        {
          "duration": 0.05208337499999516,
          "durationTicks": 15,
          "midi": 82,
          "name": "A#5",
          "ticks": 10860,
          "time": 37.708363500000004,
          "velocity": 0.5984251968503937
        },
        {
          "duration": 0.05208337500000226,
          "durationTicks": 15,
          "midi": 91,
          "name": "G6",
          "ticks": 10980,
          "time": 38.1250305,
          "velocity": 0.5984251968503937
        },
        {
          "duration": 0.05208337500000226,
          "durationTicks": 15,
          "midi": 88,
          "name": "E6",
          "ticks": 10980,
          "time": 38.1250305,
          "velocity": 0.5984251968503937
        },
        {
          "duration": 0.05208337500000226,
          "durationTicks": 15,
          "midi": 85,
          "name": "C#6",
          "ticks": 10980,
          "time": 38.1250305,
          "velocity": 0.5984251968503937
        },
        {
          "duration": 0.05208337500000226,
          "durationTicks": 15,
          "midi": 91,
          "name": "G6",
          "ticks": 11100,
          "time": 38.5416975,
          "velocity": 0.5984251968503937
        },
        {
          "duration": 0.05208337500000226,
          "durationTicks": 15,
          "midi": 88,
          "name": "E6",
          "ticks": 11100,
          "time": 38.5416975,
          "velocity": 0.5984251968503937
        },
        {
          "duration": 0.05208337500000226,
          "durationTicks": 15,
          "midi": 85,
          "name": "C#6",
          "ticks": 11100,
          "time": 38.5416975,
          "velocity": 0.5984251968503937
        },
        {
          "duration": 0.05208337500000226,
          "durationTicks": 15,
          "midi": 93,
          "name": "A6",
          "ticks": 11220,
          "time": 38.9583645,
          "velocity": 0.5984251968503937
        },
        {
          "duration": 0.05208337500000226,
          "durationTicks": 15,
          "midi": 90,
          "name": "F#6",
          "ticks": 11220,
          "time": 38.9583645,
          "velocity": 0.5984251968503937
        },
        {
          "duration": 0.05208337500000226,
          "durationTicks": 15,
          "midi": 86,
          "name": "D6",
          "ticks": 11220,
          "time": 38.9583645,
          "velocity": 0.5984251968503937
        },
        {
          "duration": 0.05208337500000226,
          "durationTicks": 15,
          "midi": 93,
          "name": "A6",
          "ticks": 11340,
          "time": 39.3750315,
          "velocity": 0.5984251968503937
        },
        {
          "duration": 0.05208337500000226,
          "durationTicks": 15,
          "midi": 90,
          "name": "F#6",
          "ticks": 11340,
          "time": 39.3750315,
          "velocity": 0.5984251968503937
        },
        {
          "duration": 0.05208337500000226,
          "durationTicks": 15,
          "midi": 86,
          "name": "D6",
          "ticks": 11340,
          "time": 39.3750315,
          "velocity": 0.5984251968503937
        },
        {
          "duration": 0.05208337499999516,
          "durationTicks": 15,
          "midi": 93,
          "name": "A6",
          "ticks": 11460,
          "time": 39.7916985,
          "velocity": 0.5984251968503937
        },
        {
          "duration": 0.05208337499999516,
          "durationTicks": 15,
          "midi": 90,
          "name": "F#6",
          "ticks": 11460,
          "time": 39.7916985,
          "velocity": 0.5984251968503937
        },
        {
          "duration": 0.05208337499999516,
          "durationTicks": 15,
          "midi": 86,
          "name": "D6",
          "ticks": 11460,
          "time": 39.7916985,
          "velocity": 0.5984251968503937
        }
      ],
      "endOfTrackTicks": 11475
    },
    {
      "channel": 6,
      "controlChanges": {
        "7": [
          {
            "number": 7,
            "ticks": 0,
            "time": 0,
            "value": 1
          }
        ],
        "10": [
          {
            "number": 10,
            "ticks": 0,
            "time": 0,
            "value": 0.31496062992125984
          }
        ]
      },
      "pitchBends": [],
      "instrument": {
        "family": "ensemble",
        "number": 48,
        "name": "string ensemble 1"
      },
      "name": "Touhou 6: Enbodiment of Scarlet Devil - Shanghai Alice of Meiji 17 ",
      "notes": [
        {
          "duration": 0.2083334999999984,
          "durationTicks": 60,
          "midi": 74,
          "name": "D5",
          "ticks": 5820,
          "time": 20.2083495,
          "velocity": 0.5354330708661418
        },
        {
          "duration": 0.2083334999999984,
          "durationTicks": 60,
          "midi": 82,
          "name": "A#5",
          "ticks": 5820,
          "time": 20.2083495,
          "velocity": 0.5354330708661418
        },
        {
          "duration": 0.20833350000000195,
          "durationTicks": 60,
          "midi": 69,
          "name": "A4",
          "ticks": 5880,
          "time": 20.416683,
          "velocity": 0.5354330708661418
        },
        {
          "duration": 0.20833350000000195,
          "durationTicks": 60,
          "midi": 72,
          "name": "C5",
          "ticks": 5880,
          "time": 20.416683,
          "velocity": 0.5354330708661418
        },
        {
          "duration": 0.2083334999999984,
          "durationTicks": 60,
          "midi": 72,
          "name": "C5",
          "ticks": 5940,
          "time": 20.6250165,
          "velocity": 0.5354330708661418
        },
        {
          "duration": 0.2083334999999984,
          "durationTicks": 60,
          "midi": 81,
          "name": "A5",
          "ticks": 5940,
          "time": 20.6250165,
          "velocity": 0.5354330708661418
        },
        {
          "duration": 0.20833350000000195,
          "durationTicks": 60,
          "midi": 67,
          "name": "G4",
          "ticks": 6000,
          "time": 20.83335,
          "velocity": 0.5354330708661418
        },
        {
          "duration": 0.20833350000000195,
          "durationTicks": 60,
          "midi": 70,
          "name": "A#4",
          "ticks": 6000,
          "time": 20.83335,
          "velocity": 0.5354330708661418
        },
        {
          "duration": 0.2083334999999984,
          "durationTicks": 60,
          "midi": 70,
          "name": "A#4",
          "ticks": 6060,
          "time": 21.0416835,
          "velocity": 0.5354330708661418
        },
        {
          "duration": 0.2083334999999984,
          "durationTicks": 60,
          "midi": 79,
          "name": "G5",
          "ticks": 6060,
          "time": 21.0416835,
          "velocity": 0.5354330708661418
        },
        {
          "duration": 0.2083334999999984,
          "durationTicks": 60,
          "midi": 74,
          "name": "D5",
          "ticks": 6180,
          "time": 21.4583505,
          "velocity": 0.5354330708661418
        },
        {
          "duration": 0.2083334999999984,
          "durationTicks": 60,
          "midi": 82,
          "name": "A#5",
          "ticks": 6180,
          "time": 21.4583505,
          "velocity": 0.5354330708661418
        },
        {
          "duration": 0.20833350000000195,
          "durationTicks": 60,
          "midi": 69,
          "name": "A4",
          "ticks": 6240,
          "time": 21.666684,
          "velocity": 0.5354330708661418
        },
        {
          "duration": 0.20833350000000195,
          "durationTicks": 60,
          "midi": 72,
          "name": "C5",
          "ticks": 6240,
          "time": 21.666684,
          "velocity": 0.5354330708661418
        },
        {
          "duration": 0.2083334999999984,
          "durationTicks": 60,
          "midi": 74,
          "name": "D5",
          "ticks": 6300,
          "time": 21.875017500000002,
          "velocity": 0.5354330708661418
        },
        {
          "duration": 0.2083334999999984,
          "durationTicks": 60,
          "midi": 81,
          "name": "A5",
          "ticks": 6300,
          "time": 21.875017500000002,
          "velocity": 0.5354330708661418
        },
        {
          "duration": 0.31250024999999937,
          "durationTicks": 90,
          "midi": 67,
          "name": "G4",
          "ticks": 6360,
          "time": 22.083351,
          "velocity": 0.5354330708661418
        },
        {
          "duration": 0.31250024999999937,
          "durationTicks": 90,
          "midi": 70,
          "name": "A#4",
          "ticks": 6360,
          "time": 22.083351,
          "velocity": 0.5354330708661418
        },
        {
          "duration": 0.20833350000000195,
          "durationTicks": 60,
          "midi": 70,
          "name": "A#4",
          "ticks": 6540,
          "time": 22.7083515,
          "velocity": 0.5354330708661418
        },
        {
          "duration": 0.20833350000000195,
          "durationTicks": 60,
          "midi": 67,
          "name": "G4",
          "ticks": 6540,
          "time": 22.7083515,
          "velocity": 0.5354330708661418
        },
        {
          "duration": 0.2083334999999984,
          "durationTicks": 60,
          "midi": 70,
          "name": "A#4",
          "ticks": 6600,
          "time": 22.916685,
          "velocity": 0.5354330708661418
        },
        {
          "duration": 0.2083334999999984,
          "durationTicks": 60,
          "midi": 73,
          "name": "C#5",
          "ticks": 6600,
          "time": 22.916685,
          "velocity": 0.5354330708661418
        },
        {
          "duration": 0.20833350000000195,
          "durationTicks": 60,
          "midi": 73,
          "name": "C#5",
          "ticks": 6660,
          "time": 23.1250185,
          "velocity": 0.5354330708661418
        },
        {
          "duration": 0.20833350000000195,
          "durationTicks": 60,
          "midi": 76,
          "name": "E5",
          "ticks": 6660,
          "time": 23.1250185,
          "velocity": 0.5354330708661418
        },
        {
          "duration": 0.2083334999999984,
          "durationTicks": 60,
          "midi": 76,
          "name": "E5",
          "ticks": 6720,
          "time": 23.333352,
          "velocity": 0.5354330708661418
        },
        {
          "duration": 0.2083334999999984,
          "durationTicks": 60,
          "midi": 81,
          "name": "A5",
          "ticks": 6720,
          "time": 23.333352,
          "velocity": 0.5354330708661418
        },
        {
          "duration": 0.20833350000000195,
          "durationTicks": 60,
          "midi": 81,
          "name": "A5",
          "ticks": 6780,
          "time": 23.5416855,
          "velocity": 0.5354330708661418
        },
        {
          "duration": 0.20833350000000195,
          "durationTicks": 60,
          "midi": 85,
          "name": "C#6",
          "ticks": 6780,
          "time": 23.5416855,
          "velocity": 0.5354330708661418
        },
        {
          "duration": 0.2083334999999984,
          "durationTicks": 60,
          "midi": 82,
          "name": "A#5",
          "ticks": 6840,
          "time": 23.750019,
          "velocity": 0.5354330708661418
        },
        {
          "duration": 0.2083334999999984,
          "durationTicks": 60,
          "midi": 86,
          "name": "D6",
          "ticks": 6840,
          "time": 23.750019,
          "velocity": 0.5354330708661418
        },
        {
          "duration": 0.20833350000000195,
          "durationTicks": 60,
          "midi": 78,
          "name": "F#5",
          "ticks": 6900,
          "time": 23.9583525,
          "velocity": 0.5354330708661418
        },
        {
          "duration": 0.20833350000000195,
          "durationTicks": 60,
          "midi": 81,
          "name": "A5",
          "ticks": 6900,
          "time": 23.9583525,
          "velocity": 0.5354330708661418
        },
        {
          "duration": 0.2083334999999984,
          "durationTicks": 60,
          "midi": 70,
          "name": "A#4",
          "ticks": 6960,
          "time": 24.166686000000002,
          "velocity": 0.5354330708661418
        },
        {
          "duration": 0.2083334999999984,
          "durationTicks": 60,
          "midi": 79,
          "name": "G5",
          "ticks": 6960,
          "time": 24.166686000000002,
          "velocity": 0.5354330708661418
        },
        {
          "duration": 0.05208337499999871,
          "durationTicks": 15,
          "midi": 69,
          "name": "A4",
          "ticks": 7020,
          "time": 24.3750195,
          "velocity": 0.5354330708661418
        },
        {
          "duration": 0.05208337499999871,
          "durationTicks": 15,
          "midi": 78,
          "name": "F#5",
          "ticks": 7020,
          "time": 24.3750195,
          "velocity": 0.5354330708661418
        },
        {
          "duration": 0.05208337500000226,
          "durationTicks": 15,
          "midi": 70,
          "name": "A#4",
          "ticks": 7035,
          "time": 24.427102875,
          "velocity": 0.5354330708661418
        },
        {
          "duration": 0.05208337500000226,
          "durationTicks": 15,
          "midi": 79,
          "name": "G5",
          "ticks": 7035,
          "time": 24.427102875,
          "velocity": 0.5354330708661418
        },
        {
          "duration": 0.05208337499999871,
          "durationTicks": 15,
          "midi": 69,
          "name": "A4",
          "ticks": 7050,
          "time": 24.47918625,
          "velocity": 0.5354330708661418
        },
        {
          "duration": 0.05208337499999871,
          "durationTicks": 15,
          "midi": 78,
          "name": "F#5",
          "ticks": 7050,
          "time": 24.47918625,
          "velocity": 0.5354330708661418
        },
        {
          "duration": 0.05208337499999871,
          "durationTicks": 15,
          "midi": 70,
          "name": "A#4",
          "ticks": 7065,
          "time": 24.531269625,
          "velocity": 0.5354330708661418
        },
        {
          "duration": 0.05208337499999871,
          "durationTicks": 15,
          "midi": 79,
          "name": "G5",
          "ticks": 7065,
          "time": 24.531269625,
          "velocity": 0.5354330708661418
        },
        {
          "duration": 0.41666700000000034,
          "durationTicks": 120,
          "midi": 69,
          "name": "A4",
          "ticks": 7080,
          "time": 24.583353,
          "velocity": 0.5354330708661418
        },
        {
          "duration": 0.41666700000000034,
          "durationTicks": 120,
          "midi": 78,
          "name": "F#5",
          "ticks": 7080,
          "time": 24.583353,
          "velocity": 0.5354330708661418
        },
        {
          "duration": 0.2083334999999984,
          "durationTicks": 60,
          "midi": 82,
          "name": "A#5",
          "ticks": 7260,
          "time": 25.2083535,
          "velocity": 0.5354330708661418
        },
        {
          "duration": 0.2083334999999984,
          "durationTicks": 60,
          "midi": 74,
          "name": "D5",
          "ticks": 7260,
          "time": 25.2083535,
          "velocity": 0.5354330708661418
        },
        {
          "duration": 0.20833350000000195,
          "durationTicks": 60,
          "midi": 69,
          "name": "A4",
          "ticks": 7320,
          "time": 25.416687,
          "velocity": 0.5354330708661418
        },
        {
          "duration": 0.20833350000000195,
          "durationTicks": 60,
          "midi": 72,
          "name": "C5",
          "ticks": 7320,
          "time": 25.416687,
          "velocity": 0.5354330708661418
        },
        {
          "duration": 0.2083334999999984,
          "durationTicks": 60,
          "midi": 74,
          "name": "D5",
          "ticks": 7380,
          "time": 25.6250205,
          "velocity": 0.5354330708661418
        },
        {
          "duration": 0.2083334999999984,
          "durationTicks": 60,
          "midi": 81,
          "name": "A5",
          "ticks": 7380,
          "time": 25.6250205,
          "velocity": 0.5354330708661418
        },
        {
          "duration": 0.20833350000000195,
          "durationTicks": 60,
          "midi": 67,
          "name": "G4",
          "ticks": 7440,
          "time": 25.833354,
          "velocity": 0.5354330708661418
        },
        {
          "duration": 0.20833350000000195,
          "durationTicks": 60,
          "midi": 70,
          "name": "A#4",
          "ticks": 7440,
          "time": 25.833354,
          "velocity": 0.5354330708661418
        },
        {
          "duration": 0.2083334999999984,
          "durationTicks": 60,
          "midi": 70,
          "name": "A#4",
          "ticks": 7500,
          "time": 26.041687500000002,
          "velocity": 0.5354330708661418
        },
        {
          "duration": 0.2083334999999984,
          "durationTicks": 60,
          "midi": 79,
          "name": "G5",
          "ticks": 7500,
          "time": 26.041687500000002,
          "velocity": 0.5354330708661418
        },
        {
          "duration": 0.2083334999999984,
          "durationTicks": 60,
          "midi": 74,
          "name": "D5",
          "ticks": 7620,
          "time": 26.458354500000002,
          "velocity": 0.5354330708661418
        },
        {
          "duration": 0.2083334999999984,
          "durationTicks": 60,
          "midi": 82,
          "name": "A#5",
          "ticks": 7620,
          "time": 26.458354500000002,
          "velocity": 0.5354330708661418
        },
        {
          "duration": 0.2083334999999984,
          "durationTicks": 60,
          "midi": 69,
          "name": "A4",
          "ticks": 7680,
          "time": 26.666688,
          "velocity": 0.5354330708661418
        },
        {
          "duration": 0.2083334999999984,
          "durationTicks": 60,
          "midi": 72,
          "name": "C5",
          "ticks": 7680,
          "time": 26.666688,
          "velocity": 0.5354330708661418
        },
        {
          "duration": 0.20833350000000195,
          "durationTicks": 60,
          "midi": 74,
          "name": "D5",
          "ticks": 7740,
          "time": 26.8750215,
          "velocity": 0.5354330708661418
        },
        {
          "duration": 0.20833350000000195,
          "durationTicks": 60,
          "midi": 81,
          "name": "A5",
          "ticks": 7740,
          "time": 26.8750215,
          "velocity": 0.5354330708661418
        },
        {
          "duration": 0.31250024999999937,
          "durationTicks": 90,
          "midi": 67,
          "name": "G4",
          "ticks": 7800,
          "time": 27.083355,
          "velocity": 0.5354330708661418
        },
        {
          "duration": 0.31250024999999937,
          "durationTicks": 90,
          "midi": 70,
          "name": "A#4",
          "ticks": 7800,
          "time": 27.083355,
          "velocity": 0.5354330708661418
        },
        {
          "duration": 0.20833350000000195,
          "durationTicks": 60,
          "midi": 67,
          "name": "G4",
          "ticks": 7980,
          "time": 27.7083555,
          "velocity": 0.5354330708661418
        },
        {
          "duration": 0.20833350000000195,
          "durationTicks": 60,
          "midi": 70,
          "name": "A#4",
          "ticks": 7980,
          "time": 27.7083555,
          "velocity": 0.5354330708661418
        },
        {
          "duration": 0.2083334999999984,
          "durationTicks": 60,
          "midi": 70,
          "name": "A#4",
          "ticks": 8040,
          "time": 27.916689,
          "velocity": 0.5354330708661418
        },
        {
          "duration": 0.2083334999999984,
          "durationTicks": 60,
          "midi": 73,
          "name": "C#5",
          "ticks": 8040,
          "time": 27.916689,
          "velocity": 0.5354330708661418
        },
        {
          "duration": 0.20833350000000195,
          "durationTicks": 60,
          "midi": 73,
          "name": "C#5",
          "ticks": 8100,
          "time": 28.1250225,
          "velocity": 0.5354330708661418
        },
        {
          "duration": 0.20833350000000195,
          "durationTicks": 60,
          "midi": 76,
          "name": "E5",
          "ticks": 8100,
          "time": 28.1250225,
          "velocity": 0.5354330708661418
        },
        {
          "duration": 0.2083334999999984,
          "durationTicks": 60,
          "midi": 70,
          "name": "A#4",
          "ticks": 8160,
          "time": 28.333356000000002,
          "velocity": 0.5354330708661418
        },
        {
          "duration": 0.2083334999999984,
          "durationTicks": 60,
          "midi": 73,
          "name": "C#5",
          "ticks": 8160,
          "time": 28.333356000000002,
          "velocity": 0.5354330708661418
        },
        {
          "duration": 0.20833350000000195,
          "durationTicks": 60,
          "midi": 67,
          "name": "G4",
          "ticks": 8220,
          "time": 28.5416895,
          "velocity": 0.5354330708661418
        },
        {
          "duration": 0.20833350000000195,
          "durationTicks": 60,
          "midi": 70,
          "name": "A#4",
          "ticks": 8220,
          "time": 28.5416895,
          "velocity": 0.5354330708661418
        },
        {
          "duration": 0.6250004999999987,
          "durationTicks": 180,
          "midi": 66,
          "name": "F#4",
          "ticks": 8280,
          "time": 28.750023000000002,
          "velocity": 0.5354330708661418
        },
        {
          "duration": 0.6250004999999987,
          "durationTicks": 180,
          "midi": 69,
          "name": "A4",
          "ticks": 8280,
          "time": 28.750023000000002,
          "velocity": 0.5354330708661418
        },
        {
          "duration": 0.6250004999999987,
          "durationTicks": 180,
          "midi": 66,
          "name": "F#4",
          "ticks": 8460,
          "time": 29.3750235,
          "velocity": 0.5354330708661418
        },
        {
          "duration": 0.6250004999999987,
          "durationTicks": 180,
          "midi": 74,
          "name": "D5",
          "ticks": 8460,
          "time": 29.3750235,
          "velocity": 0.5354330708661418
        },
        {
          "duration": 0.2083334999999984,
          "durationTicks": 60,
          "midi": 74,
          "name": "D5",
          "ticks": 8700,
          "time": 30.2083575,
          "velocity": 0.5354330708661418
        },
        {
          "duration": 0.2083334999999984,
          "durationTicks": 60,
          "midi": 82,
          "name": "A#5",
          "ticks": 8700,
          "time": 30.2083575,
          "velocity": 0.5354330708661418
        },
        {
          "duration": 0.20833350000000195,
          "durationTicks": 60,
          "midi": 69,
          "name": "A4",
          "ticks": 8760,
          "time": 30.416691,
          "velocity": 0.5354330708661418
        },
        {
          "duration": 0.20833350000000195,
          "durationTicks": 60,
          "midi": 72,
          "name": "C5",
          "ticks": 8760,
          "time": 30.416691,
          "velocity": 0.5354330708661418
        },
        {
          "duration": 0.2083334999999984,
          "durationTicks": 60,
          "midi": 72,
          "name": "C5",
          "ticks": 8820,
          "time": 30.625024500000002,
          "velocity": 0.5354330708661418
        },
        {
          "duration": 0.2083334999999984,
          "durationTicks": 60,
          "midi": 81,
          "name": "A5",
          "ticks": 8820,
          "time": 30.625024500000002,
          "velocity": 0.5354330708661418
        },
        {
          "duration": 0.20833350000000195,
          "durationTicks": 60,
          "midi": 67,
          "name": "G4",
          "ticks": 8880,
          "time": 30.833358,
          "velocity": 0.5354330708661418
        },
        {
          "duration": 0.20833350000000195,
          "durationTicks": 60,
          "midi": 70,
          "name": "A#4",
          "ticks": 8880,
          "time": 30.833358,
          "velocity": 0.5354330708661418
        },
        {
          "duration": 0.2083334999999984,
          "durationTicks": 60,
          "midi": 70,
          "name": "A#4",
          "ticks": 8940,
          "time": 31.041691500000002,
          "velocity": 0.5354330708661418
        },
        {
          "duration": 0.2083334999999984,
          "durationTicks": 60,
          "midi": 79,
          "name": "G5",
          "ticks": 8940,
          "time": 31.041691500000002,
          "velocity": 0.5354330708661418
        },
        {
          "duration": 0.20833350000000195,
          "durationTicks": 60,
          "midi": 74,
          "name": "D5",
          "ticks": 9060,
          "time": 31.4583585,
          "velocity": 0.5354330708661418
        },
        {
          "duration": 0.20833350000000195,
          "durationTicks": 60,
          "midi": 82,
          "name": "A#5",
          "ticks": 9060,
          "time": 31.4583585,
          "velocity": 0.5354330708661418
        },
        {
          "duration": 0.2083334999999984,
          "durationTicks": 60,
          "midi": 69,
          "name": "A4",
          "ticks": 9120,
          "time": 31.666692,
          "velocity": 0.5354330708661418
        },
        {
          "duration": 0.2083334999999984,
          "durationTicks": 60,
          "midi": 72,
          "name": "C5",
          "ticks": 9120,
          "time": 31.666692,
          "velocity": 0.5354330708661418
        },
        {
          "duration": 0.20833350000000195,
          "durationTicks": 60,
          "midi": 74,
          "name": "D5",
          "ticks": 9180,
          "time": 31.8750255,
          "velocity": 0.5354330708661418
        },
        {
          "duration": 0.20833350000000195,
          "durationTicks": 60,
          "midi": 81,
          "name": "A5",
          "ticks": 9180,
          "time": 31.8750255,
          "velocity": 0.5354330708661418
        },
        {
          "duration": 0.31250024999999937,
          "durationTicks": 90,
          "midi": 67,
          "name": "G4",
          "ticks": 9240,
          "time": 32.083359,
          "velocity": 0.5354330708661418
        },
        {
          "duration": 0.31250024999999937,
          "durationTicks": 90,
          "midi": 70,
          "name": "A#4",
          "ticks": 9240,
          "time": 32.083359,
          "velocity": 0.5354330708661418
        },
        {
          "duration": 0.20833350000000195,
          "durationTicks": 60,
          "midi": 70,
          "name": "A#4",
          "ticks": 9420,
          "time": 32.7083595,
          "velocity": 0.5354330708661418
        },
        {
          "duration": 0.20833350000000195,
          "durationTicks": 60,
          "midi": 67,
          "name": "G4",
          "ticks": 9420,
          "time": 32.7083595,
          "velocity": 0.5354330708661418
        },
        {
          "duration": 0.20833350000000195,
          "durationTicks": 60,
          "midi": 70,
          "name": "A#4",
          "ticks": 9480,
          "time": 32.916693,
          "velocity": 0.5354330708661418
        },
        {
          "duration": 0.20833350000000195,
          "durationTicks": 60,
          "midi": 73,
          "name": "C#5",
          "ticks": 9480,
          "time": 32.916693,
          "velocity": 0.5354330708661418
        },
        {
          "duration": 0.20833349999999484,
          "durationTicks": 60,
          "midi": 73,
          "name": "C#5",
          "ticks": 9540,
          "time": 33.125026500000004,
          "velocity": 0.5354330708661418
        },
        {
          "duration": 0.20833349999999484,
          "durationTicks": 60,
          "midi": 76,
          "name": "E5",
          "ticks": 9540,
          "time": 33.125026500000004,
          "velocity": 0.5354330708661418
        },
        {
          "duration": 0.20833350000000195,
          "durationTicks": 60,
          "midi": 76,
          "name": "E5",
          "ticks": 9600,
          "time": 33.33336,
          "velocity": 0.5354330708661418
        },
        {
          "duration": 0.20833350000000195,
          "durationTicks": 60,
          "midi": 81,
          "name": "A5",
          "ticks": 9600,
          "time": 33.33336,
          "velocity": 0.5354330708661418
        },
        {
          "duration": 0.20833350000000195,
          "durationTicks": 60,
          "midi": 81,
          "name": "A5",
          "ticks": 9660,
          "time": 33.5416935,
          "velocity": 0.5354330708661418
        },
        {
          "duration": 0.20833350000000195,
          "durationTicks": 60,
          "midi": 85,
          "name": "C#6",
          "ticks": 9660,
          "time": 33.5416935,
          "velocity": 0.5354330708661418
        },
        {
          "duration": 0.20833349999999484,
          "durationTicks": 60,
          "midi": 82,
          "name": "A#5",
          "ticks": 9720,
          "time": 33.750027,
          "velocity": 0.5354330708661418
        },
        {
          "duration": 0.20833349999999484,
          "durationTicks": 60,
          "midi": 86,
          "name": "D6",
          "ticks": 9720,
          "time": 33.750027,
          "velocity": 0.5354330708661418
        },
        {
          "duration": 0.20833350000000195,
          "durationTicks": 60,
          "midi": 78,
          "name": "F#5",
          "ticks": 9780,
          "time": 33.9583605,
          "velocity": 0.5354330708661418
        },
        {
          "duration": 0.20833350000000195,
          "durationTicks": 60,
          "midi": 81,
          "name": "A5",
          "ticks": 9780,
          "time": 33.9583605,
          "velocity": 0.5354330708661418
        },
        {
          "duration": 0.20833350000000195,
          "durationTicks": 60,
          "midi": 70,
          "name": "A#4",
          "ticks": 9840,
          "time": 34.166694,
          "velocity": 0.5354330708661418
        },
        {
          "duration": 0.20833350000000195,
          "durationTicks": 60,
          "midi": 79,
          "name": "G5",
          "ticks": 9840,
          "time": 34.166694,
          "velocity": 0.5354330708661418
        },
        {
          "duration": 0.05208337500000226,
          "durationTicks": 15,
          "midi": 69,
          "name": "A4",
          "ticks": 9900,
          "time": 34.3750275,
          "velocity": 0.5354330708661418
        },
        {
          "duration": 0.05208337500000226,
          "durationTicks": 15,
          "midi": 78,
          "name": "F#5",
          "ticks": 9900,
          "time": 34.3750275,
          "velocity": 0.5354330708661418
        },
        {
          "duration": 0.05208337499999516,
          "durationTicks": 15,
          "midi": 70,
          "name": "A#4",
          "ticks": 9915,
          "time": 34.427110875000004,
          "velocity": 0.5354330708661418
        },
        {
          "duration": 0.05208337499999516,
          "durationTicks": 15,
          "midi": 79,
          "name": "G5",
          "ticks": 9915,
          "time": 34.427110875000004,
          "velocity": 0.5354330708661418
        },
        {
          "duration": 0.05208337500000226,
          "durationTicks": 15,
          "midi": 69,
          "name": "A4",
          "ticks": 9930,
          "time": 34.47919425,
          "velocity": 0.5354330708661418
        },
        {
          "duration": 0.05208337500000226,
          "durationTicks": 15,
          "midi": 78,
          "name": "F#5",
          "ticks": 9930,
          "time": 34.47919425,
          "velocity": 0.5354330708661418
        },
        {
          "duration": 0.05208337500000226,
          "durationTicks": 15,
          "midi": 70,
          "name": "A#4",
          "ticks": 9945,
          "time": 34.531277625,
          "velocity": 0.5354330708661418
        },
        {
          "duration": 0.05208337500000226,
          "durationTicks": 15,
          "midi": 79,
          "name": "G5",
          "ticks": 9945,
          "time": 34.531277625,
          "velocity": 0.5354330708661418
        },
        {
          "duration": 0.4166669999999968,
          "durationTicks": 120,
          "midi": 69,
          "name": "A4",
          "ticks": 9960,
          "time": 34.583361000000004,
          "velocity": 0.5354330708661418
        },
        {
          "duration": 0.4166669999999968,
          "durationTicks": 120,
          "midi": 78,
          "name": "F#5",
          "ticks": 9960,
          "time": 34.583361000000004,
          "velocity": 0.5354330708661418
        },
        {
          "duration": 0.20833350000000195,
          "durationTicks": 60,
          "midi": 82,
          "name": "A#5",
          "ticks": 10140,
          "time": 35.2083615,
          "velocity": 0.5354330708661418
        },
        {
          "duration": 0.20833350000000195,
          "durationTicks": 60,
          "midi": 74,
          "name": "D5",
          "ticks": 10140,
          "time": 35.2083615,
          "velocity": 0.5354330708661418
        },
        {
          "duration": 0.20833349999999484,
          "durationTicks": 60,
          "midi": 69,
          "name": "A4",
          "ticks": 10200,
          "time": 35.416695000000004,
          "velocity": 0.5354330708661418
        },
        {
          "duration": 0.20833349999999484,
          "durationTicks": 60,
          "midi": 72,
          "name": "C5",
          "ticks": 10200,
          "time": 35.416695000000004,
          "velocity": 0.5354330708661418
        },
        {
          "duration": 0.20833350000000195,
          "durationTicks": 60,
          "midi": 74,
          "name": "D5",
          "ticks": 10260,
          "time": 35.6250285,
          "velocity": 0.5354330708661418
        },
        {
          "duration": 0.20833350000000195,
          "durationTicks": 60,
          "midi": 81,
          "name": "A5",
          "ticks": 10260,
          "time": 35.6250285,
          "velocity": 0.5354330708661418
        },
        {
          "duration": 0.20833350000000195,
          "durationTicks": 60,
          "midi": 67,
          "name": "G4",
          "ticks": 10320,
          "time": 35.833362,
          "velocity": 0.5354330708661418
        },
        {
          "duration": 0.20833350000000195,
          "durationTicks": 60,
          "midi": 70,
          "name": "A#4",
          "ticks": 10320,
          "time": 35.833362,
          "velocity": 0.5354330708661418
        },
        {
          "duration": 0.20833349999999484,
          "durationTicks": 60,
          "midi": 70,
          "name": "A#4",
          "ticks": 10380,
          "time": 36.0416955,
          "velocity": 0.5354330708661418
        },
        {
          "duration": 0.20833349999999484,
          "durationTicks": 60,
          "midi": 79,
          "name": "G5",
          "ticks": 10380,
          "time": 36.0416955,
          "velocity": 0.5354330708661418
        },
        {
          "duration": 0.20833350000000195,
          "durationTicks": 60,
          "midi": 74,
          "name": "D5",
          "ticks": 10500,
          "time": 36.4583625,
          "velocity": 0.5354330708661418
        },
        {
          "duration": 0.20833350000000195,
          "durationTicks": 60,
          "midi": 82,
          "name": "A#5",
          "ticks": 10500,
          "time": 36.4583625,
          "velocity": 0.5354330708661418
        },
        {
          "duration": 0.20833350000000195,
          "durationTicks": 60,
          "midi": 69,
          "name": "A4",
          "ticks": 10560,
          "time": 36.666696,
          "velocity": 0.5354330708661418
        },
        {
          "duration": 0.20833350000000195,
          "durationTicks": 60,
          "midi": 72,
          "name": "C5",
          "ticks": 10560,
          "time": 36.666696,
          "velocity": 0.5354330708661418
        },
        {
          "duration": 0.20833349999999484,
          "durationTicks": 60,
          "midi": 74,
          "name": "D5",
          "ticks": 10620,
          "time": 36.875029500000004,
          "velocity": 0.5354330708661418
        },
        {
          "duration": 0.20833349999999484,
          "durationTicks": 60,
          "midi": 81,
          "name": "A5",
          "ticks": 10620,
          "time": 36.875029500000004,
          "velocity": 0.5354330708661418
        },
        {
          "duration": 0.31250024999999937,
          "durationTicks": 90,
          "midi": 67,
          "name": "G4",
          "ticks": 10680,
          "time": 37.083363,
          "velocity": 0.5354330708661418
        },
        {
          "duration": 0.31250024999999937,
          "durationTicks": 90,
          "midi": 70,
          "name": "A#4",
          "ticks": 10680,
          "time": 37.083363,
          "velocity": 0.5354330708661418
        },
        {
          "duration": 0.20833349999999484,
          "durationTicks": 60,
          "midi": 67,
          "name": "G4",
          "ticks": 10860,
          "time": 37.708363500000004,
          "velocity": 0.5354330708661418
        },
        {
          "duration": 0.20833349999999484,
          "durationTicks": 60,
          "midi": 70,
          "name": "A#4",
          "ticks": 10860,
          "time": 37.708363500000004,
          "velocity": 0.5354330708661418
        },
        {
          "duration": 0.20833350000000195,
          "durationTicks": 60,
          "midi": 70,
          "name": "A#4",
          "ticks": 10920,
          "time": 37.916697,
          "velocity": 0.5354330708661418
        },
        {
          "duration": 0.20833350000000195,
          "durationTicks": 60,
          "midi": 73,
          "name": "C#5",
          "ticks": 10920,
          "time": 37.916697,
          "velocity": 0.5354330708661418
        },
        {
          "duration": 0.20833350000000195,
          "durationTicks": 60,
          "midi": 73,
          "name": "C#5",
          "ticks": 10980,
          "time": 38.1250305,
          "velocity": 0.5354330708661418
        },
        {
          "duration": 0.20833350000000195,
          "durationTicks": 60,
          "midi": 76,
          "name": "E5",
          "ticks": 10980,
          "time": 38.1250305,
          "velocity": 0.5354330708661418
        },
        {
          "duration": 0.20833349999999484,
          "durationTicks": 60,
          "midi": 70,
          "name": "A#4",
          "ticks": 11040,
          "time": 38.333364,
          "velocity": 0.5354330708661418
        },
        {
          "duration": 0.20833349999999484,
          "durationTicks": 60,
          "midi": 73,
          "name": "C#5",
          "ticks": 11040,
          "time": 38.333364,
          "velocity": 0.5354330708661418
        },
        {
          "duration": 0.20833350000000195,
          "durationTicks": 60,
          "midi": 67,
          "name": "G4",
          "ticks": 11100,
          "time": 38.5416975,
          "velocity": 0.5354330708661418
        },
        {
          "duration": 0.20833350000000195,
          "durationTicks": 60,
          "midi": 70,
          "name": "A#4",
          "ticks": 11100,
          "time": 38.5416975,
          "velocity": 0.5354330708661418
        },
        {
          "duration": 0.6250004999999987,
          "durationTicks": 180,
          "midi": 66,
          "name": "F#4",
          "ticks": 11160,
          "time": 38.750031,
          "velocity": 0.5354330708661418
        },
        {
          "duration": 0.6250004999999987,
          "durationTicks": 180,
          "midi": 69,
          "name": "A4",
          "ticks": 11160,
          "time": 38.750031,
          "velocity": 0.5354330708661418
        },
        {
          "duration": 0.6250005000000058,
          "durationTicks": 180,
          "midi": 66,
          "name": "F#4",
          "ticks": 11340,
          "time": 39.3750315,
          "velocity": 0.5354330708661418
        },
        {
          "duration": 0.6250005000000058,
          "durationTicks": 180,
          "midi": 74,
          "name": "D5",
          "ticks": 11340,
          "time": 39.3750315,
          "velocity": 0.5354330708661418
        },
        {
          "duration": 0.8333339999999936,
          "durationTicks": 240,
          "midi": 58,
          "name": "A#3",
          "ticks": 11520,
          "time": 40.000032000000004,
          "velocity": 0.5354330708661418
        },
        {
          "duration": 0.8333339999999936,
          "durationTicks": 240,
          "midi": 62,
          "name": "D4",
          "ticks": 11520,
          "time": 40.000032000000004,
          "velocity": 0.5354330708661418
        },
        {
          "duration": 0.8333339999999936,
          "durationTicks": 240,
          "midi": 55,
          "name": "G3",
          "ticks": 11520,
          "time": 40.000032000000004,
          "velocity": 0.5354330708661418
        },
        {
          "duration": 0.8333340000000007,
          "durationTicks": 240,
          "midi": 57,
          "name": "A3",
          "ticks": 11760,
          "time": 40.833366,
          "velocity": 0.5354330708661418
        },
        {
          "duration": 0.8333340000000007,
          "durationTicks": 240,
          "midi": 53,
          "name": "F3",
          "ticks": 11760,
          "time": 40.833366,
          "velocity": 0.5354330708661418
        },
        {
          "duration": 0.8333340000000007,
          "durationTicks": 240,
          "midi": 60,
          "name": "C4",
          "ticks": 11760,
          "time": 40.833366,
          "velocity": 0.5354330708661418
        },
        {
          "duration": 0.8333340000000007,
          "durationTicks": 240,
          "midi": 55,
          "name": "G3",
          "ticks": 12000,
          "time": 41.6667,
          "velocity": 0.5354330708661418
        },
        {
          "duration": 0.8333340000000007,
          "durationTicks": 240,
          "midi": 51,
          "name": "D#3",
          "ticks": 12000,
          "time": 41.6667,
          "velocity": 0.5354330708661418
        },
        {
          "duration": 0.8333340000000007,
          "durationTicks": 240,
          "midi": 58,
          "name": "A#3",
          "ticks": 12000,
          "time": 41.6667,
          "velocity": 0.5354330708661418
        },
        {
          "duration": 0.8333340000000007,
          "durationTicks": 240,
          "midi": 57,
          "name": "A3",
          "ticks": 12240,
          "time": 42.500034,
          "velocity": 0.5354330708661418
        },
        {
          "duration": 0.8333340000000007,
          "durationTicks": 240,
          "midi": 53,
          "name": "F3",
          "ticks": 12240,
          "time": 42.500034,
          "velocity": 0.5354330708661418
        },
        {
          "duration": 0.8333340000000007,
          "durationTicks": 240,
          "midi": 60,
          "name": "C4",
          "ticks": 12240,
          "time": 42.500034,
          "velocity": 0.5354330708661418
        },
        {
          "duration": 0.8333340000000007,
          "durationTicks": 240,
          "midi": 51,
          "name": "D#3",
          "ticks": 12480,
          "time": 43.333368,
          "velocity": 0.5354330708661418
        },
        {
          "duration": 0.8333340000000007,
          "durationTicks": 240,
          "midi": 48,
          "name": "C3",
          "ticks": 12480,
          "time": 43.333368,
          "velocity": 0.5354330708661418
        },
        {
          "duration": 0.8333340000000007,
          "durationTicks": 240,
          "midi": 55,
          "name": "G3",
          "ticks": 12480,
          "time": 43.333368,
          "velocity": 0.5354330708661418
        },
        {
          "duration": 0.8333340000000007,
          "durationTicks": 240,
          "midi": 53,
          "name": "F3",
          "ticks": 12720,
          "time": 44.166702,
          "velocity": 0.5354330708661418
        },
        {
          "duration": 0.8333340000000007,
          "durationTicks": 240,
          "midi": 50,
          "name": "D3",
          "ticks": 12720,
          "time": 44.166702,
          "velocity": 0.5354330708661418
        },
        {
          "duration": 0.8333340000000007,
          "durationTicks": 240,
          "midi": 57,
          "name": "A3",
          "ticks": 12720,
          "time": 44.166702,
          "velocity": 0.5354330708661418
        },
        {
          "duration": 0.8333340000000007,
          "durationTicks": 240,
          "midi": 55,
          "name": "G3",
          "ticks": 12960,
          "time": 45.000036,
          "velocity": 0.5354330708661418
        },
        {
          "duration": 0.8333340000000007,
          "durationTicks": 240,
          "midi": 51,
          "name": "D#3",
          "ticks": 12960,
          "time": 45.000036,
          "velocity": 0.5354330708661418
        },
        {
          "duration": 0.8333340000000007,
          "durationTicks": 240,
          "midi": 58,
          "name": "A#3",
          "ticks": 12960,
          "time": 45.000036,
          "velocity": 0.5354330708661418
        },
        {
          "duration": 0.8333340000000007,
          "durationTicks": 240,
          "midi": 57,
          "name": "A3",
          "ticks": 13200,
          "time": 45.83337,
          "velocity": 0.5354330708661418
        },
        {
          "duration": 0.8333340000000007,
          "durationTicks": 240,
          "midi": 53,
          "name": "F3",
          "ticks": 13200,
          "time": 45.83337,
          "velocity": 0.5354330708661418
        },
        {
          "duration": 0.8333340000000007,
          "durationTicks": 240,
          "midi": 60,
          "name": "C4",
          "ticks": 13200,
          "time": 45.83337,
          "velocity": 0.5354330708661418
        },
        {
          "duration": 0.8333340000000007,
          "durationTicks": 240,
          "midi": 58,
          "name": "A#3",
          "ticks": 13440,
          "time": 46.666704,
          "velocity": 0.5354330708661418
        },
        {
          "duration": 0.8333340000000007,
          "durationTicks": 240,
          "midi": 55,
          "name": "G3",
          "ticks": 13440,
          "time": 46.666704,
          "velocity": 0.5354330708661418
        },
        {
          "duration": 0.8333340000000007,
          "durationTicks": 240,
          "midi": 62,
          "name": "D4",
          "ticks": 13440,
          "time": 46.666704,
          "velocity": 0.5354330708661418
        },
        {
          "duration": 0.8333340000000007,
          "durationTicks": 240,
          "midi": 57,
          "name": "A3",
          "ticks": 13680,
          "time": 47.500038,
          "velocity": 0.5354330708661418
        },
        {
          "duration": 0.8333340000000007,
          "durationTicks": 240,
          "midi": 53,
          "name": "F3",
          "ticks": 13680,
          "time": 47.500038,
          "velocity": 0.5354330708661418
        },
        {
          "duration": 0.8333340000000007,
          "durationTicks": 240,
          "midi": 60,
          "name": "C4",
          "ticks": 13680,
          "time": 47.500038,
          "velocity": 0.5354330708661418
        },
        {
          "duration": 0.8333339999999936,
          "durationTicks": 240,
          "midi": 55,
          "name": "G3",
          "ticks": 13920,
          "time": 48.333372000000004,
          "velocity": 0.5354330708661418
        },
        {
          "duration": 0.8333339999999936,
          "durationTicks": 240,
          "midi": 51,
          "name": "D#3",
          "ticks": 13920,
          "time": 48.333372000000004,
          "velocity": 0.5354330708661418
        },
        {
          "duration": 0.8333339999999936,
          "durationTicks": 240,
          "midi": 58,
          "name": "A#3",
          "ticks": 13920,
          "time": 48.333372000000004,
          "velocity": 0.5354330708661418
        },
        {
          "duration": 0.8333340000000007,
          "durationTicks": 240,
          "midi": 57,
          "name": "A3",
          "ticks": 14160,
          "time": 49.166706,
          "velocity": 0.5354330708661418
        },
        {
          "duration": 0.8333340000000007,
          "durationTicks": 240,
          "midi": 53,
          "name": "F3",
          "ticks": 14160,
          "time": 49.166706,
          "velocity": 0.5354330708661418
        },
        {
          "duration": 0.8333340000000007,
          "durationTicks": 240,
          "midi": 60,
          "name": "C4",
          "ticks": 14160,
          "time": 49.166706,
          "velocity": 0.5354330708661418
        },
        {
          "duration": 0.8333340000000007,
          "durationTicks": 240,
          "midi": 51,
          "name": "D#3",
          "ticks": 14400,
          "time": 50.00004,
          "velocity": 0.5354330708661418
        },
        {
          "duration": 0.8333340000000007,
          "durationTicks": 240,
          "midi": 48,
          "name": "C3",
          "ticks": 14400,
          "time": 50.00004,
          "velocity": 0.5354330708661418
        },
        {
          "duration": 0.8333340000000007,
          "durationTicks": 240,
          "midi": 55,
          "name": "G3",
          "ticks": 14400,
          "time": 50.00004,
          "velocity": 0.5354330708661418
        },
        {
          "duration": 0.8333340000000007,
          "durationTicks": 240,
          "midi": 53,
          "name": "F3",
          "ticks": 14640,
          "time": 50.833374,
          "velocity": 0.5354330708661418
        },
        {
          "duration": 0.8333340000000007,
          "durationTicks": 240,
          "midi": 57,
          "name": "A3",
          "ticks": 14640,
          "time": 50.833374,
          "velocity": 0.5354330708661418
        },
        {
          "duration": 0.8333340000000007,
          "durationTicks": 240,
          "midi": 50,
          "name": "D3",
          "ticks": 14640,
          "time": 50.833374,
          "velocity": 0.5354330708661418
        },
        {
          "duration": 0.8333340000000007,
          "durationTicks": 240,
          "midi": 55,
          "name": "G3",
          "ticks": 14880,
          "time": 51.666708,
          "velocity": 0.5354330708661418
        },
        {
          "duration": 0.8333340000000007,
          "durationTicks": 240,
          "midi": 51,
          "name": "D#3",
          "ticks": 14880,
          "time": 51.666708,
          "velocity": 0.5354330708661418
        },
        {
          "duration": 0.8333340000000007,
          "durationTicks": 240,
          "midi": 58,
          "name": "A#3",
          "ticks": 14880,
          "time": 51.666708,
          "velocity": 0.5354330708661418
        },
        {
          "duration": 0.8333340000000007,
          "durationTicks": 240,
          "midi": 57,
          "name": "A3",
          "ticks": 15120,
          "time": 52.500042,
          "velocity": 0.5354330708661418
        },
        {
          "duration": 0.8333340000000007,
          "durationTicks": 240,
          "midi": 53,
          "name": "F3",
          "ticks": 15120,
          "time": 52.500042,
          "velocity": 0.5354330708661418
        },
        {
          "duration": 0.8333340000000007,
          "durationTicks": 240,
          "midi": 60,
          "name": "C4",
          "ticks": 15120,
          "time": 52.500042,
          "velocity": 0.5354330708661418
        },
        {
          "duration": 0.8333340000000007,
          "durationTicks": 240,
          "midi": 55,
          "name": "G3",
          "ticks": 15360,
          "time": 53.333376,
          "velocity": 0.5354330708661418
        },
        {
          "duration": 0.8333340000000007,
          "durationTicks": 240,
          "midi": 59,
          "name": "B3",
          "ticks": 15360,
          "time": 53.333376,
          "velocity": 0.5354330708661418
        },
        {
          "duration": 0.8333340000000007,
          "durationTicks": 240,
          "midi": 52,
          "name": "E3",
          "ticks": 15360,
          "time": 53.333376,
          "velocity": 0.5354330708661418
        },
        {
          "duration": 0.8333340000000007,
          "durationTicks": 240,
          "midi": 54,
          "name": "F#3",
          "ticks": 15600,
          "time": 54.16671,
          "velocity": 0.5354330708661418
        },
        {
          "duration": 0.8333340000000007,
          "durationTicks": 240,
          "midi": 50,
          "name": "D3",
          "ticks": 15600,
          "time": 54.16671,
          "velocity": 0.5354330708661418
        },
        {
          "duration": 0.8333340000000007,
          "durationTicks": 240,
          "midi": 57,
          "name": "A3",
          "ticks": 15600,
          "time": 54.16671,
          "velocity": 0.5354330708661418
        },
        {
          "duration": 0.8333340000000007,
          "durationTicks": 240,
          "midi": 52,
          "name": "E3",
          "ticks": 15840,
          "time": 55.000044,
          "velocity": 0.5354330708661418
        },
        {
          "duration": 0.8333340000000007,
          "durationTicks": 240,
          "midi": 48,
          "name": "C3",
          "ticks": 15840,
          "time": 55.000044,
          "velocity": 0.5354330708661418
        },
        {
          "duration": 0.8333340000000007,
          "durationTicks": 240,
          "midi": 55,
          "name": "G3",
          "ticks": 15840,
          "time": 55.000044,
          "velocity": 0.5354330708661418
        },
        {
          "duration": 0.8333340000000007,
          "durationTicks": 240,
          "midi": 54,
          "name": "F#3",
          "ticks": 16080,
          "time": 55.833378,
          "velocity": 0.5354330708661418
        },
        {
          "duration": 0.8333340000000007,
          "durationTicks": 240,
          "midi": 50,
          "name": "D3",
          "ticks": 16080,
          "time": 55.833378,
          "velocity": 0.5354330708661418
        },
        {
          "duration": 0.8333340000000007,
          "durationTicks": 240,
          "midi": 57,
          "name": "A3",
          "ticks": 16080,
          "time": 55.833378,
          "velocity": 0.5354330708661418
        },
        {
          "duration": 0.8333340000000007,
          "durationTicks": 240,
          "midi": 48,
          "name": "C3",
          "ticks": 16320,
          "time": 56.666712000000004,
          "velocity": 0.5354330708661418
        },
        {
          "duration": 0.8333340000000007,
          "durationTicks": 240,
          "midi": 45,
          "name": "A2",
          "ticks": 16320,
          "time": 56.666712000000004,
          "velocity": 0.5354330708661418
        },
        {
          "duration": 0.8333340000000007,
          "durationTicks": 240,
          "midi": 52,
          "name": "E3",
          "ticks": 16320,
          "time": 56.666712000000004,
          "velocity": 0.5354330708661418
        },
        {
          "duration": 0.8333339999999936,
          "durationTicks": 240,
          "midi": 50,
          "name": "D3",
          "ticks": 16560,
          "time": 57.500046000000005,
          "velocity": 0.5354330708661418
        },
        {
          "duration": 0.8333339999999936,
          "durationTicks": 240,
          "midi": 47,
          "name": "B2",
          "ticks": 16560,
          "time": 57.500046000000005,
          "velocity": 0.5354330708661418
        },
        {
          "duration": 0.8333339999999936,
          "durationTicks": 240,
          "midi": 54,
          "name": "F#3",
          "ticks": 16560,
          "time": 57.500046000000005,
          "velocity": 0.5354330708661418
        },
        {
          "duration": 0.8333340000000007,
          "durationTicks": 240,
          "midi": 52,
          "name": "E3",
          "ticks": 16800,
          "time": 58.33338,
          "velocity": 0.5354330708661418
        },
        {
          "duration": 0.8333340000000007,
          "durationTicks": 240,
          "midi": 48,
          "name": "C3",
          "ticks": 16800,
          "time": 58.33338,
          "velocity": 0.5354330708661418
        },
        {
          "duration": 0.8333340000000007,
          "durationTicks": 240,
          "midi": 55,
          "name": "G3",
          "ticks": 16800,
          "time": 58.33338,
          "velocity": 0.5354330708661418
        },
        {
          "duration": 0.8333340000000007,
          "durationTicks": 240,
          "midi": 54,
          "name": "F#3",
          "ticks": 17040,
          "time": 59.166714,
          "velocity": 0.5354330708661418
        },
        {
          "duration": 0.8333340000000007,
          "durationTicks": 240,
          "midi": 50,
          "name": "D3",
          "ticks": 17040,
          "time": 59.166714,
          "velocity": 0.5354330708661418
        },
        {
          "duration": 0.8333340000000007,
          "durationTicks": 240,
          "midi": 57,
          "name": "A3",
          "ticks": 17040,
          "time": 59.166714,
          "velocity": 0.5354330708661418
        },
        {
          "duration": 0.8333340000000007,
          "durationTicks": 240,
          "midi": 55,
          "name": "G3",
          "ticks": 17280,
          "time": 60.000048,
          "velocity": 0.5354330708661418
        },
        {
          "duration": 0.8333340000000007,
          "durationTicks": 240,
          "midi": 52,
          "name": "E3",
          "ticks": 17280,
          "time": 60.000048,
          "velocity": 0.5354330708661418
        },
        {
          "duration": 0.8333340000000007,
          "durationTicks": 240,
          "midi": 59,
          "name": "B3",
          "ticks": 17280,
          "time": 60.000048,
          "velocity": 0.5354330708661418
        },
        {
          "duration": 0.8333340000000007,
          "durationTicks": 240,
          "midi": 54,
          "name": "F#3",
          "ticks": 17520,
          "time": 60.833382,
          "velocity": 0.5354330708661418
        },
        {
          "duration": 0.8333340000000007,
          "durationTicks": 240,
          "midi": 50,
          "name": "D3",
          "ticks": 17520,
          "time": 60.833382,
          "velocity": 0.5354330708661418
        },
        {
          "duration": 0.8333340000000007,
          "durationTicks": 240,
          "midi": 57,
          "name": "A3",
          "ticks": 17520,
          "time": 60.833382,
          "velocity": 0.5354330708661418
        },
        {
          "duration": 0.8333340000000007,
          "durationTicks": 240,
          "midi": 52,
          "name": "E3",
          "ticks": 17760,
          "time": 61.666716,
          "velocity": 0.5354330708661418
        },
        {
          "duration": 0.8333340000000007,
          "durationTicks": 240,
          "midi": 48,
          "name": "C3",
          "ticks": 17760,
          "time": 61.666716,
          "velocity": 0.5354330708661418
        },
        {
          "duration": 0.8333340000000007,
          "durationTicks": 240,
          "midi": 55,
          "name": "G3",
          "ticks": 17760,
          "time": 61.666716,
          "velocity": 0.5354330708661418
        },
        {
          "duration": 0.8333340000000007,
          "durationTicks": 240,
          "midi": 54,
          "name": "F#3",
          "ticks": 18000,
          "time": 62.50005,
          "velocity": 0.5354330708661418
        },
        {
          "duration": 0.8333340000000007,
          "durationTicks": 240,
          "midi": 50,
          "name": "D3",
          "ticks": 18000,
          "time": 62.50005,
          "velocity": 0.5354330708661418
        },
        {
          "duration": 0.8333340000000007,
          "durationTicks": 240,
          "midi": 57,
          "name": "A3",
          "ticks": 18000,
          "time": 62.50005,
          "velocity": 0.5354330708661418
        },
        {
          "duration": 0.8333340000000007,
          "durationTicks": 240,
          "midi": 48,
          "name": "C3",
          "ticks": 18240,
          "time": 63.333384,
          "velocity": 0.5354330708661418
        },
        {
          "duration": 0.8333340000000007,
          "durationTicks": 240,
          "midi": 45,
          "name": "A2",
          "ticks": 18240,
          "time": 63.333384,
          "velocity": 0.5354330708661418
        },
        {
          "duration": 0.8333340000000007,
          "durationTicks": 240,
          "midi": 52,
          "name": "E3",
          "ticks": 18240,
          "time": 63.333384,
          "velocity": 0.5354330708661418
        },
        {
          "duration": 0.8333339999999936,
          "durationTicks": 240,
          "midi": 50,
          "name": "D3",
          "ticks": 18480,
          "time": 64.166718,
          "velocity": 0.5354330708661418
        },
        {
          "duration": 0.8333339999999936,
          "durationTicks": 240,
          "midi": 54,
          "name": "F#3",
          "ticks": 18480,
          "time": 64.166718,
          "velocity": 0.5354330708661418
        },
        {
          "duration": 0.8333339999999936,
          "durationTicks": 240,
          "midi": 47,
          "name": "B2",
          "ticks": 18480,
          "time": 64.166718,
          "velocity": 0.5354330708661418
        },
        {
          "duration": 0.8333340000000078,
          "durationTicks": 240,
          "midi": 52,
          "name": "E3",
          "ticks": 18720,
          "time": 65.000052,
          "velocity": 0.5354330708661418
        },
        {
          "duration": 0.8333340000000078,
          "durationTicks": 240,
          "midi": 48,
          "name": "C3",
          "ticks": 18720,
          "time": 65.000052,
          "velocity": 0.5354330708661418
        },
        {
          "duration": 0.8333340000000078,
          "durationTicks": 240,
          "midi": 55,
          "name": "G3",
          "ticks": 18720,
          "time": 65.000052,
          "velocity": 0.5354330708661418
        },
        {
          "duration": 0.8333339999999936,
          "durationTicks": 240,
          "midi": 54,
          "name": "F#3",
          "ticks": 18960,
          "time": 65.833386,
          "velocity": 0.5354330708661418
        },
        {
          "duration": 0.8333339999999936,
          "durationTicks": 240,
          "midi": 50,
          "name": "D3",
          "ticks": 18960,
          "time": 65.833386,
          "velocity": 0.5354330708661418
        },
        {
          "duration": 0.8333339999999936,
          "durationTicks": 240,
          "midi": 57,
          "name": "A3",
          "ticks": 18960,
          "time": 65.833386,
          "velocity": 0.5354330708661418
        },
        {
          "duration": 0.8333340000000078,
          "durationTicks": 240,
          "midi": 55,
          "name": "G3",
          "ticks": 19200,
          "time": 66.66672,
          "velocity": 0.5354330708661418
        },
        {
          "duration": 0.8333340000000078,
          "durationTicks": 240,
          "midi": 59,
          "name": "B3",
          "ticks": 19200,
          "time": 66.66672,
          "velocity": 0.5354330708661418
        },
        {
          "duration": 0.8333340000000078,
          "durationTicks": 240,
          "midi": 52,
          "name": "E3",
          "ticks": 19200,
          "time": 66.66672,
          "velocity": 0.5354330708661418
        },
        {
          "duration": 0.8333339999999936,
          "durationTicks": 240,
          "midi": 54,
          "name": "F#3",
          "ticks": 19440,
          "time": 67.500054,
          "velocity": 0.5354330708661418
        },
        {
          "duration": 0.8333339999999936,
          "durationTicks": 240,
          "midi": 50,
          "name": "D3",
          "ticks": 19440,
          "time": 67.500054,
          "velocity": 0.5354330708661418
        },
        {
          "duration": 0.8333339999999936,
          "durationTicks": 240,
          "midi": 57,
          "name": "A3",
          "ticks": 19440,
          "time": 67.500054,
          "velocity": 0.5354330708661418
        },
        {
          "duration": 0.8333340000000078,
          "durationTicks": 240,
          "midi": 52,
          "name": "E3",
          "ticks": 19680,
          "time": 68.333388,
          "velocity": 0.5354330708661418
        },
        {
          "duration": 0.8333340000000078,
          "durationTicks": 240,
          "midi": 48,
          "name": "C3",
          "ticks": 19680,
          "time": 68.333388,
          "velocity": 0.5354330708661418
        },
        {
          "duration": 0.8333340000000078,
          "durationTicks": 240,
          "midi": 55,
          "name": "G3",
          "ticks": 19680,
          "time": 68.333388,
          "velocity": 0.5354330708661418
        },
        {
          "duration": 0.8333339999999936,
          "durationTicks": 240,
          "midi": 54,
          "name": "F#3",
          "ticks": 19920,
          "time": 69.16672200000001,
          "velocity": 0.5354330708661418
        },
        {
          "duration": 0.8333339999999936,
          "durationTicks": 240,
          "midi": 50,
          "name": "D3",
          "ticks": 19920,
          "time": 69.16672200000001,
          "velocity": 0.5354330708661418
        },
        {
          "duration": 0.8333339999999936,
          "durationTicks": 240,
          "midi": 57,
          "name": "A3",
          "ticks": 19920,
          "time": 69.16672200000001,
          "velocity": 0.5354330708661418
        },
        {
          "duration": 0.8333340000000078,
          "durationTicks": 240,
          "midi": 48,
          "name": "C3",
          "ticks": 20160,
          "time": 70.000056,
          "velocity": 0.5354330708661418
        },
        {
          "duration": 0.8333340000000078,
          "durationTicks": 240,
          "midi": 45,
          "name": "A2",
          "ticks": 20160,
          "time": 70.000056,
          "velocity": 0.5354330708661418
        },
        {
          "duration": 0.8333340000000078,
          "durationTicks": 240,
          "midi": 52,
          "name": "E3",
          "ticks": 20160,
          "time": 70.000056,
          "velocity": 0.5354330708661418
        },
        {
          "duration": 0.8333339999999936,
          "durationTicks": 240,
          "midi": 50,
          "name": "D3",
          "ticks": 20400,
          "time": 70.83339000000001,
          "velocity": 0.5354330708661418
        },
        {
          "duration": 0.8333339999999936,
          "durationTicks": 240,
          "midi": 47,
          "name": "B2",
          "ticks": 20400,
          "time": 70.83339000000001,
          "velocity": 0.5354330708661418
        },
        {
          "duration": 0.8333339999999936,
          "durationTicks": 240,
          "midi": 54,
          "name": "F#3",
          "ticks": 20400,
          "time": 70.83339000000001,
          "velocity": 0.5354330708661418
        },
        {
          "duration": 0.8333339999999936,
          "durationTicks": 240,
          "midi": 52,
          "name": "E3",
          "ticks": 20640,
          "time": 71.666724,
          "velocity": 0.5354330708661418
        },
        {
          "duration": 0.8333339999999936,
          "durationTicks": 240,
          "midi": 48,
          "name": "C3",
          "ticks": 20640,
          "time": 71.666724,
          "velocity": 0.5354330708661418
        },
        {
          "duration": 0.8333339999999936,
          "durationTicks": 240,
          "midi": 55,
          "name": "G3",
          "ticks": 20640,
          "time": 71.666724,
          "velocity": 0.5354330708661418
        },
        {
          "duration": 0.8333340000000078,
          "durationTicks": 240,
          "midi": 54,
          "name": "F#3",
          "ticks": 20880,
          "time": 72.500058,
          "velocity": 0.5354330708661418
        },
        {
          "duration": 0.8333340000000078,
          "durationTicks": 240,
          "midi": 50,
          "name": "D3",
          "ticks": 20880,
          "time": 72.500058,
          "velocity": 0.5354330708661418
        },
        {
          "duration": 0.8333340000000078,
          "durationTicks": 240,
          "midi": 57,
          "name": "A3",
          "ticks": 20880,
          "time": 72.500058,
          "velocity": 0.5354330708661418
        },
        {
          "duration": 0.8333339999999936,
          "durationTicks": 240,
          "midi": 55,
          "name": "G3",
          "ticks": 21120,
          "time": 73.333392,
          "velocity": 0.5354330708661418
        },
        {
          "duration": 0.8333339999999936,
          "durationTicks": 240,
          "midi": 52,
          "name": "E3",
          "ticks": 21120,
          "time": 73.333392,
          "velocity": 0.5354330708661418
        },
        {
          "duration": 0.8333339999999936,
          "durationTicks": 240,
          "midi": 59,
          "name": "B3",
          "ticks": 21120,
          "time": 73.333392,
          "velocity": 0.5354330708661418
        },
        {
          "duration": 0.8333340000000078,
          "durationTicks": 240,
          "midi": 54,
          "name": "F#3",
          "ticks": 21360,
          "time": 74.166726,
          "velocity": 0.5354330708661418
        },
        {
          "duration": 0.8333340000000078,
          "durationTicks": 240,
          "midi": 50,
          "name": "D3",
          "ticks": 21360,
          "time": 74.166726,
          "velocity": 0.5354330708661418
        },
        {
          "duration": 0.8333340000000078,
          "durationTicks": 240,
          "midi": 57,
          "name": "A3",
          "ticks": 21360,
          "time": 74.166726,
          "velocity": 0.5354330708661418
        },
        {
          "duration": 0.8333339999999936,
          "durationTicks": 240,
          "midi": 52,
          "name": "E3",
          "ticks": 21600,
          "time": 75.00006,
          "velocity": 0.5354330708661418
        },
        {
          "duration": 0.8333339999999936,
          "durationTicks": 240,
          "midi": 48,
          "name": "C3",
          "ticks": 21600,
          "time": 75.00006,
          "velocity": 0.5354330708661418
        },
        {
          "duration": 0.8333339999999936,
          "durationTicks": 240,
          "midi": 55,
          "name": "G3",
          "ticks": 21600,
          "time": 75.00006,
          "velocity": 0.5354330708661418
        },
        {
          "duration": 0.8333340000000078,
          "durationTicks": 240,
          "midi": 54,
          "name": "F#3",
          "ticks": 21840,
          "time": 75.833394,
          "velocity": 0.5354330708661418
        },
        {
          "duration": 0.8333340000000078,
          "durationTicks": 240,
          "midi": 50,
          "name": "D3",
          "ticks": 21840,
          "time": 75.833394,
          "velocity": 0.5354330708661418
        },
        {
          "duration": 0.8333340000000078,
          "durationTicks": 240,
          "midi": 57,
          "name": "A3",
          "ticks": 21840,
          "time": 75.833394,
          "velocity": 0.5354330708661418
        },
        {
          "duration": 0.8333339999999936,
          "durationTicks": 240,
          "midi": 48,
          "name": "C3",
          "ticks": 22080,
          "time": 76.666728,
          "velocity": 0.5354330708661418
        },
        {
          "duration": 0.8333339999999936,
          "durationTicks": 240,
          "midi": 45,
          "name": "A2",
          "ticks": 22080,
          "time": 76.666728,
          "velocity": 0.5354330708661418
        },
        {
          "duration": 0.8333339999999936,
          "durationTicks": 240,
          "midi": 52,
          "name": "E3",
          "ticks": 22080,
          "time": 76.666728,
          "velocity": 0.5354330708661418
        },
        {
          "duration": 0.8333340000000078,
          "durationTicks": 240,
          "midi": 50,
          "name": "D3",
          "ticks": 22320,
          "time": 77.500062,
          "velocity": 0.5354330708661418
        },
        {
          "duration": 0.8333340000000078,
          "durationTicks": 240,
          "midi": 54,
          "name": "F#3",
          "ticks": 22320,
          "time": 77.500062,
          "velocity": 0.5354330708661418
        },
        {
          "duration": 0.8333340000000078,
          "durationTicks": 240,
          "midi": 47,
          "name": "B2",
          "ticks": 22320,
          "time": 77.500062,
          "velocity": 0.5354330708661418
        },
        {
          "duration": 0.8333339999999936,
          "durationTicks": 240,
          "midi": 52,
          "name": "E3",
          "ticks": 22560,
          "time": 78.33339600000001,
          "velocity": 0.5354330708661418
        },
        {
          "duration": 0.8333339999999936,
          "durationTicks": 240,
          "midi": 48,
          "name": "C3",
          "ticks": 22560,
          "time": 78.33339600000001,
          "velocity": 0.5354330708661418
        },
        {
          "duration": 0.8333339999999936,
          "durationTicks": 240,
          "midi": 55,
          "name": "G3",
          "ticks": 22560,
          "time": 78.33339600000001,
          "velocity": 0.5354330708661418
        },
        {
          "duration": 0.8333340000000078,
          "durationTicks": 240,
          "midi": 54,
          "name": "F#3",
          "ticks": 22800,
          "time": 79.16673,
          "velocity": 0.5354330708661418
        },
        {
          "duration": 0.8333340000000078,
          "durationTicks": 240,
          "midi": 50,
          "name": "D3",
          "ticks": 22800,
          "time": 79.16673,
          "velocity": 0.5354330708661418
        },
        {
          "duration": 0.8333340000000078,
          "durationTicks": 240,
          "midi": 57,
          "name": "A3",
          "ticks": 22800,
          "time": 79.16673,
          "velocity": 0.5354330708661418
        }
      ],
      "endOfTrackTicks": 23040
    },
    {
      "channel": 9,
      "controlChanges": {
        "7": [
          {
            "number": 7,
            "ticks": 0,
            "time": 0,
            "value": 1
          }
        ],
        "10": [
          {
            "number": 10,
            "ticks": 0,
            "time": 0,
            "value": 0.5039370078740157
          }
        ]
      },
      "pitchBends": [],
      "instrument": {
        "family": "drums",
        "number": 0,
        "name": "standard kit"
      },
      "name": "Touhou 6: Enbodiment of Scarlet Devil - Shanghai Alice of Meiji 17 ",
      "notes": [
        {
          "duration": 0.052083375,
          "durationTicks": 15,
          "midi": 49,
          "name": "C#3",
          "ticks": 0,
          "time": 0,
          "velocity": 0.5984251968503937
        },
        {
          "duration": 0.052083375,
          "durationTicks": 15,
          "midi": 36,
          "name": "C2",
          "ticks": 0,
          "time": 0,
          "velocity": 0.5984251968503937
        },
        {
          "duration": 0.05208337499999993,
          "durationTicks": 15,
          "midi": 36,
          "name": "C2",
          "ticks": 180,
          "time": 0.6250005000000001,
          "velocity": 0.5984251968503937
        },
        {
          "duration": 0.05208337499999982,
          "durationTicks": 15,
          "midi": 49,
          "name": "C#3",
          "ticks": 360,
          "time": 1.2500010000000001,
          "velocity": 0.5984251968503937
        },
        {
          "duration": 0.05208337499999982,
          "durationTicks": 15,
          "midi": 36,
          "name": "C2",
          "ticks": 360,
          "time": 1.2500010000000001,
          "velocity": 0.5984251968503937
        },
        {
          "duration": 0.05208337500000004,
          "durationTicks": 15,
          "midi": 36,
          "name": "C2",
          "ticks": 540,
          "time": 1.8750015,
          "velocity": 0.5984251968503937
        },
        {
          "duration": 0.0520833749999996,
          "durationTicks": 15,
          "midi": 49,
          "name": "C#3",
          "ticks": 720,
          "time": 2.5000020000000003,
          "velocity": 0.5984251968503937
        },
        {
          "duration": 0.0520833749999996,
          "durationTicks": 15,
          "midi": 36,
          "name": "C2",
          "ticks": 720,
          "time": 2.5000020000000003,
          "velocity": 0.5984251968503937
        },
        {
          "duration": 0.05208337500000004,
          "durationTicks": 15,
          "midi": 36,
          "name": "C2",
          "ticks": 900,
          "time": 3.1250025,
          "velocity": 0.5984251968503937
        },
        {
          "duration": 0.05208337500000004,
          "durationTicks": 15,
          "midi": 49,
          "name": "C#3",
          "ticks": 1080,
          "time": 3.750003,
          "velocity": 0.5984251968503937
        },
        {
          "duration": 0.05208337500000004,
          "durationTicks": 15,
          "midi": 36,
          "name": "C2",
          "ticks": 1080,
          "time": 3.750003,
          "velocity": 0.5984251968503937
        },
        {
          "duration": 0.05208337500000049,
          "durationTicks": 15,
          "midi": 36,
          "name": "C2",
          "ticks": 1170,
          "time": 4.06250325,
          "velocity": 0.5984251968503937
        },
        {
          "duration": 0.05208337500000049,
          "durationTicks": 15,
          "midi": 36,
          "name": "C2",
          "ticks": 1200,
          "time": 4.16667,
          "velocity": 0.5984251968503937
        },
        {
          "duration": 0.05208337500000049,
          "durationTicks": 15,
          "midi": 36,
          "name": "C2",
          "ticks": 1260,
          "time": 4.3750035,
          "velocity": 0.5984251968503937
        },
        {
          "duration": 0.0520833749999996,
          "durationTicks": 15,
          "midi": 36,
          "name": "C2",
          "ticks": 1320,
          "time": 4.583337,
          "velocity": 0.5984251968503937
        },
        {
          "duration": 0.0520833749999996,
          "durationTicks": 15,
          "midi": 40,
          "name": "E2",
          "ticks": 1320,
          "time": 4.583337,
          "velocity": 0.3543307086614173
        },
        {
          "duration": 0.05208337500000049,
          "durationTicks": 15,
          "midi": 40,
          "name": "E2",
          "ticks": 1335,
          "time": 4.635420375,
          "velocity": 0.41732283464566927
        },
        {
          "duration": 0.0520833749999996,
          "durationTicks": 15,
          "midi": 40,
          "name": "E2",
          "ticks": 1350,
          "time": 4.68750375,
          "velocity": 0.48031496062992124
        },
        {
          "duration": 0.05208337500000049,
          "durationTicks": 15,
          "midi": 40,
          "name": "E2",
          "ticks": 1365,
          "time": 4.739587125,
          "velocity": 0.5590551181102362
        },
        {
          "duration": 0.0520833749999996,
          "durationTicks": 15,
          "midi": 36,
          "name": "C2",
          "ticks": 1380,
          "time": 4.7916705,
          "velocity": 0.5984251968503937
        },
        {
          "duration": 0.0520833749999996,
          "durationTicks": 15,
          "midi": 40,
          "name": "E2",
          "ticks": 1380,
          "time": 4.7916705,
          "velocity": 0.6220472440944882
        },
        {
          "duration": 0.0520833749999996,
          "durationTicks": 15,
          "midi": 42,
          "name": "F#2",
          "ticks": 1440,
          "time": 5.000004000000001,
          "velocity": 0.5984251968503937
        },
        {
          "duration": 0.0520833749999996,
          "durationTicks": 15,
          "midi": 49,
          "name": "C#3",
          "ticks": 1440,
          "time": 5.000004000000001,
          "velocity": 0.5984251968503937
        },
        {
          "duration": 0.0520833749999996,
          "durationTicks": 15,
          "midi": 36,
          "name": "C2",
          "ticks": 1440,
          "time": 5.000004000000001,
          "velocity": 0.5984251968503937
        },
        {
          "duration": 0.05208337500000049,
          "durationTicks": 15,
          "midi": 42,
          "name": "F#2",
          "ticks": 1500,
          "time": 5.2083375,
          "velocity": 0.5984251968503937
        },
        {
          "duration": 0.05208337500000049,
          "durationTicks": 15,
          "midi": 42,
          "name": "F#2",
          "ticks": 1560,
          "time": 5.416671,
          "velocity": 0.5984251968503937
        },
        {
          "duration": 0.0520833749999996,
          "durationTicks": 15,
          "midi": 36,
          "name": "C2",
          "ticks": 1620,
          "time": 5.6250045,
          "velocity": 0.5984251968503937
        },
        {
          "duration": 0.0520833749999996,
          "durationTicks": 15,
          "midi": 42,
          "name": "F#2",
          "ticks": 1620,
          "time": 5.6250045,
          "velocity": 0.5984251968503937
        },
        {
          "duration": 0.0520833749999996,
          "durationTicks": 15,
          "midi": 46,
          "name": "A#2",
          "ticks": 1680,
          "time": 5.833338,
          "velocity": 0.5984251968503937
        },
        {
          "duration": 0.0520833749999996,
          "durationTicks": 15,
          "midi": 40,
          "name": "E2",
          "ticks": 1680,
          "time": 5.833338,
          "velocity": 0.5984251968503937
        },
        {
          "duration": 0.0520833749999996,
          "durationTicks": 15,
          "midi": 36,
          "name": "C2",
          "ticks": 1740,
          "time": 6.0416715000000005,
          "velocity": 0.5984251968503937
        },
        {
          "duration": 0.0520833749999996,
          "durationTicks": 15,
          "midi": 42,
          "name": "F#2",
          "ticks": 1740,
          "time": 6.0416715000000005,
          "velocity": 0.5984251968503937
        },
        {
          "duration": 0.05208337500000049,
          "durationTicks": 15,
          "midi": 36,
          "name": "C2",
          "ticks": 1770,
          "time": 6.14583825,
          "velocity": 0.5984251968503937
        },
        {
          "duration": 0.05208337500000049,
          "durationTicks": 15,
          "midi": 42,
          "name": "F#2",
          "ticks": 1770,
          "time": 6.14583825,
          "velocity": 0.5984251968503937
        },
        {
          "duration": 0.05208337500000049,
          "durationTicks": 15,
          "midi": 36,
          "name": "C2",
          "ticks": 1800,
          "time": 6.250005,
          "velocity": 0.5984251968503937
        },
        {
          "duration": 0.05208337500000049,
          "durationTicks": 15,
          "midi": 42,
          "name": "F#2",
          "ticks": 1800,
          "time": 6.250005,
          "velocity": 0.5984251968503937
        },
        {
          "duration": 0.05208337500000049,
          "durationTicks": 15,
          "midi": 42,
          "name": "F#2",
          "ticks": 1860,
          "time": 6.4583385,
          "velocity": 0.5984251968503937
        },
        {
          "duration": 0.0520833749999996,
          "durationTicks": 15,
          "midi": 42,
          "name": "F#2",
          "ticks": 1920,
          "time": 6.666672,
          "velocity": 0.5984251968503937
        },
        {
          "duration": 0.0520833749999996,
          "durationTicks": 15,
          "midi": 36,
          "name": "C2",
          "ticks": 1920,
          "time": 6.666672,
          "velocity": 0.5984251968503937
        },
        {
          "duration": 0.0520833749999996,
          "durationTicks": 15,
          "midi": 42,
          "name": "F#2",
          "ticks": 1950,
          "time": 6.77083875,
          "velocity": 0.5984251968503937
        },
        {
          "duration": 0.0520833749999996,
          "durationTicks": 15,
          "midi": 42,
          "name": "F#2",
          "ticks": 1980,
          "time": 6.8750055,
          "velocity": 0.5984251968503937
        },
        {
          "duration": 0.0520833749999996,
          "durationTicks": 15,
          "midi": 36,
          "name": "C2",
          "ticks": 2010,
          "time": 6.97917225,
          "velocity": 0.5984251968503937
        },
        {
          "duration": 0.0520833749999996,
          "durationTicks": 15,
          "midi": 46,
          "name": "A#2",
          "ticks": 2040,
          "time": 7.0833390000000005,
          "velocity": 0.5984251968503937
        },
        {
          "duration": 0.0520833749999996,
          "durationTicks": 15,
          "midi": 40,
          "name": "E2",
          "ticks": 2040,
          "time": 7.0833390000000005,
          "velocity": 0.5984251968503937
        },
        {
          "duration": 0.05208337500000049,
          "durationTicks": 15,
          "midi": 36,
          "name": "C2",
          "ticks": 2100,
          "time": 7.2916725,
          "velocity": 0.5984251968503937
        },
        {
          "duration": 0.05208337500000049,
          "durationTicks": 15,
          "midi": 42,
          "name": "F#2",
          "ticks": 2100,
          "time": 7.2916725,
          "velocity": 0.5984251968503937
        },
        {
          "duration": 0.05208337500000049,
          "durationTicks": 15,
          "midi": 42,
          "name": "F#2",
          "ticks": 2160,
          "time": 7.500006,
          "velocity": 0.5984251968503937
        },
        {
          "duration": 0.05208337500000049,
          "durationTicks": 15,
          "midi": 49,
          "name": "C#3",
          "ticks": 2160,
          "time": 7.500006,
          "velocity": 0.5984251968503937
        },
        {
          "duration": 0.05208337500000049,
          "durationTicks": 15,
          "midi": 36,
          "name": "C2",
          "ticks": 2160,
          "time": 7.500006,
          "velocity": 0.5984251968503937
        },
        {
          "duration": 0.05208337500000049,
          "durationTicks": 15,
          "midi": 42,
          "name": "F#2",
          "ticks": 2220,
          "time": 7.7083395,
          "velocity": 0.5984251968503937
        },
        {
          "duration": 0.0520833749999996,
          "durationTicks": 15,
          "midi": 36,
          "name": "C2",
          "ticks": 2280,
          "time": 7.916673,
          "velocity": 0.5984251968503937
        },
        {
          "duration": 0.0520833749999996,
          "durationTicks": 15,
          "midi": 42,
          "name": "F#2",
          "ticks": 2280,
          "time": 7.916673,
          "velocity": 0.5984251968503937
        },
        {
          "duration": 0.05208337500000049,
          "durationTicks": 15,
          "midi": 42,
          "name": "F#2",
          "ticks": 2340,
          "time": 8.1250065,
          "velocity": 0.5984251968503937
        },
        {
          "duration": 0.05208337500000049,
          "durationTicks": 15,
          "midi": 36,
          "name": "C2",
          "ticks": 2340,
          "time": 8.1250065,
          "velocity": 0.5984251968503937
        },
        {
          "duration": 0.05208337500000049,
          "durationTicks": 15,
          "midi": 42,
          "name": "F#2",
          "ticks": 2370,
          "time": 8.22917325,
          "velocity": 0.5984251968503937
        },
        {
          "duration": 0.05208337500000049,
          "durationTicks": 15,
          "midi": 46,
          "name": "A#2",
          "ticks": 2400,
          "time": 8.33334,
          "velocity": 0.5984251968503937
        },
        {
          "duration": 0.05208337500000049,
          "durationTicks": 15,
          "midi": 40,
          "name": "E2",
          "ticks": 2400,
          "time": 8.33334,
          "velocity": 0.5984251968503937
        },
        {
          "duration": 0.05208337499999871,
          "durationTicks": 15,
          "midi": 42,
          "name": "F#2",
          "ticks": 2430,
          "time": 8.43750675,
          "velocity": 0.5984251968503937
        },
        {
          "duration": 0.05208337500000049,
          "durationTicks": 15,
          "midi": 36,
          "name": "C2",
          "ticks": 2460,
          "time": 8.5416735,
          "velocity": 0.5984251968503937
        },
        {
          "duration": 0.05208337500000049,
          "durationTicks": 15,
          "midi": 42,
          "name": "F#2",
          "ticks": 2460,
          "time": 8.5416735,
          "velocity": 0.5984251968503937
        },
        {
          "duration": 0.05208337499999871,
          "durationTicks": 15,
          "midi": 42,
          "name": "F#2",
          "ticks": 2490,
          "time": 8.645840250000001,
          "velocity": 0.5984251968503937
        },
        {
          "duration": 0.05208337500000049,
          "durationTicks": 15,
          "midi": 42,
          "name": "F#2",
          "ticks": 2520,
          "time": 8.750007,
          "velocity": 0.5984251968503937
        },
        {
          "duration": 0.05208337500000049,
          "durationTicks": 15,
          "midi": 36,
          "name": "C2",
          "ticks": 2520,
          "time": 8.750007,
          "velocity": 0.5984251968503937
        },
        {
          "duration": 0.05208337500000049,
          "durationTicks": 15,
          "midi": 42,
          "name": "F#2",
          "ticks": 2580,
          "time": 8.9583405,
          "velocity": 0.5984251968503937
        },
        {
          "duration": 0.05208337500000049,
          "durationTicks": 15,
          "midi": 36,
          "name": "C2",
          "ticks": 2610,
          "time": 9.06250725,
          "velocity": 0.5984251968503937
        },
        {
          "duration": 0.05208337500000049,
          "durationTicks": 15,
          "midi": 42,
          "name": "F#2",
          "ticks": 2640,
          "time": 9.166674,
          "velocity": 0.5984251968503937
        },
        {
          "duration": 0.05208337500000049,
          "durationTicks": 15,
          "midi": 36,
          "name": "C2",
          "ticks": 2640,
          "time": 9.166674,
          "velocity": 0.5984251968503937
        },
        {
          "duration": 0.05208337500000049,
          "durationTicks": 15,
          "midi": 36,
          "name": "C2",
          "ticks": 2700,
          "time": 9.3750075,
          "velocity": 0.5984251968503937
        },
        {
          "duration": 0.05208337500000049,
          "durationTicks": 15,
          "midi": 42,
          "name": "F#2",
          "ticks": 2700,
          "time": 9.3750075,
          "velocity": 0.5984251968503937
        },
        {
          "duration": 0.05208337499999871,
          "durationTicks": 15,
          "midi": 46,
          "name": "A#2",
          "ticks": 2760,
          "time": 9.583341,
          "velocity": 0.5984251968503937
        },
        {
          "duration": 0.05208337499999871,
          "durationTicks": 15,
          "midi": 36,
          "name": "C2",
          "ticks": 2760,
          "time": 9.583341,
          "velocity": 0.5984251968503937
        },
        {
          "duration": 0.05208337499999871,
          "durationTicks": 15,
          "midi": 40,
          "name": "E2",
          "ticks": 2760,
          "time": 9.583341,
          "velocity": 0.3543307086614173
        },
        {
          "duration": 0.05208337500000049,
          "durationTicks": 15,
          "midi": 40,
          "name": "E2",
          "ticks": 2775,
          "time": 9.635424375,
          "velocity": 0.41732283464566927
        },
        {
          "duration": 0.05208337500000049,
          "durationTicks": 15,
          "midi": 40,
          "name": "E2",
          "ticks": 2790,
          "time": 9.68750775,
          "velocity": 0.48031496062992124
        },
        {
          "duration": 0.05208337500000049,
          "durationTicks": 15,
          "midi": 40,
          "name": "E2",
          "ticks": 2805,
          "time": 9.739591125,
          "velocity": 0.5590551181102362
        },
        {
          "duration": 0.05208337499999871,
          "durationTicks": 15,
          "midi": 42,
          "name": "F#2",
          "ticks": 2820,
          "time": 9.791674500000001,
          "velocity": 0.5984251968503937
        },
        {
          "duration": 0.05208337499999871,
          "durationTicks": 15,
          "midi": 36,
          "name": "C2",
          "ticks": 2820,
          "time": 9.791674500000001,
          "velocity": 0.5984251968503937
        },
        {
          "duration": 0.05208337499999871,
          "durationTicks": 15,
          "midi": 40,
          "name": "E2",
          "ticks": 2820,
          "time": 9.791674500000001,
          "velocity": 0.6220472440944882
        },
        {
          "duration": 0.05208337499999871,
          "durationTicks": 15,
          "midi": 42,
          "name": "F#2",
          "ticks": 2880,
          "time": 10.000008000000001,
          "velocity": 0.5984251968503937
        },
        {
          "duration": 0.05208337499999871,
          "durationTicks": 15,
          "midi": 49,
          "name": "C#3",
          "ticks": 2880,
          "time": 10.000008000000001,
          "velocity": 0.5984251968503937
        },
        {
          "duration": 0.05208337499999871,
          "durationTicks": 15,
          "midi": 36,
          "name": "C2",
          "ticks": 2880,
          "time": 10.000008000000001,
          "velocity": 0.5984251968503937
        },
        {
          "duration": 0.05208337500000049,
          "durationTicks": 15,
          "midi": 42,
          "name": "F#2",
          "ticks": 2910,
          "time": 10.10417475,
          "velocity": 0.5984251968503937
        },
        {
          "duration": 0.05208337500000049,
          "durationTicks": 15,
          "midi": 46,
          "name": "A#2",
          "ticks": 2940,
          "time": 10.2083415,
          "velocity": 0.5984251968503937
        },
        {
          "duration": 0.05208337500000049,
          "durationTicks": 15,
          "midi": 40,
          "name": "E2",
          "ticks": 3000,
          "time": 10.416675,
          "velocity": 0.5984251968503937
        },
        {
          "duration": 0.05208337500000049,
          "durationTicks": 15,
          "midi": 42,
          "name": "F#2",
          "ticks": 3000,
          "time": 10.416675,
          "velocity": 0.5984251968503937
        },
        {
          "duration": 0.05208337499999871,
          "durationTicks": 15,
          "midi": 42,
          "name": "F#2",
          "ticks": 3030,
          "time": 10.52084175,
          "velocity": 0.5984251968503937
        },
        {
          "duration": 0.05208337500000049,
          "durationTicks": 15,
          "midi": 36,
          "name": "C2",
          "ticks": 3060,
          "time": 10.6250085,
          "velocity": 0.5984251968503937
        },
        {
          "duration": 0.05208337500000049,
          "durationTicks": 15,
          "midi": 46,
          "name": "A#2",
          "ticks": 3060,
          "time": 10.6250085,
          "velocity": 0.5984251968503937
        },
        {
          "duration": 0.05208337499999871,
          "durationTicks": 15,
          "midi": 36,
          "name": "C2",
          "ticks": 3090,
          "time": 10.72917525,
          "velocity": 0.5984251968503937
        },
        {
          "duration": 0.05208337500000049,
          "durationTicks": 15,
          "midi": 36,
          "name": "C2",
          "ticks": 3120,
          "time": 10.833342,
          "velocity": 0.5984251968503937
        },
        {
          "duration": 0.05208337500000049,
          "durationTicks": 15,
          "midi": 42,
          "name": "F#2",
          "ticks": 3120,
          "time": 10.833342,
          "velocity": 0.5984251968503937
        },
        {
          "duration": 0.05208337499999871,
          "durationTicks": 15,
          "midi": 42,
          "name": "F#2",
          "ticks": 3150,
          "time": 10.937508750000001,
          "velocity": 0.5984251968503937
        },
        {
          "duration": 0.05208337500000049,
          "durationTicks": 15,
          "midi": 36,
          "name": "C2",
          "ticks": 3180,
          "time": 11.0416755,
          "velocity": 0.5984251968503937
        },
        {
          "duration": 0.05208337500000049,
          "durationTicks": 15,
          "midi": 46,
          "name": "A#2",
          "ticks": 3180,
          "time": 11.0416755,
          "velocity": 0.5984251968503937
        },
        {
          "duration": 0.05208337500000049,
          "durationTicks": 15,
          "midi": 40,
          "name": "E2",
          "ticks": 3180,
          "time": 11.0416755,
          "velocity": 0.5984251968503937
        },
        {
          "duration": 0.05208337500000049,
          "durationTicks": 15,
          "midi": 36,
          "name": "C2",
          "ticks": 3240,
          "time": 11.250009,
          "velocity": 0.5984251968503937
        },
        {
          "duration": 0.05208337500000049,
          "durationTicks": 15,
          "midi": 42,
          "name": "F#2",
          "ticks": 3240,
          "time": 11.250009,
          "velocity": 0.5984251968503937
        },
        {
          "duration": 0.05208337500000049,
          "durationTicks": 15,
          "midi": 42,
          "name": "F#2",
          "ticks": 3270,
          "time": 11.35417575,
          "velocity": 0.5984251968503937
        },
        {
          "duration": 0.05208337500000049,
          "durationTicks": 15,
          "midi": 46,
          "name": "A#2",
          "ticks": 3300,
          "time": 11.4583425,
          "velocity": 0.5984251968503937
        },
        {
          "duration": 0.05208337499999871,
          "durationTicks": 15,
          "midi": 40,
          "name": "E2",
          "ticks": 3360,
          "time": 11.666676,
          "velocity": 0.5984251968503937
        },
        {
          "duration": 0.05208337499999871,
          "durationTicks": 15,
          "midi": 42,
          "name": "F#2",
          "ticks": 3360,
          "time": 11.666676,
          "velocity": 0.5984251968503937
        },
        {
          "duration": 0.05208337500000049,
          "durationTicks": 15,
          "midi": 42,
          "name": "F#2",
          "ticks": 3390,
          "time": 11.77084275,
          "velocity": 0.5984251968503937
        },
        {
          "duration": 0.05208337499999871,
          "durationTicks": 15,
          "midi": 36,
          "name": "C2",
          "ticks": 3420,
          "time": 11.8750095,
          "velocity": 0.5984251968503937
        },
        {
          "duration": 0.05208337499999871,
          "durationTicks": 15,
          "midi": 46,
          "name": "A#2",
          "ticks": 3420,
          "time": 11.8750095,
          "velocity": 0.5984251968503937
        },
        {
          "duration": 0.05208337500000049,
          "durationTicks": 15,
          "midi": 36,
          "name": "C2",
          "ticks": 3450,
          "time": 11.97917625,
          "velocity": 0.5984251968503937
        },
        {
          "duration": 0.05208337499999871,
          "durationTicks": 15,
          "midi": 42,
          "name": "F#2",
          "ticks": 3480,
          "time": 12.083343000000001,
          "velocity": 0.5984251968503937
        },
        {
          "duration": 0.05208337499999871,
          "durationTicks": 15,
          "midi": 36,
          "name": "C2",
          "ticks": 3480,
          "time": 12.083343000000001,
          "velocity": 0.5984251968503937
        },
        {
          "duration": 0.05208337500000049,
          "durationTicks": 15,
          "midi": 42,
          "name": "F#2",
          "ticks": 3510,
          "time": 12.18750975,
          "velocity": 0.5984251968503937
        },
        {
          "duration": 0.05208337500000049,
          "durationTicks": 15,
          "midi": 36,
          "name": "C2",
          "ticks": 3540,
          "time": 12.2916765,
          "velocity": 0.5984251968503937
        },
        {
          "duration": 0.05208337500000049,
          "durationTicks": 15,
          "midi": 46,
          "name": "A#2",
          "ticks": 3540,
          "time": 12.2916765,
          "velocity": 0.5984251968503937
        },
        {
          "duration": 0.05208337500000049,
          "durationTicks": 15,
          "midi": 40,
          "name": "E2",
          "ticks": 3540,
          "time": 12.2916765,
          "velocity": 0.5984251968503937
        },
        {
          "duration": 0.05208337500000049,
          "durationTicks": 15,
          "midi": 36,
          "name": "C2",
          "ticks": 3600,
          "time": 12.50001,
          "velocity": 0.5984251968503937
        },
        {
          "duration": 0.05208337500000049,
          "durationTicks": 15,
          "midi": 42,
          "name": "F#2",
          "ticks": 3600,
          "time": 12.50001,
          "velocity": 0.5984251968503937
        },
        {
          "duration": 0.05208337500000049,
          "durationTicks": 15,
          "midi": 42,
          "name": "F#2",
          "ticks": 3630,
          "time": 12.60417675,
          "velocity": 0.5984251968503937
        },
        {
          "duration": 0.05208337500000049,
          "durationTicks": 15,
          "midi": 46,
          "name": "A#2",
          "ticks": 3660,
          "time": 12.7083435,
          "velocity": 0.5984251968503937
        },
        {
          "duration": 0.05208337500000049,
          "durationTicks": 15,
          "midi": 40,
          "name": "E2",
          "ticks": 3720,
          "time": 12.916677,
          "velocity": 0.5984251968503937
        },
        {
          "duration": 0.05208337500000049,
          "durationTicks": 15,
          "midi": 42,
          "name": "F#2",
          "ticks": 3720,
          "time": 12.916677,
          "velocity": 0.5984251968503937
        },
        {
          "duration": 0.05208337499999871,
          "durationTicks": 15,
          "midi": 42,
          "name": "F#2",
          "ticks": 3750,
          "time": 13.020843750000001,
          "velocity": 0.5984251968503937
        },
        {
          "duration": 0.05208337500000049,
          "durationTicks": 15,
          "midi": 36,
          "name": "C2",
          "ticks": 3780,
          "time": 13.1250105,
          "velocity": 0.5984251968503937
        },
        {
          "duration": 0.05208337500000049,
          "durationTicks": 15,
          "midi": 46,
          "name": "A#2",
          "ticks": 3780,
          "time": 13.1250105,
          "velocity": 0.5984251968503937
        },
        {
          "duration": 0.05208337499999871,
          "durationTicks": 15,
          "midi": 36,
          "name": "C2",
          "ticks": 3810,
          "time": 13.229177250000001,
          "velocity": 0.5984251968503937
        },
        {
          "duration": 0.05208337500000049,
          "durationTicks": 15,
          "midi": 42,
          "name": "F#2",
          "ticks": 3840,
          "time": 13.333344,
          "velocity": 0.5984251968503937
        },
        {
          "duration": 0.05208337500000049,
          "durationTicks": 15,
          "midi": 36,
          "name": "C2",
          "ticks": 3840,
          "time": 13.333344,
          "velocity": 0.5984251968503937
        },
        {
          "duration": 0.05208337500000049,
          "durationTicks": 15,
          "midi": 42,
          "name": "F#2",
          "ticks": 3870,
          "time": 13.43751075,
          "velocity": 0.5984251968503937
        },
        {
          "duration": 0.05208337500000049,
          "durationTicks": 15,
          "midi": 36,
          "name": "C2",
          "ticks": 3900,
          "time": 13.5416775,
          "velocity": 0.5984251968503937
        },
        {
          "duration": 0.05208337500000049,
          "durationTicks": 15,
          "midi": 46,
          "name": "A#2",
          "ticks": 3900,
          "time": 13.5416775,
          "velocity": 0.5984251968503937
        },
        {
          "duration": 0.05208337500000049,
          "durationTicks": 15,
          "midi": 40,
          "name": "E2",
          "ticks": 3900,
          "time": 13.5416775,
          "velocity": 0.5984251968503937
        },
        {
          "duration": 0.05208337500000049,
          "durationTicks": 15,
          "midi": 36,
          "name": "C2",
          "ticks": 3960,
          "time": 13.750011,
          "velocity": 0.5984251968503937
        },
        {
          "duration": 0.05208337500000049,
          "durationTicks": 15,
          "midi": 42,
          "name": "F#2",
          "ticks": 3960,
          "time": 13.750011,
          "velocity": 0.5984251968503937
        },
        {
          "duration": 0.05208337500000049,
          "durationTicks": 15,
          "midi": 42,
          "name": "F#2",
          "ticks": 3990,
          "time": 13.85417775,
          "velocity": 0.5984251968503937
        },
        {
          "duration": 0.05208337499999871,
          "durationTicks": 15,
          "midi": 36,
          "name": "C2",
          "ticks": 4020,
          "time": 13.9583445,
          "velocity": 0.5984251968503937
        },
        {
          "duration": 0.05208337499999871,
          "durationTicks": 15,
          "midi": 46,
          "name": "A#2",
          "ticks": 4020,
          "time": 13.9583445,
          "velocity": 0.5984251968503937
        },
        {
          "duration": 0.05208337499999871,
          "durationTicks": 15,
          "midi": 40,
          "name": "E2",
          "ticks": 4080,
          "time": 14.166678000000001,
          "velocity": 0.5984251968503937
        },
        {
          "duration": 0.05208337499999871,
          "durationTicks": 15,
          "midi": 42,
          "name": "F#2",
          "ticks": 4080,
          "time": 14.166678000000001,
          "velocity": 0.5984251968503937
        },
        {
          "duration": 0.05208337500000049,
          "durationTicks": 15,
          "midi": 42,
          "name": "F#2",
          "ticks": 4110,
          "time": 14.27084475,
          "velocity": 0.5984251968503937
        },
        {
          "duration": 0.05208337499999871,
          "durationTicks": 15,
          "midi": 40,
          "name": "E2",
          "ticks": 4140,
          "time": 14.375011500000001,
          "velocity": 0.5984251968503937
        },
        {
          "duration": 0.05208337499999871,
          "durationTicks": 15,
          "midi": 36,
          "name": "C2",
          "ticks": 4140,
          "time": 14.375011500000001,
          "velocity": 0.5984251968503937
        },
        {
          "duration": 0.05208337499999871,
          "durationTicks": 15,
          "midi": 46,
          "name": "A#2",
          "ticks": 4140,
          "time": 14.375011500000001,
          "velocity": 0.5984251968503937
        },
        {
          "duration": 0.05208337500000049,
          "durationTicks": 15,
          "midi": 40,
          "name": "E2",
          "ticks": 4170,
          "time": 14.47917825,
          "velocity": 0.5984251968503937
        },
        {
          "duration": 0.05208337500000049,
          "durationTicks": 15,
          "midi": 36,
          "name": "C2",
          "ticks": 4170,
          "time": 14.47917825,
          "velocity": 0.5984251968503937
        },
        {
          "duration": 0.05208337500000049,
          "durationTicks": 15,
          "midi": 40,
          "name": "E2",
          "ticks": 4200,
          "time": 14.583345,
          "velocity": 0.5984251968503937
        },
        {
          "duration": 0.05208337500000049,
          "durationTicks": 15,
          "midi": 42,
          "name": "F#2",
          "ticks": 4200,
          "time": 14.583345,
          "velocity": 0.5984251968503937
        },
        {
          "duration": 0.05208337500000049,
          "durationTicks": 15,
          "midi": 36,
          "name": "C2",
          "ticks": 4200,
          "time": 14.583345,
          "velocity": 0.5984251968503937
        },
        {
          "duration": 0.05208337500000049,
          "durationTicks": 15,
          "midi": 42,
          "name": "F#2",
          "ticks": 4230,
          "time": 14.68751175,
          "velocity": 0.5984251968503937
        },
        {
          "duration": 0.05208337500000049,
          "durationTicks": 15,
          "midi": 36,
          "name": "C2",
          "ticks": 4260,
          "time": 14.7916785,
          "velocity": 0.5984251968503937
        },
        {
          "duration": 0.05208337500000049,
          "durationTicks": 15,
          "midi": 46,
          "name": "A#2",
          "ticks": 4260,
          "time": 14.7916785,
          "velocity": 0.5984251968503937
        },
        {
          "duration": 0.05208337500000049,
          "durationTicks": 15,
          "midi": 40,
          "name": "E2",
          "ticks": 4260,
          "time": 14.7916785,
          "velocity": 0.5984251968503937
        },
        {
          "duration": 0.05208337500000049,
          "durationTicks": 15,
          "midi": 40,
          "name": "E2",
          "ticks": 4290,
          "time": 14.89584525,
          "velocity": 0.5984251968503937
        },
        {
          "duration": 0.05208337500000049,
          "durationTicks": 15,
          "midi": 42,
          "name": "F#2",
          "ticks": 4320,
          "time": 15.000012,
          "velocity": 0.5984251968503937
        },
        {
          "duration": 0.05208337500000049,
          "durationTicks": 15,
          "midi": 49,
          "name": "C#3",
          "ticks": 4320,
          "time": 15.000012,
          "velocity": 0.5984251968503937
        },
        {
          "duration": 0.05208337500000049,
          "durationTicks": 15,
          "midi": 36,
          "name": "C2",
          "ticks": 4320,
          "time": 15.000012,
          "velocity": 0.5984251968503937
        },
        {
          "duration": 0.05208337499999871,
          "durationTicks": 15,
          "midi": 42,
          "name": "F#2",
          "ticks": 4350,
          "time": 15.10417875,
          "velocity": 0.5984251968503937
        },
        {
          "duration": 0.05208337500000049,
          "durationTicks": 15,
          "midi": 46,
          "name": "A#2",
          "ticks": 4380,
          "time": 15.2083455,
          "velocity": 0.5984251968503937
        },
        {
          "duration": 0.05208337500000049,
          "durationTicks": 15,
          "midi": 40,
          "name": "E2",
          "ticks": 4440,
          "time": 15.416679,
          "velocity": 0.5984251968503937
        },
        {
          "duration": 0.05208337500000049,
          "durationTicks": 15,
          "midi": 42,
          "name": "F#2",
          "ticks": 4440,
          "time": 15.416679,
          "velocity": 0.5984251968503937
        },
        {
          "duration": 0.05208337499999871,
          "durationTicks": 15,
          "midi": 42,
          "name": "F#2",
          "ticks": 4470,
          "time": 15.520845750000001,
          "velocity": 0.5984251968503937
        },
        {
          "duration": 0.05208337500000049,
          "durationTicks": 15,
          "midi": 36,
          "name": "C2",
          "ticks": 4500,
          "time": 15.6250125,
          "velocity": 0.5984251968503937
        },
        {
          "duration": 0.05208337500000049,
          "durationTicks": 15,
          "midi": 46,
          "name": "A#2",
          "ticks": 4500,
          "time": 15.6250125,
          "velocity": 0.5984251968503937
        },
        {
          "duration": 0.05208337500000049,
          "durationTicks": 15,
          "midi": 36,
          "name": "C2",
          "ticks": 4530,
          "time": 15.72917925,
          "velocity": 0.5984251968503937
        },
        {
          "duration": 0.05208337500000049,
          "durationTicks": 15,
          "midi": 36,
          "name": "C2",
          "ticks": 4560,
          "time": 15.833346,
          "velocity": 0.5984251968503937
        },
        {
          "duration": 0.05208337500000049,
          "durationTicks": 15,
          "midi": 42,
          "name": "F#2",
          "ticks": 4560,
          "time": 15.833346,
          "velocity": 0.5984251968503937
        },
        {
          "duration": 0.05208337500000049,
          "durationTicks": 15,
          "midi": 42,
          "name": "F#2",
          "ticks": 4590,
          "time": 15.93751275,
          "velocity": 0.5984251968503937
        },
        {
          "duration": 0.05208337499999871,
          "durationTicks": 15,
          "midi": 36,
          "name": "C2",
          "ticks": 4620,
          "time": 16.0416795,
          "velocity": 0.5984251968503937
        },
        {
          "duration": 0.05208337499999871,
          "durationTicks": 15,
          "midi": 46,
          "name": "A#2",
          "ticks": 4620,
          "time": 16.0416795,
          "velocity": 0.5984251968503937
        },
        {
          "duration": 0.05208337499999871,
          "durationTicks": 15,
          "midi": 40,
          "name": "E2",
          "ticks": 4620,
          "time": 16.0416795,
          "velocity": 0.5984251968503937
        },
        {
          "duration": 0.05208337500000226,
          "durationTicks": 15,
          "midi": 36,
          "name": "C2",
          "ticks": 4680,
          "time": 16.250013,
          "velocity": 0.5984251968503937
        },
        {
          "duration": 0.05208337500000226,
          "durationTicks": 15,
          "midi": 42,
          "name": "F#2",
          "ticks": 4680,
          "time": 16.250013,
          "velocity": 0.5984251968503937
        },
        {
          "duration": 0.05208337499999871,
          "durationTicks": 15,
          "midi": 42,
          "name": "F#2",
          "ticks": 4710,
          "time": 16.35417975,
          "velocity": 0.5984251968503937
        },
        {
          "duration": 0.05208337499999871,
          "durationTicks": 15,
          "midi": 46,
          "name": "A#2",
          "ticks": 4740,
          "time": 16.4583465,
          "velocity": 0.5984251968503937
        },
        {
          "duration": 0.05208337500000226,
          "durationTicks": 15,
          "midi": 40,
          "name": "E2",
          "ticks": 4800,
          "time": 16.66668,
          "velocity": 0.5984251968503937
        },
        {
          "duration": 0.05208337500000226,
          "durationTicks": 15,
          "midi": 42,
          "name": "F#2",
          "ticks": 4800,
          "time": 16.66668,
          "velocity": 0.5984251968503937
        },
        {
          "duration": 0.05208337499999871,
          "durationTicks": 15,
          "midi": 42,
          "name": "F#2",
          "ticks": 4830,
          "time": 16.77084675,
          "velocity": 0.5984251968503937
        },
        {
          "duration": 0.05208337499999871,
          "durationTicks": 15,
          "midi": 36,
          "name": "C2",
          "ticks": 4860,
          "time": 16.8750135,
          "velocity": 0.5984251968503937
        },
        {
          "duration": 0.05208337499999871,
          "durationTicks": 15,
          "midi": 46,
          "name": "A#2",
          "ticks": 4860,
          "time": 16.8750135,
          "velocity": 0.5984251968503937
        },
        {
          "duration": 0.05208337500000226,
          "durationTicks": 15,
          "midi": 36,
          "name": "C2",
          "ticks": 4890,
          "time": 16.97918025,
          "velocity": 0.5984251968503937
        },
        {
          "duration": 0.05208337500000226,
          "durationTicks": 15,
          "midi": 42,
          "name": "F#2",
          "ticks": 4920,
          "time": 17.083347,
          "velocity": 0.5984251968503937
        },
        {
          "duration": 0.05208337500000226,
          "durationTicks": 15,
          "midi": 36,
          "name": "C2",
          "ticks": 4920,
          "time": 17.083347,
          "velocity": 0.5984251968503937
        },
        {
          "duration": 0.05208337499999871,
          "durationTicks": 15,
          "midi": 42,
          "name": "F#2",
          "ticks": 4950,
          "time": 17.18751375,
          "velocity": 0.5984251968503937
        },
        {
          "duration": 0.05208337499999871,
          "durationTicks": 15,
          "midi": 36,
          "name": "C2",
          "ticks": 4980,
          "time": 17.291680500000002,
          "velocity": 0.5984251968503937
        },
        {
          "duration": 0.05208337499999871,
          "durationTicks": 15,
          "midi": 46,
          "name": "A#2",
          "ticks": 4980,
          "time": 17.291680500000002,
          "velocity": 0.5984251968503937
        },
        {
          "duration": 0.05208337499999871,
          "durationTicks": 15,
          "midi": 40,
          "name": "E2",
          "ticks": 4980,
          "time": 17.291680500000002,
          "velocity": 0.5984251968503937
        },
        {
          "duration": 0.05208337499999871,
          "durationTicks": 15,
          "midi": 36,
          "name": "C2",
          "ticks": 5040,
          "time": 17.500014,
          "velocity": 0.5984251968503937
        },
        {
          "duration": 0.05208337499999871,
          "durationTicks": 15,
          "midi": 42,
          "name": "F#2",
          "ticks": 5040,
          "time": 17.500014,
          "velocity": 0.5984251968503937
        },
        {
          "duration": 0.05208337499999871,
          "durationTicks": 15,
          "midi": 42,
          "name": "F#2",
          "ticks": 5070,
          "time": 17.60418075,
          "velocity": 0.5984251968503937
        },
        {
          "duration": 0.05208337499999871,
          "durationTicks": 15,
          "midi": 46,
          "name": "A#2",
          "ticks": 5100,
          "time": 17.708347500000002,
          "velocity": 0.5984251968503937
        },
        {
          "duration": 0.05208337499999871,
          "durationTicks": 15,
          "midi": 40,
          "name": "E2",
          "ticks": 5160,
          "time": 17.916681,
          "velocity": 0.5984251968503937
        },
        {
          "duration": 0.05208337499999871,
          "durationTicks": 15,
          "midi": 42,
          "name": "F#2",
          "ticks": 5160,
          "time": 17.916681,
          "velocity": 0.5984251968503937
        },
        {
          "duration": 0.05208337499999871,
          "durationTicks": 15,
          "midi": 42,
          "name": "F#2",
          "ticks": 5190,
          "time": 18.02084775,
          "velocity": 0.5984251968503937
        },
        {
          "duration": 0.05208337500000226,
          "durationTicks": 15,
          "midi": 36,
          "name": "C2",
          "ticks": 5220,
          "time": 18.1250145,
          "velocity": 0.5984251968503937
        },
        {
          "duration": 0.05208337500000226,
          "durationTicks": 15,
          "midi": 46,
          "name": "A#2",
          "ticks": 5220,
          "time": 18.1250145,
          "velocity": 0.5984251968503937
        },
        {
          "duration": 0.05208337500000226,
          "durationTicks": 15,
          "midi": 36,
          "name": "C2",
          "ticks": 5250,
          "time": 18.22918125,
          "velocity": 0.5984251968503937
        },
        {
          "duration": 0.05208337499999871,
          "durationTicks": 15,
          "midi": 42,
          "name": "F#2",
          "ticks": 5280,
          "time": 18.333348,
          "velocity": 0.5984251968503937
        },
        {
          "duration": 0.05208337499999871,
          "durationTicks": 15,
          "midi": 36,
          "name": "C2",
          "ticks": 5280,
          "time": 18.333348,
          "velocity": 0.5984251968503937
        },
        {
          "duration": 0.05208337499999871,
          "durationTicks": 15,
          "midi": 42,
          "name": "F#2",
          "ticks": 5310,
          "time": 18.437514750000002,
          "velocity": 0.5984251968503937
        },
        {
          "duration": 0.05208337500000226,
          "durationTicks": 15,
          "midi": 36,
          "name": "C2",
          "ticks": 5340,
          "time": 18.5416815,
          "velocity": 0.5984251968503937
        },
        {
          "duration": 0.05208337500000226,
          "durationTicks": 15,
          "midi": 46,
          "name": "A#2",
          "ticks": 5340,
          "time": 18.5416815,
          "velocity": 0.5984251968503937
        },
        {
          "duration": 0.05208337500000226,
          "durationTicks": 15,
          "midi": 40,
          "name": "E2",
          "ticks": 5340,
          "time": 18.5416815,
          "velocity": 0.5984251968503937
        },
        {
          "duration": 0.05208337499999871,
          "durationTicks": 15,
          "midi": 36,
          "name": "C2",
          "ticks": 5400,
          "time": 18.750015,
          "velocity": 0.5984251968503937
        },
        {
          "duration": 0.05208337499999871,
          "durationTicks": 15,
          "midi": 42,
          "name": "F#2",
          "ticks": 5400,
          "time": 18.750015,
          "velocity": 0.5984251968503937
        },
        {
          "duration": 0.05208337499999871,
          "durationTicks": 15,
          "midi": 42,
          "name": "F#2",
          "ticks": 5430,
          "time": 18.854181750000002,
          "velocity": 0.5984251968503937
        },
        {
          "duration": 0.05208337500000226,
          "durationTicks": 15,
          "midi": 36,
          "name": "C2",
          "ticks": 5460,
          "time": 18.9583485,
          "velocity": 0.5984251968503937
        },
        {
          "duration": 0.05208337500000226,
          "durationTicks": 15,
          "midi": 46,
          "name": "A#2",
          "ticks": 5460,
          "time": 18.9583485,
          "velocity": 0.5984251968503937
        },
        {
          "duration": 0.05208337499999871,
          "durationTicks": 15,
          "midi": 40,
          "name": "E2",
          "ticks": 5520,
          "time": 19.166682,
          "velocity": 0.5984251968503937
        },
        {
          "duration": 0.05208337499999871,
          "durationTicks": 15,
          "midi": 42,
          "name": "F#2",
          "ticks": 5520,
          "time": 19.166682,
          "velocity": 0.5984251968503937
        },
        {
          "duration": 0.05208337500000226,
          "durationTicks": 15,
          "midi": 42,
          "name": "F#2",
          "ticks": 5550,
          "time": 19.27084875,
          "velocity": 0.5984251968503937
        },
        {
          "duration": 0.05208337500000226,
          "durationTicks": 15,
          "midi": 40,
          "name": "E2",
          "ticks": 5580,
          "time": 19.3750155,
          "velocity": 0.5984251968503937
        },
        {
          "duration": 0.05208337500000226,
          "durationTicks": 15,
          "midi": 36,
          "name": "C2",
          "ticks": 5580,
          "time": 19.3750155,
          "velocity": 0.5984251968503937
        },
        {
          "duration": 0.05208337500000226,
          "durationTicks": 15,
          "midi": 46,
          "name": "A#2",
          "ticks": 5580,
          "time": 19.3750155,
          "velocity": 0.5984251968503937
        },
        {
          "duration": 0.05208337499999871,
          "durationTicks": 15,
          "midi": 40,
          "name": "E2",
          "ticks": 5610,
          "time": 19.47918225,
          "velocity": 0.5984251968503937
        },
        {
          "duration": 0.05208337499999871,
          "durationTicks": 15,
          "midi": 36,
          "name": "C2",
          "ticks": 5610,
          "time": 19.47918225,
          "velocity": 0.5984251968503937
        },
        {
          "duration": 0.05208337499999871,
          "durationTicks": 15,
          "midi": 40,
          "name": "E2",
          "ticks": 5640,
          "time": 19.583349000000002,
          "velocity": 0.5984251968503937
        },
        {
          "duration": 0.05208337499999871,
          "durationTicks": 15,
          "midi": 42,
          "name": "F#2",
          "ticks": 5640,
          "time": 19.583349000000002,
          "velocity": 0.5984251968503937
        },
        {
          "duration": 0.05208337499999871,
          "durationTicks": 15,
          "midi": 36,
          "name": "C2",
          "ticks": 5640,
          "time": 19.583349000000002,
          "velocity": 0.5984251968503937
        },
        {
          "duration": 0.05208337500000226,
          "durationTicks": 15,
          "midi": 40,
          "name": "E2",
          "ticks": 5670,
          "time": 19.68751575,
          "velocity": 0.5984251968503937
        },
        {
          "duration": 0.05208337500000226,
          "durationTicks": 15,
          "midi": 42,
          "name": "F#2",
          "ticks": 5670,
          "time": 19.68751575,
          "velocity": 0.5984251968503937
        },
        {
          "duration": 0.05208337499999871,
          "durationTicks": 15,
          "midi": 36,
          "name": "C2",
          "ticks": 5700,
          "time": 19.7916825,
          "velocity": 0.5984251968503937
        },
        {
          "duration": 0.05208337499999871,
          "durationTicks": 15,
          "midi": 46,
          "name": "A#2",
          "ticks": 5700,
          "time": 19.7916825,
          "velocity": 0.5984251968503937
        },
        {
          "duration": 0.05208337499999871,
          "durationTicks": 15,
          "midi": 40,
          "name": "E2",
          "ticks": 5700,
          "time": 19.7916825,
          "velocity": 0.5984251968503937
        },
        {
          "duration": 0.05208337499999871,
          "durationTicks": 15,
          "midi": 42,
          "name": "F#2",
          "ticks": 5760,
          "time": 20.000016000000002,
          "velocity": 0.5984251968503937
        },
        {
          "duration": 0.05208337499999871,
          "durationTicks": 15,
          "midi": 49,
          "name": "C#3",
          "ticks": 5760,
          "time": 20.000016000000002,
          "velocity": 0.5984251968503937
        },
        {
          "duration": 0.05208337499999871,
          "durationTicks": 15,
          "midi": 36,
          "name": "C2",
          "ticks": 5760,
          "time": 20.000016000000002,
          "velocity": 0.5984251968503937
        },
        {
          "duration": 0.05208337500000226,
          "durationTicks": 15,
          "midi": 42,
          "name": "F#2",
          "ticks": 5790,
          "time": 20.10418275,
          "velocity": 0.5984251968503937
        },
        {
          "duration": 0.05208337499999871,
          "durationTicks": 15,
          "midi": 46,
          "name": "A#2",
          "ticks": 5820,
          "time": 20.2083495,
          "velocity": 0.5984251968503937
        },
        {
          "duration": 0.05208337500000226,
          "durationTicks": 15,
          "midi": 40,
          "name": "E2",
          "ticks": 5880,
          "time": 20.416683,
          "velocity": 0.5984251968503937
        },
        {
          "duration": 0.05208337500000226,
          "durationTicks": 15,
          "midi": 42,
          "name": "F#2",
          "ticks": 5880,
          "time": 20.416683,
          "velocity": 0.5984251968503937
        },
        {
          "duration": 0.05208337499999871,
          "durationTicks": 15,
          "midi": 42,
          "name": "F#2",
          "ticks": 5910,
          "time": 20.52084975,
          "velocity": 0.5984251968503937
        },
        {
          "duration": 0.05208337499999871,
          "durationTicks": 15,
          "midi": 36,
          "name": "C2",
          "ticks": 5940,
          "time": 20.6250165,
          "velocity": 0.5984251968503937
        },
        {
          "duration": 0.05208337499999871,
          "durationTicks": 15,
          "midi": 46,
          "name": "A#2",
          "ticks": 5940,
          "time": 20.6250165,
          "velocity": 0.5984251968503937
        },
        {
          "duration": 0.05208337499999871,
          "durationTicks": 15,
          "midi": 36,
          "name": "C2",
          "ticks": 5970,
          "time": 20.729183250000002,
          "velocity": 0.5984251968503937
        },
        {
          "duration": 0.05208337500000226,
          "durationTicks": 15,
          "midi": 36,
          "name": "C2",
          "ticks": 6000,
          "time": 20.83335,
          "velocity": 0.5984251968503937
        },
        {
          "duration": 0.05208337500000226,
          "durationTicks": 15,
          "midi": 42,
          "name": "F#2",
          "ticks": 6000,
          "time": 20.83335,
          "velocity": 0.5984251968503937
        },
        {
          "duration": 0.05208337499999871,
          "durationTicks": 15,
          "midi": 42,
          "name": "F#2",
          "ticks": 6030,
          "time": 20.93751675,
          "velocity": 0.5984251968503937
        },
        {
          "duration": 0.05208337499999871,
          "durationTicks": 15,
          "midi": 36,
          "name": "C2",
          "ticks": 6060,
          "time": 21.0416835,
          "velocity": 0.5984251968503937
        },
        {
          "duration": 0.05208337499999871,
          "durationTicks": 15,
          "midi": 46,
          "name": "A#2",
          "ticks": 6060,
          "time": 21.0416835,
          "velocity": 0.5984251968503937
        },
        {
          "duration": 0.05208337499999871,
          "durationTicks": 15,
          "midi": 40,
          "name": "E2",
          "ticks": 6060,
          "time": 21.0416835,
          "velocity": 0.5984251968503937
        },
        {
          "duration": 0.05208337500000226,
          "durationTicks": 15,
          "midi": 36,
          "name": "C2",
          "ticks": 6120,
          "time": 21.250017,
          "velocity": 0.5984251968503937
        },
        {
          "duration": 0.05208337500000226,
          "durationTicks": 15,
          "midi": 42,
          "name": "F#2",
          "ticks": 6120,
          "time": 21.250017,
          "velocity": 0.5984251968503937
        },
        {
          "duration": 0.05208337499999871,
          "durationTicks": 15,
          "midi": 42,
          "name": "F#2",
          "ticks": 6150,
          "time": 21.35418375,
          "velocity": 0.5984251968503937
        },
        {
          "duration": 0.05208337499999871,
          "durationTicks": 15,
          "midi": 46,
          "name": "A#2",
          "ticks": 6180,
          "time": 21.4583505,
          "velocity": 0.5984251968503937
        },
        {
          "duration": 0.05208337499999871,
          "durationTicks": 15,
          "midi": 40,
          "name": "E2",
          "ticks": 6240,
          "time": 21.666684,
          "velocity": 0.5984251968503937
        },
        {
          "duration": 0.05208337499999871,
          "durationTicks": 15,
          "midi": 42,
          "name": "F#2",
          "ticks": 6240,
          "time": 21.666684,
          "velocity": 0.5984251968503937
        },
        {
          "duration": 0.05208337499999871,
          "durationTicks": 15,
          "midi": 42,
          "name": "F#2",
          "ticks": 6270,
          "time": 21.77085075,
          "velocity": 0.5984251968503937
        },
        {
          "duration": 0.05208337499999871,
          "durationTicks": 15,
          "midi": 36,
          "name": "C2",
          "ticks": 6300,
          "time": 21.875017500000002,
          "velocity": 0.5984251968503937
        },
        {
          "duration": 0.05208337499999871,
          "durationTicks": 15,
          "midi": 46,
          "name": "A#2",
          "ticks": 6300,
          "time": 21.875017500000002,
          "velocity": 0.5984251968503937
        },
        {
          "duration": 0.05208337500000226,
          "durationTicks": 15,
          "midi": 36,
          "name": "C2",
          "ticks": 6330,
          "time": 21.97918425,
          "velocity": 0.5984251968503937
        },
        {
          "duration": 0.05208337499999871,
          "durationTicks": 15,
          "midi": 40,
          "name": "E2",
          "ticks": 6360,
          "time": 22.083351,
          "velocity": 0.5984251968503937
        },
        {
          "duration": 0.05208337499999871,
          "durationTicks": 15,
          "midi": 42,
          "name": "F#2",
          "ticks": 6360,
          "time": 22.083351,
          "velocity": 0.5984251968503937
        },
        {
          "duration": 0.05208337499999871,
          "durationTicks": 15,
          "midi": 36,
          "name": "C2",
          "ticks": 6360,
          "time": 22.083351,
          "velocity": 0.5984251968503937
        },
        {
          "duration": 0.05208337499999871,
          "durationTicks": 15,
          "midi": 40,
          "name": "E2",
          "ticks": 6390,
          "time": 22.18751775,
          "velocity": 0.5984251968503937
        },
        {
          "duration": 0.05208337499999871,
          "durationTicks": 15,
          "midi": 42,
          "name": "F#2",
          "ticks": 6390,
          "time": 22.18751775,
          "velocity": 0.5984251968503937
        },
        {
          "duration": 0.05208337500000226,
          "durationTicks": 15,
          "midi": 36,
          "name": "C2",
          "ticks": 6420,
          "time": 22.2916845,
          "velocity": 0.5984251968503937
        },
        {
          "duration": 0.05208337500000226,
          "durationTicks": 15,
          "midi": 46,
          "name": "A#2",
          "ticks": 6420,
          "time": 22.2916845,
          "velocity": 0.5984251968503937
        },
        {
          "duration": 0.05208337500000226,
          "durationTicks": 15,
          "midi": 40,
          "name": "E2",
          "ticks": 6420,
          "time": 22.2916845,
          "velocity": 0.5984251968503937
        },
        {
          "duration": 0.05208337499999871,
          "durationTicks": 15,
          "midi": 36,
          "name": "C2",
          "ticks": 6480,
          "time": 22.500018,
          "velocity": 0.5984251968503937
        },
        {
          "duration": 0.05208337499999871,
          "durationTicks": 15,
          "midi": 42,
          "name": "F#2",
          "ticks": 6480,
          "time": 22.500018,
          "velocity": 0.5984251968503937
        },
        {
          "duration": 0.05208337499999871,
          "durationTicks": 15,
          "midi": 42,
          "name": "F#2",
          "ticks": 6510,
          "time": 22.60418475,
          "velocity": 0.5984251968503937
        },
        {
          "duration": 0.05208337500000226,
          "durationTicks": 15,
          "midi": 46,
          "name": "A#2",
          "ticks": 6540,
          "time": 22.7083515,
          "velocity": 0.5984251968503937
        },
        {
          "duration": 0.05208337499999871,
          "durationTicks": 15,
          "midi": 40,
          "name": "E2",
          "ticks": 6600,
          "time": 22.916685,
          "velocity": 0.5984251968503937
        },
        {
          "duration": 0.05208337499999871,
          "durationTicks": 15,
          "midi": 42,
          "name": "F#2",
          "ticks": 6600,
          "time": 22.916685,
          "velocity": 0.5984251968503937
        },
        {
          "duration": 0.05208337499999871,
          "durationTicks": 15,
          "midi": 42,
          "name": "F#2",
          "ticks": 6630,
          "time": 23.020851750000002,
          "velocity": 0.5984251968503937
        },
        {
          "duration": 0.05208337500000226,
          "durationTicks": 15,
          "midi": 36,
          "name": "C2",
          "ticks": 6660,
          "time": 23.1250185,
          "velocity": 0.5984251968503937
        },
        {
          "duration": 0.05208337500000226,
          "durationTicks": 15,
          "midi": 46,
          "name": "A#2",
          "ticks": 6660,
          "time": 23.1250185,
          "velocity": 0.5984251968503937
        },
        {
          "duration": 0.05208337499999871,
          "durationTicks": 15,
          "midi": 36,
          "name": "C2",
          "ticks": 6690,
          "time": 23.22918525,
          "velocity": 0.5984251968503937
        },
        {
          "duration": 0.05208337499999871,
          "durationTicks": 15,
          "midi": 42,
          "name": "F#2",
          "ticks": 6720,
          "time": 23.333352,
          "velocity": 0.5984251968503937
        },
        {
          "duration": 0.05208337499999871,
          "durationTicks": 15,
          "midi": 36,
          "name": "C2",
          "ticks": 6720,
          "time": 23.333352,
          "velocity": 0.5984251968503937
        },
        {
          "duration": 0.05208337500000226,
          "durationTicks": 15,
          "midi": 42,
          "name": "F#2",
          "ticks": 6750,
          "time": 23.43751875,
          "velocity": 0.5984251968503937
        },
        {
          "duration": 0.05208337500000226,
          "durationTicks": 15,
          "midi": 36,
          "name": "C2",
          "ticks": 6780,
          "time": 23.5416855,
          "velocity": 0.5984251968503937
        },
        {
          "duration": 0.05208337500000226,
          "durationTicks": 15,
          "midi": 46,
          "name": "A#2",
          "ticks": 6780,
          "time": 23.5416855,
          "velocity": 0.5984251968503937
        },
        {
          "duration": 0.05208337500000226,
          "durationTicks": 15,
          "midi": 40,
          "name": "E2",
          "ticks": 6780,
          "time": 23.5416855,
          "velocity": 0.5984251968503937
        },
        {
          "duration": 0.05208337499999871,
          "durationTicks": 15,
          "midi": 36,
          "name": "C2",
          "ticks": 6840,
          "time": 23.750019,
          "velocity": 0.5984251968503937
        },
        {
          "duration": 0.05208337499999871,
          "durationTicks": 15,
          "midi": 42,
          "name": "F#2",
          "ticks": 6840,
          "time": 23.750019,
          "velocity": 0.5984251968503937
        },
        {
          "duration": 0.05208337500000226,
          "durationTicks": 15,
          "midi": 42,
          "name": "F#2",
          "ticks": 6870,
          "time": 23.85418575,
          "velocity": 0.5984251968503937
        },
        {
          "duration": 0.05208337499999871,
          "durationTicks": 15,
          "midi": 36,
          "name": "C2",
          "ticks": 6900,
          "time": 23.9583525,
          "velocity": 0.5984251968503937
        },
        {
          "duration": 0.05208337499999871,
          "durationTicks": 15,
          "midi": 46,
          "name": "A#2",
          "ticks": 6900,
          "time": 23.9583525,
          "velocity": 0.5984251968503937
        },
        {
          "duration": 0.05208337499999871,
          "durationTicks": 15,
          "midi": 40,
          "name": "E2",
          "ticks": 6960,
          "time": 24.166686000000002,
          "velocity": 0.5984251968503937
        },
        {
          "duration": 0.05208337499999871,
          "durationTicks": 15,
          "midi": 42,
          "name": "F#2",
          "ticks": 6960,
          "time": 24.166686000000002,
          "velocity": 0.5984251968503937
        },
        {
          "duration": 0.05208337500000226,
          "durationTicks": 15,
          "midi": 42,
          "name": "F#2",
          "ticks": 6990,
          "time": 24.27085275,
          "velocity": 0.5984251968503937
        },
        {
          "duration": 0.05208337499999871,
          "durationTicks": 15,
          "midi": 40,
          "name": "E2",
          "ticks": 7020,
          "time": 24.3750195,
          "velocity": 0.5984251968503937
        },
        {
          "duration": 0.05208337499999871,
          "durationTicks": 15,
          "midi": 36,
          "name": "C2",
          "ticks": 7020,
          "time": 24.3750195,
          "velocity": 0.5984251968503937
        },
        {
          "duration": 0.05208337499999871,
          "durationTicks": 15,
          "midi": 46,
          "name": "A#2",
          "ticks": 7020,
          "time": 24.3750195,
          "velocity": 0.5984251968503937
        },
        {
          "duration": 0.05208337499999871,
          "durationTicks": 15,
          "midi": 40,
          "name": "E2",
          "ticks": 7050,
          "time": 24.47918625,
          "velocity": 0.5984251968503937
        },
        {
          "duration": 0.05208337499999871,
          "durationTicks": 15,
          "midi": 36,
          "name": "C2",
          "ticks": 7050,
          "time": 24.47918625,
          "velocity": 0.5984251968503937
        },
        {
          "duration": 0.05208337500000226,
          "durationTicks": 15,
          "midi": 40,
          "name": "E2",
          "ticks": 7080,
          "time": 24.583353,
          "velocity": 0.5984251968503937
        },
        {
          "duration": 0.05208337500000226,
          "durationTicks": 15,
          "midi": 42,
          "name": "F#2",
          "ticks": 7080,
          "time": 24.583353,
          "velocity": 0.5984251968503937
        },
        {
          "duration": 0.05208337500000226,
          "durationTicks": 15,
          "midi": 36,
          "name": "C2",
          "ticks": 7080,
          "time": 24.583353,
          "velocity": 0.5984251968503937
        },
        {
          "duration": 0.05208337500000226,
          "durationTicks": 15,
          "midi": 42,
          "name": "F#2",
          "ticks": 7110,
          "time": 24.68751975,
          "velocity": 0.5984251968503937
        },
        {
          "duration": 0.05208337499999871,
          "durationTicks": 15,
          "midi": 36,
          "name": "C2",
          "ticks": 7140,
          "time": 24.7916865,
          "velocity": 0.5984251968503937
        },
        {
          "duration": 0.05208337499999871,
          "durationTicks": 15,
          "midi": 46,
          "name": "A#2",
          "ticks": 7140,
          "time": 24.7916865,
          "velocity": 0.5984251968503937
        },
        {
          "duration": 0.05208337499999871,
          "durationTicks": 15,
          "midi": 40,
          "name": "E2",
          "ticks": 7140,
          "time": 24.7916865,
          "velocity": 0.5984251968503937
        },
        {
          "duration": 0.05208337499999871,
          "durationTicks": 15,
          "midi": 40,
          "name": "E2",
          "ticks": 7170,
          "time": 24.895853250000002,
          "velocity": 0.5984251968503937
        },
        {
          "duration": 0.05208337500000226,
          "durationTicks": 15,
          "midi": 42,
          "name": "F#2",
          "ticks": 7200,
          "time": 25.00002,
          "velocity": 0.5984251968503937
        },
        {
          "duration": 0.05208337500000226,
          "durationTicks": 15,
          "midi": 49,
          "name": "C#3",
          "ticks": 7200,
          "time": 25.00002,
          "velocity": 0.5984251968503937
        },
        {
          "duration": 0.05208337500000226,
          "durationTicks": 15,
          "midi": 36,
          "name": "C2",
          "ticks": 7200,
          "time": 25.00002,
          "velocity": 0.5984251968503937
        },
        {
          "duration": 0.05208337499999871,
          "durationTicks": 15,
          "midi": 42,
          "name": "F#2",
          "ticks": 7230,
          "time": 25.10418675,
          "velocity": 0.5984251968503937
        },
        {
          "duration": 0.05208337499999871,
          "durationTicks": 15,
          "midi": 46,
          "name": "A#2",
          "ticks": 7260,
          "time": 25.2083535,
          "velocity": 0.5984251968503937
        },
        {
          "duration": 0.05208337500000226,
          "durationTicks": 15,
          "midi": 40,
          "name": "E2",
          "ticks": 7320,
          "time": 25.416687,
          "velocity": 0.5984251968503937
        },
        {
          "duration": 0.05208337500000226,
          "durationTicks": 15,
          "midi": 42,
          "name": "F#2",
          "ticks": 7320,
          "time": 25.416687,
          "velocity": 0.5984251968503937
        },
        {
          "duration": 0.05208337499999871,
          "durationTicks": 15,
          "midi": 42,
          "name": "F#2",
          "ticks": 7350,
          "time": 25.52085375,
          "velocity": 0.5984251968503937
        },
        {
          "duration": 0.05208337499999871,
          "durationTicks": 15,
          "midi": 36,
          "name": "C2",
          "ticks": 7380,
          "time": 25.6250205,
          "velocity": 0.5984251968503937
        },
        {
          "duration": 0.05208337499999871,
          "durationTicks": 15,
          "midi": 46,
          "name": "A#2",
          "ticks": 7380,
          "time": 25.6250205,
          "velocity": 0.5984251968503937
        },
        {
          "duration": 0.05208337500000226,
          "durationTicks": 15,
          "midi": 36,
          "name": "C2",
          "ticks": 7410,
          "time": 25.72918725,
          "velocity": 0.5984251968503937
        },
        {
          "duration": 0.05208337500000226,
          "durationTicks": 15,
          "midi": 36,
          "name": "C2",
          "ticks": 7440,
          "time": 25.833354,
          "velocity": 0.5984251968503937
        },
        {
          "duration": 0.05208337500000226,
          "durationTicks": 15,
          "midi": 42,
          "name": "F#2",
          "ticks": 7440,
          "time": 25.833354,
          "velocity": 0.5984251968503937
        },
        {
          "duration": 0.05208337499999871,
          "durationTicks": 15,
          "midi": 42,
          "name": "F#2",
          "ticks": 7470,
          "time": 25.93752075,
          "velocity": 0.5984251968503937
        },
        {
          "duration": 0.05208337499999871,
          "durationTicks": 15,
          "midi": 36,
          "name": "C2",
          "ticks": 7500,
          "time": 26.041687500000002,
          "velocity": 0.5984251968503937
        },
        {
          "duration": 0.05208337499999871,
          "durationTicks": 15,
          "midi": 46,
          "name": "A#2",
          "ticks": 7500,
          "time": 26.041687500000002,
          "velocity": 0.5984251968503937
        },
        {
          "duration": 0.05208337499999871,
          "durationTicks": 15,
          "midi": 40,
          "name": "E2",
          "ticks": 7500,
          "time": 26.041687500000002,
          "velocity": 0.5984251968503937
        },
        {
          "duration": 0.05208337499999871,
          "durationTicks": 15,
          "midi": 36,
          "name": "C2",
          "ticks": 7560,
          "time": 26.250021,
          "velocity": 0.5984251968503937
        },
        {
          "duration": 0.05208337499999871,
          "durationTicks": 15,
          "midi": 42,
          "name": "F#2",
          "ticks": 7560,
          "time": 26.250021,
          "velocity": 0.5984251968503937
        },
        {
          "duration": 0.05208337499999871,
          "durationTicks": 15,
          "midi": 42,
          "name": "F#2",
          "ticks": 7590,
          "time": 26.35418775,
          "velocity": 0.5984251968503937
        },
        {
          "duration": 0.05208337499999871,
          "durationTicks": 15,
          "midi": 46,
          "name": "A#2",
          "ticks": 7620,
          "time": 26.458354500000002,
          "velocity": 0.5984251968503937
        },
        {
          "duration": 0.05208337499999871,
          "durationTicks": 15,
          "midi": 40,
          "name": "E2",
          "ticks": 7680,
          "time": 26.666688,
          "velocity": 0.5984251968503937
        },
        {
          "duration": 0.05208337499999871,
          "durationTicks": 15,
          "midi": 42,
          "name": "F#2",
          "ticks": 7680,
          "time": 26.666688,
          "velocity": 0.5984251968503937
        },
        {
          "duration": 0.05208337499999871,
          "durationTicks": 15,
          "midi": 42,
          "name": "F#2",
          "ticks": 7710,
          "time": 26.77085475,
          "velocity": 0.5984251968503937
        },
        {
          "duration": 0.05208337500000226,
          "durationTicks": 15,
          "midi": 36,
          "name": "C2",
          "ticks": 7740,
          "time": 26.8750215,
          "velocity": 0.5984251968503937
        },
        {
          "duration": 0.05208337500000226,
          "durationTicks": 15,
          "midi": 46,
          "name": "A#2",
          "ticks": 7740,
          "time": 26.8750215,
          "velocity": 0.5984251968503937
        },
        {
          "duration": 0.05208337500000226,
          "durationTicks": 15,
          "midi": 36,
          "name": "C2",
          "ticks": 7770,
          "time": 26.97918825,
          "velocity": 0.5984251968503937
        },
        {
          "duration": 0.05208337499999871,
          "durationTicks": 15,
          "midi": 42,
          "name": "F#2",
          "ticks": 7800,
          "time": 27.083355,
          "velocity": 0.5984251968503937
        },
        {
          "duration": 0.05208337499999871,
          "durationTicks": 15,
          "midi": 36,
          "name": "C2",
          "ticks": 7800,
          "time": 27.083355,
          "velocity": 0.5984251968503937
        },
        {
          "duration": 0.05208337499999871,
          "durationTicks": 15,
          "midi": 42,
          "name": "F#2",
          "ticks": 7830,
          "time": 27.187521750000002,
          "velocity": 0.5984251968503937
        },
        {
          "duration": 0.05208337500000226,
          "durationTicks": 15,
          "midi": 36,
          "name": "C2",
          "ticks": 7860,
          "time": 27.2916885,
          "velocity": 0.5984251968503937
        },
        {
          "duration": 0.05208337500000226,
          "durationTicks": 15,
          "midi": 46,
          "name": "A#2",
          "ticks": 7860,
          "time": 27.2916885,
          "velocity": 0.5984251968503937
        },
        {
          "duration": 0.05208337500000226,
          "durationTicks": 15,
          "midi": 40,
          "name": "E2",
          "ticks": 7860,
          "time": 27.2916885,
          "velocity": 0.5984251968503937
        },
        {
          "duration": 0.05208337499999871,
          "durationTicks": 15,
          "midi": 36,
          "name": "C2",
          "ticks": 7920,
          "time": 27.500022,
          "velocity": 0.5984251968503937
        },
        {
          "duration": 0.05208337499999871,
          "durationTicks": 15,
          "midi": 42,
          "name": "F#2",
          "ticks": 7920,
          "time": 27.500022,
          "velocity": 0.5984251968503937
        },
        {
          "duration": 0.05208337499999871,
          "durationTicks": 15,
          "midi": 42,
          "name": "F#2",
          "ticks": 7950,
          "time": 27.604188750000002,
          "velocity": 0.5984251968503937
        },
        {
          "duration": 0.05208337500000226,
          "durationTicks": 15,
          "midi": 46,
          "name": "A#2",
          "ticks": 7980,
          "time": 27.7083555,
          "velocity": 0.5984251968503937
        },
        {
          "duration": 0.05208337499999871,
          "durationTicks": 15,
          "midi": 40,
          "name": "E2",
          "ticks": 8040,
          "time": 27.916689,
          "velocity": 0.5984251968503937
        },
        {
          "duration": 0.05208337499999871,
          "durationTicks": 15,
          "midi": 42,
          "name": "F#2",
          "ticks": 8040,
          "time": 27.916689,
          "velocity": 0.5984251968503937
        },
        {
          "duration": 0.05208337500000226,
          "durationTicks": 15,
          "midi": 42,
          "name": "F#2",
          "ticks": 8070,
          "time": 28.02085575,
          "velocity": 0.5984251968503937
        },
        {
          "duration": 0.05208337500000226,
          "durationTicks": 15,
          "midi": 36,
          "name": "C2",
          "ticks": 8100,
          "time": 28.1250225,
          "velocity": 0.5984251968503937
        },
        {
          "duration": 0.05208337500000226,
          "durationTicks": 15,
          "midi": 46,
          "name": "A#2",
          "ticks": 8100,
          "time": 28.1250225,
          "velocity": 0.5984251968503937
        },
        {
          "duration": 0.05208337499999871,
          "durationTicks": 15,
          "midi": 40,
          "name": "E2",
          "ticks": 8130,
          "time": 28.22918925,
          "velocity": 0.5984251968503937
        },
        {
          "duration": 0.05208337499999871,
          "durationTicks": 15,
          "midi": 36,
          "name": "C2",
          "ticks": 8130,
          "time": 28.22918925,
          "velocity": 0.5984251968503937
        },
        {
          "duration": 0.05208337499999871,
          "durationTicks": 15,
          "midi": 40,
          "name": "E2",
          "ticks": 8160,
          "time": 28.333356000000002,
          "velocity": 0.5984251968503937
        },
        {
          "duration": 0.05208337499999871,
          "durationTicks": 15,
          "midi": 42,
          "name": "F#2",
          "ticks": 8160,
          "time": 28.333356000000002,
          "velocity": 0.5984251968503937
        },
        {
          "duration": 0.05208337499999871,
          "durationTicks": 15,
          "midi": 36,
          "name": "C2",
          "ticks": 8160,
          "time": 28.333356000000002,
          "velocity": 0.5984251968503937
        },
        {
          "duration": 0.05208337500000226,
          "durationTicks": 15,
          "midi": 42,
          "name": "F#2",
          "ticks": 8190,
          "time": 28.43752275,
          "velocity": 0.5984251968503937
        },
        {
          "duration": 0.05208337499999871,
          "durationTicks": 15,
          "midi": 40,
          "name": "E2",
          "ticks": 8220,
          "time": 28.5416895,
          "velocity": 0.5984251968503937
        },
        {
          "duration": 0.05208337499999871,
          "durationTicks": 15,
          "midi": 36,
          "name": "C2",
          "ticks": 8220,
          "time": 28.5416895,
          "velocity": 0.5984251968503937
        },
        {
          "duration": 0.05208337499999871,
          "durationTicks": 15,
          "midi": 46,
          "name": "A#2",
          "ticks": 8220,
          "time": 28.5416895,
          "velocity": 0.5984251968503937
        },
        {
          "duration": 0.05208337499999871,
          "durationTicks": 15,
          "midi": 40,
          "name": "E2",
          "ticks": 8280,
          "time": 28.750023000000002,
          "velocity": 0.5984251968503937
        },
        {
          "duration": 0.05208337499999871,
          "durationTicks": 15,
          "midi": 36,
          "name": "C2",
          "ticks": 8280,
          "time": 28.750023000000002,
          "velocity": 0.5984251968503937
        },
        {
          "duration": 0.05208337499999871,
          "durationTicks": 15,
          "midi": 42,
          "name": "F#2",
          "ticks": 8280,
          "time": 28.750023000000002,
          "velocity": 0.5984251968503937
        },
        {
          "duration": 0.05208337500000226,
          "durationTicks": 15,
          "midi": 42,
          "name": "F#2",
          "ticks": 8310,
          "time": 28.85418975,
          "velocity": 0.5984251968503937
        },
        {
          "duration": 0.05208337499999871,
          "durationTicks": 15,
          "midi": 36,
          "name": "C2",
          "ticks": 8340,
          "time": 28.9583565,
          "velocity": 0.5984251968503937
        },
        {
          "duration": 0.05208337499999871,
          "durationTicks": 15,
          "midi": 46,
          "name": "A#2",
          "ticks": 8340,
          "time": 28.9583565,
          "velocity": 0.5984251968503937
        },
        {
          "duration": 0.05208337500000226,
          "durationTicks": 15,
          "midi": 40,
          "name": "E2",
          "ticks": 8400,
          "time": 29.16669,
          "velocity": 0.5984251968503937
        },
        {
          "duration": 0.05208337500000226,
          "durationTicks": 15,
          "midi": 42,
          "name": "F#2",
          "ticks": 8400,
          "time": 29.16669,
          "velocity": 0.5984251968503937
        },
        {
          "duration": 0.05208337500000226,
          "durationTicks": 15,
          "midi": 42,
          "name": "F#2",
          "ticks": 8430,
          "time": 29.27085675,
          "velocity": 0.5984251968503937
        },
        {
          "duration": 0.05208337499999871,
          "durationTicks": 15,
          "midi": 40,
          "name": "E2",
          "ticks": 8460,
          "time": 29.3750235,
          "velocity": 0.5984251968503937
        },
        {
          "duration": 0.05208337499999871,
          "durationTicks": 15,
          "midi": 36,
          "name": "C2",
          "ticks": 8460,
          "time": 29.3750235,
          "velocity": 0.5984251968503937
        },
        {
          "duration": 0.05208337499999871,
          "durationTicks": 15,
          "midi": 46,
          "name": "A#2",
          "ticks": 8460,
          "time": 29.3750235,
          "velocity": 0.5984251968503937
        },
        {
          "duration": 0.05208337499999871,
          "durationTicks": 15,
          "midi": 40,
          "name": "E2",
          "ticks": 8490,
          "time": 29.479190250000002,
          "velocity": 0.5984251968503937
        },
        {
          "duration": 0.05208337499999871,
          "durationTicks": 15,
          "midi": 36,
          "name": "C2",
          "ticks": 8490,
          "time": 29.479190250000002,
          "velocity": 0.5984251968503937
        },
        {
          "duration": 0.05208337500000226,
          "durationTicks": 15,
          "midi": 40,
          "name": "E2",
          "ticks": 8520,
          "time": 29.583357,
          "velocity": 0.5984251968503937
        },
        {
          "duration": 0.05208337500000226,
          "durationTicks": 15,
          "midi": 42,
          "name": "F#2",
          "ticks": 8520,
          "time": 29.583357,
          "velocity": 0.5984251968503937
        },
        {
          "duration": 0.05208337500000226,
          "durationTicks": 15,
          "midi": 36,
          "name": "C2",
          "ticks": 8520,
          "time": 29.583357,
          "velocity": 0.5984251968503937
        },
        {
          "duration": 0.05208337499999871,
          "durationTicks": 15,
          "midi": 40,
          "name": "E2",
          "ticks": 8550,
          "time": 29.68752375,
          "velocity": 0.5984251968503937
        },
        {
          "duration": 0.05208337499999871,
          "durationTicks": 15,
          "midi": 42,
          "name": "F#2",
          "ticks": 8550,
          "time": 29.68752375,
          "velocity": 0.5984251968503937
        },
        {
          "duration": 0.05208337499999871,
          "durationTicks": 15,
          "midi": 36,
          "name": "C2",
          "ticks": 8580,
          "time": 29.7916905,
          "velocity": 0.5984251968503937
        },
        {
          "duration": 0.05208337499999871,
          "durationTicks": 15,
          "midi": 46,
          "name": "A#2",
          "ticks": 8580,
          "time": 29.7916905,
          "velocity": 0.5984251968503937
        },
        {
          "duration": 0.05208337499999871,
          "durationTicks": 15,
          "midi": 40,
          "name": "E2",
          "ticks": 8580,
          "time": 29.7916905,
          "velocity": 0.5984251968503937
        },
        {
          "duration": 0.05208337500000226,
          "durationTicks": 15,
          "midi": 42,
          "name": "F#2",
          "ticks": 8640,
          "time": 30.000024,
          "velocity": 0.5984251968503937
        },
        {
          "duration": 0.05208337500000226,
          "durationTicks": 15,
          "midi": 49,
          "name": "C#3",
          "ticks": 8640,
          "time": 30.000024,
          "velocity": 0.5984251968503937
        },
        {
          "duration": 0.05208337500000226,
          "durationTicks": 15,
          "midi": 36,
          "name": "C2",
          "ticks": 8640,
          "time": 30.000024,
          "velocity": 0.5984251968503937
        },
        {
          "duration": 0.05208337499999871,
          "durationTicks": 15,
          "midi": 42,
          "name": "F#2",
          "ticks": 8670,
          "time": 30.10419075,
          "velocity": 0.5984251968503937
        },
        {
          "duration": 0.05208337499999871,
          "durationTicks": 15,
          "midi": 46,
          "name": "A#2",
          "ticks": 8700,
          "time": 30.2083575,
          "velocity": 0.5984251968503937
        },
        {
          "duration": 0.05208337500000226,
          "durationTicks": 15,
          "midi": 40,
          "name": "E2",
          "ticks": 8760,
          "time": 30.416691,
          "velocity": 0.5984251968503937
        },
        {
          "duration": 0.05208337500000226,
          "durationTicks": 15,
          "midi": 42,
          "name": "F#2",
          "ticks": 8760,
          "time": 30.416691,
          "velocity": 0.5984251968503937
        },
        {
          "duration": 0.05208337499999871,
          "durationTicks": 15,
          "midi": 42,
          "name": "F#2",
          "ticks": 8790,
          "time": 30.52085775,
          "velocity": 0.5984251968503937
        },
        {
          "duration": 0.05208337499999871,
          "durationTicks": 15,
          "midi": 36,
          "name": "C2",
          "ticks": 8820,
          "time": 30.625024500000002,
          "velocity": 0.5984251968503937
        },
        {
          "duration": 0.05208337499999871,
          "durationTicks": 15,
          "midi": 46,
          "name": "A#2",
          "ticks": 8820,
          "time": 30.625024500000002,
          "velocity": 0.5984251968503937
        },
        {
          "duration": 0.05208337500000226,
          "durationTicks": 15,
          "midi": 36,
          "name": "C2",
          "ticks": 8850,
          "time": 30.72919125,
          "velocity": 0.5984251968503937
        },
        {
          "duration": 0.05208337499999871,
          "durationTicks": 15,
          "midi": 36,
          "name": "C2",
          "ticks": 8880,
          "time": 30.833358,
          "velocity": 0.5984251968503937
        },
        {
          "duration": 0.05208337499999871,
          "durationTicks": 15,
          "midi": 42,
          "name": "F#2",
          "ticks": 8880,
          "time": 30.833358,
          "velocity": 0.5984251968503937
        },
        {
          "duration": 0.05208337499999871,
          "durationTicks": 15,
          "midi": 42,
          "name": "F#2",
          "ticks": 8910,
          "time": 30.93752475,
          "velocity": 0.5984251968503937
        },
        {
          "duration": 0.05208337499999871,
          "durationTicks": 15,
          "midi": 36,
          "name": "C2",
          "ticks": 8940,
          "time": 31.041691500000002,
          "velocity": 0.5984251968503937
        },
        {
          "duration": 0.05208337499999871,
          "durationTicks": 15,
          "midi": 46,
          "name": "A#2",
          "ticks": 8940,
          "time": 31.041691500000002,
          "velocity": 0.5984251968503937
        },
        {
          "duration": 0.05208337499999871,
          "durationTicks": 15,
          "midi": 40,
          "name": "E2",
          "ticks": 8940,
          "time": 31.041691500000002,
          "velocity": 0.5984251968503937
        },
        {
          "duration": 0.05208337499999871,
          "durationTicks": 15,
          "midi": 36,
          "name": "C2",
          "ticks": 9000,
          "time": 31.250025,
          "velocity": 0.5984251968503937
        },
        {
          "duration": 0.05208337499999871,
          "durationTicks": 15,
          "midi": 42,
          "name": "F#2",
          "ticks": 9000,
          "time": 31.250025,
          "velocity": 0.5984251968503937
        },
        {
          "duration": 0.05208337499999871,
          "durationTicks": 15,
          "midi": 42,
          "name": "F#2",
          "ticks": 9030,
          "time": 31.354191750000002,
          "velocity": 0.5984251968503937
        },
        {
          "duration": 0.05208337500000226,
          "durationTicks": 15,
          "midi": 46,
          "name": "A#2",
          "ticks": 9060,
          "time": 31.4583585,
          "velocity": 0.5984251968503937
        },
        {
          "duration": 0.05208337499999871,
          "durationTicks": 15,
          "midi": 40,
          "name": "E2",
          "ticks": 9120,
          "time": 31.666692,
          "velocity": 0.5984251968503937
        },
        {
          "duration": 0.05208337499999871,
          "durationTicks": 15,
          "midi": 42,
          "name": "F#2",
          "ticks": 9120,
          "time": 31.666692,
          "velocity": 0.5984251968503937
        },
        {
          "duration": 0.05208337499999871,
          "durationTicks": 15,
          "midi": 42,
          "name": "F#2",
          "ticks": 9150,
          "time": 31.770858750000002,
          "velocity": 0.5984251968503937
        },
        {
          "duration": 0.05208337500000226,
          "durationTicks": 15,
          "midi": 36,
          "name": "C2",
          "ticks": 9180,
          "time": 31.8750255,
          "velocity": 0.5984251968503937
        },
        {
          "duration": 0.05208337500000226,
          "durationTicks": 15,
          "midi": 46,
          "name": "A#2",
          "ticks": 9180,
          "time": 31.8750255,
          "velocity": 0.5984251968503937
        },
        {
          "duration": 0.05208337499999871,
          "durationTicks": 15,
          "midi": 36,
          "name": "C2",
          "ticks": 9210,
          "time": 31.97919225,
          "velocity": 0.5984251968503937
        },
        {
          "duration": 0.05208337500000226,
          "durationTicks": 15,
          "midi": 40,
          "name": "E2",
          "ticks": 9240,
          "time": 32.083359,
          "velocity": 0.5984251968503937
        },
        {
          "duration": 0.05208337500000226,
          "durationTicks": 15,
          "midi": 42,
          "name": "F#2",
          "ticks": 9240,
          "time": 32.083359,
          "velocity": 0.5984251968503937
        },
        {
          "duration": 0.05208337500000226,
          "durationTicks": 15,
          "midi": 36,
          "name": "C2",
          "ticks": 9240,
          "time": 32.083359,
          "velocity": 0.5984251968503937
        },
        {
          "duration": 0.05208337500000226,
          "durationTicks": 15,
          "midi": 40,
          "name": "E2",
          "ticks": 9270,
          "time": 32.18752575,
          "velocity": 0.5984251968503937
        },
        {
          "duration": 0.05208337500000226,
          "durationTicks": 15,
          "midi": 42,
          "name": "F#2",
          "ticks": 9270,
          "time": 32.18752575,
          "velocity": 0.5984251968503937
        },
        {
          "duration": 0.05208337499999516,
          "durationTicks": 15,
          "midi": 36,
          "name": "C2",
          "ticks": 9300,
          "time": 32.2916925,
          "velocity": 0.5984251968503937
        },
        {
          "duration": 0.05208337499999516,
          "durationTicks": 15,
          "midi": 46,
          "name": "A#2",
          "ticks": 9300,
          "time": 32.2916925,
          "velocity": 0.5984251968503937
        },
        {
          "duration": 0.05208337499999516,
          "durationTicks": 15,
          "midi": 40,
          "name": "E2",
          "ticks": 9300,
          "time": 32.2916925,
          "velocity": 0.5984251968503937
        },
        {
          "duration": 0.05208337500000226,
          "durationTicks": 15,
          "midi": 36,
          "name": "C2",
          "ticks": 9360,
          "time": 32.500026,
          "velocity": 0.5984251968503937
        },
        {
          "duration": 0.05208337500000226,
          "durationTicks": 15,
          "midi": 42,
          "name": "F#2",
          "ticks": 9360,
          "time": 32.500026,
          "velocity": 0.5984251968503937
        },
        {
          "duration": 0.05208337499999516,
          "durationTicks": 15,
          "midi": 42,
          "name": "F#2",
          "ticks": 9390,
          "time": 32.60419275,
          "velocity": 0.5984251968503937
        },
        {
          "duration": 0.05208337500000226,
          "durationTicks": 15,
          "midi": 46,
          "name": "A#2",
          "ticks": 9420,
          "time": 32.7083595,
          "velocity": 0.5984251968503937
        },
        {
          "duration": 0.05208337499999516,
          "durationTicks": 15,
          "midi": 40,
          "name": "E2",
          "ticks": 9480,
          "time": 32.916693,
          "velocity": 0.5984251968503937
        },
        {
          "duration": 0.05208337499999516,
          "durationTicks": 15,
          "midi": 42,
          "name": "F#2",
          "ticks": 9480,
          "time": 32.916693,
          "velocity": 0.5984251968503937
        },
        {
          "duration": 0.05208337500000226,
          "durationTicks": 15,
          "midi": 42,
          "name": "F#2",
          "ticks": 9510,
          "time": 33.02085975,
          "velocity": 0.5984251968503937
        },
        {
          "duration": 0.05208337499999516,
          "durationTicks": 15,
          "midi": 36,
          "name": "C2",
          "ticks": 9540,
          "time": 33.125026500000004,
          "velocity": 0.5984251968503937
        },
        {
          "duration": 0.05208337499999516,
          "durationTicks": 15,
          "midi": 46,
          "name": "A#2",
          "ticks": 9540,
          "time": 33.125026500000004,
          "velocity": 0.5984251968503937
        },
        {
          "duration": 0.05208337500000226,
          "durationTicks": 15,
          "midi": 36,
          "name": "C2",
          "ticks": 9570,
          "time": 33.22919325,
          "velocity": 0.5984251968503937
        },
        {
          "duration": 0.05208337500000226,
          "durationTicks": 15,
          "midi": 42,
          "name": "F#2",
          "ticks": 9600,
          "time": 33.33336,
          "velocity": 0.5984251968503937
        },
        {
          "duration": 0.05208337500000226,
          "durationTicks": 15,
          "midi": 36,
          "name": "C2",
          "ticks": 9600,
          "time": 33.33336,
          "velocity": 0.5984251968503937
        },
        {
          "duration": 0.05208337499999516,
          "durationTicks": 15,
          "midi": 42,
          "name": "F#2",
          "ticks": 9630,
          "time": 33.43752675,
          "velocity": 0.5984251968503937
        },
        {
          "duration": 0.05208337500000226,
          "durationTicks": 15,
          "midi": 36,
          "name": "C2",
          "ticks": 9660,
          "time": 33.5416935,
          "velocity": 0.5984251968503937
        },
        {
          "duration": 0.05208337500000226,
          "durationTicks": 15,
          "midi": 46,
          "name": "A#2",
          "ticks": 9660,
          "time": 33.5416935,
          "velocity": 0.5984251968503937
        },
        {
          "duration": 0.05208337500000226,
          "durationTicks": 15,
          "midi": 40,
          "name": "E2",
          "ticks": 9660,
          "time": 33.5416935,
          "velocity": 0.5984251968503937
        },
        {
          "duration": 0.05208337499999516,
          "durationTicks": 15,
          "midi": 36,
          "name": "C2",
          "ticks": 9720,
          "time": 33.750027,
          "velocity": 0.5984251968503937
        },
        {
          "duration": 0.05208337499999516,
          "durationTicks": 15,
          "midi": 42,
          "name": "F#2",
          "ticks": 9720,
          "time": 33.750027,
          "velocity": 0.5984251968503937
        },
        {
          "duration": 0.05208337500000226,
          "durationTicks": 15,
          "midi": 42,
          "name": "F#2",
          "ticks": 9750,
          "time": 33.85419375,
          "velocity": 0.5984251968503937
        },
        {
          "duration": 0.05208337500000226,
          "durationTicks": 15,
          "midi": 36,
          "name": "C2",
          "ticks": 9780,
          "time": 33.9583605,
          "velocity": 0.5984251968503937
        },
        {
          "duration": 0.05208337500000226,
          "durationTicks": 15,
          "midi": 46,
          "name": "A#2",
          "ticks": 9780,
          "time": 33.9583605,
          "velocity": 0.5984251968503937
        },
        {
          "duration": 0.05208337500000226,
          "durationTicks": 15,
          "midi": 40,
          "name": "E2",
          "ticks": 9840,
          "time": 34.166694,
          "velocity": 0.5984251968503937
        },
        {
          "duration": 0.05208337500000226,
          "durationTicks": 15,
          "midi": 42,
          "name": "F#2",
          "ticks": 9840,
          "time": 34.166694,
          "velocity": 0.5984251968503937
        },
        {
          "duration": 0.05208337499999516,
          "durationTicks": 15,
          "midi": 42,
          "name": "F#2",
          "ticks": 9870,
          "time": 34.270860750000004,
          "velocity": 0.5984251968503937
        },
        {
          "duration": 0.05208337500000226,
          "durationTicks": 15,
          "midi": 40,
          "name": "E2",
          "ticks": 9900,
          "time": 34.3750275,
          "velocity": 0.5984251968503937
        },
        {
          "duration": 0.05208337500000226,
          "durationTicks": 15,
          "midi": 36,
          "name": "C2",
          "ticks": 9900,
          "time": 34.3750275,
          "velocity": 0.5984251968503937
        },
        {
          "duration": 0.05208337500000226,
          "durationTicks": 15,
          "midi": 46,
          "name": "A#2",
          "ticks": 9900,
          "time": 34.3750275,
          "velocity": 0.5984251968503937
        },
        {
          "duration": 0.05208337500000226,
          "durationTicks": 15,
          "midi": 40,
          "name": "E2",
          "ticks": 9930,
          "time": 34.47919425,
          "velocity": 0.5984251968503937
        },
        {
          "duration": 0.05208337500000226,
          "durationTicks": 15,
          "midi": 36,
          "name": "C2",
          "ticks": 9930,
          "time": 34.47919425,
          "velocity": 0.5984251968503937
        },
        {
          "duration": 0.05208337499999516,
          "durationTicks": 15,
          "midi": 40,
          "name": "E2",
          "ticks": 9960,
          "time": 34.583361000000004,
          "velocity": 0.5984251968503937
        },
        {
          "duration": 0.05208337499999516,
          "durationTicks": 15,
          "midi": 42,
          "name": "F#2",
          "ticks": 9960,
          "time": 34.583361000000004,
          "velocity": 0.5984251968503937
        },
        {
          "duration": 0.05208337499999516,
          "durationTicks": 15,
          "midi": 36,
          "name": "C2",
          "ticks": 9960,
          "time": 34.583361000000004,
          "velocity": 0.5984251968503937
        },
        {
          "duration": 0.05208337500000226,
          "durationTicks": 15,
          "midi": 42,
          "name": "F#2",
          "ticks": 9990,
          "time": 34.68752775,
          "velocity": 0.5984251968503937
        },
        {
          "duration": 0.05208337500000226,
          "durationTicks": 15,
          "midi": 36,
          "name": "C2",
          "ticks": 10020,
          "time": 34.7916945,
          "velocity": 0.5984251968503937
        },
        {
          "duration": 0.05208337500000226,
          "durationTicks": 15,
          "midi": 46,
          "name": "A#2",
          "ticks": 10020,
          "time": 34.7916945,
          "velocity": 0.5984251968503937
        },
        {
          "duration": 0.05208337500000226,
          "durationTicks": 15,
          "midi": 40,
          "name": "E2",
          "ticks": 10020,
          "time": 34.7916945,
          "velocity": 0.5984251968503937
        },
        {
          "duration": 0.05208337499999516,
          "durationTicks": 15,
          "midi": 40,
          "name": "E2",
          "ticks": 10050,
          "time": 34.89586125,
          "velocity": 0.5984251968503937
        },
        {
          "duration": 0.05208337500000226,
          "durationTicks": 15,
          "midi": 42,
          "name": "F#2",
          "ticks": 10080,
          "time": 35.000028,
          "velocity": 0.5984251968503937
        },
        {
          "duration": 0.05208337500000226,
          "durationTicks": 15,
          "midi": 49,
          "name": "C#3",
          "ticks": 10080,
          "time": 35.000028,
          "velocity": 0.5984251968503937
        },
        {
          "duration": 0.05208337500000226,
          "durationTicks": 15,
          "midi": 36,
          "name": "C2",
          "ticks": 10080,
          "time": 35.000028,
          "velocity": 0.5984251968503937
        },
        {
          "duration": 0.05208337500000226,
          "durationTicks": 15,
          "midi": 42,
          "name": "F#2",
          "ticks": 10110,
          "time": 35.10419475,
          "velocity": 0.5984251968503937
        },
        {
          "duration": 0.05208337499999516,
          "durationTicks": 15,
          "midi": 46,
          "name": "A#2",
          "ticks": 10140,
          "time": 35.2083615,
          "velocity": 0.5984251968503937
        },
        {
          "duration": 0.05208337499999516,
          "durationTicks": 15,
          "midi": 40,
          "name": "E2",
          "ticks": 10200,
          "time": 35.416695000000004,
          "velocity": 0.5984251968503937
        },
        {
          "duration": 0.05208337499999516,
          "durationTicks": 15,
          "midi": 42,
          "name": "F#2",
          "ticks": 10200,
          "time": 35.416695000000004,
          "velocity": 0.5984251968503937
        },
        {
          "duration": 0.05208337500000226,
          "durationTicks": 15,
          "midi": 42,
          "name": "F#2",
          "ticks": 10230,
          "time": 35.52086175,
          "velocity": 0.5984251968503937
        },
        {
          "duration": 0.05208337500000226,
          "durationTicks": 15,
          "midi": 36,
          "name": "C2",
          "ticks": 10260,
          "time": 35.6250285,
          "velocity": 0.5984251968503937
        },
        {
          "duration": 0.05208337500000226,
          "durationTicks": 15,
          "midi": 46,
          "name": "A#2",
          "ticks": 10260,
          "time": 35.6250285,
          "velocity": 0.5984251968503937
        },
        {
          "duration": 0.05208337499999516,
          "durationTicks": 15,
          "midi": 36,
          "name": "C2",
          "ticks": 10290,
          "time": 35.729195250000004,
          "velocity": 0.5984251968503937
        },
        {
          "duration": 0.05208337500000226,
          "durationTicks": 15,
          "midi": 36,
          "name": "C2",
          "ticks": 10320,
          "time": 35.833362,
          "velocity": 0.5984251968503937
        },
        {
          "duration": 0.05208337500000226,
          "durationTicks": 15,
          "midi": 42,
          "name": "F#2",
          "ticks": 10320,
          "time": 35.833362,
          "velocity": 0.5984251968503937
        },
        {
          "duration": 0.05208337500000226,
          "durationTicks": 15,
          "midi": 42,
          "name": "F#2",
          "ticks": 10350,
          "time": 35.93752875,
          "velocity": 0.5984251968503937
        },
        {
          "duration": 0.05208337499999516,
          "durationTicks": 15,
          "midi": 36,
          "name": "C2",
          "ticks": 10380,
          "time": 36.0416955,
          "velocity": 0.5984251968503937
        },
        {
          "duration": 0.05208337499999516,
          "durationTicks": 15,
          "midi": 46,
          "name": "A#2",
          "ticks": 10380,
          "time": 36.0416955,
          "velocity": 0.5984251968503937
        },
        {
          "duration": 0.05208337499999516,
          "durationTicks": 15,
          "midi": 40,
          "name": "E2",
          "ticks": 10380,
          "time": 36.0416955,
          "velocity": 0.5984251968503937
        },
        {
          "duration": 0.05208337500000226,
          "durationTicks": 15,
          "midi": 36,
          "name": "C2",
          "ticks": 10440,
          "time": 36.250029,
          "velocity": 0.5984251968503937
        },
        {
          "duration": 0.05208337500000226,
          "durationTicks": 15,
          "midi": 42,
          "name": "F#2",
          "ticks": 10440,
          "time": 36.250029,
          "velocity": 0.5984251968503937
        },
        {
          "duration": 0.05208337499999516,
          "durationTicks": 15,
          "midi": 42,
          "name": "F#2",
          "ticks": 10470,
          "time": 36.35419575,
          "velocity": 0.5984251968503937
        },
        {
          "duration": 0.05208337500000226,
          "durationTicks": 15,
          "midi": 46,
          "name": "A#2",
          "ticks": 10500,
          "time": 36.4583625,
          "velocity": 0.5984251968503937
        },
        {
          "duration": 0.05208337500000226,
          "durationTicks": 15,
          "midi": 40,
          "name": "E2",
          "ticks": 10560,
          "time": 36.666696,
          "velocity": 0.5984251968503937
        },
        {
          "duration": 0.05208337500000226,
          "durationTicks": 15,
          "midi": 42,
          "name": "F#2",
          "ticks": 10560,
          "time": 36.666696,
          "velocity": 0.5984251968503937
        },
        {
          "duration": 0.05208337500000226,
          "durationTicks": 15,
          "midi": 42,
          "name": "F#2",
          "ticks": 10590,
          "time": 36.77086275,
          "velocity": 0.5984251968503937
        },
        {
          "duration": 0.05208337499999516,
          "durationTicks": 15,
          "midi": 36,
          "name": "C2",
          "ticks": 10620,
          "time": 36.875029500000004,
          "velocity": 0.5984251968503937
        },
        {
          "duration": 0.05208337499999516,
          "durationTicks": 15,
          "midi": 46,
          "name": "A#2",
          "ticks": 10620,
          "time": 36.875029500000004,
          "velocity": 0.5984251968503937
        },
        {
          "duration": 0.05208337500000226,
          "durationTicks": 15,
          "midi": 36,
          "name": "C2",
          "ticks": 10650,
          "time": 36.97919625,
          "velocity": 0.5984251968503937
        },
        {
          "duration": 0.05208337500000226,
          "durationTicks": 15,
          "midi": 42,
          "name": "F#2",
          "ticks": 10680,
          "time": 37.083363,
          "velocity": 0.5984251968503937
        },
        {
          "duration": 0.05208337500000226,
          "durationTicks": 15,
          "midi": 36,
          "name": "C2",
          "ticks": 10680,
          "time": 37.083363,
          "velocity": 0.5984251968503937
        },
        {
          "duration": 0.05208337499999516,
          "durationTicks": 15,
          "midi": 42,
          "name": "F#2",
          "ticks": 10710,
          "time": 37.18752975,
          "velocity": 0.5984251968503937
        },
        {
          "duration": 0.05208337500000226,
          "durationTicks": 15,
          "midi": 36,
          "name": "C2",
          "ticks": 10740,
          "time": 37.2916965,
          "velocity": 0.5984251968503937
        },
        {
          "duration": 0.05208337500000226,
          "durationTicks": 15,
          "midi": 46,
          "name": "A#2",
          "ticks": 10740,
          "time": 37.2916965,
          "velocity": 0.5984251968503937
        },
        {
          "duration": 0.05208337500000226,
          "durationTicks": 15,
          "midi": 40,
          "name": "E2",
          "ticks": 10740,
          "time": 37.2916965,
          "velocity": 0.5984251968503937
        },
        {
          "duration": 0.05208337499999516,
          "durationTicks": 15,
          "midi": 36,
          "name": "C2",
          "ticks": 10800,
          "time": 37.50003,
          "velocity": 0.5984251968503937
        },
        {
          "duration": 0.05208337499999516,
          "durationTicks": 15,
          "midi": 42,
          "name": "F#2",
          "ticks": 10800,
          "time": 37.50003,
          "velocity": 0.5984251968503937
        },
        {
          "duration": 0.05208337500000226,
          "durationTicks": 15,
          "midi": 42,
          "name": "F#2",
          "ticks": 10830,
          "time": 37.60419675,
          "velocity": 0.5984251968503937
        },
        {
          "duration": 0.05208337499999516,
          "durationTicks": 15,
          "midi": 46,
          "name": "A#2",
          "ticks": 10860,
          "time": 37.708363500000004,
          "velocity": 0.5984251968503937
        },
        {
          "duration": 0.05208337500000226,
          "durationTicks": 15,
          "midi": 40,
          "name": "E2",
          "ticks": 10920,
          "time": 37.916697,
          "velocity": 0.5984251968503937
        },
        {
          "duration": 0.05208337500000226,
          "durationTicks": 15,
          "midi": 42,
          "name": "F#2",
          "ticks": 10920,
          "time": 37.916697,
          "velocity": 0.5984251968503937
        },
        {
          "duration": 0.05208337499999516,
          "durationTicks": 15,
          "midi": 42,
          "name": "F#2",
          "ticks": 10950,
          "time": 38.020863750000004,
          "velocity": 0.5984251968503937
        },
        {
          "duration": 0.05208337500000226,
          "durationTicks": 15,
          "midi": 36,
          "name": "C2",
          "ticks": 10980,
          "time": 38.1250305,
          "velocity": 0.5984251968503937
        },
        {
          "duration": 0.05208337500000226,
          "durationTicks": 15,
          "midi": 46,
          "name": "A#2",
          "ticks": 10980,
          "time": 38.1250305,
          "velocity": 0.5984251968503937
        },
        {
          "duration": 0.05208337500000226,
          "durationTicks": 15,
          "midi": 40,
          "name": "E2",
          "ticks": 11010,
          "time": 38.22919725,
          "velocity": 0.5984251968503937
        },
        {
          "duration": 0.05208337500000226,
          "durationTicks": 15,
          "midi": 36,
          "name": "C2",
          "ticks": 11010,
          "time": 38.22919725,
          "velocity": 0.5984251968503937
        },
        {
          "duration": 0.05208337499999516,
          "durationTicks": 15,
          "midi": 40,
          "name": "E2",
          "ticks": 11040,
          "time": 38.333364,
          "velocity": 0.5984251968503937
        },
        {
          "duration": 0.05208337499999516,
          "durationTicks": 15,
          "midi": 42,
          "name": "F#2",
          "ticks": 11040,
          "time": 38.333364,
          "velocity": 0.5984251968503937
        },
        {
          "duration": 0.05208337499999516,
          "durationTicks": 15,
          "midi": 36,
          "name": "C2",
          "ticks": 11040,
          "time": 38.333364,
          "velocity": 0.5984251968503937
        },
        {
          "duration": 0.05208337500000226,
          "durationTicks": 15,
          "midi": 42,
          "name": "F#2",
          "ticks": 11070,
          "time": 38.43753075,
          "velocity": 0.5984251968503937
        },
        {
          "duration": 0.05208337500000226,
          "durationTicks": 15,
          "midi": 40,
          "name": "E2",
          "ticks": 11100,
          "time": 38.5416975,
          "velocity": 0.5984251968503937
        },
        {
          "duration": 0.05208337500000226,
          "durationTicks": 15,
          "midi": 36,
          "name": "C2",
          "ticks": 11100,
          "time": 38.5416975,
          "velocity": 0.5984251968503937
        },
        {
          "duration": 0.05208337500000226,
          "durationTicks": 15,
          "midi": 46,
          "name": "A#2",
          "ticks": 11100,
          "time": 38.5416975,
          "velocity": 0.5984251968503937
        },
        {
          "duration": 0.05208337500000226,
          "durationTicks": 15,
          "midi": 40,
          "name": "E2",
          "ticks": 11160,
          "time": 38.750031,
          "velocity": 0.5984251968503937
        },
        {
          "duration": 0.05208337500000226,
          "durationTicks": 15,
          "midi": 36,
          "name": "C2",
          "ticks": 11160,
          "time": 38.750031,
          "velocity": 0.5984251968503937
        },
        {
          "duration": 0.05208337500000226,
          "durationTicks": 15,
          "midi": 42,
          "name": "F#2",
          "ticks": 11160,
          "time": 38.750031,
          "velocity": 0.5984251968503937
        },
        {
          "duration": 0.05208337499999516,
          "durationTicks": 15,
          "midi": 42,
          "name": "F#2",
          "ticks": 11190,
          "time": 38.854197750000004,
          "velocity": 0.5984251968503937
        },
        {
          "duration": 0.05208337500000226,
          "durationTicks": 15,
          "midi": 36,
          "name": "C2",
          "ticks": 11220,
          "time": 38.9583645,
          "velocity": 0.5984251968503937
        },
        {
          "duration": 0.05208337500000226,
          "durationTicks": 15,
          "midi": 46,
          "name": "A#2",
          "ticks": 11220,
          "time": 38.9583645,
          "velocity": 0.5984251968503937
        },
        {
          "duration": 0.05208337499999516,
          "durationTicks": 15,
          "midi": 40,
          "name": "E2",
          "ticks": 11280,
          "time": 39.166698000000004,
          "velocity": 0.5984251968503937
        },
        {
          "duration": 0.05208337499999516,
          "durationTicks": 15,
          "midi": 42,
          "name": "F#2",
          "ticks": 11280,
          "time": 39.166698000000004,
          "velocity": 0.5984251968503937
        },
        {
          "duration": 0.05208337500000226,
          "durationTicks": 15,
          "midi": 42,
          "name": "F#2",
          "ticks": 11310,
          "time": 39.27086475,
          "velocity": 0.5984251968503937
        },
        {
          "duration": 0.05208337500000226,
          "durationTicks": 15,
          "midi": 40,
          "name": "E2",
          "ticks": 11340,
          "time": 39.3750315,
          "velocity": 0.5984251968503937
        },
        {
          "duration": 0.05208337500000226,
          "durationTicks": 15,
          "midi": 36,
          "name": "C2",
          "ticks": 11340,
          "time": 39.3750315,
          "velocity": 0.5984251968503937
        },
        {
          "duration": 0.05208337500000226,
          "durationTicks": 15,
          "midi": 46,
          "name": "A#2",
          "ticks": 11340,
          "time": 39.3750315,
          "velocity": 0.5984251968503937
        },
        {
          "duration": 0.05208337500000226,
          "durationTicks": 15,
          "midi": 40,
          "name": "E2",
          "ticks": 11355,
          "time": 39.427114875,
          "velocity": 0.5984251968503937
        },
        {
          "duration": 0.05208337499999516,
          "durationTicks": 15,
          "midi": 40,
          "name": "E2",
          "ticks": 11370,
          "time": 39.47919825,
          "velocity": 0.5984251968503937
        },
        {
          "duration": 0.05208337499999516,
          "durationTicks": 15,
          "midi": 36,
          "name": "C2",
          "ticks": 11370,
          "time": 39.47919825,
          "velocity": 0.5984251968503937
        },
        {
          "duration": 0.05208337500000226,
          "durationTicks": 15,
          "midi": 40,
          "name": "E2",
          "ticks": 11385,
          "time": 39.531281625,
          "velocity": 0.5984251968503937
        },
        {
          "duration": 0.05208337500000226,
          "durationTicks": 15,
          "midi": 40,
          "name": "E2",
          "ticks": 11400,
          "time": 39.583365,
          "velocity": 0.5984251968503937
        },
        {
          "duration": 0.05208337500000226,
          "durationTicks": 15,
          "midi": 42,
          "name": "F#2",
          "ticks": 11400,
          "time": 39.583365,
          "velocity": 0.5984251968503937
        },
        {
          "duration": 0.05208337500000226,
          "durationTicks": 15,
          "midi": 36,
          "name": "C2",
          "ticks": 11400,
          "time": 39.583365,
          "velocity": 0.5984251968503937
        },
        {
          "duration": 0.05208337500000226,
          "durationTicks": 15,
          "midi": 40,
          "name": "E2",
          "ticks": 11430,
          "time": 39.68753175,
          "velocity": 0.5984251968503937
        },
        {
          "duration": 0.05208337500000226,
          "durationTicks": 15,
          "midi": 42,
          "name": "F#2",
          "ticks": 11430,
          "time": 39.68753175,
          "velocity": 0.5984251968503937
        },
        {
          "duration": 0.05208337499999516,
          "durationTicks": 15,
          "midi": 36,
          "name": "C2",
          "ticks": 11460,
          "time": 39.7916985,
          "velocity": 0.5984251968503937
        },
        {
          "duration": 0.05208337499999516,
          "durationTicks": 15,
          "midi": 46,
          "name": "A#2",
          "ticks": 11460,
          "time": 39.7916985,
          "velocity": 0.5984251968503937
        },
        {
          "duration": 0.05208337499999516,
          "durationTicks": 15,
          "midi": 40,
          "name": "E2",
          "ticks": 11460,
          "time": 39.7916985,
          "velocity": 0.5984251968503937
        },
        {
          "duration": 0.05208337500000226,
          "durationTicks": 15,
          "midi": 40,
          "name": "E2",
          "ticks": 11475,
          "time": 39.843781875,
          "velocity": 0.5984251968503937
        },
        {
          "duration": 0.05208337500000226,
          "durationTicks": 15,
          "midi": 40,
          "name": "E2",
          "ticks": 11490,
          "time": 39.89586525,
          "velocity": 0.5984251968503937
        },
        {
          "duration": 0.05208337500000226,
          "durationTicks": 15,
          "midi": 40,
          "name": "E2",
          "ticks": 11505,
          "time": 39.947948625,
          "velocity": 0.5984251968503937
        },
        {
          "duration": 0.05208337499999516,
          "durationTicks": 15,
          "midi": 42,
          "name": "F#2",
          "ticks": 11520,
          "time": 40.000032000000004,
          "velocity": 0.5984251968503937
        },
        {
          "duration": 0.05208337499999516,
          "durationTicks": 15,
          "midi": 36,
          "name": "C2",
          "ticks": 11520,
          "time": 40.000032000000004,
          "velocity": 0.5984251968503937
        },
        {
          "duration": 0.05208337499999516,
          "durationTicks": 15,
          "midi": 49,
          "name": "C#3",
          "ticks": 11520,
          "time": 40.000032000000004,
          "velocity": 0.5984251968503937
        },
        {
          "duration": 0.05208337500000226,
          "durationTicks": 15,
          "midi": 46,
          "name": "A#2",
          "ticks": 11580,
          "time": 40.2083655,
          "velocity": 0.5984251968503937
        },
        {
          "duration": 0.05208337500000226,
          "durationTicks": 15,
          "midi": 42,
          "name": "F#2",
          "ticks": 11640,
          "time": 40.416699,
          "velocity": 0.5984251968503937
        },
        {
          "duration": 0.05208337500000226,
          "durationTicks": 15,
          "midi": 40,
          "name": "E2",
          "ticks": 11640,
          "time": 40.416699,
          "velocity": 0.5984251968503937
        },
        {
          "duration": 0.05208337499999516,
          "durationTicks": 15,
          "midi": 46,
          "name": "A#2",
          "ticks": 11700,
          "time": 40.6250325,
          "velocity": 0.5984251968503937
        },
        {
          "duration": 0.05208337500000226,
          "durationTicks": 15,
          "midi": 36,
          "name": "C2",
          "ticks": 11730,
          "time": 40.72919925,
          "velocity": 0.5984251968503937
        },
        {
          "duration": 0.05208337500000226,
          "durationTicks": 15,
          "midi": 42,
          "name": "F#2",
          "ticks": 11760,
          "time": 40.833366,
          "velocity": 0.5984251968503937
        },
        {
          "duration": 0.05208337500000226,
          "durationTicks": 15,
          "midi": 36,
          "name": "C2",
          "ticks": 11760,
          "time": 40.833366,
          "velocity": 0.5984251968503937
        },
        {
          "duration": 0.05208337500000226,
          "durationTicks": 15,
          "midi": 46,
          "name": "A#2",
          "ticks": 11820,
          "time": 41.0416995,
          "velocity": 0.5984251968503937
        },
        {
          "duration": 0.05208337500000226,
          "durationTicks": 15,
          "midi": 36,
          "name": "C2",
          "ticks": 11820,
          "time": 41.0416995,
          "velocity": 0.5984251968503937
        },
        {
          "duration": 0.05208337500000226,
          "durationTicks": 15,
          "midi": 42,
          "name": "F#2",
          "ticks": 11880,
          "time": 41.250033,
          "velocity": 0.5984251968503937
        },
        {
          "duration": 0.05208337500000226,
          "durationTicks": 15,
          "midi": 40,
          "name": "E2",
          "ticks": 11880,
          "time": 41.250033,
          "velocity": 0.5984251968503937
        },
        {
          "duration": 0.05208337499999516,
          "durationTicks": 15,
          "midi": 46,
          "name": "A#2",
          "ticks": 11940,
          "time": 41.458366500000004,
          "velocity": 0.5984251968503937
        },
        {
          "duration": 0.05208337500000226,
          "durationTicks": 15,
          "midi": 42,
          "name": "F#2",
          "ticks": 12000,
          "time": 41.6667,
          "velocity": 0.5984251968503937
        },
        {
          "duration": 0.05208337500000226,
          "durationTicks": 15,
          "midi": 36,
          "name": "C2",
          "ticks": 12000,
          "time": 41.6667,
          "velocity": 0.5984251968503937
        },
        {
          "duration": 0.05208337500000226,
          "durationTicks": 15,
          "midi": 46,
          "name": "A#2",
          "ticks": 12060,
          "time": 41.8750335,
          "velocity": 0.5984251968503937
        },
        {
          "duration": 0.05208337499999516,
          "durationTicks": 15,
          "midi": 42,
          "name": "F#2",
          "ticks": 12120,
          "time": 42.083367,
          "velocity": 0.5984251968503937
        },
        {
          "duration": 0.05208337499999516,
          "durationTicks": 15,
          "midi": 40,
          "name": "E2",
          "ticks": 12120,
          "time": 42.083367,
          "velocity": 0.5984251968503937
        },
        {
          "duration": 0.05208337500000226,
          "durationTicks": 15,
          "midi": 46,
          "name": "A#2",
          "ticks": 12180,
          "time": 42.2917005,
          "velocity": 0.5984251968503937
        },
        {
          "duration": 0.05208337500000226,
          "durationTicks": 15,
          "midi": 42,
          "name": "F#2",
          "ticks": 12240,
          "time": 42.500034,
          "velocity": 0.5984251968503937
        },
        {
          "duration": 0.05208337500000226,
          "durationTicks": 15,
          "midi": 36,
          "name": "C2",
          "ticks": 12240,
          "time": 42.500034,
          "velocity": 0.5984251968503937
        },
        {
          "duration": 0.05208337500000226,
          "durationTicks": 15,
          "midi": 46,
          "name": "A#2",
          "ticks": 12300,
          "time": 42.7083675,
          "velocity": 0.5984251968503937
        },
        {
          "duration": 0.05208337500000226,
          "durationTicks": 15,
          "midi": 36,
          "name": "C2",
          "ticks": 12300,
          "time": 42.7083675,
          "velocity": 0.5984251968503937
        },
        {
          "duration": 0.05208337499999516,
          "durationTicks": 15,
          "midi": 42,
          "name": "F#2",
          "ticks": 12360,
          "time": 42.916701,
          "velocity": 0.5984251968503937
        },
        {
          "duration": 0.05208337499999516,
          "durationTicks": 15,
          "midi": 40,
          "name": "E2",
          "ticks": 12360,
          "time": 42.916701,
          "velocity": 0.5984251968503937
        },
        {
          "duration": 0.05208337500000226,
          "durationTicks": 15,
          "midi": 46,
          "name": "A#2",
          "ticks": 12420,
          "time": 43.1250345,
          "velocity": 0.5984251968503937
        },
        {
          "duration": 0.05208337500000226,
          "durationTicks": 15,
          "midi": 42,
          "name": "F#2",
          "ticks": 12480,
          "time": 43.333368,
          "velocity": 0.5984251968503937
        },
        {
          "duration": 0.05208337500000226,
          "durationTicks": 15,
          "midi": 36,
          "name": "C2",
          "ticks": 12480,
          "time": 43.333368,
          "velocity": 0.5984251968503937
        },
        {
          "duration": 0.05208337500000226,
          "durationTicks": 15,
          "midi": 46,
          "name": "A#2",
          "ticks": 12540,
          "time": 43.5417015,
          "velocity": 0.5984251968503937
        },
        {
          "duration": 0.05208337499999516,
          "durationTicks": 15,
          "midi": 42,
          "name": "F#2",
          "ticks": 12600,
          "time": 43.750035000000004,
          "velocity": 0.5984251968503937
        },
        {
          "duration": 0.05208337499999516,
          "durationTicks": 15,
          "midi": 40,
          "name": "E2",
          "ticks": 12600,
          "time": 43.750035000000004,
          "velocity": 0.5984251968503937
        },
        {
          "duration": 0.05208337500000226,
          "durationTicks": 15,
          "midi": 46,
          "name": "A#2",
          "ticks": 12660,
          "time": 43.9583685,
          "velocity": 0.5984251968503937
        },
        {
          "duration": 0.05208337499999516,
          "durationTicks": 15,
          "midi": 40,
          "name": "E2",
          "ticks": 12690,
          "time": 44.06253525,
          "velocity": 0.5984251968503937
        },
        {
          "duration": 0.05208337500000226,
          "durationTicks": 15,
          "midi": 42,
          "name": "F#2",
          "ticks": 12720,
          "time": 44.166702,
          "velocity": 0.5984251968503937
        },
        {
          "duration": 0.05208337500000226,
          "durationTicks": 15,
          "midi": 36,
          "name": "C2",
          "ticks": 12720,
          "time": 44.166702,
          "velocity": 0.5984251968503937
        },
        {
          "duration": 0.05208337499999516,
          "durationTicks": 15,
          "midi": 46,
          "name": "A#2",
          "ticks": 12780,
          "time": 44.3750355,
          "velocity": 0.5984251968503937
        },
        {
          "duration": 0.05208337499999516,
          "durationTicks": 15,
          "midi": 36,
          "name": "C2",
          "ticks": 12780,
          "time": 44.3750355,
          "velocity": 0.5984251968503937
        },
        {
          "duration": 0.05208337500000226,
          "durationTicks": 15,
          "midi": 36,
          "name": "C2",
          "ticks": 12810,
          "time": 44.47920225,
          "velocity": 0.5984251968503937
        },
        {
          "duration": 0.05208337500000226,
          "durationTicks": 15,
          "midi": 42,
          "name": "F#2",
          "ticks": 12840,
          "time": 44.583369,
          "velocity": 0.5984251968503937
        },
        {
          "duration": 0.05208337500000226,
          "durationTicks": 15,
          "midi": 40,
          "name": "E2",
          "ticks": 12840,
          "time": 44.583369,
          "velocity": 0.5984251968503937
        },
        {
          "duration": 0.05208337500000226,
          "durationTicks": 15,
          "midi": 46,
          "name": "A#2",
          "ticks": 12900,
          "time": 44.7917025,
          "velocity": 0.5984251968503937
        },
        {
          "duration": 0.05208337500000226,
          "durationTicks": 15,
          "midi": 36,
          "name": "C2",
          "ticks": 12900,
          "time": 44.7917025,
          "velocity": 0.5984251968503937
        },
        {
          "duration": 0.05208337500000226,
          "durationTicks": 15,
          "midi": 42,
          "name": "F#2",
          "ticks": 12960,
          "time": 45.000036,
          "velocity": 0.5984251968503937
        },
        {
          "duration": 0.05208337500000226,
          "durationTicks": 15,
          "midi": 36,
          "name": "C2",
          "ticks": 12960,
          "time": 45.000036,
          "velocity": 0.5984251968503937
        },
        {
          "duration": 0.05208337499999516,
          "durationTicks": 15,
          "midi": 46,
          "name": "A#2",
          "ticks": 13020,
          "time": 45.2083695,
          "velocity": 0.5984251968503937
        },
        {
          "duration": 0.05208337500000226,
          "durationTicks": 15,
          "midi": 42,
          "name": "F#2",
          "ticks": 13080,
          "time": 45.416703,
          "velocity": 0.5984251968503937
        },
        {
          "duration": 0.05208337500000226,
          "durationTicks": 15,
          "midi": 40,
          "name": "E2",
          "ticks": 13080,
          "time": 45.416703,
          "velocity": 0.5984251968503937
        },
        {
          "duration": 0.05208337500000226,
          "durationTicks": 15,
          "midi": 46,
          "name": "A#2",
          "ticks": 13140,
          "time": 45.6250365,
          "velocity": 0.5984251968503937
        },
        {
          "duration": 0.05208337500000226,
          "durationTicks": 15,
          "midi": 36,
          "name": "C2",
          "ticks": 13170,
          "time": 45.72920325,
          "velocity": 0.5984251968503937
        },
        {
          "duration": 0.05208337500000226,
          "durationTicks": 15,
          "midi": 42,
          "name": "F#2",
          "ticks": 13200,
          "time": 45.83337,
          "velocity": 0.5984251968503937
        },
        {
          "duration": 0.05208337500000226,
          "durationTicks": 15,
          "midi": 36,
          "name": "C2",
          "ticks": 13200,
          "time": 45.83337,
          "velocity": 0.5984251968503937
        },
        {
          "duration": 0.05208337499999516,
          "durationTicks": 15,
          "midi": 46,
          "name": "A#2",
          "ticks": 13260,
          "time": 46.041703500000004,
          "velocity": 0.5984251968503937
        },
        {
          "duration": 0.05208337499999516,
          "durationTicks": 15,
          "midi": 36,
          "name": "C2",
          "ticks": 13260,
          "time": 46.041703500000004,
          "velocity": 0.5984251968503937
        },
        {
          "duration": 0.05208337500000226,
          "durationTicks": 15,
          "midi": 42,
          "name": "F#2",
          "ticks": 13320,
          "time": 46.250037,
          "velocity": 0.5984251968503937
        },
        {
          "duration": 0.05208337500000226,
          "durationTicks": 15,
          "midi": 40,
          "name": "E2",
          "ticks": 13320,
          "time": 46.250037,
          "velocity": 0.5984251968503937
        },
        {
          "duration": 0.05208337500000226,
          "durationTicks": 15,
          "midi": 46,
          "name": "A#2",
          "ticks": 13380,
          "time": 46.4583705,
          "velocity": 0.5984251968503937
        },
        {
          "duration": 0.05208337500000226,
          "durationTicks": 15,
          "midi": 40,
          "name": "E2",
          "ticks": 13380,
          "time": 46.4583705,
          "velocity": 0.5984251968503937
        },
        {
          "duration": 0.05208337500000226,
          "durationTicks": 15,
          "midi": 36,
          "name": "C2",
          "ticks": 13380,
          "time": 46.4583705,
          "velocity": 0.5984251968503937
        },
        {
          "duration": 0.05208337500000226,
          "durationTicks": 15,
          "midi": 42,
          "name": "F#2",
          "ticks": 13410,
          "time": 46.56253725,
          "velocity": 0.5984251968503937
        },
        {
          "duration": 0.05208337499999516,
          "durationTicks": 15,
          "midi": 42,
          "name": "F#2",
          "ticks": 13440,
          "time": 46.666704,
          "velocity": 0.5984251968503937
        },
        {
          "duration": 0.05208337499999516,
          "durationTicks": 15,
          "midi": 36,
          "name": "C2",
          "ticks": 13440,
          "time": 46.666704,
          "velocity": 0.5984251968503937
        },
        {
          "duration": 0.05208337499999516,
          "durationTicks": 15,
          "midi": 49,
          "name": "C#3",
          "ticks": 13440,
          "time": 46.666704,
          "velocity": 0.5984251968503937
        },
        {
          "duration": 0.05208337500000226,
          "durationTicks": 15,
          "midi": 46,
          "name": "A#2",
          "ticks": 13500,
          "time": 46.8750375,
          "velocity": 0.5984251968503937
        },
        {
          "duration": 0.05208337500000226,
          "durationTicks": 15,
          "midi": 42,
          "name": "F#2",
          "ticks": 13560,
          "time": 47.083371,
          "velocity": 0.5984251968503937
        },
        {
          "duration": 0.05208337500000226,
          "durationTicks": 15,
          "midi": 40,
          "name": "E2",
          "ticks": 13560,
          "time": 47.083371,
          "velocity": 0.5984251968503937
        },
        {
          "duration": 0.05208337500000226,
          "durationTicks": 15,
          "midi": 46,
          "name": "A#2",
          "ticks": 13620,
          "time": 47.2917045,
          "velocity": 0.5984251968503937
        },
        {
          "duration": 0.05208337500000226,
          "durationTicks": 15,
          "midi": 36,
          "name": "C2",
          "ticks": 13650,
          "time": 47.39587125,
          "velocity": 0.5984251968503937
        },
        {
          "duration": 0.05208337499999516,
          "durationTicks": 15,
          "midi": 42,
          "name": "F#2",
          "ticks": 13680,
          "time": 47.500038,
          "velocity": 0.5984251968503937
        },
        {
          "duration": 0.05208337499999516,
          "durationTicks": 15,
          "midi": 36,
          "name": "C2",
          "ticks": 13680,
          "time": 47.500038,
          "velocity": 0.5984251968503937
        },
        {
          "duration": 0.05208337500000226,
          "durationTicks": 15,
          "midi": 46,
          "name": "A#2",
          "ticks": 13740,
          "time": 47.7083715,
          "velocity": 0.5984251968503937
        },
        {
          "duration": 0.05208337500000226,
          "durationTicks": 15,
          "midi": 36,
          "name": "C2",
          "ticks": 13740,
          "time": 47.7083715,
          "velocity": 0.5984251968503937
        },
        {
          "duration": 0.05208337500000226,
          "durationTicks": 15,
          "midi": 42,
          "name": "F#2",
          "ticks": 13800,
          "time": 47.916705,
          "velocity": 0.5984251968503937
        },
        {
          "duration": 0.05208337500000226,
          "durationTicks": 15,
          "midi": 40,
          "name": "E2",
          "ticks": 13800,
          "time": 47.916705,
          "velocity": 0.5984251968503937
        },
        {
          "duration": 0.05208337500000226,
          "durationTicks": 15,
          "midi": 46,
          "name": "A#2",
          "ticks": 13860,
          "time": 48.1250385,
          "velocity": 0.5984251968503937
        },
        {
          "duration": 0.05208337499999516,
          "durationTicks": 15,
          "midi": 42,
          "name": "F#2",
          "ticks": 13920,
          "time": 48.333372000000004,
          "velocity": 0.5984251968503937
        },
        {
          "duration": 0.05208337499999516,
          "durationTicks": 15,
          "midi": 36,
          "name": "C2",
          "ticks": 13920,
          "time": 48.333372000000004,
          "velocity": 0.5984251968503937
        },
        {
          "duration": 0.05208337500000226,
          "durationTicks": 15,
          "midi": 46,
          "name": "A#2",
          "ticks": 13980,
          "time": 48.5417055,
          "velocity": 0.5984251968503937
        },
        {
          "duration": 0.05208337500000226,
          "durationTicks": 15,
          "midi": 42,
          "name": "F#2",
          "ticks": 14040,
          "time": 48.750039,
          "velocity": 0.5984251968503937
        },
        {
          "duration": 0.05208337500000226,
          "durationTicks": 15,
          "midi": 40,
          "name": "E2",
          "ticks": 14040,
          "time": 48.750039,
          "velocity": 0.5984251968503937
        },
        {
          "duration": 0.05208337499999516,
          "durationTicks": 15,
          "midi": 46,
          "name": "A#2",
          "ticks": 14100,
          "time": 48.9583725,
          "velocity": 0.5984251968503937
        },
        {
          "duration": 0.05208337500000226,
          "durationTicks": 15,
          "midi": 42,
          "name": "F#2",
          "ticks": 14160,
          "time": 49.166706,
          "velocity": 0.5984251968503937
        },
        {
          "duration": 0.05208337500000226,
          "durationTicks": 15,
          "midi": 36,
          "name": "C2",
          "ticks": 14160,
          "time": 49.166706,
          "velocity": 0.5984251968503937
        },
        {
          "duration": 0.05208337500000226,
          "durationTicks": 15,
          "midi": 46,
          "name": "A#2",
          "ticks": 14220,
          "time": 49.3750395,
          "velocity": 0.5984251968503937
        },
        {
          "duration": 0.05208337500000226,
          "durationTicks": 15,
          "midi": 36,
          "name": "C2",
          "ticks": 14220,
          "time": 49.3750395,
          "velocity": 0.5984251968503937
        },
        {
          "duration": 0.05208337500000226,
          "durationTicks": 15,
          "midi": 42,
          "name": "F#2",
          "ticks": 14280,
          "time": 49.583373,
          "velocity": 0.5984251968503937
        },
        {
          "duration": 0.05208337500000226,
          "durationTicks": 15,
          "midi": 40,
          "name": "E2",
          "ticks": 14280,
          "time": 49.583373,
          "velocity": 0.5984251968503937
        },
        {
          "duration": 0.05208337499999516,
          "durationTicks": 15,
          "midi": 46,
          "name": "A#2",
          "ticks": 14340,
          "time": 49.791706500000004,
          "velocity": 0.5984251968503937
        },
        {
          "duration": 0.05208337500000226,
          "durationTicks": 15,
          "midi": 42,
          "name": "F#2",
          "ticks": 14400,
          "time": 50.00004,
          "velocity": 0.5984251968503937
        },
        {
          "duration": 0.05208337500000226,
          "durationTicks": 15,
          "midi": 36,
          "name": "C2",
          "ticks": 14400,
          "time": 50.00004,
          "velocity": 0.5984251968503937
        },
        {
          "duration": 0.05208337500000226,
          "durationTicks": 15,
          "midi": 46,
          "name": "A#2",
          "ticks": 14460,
          "time": 50.2083735,
          "velocity": 0.5984251968503937
        },
        {
          "duration": 0.05208337500000226,
          "durationTicks": 15,
          "midi": 42,
          "name": "F#2",
          "ticks": 14520,
          "time": 50.416707,
          "velocity": 0.5984251968503937
        },
        {
          "duration": 0.05208337500000226,
          "durationTicks": 15,
          "midi": 40,
          "name": "E2",
          "ticks": 14520,
          "time": 50.416707,
          "velocity": 0.5984251968503937
        },
        {
          "duration": 0.05208337499999516,
          "durationTicks": 15,
          "midi": 46,
          "name": "A#2",
          "ticks": 14580,
          "time": 50.625040500000004,
          "velocity": 0.5984251968503937
        },
        {
          "duration": 0.05208337500000226,
          "durationTicks": 15,
          "midi": 40,
          "name": "E2",
          "ticks": 14610,
          "time": 50.72920725,
          "velocity": 0.5984251968503937
        },
        {
          "duration": 0.05208337500000226,
          "durationTicks": 15,
          "midi": 42,
          "name": "F#2",
          "ticks": 14640,
          "time": 50.833374,
          "velocity": 0.5984251968503937
        },
        {
          "duration": 0.05208337500000226,
          "durationTicks": 15,
          "midi": 36,
          "name": "C2",
          "ticks": 14640,
          "time": 50.833374,
          "velocity": 0.5984251968503937
        },
        {
          "duration": 0.05208337500000226,
          "durationTicks": 15,
          "midi": 46,
          "name": "A#2",
          "ticks": 14700,
          "time": 51.0417075,
          "velocity": 0.5984251968503937
        },
        {
          "duration": 0.05208337500000226,
          "durationTicks": 15,
          "midi": 36,
          "name": "C2",
          "ticks": 14700,
          "time": 51.0417075,
          "velocity": 0.5984251968503937
        },
        {
          "duration": 0.05208337500000226,
          "durationTicks": 15,
          "midi": 36,
          "name": "C2",
          "ticks": 14730,
          "time": 51.14587425,
          "velocity": 0.5984251968503937
        },
        {
          "duration": 0.05208337499999516,
          "durationTicks": 15,
          "midi": 42,
          "name": "F#2",
          "ticks": 14760,
          "time": 51.250041,
          "velocity": 0.5984251968503937
        },
        {
          "duration": 0.05208337499999516,
          "durationTicks": 15,
          "midi": 40,
          "name": "E2",
          "ticks": 14760,
          "time": 51.250041,
          "velocity": 0.5984251968503937
        },
        {
          "duration": 0.05208337500000226,
          "durationTicks": 15,
          "midi": 46,
          "name": "A#2",
          "ticks": 14820,
          "time": 51.4583745,
          "velocity": 0.5984251968503937
        },
        {
          "duration": 0.05208337500000226,
          "durationTicks": 15,
          "midi": 36,
          "name": "C2",
          "ticks": 14820,
          "time": 51.4583745,
          "velocity": 0.5984251968503937
        },
        {
          "duration": 0.05208337500000226,
          "durationTicks": 15,
          "midi": 42,
          "name": "F#2",
          "ticks": 14880,
          "time": 51.666708,
          "velocity": 0.5984251968503937
        },
        {
          "duration": 0.05208337500000226,
          "durationTicks": 15,
          "midi": 36,
          "name": "C2",
          "ticks": 14880,
          "time": 51.666708,
          "velocity": 0.5984251968503937
        },
        {
          "duration": 0.05208337500000226,
          "durationTicks": 15,
          "midi": 46,
          "name": "A#2",
          "ticks": 14940,
          "time": 51.8750415,
          "velocity": 0.5984251968503937
        },
        {
          "duration": 0.05208337499999516,
          "durationTicks": 15,
          "midi": 36,
          "name": "C2",
          "ticks": 15000,
          "time": 52.083375000000004,
          "velocity": 0.5984251968503937
        },
        {
          "duration": 0.05208337499999516,
          "durationTicks": 15,
          "midi": 42,
          "name": "F#2",
          "ticks": 15000,
          "time": 52.083375000000004,
          "velocity": 0.5984251968503937
        },
        {
          "duration": 0.05208337499999516,
          "durationTicks": 15,
          "midi": 40,
          "name": "E2",
          "ticks": 15000,
          "time": 52.083375000000004,
          "velocity": 0.5984251968503937
        },
        {
          "duration": 0.05208337500000226,
          "durationTicks": 15,
          "midi": 36,
          "name": "C2",
          "ticks": 15060,
          "time": 52.2917085,
          "velocity": 0.5984251968503937
        },
        {
          "duration": 0.05208337500000226,
          "durationTicks": 15,
          "midi": 40,
          "name": "E2",
          "ticks": 15060,
          "time": 52.2917085,
          "velocity": 0.5984251968503937
        },
        {
          "duration": 0.05208337500000226,
          "durationTicks": 15,
          "midi": 46,
          "name": "A#2",
          "ticks": 15060,
          "time": 52.2917085,
          "velocity": 0.5984251968503937
        },
        {
          "duration": 0.05208337500000226,
          "durationTicks": 15,
          "midi": 40,
          "name": "E2",
          "ticks": 15120,
          "time": 52.500042,
          "velocity": 0.5984251968503937
        },
        {
          "duration": 0.05208337500000226,
          "durationTicks": 15,
          "midi": 42,
          "name": "F#2",
          "ticks": 15120,
          "time": 52.500042,
          "velocity": 0.5984251968503937
        },
        {
          "duration": 0.05208337500000226,
          "durationTicks": 15,
          "midi": 36,
          "name": "C2",
          "ticks": 15120,
          "time": 52.500042,
          "velocity": 0.5984251968503937
        },
        {
          "duration": 0.05208337500000226,
          "durationTicks": 15,
          "midi": 36,
          "name": "C2",
          "ticks": 15150,
          "time": 52.60420875,
          "velocity": 0.5984251968503937
        },
        {
          "duration": 0.05208337500000226,
          "durationTicks": 15,
          "midi": 46,
          "name": "A#2",
          "ticks": 15180,
          "time": 52.7083755,
          "velocity": 0.5984251968503937
        },
        {
          "duration": 0.05208337500000226,
          "durationTicks": 15,
          "midi": 36,
          "name": "C2",
          "ticks": 15180,
          "time": 52.7083755,
          "velocity": 0.5984251968503937
        },
        {
          "duration": 0.05208337500000226,
          "durationTicks": 15,
          "midi": 36,
          "name": "C2",
          "ticks": 15210,
          "time": 52.81254225,
          "velocity": 0.5984251968503937
        },
        {
          "duration": 0.05208337499999516,
          "durationTicks": 15,
          "midi": 36,
          "name": "C2",
          "ticks": 15240,
          "time": 52.916709000000004,
          "velocity": 0.5984251968503937
        },
        {
          "duration": 0.05208337499999516,
          "durationTicks": 15,
          "midi": 42,
          "name": "F#2",
          "ticks": 15240,
          "time": 52.916709000000004,
          "velocity": 0.5984251968503937
        },
        {
          "duration": 0.05208337499999516,
          "durationTicks": 15,
          "midi": 40,
          "name": "E2",
          "ticks": 15240,
          "time": 52.916709000000004,
          "velocity": 0.5984251968503937
        },
        {
          "duration": 0.05208337500000226,
          "durationTicks": 15,
          "midi": 36,
          "name": "C2",
          "ticks": 15270,
          "time": 53.02087575,
          "velocity": 0.5984251968503937
        },
        {
          "duration": 0.05208337500000226,
          "durationTicks": 15,
          "midi": 46,
          "name": "A#2",
          "ticks": 15300,
          "time": 53.1250425,
          "velocity": 0.5984251968503937
        },
        {
          "duration": 0.05208337500000226,
          "durationTicks": 15,
          "midi": 40,
          "name": "E2",
          "ticks": 15300,
          "time": 53.1250425,
          "velocity": 0.5984251968503937
        },
        {
          "duration": 0.05208337500000226,
          "durationTicks": 15,
          "midi": 36,
          "name": "C2",
          "ticks": 15300,
          "time": 53.1250425,
          "velocity": 0.5984251968503937
        },
        {
          "duration": 0.05208337499999516,
          "durationTicks": 15,
          "midi": 42,
          "name": "F#2",
          "ticks": 15330,
          "time": 53.229209250000004,
          "velocity": 0.5984251968503937
        },
        {
          "duration": 0.05208337500000226,
          "durationTicks": 15,
          "midi": 42,
          "name": "F#2",
          "ticks": 15360,
          "time": 53.333376,
          "velocity": 0.5984251968503937
        },
        {
          "duration": 0.05208337500000226,
          "durationTicks": 15,
          "midi": 36,
          "name": "C2",
          "ticks": 15360,
          "time": 53.333376,
          "velocity": 0.5984251968503937
        },
        {
          "duration": 0.05208337500000226,
          "durationTicks": 15,
          "midi": 49,
          "name": "C#3",
          "ticks": 15360,
          "time": 53.333376,
          "velocity": 0.5984251968503937
        },
        {
          "duration": 0.05208337499999516,
          "durationTicks": 15,
          "midi": 46,
          "name": "A#2",
          "ticks": 15420,
          "time": 53.5417095,
          "velocity": 0.5984251968503937
        },
        {
          "duration": 0.05208337500000226,
          "durationTicks": 15,
          "midi": 42,
          "name": "F#2",
          "ticks": 15480,
          "time": 53.750043,
          "velocity": 0.5984251968503937
        },
        {
          "duration": 0.05208337500000226,
          "durationTicks": 15,
          "midi": 40,
          "name": "E2",
          "ticks": 15480,
          "time": 53.750043,
          "velocity": 0.5984251968503937
        },
        {
          "duration": 0.05208337500000226,
          "durationTicks": 15,
          "midi": 46,
          "name": "A#2",
          "ticks": 15540,
          "time": 53.9583765,
          "velocity": 0.5984251968503937
        },
        {
          "duration": 0.05208337499999516,
          "durationTicks": 15,
          "midi": 36,
          "name": "C2",
          "ticks": 15570,
          "time": 54.062543250000004,
          "velocity": 0.5984251968503937
        },
        {
          "duration": 0.05208337500000226,
          "durationTicks": 15,
          "midi": 42,
          "name": "F#2",
          "ticks": 15600,
          "time": 54.16671,
          "velocity": 0.5984251968503937
        },
        {
          "duration": 0.05208337500000226,
          "durationTicks": 15,
          "midi": 36,
          "name": "C2",
          "ticks": 15600,
          "time": 54.16671,
          "velocity": 0.5984251968503937
        },
        {
          "duration": 0.05208337499999516,
          "durationTicks": 15,
          "midi": 46,
          "name": "A#2",
          "ticks": 15660,
          "time": 54.375043500000004,
          "velocity": 0.5984251968503937
        },
        {
          "duration": 0.05208337499999516,
          "durationTicks": 15,
          "midi": 36,
          "name": "C2",
          "ticks": 15660,
          "time": 54.375043500000004,
          "velocity": 0.5984251968503937
        },
        {
          "duration": 0.05208337500000226,
          "durationTicks": 15,
          "midi": 42,
          "name": "F#2",
          "ticks": 15720,
          "time": 54.583377,
          "velocity": 0.5984251968503937
        },
        {
          "duration": 0.05208337500000226,
          "durationTicks": 15,
          "midi": 40,
          "name": "E2",
          "ticks": 15720,
          "time": 54.583377,
          "velocity": 0.5984251968503937
        },
        {
          "duration": 0.05208337500000226,
          "durationTicks": 15,
          "midi": 46,
          "name": "A#2",
          "ticks": 15780,
          "time": 54.7917105,
          "velocity": 0.5984251968503937
        },
        {
          "duration": 0.05208337499999516,
          "durationTicks": 15,
          "midi": 42,
          "name": "F#2",
          "ticks": 15840,
          "time": 55.000044,
          "velocity": 0.5984251968503937
        },
        {
          "duration": 0.05208337499999516,
          "durationTicks": 15,
          "midi": 36,
          "name": "C2",
          "ticks": 15840,
          "time": 55.000044,
          "velocity": 0.5984251968503937
        },
        {
          "duration": 0.05208337499999516,
          "durationTicks": 15,
          "midi": 46,
          "name": "A#2",
          "ticks": 15900,
          "time": 55.208377500000005,
          "velocity": 0.5984251968503937
        },
        {
          "duration": 0.05208337500000226,
          "durationTicks": 15,
          "midi": 42,
          "name": "F#2",
          "ticks": 15960,
          "time": 55.416711,
          "velocity": 0.5984251968503937
        },
        {
          "duration": 0.05208337500000226,
          "durationTicks": 15,
          "midi": 40,
          "name": "E2",
          "ticks": 15960,
          "time": 55.416711,
          "velocity": 0.5984251968503937
        },
        {
          "duration": 0.05208337500000226,
          "durationTicks": 15,
          "midi": 46,
          "name": "A#2",
          "ticks": 16020,
          "time": 55.6250445,
          "velocity": 0.5984251968503937
        },
        {
          "duration": 0.05208337499999516,
          "durationTicks": 15,
          "midi": 42,
          "name": "F#2",
          "ticks": 16080,
          "time": 55.833378,
          "velocity": 0.5984251968503937
        },
        {
          "duration": 0.05208337499999516,
          "durationTicks": 15,
          "midi": 36,
          "name": "C2",
          "ticks": 16080,
          "time": 55.833378,
          "velocity": 0.5984251968503937
        },
        {
          "duration": 0.05208337500000226,
          "durationTicks": 15,
          "midi": 46,
          "name": "A#2",
          "ticks": 16140,
          "time": 56.0417115,
          "velocity": 0.5984251968503937
        },
        {
          "duration": 0.05208337500000226,
          "durationTicks": 15,
          "midi": 36,
          "name": "C2",
          "ticks": 16140,
          "time": 56.0417115,
          "velocity": 0.5984251968503937
        },
        {
          "duration": 0.05208337500000226,
          "durationTicks": 15,
          "midi": 42,
          "name": "F#2",
          "ticks": 16200,
          "time": 56.250045,
          "velocity": 0.5984251968503937
        },
        {
          "duration": 0.05208337500000226,
          "durationTicks": 15,
          "midi": 40,
          "name": "E2",
          "ticks": 16200,
          "time": 56.250045,
          "velocity": 0.5984251968503937
        },
        {
          "duration": 0.05208337500000226,
          "durationTicks": 15,
          "midi": 46,
          "name": "A#2",
          "ticks": 16260,
          "time": 56.4583785,
          "velocity": 0.5984251968503937
        },
        {
          "duration": 0.05208337499999516,
          "durationTicks": 15,
          "midi": 42,
          "name": "F#2",
          "ticks": 16320,
          "time": 56.666712000000004,
          "velocity": 0.5984251968503937
        },
        {
          "duration": 0.05208337499999516,
          "durationTicks": 15,
          "midi": 36,
          "name": "C2",
          "ticks": 16320,
          "time": 56.666712000000004,
          "velocity": 0.5984251968503937
        },
        {
          "duration": 0.05208337500000226,
          "durationTicks": 15,
          "midi": 46,
          "name": "A#2",
          "ticks": 16380,
          "time": 56.8750455,
          "velocity": 0.5984251968503937
        },
        {
          "duration": 0.05208337500000226,
          "durationTicks": 15,
          "midi": 42,
          "name": "F#2",
          "ticks": 16440,
          "time": 57.083379,
          "velocity": 0.5984251968503937
        },
        {
          "duration": 0.05208337500000226,
          "durationTicks": 15,
          "midi": 40,
          "name": "E2",
          "ticks": 16440,
          "time": 57.083379,
          "velocity": 0.5984251968503937
        },
        {
          "duration": 0.05208337499999516,
          "durationTicks": 15,
          "midi": 46,
          "name": "A#2",
          "ticks": 16500,
          "time": 57.2917125,
          "velocity": 0.5984251968503937
        },
        {
          "duration": 0.05208337500000226,
          "durationTicks": 15,
          "midi": 40,
          "name": "E2",
          "ticks": 16530,
          "time": 57.39587925,
          "velocity": 0.5984251968503937
        },
        {
          "duration": 0.05208337499999516,
          "durationTicks": 15,
          "midi": 42,
          "name": "F#2",
          "ticks": 16560,
          "time": 57.500046000000005,
          "velocity": 0.5984251968503937
        },
        {
          "duration": 0.05208337499999516,
          "durationTicks": 15,
          "midi": 36,
          "name": "C2",
          "ticks": 16560,
          "time": 57.500046000000005,
          "velocity": 0.5984251968503937
        },
        {
          "duration": 0.05208337500000226,
          "durationTicks": 15,
          "midi": 46,
          "name": "A#2",
          "ticks": 16620,
          "time": 57.7083795,
          "velocity": 0.5984251968503937
        },
        {
          "duration": 0.05208337500000226,
          "durationTicks": 15,
          "midi": 36,
          "name": "C2",
          "ticks": 16620,
          "time": 57.7083795,
          "velocity": 0.5984251968503937
        },
        {
          "duration": 0.05208337499999516,
          "durationTicks": 15,
          "midi": 36,
          "name": "C2",
          "ticks": 16650,
          "time": 57.812546250000004,
          "velocity": 0.5984251968503937
        },
        {
          "duration": 0.05208337500000226,
          "durationTicks": 15,
          "midi": 42,
          "name": "F#2",
          "ticks": 16680,
          "time": 57.916713,
          "velocity": 0.5984251968503937
        },
        {
          "duration": 0.05208337500000226,
          "durationTicks": 15,
          "midi": 40,
          "name": "E2",
          "ticks": 16680,
          "time": 57.916713,
          "velocity": 0.5984251968503937
        },
        {
          "duration": 0.05208337499999516,
          "durationTicks": 15,
          "midi": 46,
          "name": "A#2",
          "ticks": 16740,
          "time": 58.1250465,
          "velocity": 0.5984251968503937
        },
        {
          "duration": 0.05208337499999516,
          "durationTicks": 15,
          "midi": 36,
          "name": "C2",
          "ticks": 16740,
          "time": 58.1250465,
          "velocity": 0.5984251968503937
        },
        {
          "duration": 0.05208337500000226,
          "durationTicks": 15,
          "midi": 42,
          "name": "F#2",
          "ticks": 16800,
          "time": 58.33338,
          "velocity": 0.5984251968503937
        },
        {
          "duration": 0.05208337500000226,
          "durationTicks": 15,
          "midi": 36,
          "name": "C2",
          "ticks": 16800,
          "time": 58.33338,
          "velocity": 0.5984251968503937
        },
        {
          "duration": 0.05208337500000226,
          "durationTicks": 15,
          "midi": 46,
          "name": "A#2",
          "ticks": 16860,
          "time": 58.5417135,
          "velocity": 0.5984251968503937
        },
        {
          "duration": 0.05208337500000226,
          "durationTicks": 15,
          "midi": 42,
          "name": "F#2",
          "ticks": 16920,
          "time": 58.750047,
          "velocity": 0.5984251968503937
        },
        {
          "duration": 0.05208337500000226,
          "durationTicks": 15,
          "midi": 40,
          "name": "E2",
          "ticks": 16920,
          "time": 58.750047,
          "velocity": 0.5984251968503937
        },
        {
          "duration": 0.05208337499999516,
          "durationTicks": 15,
          "midi": 46,
          "name": "A#2",
          "ticks": 16980,
          "time": 58.958380500000004,
          "velocity": 0.5984251968503937
        },
        {
          "duration": 0.05208337500000226,
          "durationTicks": 15,
          "midi": 36,
          "name": "C2",
          "ticks": 17010,
          "time": 59.06254725,
          "velocity": 0.5984251968503937
        },
        {
          "duration": 0.05208337500000226,
          "durationTicks": 15,
          "midi": 42,
          "name": "F#2",
          "ticks": 17040,
          "time": 59.166714,
          "velocity": 0.5984251968503937
        },
        {
          "duration": 0.05208337500000226,
          "durationTicks": 15,
          "midi": 36,
          "name": "C2",
          "ticks": 17040,
          "time": 59.166714,
          "velocity": 0.5984251968503937
        },
        {
          "duration": 0.05208337500000226,
          "durationTicks": 15,
          "midi": 46,
          "name": "A#2",
          "ticks": 17100,
          "time": 59.3750475,
          "velocity": 0.5984251968503937
        },
        {
          "duration": 0.05208337500000226,
          "durationTicks": 15,
          "midi": 36,
          "name": "C2",
          "ticks": 17100,
          "time": 59.3750475,
          "velocity": 0.5984251968503937
        },
        {
          "duration": 0.05208337499999516,
          "durationTicks": 15,
          "midi": 42,
          "name": "F#2",
          "ticks": 17160,
          "time": 59.583381,
          "velocity": 0.5984251968503937
        },
        {
          "duration": 0.05208337499999516,
          "durationTicks": 15,
          "midi": 40,
          "name": "E2",
          "ticks": 17160,
          "time": 59.583381,
          "velocity": 0.5984251968503937
        },
        {
          "duration": 0.05208337499999516,
          "durationTicks": 15,
          "midi": 46,
          "name": "A#2",
          "ticks": 17220,
          "time": 59.791714500000005,
          "velocity": 0.5984251968503937
        },
        {
          "duration": 0.05208337499999516,
          "durationTicks": 15,
          "midi": 40,
          "name": "E2",
          "ticks": 17220,
          "time": 59.791714500000005,
          "velocity": 0.5984251968503937
        },
        {
          "duration": 0.05208337499999516,
          "durationTicks": 15,
          "midi": 36,
          "name": "C2",
          "ticks": 17220,
          "time": 59.791714500000005,
          "velocity": 0.5984251968503937
        },
        {
          "duration": 0.05208337500000226,
          "durationTicks": 15,
          "midi": 42,
          "name": "F#2",
          "ticks": 17250,
          "time": 59.89588125,
          "velocity": 0.5984251968503937
        },
        {
          "duration": 0.05208337500000226,
          "durationTicks": 15,
          "midi": 42,
          "name": "F#2",
          "ticks": 17280,
          "time": 60.000048,
          "velocity": 0.5984251968503937
        },
        {
          "duration": 0.05208337500000226,
          "durationTicks": 15,
          "midi": 36,
          "name": "C2",
          "ticks": 17280,
          "time": 60.000048,
          "velocity": 0.5984251968503937
        },
        {
          "duration": 0.05208337500000226,
          "durationTicks": 15,
          "midi": 49,
          "name": "C#3",
          "ticks": 17280,
          "time": 60.000048,
          "velocity": 0.5984251968503937
        },
        {
          "duration": 0.05208337500000226,
          "durationTicks": 15,
          "midi": 46,
          "name": "A#2",
          "ticks": 17340,
          "time": 60.2083815,
          "velocity": 0.5984251968503937
        },
        {
          "duration": 0.05208337499999516,
          "durationTicks": 15,
          "midi": 42,
          "name": "F#2",
          "ticks": 17400,
          "time": 60.416715,
          "velocity": 0.5984251968503937
        },
        {
          "duration": 0.05208337499999516,
          "durationTicks": 15,
          "midi": 40,
          "name": "E2",
          "ticks": 17400,
          "time": 60.416715,
          "velocity": 0.5984251968503937
        },
        {
          "duration": 0.05208337500000226,
          "durationTicks": 15,
          "midi": 46,
          "name": "A#2",
          "ticks": 17460,
          "time": 60.6250485,
          "velocity": 0.5984251968503937
        },
        {
          "duration": 0.05208337499999516,
          "durationTicks": 15,
          "midi": 36,
          "name": "C2",
          "ticks": 17490,
          "time": 60.72921525,
          "velocity": 0.5984251968503937
        },
        {
          "duration": 0.05208337500000226,
          "durationTicks": 15,
          "midi": 42,
          "name": "F#2",
          "ticks": 17520,
          "time": 60.833382,
          "velocity": 0.5984251968503937
        },
        {
          "duration": 0.05208337500000226,
          "durationTicks": 15,
          "midi": 36,
          "name": "C2",
          "ticks": 17520,
          "time": 60.833382,
          "velocity": 0.5984251968503937
        },
        {
          "duration": 0.05208337500000226,
          "durationTicks": 15,
          "midi": 46,
          "name": "A#2",
          "ticks": 17580,
          "time": 61.0417155,
          "velocity": 0.5984251968503937
        },
        {
          "duration": 0.05208337500000226,
          "durationTicks": 15,
          "midi": 36,
          "name": "C2",
          "ticks": 17580,
          "time": 61.0417155,
          "velocity": 0.5984251968503937
        },
        {
          "duration": 0.05208337499999516,
          "durationTicks": 15,
          "midi": 42,
          "name": "F#2",
          "ticks": 17640,
          "time": 61.250049000000004,
          "velocity": 0.5984251968503937
        },
        {
          "duration": 0.05208337499999516,
          "durationTicks": 15,
          "midi": 40,
          "name": "E2",
          "ticks": 17640,
          "time": 61.250049000000004,
          "velocity": 0.5984251968503937
        },
        {
          "duration": 0.05208337500000226,
          "durationTicks": 15,
          "midi": 46,
          "name": "A#2",
          "ticks": 17700,
          "time": 61.4583825,
          "velocity": 0.5984251968503937
        },
        {
          "duration": 0.05208337500000226,
          "durationTicks": 15,
          "midi": 42,
          "name": "F#2",
          "ticks": 17760,
          "time": 61.666716,
          "velocity": 0.5984251968503937
        },
        {
          "duration": 0.05208337500000226,
          "durationTicks": 15,
          "midi": 36,
          "name": "C2",
          "ticks": 17760,
          "time": 61.666716,
          "velocity": 0.5984251968503937
        },
        {
          "duration": 0.05208337499999516,
          "durationTicks": 15,
          "midi": 46,
          "name": "A#2",
          "ticks": 17820,
          "time": 61.8750495,
          "velocity": 0.5984251968503937
        },
        {
          "duration": 0.05208337499999516,
          "durationTicks": 15,
          "midi": 42,
          "name": "F#2",
          "ticks": 17880,
          "time": 62.083383000000005,
          "velocity": 0.5984251968503937
        },
        {
          "duration": 0.05208337499999516,
          "durationTicks": 15,
          "midi": 40,
          "name": "E2",
          "ticks": 17880,
          "time": 62.083383000000005,
          "velocity": 0.5984251968503937
        },
        {
          "duration": 0.05208337500000226,
          "durationTicks": 15,
          "midi": 46,
          "name": "A#2",
          "ticks": 17940,
          "time": 62.2917165,
          "velocity": 0.5984251968503937
        },
        {
          "duration": 0.05208337500000226,
          "durationTicks": 15,
          "midi": 42,
          "name": "F#2",
          "ticks": 18000,
          "time": 62.50005,
          "velocity": 0.5984251968503937
        },
        {
          "duration": 0.05208337500000226,
          "durationTicks": 15,
          "midi": 36,
          "name": "C2",
          "ticks": 18000,
          "time": 62.50005,
          "velocity": 0.5984251968503937
        },
        {
          "duration": 0.05208337499999516,
          "durationTicks": 15,
          "midi": 46,
          "name": "A#2",
          "ticks": 18060,
          "time": 62.708383500000004,
          "velocity": 0.5984251968503937
        },
        {
          "duration": 0.05208337499999516,
          "durationTicks": 15,
          "midi": 36,
          "name": "C2",
          "ticks": 18060,
          "time": 62.708383500000004,
          "velocity": 0.5984251968503937
        },
        {
          "duration": 0.05208337500000226,
          "durationTicks": 15,
          "midi": 42,
          "name": "F#2",
          "ticks": 18120,
          "time": 62.916717,
          "velocity": 0.5984251968503937
        },
        {
          "duration": 0.05208337500000226,
          "durationTicks": 15,
          "midi": 40,
          "name": "E2",
          "ticks": 18120,
          "time": 62.916717,
          "velocity": 0.5984251968503937
        },
        {
          "duration": 0.05208337500000226,
          "durationTicks": 15,
          "midi": 46,
          "name": "A#2",
          "ticks": 18180,
          "time": 63.1250505,
          "velocity": 0.5984251968503937
        },
        {
          "duration": 0.05208337500000226,
          "durationTicks": 15,
          "midi": 42,
          "name": "F#2",
          "ticks": 18240,
          "time": 63.333384,
          "velocity": 0.5984251968503937
        },
        {
          "duration": 0.05208337500000226,
          "durationTicks": 15,
          "midi": 36,
          "name": "C2",
          "ticks": 18240,
          "time": 63.333384,
          "velocity": 0.5984251968503937
        },
        {
          "duration": 0.05208337499999516,
          "durationTicks": 15,
          "midi": 46,
          "name": "A#2",
          "ticks": 18300,
          "time": 63.541717500000004,
          "velocity": 0.5984251968503937
        },
        {
          "duration": 0.05208337500000226,
          "durationTicks": 15,
          "midi": 42,
          "name": "F#2",
          "ticks": 18360,
          "time": 63.750051,
          "velocity": 0.5984251968503937
        },
        {
          "duration": 0.05208337500000226,
          "durationTicks": 15,
          "midi": 40,
          "name": "E2",
          "ticks": 18360,
          "time": 63.750051,
          "velocity": 0.5984251968503937
        },
        {
          "duration": 0.05208337500000226,
          "durationTicks": 15,
          "midi": 46,
          "name": "A#2",
          "ticks": 18420,
          "time": 63.9583845,
          "velocity": 0.5984251968503937
        },
        {
          "duration": 0.05208337500000937,
          "durationTicks": 15,
          "midi": 40,
          "name": "E2",
          "ticks": 18450,
          "time": 64.06255125,
          "velocity": 0.5984251968503937
        },
        {
          "duration": 0.05208337499999516,
          "durationTicks": 15,
          "midi": 42,
          "name": "F#2",
          "ticks": 18480,
          "time": 64.166718,
          "velocity": 0.5984251968503937
        },
        {
          "duration": 0.05208337499999516,
          "durationTicks": 15,
          "midi": 36,
          "name": "C2",
          "ticks": 18480,
          "time": 64.166718,
          "velocity": 0.5984251968503937
        },
        {
          "duration": 0.05208337500000937,
          "durationTicks": 15,
          "midi": 46,
          "name": "A#2",
          "ticks": 18540,
          "time": 64.3750515,
          "velocity": 0.5984251968503937
        },
        {
          "duration": 0.05208337500000937,
          "durationTicks": 15,
          "midi": 36,
          "name": "C2",
          "ticks": 18540,
          "time": 64.3750515,
          "velocity": 0.5984251968503937
        },
        {
          "duration": 0.05208337499999516,
          "durationTicks": 15,
          "midi": 36,
          "name": "C2",
          "ticks": 18570,
          "time": 64.47921825,
          "velocity": 0.5984251968503937
        },
        {
          "duration": 0.05208337499999516,
          "durationTicks": 15,
          "midi": 42,
          "name": "F#2",
          "ticks": 18600,
          "time": 64.583385,
          "velocity": 0.5984251968503937
        },
        {
          "duration": 0.05208337499999516,
          "durationTicks": 15,
          "midi": 40,
          "name": "E2",
          "ticks": 18600,
          "time": 64.583385,
          "velocity": 0.5984251968503937
        },
        {
          "duration": 0.05208337499999516,
          "durationTicks": 15,
          "midi": 46,
          "name": "A#2",
          "ticks": 18660,
          "time": 64.7917185,
          "velocity": 0.5984251968503937
        },
        {
          "duration": 0.05208337499999516,
          "durationTicks": 15,
          "midi": 36,
          "name": "C2",
          "ticks": 18660,
          "time": 64.7917185,
          "velocity": 0.5984251968503937
        },
        {
          "duration": 0.05208337500000937,
          "durationTicks": 15,
          "midi": 42,
          "name": "F#2",
          "ticks": 18720,
          "time": 65.000052,
          "velocity": 0.5984251968503937
        },
        {
          "duration": 0.05208337500000937,
          "durationTicks": 15,
          "midi": 36,
          "name": "C2",
          "ticks": 18720,
          "time": 65.000052,
          "velocity": 0.5984251968503937
        },
        {
          "duration": 0.05208337499999516,
          "durationTicks": 15,
          "midi": 40,
          "name": "E2",
          "ticks": 18780,
          "time": 65.2083855,
          "velocity": 0.5984251968503937
        },
        {
          "duration": 0.05208337499999516,
          "durationTicks": 15,
          "midi": 46,
          "name": "A#2",
          "ticks": 18780,
          "time": 65.2083855,
          "velocity": 0.5984251968503937
        },
        {
          "duration": 0.05208337499999516,
          "durationTicks": 15,
          "midi": 40,
          "name": "E2",
          "ticks": 18840,
          "time": 65.416719,
          "velocity": 0.5984251968503937
        },
        {
          "duration": 0.05208337499999516,
          "durationTicks": 15,
          "midi": 42,
          "name": "F#2",
          "ticks": 18840,
          "time": 65.416719,
          "velocity": 0.5984251968503937
        },
        {
          "duration": 0.05208337499999516,
          "durationTicks": 15,
          "midi": 40,
          "name": "E2",
          "ticks": 18870,
          "time": 65.52088575,
          "velocity": 0.5984251968503937
        },
        {
          "duration": 0.05208337500000937,
          "durationTicks": 15,
          "midi": 40,
          "name": "E2",
          "ticks": 18900,
          "time": 65.6250525,
          "velocity": 0.5984251968503937
        },
        {
          "duration": 0.05208337500000937,
          "durationTicks": 15,
          "midi": 46,
          "name": "A#2",
          "ticks": 18900,
          "time": 65.6250525,
          "velocity": 0.5984251968503937
        },
        {
          "duration": 0.05208337499999516,
          "durationTicks": 15,
          "midi": 40,
          "name": "E2",
          "ticks": 18960,
          "time": 65.833386,
          "velocity": 0.5984251968503937
        },
        {
          "duration": 0.05208337499999516,
          "durationTicks": 15,
          "midi": 36,
          "name": "C2",
          "ticks": 18960,
          "time": 65.833386,
          "velocity": 0.5984251968503937
        },
        {
          "duration": 0.05208337499999516,
          "durationTicks": 15,
          "midi": 42,
          "name": "F#2",
          "ticks": 18960,
          "time": 65.833386,
          "velocity": 0.5984251968503937
        },
        {
          "duration": 0.05208337500000937,
          "durationTicks": 15,
          "midi": 40,
          "name": "E2",
          "ticks": 19020,
          "time": 66.0417195,
          "velocity": 0.5984251968503937
        },
        {
          "duration": 0.05208337500000937,
          "durationTicks": 15,
          "midi": 46,
          "name": "A#2",
          "ticks": 19020,
          "time": 66.0417195,
          "velocity": 0.5984251968503937
        },
        {
          "duration": 0.05208337499999516,
          "durationTicks": 15,
          "midi": 40,
          "name": "E2",
          "ticks": 19050,
          "time": 66.14588625,
          "velocity": 0.5984251968503937
        },
        {
          "duration": 0.05208337499999516,
          "durationTicks": 15,
          "midi": 40,
          "name": "E2",
          "ticks": 19080,
          "time": 66.25005300000001,
          "velocity": 0.5984251968503937
        },
        {
          "duration": 0.05208337499999516,
          "durationTicks": 15,
          "midi": 42,
          "name": "F#2",
          "ticks": 19080,
          "time": 66.25005300000001,
          "velocity": 0.5984251968503937
        },
        {
          "duration": 0.05208337500000937,
          "durationTicks": 15,
          "midi": 40,
          "name": "E2",
          "ticks": 19110,
          "time": 66.35421975,
          "velocity": 0.5984251968503937
        },
        {
          "duration": 0.05208337499999516,
          "durationTicks": 15,
          "midi": 36,
          "name": "C2",
          "ticks": 19140,
          "time": 66.4583865,
          "velocity": 0.5984251968503937
        },
        {
          "duration": 0.05208337499999516,
          "durationTicks": 15,
          "midi": 40,
          "name": "E2",
          "ticks": 19140,
          "time": 66.4583865,
          "velocity": 0.5984251968503937
        },
        {
          "duration": 0.05208337499999516,
          "durationTicks": 15,
          "midi": 46,
          "name": "A#2",
          "ticks": 19140,
          "time": 66.4583865,
          "velocity": 0.5984251968503937
        },
        {
          "duration": 0.05208337499999516,
          "durationTicks": 15,
          "midi": 40,
          "name": "E2",
          "ticks": 19170,
          "time": 66.56255325000001,
          "velocity": 0.5984251968503937
        },
        {
          "duration": 0.05208337499999516,
          "durationTicks": 15,
          "midi": 42,
          "name": "F#2",
          "ticks": 19170,
          "time": 66.56255325000001,
          "velocity": 0.5984251968503937
        },
        {
          "duration": 0.05208337500000937,
          "durationTicks": 15,
          "midi": 42,
          "name": "F#2",
          "ticks": 19200,
          "time": 66.66672,
          "velocity": 0.5984251968503937
        },
        {
          "duration": 0.05208337500000937,
          "durationTicks": 15,
          "midi": 36,
          "name": "C2",
          "ticks": 19200,
          "time": 66.66672,
          "velocity": 0.5984251968503937
        },
        {
          "duration": 0.05208337500000937,
          "durationTicks": 15,
          "midi": 49,
          "name": "C#3",
          "ticks": 19200,
          "time": 66.66672,
          "velocity": 0.5984251968503937
        },
        {
          "duration": 0.05208337499999516,
          "durationTicks": 15,
          "midi": 46,
          "name": "A#2",
          "ticks": 19260,
          "time": 66.8750535,
          "velocity": 0.5984251968503937
        },
        {
          "duration": 0.05208337499999516,
          "durationTicks": 15,
          "midi": 42,
          "name": "F#2",
          "ticks": 19320,
          "time": 67.083387,
          "velocity": 0.5984251968503937
        },
        {
          "duration": 0.05208337499999516,
          "durationTicks": 15,
          "midi": 40,
          "name": "E2",
          "ticks": 19320,
          "time": 67.083387,
          "velocity": 0.5984251968503937
        },
        {
          "duration": 0.05208337500000937,
          "durationTicks": 15,
          "midi": 46,
          "name": "A#2",
          "ticks": 19380,
          "time": 67.2917205,
          "velocity": 0.5984251968503937
        },
        {
          "duration": 0.05208337499999516,
          "durationTicks": 15,
          "midi": 36,
          "name": "C2",
          "ticks": 19410,
          "time": 67.39588725,
          "velocity": 0.5984251968503937
        },
        {
          "duration": 0.05208337499999516,
          "durationTicks": 15,
          "midi": 42,
          "name": "F#2",
          "ticks": 19440,
          "time": 67.500054,
          "velocity": 0.5984251968503937
        },
        {
          "duration": 0.05208337499999516,
          "durationTicks": 15,
          "midi": 36,
          "name": "C2",
          "ticks": 19440,
          "time": 67.500054,
          "velocity": 0.5984251968503937
        },
        {
          "duration": 0.05208337499999516,
          "durationTicks": 15,
          "midi": 46,
          "name": "A#2",
          "ticks": 19500,
          "time": 67.7083875,
          "velocity": 0.5984251968503937
        },
        {
          "duration": 0.05208337499999516,
          "durationTicks": 15,
          "midi": 36,
          "name": "C2",
          "ticks": 19500,
          "time": 67.7083875,
          "velocity": 0.5984251968503937
        },
        {
          "duration": 0.05208337500000937,
          "durationTicks": 15,
          "midi": 42,
          "name": "F#2",
          "ticks": 19560,
          "time": 67.916721,
          "velocity": 0.5984251968503937
        },
        {
          "duration": 0.05208337500000937,
          "durationTicks": 15,
          "midi": 40,
          "name": "E2",
          "ticks": 19560,
          "time": 67.916721,
          "velocity": 0.5984251968503937
        },
        {
          "duration": 0.05208337499999516,
          "durationTicks": 15,
          "midi": 46,
          "name": "A#2",
          "ticks": 19620,
          "time": 68.1250545,
          "velocity": 0.5984251968503937
        },
        {
          "duration": 0.05208337499999516,
          "durationTicks": 15,
          "midi": 42,
          "name": "F#2",
          "ticks": 19680,
          "time": 68.333388,
          "velocity": 0.5984251968503937
        },
        {
          "duration": 0.05208337499999516,
          "durationTicks": 15,
          "midi": 36,
          "name": "C2",
          "ticks": 19680,
          "time": 68.333388,
          "velocity": 0.5984251968503937
        },
        {
          "duration": 0.05208337499999516,
          "durationTicks": 15,
          "midi": 46,
          "name": "A#2",
          "ticks": 19740,
          "time": 68.54172150000001,
          "velocity": 0.5984251968503937
        },
        {
          "duration": 0.05208337499999516,
          "durationTicks": 15,
          "midi": 42,
          "name": "F#2",
          "ticks": 19800,
          "time": 68.750055,
          "velocity": 0.5984251968503937
        },
        {
          "duration": 0.05208337499999516,
          "durationTicks": 15,
          "midi": 40,
          "name": "E2",
          "ticks": 19800,
          "time": 68.750055,
          "velocity": 0.5984251968503937
        },
        {
          "duration": 0.05208337500000937,
          "durationTicks": 15,
          "midi": 46,
          "name": "A#2",
          "ticks": 19860,
          "time": 68.9583885,
          "velocity": 0.5984251968503937
        },
        {
          "duration": 0.05208337499999516,
          "durationTicks": 15,
          "midi": 42,
          "name": "F#2",
          "ticks": 19920,
          "time": 69.16672200000001,
          "velocity": 0.5984251968503937
        },
        {
          "duration": 0.05208337499999516,
          "durationTicks": 15,
          "midi": 36,
          "name": "C2",
          "ticks": 19920,
          "time": 69.16672200000001,
          "velocity": 0.5984251968503937
        },
        {
          "duration": 0.05208337499999516,
          "durationTicks": 15,
          "midi": 46,
          "name": "A#2",
          "ticks": 19980,
          "time": 69.3750555,
          "velocity": 0.5984251968503937
        },
        {
          "duration": 0.05208337499999516,
          "durationTicks": 15,
          "midi": 36,
          "name": "C2",
          "ticks": 19980,
          "time": 69.3750555,
          "velocity": 0.5984251968503937
        },
        {
          "duration": 0.05208337500000937,
          "durationTicks": 15,
          "midi": 42,
          "name": "F#2",
          "ticks": 20040,
          "time": 69.583389,
          "velocity": 0.5984251968503937
        },
        {
          "duration": 0.05208337500000937,
          "durationTicks": 15,
          "midi": 40,
          "name": "E2",
          "ticks": 20040,
          "time": 69.583389,
          "velocity": 0.5984251968503937
        },
        {
          "duration": 0.05208337499999516,
          "durationTicks": 15,
          "midi": 46,
          "name": "A#2",
          "ticks": 20100,
          "time": 69.7917225,
          "velocity": 0.5984251968503937
        },
        {
          "duration": 0.05208337499999516,
          "durationTicks": 15,
          "midi": 42,
          "name": "F#2",
          "ticks": 20160,
          "time": 70.000056,
          "velocity": 0.5984251968503937
        },
        {
          "duration": 0.05208337499999516,
          "durationTicks": 15,
          "midi": 36,
          "name": "C2",
          "ticks": 20160,
          "time": 70.000056,
          "velocity": 0.5984251968503937
        },
        {
          "duration": 0.05208337500000937,
          "durationTicks": 15,
          "midi": 46,
          "name": "A#2",
          "ticks": 20220,
          "time": 70.2083895,
          "velocity": 0.5984251968503937
        },
        {
          "duration": 0.05208337499999516,
          "durationTicks": 15,
          "midi": 42,
          "name": "F#2",
          "ticks": 20280,
          "time": 70.416723,
          "velocity": 0.5984251968503937
        },
        {
          "duration": 0.05208337499999516,
          "durationTicks": 15,
          "midi": 40,
          "name": "E2",
          "ticks": 20280,
          "time": 70.416723,
          "velocity": 0.5984251968503937
        },
        {
          "duration": 0.05208337499999516,
          "durationTicks": 15,
          "midi": 46,
          "name": "A#2",
          "ticks": 20340,
          "time": 70.6250565,
          "velocity": 0.5984251968503937
        },
        {
          "duration": 0.05208337499999516,
          "durationTicks": 15,
          "midi": 40,
          "name": "E2",
          "ticks": 20370,
          "time": 70.72922325,
          "velocity": 0.5984251968503937
        },
        {
          "duration": 0.05208337499999516,
          "durationTicks": 15,
          "midi": 42,
          "name": "F#2",
          "ticks": 20400,
          "time": 70.83339000000001,
          "velocity": 0.5984251968503937
        },
        {
          "duration": 0.05208337499999516,
          "durationTicks": 15,
          "midi": 36,
          "name": "C2",
          "ticks": 20400,
          "time": 70.83339000000001,
          "velocity": 0.5984251968503937
        },
        {
          "duration": 0.05208337499999516,
          "durationTicks": 15,
          "midi": 46,
          "name": "A#2",
          "ticks": 20460,
          "time": 71.0417235,
          "velocity": 0.5984251968503937
        },
        {
          "duration": 0.05208337499999516,
          "durationTicks": 15,
          "midi": 36,
          "name": "C2",
          "ticks": 20460,
          "time": 71.0417235,
          "velocity": 0.5984251968503937
        },
        {
          "duration": 0.05208337499999516,
          "durationTicks": 15,
          "midi": 36,
          "name": "C2",
          "ticks": 20490,
          "time": 71.14589025000001,
          "velocity": 0.5984251968503937
        },
        {
          "duration": 0.05208337500000937,
          "durationTicks": 15,
          "midi": 42,
          "name": "F#2",
          "ticks": 20520,
          "time": 71.250057,
          "velocity": 0.5984251968503937
        },
        {
          "duration": 0.05208337500000937,
          "durationTicks": 15,
          "midi": 40,
          "name": "E2",
          "ticks": 20520,
          "time": 71.250057,
          "velocity": 0.5984251968503937
        },
        {
          "duration": 0.05208337499999516,
          "durationTicks": 15,
          "midi": 46,
          "name": "A#2",
          "ticks": 20580,
          "time": 71.45839050000001,
          "velocity": 0.5984251968503937
        },
        {
          "duration": 0.05208337499999516,
          "durationTicks": 15,
          "midi": 36,
          "name": "C2",
          "ticks": 20580,
          "time": 71.45839050000001,
          "velocity": 0.5984251968503937
        },
        {
          "duration": 0.05208337499999516,
          "durationTicks": 15,
          "midi": 42,
          "name": "F#2",
          "ticks": 20640,
          "time": 71.666724,
          "velocity": 0.5984251968503937
        },
        {
          "duration": 0.05208337499999516,
          "durationTicks": 15,
          "midi": 36,
          "name": "C2",
          "ticks": 20640,
          "time": 71.666724,
          "velocity": 0.5984251968503937
        },
        {
          "duration": 0.05208337500000937,
          "durationTicks": 15,
          "midi": 46,
          "name": "A#2",
          "ticks": 20700,
          "time": 71.8750575,
          "velocity": 0.5984251968503937
        },
        {
          "duration": 0.05208337499999516,
          "durationTicks": 15,
          "midi": 42,
          "name": "F#2",
          "ticks": 20760,
          "time": 72.083391,
          "velocity": 0.5984251968503937
        },
        {
          "duration": 0.05208337499999516,
          "durationTicks": 15,
          "midi": 40,
          "name": "E2",
          "ticks": 20760,
          "time": 72.083391,
          "velocity": 0.5984251968503937
        },
        {
          "duration": 0.05208337499999516,
          "durationTicks": 15,
          "midi": 46,
          "name": "A#2",
          "ticks": 20820,
          "time": 72.2917245,
          "velocity": 0.5984251968503937
        },
        {
          "duration": 0.05208337499999516,
          "durationTicks": 15,
          "midi": 36,
          "name": "C2",
          "ticks": 20850,
          "time": 72.39589125,
          "velocity": 0.5984251968503937
        },
        {
          "duration": 0.05208337500000937,
          "durationTicks": 15,
          "midi": 42,
          "name": "F#2",
          "ticks": 20880,
          "time": 72.500058,
          "velocity": 0.5984251968503937
        },
        {
          "duration": 0.05208337500000937,
          "durationTicks": 15,
          "midi": 36,
          "name": "C2",
          "ticks": 20880,
          "time": 72.500058,
          "velocity": 0.5984251968503937
        },
        {
          "duration": 0.05208337499999516,
          "durationTicks": 15,
          "midi": 46,
          "name": "A#2",
          "ticks": 20940,
          "time": 72.7083915,
          "velocity": 0.5984251968503937
        },
        {
          "duration": 0.05208337499999516,
          "durationTicks": 15,
          "midi": 36,
          "name": "C2",
          "ticks": 20940,
          "time": 72.7083915,
          "velocity": 0.5984251968503937
        },
        {
          "duration": 0.05208337499999516,
          "durationTicks": 15,
          "midi": 42,
          "name": "F#2",
          "ticks": 21000,
          "time": 72.916725,
          "velocity": 0.5984251968503937
        },
        {
          "duration": 0.05208337499999516,
          "durationTicks": 15,
          "midi": 40,
          "name": "E2",
          "ticks": 21000,
          "time": 72.916725,
          "velocity": 0.5984251968503937
        },
        {
          "duration": 0.05208337499999516,
          "durationTicks": 15,
          "midi": 46,
          "name": "A#2",
          "ticks": 21060,
          "time": 73.12505850000001,
          "velocity": 0.5984251968503937
        },
        {
          "duration": 0.05208337499999516,
          "durationTicks": 15,
          "midi": 40,
          "name": "E2",
          "ticks": 21060,
          "time": 73.12505850000001,
          "velocity": 0.5984251968503937
        },
        {
          "duration": 0.05208337499999516,
          "durationTicks": 15,
          "midi": 36,
          "name": "C2",
          "ticks": 21060,
          "time": 73.12505850000001,
          "velocity": 0.5984251968503937
        },
        {
          "duration": 0.05208337500000937,
          "durationTicks": 15,
          "midi": 40,
          "name": "E2",
          "ticks": 21090,
          "time": 73.22922525,
          "velocity": 0.5984251968503937
        },
        {
          "duration": 0.05208337500000937,
          "durationTicks": 15,
          "midi": 42,
          "name": "F#2",
          "ticks": 21090,
          "time": 73.22922525,
          "velocity": 0.5984251968503937
        },
        {
          "duration": 0.05208337499999516,
          "durationTicks": 15,
          "midi": 42,
          "name": "F#2",
          "ticks": 21120,
          "time": 73.333392,
          "velocity": 0.5984251968503937
        },
        {
          "duration": 0.05208337499999516,
          "durationTicks": 15,
          "midi": 36,
          "name": "C2",
          "ticks": 21120,
          "time": 73.333392,
          "velocity": 0.5984251968503937
        },
        {
          "duration": 0.05208337499999516,
          "durationTicks": 15,
          "midi": 49,
          "name": "C#3",
          "ticks": 21120,
          "time": 73.333392,
          "velocity": 0.5984251968503937
        },
        {
          "duration": 0.05208337500000937,
          "durationTicks": 15,
          "midi": 46,
          "name": "A#2",
          "ticks": 21180,
          "time": 73.5417255,
          "velocity": 0.5984251968503937
        },
        {
          "duration": 0.05208337499999516,
          "durationTicks": 15,
          "midi": 42,
          "name": "F#2",
          "ticks": 21240,
          "time": 73.75005900000001,
          "velocity": 0.5984251968503937
        },
        {
          "duration": 0.05208337499999516,
          "durationTicks": 15,
          "midi": 40,
          "name": "E2",
          "ticks": 21240,
          "time": 73.75005900000001,
          "velocity": 0.5984251968503937
        },
        {
          "duration": 0.05208337499999516,
          "durationTicks": 15,
          "midi": 46,
          "name": "A#2",
          "ticks": 21300,
          "time": 73.9583925,
          "velocity": 0.5984251968503937
        },
        {
          "duration": 0.05208337499999516,
          "durationTicks": 15,
          "midi": 36,
          "name": "C2",
          "ticks": 21330,
          "time": 74.06255925,
          "velocity": 0.5984251968503937
        },
        {
          "duration": 0.05208337500000937,
          "durationTicks": 15,
          "midi": 42,
          "name": "F#2",
          "ticks": 21360,
          "time": 74.166726,
          "velocity": 0.5984251968503937
        },
        {
          "duration": 0.05208337500000937,
          "durationTicks": 15,
          "midi": 36,
          "name": "C2",
          "ticks": 21360,
          "time": 74.166726,
          "velocity": 0.5984251968503937
        },
        {
          "duration": 0.05208337499999516,
          "durationTicks": 15,
          "midi": 46,
          "name": "A#2",
          "ticks": 21420,
          "time": 74.3750595,
          "velocity": 0.5984251968503937
        },
        {
          "duration": 0.05208337499999516,
          "durationTicks": 15,
          "midi": 36,
          "name": "C2",
          "ticks": 21420,
          "time": 74.3750595,
          "velocity": 0.5984251968503937
        },
        {
          "duration": 0.05208337499999516,
          "durationTicks": 15,
          "midi": 42,
          "name": "F#2",
          "ticks": 21480,
          "time": 74.583393,
          "velocity": 0.5984251968503937
        },
        {
          "duration": 0.05208337499999516,
          "durationTicks": 15,
          "midi": 40,
          "name": "E2",
          "ticks": 21480,
          "time": 74.583393,
          "velocity": 0.5984251968503937
        },
        {
          "duration": 0.05208337500000937,
          "durationTicks": 15,
          "midi": 46,
          "name": "A#2",
          "ticks": 21540,
          "time": 74.7917265,
          "velocity": 0.5984251968503937
        },
        {
          "duration": 0.05208337499999516,
          "durationTicks": 15,
          "midi": 42,
          "name": "F#2",
          "ticks": 21600,
          "time": 75.00006,
          "velocity": 0.5984251968503937
        },
        {
          "duration": 0.05208337499999516,
          "durationTicks": 15,
          "midi": 36,
          "name": "C2",
          "ticks": 21600,
          "time": 75.00006,
          "velocity": 0.5984251968503937
        },
        {
          "duration": 0.05208337499999516,
          "durationTicks": 15,
          "midi": 46,
          "name": "A#2",
          "ticks": 21660,
          "time": 75.2083935,
          "velocity": 0.5984251968503937
        },
        {
          "duration": 0.05208337499999516,
          "durationTicks": 15,
          "midi": 42,
          "name": "F#2",
          "ticks": 21720,
          "time": 75.41672700000001,
          "velocity": 0.5984251968503937
        },
        {
          "duration": 0.05208337499999516,
          "durationTicks": 15,
          "midi": 40,
          "name": "E2",
          "ticks": 21720,
          "time": 75.41672700000001,
          "velocity": 0.5984251968503937
        },
        {
          "duration": 0.05208337499999516,
          "durationTicks": 15,
          "midi": 46,
          "name": "A#2",
          "ticks": 21780,
          "time": 75.6250605,
          "velocity": 0.5984251968503937
        },
        {
          "duration": 0.05208337500000937,
          "durationTicks": 15,
          "midi": 42,
          "name": "F#2",
          "ticks": 21840,
          "time": 75.833394,
          "velocity": 0.5984251968503937
        },
        {
          "duration": 0.05208337500000937,
          "durationTicks": 15,
          "midi": 36,
          "name": "C2",
          "ticks": 21840,
          "time": 75.833394,
          "velocity": 0.5984251968503937
        },
        {
          "duration": 0.05208337499999516,
          "durationTicks": 15,
          "midi": 46,
          "name": "A#2",
          "ticks": 21900,
          "time": 76.04172750000001,
          "velocity": 0.5984251968503937
        },
        {
          "duration": 0.05208337499999516,
          "durationTicks": 15,
          "midi": 36,
          "name": "C2",
          "ticks": 21900,
          "time": 76.04172750000001,
          "velocity": 0.5984251968503937
        },
        {
          "duration": 0.05208337499999516,
          "durationTicks": 15,
          "midi": 42,
          "name": "F#2",
          "ticks": 21960,
          "time": 76.250061,
          "velocity": 0.5984251968503937
        },
        {
          "duration": 0.05208337499999516,
          "durationTicks": 15,
          "midi": 40,
          "name": "E2",
          "ticks": 21960,
          "time": 76.250061,
          "velocity": 0.5984251968503937
        },
        {
          "duration": 0.05208337500000937,
          "durationTicks": 15,
          "midi": 40,
          "name": "E2",
          "ticks": 22020,
          "time": 76.4583945,
          "velocity": 0.5984251968503937
        },
        {
          "duration": 0.05208337500000937,
          "durationTicks": 15,
          "midi": 46,
          "name": "A#2",
          "ticks": 22020,
          "time": 76.4583945,
          "velocity": 0.5984251968503937
        },
        {
          "duration": 0.05208337499999516,
          "durationTicks": 15,
          "midi": 40,
          "name": "E2",
          "ticks": 22050,
          "time": 76.56256125,
          "velocity": 0.5984251968503937
        },
        {
          "duration": 0.05208337499999516,
          "durationTicks": 15,
          "midi": 42,
          "name": "F#2",
          "ticks": 22080,
          "time": 76.666728,
          "velocity": 0.5984251968503937
        },
        {
          "duration": 0.05208337499999516,
          "durationTicks": 15,
          "midi": 36,
          "name": "C2",
          "ticks": 22080,
          "time": 76.666728,
          "velocity": 0.5984251968503937
        },
        {
          "duration": 0.05208337500000937,
          "durationTicks": 15,
          "midi": 40,
          "name": "E2",
          "ticks": 22110,
          "time": 76.77089475,
          "velocity": 0.5984251968503937
        },
        {
          "duration": 0.05208337499999516,
          "durationTicks": 15,
          "midi": 40,
          "name": "E2",
          "ticks": 22140,
          "time": 76.8750615,
          "velocity": 0.5984251968503937
        },
        {
          "duration": 0.05208337499999516,
          "durationTicks": 15,
          "midi": 46,
          "name": "A#2",
          "ticks": 22140,
          "time": 76.8750615,
          "velocity": 0.5984251968503937
        },
        {
          "duration": 0.05208337500000937,
          "durationTicks": 15,
          "midi": 42,
          "name": "F#2",
          "ticks": 22200,
          "time": 77.083395,
          "velocity": 0.5984251968503937
        },
        {
          "duration": 0.05208337500000937,
          "durationTicks": 15,
          "midi": 40,
          "name": "E2",
          "ticks": 22200,
          "time": 77.083395,
          "velocity": 0.5984251968503937
        },
        {
          "duration": 0.05208337499999516,
          "durationTicks": 15,
          "midi": 40,
          "name": "E2",
          "ticks": 22260,
          "time": 77.2917285,
          "velocity": 0.5984251968503937
        },
        {
          "duration": 0.05208337499999516,
          "durationTicks": 15,
          "midi": 46,
          "name": "A#2",
          "ticks": 22260,
          "time": 77.2917285,
          "velocity": 0.5984251968503937
        },
        {
          "duration": 0.05208337499999516,
          "durationTicks": 15,
          "midi": 42,
          "name": "F#2",
          "ticks": 22320,
          "time": 77.500062,
          "velocity": 0.5984251968503937
        },
        {
          "duration": 0.05208337499999516,
          "durationTicks": 15,
          "midi": 36,
          "name": "C2",
          "ticks": 22320,
          "time": 77.500062,
          "velocity": 0.5984251968503937
        },
        {
          "duration": 0.05208337499999516,
          "durationTicks": 15,
          "midi": 40,
          "name": "E2",
          "ticks": 22320,
          "time": 77.500062,
          "velocity": 0.5984251968503937
        },
        {
          "duration": 0.05208337499999516,
          "durationTicks": 15,
          "midi": 46,
          "name": "A#2",
          "ticks": 22380,
          "time": 77.70839550000001,
          "velocity": 0.5984251968503937
        },
        {
          "duration": 0.05208337499999516,
          "durationTicks": 15,
          "midi": 36,
          "name": "C2",
          "ticks": 22380,
          "time": 77.70839550000001,
          "velocity": 0.5984251968503937
        },
        {
          "duration": 0.05208337500000937,
          "durationTicks": 15,
          "midi": 36,
          "name": "C2",
          "ticks": 22410,
          "time": 77.81256225,
          "velocity": 0.5984251968503937
        },
        {
          "duration": 0.05208337499999516,
          "durationTicks": 15,
          "midi": 42,
          "name": "F#2",
          "ticks": 22440,
          "time": 77.916729,
          "velocity": 0.5984251968503937
        },
        {
          "duration": 0.05208337499999516,
          "durationTicks": 15,
          "midi": 40,
          "name": "E2",
          "ticks": 22440,
          "time": 77.916729,
          "velocity": 0.5984251968503937
        },
        {
          "duration": 0.05208337500000937,
          "durationTicks": 15,
          "midi": 40,
          "name": "E2",
          "ticks": 22500,
          "time": 78.1250625,
          "velocity": 0.5984251968503937
        },
        {
          "duration": 0.05208337500000937,
          "durationTicks": 15,
          "midi": 46,
          "name": "A#2",
          "ticks": 22500,
          "time": 78.1250625,
          "velocity": 0.5984251968503937
        },
        {
          "duration": 0.05208337500000937,
          "durationTicks": 15,
          "midi": 36,
          "name": "C2",
          "ticks": 22500,
          "time": 78.1250625,
          "velocity": 0.5984251968503937
        },
        {
          "duration": 0.05208337499999516,
          "durationTicks": 15,
          "midi": 40,
          "name": "E2",
          "ticks": 22560,
          "time": 78.33339600000001,
          "velocity": 0.5984251968503937
        },
        {
          "duration": 0.05208337499999516,
          "durationTicks": 15,
          "midi": 42,
          "name": "F#2",
          "ticks": 22560,
          "time": 78.33339600000001,
          "velocity": 0.5984251968503937
        },
        {
          "duration": 0.05208337499999516,
          "durationTicks": 15,
          "midi": 36,
          "name": "C2",
          "ticks": 22560,
          "time": 78.33339600000001,
          "velocity": 0.5984251968503937
        },
        {
          "duration": 0.05208337500000937,
          "durationTicks": 15,
          "midi": 40,
          "name": "E2",
          "ticks": 22590,
          "time": 78.43756275,
          "velocity": 0.5984251968503937
        },
        {
          "duration": 0.05208337499999516,
          "durationTicks": 15,
          "midi": 40,
          "name": "E2",
          "ticks": 22620,
          "time": 78.5417295,
          "velocity": 0.5984251968503937
        },
        {
          "duration": 0.05208337499999516,
          "durationTicks": 15,
          "midi": 46,
          "name": "A#2",
          "ticks": 22620,
          "time": 78.5417295,
          "velocity": 0.5984251968503937
        },
        {
          "duration": 0.05208337499999516,
          "durationTicks": 15,
          "midi": 40,
          "name": "E2",
          "ticks": 22650,
          "time": 78.64589625,
          "velocity": 0.5984251968503937
        },
        {
          "duration": 0.05208337500000937,
          "durationTicks": 15,
          "midi": 40,
          "name": "E2",
          "ticks": 22680,
          "time": 78.750063,
          "velocity": 0.5984251968503937
        },
        {
          "duration": 0.05208337500000937,
          "durationTicks": 15,
          "midi": 42,
          "name": "F#2",
          "ticks": 22680,
          "time": 78.750063,
          "velocity": 0.5984251968503937
        },
        {
          "duration": 0.05208337499999516,
          "durationTicks": 15,
          "midi": 40,
          "name": "E2",
          "ticks": 22710,
          "time": 78.85422975,
          "velocity": 0.5984251968503937
        },
        {
          "duration": 0.05208337499999516,
          "durationTicks": 15,
          "midi": 40,
          "name": "E2",
          "ticks": 22740,
          "time": 78.9583965,
          "velocity": 0.5984251968503937
        },
        {
          "duration": 0.05208337499999516,
          "durationTicks": 15,
          "midi": 46,
          "name": "A#2",
          "ticks": 22740,
          "time": 78.9583965,
          "velocity": 0.5984251968503937
        },
        {
          "duration": 0.05208337500000937,
          "durationTicks": 15,
          "midi": 40,
          "name": "E2",
          "ticks": 22770,
          "time": 79.06256325,
          "velocity": 0.5984251968503937
        },
        {
          "duration": 0.05208337499999516,
          "durationTicks": 15,
          "midi": 40,
          "name": "E2",
          "ticks": 22800,
          "time": 79.16673,
          "velocity": 0.5984251968503937
        },
        {
          "duration": 0.05208337499999516,
          "durationTicks": 15,
          "midi": 36,
          "name": "C2",
          "ticks": 22800,
          "time": 79.16673,
          "velocity": 0.5984251968503937
        },
        {
          "duration": 0.05208337499999516,
          "durationTicks": 15,
          "midi": 42,
          "name": "F#2",
          "ticks": 22800,
          "time": 79.16673,
          "velocity": 0.5984251968503937
        },
        {
          "duration": 0.05208337499999516,
          "durationTicks": 15,
          "midi": 40,
          "name": "E2",
          "ticks": 22830,
          "time": 79.27089675,
          "velocity": 0.5984251968503937
        },
        {
          "duration": 0.05208337500000937,
          "durationTicks": 15,
          "midi": 40,
          "name": "E2",
          "ticks": 22860,
          "time": 79.3750635,
          "velocity": 0.5984251968503937
        },
        {
          "duration": 0.05208337500000937,
          "durationTicks": 15,
          "midi": 46,
          "name": "A#2",
          "ticks": 22860,
          "time": 79.3750635,
          "velocity": 0.5984251968503937
        },
        {
          "duration": 0.05208337499999516,
          "durationTicks": 15,
          "midi": 40,
          "name": "E2",
          "ticks": 22890,
          "time": 79.47923025,
          "velocity": 0.5984251968503937
        },
        {
          "duration": 0.05208337499999516,
          "durationTicks": 15,
          "midi": 40,
          "name": "E2",
          "ticks": 22920,
          "time": 79.583397,
          "velocity": 0.5984251968503937
        },
        {
          "duration": 0.05208337499999516,
          "durationTicks": 15,
          "midi": 42,
          "name": "F#2",
          "ticks": 22920,
          "time": 79.583397,
          "velocity": 0.5984251968503937
        },
        {
          "duration": 0.05208337500000937,
          "durationTicks": 15,
          "midi": 40,
          "name": "E2",
          "ticks": 22950,
          "time": 79.68756375,
          "velocity": 0.5984251968503937
        },
        {
          "duration": 0.05208337499999516,
          "durationTicks": 15,
          "midi": 36,
          "name": "C2",
          "ticks": 22980,
          "time": 79.7917305,
          "velocity": 0.5984251968503937
        },
        {
          "duration": 0.05208337499999516,
          "durationTicks": 15,
          "midi": 40,
          "name": "E2",
          "ticks": 22980,
          "time": 79.7917305,
          "velocity": 0.5984251968503937
        },
        {
          "duration": 0.05208337499999516,
          "durationTicks": 15,
          "midi": 46,
          "name": "A#2",
          "ticks": 22980,
          "time": 79.7917305,
          "velocity": 0.5984251968503937
        },
        {
          "duration": 0.05208337499999516,
          "durationTicks": 15,
          "midi": 40,
          "name": "E2",
          "ticks": 23010,
          "time": 79.89589725,
          "velocity": 0.5984251968503937
        },
        {
          "duration": 0.05208337499999516,
          "durationTicks": 15,
          "midi": 42,
          "name": "F#2",
          "ticks": 23010,
          "time": 79.89589725,
          "velocity": 0.5984251968503937
        },
        {
          "duration": 0.05208337499999516,
          "durationTicks": 15,
          "midi": 49,
          "name": "C#3",
          "ticks": 23040,
          "time": 80.00006400000001,
          "velocity": 0.5984251968503937
        },
        {
          "duration": 0.05208337499999516,
          "durationTicks": 15,
          "midi": 36,
          "name": "C2",
          "ticks": 23040,
          "time": 80.00006400000001,
          "velocity": 0.5984251968503937
        },
        {
          "duration": 0.05208337500000937,
          "durationTicks": 15,
          "midi": 49,
          "name": "C#3",
          "ticks": 23160,
          "time": 80.416731,
          "velocity": 0.5984251968503937
        },
        {
          "duration": 0.05208337500000937,
          "durationTicks": 15,
          "midi": 36,
          "name": "C2",
          "ticks": 23160,
          "time": 80.416731,
          "velocity": 0.5984251968503937
        },
        {
          "duration": 0.05208337499999516,
          "durationTicks": 15,
          "midi": 49,
          "name": "C#3",
          "ticks": 23280,
          "time": 80.833398,
          "velocity": 0.5984251968503937
        },
        {
          "duration": 0.05208337499999516,
          "durationTicks": 15,
          "midi": 36,
          "name": "C2",
          "ticks": 23280,
          "time": 80.833398,
          "velocity": 0.5984251968503937
        },
        {
          "duration": 0.05208337499999516,
          "durationTicks": 15,
          "midi": 49,
          "name": "C#3",
          "ticks": 23400,
          "time": 81.250065,
          "velocity": 0.5984251968503937
        },
        {
          "duration": 0.05208337499999516,
          "durationTicks": 15,
          "midi": 36,
          "name": "C2",
          "ticks": 23400,
          "time": 81.250065,
          "velocity": 0.5984251968503937
        },
        {
          "duration": 0.05208337500000937,
          "durationTicks": 15,
          "midi": 49,
          "name": "C#3",
          "ticks": 23520,
          "time": 81.666732,
          "velocity": 0.5984251968503937
        },
        {
          "duration": 0.05208337500000937,
          "durationTicks": 15,
          "midi": 36,
          "name": "C2",
          "ticks": 23520,
          "time": 81.666732,
          "velocity": 0.5984251968503937
        },
        {
          "duration": 0.05208337500000937,
          "durationTicks": 15,
          "midi": 36,
          "name": "C2",
          "ticks": 23700,
          "time": 82.2917325,
          "velocity": 0.5984251968503937
        },
        {
          "duration": 0.05208337499999516,
          "durationTicks": 15,
          "midi": 49,
          "name": "C#3",
          "ticks": 23880,
          "time": 82.91673300000001,
          "velocity": 0.5984251968503937
        },
        {
          "duration": 0.05208337499999516,
          "durationTicks": 15,
          "midi": 36,
          "name": "C2",
          "ticks": 23880,
          "time": 82.91673300000001,
          "velocity": 0.5984251968503937
        },
        {
          "duration": 0.05208337499999516,
          "durationTicks": 15,
          "midi": 36,
          "name": "C2",
          "ticks": 24060,
          "time": 83.5417335,
          "velocity": 0.5984251968503937
        },
        {
          "duration": 0.05208337499999516,
          "durationTicks": 15,
          "midi": 49,
          "name": "C#3",
          "ticks": 24240,
          "time": 84.166734,
          "velocity": 0.5984251968503937
        },
        {
          "duration": 0.05208337499999516,
          "durationTicks": 15,
          "midi": 36,
          "name": "C2",
          "ticks": 24240,
          "time": 84.166734,
          "velocity": 0.5984251968503937
        },
        {
          "duration": 0.05208337499999516,
          "durationTicks": 15,
          "midi": 36,
          "name": "C2",
          "ticks": 24420,
          "time": 84.7917345,
          "velocity": 0.5984251968503937
        },
        {
          "duration": 0.05208337499999516,
          "durationTicks": 15,
          "midi": 49,
          "name": "C#3",
          "ticks": 24600,
          "time": 85.416735,
          "velocity": 0.5984251968503937
        },
        {
          "duration": 0.05208337499999516,
          "durationTicks": 15,
          "midi": 36,
          "name": "C2",
          "ticks": 24600,
          "time": 85.416735,
          "velocity": 0.5984251968503937
        },
        {
          "duration": 0.05208337499999516,
          "durationTicks": 15,
          "midi": 36,
          "name": "C2",
          "ticks": 24690,
          "time": 85.72923525,
          "velocity": 0.5984251968503937
        },
        {
          "duration": 0.05208337499999516,
          "durationTicks": 15,
          "midi": 36,
          "name": "C2",
          "ticks": 24720,
          "time": 85.833402,
          "velocity": 0.5984251968503937
        },
        {
          "duration": 0.05208337499999516,
          "durationTicks": 15,
          "midi": 36,
          "name": "C2",
          "ticks": 24780,
          "time": 86.0417355,
          "velocity": 0.5984251968503937
        },
        {
          "duration": 0.05208337500000937,
          "durationTicks": 15,
          "midi": 36,
          "name": "C2",
          "ticks": 24840,
          "time": 86.250069,
          "velocity": 0.5984251968503937
        },
        {
          "duration": 0.05208337500000937,
          "durationTicks": 15,
          "midi": 40,
          "name": "E2",
          "ticks": 24840,
          "time": 86.250069,
          "velocity": 0.3543307086614173
        },
        {
          "duration": 0.05208337499999516,
          "durationTicks": 15,
          "midi": 40,
          "name": "E2",
          "ticks": 24855,
          "time": 86.302152375,
          "velocity": 0.41732283464566927
        },
        {
          "duration": 0.05208337499999516,
          "durationTicks": 15,
          "midi": 40,
          "name": "E2",
          "ticks": 24870,
          "time": 86.35423575,
          "velocity": 0.48031496062992124
        },
        {
          "duration": 0.05208337500000937,
          "durationTicks": 15,
          "midi": 40,
          "name": "E2",
          "ticks": 24885,
          "time": 86.406319125,
          "velocity": 0.5590551181102362
        },
        {
          "duration": 0.05208337499999516,
          "durationTicks": 15,
          "midi": 36,
          "name": "C2",
          "ticks": 24900,
          "time": 86.4584025,
          "velocity": 0.5984251968503937
        },
        {
          "duration": 0.05208337499999516,
          "durationTicks": 15,
          "midi": 40,
          "name": "E2",
          "ticks": 24900,
          "time": 86.4584025,
          "velocity": 0.6220472440944882
        },
        {
          "duration": 0.05208337499999516,
          "durationTicks": 15,
          "midi": 42,
          "name": "F#2",
          "ticks": 24960,
          "time": 86.666736,
          "velocity": 0.5984251968503937
        },
        {
          "duration": 0.05208337499999516,
          "durationTicks": 15,
          "midi": 49,
          "name": "C#3",
          "ticks": 24960,
          "time": 86.666736,
          "velocity": 0.5984251968503937
        },
        {
          "duration": 0.05208337499999516,
          "durationTicks": 15,
          "midi": 36,
          "name": "C2",
          "ticks": 24960,
          "time": 86.666736,
          "velocity": 0.5984251968503937
        },
        {
          "duration": 0.05208337500000937,
          "durationTicks": 15,
          "midi": 42,
          "name": "F#2",
          "ticks": 25020,
          "time": 86.8750695,
          "velocity": 0.5984251968503937
        },
        {
          "duration": 0.05208337499999516,
          "durationTicks": 15,
          "midi": 42,
          "name": "F#2",
          "ticks": 25080,
          "time": 87.083403,
          "velocity": 0.5984251968503937
        },
        {
          "duration": 0.05208337500000937,
          "durationTicks": 15,
          "midi": 36,
          "name": "C2",
          "ticks": 25140,
          "time": 87.2917365,
          "velocity": 0.5984251968503937
        },
        {
          "duration": 0.05208337500000937,
          "durationTicks": 15,
          "midi": 42,
          "name": "F#2",
          "ticks": 25140,
          "time": 87.2917365,
          "velocity": 0.5984251968503937
        },
        {
          "duration": 0.05208337499999516,
          "durationTicks": 15,
          "midi": 46,
          "name": "A#2",
          "ticks": 25200,
          "time": 87.50007000000001,
          "velocity": 0.5984251968503937
        },
        {
          "duration": 0.05208337499999516,
          "durationTicks": 15,
          "midi": 40,
          "name": "E2",
          "ticks": 25200,
          "time": 87.50007000000001,
          "velocity": 0.5984251968503937
        },
        {
          "duration": 0.05208337499999516,
          "durationTicks": 15,
          "midi": 36,
          "name": "C2",
          "ticks": 25260,
          "time": 87.7084035,
          "velocity": 0.5984251968503937
        },
        {
          "duration": 0.05208337499999516,
          "durationTicks": 15,
          "midi": 42,
          "name": "F#2",
          "ticks": 25260,
          "time": 87.7084035,
          "velocity": 0.5984251968503937
        },
        {
          "duration": 0.05208337499999516,
          "durationTicks": 15,
          "midi": 36,
          "name": "C2",
          "ticks": 25290,
          "time": 87.81257025000001,
          "velocity": 0.5984251968503937
        },
        {
          "duration": 0.05208337499999516,
          "durationTicks": 15,
          "midi": 42,
          "name": "F#2",
          "ticks": 25290,
          "time": 87.81257025000001,
          "velocity": 0.5984251968503937
        },
        {
          "duration": 0.05208337500000937,
          "durationTicks": 15,
          "midi": 36,
          "name": "C2",
          "ticks": 25320,
          "time": 87.916737,
          "velocity": 0.5984251968503937
        },
        {
          "duration": 0.05208337500000937,
          "durationTicks": 15,
          "midi": 42,
          "name": "F#2",
          "ticks": 25320,
          "time": 87.916737,
          "velocity": 0.5984251968503937
        },
        {
          "duration": 0.05208337499999516,
          "durationTicks": 15,
          "midi": 42,
          "name": "F#2",
          "ticks": 25380,
          "time": 88.1250705,
          "velocity": 0.5984251968503937
        },
        {
          "duration": 0.05208337499999516,
          "durationTicks": 15,
          "midi": 42,
          "name": "F#2",
          "ticks": 25440,
          "time": 88.333404,
          "velocity": 0.5984251968503937
        },
        {
          "duration": 0.05208337499999516,
          "durationTicks": 15,
          "midi": 36,
          "name": "C2",
          "ticks": 25440,
          "time": 88.333404,
          "velocity": 0.5984251968503937
        },
        {
          "duration": 0.05208337499999516,
          "durationTicks": 15,
          "midi": 42,
          "name": "F#2",
          "ticks": 25470,
          "time": 88.43757075,
          "velocity": 0.5984251968503937
        },
        {
          "duration": 0.05208337500000937,
          "durationTicks": 15,
          "midi": 42,
          "name": "F#2",
          "ticks": 25500,
          "time": 88.5417375,
          "velocity": 0.5984251968503937
        },
        {
          "duration": 0.05208337499999516,
          "durationTicks": 15,
          "midi": 36,
          "name": "C2",
          "ticks": 25530,
          "time": 88.64590425,
          "velocity": 0.5984251968503937
        },
        {
          "duration": 0.05208337499999516,
          "durationTicks": 15,
          "midi": 46,
          "name": "A#2",
          "ticks": 25560,
          "time": 88.750071,
          "velocity": 0.5984251968503937
        },
        {
          "duration": 0.05208337499999516,
          "durationTicks": 15,
          "midi": 40,
          "name": "E2",
          "ticks": 25560,
          "time": 88.750071,
          "velocity": 0.5984251968503937
        },
        {
          "duration": 0.05208337499999516,
          "durationTicks": 15,
          "midi": 36,
          "name": "C2",
          "ticks": 25620,
          "time": 88.9584045,
          "velocity": 0.5984251968503937
        },
        {
          "duration": 0.05208337499999516,
          "durationTicks": 15,
          "midi": 42,
          "name": "F#2",
          "ticks": 25620,
          "time": 88.9584045,
          "velocity": 0.5984251968503937
        },
        {
          "duration": 0.05208337500000937,
          "durationTicks": 15,
          "midi": 42,
          "name": "F#2",
          "ticks": 25680,
          "time": 89.166738,
          "velocity": 0.5984251968503937
        },
        {
          "duration": 0.05208337500000937,
          "durationTicks": 15,
          "midi": 49,
          "name": "C#3",
          "ticks": 25680,
          "time": 89.166738,
          "velocity": 0.5984251968503937
        },
        {
          "duration": 0.05208337500000937,
          "durationTicks": 15,
          "midi": 36,
          "name": "C2",
          "ticks": 25680,
          "time": 89.166738,
          "velocity": 0.5984251968503937
        },
        {
          "duration": 0.05208337499999516,
          "durationTicks": 15,
          "midi": 42,
          "name": "F#2",
          "ticks": 25740,
          "time": 89.3750715,
          "velocity": 0.5984251968503937
        },
        {
          "duration": 0.05208337500000937,
          "durationTicks": 15,
          "midi": 36,
          "name": "C2",
          "ticks": 25800,
          "time": 89.583405,
          "velocity": 0.5984251968503937
        },
        {
          "duration": 0.05208337500000937,
          "durationTicks": 15,
          "midi": 42,
          "name": "F#2",
          "ticks": 25800,
          "time": 89.583405,
          "velocity": 0.5984251968503937
        },
        {
          "duration": 0.05208337499999516,
          "durationTicks": 15,
          "midi": 42,
          "name": "F#2",
          "ticks": 25860,
          "time": 89.79173850000001,
          "velocity": 0.5984251968503937
        },
        {
          "duration": 0.05208337499999516,
          "durationTicks": 15,
          "midi": 36,
          "name": "C2",
          "ticks": 25860,
          "time": 89.79173850000001,
          "velocity": 0.5984251968503937
        },
        {
          "duration": 0.05208337500000937,
          "durationTicks": 15,
          "midi": 42,
          "name": "F#2",
          "ticks": 25890,
          "time": 89.89590525,
          "velocity": 0.5984251968503937
        },
        {
          "duration": 0.05208337499999516,
          "durationTicks": 15,
          "midi": 46,
          "name": "A#2",
          "ticks": 25920,
          "time": 90.000072,
          "velocity": 0.5984251968503937
        },
        {
          "duration": 0.05208337499999516,
          "durationTicks": 15,
          "midi": 40,
          "name": "E2",
          "ticks": 25920,
          "time": 90.000072,
          "velocity": 0.5984251968503937
        },
        {
          "duration": 0.05208337499999516,
          "durationTicks": 15,
          "midi": 42,
          "name": "F#2",
          "ticks": 25950,
          "time": 90.10423875000001,
          "velocity": 0.5984251968503937
        },
        {
          "duration": 0.05208337500000937,
          "durationTicks": 15,
          "midi": 36,
          "name": "C2",
          "ticks": 25980,
          "time": 90.2084055,
          "velocity": 0.5984251968503937
        },
        {
          "duration": 0.05208337500000937,
          "durationTicks": 15,
          "midi": 42,
          "name": "F#2",
          "ticks": 25980,
          "time": 90.2084055,
          "velocity": 0.5984251968503937
        },
        {
          "duration": 0.05208337499999516,
          "durationTicks": 15,
          "midi": 42,
          "name": "F#2",
          "ticks": 26010,
          "time": 90.31257225,
          "velocity": 0.5984251968503937
        },
        {
          "duration": 0.05208337499999516,
          "durationTicks": 15,
          "midi": 42,
          "name": "F#2",
          "ticks": 26040,
          "time": 90.416739,
          "velocity": 0.5984251968503937
        },
        {
          "duration": 0.05208337499999516,
          "durationTicks": 15,
          "midi": 36,
          "name": "C2",
          "ticks": 26040,
          "time": 90.416739,
          "velocity": 0.5984251968503937
        },
        {
          "duration": 0.05208337499999516,
          "durationTicks": 15,
          "midi": 42,
          "name": "F#2",
          "ticks": 26100,
          "time": 90.6250725,
          "velocity": 0.5984251968503937
        },
        {
          "duration": 0.05208337499999516,
          "durationTicks": 15,
          "midi": 36,
          "name": "C2",
          "ticks": 26130,
          "time": 90.72923925,
          "velocity": 0.5984251968503937
        },
        {
          "duration": 0.05208337500000937,
          "durationTicks": 15,
          "midi": 42,
          "name": "F#2",
          "ticks": 26160,
          "time": 90.833406,
          "velocity": 0.5984251968503937
        },
        {
          "duration": 0.05208337500000937,
          "durationTicks": 15,
          "midi": 36,
          "name": "C2",
          "ticks": 26160,
          "time": 90.833406,
          "velocity": 0.5984251968503937
        },
        {
          "duration": 0.05208337499999516,
          "durationTicks": 15,
          "midi": 36,
          "name": "C2",
          "ticks": 26220,
          "time": 91.0417395,
          "velocity": 0.5984251968503937
        },
        {
          "duration": 0.05208337499999516,
          "durationTicks": 15,
          "midi": 42,
          "name": "F#2",
          "ticks": 26220,
          "time": 91.0417395,
          "velocity": 0.5984251968503937
        },
        {
          "duration": 0.05208337499999516,
          "durationTicks": 15,
          "midi": 46,
          "name": "A#2",
          "ticks": 26280,
          "time": 91.250073,
          "velocity": 0.5984251968503937
        },
        {
          "duration": 0.05208337499999516,
          "durationTicks": 15,
          "midi": 36,
          "name": "C2",
          "ticks": 26280,
          "time": 91.250073,
          "velocity": 0.5984251968503937
        },
        {
          "duration": 0.05208337499999516,
          "durationTicks": 15,
          "midi": 40,
          "name": "E2",
          "ticks": 26280,
          "time": 91.250073,
          "velocity": 0.3543307086614173
        },
        {
          "duration": 0.05208337500000937,
          "durationTicks": 15,
          "midi": 40,
          "name": "E2",
          "ticks": 26295,
          "time": 91.302156375,
          "velocity": 0.41732283464566927
        },
        {
          "duration": 0.05208337499999516,
          "durationTicks": 15,
          "midi": 40,
          "name": "E2",
          "ticks": 26310,
          "time": 91.35423975,
          "velocity": 0.48031496062992124
        },
        {
          "duration": 0.05208337499999516,
          "durationTicks": 15,
          "midi": 40,
          "name": "E2",
          "ticks": 26325,
          "time": 91.406323125,
          "velocity": 0.5590551181102362
        },
        {
          "duration": 0.05208337500000937,
          "durationTicks": 15,
          "midi": 42,
          "name": "F#2",
          "ticks": 26340,
          "time": 91.4584065,
          "velocity": 0.5984251968503937
        },
        {
          "duration": 0.05208337500000937,
          "durationTicks": 15,
          "midi": 36,
          "name": "C2",
          "ticks": 26340,
          "time": 91.4584065,
          "velocity": 0.5984251968503937
        },
        {
          "duration": 0.05208337500000937,
          "durationTicks": 15,
          "midi": 40,
          "name": "E2",
          "ticks": 26340,
          "time": 91.4584065,
          "velocity": 0.6220472440944882
        }
      ],
      "endOfTrackTicks": 26355
    },
    {
      "channel": 9,
      "controlChanges": {
        "7": [
          {
            "number": 7,
            "ticks": 0,
            "time": 0,
            "value": 1
          }
        ],
        "10": [
          {
            "number": 10,
            "ticks": 0,
            "time": 0,
            "value": 0.5039370078740157
          }
        ]
      },
      "pitchBends": [],
      "instrument": {
        "family": "drums",
        "number": 0,
        "name": "standard kit"
      },
      "name": "Touhou 6: Enbodiment of Scarlet Devil - Shanghai Alice of Meiji 17 ",
      "notes": [
        {
          "duration": 0.05208337500000049,
          "durationTicks": 15,
          "midi": 45,
          "name": "A2",
          "ticks": 1200,
          "time": 4.16667,
          "velocity": 0.4566929133858268
        },
        {
          "duration": 0.0520833749999996,
          "durationTicks": 15,
          "midi": 45,
          "name": "A2",
          "ticks": 1215,
          "time": 4.218753375,
          "velocity": 0.4566929133858268
        },
        {
          "duration": 0.05208337500000049,
          "durationTicks": 15,
          "midi": 45,
          "name": "A2",
          "ticks": 1230,
          "time": 4.27083675,
          "velocity": 0.4566929133858268
        },
        {
          "duration": 0.0520833749999996,
          "durationTicks": 15,
          "midi": 45,
          "name": "A2",
          "ticks": 1245,
          "time": 4.3229201250000004,
          "velocity": 0.4566929133858268
        },
        {
          "duration": 0.05208337500000049,
          "durationTicks": 15,
          "midi": 47,
          "name": "B2",
          "ticks": 1260,
          "time": 4.3750035,
          "velocity": 0.4566929133858268
        },
        {
          "duration": 0.0520833749999996,
          "durationTicks": 15,
          "midi": 47,
          "name": "B2",
          "ticks": 1275,
          "time": 4.4270868750000005,
          "velocity": 0.4566929133858268
        },
        {
          "duration": 0.0520833749999996,
          "durationTicks": 15,
          "midi": 47,
          "name": "B2",
          "ticks": 1290,
          "time": 4.47917025,
          "velocity": 0.4566929133858268
        },
        {
          "duration": 0.05208337500000049,
          "durationTicks": 15,
          "midi": 47,
          "name": "B2",
          "ticks": 1305,
          "time": 4.531253625,
          "velocity": 0.4566929133858268
        },
        {
          "duration": 0.0520833749999996,
          "durationTicks": 15,
          "midi": 45,
          "name": "A2",
          "ticks": 1320,
          "time": 4.583337,
          "velocity": 0.4566929133858268
        },
        {
          "duration": 0.05208337500000049,
          "durationTicks": 15,
          "midi": 45,
          "name": "A2",
          "ticks": 1335,
          "time": 4.635420375,
          "velocity": 0.4566929133858268
        },
        {
          "duration": 0.0520833749999996,
          "durationTicks": 15,
          "midi": 43,
          "name": "G2",
          "ticks": 1350,
          "time": 4.68750375,
          "velocity": 0.4566929133858268
        },
        {
          "duration": 0.05208337500000049,
          "durationTicks": 15,
          "midi": 43,
          "name": "G2",
          "ticks": 1365,
          "time": 4.739587125,
          "velocity": 0.4566929133858268
        },
        {
          "duration": 0.05208337500000049,
          "durationTicks": 15,
          "midi": 45,
          "name": "A2",
          "ticks": 2640,
          "time": 9.166674,
          "velocity": 0.4566929133858268
        },
        {
          "duration": 0.05208337499999871,
          "durationTicks": 15,
          "midi": 45,
          "name": "A2",
          "ticks": 2655,
          "time": 9.218757375000001,
          "velocity": 0.4566929133858268
        },
        {
          "duration": 0.05208337500000049,
          "durationTicks": 15,
          "midi": 45,
          "name": "A2",
          "ticks": 2670,
          "time": 9.27084075,
          "velocity": 0.4566929133858268
        },
        {
          "duration": 0.05208337500000049,
          "durationTicks": 15,
          "midi": 45,
          "name": "A2",
          "ticks": 2685,
          "time": 9.322924125,
          "velocity": 0.4566929133858268
        },
        {
          "duration": 0.05208337500000049,
          "durationTicks": 15,
          "midi": 47,
          "name": "B2",
          "ticks": 2700,
          "time": 9.3750075,
          "velocity": 0.4566929133858268
        },
        {
          "duration": 0.05208337499999871,
          "durationTicks": 15,
          "midi": 47,
          "name": "B2",
          "ticks": 2715,
          "time": 9.427090875000001,
          "velocity": 0.4566929133858268
        },
        {
          "duration": 0.05208337500000049,
          "durationTicks": 15,
          "midi": 47,
          "name": "B2",
          "ticks": 2730,
          "time": 9.47917425,
          "velocity": 0.4566929133858268
        },
        {
          "duration": 0.05208337500000049,
          "durationTicks": 15,
          "midi": 47,
          "name": "B2",
          "ticks": 2745,
          "time": 9.531257625,
          "velocity": 0.4566929133858268
        },
        {
          "duration": 0.05208337499999871,
          "durationTicks": 15,
          "midi": 45,
          "name": "A2",
          "ticks": 2760,
          "time": 9.583341,
          "velocity": 0.4566929133858268
        },
        {
          "duration": 0.05208337500000049,
          "durationTicks": 15,
          "midi": 45,
          "name": "A2",
          "ticks": 2775,
          "time": 9.635424375,
          "velocity": 0.4566929133858268
        },
        {
          "duration": 0.05208337500000049,
          "durationTicks": 15,
          "midi": 43,
          "name": "G2",
          "ticks": 2790,
          "time": 9.68750775,
          "velocity": 0.4566929133858268
        },
        {
          "duration": 0.05208337500000049,
          "durationTicks": 15,
          "midi": 43,
          "name": "G2",
          "ticks": 2805,
          "time": 9.739591125,
          "velocity": 0.4566929133858268
        },
        {
          "duration": 0.05208337499999516,
          "durationTicks": 15,
          "midi": 45,
          "name": "A2",
          "ticks": 11280,
          "time": 39.166698000000004,
          "velocity": 0.4566929133858268
        },
        {
          "duration": 0.05208337500000226,
          "durationTicks": 15,
          "midi": 45,
          "name": "A2",
          "ticks": 11295,
          "time": 39.218781375,
          "velocity": 0.4566929133858268
        },
        {
          "duration": 0.05208337500000226,
          "durationTicks": 15,
          "midi": 45,
          "name": "A2",
          "ticks": 11310,
          "time": 39.27086475,
          "velocity": 0.4566929133858268
        },
        {
          "duration": 0.05208337499999516,
          "durationTicks": 15,
          "midi": 45,
          "name": "A2",
          "ticks": 11325,
          "time": 39.322948125,
          "velocity": 0.4566929133858268
        },
        {
          "duration": 0.05208337500000226,
          "durationTicks": 15,
          "midi": 47,
          "name": "B2",
          "ticks": 11340,
          "time": 39.3750315,
          "velocity": 0.4566929133858268
        },
        {
          "duration": 0.05208337500000226,
          "durationTicks": 15,
          "midi": 47,
          "name": "B2",
          "ticks": 11355,
          "time": 39.427114875,
          "velocity": 0.4566929133858268
        },
        {
          "duration": 0.05208337499999516,
          "durationTicks": 15,
          "midi": 47,
          "name": "B2",
          "ticks": 11370,
          "time": 39.47919825,
          "velocity": 0.4566929133858268
        },
        {
          "duration": 0.05208337500000226,
          "durationTicks": 15,
          "midi": 47,
          "name": "B2",
          "ticks": 11385,
          "time": 39.531281625,
          "velocity": 0.4566929133858268
        },
        {
          "duration": 0.05208337500000226,
          "durationTicks": 15,
          "midi": 45,
          "name": "A2",
          "ticks": 11400,
          "time": 39.583365,
          "velocity": 0.4566929133858268
        },
        {
          "duration": 0.05208337499999516,
          "durationTicks": 15,
          "midi": 45,
          "name": "A2",
          "ticks": 11415,
          "time": 39.635448375,
          "velocity": 0.4566929133858268
        },
        {
          "duration": 0.05208337500000226,
          "durationTicks": 15,
          "midi": 43,
          "name": "G2",
          "ticks": 11430,
          "time": 39.68753175,
          "velocity": 0.4566929133858268
        },
        {
          "duration": 0.05208337500000226,
          "durationTicks": 15,
          "midi": 43,
          "name": "G2",
          "ticks": 11445,
          "time": 39.739615125,
          "velocity": 0.4566929133858268
        },
        {
          "duration": 0.05208337499999516,
          "durationTicks": 15,
          "midi": 45,
          "name": "A2",
          "ticks": 24720,
          "time": 85.833402,
          "velocity": 0.4566929133858268
        },
        {
          "duration": 0.05208337499999516,
          "durationTicks": 15,
          "midi": 45,
          "name": "A2",
          "ticks": 24735,
          "time": 85.885485375,
          "velocity": 0.4566929133858268
        },
        {
          "duration": 0.05208337500000937,
          "durationTicks": 15,
          "midi": 45,
          "name": "A2",
          "ticks": 24750,
          "time": 85.93756875,
          "velocity": 0.4566929133858268
        },
        {
          "duration": 0.05208337499999516,
          "durationTicks": 15,
          "midi": 45,
          "name": "A2",
          "ticks": 24765,
          "time": 85.989652125,
          "velocity": 0.4566929133858268
        },
        {
          "duration": 0.05208337499999516,
          "durationTicks": 15,
          "midi": 47,
          "name": "B2",
          "ticks": 24780,
          "time": 86.0417355,
          "velocity": 0.4566929133858268
        },
        {
          "duration": 0.05208337500000937,
          "durationTicks": 15,
          "midi": 47,
          "name": "B2",
          "ticks": 24795,
          "time": 86.093818875,
          "velocity": 0.4566929133858268
        },
        {
          "duration": 0.05208337499999516,
          "durationTicks": 15,
          "midi": 47,
          "name": "B2",
          "ticks": 24810,
          "time": 86.14590225,
          "velocity": 0.4566929133858268
        },
        {
          "duration": 0.05208337499999516,
          "durationTicks": 15,
          "midi": 47,
          "name": "B2",
          "ticks": 24825,
          "time": 86.197985625,
          "velocity": 0.4566929133858268
        },
        {
          "duration": 0.05208337500000937,
          "durationTicks": 15,
          "midi": 45,
          "name": "A2",
          "ticks": 24840,
          "time": 86.250069,
          "velocity": 0.4566929133858268
        },
        {
          "duration": 0.05208337499999516,
          "durationTicks": 15,
          "midi": 45,
          "name": "A2",
          "ticks": 24855,
          "time": 86.302152375,
          "velocity": 0.4566929133858268
        },
        {
          "duration": 0.05208337499999516,
          "durationTicks": 15,
          "midi": 43,
          "name": "G2",
          "ticks": 24870,
          "time": 86.35423575,
          "velocity": 0.4566929133858268
        },
        {
          "duration": 0.05208337500000937,
          "durationTicks": 15,
          "midi": 43,
          "name": "G2",
          "ticks": 24885,
          "time": 86.406319125,
          "velocity": 0.4566929133858268
        },
        {
          "duration": 0.05208337500000937,
          "durationTicks": 15,
          "midi": 45,
          "name": "A2",
          "ticks": 26160,
          "time": 90.833406,
          "velocity": 0.4566929133858268
        },
        {
          "duration": 0.05208337499999516,
          "durationTicks": 15,
          "midi": 45,
          "name": "A2",
          "ticks": 26175,
          "time": 90.885489375,
          "velocity": 0.4566929133858268
        },
        {
          "duration": 0.05208337499999516,
          "durationTicks": 15,
          "midi": 45,
          "name": "A2",
          "ticks": 26190,
          "time": 90.93757275,
          "velocity": 0.4566929133858268
        },
        {
          "duration": 0.05208337500000937,
          "durationTicks": 15,
          "midi": 45,
          "name": "A2",
          "ticks": 26205,
          "time": 90.989656125,
          "velocity": 0.4566929133858268
        },
        {
          "duration": 0.05208337499999516,
          "durationTicks": 15,
          "midi": 47,
          "name": "B2",
          "ticks": 26220,
          "time": 91.0417395,
          "velocity": 0.4566929133858268
        },
        {
          "duration": 0.05208337499999516,
          "durationTicks": 15,
          "midi": 47,
          "name": "B2",
          "ticks": 26235,
          "time": 91.093822875,
          "velocity": 0.4566929133858268
        },
        {
          "duration": 0.05208337500000937,
          "durationTicks": 15,
          "midi": 47,
          "name": "B2",
          "ticks": 26250,
          "time": 91.14590625,
          "velocity": 0.4566929133858268
        },
        {
          "duration": 0.05208337499999516,
          "durationTicks": 15,
          "midi": 47,
          "name": "B2",
          "ticks": 26265,
          "time": 91.197989625,
          "velocity": 0.4566929133858268
        },
        {
          "duration": 0.05208337499999516,
          "durationTicks": 15,
          "midi": 45,
          "name": "A2",
          "ticks": 26280,
          "time": 91.250073,
          "velocity": 0.4566929133858268
        },
        {
          "duration": 0.05208337500000937,
          "durationTicks": 15,
          "midi": 45,
          "name": "A2",
          "ticks": 26295,
          "time": 91.302156375,
          "velocity": 0.4566929133858268
        },
        {
          "duration": 0.05208337499999516,
          "durationTicks": 15,
          "midi": 43,
          "name": "G2",
          "ticks": 26310,
          "time": 91.35423975,
          "velocity": 0.4566929133858268
        },
        {
          "duration": 0.05208337499999516,
          "durationTicks": 15,
          "midi": 43,
          "name": "G2",
          "ticks": 26325,
          "time": 91.406323125,
          "velocity": 0.4566929133858268
        }
      ],
      "endOfTrackTicks": 26340
    },
    {
      "channel": 10,
      "controlChanges": {
        "7": [
          {
            "number": 7,
            "ticks": 0,
            "time": 0,
            "value": 1
          }
        ],
        "10": [
          {
            "number": 10,
            "ticks": 0,
            "time": 0,
            "value": 0.3779527559055118
          }
        ]
      },
      "pitchBends": [],
      "instrument": {
        "family": "chromatic percussion",
        "number": 15,
        "name": "dulcimer"
      },
      "name": "Touhou 6: Enbodiment of Scarlet Devil - Shanghai Alice of Meiji 17 ",
      "notes": [
        {
          "duration": 0.2083334999999984,
          "durationTicks": 60,
          "midi": 55,
          "name": "G3",
          "ticks": 2880,
          "time": 10.000008000000001,
          "velocity": 0.2677165354330709
        },
        {
          "duration": 0.20833350000000017,
          "durationTicks": 60,
          "midi": 62,
          "name": "D4",
          "ticks": 2940,
          "time": 10.2083415,
          "velocity": 0.2677165354330709
        },
        {
          "duration": 0.20833350000000017,
          "durationTicks": 60,
          "midi": 62,
          "name": "D4",
          "ticks": 3000,
          "time": 10.416675,
          "velocity": 0.2677165354330709
        },
        {
          "duration": 0.20833350000000017,
          "durationTicks": 60,
          "midi": 55,
          "name": "G3",
          "ticks": 3060,
          "time": 10.6250085,
          "velocity": 0.2677165354330709
        },
        {
          "duration": 0.20833350000000017,
          "durationTicks": 60,
          "midi": 63,
          "name": "D#4",
          "ticks": 3120,
          "time": 10.833342,
          "velocity": 0.2677165354330709
        },
        {
          "duration": 0.20833350000000017,
          "durationTicks": 60,
          "midi": 63,
          "name": "D#4",
          "ticks": 3180,
          "time": 11.0416755,
          "velocity": 0.2677165354330709
        },
        {
          "duration": 0.20833350000000017,
          "durationTicks": 60,
          "midi": 53,
          "name": "F3",
          "ticks": 3240,
          "time": 11.250009,
          "velocity": 0.2677165354330709
        },
        {
          "duration": 0.20833350000000017,
          "durationTicks": 60,
          "midi": 60,
          "name": "C4",
          "ticks": 3300,
          "time": 11.4583425,
          "velocity": 0.2677165354330709
        },
        {
          "duration": 0.20833350000000017,
          "durationTicks": 60,
          "midi": 60,
          "name": "C4",
          "ticks": 3360,
          "time": 11.666676,
          "velocity": 0.2677165354330709
        },
        {
          "duration": 0.20833350000000017,
          "durationTicks": 60,
          "midi": 53,
          "name": "F3",
          "ticks": 3420,
          "time": 11.8750095,
          "velocity": 0.2677165354330709
        },
        {
          "duration": 0.2083334999999984,
          "durationTicks": 60,
          "midi": 62,
          "name": "D4",
          "ticks": 3480,
          "time": 12.083343000000001,
          "velocity": 0.2677165354330709
        },
        {
          "duration": 0.20833350000000017,
          "durationTicks": 60,
          "midi": 62,
          "name": "D4",
          "ticks": 3540,
          "time": 12.2916765,
          "velocity": 0.2677165354330709
        },
        {
          "duration": 0.20833350000000017,
          "durationTicks": 60,
          "midi": 51,
          "name": "D#3",
          "ticks": 3600,
          "time": 12.50001,
          "velocity": 0.2677165354330709
        },
        {
          "duration": 0.20833350000000017,
          "durationTicks": 60,
          "midi": 58,
          "name": "A#3",
          "ticks": 3660,
          "time": 12.7083435,
          "velocity": 0.2677165354330709
        },
        {
          "duration": 0.20833350000000017,
          "durationTicks": 60,
          "midi": 58,
          "name": "A#3",
          "ticks": 3720,
          "time": 12.916677,
          "velocity": 0.2677165354330709
        },
        {
          "duration": 0.20833350000000017,
          "durationTicks": 60,
          "midi": 51,
          "name": "D#3",
          "ticks": 3780,
          "time": 13.1250105,
          "velocity": 0.2677165354330709
        },
        {
          "duration": 0.20833350000000017,
          "durationTicks": 60,
          "midi": 61,
          "name": "C#4",
          "ticks": 3840,
          "time": 13.333344,
          "velocity": 0.2677165354330709
        },
        {
          "duration": 0.20833350000000017,
          "durationTicks": 60,
          "midi": 61,
          "name": "C#4",
          "ticks": 3900,
          "time": 13.5416775,
          "velocity": 0.2677165354330709
        },
        {
          "duration": 0.20833350000000017,
          "durationTicks": 60,
          "midi": 54,
          "name": "F#3",
          "ticks": 3960,
          "time": 13.750011,
          "velocity": 0.2677165354330709
        },
        {
          "duration": 0.20833350000000017,
          "durationTicks": 60,
          "midi": 62,
          "name": "D4",
          "ticks": 4020,
          "time": 13.9583445,
          "velocity": 0.2677165354330709
        },
        {
          "duration": 0.20833350000000017,
          "durationTicks": 60,
          "midi": 62,
          "name": "D4",
          "ticks": 4080,
          "time": 14.166678000000001,
          "velocity": 0.2677165354330709
        },
        {
          "duration": 0.2083334999999984,
          "durationTicks": 60,
          "midi": 54,
          "name": "F#3",
          "ticks": 4140,
          "time": 14.375011500000001,
          "velocity": 0.2677165354330709
        },
        {
          "duration": 0.20833350000000017,
          "durationTicks": 60,
          "midi": 62,
          "name": "D4",
          "ticks": 4200,
          "time": 14.583345,
          "velocity": 0.2677165354330709
        },
        {
          "duration": 0.20833350000000017,
          "durationTicks": 60,
          "midi": 62,
          "name": "D4",
          "ticks": 4260,
          "time": 14.7916785,
          "velocity": 0.2677165354330709
        },
        {
          "duration": 0.20833350000000017,
          "durationTicks": 60,
          "midi": 55,
          "name": "G3",
          "ticks": 4320,
          "time": 15.000012,
          "velocity": 0.2677165354330709
        },
        {
          "duration": 0.20833350000000017,
          "durationTicks": 60,
          "midi": 62,
          "name": "D4",
          "ticks": 4380,
          "time": 15.2083455,
          "velocity": 0.2677165354330709
        },
        {
          "duration": 0.20833350000000017,
          "durationTicks": 60,
          "midi": 62,
          "name": "D4",
          "ticks": 4440,
          "time": 15.416679,
          "velocity": 0.2677165354330709
        },
        {
          "duration": 0.20833350000000017,
          "durationTicks": 60,
          "midi": 55,
          "name": "G3",
          "ticks": 4500,
          "time": 15.6250125,
          "velocity": 0.2677165354330709
        },
        {
          "duration": 0.20833350000000017,
          "durationTicks": 60,
          "midi": 63,
          "name": "D#4",
          "ticks": 4560,
          "time": 15.833346,
          "velocity": 0.2677165354330709
        },
        {
          "duration": 0.2083334999999984,
          "durationTicks": 60,
          "midi": 63,
          "name": "D#4",
          "ticks": 4620,
          "time": 16.0416795,
          "velocity": 0.2677165354330709
        },
        {
          "duration": 0.20833350000000195,
          "durationTicks": 60,
          "midi": 53,
          "name": "F3",
          "ticks": 4680,
          "time": 16.250013,
          "velocity": 0.2677165354330709
        },
        {
          "duration": 0.2083334999999984,
          "durationTicks": 60,
          "midi": 60,
          "name": "C4",
          "ticks": 4740,
          "time": 16.4583465,
          "velocity": 0.2677165354330709
        },
        {
          "duration": 0.20833350000000195,
          "durationTicks": 60,
          "midi": 60,
          "name": "C4",
          "ticks": 4800,
          "time": 16.66668,
          "velocity": 0.2677165354330709
        },
        {
          "duration": 0.2083334999999984,
          "durationTicks": 60,
          "midi": 53,
          "name": "F3",
          "ticks": 4860,
          "time": 16.8750135,
          "velocity": 0.2677165354330709
        },
        {
          "duration": 0.20833350000000195,
          "durationTicks": 60,
          "midi": 62,
          "name": "D4",
          "ticks": 4920,
          "time": 17.083347,
          "velocity": 0.2677165354330709
        },
        {
          "duration": 0.2083334999999984,
          "durationTicks": 60,
          "midi": 62,
          "name": "D4",
          "ticks": 4980,
          "time": 17.291680500000002,
          "velocity": 0.2677165354330709
        },
        {
          "duration": 0.20833350000000195,
          "durationTicks": 60,
          "midi": 51,
          "name": "D#3",
          "ticks": 5040,
          "time": 17.500014,
          "velocity": 0.2677165354330709
        },
        {
          "duration": 0.2083334999999984,
          "durationTicks": 60,
          "midi": 58,
          "name": "A#3",
          "ticks": 5100,
          "time": 17.708347500000002,
          "velocity": 0.2677165354330709
        },
        {
          "duration": 0.2083334999999984,
          "durationTicks": 60,
          "midi": 58,
          "name": "A#3",
          "ticks": 5160,
          "time": 17.916681,
          "velocity": 0.2677165354330709
        },
        {
          "duration": 0.20833350000000195,
          "durationTicks": 60,
          "midi": 51,
          "name": "D#3",
          "ticks": 5220,
          "time": 18.1250145,
          "velocity": 0.2677165354330709
        },
        {
          "duration": 0.2083334999999984,
          "durationTicks": 60,
          "midi": 61,
          "name": "C#4",
          "ticks": 5280,
          "time": 18.333348,
          "velocity": 0.2677165354330709
        },
        {
          "duration": 0.20833350000000195,
          "durationTicks": 60,
          "midi": 61,
          "name": "C#4",
          "ticks": 5340,
          "time": 18.5416815,
          "velocity": 0.2677165354330709
        },
        {
          "duration": 0.2083334999999984,
          "durationTicks": 60,
          "midi": 54,
          "name": "F#3",
          "ticks": 5400,
          "time": 18.750015,
          "velocity": 0.2677165354330709
        },
        {
          "duration": 0.20833350000000195,
          "durationTicks": 60,
          "midi": 62,
          "name": "D4",
          "ticks": 5460,
          "time": 18.9583485,
          "velocity": 0.2677165354330709
        },
        {
          "duration": 0.2083334999999984,
          "durationTicks": 60,
          "midi": 62,
          "name": "D4",
          "ticks": 5520,
          "time": 19.166682,
          "velocity": 0.2677165354330709
        },
        {
          "duration": 0.20833350000000195,
          "durationTicks": 60,
          "midi": 54,
          "name": "F#3",
          "ticks": 5580,
          "time": 19.3750155,
          "velocity": 0.2677165354330709
        },
        {
          "duration": 0.2083334999999984,
          "durationTicks": 60,
          "midi": 62,
          "name": "D4",
          "ticks": 5640,
          "time": 19.583349000000002,
          "velocity": 0.2677165354330709
        },
        {
          "duration": 0.20833350000000195,
          "durationTicks": 60,
          "midi": 62,
          "name": "D4",
          "ticks": 5700,
          "time": 19.7916825,
          "velocity": 0.2677165354330709
        },
        {
          "duration": 0.2083334999999984,
          "durationTicks": 60,
          "midi": 55,
          "name": "G3",
          "ticks": 5760,
          "time": 20.000016000000002,
          "velocity": 0.2677165354330709
        },
        {
          "duration": 0.2083334999999984,
          "durationTicks": 60,
          "midi": 62,
          "name": "D4",
          "ticks": 5820,
          "time": 20.2083495,
          "velocity": 0.2677165354330709
        },
        {
          "duration": 0.20833350000000195,
          "durationTicks": 60,
          "midi": 62,
          "name": "D4",
          "ticks": 5880,
          "time": 20.416683,
          "velocity": 0.2677165354330709
        },
        {
          "duration": 0.2083334999999984,
          "durationTicks": 60,
          "midi": 55,
          "name": "G3",
          "ticks": 5940,
          "time": 20.6250165,
          "velocity": 0.2677165354330709
        },
        {
          "duration": 0.20833350000000195,
          "durationTicks": 60,
          "midi": 63,
          "name": "D#4",
          "ticks": 6000,
          "time": 20.83335,
          "velocity": 0.2677165354330709
        },
        {
          "duration": 0.2083334999999984,
          "durationTicks": 60,
          "midi": 63,
          "name": "D#4",
          "ticks": 6060,
          "time": 21.0416835,
          "velocity": 0.2677165354330709
        },
        {
          "duration": 0.20833350000000195,
          "durationTicks": 60,
          "midi": 53,
          "name": "F3",
          "ticks": 6120,
          "time": 21.250017,
          "velocity": 0.2677165354330709
        },
        {
          "duration": 0.2083334999999984,
          "durationTicks": 60,
          "midi": 60,
          "name": "C4",
          "ticks": 6180,
          "time": 21.4583505,
          "velocity": 0.2677165354330709
        },
        {
          "duration": 0.20833350000000195,
          "durationTicks": 60,
          "midi": 60,
          "name": "C4",
          "ticks": 6240,
          "time": 21.666684,
          "velocity": 0.2677165354330709
        },
        {
          "duration": 0.2083334999999984,
          "durationTicks": 60,
          "midi": 53,
          "name": "F3",
          "ticks": 6300,
          "time": 21.875017500000002,
          "velocity": 0.2677165354330709
        },
        {
          "duration": 0.2083334999999984,
          "durationTicks": 60,
          "midi": 62,
          "name": "D4",
          "ticks": 6360,
          "time": 22.083351,
          "velocity": 0.2677165354330709
        },
        {
          "duration": 0.20833350000000195,
          "durationTicks": 60,
          "midi": 62,
          "name": "D4",
          "ticks": 6420,
          "time": 22.2916845,
          "velocity": 0.2677165354330709
        },
        {
          "duration": 0.2083334999999984,
          "durationTicks": 60,
          "midi": 51,
          "name": "D#3",
          "ticks": 6480,
          "time": 22.500018,
          "velocity": 0.2677165354330709
        },
        {
          "duration": 0.20833350000000195,
          "durationTicks": 60,
          "midi": 58,
          "name": "A#3",
          "ticks": 6540,
          "time": 22.7083515,
          "velocity": 0.2677165354330709
        },
        {
          "duration": 0.2083334999999984,
          "durationTicks": 60,
          "midi": 58,
          "name": "A#3",
          "ticks": 6600,
          "time": 22.916685,
          "velocity": 0.2677165354330709
        },
        {
          "duration": 0.20833350000000195,
          "durationTicks": 60,
          "midi": 51,
          "name": "D#3",
          "ticks": 6660,
          "time": 23.1250185,
          "velocity": 0.2677165354330709
        },
        {
          "duration": 0.2083334999999984,
          "durationTicks": 60,
          "midi": 61,
          "name": "C#4",
          "ticks": 6720,
          "time": 23.333352,
          "velocity": 0.2677165354330709
        },
        {
          "duration": 0.20833350000000195,
          "durationTicks": 60,
          "midi": 61,
          "name": "C#4",
          "ticks": 6780,
          "time": 23.5416855,
          "velocity": 0.2677165354330709
        },
        {
          "duration": 0.2083334999999984,
          "durationTicks": 60,
          "midi": 54,
          "name": "F#3",
          "ticks": 6840,
          "time": 23.750019,
          "velocity": 0.2677165354330709
        },
        {
          "duration": 0.20833350000000195,
          "durationTicks": 60,
          "midi": 62,
          "name": "D4",
          "ticks": 6900,
          "time": 23.9583525,
          "velocity": 0.2677165354330709
        },
        {
          "duration": 0.2083334999999984,
          "durationTicks": 60,
          "midi": 62,
          "name": "D4",
          "ticks": 6960,
          "time": 24.166686000000002,
          "velocity": 0.2677165354330709
        },
        {
          "duration": 0.2083334999999984,
          "durationTicks": 60,
          "midi": 54,
          "name": "F#3",
          "ticks": 7020,
          "time": 24.3750195,
          "velocity": 0.2677165354330709
        },
        {
          "duration": 0.20833350000000195,
          "durationTicks": 60,
          "midi": 62,
          "name": "D4",
          "ticks": 7080,
          "time": 24.583353,
          "velocity": 0.2677165354330709
        },
        {
          "duration": 0.2083334999999984,
          "durationTicks": 60,
          "midi": 62,
          "name": "D4",
          "ticks": 7140,
          "time": 24.7916865,
          "velocity": 0.2677165354330709
        },
        {
          "duration": 0.20833350000000195,
          "durationTicks": 60,
          "midi": 55,
          "name": "G3",
          "ticks": 7200,
          "time": 25.00002,
          "velocity": 0.2677165354330709
        },
        {
          "duration": 0.2083334999999984,
          "durationTicks": 60,
          "midi": 62,
          "name": "D4",
          "ticks": 7260,
          "time": 25.2083535,
          "velocity": 0.2677165354330709
        },
        {
          "duration": 0.20833350000000195,
          "durationTicks": 60,
          "midi": 62,
          "name": "D4",
          "ticks": 7320,
          "time": 25.416687,
          "velocity": 0.2677165354330709
        },
        {
          "duration": 0.2083334999999984,
          "durationTicks": 60,
          "midi": 55,
          "name": "G3",
          "ticks": 7380,
          "time": 25.6250205,
          "velocity": 0.2677165354330709
        },
        {
          "duration": 0.20833350000000195,
          "durationTicks": 60,
          "midi": 63,
          "name": "D#4",
          "ticks": 7440,
          "time": 25.833354,
          "velocity": 0.2677165354330709
        },
        {
          "duration": 0.2083334999999984,
          "durationTicks": 60,
          "midi": 63,
          "name": "D#4",
          "ticks": 7500,
          "time": 26.041687500000002,
          "velocity": 0.2677165354330709
        },
        {
          "duration": 0.20833350000000195,
          "durationTicks": 60,
          "midi": 53,
          "name": "F3",
          "ticks": 7560,
          "time": 26.250021,
          "velocity": 0.2677165354330709
        },
        {
          "duration": 0.2083334999999984,
          "durationTicks": 60,
          "midi": 60,
          "name": "C4",
          "ticks": 7620,
          "time": 26.458354500000002,
          "velocity": 0.2677165354330709
        },
        {
          "duration": 0.2083334999999984,
          "durationTicks": 60,
          "midi": 60,
          "name": "C4",
          "ticks": 7680,
          "time": 26.666688,
          "velocity": 0.2677165354330709
        },
        {
          "duration": 0.20833350000000195,
          "durationTicks": 60,
          "midi": 53,
          "name": "F3",
          "ticks": 7740,
          "time": 26.8750215,
          "velocity": 0.2677165354330709
        },
        {
          "duration": 0.2083334999999984,
          "durationTicks": 60,
          "midi": 62,
          "name": "D4",
          "ticks": 7800,
          "time": 27.083355,
          "velocity": 0.2677165354330709
        },
        {
          "duration": 0.20833350000000195,
          "durationTicks": 60,
          "midi": 62,
          "name": "D4",
          "ticks": 7860,
          "time": 27.2916885,
          "velocity": 0.2677165354330709
        },
        {
          "duration": 0.2083334999999984,
          "durationTicks": 60,
          "midi": 51,
          "name": "D#3",
          "ticks": 7920,
          "time": 27.500022,
          "velocity": 0.2677165354330709
        },
        {
          "duration": 0.20833350000000195,
          "durationTicks": 60,
          "midi": 58,
          "name": "A#3",
          "ticks": 7980,
          "time": 27.7083555,
          "velocity": 0.2677165354330709
        },
        {
          "duration": 0.2083334999999984,
          "durationTicks": 60,
          "midi": 58,
          "name": "A#3",
          "ticks": 8040,
          "time": 27.916689,
          "velocity": 0.2677165354330709
        },
        {
          "duration": 0.20833350000000195,
          "durationTicks": 60,
          "midi": 51,
          "name": "D#3",
          "ticks": 8100,
          "time": 28.1250225,
          "velocity": 0.2677165354330709
        },
        {
          "duration": 0.2083334999999984,
          "durationTicks": 60,
          "midi": 61,
          "name": "C#4",
          "ticks": 8160,
          "time": 28.333356000000002,
          "velocity": 0.2677165354330709
        },
        {
          "duration": 0.20833350000000195,
          "durationTicks": 60,
          "midi": 61,
          "name": "C#4",
          "ticks": 8220,
          "time": 28.5416895,
          "velocity": 0.2677165354330709
        },
        {
          "duration": 0.2083334999999984,
          "durationTicks": 60,
          "midi": 54,
          "name": "F#3",
          "ticks": 8280,
          "time": 28.750023000000002,
          "velocity": 0.2677165354330709
        },
        {
          "duration": 0.2083334999999984,
          "durationTicks": 60,
          "midi": 62,
          "name": "D4",
          "ticks": 8340,
          "time": 28.9583565,
          "velocity": 0.2677165354330709
        },
        {
          "duration": 0.20833350000000195,
          "durationTicks": 60,
          "midi": 62,
          "name": "D4",
          "ticks": 8400,
          "time": 29.16669,
          "velocity": 0.2677165354330709
        },
        {
          "duration": 0.2083334999999984,
          "durationTicks": 60,
          "midi": 54,
          "name": "F#3",
          "ticks": 8460,
          "time": 29.3750235,
          "velocity": 0.2677165354330709
        },
        {
          "duration": 0.20833350000000195,
          "durationTicks": 60,
          "midi": 62,
          "name": "D4",
          "ticks": 8520,
          "time": 29.583357,
          "velocity": 0.2677165354330709
        },
        {
          "duration": 0.2083334999999984,
          "durationTicks": 60,
          "midi": 62,
          "name": "D4",
          "ticks": 8580,
          "time": 29.7916905,
          "velocity": 0.2677165354330709
        },
        {
          "duration": 0.20833350000000195,
          "durationTicks": 60,
          "midi": 55,
          "name": "G3",
          "ticks": 8640,
          "time": 30.000024,
          "velocity": 0.2677165354330709
        },
        {
          "duration": 0.2083334999999984,
          "durationTicks": 60,
          "midi": 62,
          "name": "D4",
          "ticks": 8700,
          "time": 30.2083575,
          "velocity": 0.2677165354330709
        },
        {
          "duration": 0.20833350000000195,
          "durationTicks": 60,
          "midi": 62,
          "name": "D4",
          "ticks": 8760,
          "time": 30.416691,
          "velocity": 0.2677165354330709
        },
        {
          "duration": 0.2083334999999984,
          "durationTicks": 60,
          "midi": 55,
          "name": "G3",
          "ticks": 8820,
          "time": 30.625024500000002,
          "velocity": 0.2677165354330709
        },
        {
          "duration": 0.20833350000000195,
          "durationTicks": 60,
          "midi": 63,
          "name": "D#4",
          "ticks": 8880,
          "time": 30.833358,
          "velocity": 0.2677165354330709
        },
        {
          "duration": 0.2083334999999984,
          "durationTicks": 60,
          "midi": 63,
          "name": "D#4",
          "ticks": 8940,
          "time": 31.041691500000002,
          "velocity": 0.2677165354330709
        },
        {
          "duration": 0.2083334999999984,
          "durationTicks": 60,
          "midi": 53,
          "name": "F3",
          "ticks": 9000,
          "time": 31.250025,
          "velocity": 0.2677165354330709
        },
        {
          "duration": 0.20833350000000195,
          "durationTicks": 60,
          "midi": 60,
          "name": "C4",
          "ticks": 9060,
          "time": 31.4583585,
          "velocity": 0.2677165354330709
        },
        {
          "duration": 0.2083334999999984,
          "durationTicks": 60,
          "midi": 60,
          "name": "C4",
          "ticks": 9120,
          "time": 31.666692,
          "velocity": 0.2677165354330709
        },
        {
          "duration": 0.20833350000000195,
          "durationTicks": 60,
          "midi": 53,
          "name": "F3",
          "ticks": 9180,
          "time": 31.8750255,
          "velocity": 0.2677165354330709
        },
        {
          "duration": 0.20833350000000195,
          "durationTicks": 60,
          "midi": 62,
          "name": "D4",
          "ticks": 9240,
          "time": 32.083359,
          "velocity": 0.2677165354330709
        },
        {
          "duration": 0.20833349999999484,
          "durationTicks": 60,
          "midi": 62,
          "name": "D4",
          "ticks": 9300,
          "time": 32.2916925,
          "velocity": 0.2677165354330709
        },
        {
          "duration": 0.20833350000000195,
          "durationTicks": 60,
          "midi": 51,
          "name": "D#3",
          "ticks": 9360,
          "time": 32.500026,
          "velocity": 0.2677165354330709
        },
        {
          "duration": 0.20833350000000195,
          "durationTicks": 60,
          "midi": 58,
          "name": "A#3",
          "ticks": 9420,
          "time": 32.7083595,
          "velocity": 0.2677165354330709
        },
        {
          "duration": 0.20833350000000195,
          "durationTicks": 60,
          "midi": 58,
          "name": "A#3",
          "ticks": 9480,
          "time": 32.916693,
          "velocity": 0.2677165354330709
        },
        {
          "duration": 0.20833349999999484,
          "durationTicks": 60,
          "midi": 51,
          "name": "D#3",
          "ticks": 9540,
          "time": 33.125026500000004,
          "velocity": 0.2677165354330709
        },
        {
          "duration": 0.20833350000000195,
          "durationTicks": 60,
          "midi": 61,
          "name": "C#4",
          "ticks": 9600,
          "time": 33.33336,
          "velocity": 0.2677165354330709
        },
        {
          "duration": 0.20833350000000195,
          "durationTicks": 60,
          "midi": 61,
          "name": "C#4",
          "ticks": 9660,
          "time": 33.5416935,
          "velocity": 0.2677165354330709
        },
        {
          "duration": 0.20833349999999484,
          "durationTicks": 60,
          "midi": 54,
          "name": "F#3",
          "ticks": 9720,
          "time": 33.750027,
          "velocity": 0.2677165354330709
        },
        {
          "duration": 0.20833350000000195,
          "durationTicks": 60,
          "midi": 62,
          "name": "D4",
          "ticks": 9780,
          "time": 33.9583605,
          "velocity": 0.2677165354330709
        },
        {
          "duration": 0.20833350000000195,
          "durationTicks": 60,
          "midi": 62,
          "name": "D4",
          "ticks": 9840,
          "time": 34.166694,
          "velocity": 0.2677165354330709
        },
        {
          "duration": 0.20833350000000195,
          "durationTicks": 60,
          "midi": 54,
          "name": "F#3",
          "ticks": 9900,
          "time": 34.3750275,
          "velocity": 0.2677165354330709
        },
        {
          "duration": 0.20833349999999484,
          "durationTicks": 60,
          "midi": 62,
          "name": "D4",
          "ticks": 9960,
          "time": 34.583361000000004,
          "velocity": 0.2677165354330709
        },
        {
          "duration": 0.20833350000000195,
          "durationTicks": 60,
          "midi": 62,
          "name": "D4",
          "ticks": 10020,
          "time": 34.7916945,
          "velocity": 0.2677165354330709
        },
        {
          "duration": 0.20833350000000195,
          "durationTicks": 60,
          "midi": 55,
          "name": "G3",
          "ticks": 10080,
          "time": 35.000028,
          "velocity": 0.2677165354330709
        },
        {
          "duration": 0.20833350000000195,
          "durationTicks": 60,
          "midi": 62,
          "name": "D4",
          "ticks": 10140,
          "time": 35.2083615,
          "velocity": 0.2677165354330709
        },
        {
          "duration": 0.20833349999999484,
          "durationTicks": 60,
          "midi": 62,
          "name": "D4",
          "ticks": 10200,
          "time": 35.416695000000004,
          "velocity": 0.2677165354330709
        },
        {
          "duration": 0.20833350000000195,
          "durationTicks": 60,
          "midi": 55,
          "name": "G3",
          "ticks": 10260,
          "time": 35.6250285,
          "velocity": 0.2677165354330709
        },
        {
          "duration": 0.20833350000000195,
          "durationTicks": 60,
          "midi": 63,
          "name": "D#4",
          "ticks": 10320,
          "time": 35.833362,
          "velocity": 0.2677165354330709
        },
        {
          "duration": 0.20833349999999484,
          "durationTicks": 60,
          "midi": 63,
          "name": "D#4",
          "ticks": 10380,
          "time": 36.0416955,
          "velocity": 0.2677165354330709
        },
        {
          "duration": 0.20833350000000195,
          "durationTicks": 60,
          "midi": 53,
          "name": "F3",
          "ticks": 10440,
          "time": 36.250029,
          "velocity": 0.2677165354330709
        },
        {
          "duration": 0.20833350000000195,
          "durationTicks": 60,
          "midi": 60,
          "name": "C4",
          "ticks": 10500,
          "time": 36.4583625,
          "velocity": 0.2677165354330709
        },
        {
          "duration": 0.20833350000000195,
          "durationTicks": 60,
          "midi": 60,
          "name": "C4",
          "ticks": 10560,
          "time": 36.666696,
          "velocity": 0.2677165354330709
        },
        {
          "duration": 0.20833349999999484,
          "durationTicks": 60,
          "midi": 53,
          "name": "F3",
          "ticks": 10620,
          "time": 36.875029500000004,
          "velocity": 0.2677165354330709
        },
        {
          "duration": 0.20833350000000195,
          "durationTicks": 60,
          "midi": 62,
          "name": "D4",
          "ticks": 10680,
          "time": 37.083363,
          "velocity": 0.2677165354330709
        },
        {
          "duration": 0.20833350000000195,
          "durationTicks": 60,
          "midi": 62,
          "name": "D4",
          "ticks": 10740,
          "time": 37.2916965,
          "velocity": 0.2677165354330709
        },
        {
          "duration": 0.20833350000000195,
          "durationTicks": 60,
          "midi": 51,
          "name": "D#3",
          "ticks": 10800,
          "time": 37.50003,
          "velocity": 0.2677165354330709
        },
        {
          "duration": 0.20833349999999484,
          "durationTicks": 60,
          "midi": 58,
          "name": "A#3",
          "ticks": 10860,
          "time": 37.708363500000004,
          "velocity": 0.2677165354330709
        },
        {
          "duration": 0.20833350000000195,
          "durationTicks": 60,
          "midi": 58,
          "name": "A#3",
          "ticks": 10920,
          "time": 37.916697,
          "velocity": 0.2677165354330709
        },
        {
          "duration": 0.20833350000000195,
          "durationTicks": 60,
          "midi": 51,
          "name": "D#3",
          "ticks": 10980,
          "time": 38.1250305,
          "velocity": 0.2677165354330709
        },
        {
          "duration": 0.20833349999999484,
          "durationTicks": 60,
          "midi": 61,
          "name": "C#4",
          "ticks": 11040,
          "time": 38.333364,
          "velocity": 0.2677165354330709
        },
        {
          "duration": 0.20833350000000195,
          "durationTicks": 60,
          "midi": 61,
          "name": "C#4",
          "ticks": 11100,
          "time": 38.5416975,
          "velocity": 0.2677165354330709
        },
        {
          "duration": 0.20833350000000195,
          "durationTicks": 60,
          "midi": 54,
          "name": "F#3",
          "ticks": 11160,
          "time": 38.750031,
          "velocity": 0.2677165354330709
        },
        {
          "duration": 0.20833350000000195,
          "durationTicks": 60,
          "midi": 62,
          "name": "D4",
          "ticks": 11220,
          "time": 38.9583645,
          "velocity": 0.2677165354330709
        },
        {
          "duration": 0.20833349999999484,
          "durationTicks": 60,
          "midi": 62,
          "name": "D4",
          "ticks": 11280,
          "time": 39.166698000000004,
          "velocity": 0.2677165354330709
        },
        {
          "duration": 0.20833350000000195,
          "durationTicks": 60,
          "midi": 54,
          "name": "F#3",
          "ticks": 11340,
          "time": 39.3750315,
          "velocity": 0.2677165354330709
        },
        {
          "duration": 0.10416674999999742,
          "durationTicks": 30,
          "midi": 86,
          "name": "D6",
          "ticks": 11400,
          "time": 39.583365,
          "velocity": 0.5354330708661418
        },
        {
          "duration": 0.10416675000000453,
          "durationTicks": 30,
          "midi": 84,
          "name": "C6",
          "ticks": 11430,
          "time": 39.68753175,
          "velocity": 0.5354330708661418
        },
        {
          "duration": 0.10416674999999742,
          "durationTicks": 30,
          "midi": 82,
          "name": "A#5",
          "ticks": 11460,
          "time": 39.7916985,
          "velocity": 0.5354330708661418
        },
        {
          "duration": 0.10416675000000453,
          "durationTicks": 30,
          "midi": 81,
          "name": "A5",
          "ticks": 11490,
          "time": 39.89586525,
          "velocity": 0.5354330708661418
        },
        {
          "duration": 0.10416674999999742,
          "durationTicks": 30,
          "midi": 79,
          "name": "G5",
          "ticks": 11520,
          "time": 40.000032000000004,
          "velocity": 0.5354330708661418
        },
        {
          "duration": 0.10416674999999742,
          "durationTicks": 30,
          "midi": 74,
          "name": "D5",
          "ticks": 11550,
          "time": 40.10419875,
          "velocity": 0.5354330708661418
        },
        {
          "duration": 0.10416675000000453,
          "durationTicks": 30,
          "midi": 81,
          "name": "A5",
          "ticks": 11580,
          "time": 40.2083655,
          "velocity": 0.5354330708661418
        },
        {
          "duration": 0.10416674999999742,
          "durationTicks": 30,
          "midi": 77,
          "name": "F5",
          "ticks": 11610,
          "time": 40.312532250000004,
          "velocity": 0.5354330708661418
        },
        {
          "duration": 0.10416674999999742,
          "durationTicks": 30,
          "midi": 82,
          "name": "A#5",
          "ticks": 11640,
          "time": 40.416699,
          "velocity": 0.5354330708661418
        },
        {
          "duration": 0.10416675000000453,
          "durationTicks": 30,
          "midi": 79,
          "name": "G5",
          "ticks": 11670,
          "time": 40.52086575,
          "velocity": 0.5354330708661418
        },
        {
          "duration": 0.10416674999999742,
          "durationTicks": 30,
          "midi": 84,
          "name": "C6",
          "ticks": 11700,
          "time": 40.6250325,
          "velocity": 0.5354330708661418
        },
        {
          "duration": 0.10416674999999742,
          "durationTicks": 30,
          "midi": 81,
          "name": "A5",
          "ticks": 11730,
          "time": 40.72919925,
          "velocity": 0.5354330708661418
        },
        {
          "duration": 0.4166670000000039,
          "durationTicks": 120,
          "midi": 86,
          "name": "D6",
          "ticks": 11760,
          "time": 40.833366,
          "velocity": 0.5354330708661418
        },
        {
          "duration": 0.4166669999999968,
          "durationTicks": 120,
          "midi": 91,
          "name": "G6",
          "ticks": 11880,
          "time": 41.250033,
          "velocity": 0.5354330708661418
        },
        {
          "duration": 0.4166670000000039,
          "durationTicks": 120,
          "midi": 91,
          "name": "G6",
          "ticks": 12000,
          "time": 41.6667,
          "velocity": 0.5354330708661418
        },
        {
          "duration": 0.20833349999999484,
          "durationTicks": 60,
          "midi": 89,
          "name": "F6",
          "ticks": 12120,
          "time": 42.083367,
          "velocity": 0.5354330708661418
        },
        {
          "duration": 0.20833350000000195,
          "durationTicks": 60,
          "midi": 91,
          "name": "G6",
          "ticks": 12180,
          "time": 42.2917005,
          "velocity": 0.5354330708661418
        },
        {
          "duration": 0.05208337500000226,
          "durationTicks": 15,
          "midi": 86,
          "name": "D6",
          "ticks": 12240,
          "time": 42.500034,
          "velocity": 0.5354330708661418
        },
        {
          "duration": 0.05208337500000226,
          "durationTicks": 15,
          "midi": 84,
          "name": "C6",
          "ticks": 12255,
          "time": 42.552117375,
          "velocity": 0.5354330708661418
        },
        {
          "duration": 0.05208337499999516,
          "durationTicks": 15,
          "midi": 86,
          "name": "D6",
          "ticks": 12270,
          "time": 42.604200750000004,
          "velocity": 0.5354330708661418
        },
        {
          "duration": 0.05208337500000226,
          "durationTicks": 15,
          "midi": 84,
          "name": "C6",
          "ticks": 12285,
          "time": 42.656284125,
          "velocity": 0.5354330708661418
        },
        {
          "duration": 0.6250004999999987,
          "durationTicks": 180,
          "midi": 86,
          "name": "D6",
          "ticks": 12300,
          "time": 42.7083675,
          "velocity": 0.5354330708661418
        },
        {
          "duration": 0.20833350000000195,
          "durationTicks": 60,
          "midi": 84,
          "name": "C6",
          "ticks": 12480,
          "time": 43.333368,
          "velocity": 0.5354330708661418
        },
        {
          "duration": 0.20833350000000195,
          "durationTicks": 60,
          "midi": 86,
          "name": "D6",
          "ticks": 12540,
          "time": 43.5417015,
          "velocity": 0.5354330708661418
        },
        {
          "duration": 0.4166669999999968,
          "durationTicks": 120,
          "midi": 79,
          "name": "G5",
          "ticks": 12600,
          "time": 43.750035000000004,
          "velocity": 0.5354330708661418
        },
        {
          "duration": 0.20833350000000195,
          "durationTicks": 60,
          "midi": 84,
          "name": "C6",
          "ticks": 12720,
          "time": 44.166702,
          "velocity": 0.5354330708661418
        },
        {
          "duration": 0.20833349999999484,
          "durationTicks": 60,
          "midi": 86,
          "name": "D6",
          "ticks": 12780,
          "time": 44.3750355,
          "velocity": 0.5354330708661418
        },
        {
          "duration": 0.4166670000000039,
          "durationTicks": 120,
          "midi": 79,
          "name": "G5",
          "ticks": 12840,
          "time": 44.583369,
          "velocity": 0.5354330708661418
        },
        {
          "duration": 0.4166669999999968,
          "durationTicks": 120,
          "midi": 79,
          "name": "G5",
          "ticks": 12960,
          "time": 45.000036,
          "velocity": 0.5354330708661418
        },
        {
          "duration": 0.20833350000000195,
          "durationTicks": 60,
          "midi": 81,
          "name": "A5",
          "ticks": 13080,
          "time": 45.416703,
          "velocity": 0.5354330708661418
        },
        {
          "duration": 0.20833350000000195,
          "durationTicks": 60,
          "midi": 82,
          "name": "A#5",
          "ticks": 13140,
          "time": 45.6250365,
          "velocity": 0.5354330708661418
        },
        {
          "duration": 0.4166669999999968,
          "durationTicks": 120,
          "midi": 84,
          "name": "C6",
          "ticks": 13200,
          "time": 45.83337,
          "velocity": 0.5354330708661418
        },
        {
          "duration": 0.10416675000000453,
          "durationTicks": 30,
          "midi": 86,
          "name": "D6",
          "ticks": 13320,
          "time": 46.250037,
          "velocity": 0.5354330708661418
        },
        {
          "duration": 0.10416674999999742,
          "durationTicks": 30,
          "midi": 84,
          "name": "C6",
          "ticks": 13350,
          "time": 46.35420375,
          "velocity": 0.5354330708661418
        },
        {
          "duration": 0.10416674999999742,
          "durationTicks": 30,
          "midi": 82,
          "name": "A#5",
          "ticks": 13380,
          "time": 46.4583705,
          "velocity": 0.5354330708661418
        },
        {
          "duration": 0.10416675000000453,
          "durationTicks": 30,
          "midi": 81,
          "name": "A5",
          "ticks": 13410,
          "time": 46.56253725,
          "velocity": 0.5354330708661418
        },
        {
          "duration": 0.10416674999999742,
          "durationTicks": 30,
          "midi": 79,
          "name": "G5",
          "ticks": 13440,
          "time": 46.666704,
          "velocity": 0.5354330708661418
        },
        {
          "duration": 0.10416674999999742,
          "durationTicks": 30,
          "midi": 74,
          "name": "D5",
          "ticks": 13470,
          "time": 46.77087075,
          "velocity": 0.5354330708661418
        },
        {
          "duration": 0.10416675000000453,
          "durationTicks": 30,
          "midi": 81,
          "name": "A5",
          "ticks": 13500,
          "time": 46.8750375,
          "velocity": 0.5354330708661418
        },
        {
          "duration": 0.10416674999999742,
          "durationTicks": 30,
          "midi": 77,
          "name": "F5",
          "ticks": 13530,
          "time": 46.97920425,
          "velocity": 0.5354330708661418
        },
        {
          "duration": 0.10416675000000453,
          "durationTicks": 30,
          "midi": 82,
          "name": "A#5",
          "ticks": 13560,
          "time": 47.083371,
          "velocity": 0.5354330708661418
        },
        {
          "duration": 0.10416674999999742,
          "durationTicks": 30,
          "midi": 79,
          "name": "G5",
          "ticks": 13590,
          "time": 47.187537750000004,
          "velocity": 0.5354330708661418
        },
        {
          "duration": 0.10416674999999742,
          "durationTicks": 30,
          "midi": 84,
          "name": "C6",
          "ticks": 13620,
          "time": 47.2917045,
          "velocity": 0.5354330708661418
        },
        {
          "duration": 0.10416675000000453,
          "durationTicks": 30,
          "midi": 81,
          "name": "A5",
          "ticks": 13650,
          "time": 47.39587125,
          "velocity": 0.5354330708661418
        },
        {
          "duration": 0.4166669999999968,
          "durationTicks": 120,
          "midi": 86,
          "name": "D6",
          "ticks": 13680,
          "time": 47.500038,
          "velocity": 0.5354330708661418
        },
        {
          "duration": 0.10416674999999742,
          "durationTicks": 30,
          "midi": 91,
          "name": "G6",
          "ticks": 13800,
          "time": 47.916705,
          "velocity": 0.5354330708661418
        },
        {
          "duration": 0.10416675000000453,
          "durationTicks": 30,
          "midi": 86,
          "name": "D6",
          "ticks": 13830,
          "time": 48.02087175,
          "velocity": 0.5354330708661418
        },
        {
          "duration": 0.10416674999999742,
          "durationTicks": 30,
          "midi": 93,
          "name": "A6",
          "ticks": 13860,
          "time": 48.1250385,
          "velocity": 0.5354330708661418
        },
        {
          "duration": 0.10416675000000453,
          "durationTicks": 30,
          "midi": 86,
          "name": "D6",
          "ticks": 13890,
          "time": 48.22920525,
          "velocity": 0.5354330708661418
        },
        {
          "duration": 0.10416674999999742,
          "durationTicks": 30,
          "midi": 94,
          "name": "A#6",
          "ticks": 13920,
          "time": 48.333372000000004,
          "velocity": 0.5354330708661418
        },
        {
          "duration": 0.10416674999999742,
          "durationTicks": 30,
          "midi": 96,
          "name": "C7",
          "ticks": 13950,
          "time": 48.43753875,
          "velocity": 0.5354330708661418
        },
        {
          "duration": 0.10416675000000453,
          "durationTicks": 30,
          "midi": 98,
          "name": "D7",
          "ticks": 13980,
          "time": 48.5417055,
          "velocity": 0.5354330708661418
        },
        {
          "duration": 0.10416674999999742,
          "durationTicks": 30,
          "midi": 91,
          "name": "G6",
          "ticks": 14010,
          "time": 48.645872250000004,
          "velocity": 0.5354330708661418
        },
        {
          "duration": 0.20833350000000195,
          "durationTicks": 60,
          "midi": 93,
          "name": "A6",
          "ticks": 14040,
          "time": 48.750039,
          "velocity": 0.5354330708661418
        },
        {
          "duration": 0.20833349999999484,
          "durationTicks": 60,
          "midi": 89,
          "name": "F6",
          "ticks": 14100,
          "time": 48.9583725,
          "velocity": 0.5354330708661418
        },
        {
          "duration": 0.20833350000000195,
          "durationTicks": 60,
          "midi": 91,
          "name": "G6",
          "ticks": 14160,
          "time": 49.166706,
          "velocity": 0.5354330708661418
        },
        {
          "duration": 0.20833350000000195,
          "durationTicks": 60,
          "midi": 86,
          "name": "D6",
          "ticks": 14220,
          "time": 49.3750395,
          "velocity": 0.5354330708661418
        },
        {
          "duration": 0.10416674999999742,
          "durationTicks": 30,
          "midi": 93,
          "name": "A6",
          "ticks": 14280,
          "time": 49.583373,
          "velocity": 0.5354330708661418
        },
        {
          "duration": 0.10416675000000453,
          "durationTicks": 30,
          "midi": 94,
          "name": "A#6",
          "ticks": 14310,
          "time": 49.68753975,
          "velocity": 0.5354330708661418
        },
        {
          "duration": 0.20833349999999484,
          "durationTicks": 60,
          "midi": 96,
          "name": "C7",
          "ticks": 14340,
          "time": 49.791706500000004,
          "velocity": 0.5354330708661418
        },
        {
          "duration": 0.10416675000000453,
          "durationTicks": 30,
          "midi": 98,
          "name": "D7",
          "ticks": 14400,
          "time": 50.00004,
          "velocity": 0.5354330708661418
        },
        {
          "duration": 0.10416674999999742,
          "durationTicks": 30,
          "midi": 94,
          "name": "A#6",
          "ticks": 14430,
          "time": 50.10420675,
          "velocity": 0.5354330708661418
        },
        {
          "duration": 0.10416674999999742,
          "durationTicks": 30,
          "midi": 91,
          "name": "G6",
          "ticks": 14460,
          "time": 50.2083735,
          "velocity": 0.5354330708661418
        },
        {
          "duration": 0.10416675000000453,
          "durationTicks": 30,
          "midi": 96,
          "name": "C7",
          "ticks": 14490,
          "time": 50.31254025,
          "velocity": 0.5354330708661418
        },
        {
          "duration": 0.10416674999999742,
          "durationTicks": 30,
          "midi": 93,
          "name": "A6",
          "ticks": 14520,
          "time": 50.416707,
          "velocity": 0.5354330708661418
        },
        {
          "duration": 0.10416675000000453,
          "durationTicks": 30,
          "midi": 89,
          "name": "F6",
          "ticks": 14550,
          "time": 50.52087375,
          "velocity": 0.5354330708661418
        },
        {
          "duration": 0.10416674999999742,
          "durationTicks": 30,
          "midi": 93,
          "name": "A6",
          "ticks": 14580,
          "time": 50.625040500000004,
          "velocity": 0.5354330708661418
        },
        {
          "duration": 0.10416674999999742,
          "durationTicks": 30,
          "midi": 94,
          "name": "A#6",
          "ticks": 14610,
          "time": 50.72920725,
          "velocity": 0.5354330708661418
        },
        {
          "duration": 0.10416675000000453,
          "durationTicks": 30,
          "midi": 93,
          "name": "A6",
          "ticks": 14640,
          "time": 50.833374,
          "velocity": 0.5354330708661418
        },
        {
          "duration": 0.10416674999999742,
          "durationTicks": 30,
          "midi": 89,
          "name": "F6",
          "ticks": 14670,
          "time": 50.937540750000004,
          "velocity": 0.5354330708661418
        },
        {
          "duration": 0.10416674999999742,
          "durationTicks": 30,
          "midi": 86,
          "name": "D6",
          "ticks": 14700,
          "time": 51.0417075,
          "velocity": 0.5354330708661418
        },
        {
          "duration": 0.10416675000000453,
          "durationTicks": 30,
          "midi": 91,
          "name": "G6",
          "ticks": 14730,
          "time": 51.14587425,
          "velocity": 0.5354330708661418
        },
        {
          "duration": 0.10416674999999742,
          "durationTicks": 30,
          "midi": 84,
          "name": "C6",
          "ticks": 14760,
          "time": 51.250041,
          "velocity": 0.5354330708661418
        },
        {
          "duration": 0.10416674999999742,
          "durationTicks": 30,
          "midi": 86,
          "name": "D6",
          "ticks": 14790,
          "time": 51.35420775,
          "velocity": 0.5354330708661418
        },
        {
          "duration": 0.10416675000000453,
          "durationTicks": 30,
          "midi": 89,
          "name": "F6",
          "ticks": 14820,
          "time": 51.4583745,
          "velocity": 0.5354330708661418
        },
        {
          "duration": 0.10416674999999742,
          "durationTicks": 30,
          "midi": 94,
          "name": "A#6",
          "ticks": 14850,
          "time": 51.56254125,
          "velocity": 0.5354330708661418
        },
        {
          "duration": 0.10416675000000453,
          "durationTicks": 30,
          "midi": 82,
          "name": "A#5",
          "ticks": 14880,
          "time": 51.666708,
          "velocity": 0.5354330708661418
        },
        {
          "duration": 0.10416674999999742,
          "durationTicks": 30,
          "midi": 86,
          "name": "D6",
          "ticks": 14910,
          "time": 51.770874750000004,
          "velocity": 0.5354330708661418
        },
        {
          "duration": 0.10416674999999742,
          "durationTicks": 30,
          "midi": 93,
          "name": "A6",
          "ticks": 14940,
          "time": 51.8750415,
          "velocity": 0.5354330708661418
        },
        {
          "duration": 0.10416675000000453,
          "durationTicks": 30,
          "midi": 84,
          "name": "C6",
          "ticks": 14970,
          "time": 51.97920825,
          "velocity": 0.5354330708661418
        },
        {
          "duration": 0.10416674999999742,
          "durationTicks": 30,
          "midi": 91,
          "name": "G6",
          "ticks": 15000,
          "time": 52.083375000000004,
          "velocity": 0.5354330708661418
        },
        {
          "duration": 0.10416674999999742,
          "durationTicks": 30,
          "midi": 82,
          "name": "A#5",
          "ticks": 15030,
          "time": 52.18754175,
          "velocity": 0.5354330708661418
        },
        {
          "duration": 0.10416675000000453,
          "durationTicks": 30,
          "midi": 89,
          "name": "F6",
          "ticks": 15060,
          "time": 52.2917085,
          "velocity": 0.5354330708661418
        },
        {
          "duration": 0.10416674999999742,
          "durationTicks": 30,
          "midi": 81,
          "name": "A5",
          "ticks": 15090,
          "time": 52.39587525,
          "velocity": 0.5354330708661418
        },
        {
          "duration": 0.10416674999999742,
          "durationTicks": 30,
          "midi": 82,
          "name": "A#5",
          "ticks": 15120,
          "time": 52.500042,
          "velocity": 0.5354330708661418
        },
        {
          "duration": 0.10416675000000453,
          "durationTicks": 30,
          "midi": 84,
          "name": "C6",
          "ticks": 15150,
          "time": 52.60420875,
          "velocity": 0.5354330708661418
        },
        {
          "duration": 0.10416674999999742,
          "durationTicks": 30,
          "midi": 79,
          "name": "G5",
          "ticks": 15180,
          "time": 52.7083755,
          "velocity": 0.5354330708661418
        },
        {
          "duration": 0.10416675000000453,
          "durationTicks": 30,
          "midi": 81,
          "name": "A5",
          "ticks": 15210,
          "time": 52.81254225,
          "velocity": 0.5354330708661418
        },
        {
          "duration": 0.10416674999999742,
          "durationTicks": 30,
          "midi": 82,
          "name": "A#5",
          "ticks": 15240,
          "time": 52.916709000000004,
          "velocity": 0.5354330708661418
        },
        {
          "duration": 0.10416674999999742,
          "durationTicks": 30,
          "midi": 77,
          "name": "F5",
          "ticks": 15270,
          "time": 53.02087575,
          "velocity": 0.5354330708661418
        },
        {
          "duration": 0.10416675000000453,
          "durationTicks": 30,
          "midi": 79,
          "name": "G5",
          "ticks": 15300,
          "time": 53.1250425,
          "velocity": 0.5354330708661418
        },
        {
          "duration": 0.10416674999999742,
          "durationTicks": 30,
          "midi": 81,
          "name": "A5",
          "ticks": 15330,
          "time": 53.229209250000004,
          "velocity": 0.5354330708661418
        },
        {
          "duration": 0.10416674999999742,
          "durationTicks": 30,
          "midi": 76,
          "name": "E5",
          "ticks": 15360,
          "time": 53.333376,
          "velocity": 0.5354330708661418
        },
        {
          "duration": 0.10416675000000453,
          "durationTicks": 30,
          "midi": 71,
          "name": "B4",
          "ticks": 15390,
          "time": 53.43754275,
          "velocity": 0.5354330708661418
        },
        {
          "duration": 0.10416674999999742,
          "durationTicks": 30,
          "midi": 78,
          "name": "F#5",
          "ticks": 15420,
          "time": 53.5417095,
          "velocity": 0.5354330708661418
        },
        {
          "duration": 0.10416674999999742,
          "durationTicks": 30,
          "midi": 74,
          "name": "D5",
          "ticks": 15450,
          "time": 53.64587625,
          "velocity": 0.5354330708661418
        },
        {
          "duration": 0.10416675000000453,
          "durationTicks": 30,
          "midi": 79,
          "name": "G5",
          "ticks": 15480,
          "time": 53.750043,
          "velocity": 0.5354330708661418
        },
        {
          "duration": 0.10416674999999742,
          "durationTicks": 30,
          "midi": 76,
          "name": "E5",
          "ticks": 15510,
          "time": 53.85420975,
          "velocity": 0.5354330708661418
        },
        {
          "duration": 0.10416675000000453,
          "durationTicks": 30,
          "midi": 81,
          "name": "A5",
          "ticks": 15540,
          "time": 53.9583765,
          "velocity": 0.5354330708661418
        },
        {
          "duration": 0.10416674999999742,
          "durationTicks": 30,
          "midi": 78,
          "name": "F#5",
          "ticks": 15570,
          "time": 54.062543250000004,
          "velocity": 0.5354330708661418
        },
        {
          "duration": 0.4166669999999968,
          "durationTicks": 120,
          "midi": 83,
          "name": "B5",
          "ticks": 15600,
          "time": 54.16671,
          "velocity": 0.5354330708661418
        },
        {
          "duration": 0.4166670000000039,
          "durationTicks": 120,
          "midi": 88,
          "name": "E6",
          "ticks": 15720,
          "time": 54.583377,
          "velocity": 0.5354330708661418
        },
        {
          "duration": 0.4166669999999968,
          "durationTicks": 120,
          "midi": 88,
          "name": "E6",
          "ticks": 15840,
          "time": 55.000044,
          "velocity": 0.5354330708661418
        },
        {
          "duration": 0.20833350000000195,
          "durationTicks": 60,
          "midi": 86,
          "name": "D6",
          "ticks": 15960,
          "time": 55.416711,
          "velocity": 0.5354330708661418
        },
        {
          "duration": 0.20833350000000195,
          "durationTicks": 60,
          "midi": 88,
          "name": "E6",
          "ticks": 16020,
          "time": 55.6250445,
          "velocity": 0.5354330708661418
        },
        {
          "duration": 0.05208337499999516,
          "durationTicks": 15,
          "midi": 83,
          "name": "B5",
          "ticks": 16080,
          "time": 55.833378,
          "velocity": 0.5354330708661418
        },
        {
          "duration": 0.05208337500000226,
          "durationTicks": 15,
          "midi": 81,
          "name": "A5",
          "ticks": 16095,
          "time": 55.885461375,
          "velocity": 0.5354330708661418
        },
        {
          "duration": 0.05208337500000226,
          "durationTicks": 15,
          "midi": 83,
          "name": "B5",
          "ticks": 16110,
          "time": 55.93754475,
          "velocity": 0.5354330708661418
        },
        {
          "duration": 0.05208337499999516,
          "durationTicks": 15,
          "midi": 81,
          "name": "A5",
          "ticks": 16125,
          "time": 55.989628125,
          "velocity": 0.5354330708661418
        },
        {
          "duration": 0.6250005000000058,
          "durationTicks": 180,
          "midi": 83,
          "name": "B5",
          "ticks": 16140,
          "time": 56.0417115,
          "velocity": 0.5354330708661418
        },
        {
          "duration": 0.20833349999999484,
          "durationTicks": 60,
          "midi": 81,
          "name": "A5",
          "ticks": 16320,
          "time": 56.666712000000004,
          "velocity": 0.5354330708661418
        },
        {
          "duration": 0.20833350000000195,
          "durationTicks": 60,
          "midi": 83,
          "name": "B5",
          "ticks": 16380,
          "time": 56.8750455,
          "velocity": 0.5354330708661418
        },
        {
          "duration": 0.4166670000000039,
          "durationTicks": 120,
          "midi": 76,
          "name": "E5",
          "ticks": 16440,
          "time": 57.083379,
          "velocity": 0.5354330708661418
        },
        {
          "duration": 0.20833349999999484,
          "durationTicks": 60,
          "midi": 81,
          "name": "A5",
          "ticks": 16560,
          "time": 57.500046000000005,
          "velocity": 0.5354330708661418
        },
        {
          "duration": 0.20833350000000195,
          "durationTicks": 60,
          "midi": 83,
          "name": "B5",
          "ticks": 16620,
          "time": 57.7083795,
          "velocity": 0.5354330708661418
        },
        {
          "duration": 0.4166669999999968,
          "durationTicks": 120,
          "midi": 76,
          "name": "E5",
          "ticks": 16680,
          "time": 57.916713,
          "velocity": 0.5354330708661418
        },
        {
          "duration": 0.8333340000000007,
          "durationTicks": 240,
          "midi": 76,
          "name": "E5",
          "ticks": 16800,
          "time": 58.33338,
          "velocity": 0.5354330708661418
        },
        {
          "duration": 0.4166670000000039,
          "durationTicks": 120,
          "midi": 78,
          "name": "F#5",
          "ticks": 17040,
          "time": 59.166714,
          "velocity": 0.5354330708661418
        },
        {
          "duration": 0.10416674999999742,
          "durationTicks": 30,
          "midi": 71,
          "name": "B4",
          "ticks": 17160,
          "time": 59.583381,
          "velocity": 0.5354330708661418
        },
        {
          "duration": 0.10416675000000453,
          "durationTicks": 30,
          "midi": 69,
          "name": "A4",
          "ticks": 17190,
          "time": 59.68754775,
          "velocity": 0.5354330708661418
        },
        {
          "duration": 0.10416674999999742,
          "durationTicks": 30,
          "midi": 67,
          "name": "G4",
          "ticks": 17220,
          "time": 59.791714500000005,
          "velocity": 0.5354330708661418
        },
        {
          "duration": 0.10416674999999742,
          "durationTicks": 30,
          "midi": 66,
          "name": "F#4",
          "ticks": 17250,
          "time": 59.89588125,
          "velocity": 0.5354330708661418
        },
        {
          "duration": 0.10416675000000453,
          "durationTicks": 30,
          "midi": 64,
          "name": "E4",
          "ticks": 17280,
          "time": 60.000048,
          "velocity": 0.5354330708661418
        },
        {
          "duration": 0.10416674999999742,
          "durationTicks": 30,
          "midi": 59,
          "name": "B3",
          "ticks": 17310,
          "time": 60.104214750000004,
          "velocity": 0.5354330708661418
        },
        {
          "duration": 0.10416674999999742,
          "durationTicks": 30,
          "midi": 66,
          "name": "F#4",
          "ticks": 17340,
          "time": 60.2083815,
          "velocity": 0.5354330708661418
        },
        {
          "duration": 0.10416675000000453,
          "durationTicks": 30,
          "midi": 62,
          "name": "D4",
          "ticks": 17370,
          "time": 60.31254825,
          "velocity": 0.5354330708661418
        },
        {
          "duration": 0.10416674999999742,
          "durationTicks": 30,
          "midi": 67,
          "name": "G4",
          "ticks": 17400,
          "time": 60.416715,
          "velocity": 0.5354330708661418
        },
        {
          "duration": 0.10416674999999742,
          "durationTicks": 30,
          "midi": 64,
          "name": "E4",
          "ticks": 17430,
          "time": 60.52088175,
          "velocity": 0.5354330708661418
        },
        {
          "duration": 0.10416675000000453,
          "durationTicks": 30,
          "midi": 69,
          "name": "A4",
          "ticks": 17460,
          "time": 60.6250485,
          "velocity": 0.5354330708661418
        },
        {
          "duration": 0.10416674999999742,
          "durationTicks": 30,
          "midi": 66,
          "name": "F#4",
          "ticks": 17490,
          "time": 60.72921525,
          "velocity": 0.5354330708661418
        },
        {
          "duration": 0.4166670000000039,
          "durationTicks": 120,
          "midi": 71,
          "name": "B4",
          "ticks": 17520,
          "time": 60.833382,
          "velocity": 0.5354330708661418
        },
        {
          "duration": 0.10416674999999742,
          "durationTicks": 30,
          "midi": 76,
          "name": "E5",
          "ticks": 17640,
          "time": 61.250049000000004,
          "velocity": 0.5354330708661418
        },
        {
          "duration": 0.10416674999999742,
          "durationTicks": 30,
          "midi": 71,
          "name": "B4",
          "ticks": 17670,
          "time": 61.35421575,
          "velocity": 0.5354330708661418
        },
        {
          "duration": 0.10416675000000453,
          "durationTicks": 30,
          "midi": 78,
          "name": "F#5",
          "ticks": 17700,
          "time": 61.4583825,
          "velocity": 0.5354330708661418
        },
        {
          "duration": 0.10416674999999742,
          "durationTicks": 30,
          "midi": 71,
          "name": "B4",
          "ticks": 17730,
          "time": 61.562549250000004,
          "velocity": 0.5354330708661418
        },
        {
          "duration": 0.10416674999999742,
          "durationTicks": 30,
          "midi": 79,
          "name": "G5",
          "ticks": 17760,
          "time": 61.666716,
          "velocity": 0.5354330708661418
        },
        {
          "duration": 0.10416675000000453,
          "durationTicks": 30,
          "midi": 81,
          "name": "A5",
          "ticks": 17790,
          "time": 61.77088275,
          "velocity": 0.5354330708661418
        },
        {
          "duration": 0.10416674999999742,
          "durationTicks": 30,
          "midi": 83,
          "name": "B5",
          "ticks": 17820,
          "time": 61.8750495,
          "velocity": 0.5354330708661418
        },
        {
          "duration": 0.10416675000000453,
          "durationTicks": 30,
          "midi": 76,
          "name": "E5",
          "ticks": 17850,
          "time": 61.97921625,
          "velocity": 0.5354330708661418
        },
        {
          "duration": 0.20833349999999484,
          "durationTicks": 60,
          "midi": 78,
          "name": "F#5",
          "ticks": 17880,
          "time": 62.083383000000005,
          "velocity": 0.5354330708661418
        },
        {
          "duration": 0.20833350000000195,
          "durationTicks": 60,
          "midi": 74,
          "name": "D5",
          "ticks": 17940,
          "time": 62.2917165,
          "velocity": 0.5354330708661418
        },
        {
          "duration": 0.20833350000000195,
          "durationTicks": 60,
          "midi": 76,
          "name": "E5",
          "ticks": 18000,
          "time": 62.50005,
          "velocity": 0.5354330708661418
        },
        {
          "duration": 0.20833349999999484,
          "durationTicks": 60,
          "midi": 71,
          "name": "B4",
          "ticks": 18060,
          "time": 62.708383500000004,
          "velocity": 0.5354330708661418
        },
        {
          "duration": 0.10416675000000453,
          "durationTicks": 30,
          "midi": 78,
          "name": "F#5",
          "ticks": 18120,
          "time": 62.916717,
          "velocity": 0.5354330708661418
        },
        {
          "duration": 0.10416674999999742,
          "durationTicks": 30,
          "midi": 79,
          "name": "G5",
          "ticks": 18150,
          "time": 63.02088375,
          "velocity": 0.5354330708661418
        },
        {
          "duration": 0.20833350000000195,
          "durationTicks": 60,
          "midi": 81,
          "name": "A5",
          "ticks": 18180,
          "time": 63.1250505,
          "velocity": 0.5354330708661418
        },
        {
          "duration": 0.10416674999999742,
          "durationTicks": 30,
          "midi": 83,
          "name": "B5",
          "ticks": 18240,
          "time": 63.333384,
          "velocity": 0.5354330708661418
        },
        {
          "duration": 0.10416675000000453,
          "durationTicks": 30,
          "midi": 79,
          "name": "G5",
          "ticks": 18270,
          "time": 63.43755075,
          "velocity": 0.5354330708661418
        },
        {
          "duration": 0.10416674999999742,
          "durationTicks": 30,
          "midi": 76,
          "name": "E5",
          "ticks": 18300,
          "time": 63.541717500000004,
          "velocity": 0.5354330708661418
        },
        {
          "duration": 0.10416674999999742,
          "durationTicks": 30,
          "midi": 81,
          "name": "A5",
          "ticks": 18330,
          "time": 63.64588425,
          "velocity": 0.5354330708661418
        },
        {
          "duration": 0.10416675000000453,
          "durationTicks": 30,
          "midi": 78,
          "name": "F#5",
          "ticks": 18360,
          "time": 63.750051,
          "velocity": 0.5354330708661418
        },
        {
          "duration": 0.10416674999999742,
          "durationTicks": 30,
          "midi": 74,
          "name": "D5",
          "ticks": 18390,
          "time": 63.854217750000004,
          "velocity": 0.5354330708661418
        },
        {
          "duration": 0.10416674999999742,
          "durationTicks": 30,
          "midi": 78,
          "name": "F#5",
          "ticks": 18420,
          "time": 63.9583845,
          "velocity": 0.5354330708661418
        },
        {
          "duration": 0.10416675000000453,
          "durationTicks": 30,
          "midi": 79,
          "name": "G5",
          "ticks": 18450,
          "time": 64.06255125,
          "velocity": 0.5354330708661418
        },
        {
          "duration": 0.10416675000000453,
          "durationTicks": 30,
          "midi": 78,
          "name": "F#5",
          "ticks": 18480,
          "time": 64.166718,
          "velocity": 0.5354330708661418
        },
        {
          "duration": 0.10416674999999032,
          "durationTicks": 30,
          "midi": 74,
          "name": "D5",
          "ticks": 18510,
          "time": 64.27088475000001,
          "velocity": 0.5354330708661418
        },
        {
          "duration": 0.10416675000000453,
          "durationTicks": 30,
          "midi": 71,
          "name": "B4",
          "ticks": 18540,
          "time": 64.3750515,
          "velocity": 0.5354330708661418
        },
        {
          "duration": 0.10416675000000453,
          "durationTicks": 30,
          "midi": 76,
          "name": "E5",
          "ticks": 18570,
          "time": 64.47921825,
          "velocity": 0.5354330708661418
        },
        {
          "duration": 0.10416674999999032,
          "durationTicks": 30,
          "midi": 69,
          "name": "A4",
          "ticks": 18600,
          "time": 64.583385,
          "velocity": 0.5354330708661418
        },
        {
          "duration": 0.10416675000000453,
          "durationTicks": 30,
          "midi": 71,
          "name": "B4",
          "ticks": 18630,
          "time": 64.68755175,
          "velocity": 0.5354330708661418
        },
        {
          "duration": 0.10416675000000453,
          "durationTicks": 30,
          "midi": 74,
          "name": "D5",
          "ticks": 18660,
          "time": 64.7917185,
          "velocity": 0.5354330708661418
        },
        {
          "duration": 0.10416674999999032,
          "durationTicks": 30,
          "midi": 79,
          "name": "G5",
          "ticks": 18690,
          "time": 64.89588525,
          "velocity": 0.5354330708661418
        },
        {
          "duration": 0.10416675000000453,
          "durationTicks": 30,
          "midi": 67,
          "name": "G4",
          "ticks": 18720,
          "time": 65.000052,
          "velocity": 0.5354330708661418
        },
        {
          "duration": 0.10416675000000453,
          "durationTicks": 30,
          "midi": 71,
          "name": "B4",
          "ticks": 18750,
          "time": 65.10421875,
          "velocity": 0.5354330708661418
        },
        {
          "duration": 0.10416674999999032,
          "durationTicks": 30,
          "midi": 78,
          "name": "F#5",
          "ticks": 18780,
          "time": 65.2083855,
          "velocity": 0.5354330708661418
        },
        {
          "duration": 0.10416675000000453,
          "durationTicks": 30,
          "midi": 69,
          "name": "A4",
          "ticks": 18810,
          "time": 65.31255225,
          "velocity": 0.5354330708661418
        },
        {
          "duration": 0.10416675000000453,
          "durationTicks": 30,
          "midi": 76,
          "name": "E5",
          "ticks": 18840,
          "time": 65.416719,
          "velocity": 0.5354330708661418
        },
        {
          "duration": 0.10416674999999032,
          "durationTicks": 30,
          "midi": 67,
          "name": "G4",
          "ticks": 18870,
          "time": 65.52088575,
          "velocity": 0.5354330708661418
        },
        {
          "duration": 0.10416675000000453,
          "durationTicks": 30,
          "midi": 74,
          "name": "D5",
          "ticks": 18900,
          "time": 65.6250525,
          "velocity": 0.5354330708661418
        },
        {
          "duration": 0.10416675000000453,
          "durationTicks": 30,
          "midi": 66,
          "name": "F#4",
          "ticks": 18930,
          "time": 65.72921925,
          "velocity": 0.5354330708661418
        },
        {
          "duration": 0.10416674999999032,
          "durationTicks": 30,
          "midi": 67,
          "name": "G4",
          "ticks": 18960,
          "time": 65.833386,
          "velocity": 0.5354330708661418
        },
        {
          "duration": 0.10416675000000453,
          "durationTicks": 30,
          "midi": 69,
          "name": "A4",
          "ticks": 18990,
          "time": 65.93755275,
          "velocity": 0.5354330708661418
        },
        {
          "duration": 0.10416675000000453,
          "durationTicks": 30,
          "midi": 64,
          "name": "E4",
          "ticks": 19020,
          "time": 66.0417195,
          "velocity": 0.5354330708661418
        },
        {
          "duration": 0.10416675000000453,
          "durationTicks": 30,
          "midi": 66,
          "name": "F#4",
          "ticks": 19050,
          "time": 66.14588625,
          "velocity": 0.5354330708661418
        },
        {
          "duration": 0.10416674999999032,
          "durationTicks": 30,
          "midi": 67,
          "name": "G4",
          "ticks": 19080,
          "time": 66.25005300000001,
          "velocity": 0.5354330708661418
        },
        {
          "duration": 0.10416675000000453,
          "durationTicks": 30,
          "midi": 62,
          "name": "D4",
          "ticks": 19110,
          "time": 66.35421975,
          "velocity": 0.5354330708661418
        },
        {
          "duration": 0.10416675000000453,
          "durationTicks": 30,
          "midi": 64,
          "name": "E4",
          "ticks": 19140,
          "time": 66.4583865,
          "velocity": 0.5354330708661418
        },
        {
          "duration": 0.10416674999999032,
          "durationTicks": 30,
          "midi": 66,
          "name": "F#4",
          "ticks": 19170,
          "time": 66.56255325000001,
          "velocity": 0.5354330708661418
        },
        {
          "duration": 0.10416675000000453,
          "durationTicks": 30,
          "midi": 64,
          "name": "E4",
          "ticks": 19200,
          "time": 66.66672,
          "velocity": 0.5354330708661418
        },
        {
          "duration": 0.10416675000000453,
          "durationTicks": 30,
          "midi": 59,
          "name": "B3",
          "ticks": 19230,
          "time": 66.77088675,
          "velocity": 0.5354330708661418
        },
        {
          "duration": 0.10416674999999032,
          "durationTicks": 30,
          "midi": 66,
          "name": "F#4",
          "ticks": 19260,
          "time": 66.8750535,
          "velocity": 0.5354330708661418
        },
        {
          "duration": 0.10416675000000453,
          "durationTicks": 30,
          "midi": 62,
          "name": "D4",
          "ticks": 19290,
          "time": 66.97922025,
          "velocity": 0.5354330708661418
        },
        {
          "duration": 0.10416675000000453,
          "durationTicks": 30,
          "midi": 67,
          "name": "G4",
          "ticks": 19320,
          "time": 67.083387,
          "velocity": 0.5354330708661418
        },
        {
          "duration": 0.10416674999999032,
          "durationTicks": 30,
          "midi": 64,
          "name": "E4",
          "ticks": 19350,
          "time": 67.18755375,
          "velocity": 0.5354330708661418
        },
        {
          "duration": 0.10416675000000453,
          "durationTicks": 30,
          "midi": 69,
          "name": "A4",
          "ticks": 19380,
          "time": 67.2917205,
          "velocity": 0.5354330708661418
        },
        {
          "duration": 0.10416675000000453,
          "durationTicks": 30,
          "midi": 66,
          "name": "F#4",
          "ticks": 19410,
          "time": 67.39588725,
          "velocity": 0.5354330708661418
        },
        {
          "duration": 0.4166669999999897,
          "durationTicks": 120,
          "midi": 71,
          "name": "B4",
          "ticks": 19440,
          "time": 67.500054,
          "velocity": 0.5354330708661418
        },
        {
          "duration": 0.4166670000000039,
          "durationTicks": 120,
          "midi": 76,
          "name": "E5",
          "ticks": 19560,
          "time": 67.916721,
          "velocity": 0.5354330708661418
        },
        {
          "duration": 0.4166670000000039,
          "durationTicks": 120,
          "midi": 76,
          "name": "E5",
          "ticks": 19680,
          "time": 68.333388,
          "velocity": 0.5354330708661418
        },
        {
          "duration": 0.20833349999999484,
          "durationTicks": 60,
          "midi": 74,
          "name": "D5",
          "ticks": 19800,
          "time": 68.750055,
          "velocity": 0.5354330708661418
        },
        {
          "duration": 0.20833350000000905,
          "durationTicks": 60,
          "midi": 76,
          "name": "E5",
          "ticks": 19860,
          "time": 68.9583885,
          "velocity": 0.5354330708661418
        },
        {
          "duration": 0.05208337499999516,
          "durationTicks": 15,
          "midi": 71,
          "name": "B4",
          "ticks": 19920,
          "time": 69.16672200000001,
          "velocity": 0.5354330708661418
        },
        {
          "duration": 0.05208337499999516,
          "durationTicks": 15,
          "midi": 69,
          "name": "A4",
          "ticks": 19935,
          "time": 69.218805375,
          "velocity": 0.5354330708661418
        },
        {
          "duration": 0.05208337500000937,
          "durationTicks": 15,
          "midi": 71,
          "name": "B4",
          "ticks": 19950,
          "time": 69.27088875,
          "velocity": 0.5354330708661418
        },
        {
          "duration": 0.05208337499999516,
          "durationTicks": 15,
          "midi": 69,
          "name": "A4",
          "ticks": 19965,
          "time": 69.322972125,
          "velocity": 0.5354330708661418
        },
        {
          "duration": 0.6250004999999987,
          "durationTicks": 180,
          "midi": 71,
          "name": "B4",
          "ticks": 19980,
          "time": 69.3750555,
          "velocity": 0.5354330708661418
        },
        {
          "duration": 0.20833349999999484,
          "durationTicks": 60,
          "midi": 69,
          "name": "A4",
          "ticks": 20160,
          "time": 70.000056,
          "velocity": 0.5354330708661418
        },
        {
          "duration": 0.20833350000000905,
          "durationTicks": 60,
          "midi": 71,
          "name": "B4",
          "ticks": 20220,
          "time": 70.2083895,
          "velocity": 0.5354330708661418
        },
        {
          "duration": 0.4166670000000039,
          "durationTicks": 120,
          "midi": 64,
          "name": "E4",
          "ticks": 20280,
          "time": 70.416723,
          "velocity": 0.5354330708661418
        },
        {
          "duration": 0.20833349999999484,
          "durationTicks": 60,
          "midi": 69,
          "name": "A4",
          "ticks": 20400,
          "time": 70.83339000000001,
          "velocity": 0.5354330708661418
        },
        {
          "duration": 0.20833349999999484,
          "durationTicks": 60,
          "midi": 71,
          "name": "B4",
          "ticks": 20460,
          "time": 71.0417235,
          "velocity": 0.5354330708661418
        },
        {
          "duration": 0.4166670000000039,
          "durationTicks": 120,
          "midi": 64,
          "name": "E4",
          "ticks": 20520,
          "time": 71.250057,
          "velocity": 0.5354330708661418
        },
        {
          "duration": 0.8333339999999936,
          "durationTicks": 240,
          "midi": 64,
          "name": "E4",
          "ticks": 20640,
          "time": 71.666724,
          "velocity": 0.5354330708661418
        },
        {
          "duration": 0.4166670000000039,
          "durationTicks": 120,
          "midi": 66,
          "name": "F#4",
          "ticks": 20880,
          "time": 72.500058,
          "velocity": 0.5354330708661418
        },
        {
          "duration": 0.10416675000000453,
          "durationTicks": 30,
          "midi": 71,
          "name": "B4",
          "ticks": 21000,
          "time": 72.916725,
          "velocity": 0.5354330708661418
        },
        {
          "duration": 0.10416675000000453,
          "durationTicks": 30,
          "midi": 69,
          "name": "A4",
          "ticks": 21030,
          "time": 73.02089175,
          "velocity": 0.5354330708661418
        },
        {
          "duration": 0.10416674999999032,
          "durationTicks": 30,
          "midi": 67,
          "name": "G4",
          "ticks": 21060,
          "time": 73.12505850000001,
          "velocity": 0.5354330708661418
        },
        {
          "duration": 0.10416675000000453,
          "durationTicks": 30,
          "midi": 66,
          "name": "F#4",
          "ticks": 21090,
          "time": 73.22922525,
          "velocity": 0.5354330708661418
        },
        {
          "duration": 0.10416675000000453,
          "durationTicks": 30,
          "midi": 64,
          "name": "E4",
          "ticks": 21120,
          "time": 73.333392,
          "velocity": 0.5354330708661418
        },
        {
          "duration": 0.10416674999999032,
          "durationTicks": 30,
          "midi": 59,
          "name": "B3",
          "ticks": 21150,
          "time": 73.43755875000001,
          "velocity": 0.5354330708661418
        },
        {
          "duration": 0.10416675000000453,
          "durationTicks": 30,
          "midi": 66,
          "name": "F#4",
          "ticks": 21180,
          "time": 73.5417255,
          "velocity": 0.5354330708661418
        },
        {
          "duration": 0.10416675000000453,
          "durationTicks": 30,
          "midi": 62,
          "name": "D4",
          "ticks": 21210,
          "time": 73.64589225,
          "velocity": 0.5354330708661418
        },
        {
          "duration": 0.10416674999999032,
          "durationTicks": 30,
          "midi": 67,
          "name": "G4",
          "ticks": 21240,
          "time": 73.75005900000001,
          "velocity": 0.5354330708661418
        },
        {
          "duration": 0.10416675000000453,
          "durationTicks": 30,
          "midi": 64,
          "name": "E4",
          "ticks": 21270,
          "time": 73.85422575,
          "velocity": 0.5354330708661418
        },
        {
          "duration": 0.10416675000000453,
          "durationTicks": 30,
          "midi": 69,
          "name": "A4",
          "ticks": 21300,
          "time": 73.9583925,
          "velocity": 0.5354330708661418
        },
        {
          "duration": 0.10416674999999032,
          "durationTicks": 30,
          "midi": 66,
          "name": "F#4",
          "ticks": 21330,
          "time": 74.06255925,
          "velocity": 0.5354330708661418
        },
        {
          "duration": 0.4166670000000039,
          "durationTicks": 120,
          "midi": 71,
          "name": "B4",
          "ticks": 21360,
          "time": 74.166726,
          "velocity": 0.5354330708661418
        },
        {
          "duration": 0.10416675000000453,
          "durationTicks": 30,
          "midi": 76,
          "name": "E5",
          "ticks": 21480,
          "time": 74.583393,
          "velocity": 0.5354330708661418
        },
        {
          "duration": 0.10416674999999032,
          "durationTicks": 30,
          "midi": 71,
          "name": "B4",
          "ticks": 21510,
          "time": 74.68755975,
          "velocity": 0.5354330708661418
        },
        {
          "duration": 0.10416675000000453,
          "durationTicks": 30,
          "midi": 78,
          "name": "F#5",
          "ticks": 21540,
          "time": 74.7917265,
          "velocity": 0.5354330708661418
        },
        {
          "duration": 0.10416675000000453,
          "durationTicks": 30,
          "midi": 71,
          "name": "B4",
          "ticks": 21570,
          "time": 74.89589325,
          "velocity": 0.5354330708661418
        },
        {
          "duration": 0.10416674999999032,
          "durationTicks": 30,
          "midi": 79,
          "name": "G5",
          "ticks": 21600,
          "time": 75.00006,
          "velocity": 0.5354330708661418
        },
        {
          "duration": 0.10416675000000453,
          "durationTicks": 30,
          "midi": 81,
          "name": "A5",
          "ticks": 21630,
          "time": 75.10422675,
          "velocity": 0.5354330708661418
        },
        {
          "duration": 0.10416675000000453,
          "durationTicks": 30,
          "midi": 83,
          "name": "B5",
          "ticks": 21660,
          "time": 75.2083935,
          "velocity": 0.5354330708661418
        },
        {
          "duration": 0.10416675000000453,
          "durationTicks": 30,
          "midi": 76,
          "name": "E5",
          "ticks": 21690,
          "time": 75.31256025,
          "velocity": 0.5354330708661418
        },
        {
          "duration": 0.20833349999999484,
          "durationTicks": 60,
          "midi": 78,
          "name": "F#5",
          "ticks": 21720,
          "time": 75.41672700000001,
          "velocity": 0.5354330708661418
        },
        {
          "duration": 0.20833349999999484,
          "durationTicks": 60,
          "midi": 74,
          "name": "D5",
          "ticks": 21780,
          "time": 75.6250605,
          "velocity": 0.5354330708661418
        },
        {
          "duration": 0.20833350000000905,
          "durationTicks": 60,
          "midi": 76,
          "name": "E5",
          "ticks": 21840,
          "time": 75.833394,
          "velocity": 0.5354330708661418
        },
        {
          "duration": 0.20833349999999484,
          "durationTicks": 60,
          "midi": 71,
          "name": "B4",
          "ticks": 21900,
          "time": 76.04172750000001,
          "velocity": 0.5354330708661418
        },
        {
          "duration": 0.10416675000000453,
          "durationTicks": 30,
          "midi": 78,
          "name": "F#5",
          "ticks": 21960,
          "time": 76.250061,
          "velocity": 0.5354330708661418
        },
        {
          "duration": 0.10416674999999032,
          "durationTicks": 30,
          "midi": 79,
          "name": "G5",
          "ticks": 21990,
          "time": 76.35422775,
          "velocity": 0.5354330708661418
        },
        {
          "duration": 0.20833350000000905,
          "durationTicks": 60,
          "midi": 81,
          "name": "A5",
          "ticks": 22020,
          "time": 76.4583945,
          "velocity": 0.5354330708661418
        },
        {
          "duration": 0.10416674999999032,
          "durationTicks": 30,
          "midi": 83,
          "name": "B5",
          "ticks": 22080,
          "time": 76.666728,
          "velocity": 0.5354330708661418
        },
        {
          "duration": 0.10416675000000453,
          "durationTicks": 30,
          "midi": 79,
          "name": "G5",
          "ticks": 22110,
          "time": 76.77089475,
          "velocity": 0.5354330708661418
        },
        {
          "duration": 0.10416675000000453,
          "durationTicks": 30,
          "midi": 76,
          "name": "E5",
          "ticks": 22140,
          "time": 76.8750615,
          "velocity": 0.5354330708661418
        },
        {
          "duration": 0.10416674999999032,
          "durationTicks": 30,
          "midi": 81,
          "name": "A5",
          "ticks": 22170,
          "time": 76.97922825,
          "velocity": 0.5354330708661418
        },
        {
          "duration": 0.10416675000000453,
          "durationTicks": 30,
          "midi": 78,
          "name": "F#5",
          "ticks": 22200,
          "time": 77.083395,
          "velocity": 0.5354330708661418
        },
        {
          "duration": 0.10416675000000453,
          "durationTicks": 30,
          "midi": 74,
          "name": "D5",
          "ticks": 22230,
          "time": 77.18756175,
          "velocity": 0.5354330708661418
        },
        {
          "duration": 0.10416674999999032,
          "durationTicks": 30,
          "midi": 78,
          "name": "F#5",
          "ticks": 22260,
          "time": 77.2917285,
          "velocity": 0.5354330708661418
        },
        {
          "duration": 0.10416675000000453,
          "durationTicks": 30,
          "midi": 79,
          "name": "G5",
          "ticks": 22290,
          "time": 77.39589525,
          "velocity": 0.5354330708661418
        },
        {
          "duration": 0.10416675000000453,
          "durationTicks": 30,
          "midi": 78,
          "name": "F#5",
          "ticks": 22320,
          "time": 77.500062,
          "velocity": 0.5354330708661418
        },
        {
          "duration": 0.10416675000000453,
          "durationTicks": 30,
          "midi": 74,
          "name": "D5",
          "ticks": 22350,
          "time": 77.60422875,
          "velocity": 0.5354330708661418
        },
        {
          "duration": 0.10416674999999032,
          "durationTicks": 30,
          "midi": 71,
          "name": "B4",
          "ticks": 22380,
          "time": 77.70839550000001,
          "velocity": 0.5354330708661418
        },
        {
          "duration": 0.10416675000000453,
          "durationTicks": 30,
          "midi": 76,
          "name": "E5",
          "ticks": 22410,
          "time": 77.81256225,
          "velocity": 0.5354330708661418
        },
        {
          "duration": 0.10416675000000453,
          "durationTicks": 30,
          "midi": 69,
          "name": "A4",
          "ticks": 22440,
          "time": 77.916729,
          "velocity": 0.5354330708661418
        },
        {
          "duration": 0.10416674999999032,
          "durationTicks": 30,
          "midi": 71,
          "name": "B4",
          "ticks": 22470,
          "time": 78.02089575000001,
          "velocity": 0.5354330708661418
        },
        {
          "duration": 0.10416675000000453,
          "durationTicks": 30,
          "midi": 74,
          "name": "D5",
          "ticks": 22500,
          "time": 78.1250625,
          "velocity": 0.5354330708661418
        },
        {
          "duration": 0.10416675000000453,
          "durationTicks": 30,
          "midi": 79,
          "name": "G5",
          "ticks": 22530,
          "time": 78.22922925,
          "velocity": 0.5354330708661418
        },
        {
          "duration": 0.10416674999999032,
          "durationTicks": 30,
          "midi": 67,
          "name": "G4",
          "ticks": 22560,
          "time": 78.33339600000001,
          "velocity": 0.5354330708661418
        },
        {
          "duration": 0.10416675000000453,
          "durationTicks": 30,
          "midi": 71,
          "name": "B4",
          "ticks": 22590,
          "time": 78.43756275,
          "velocity": 0.5354330708661418
        },
        {
          "duration": 0.10416675000000453,
          "durationTicks": 30,
          "midi": 78,
          "name": "F#5",
          "ticks": 22620,
          "time": 78.5417295,
          "velocity": 0.5354330708661418
        },
        {
          "duration": 0.10416674999999032,
          "durationTicks": 30,
          "midi": 69,
          "name": "A4",
          "ticks": 22650,
          "time": 78.64589625,
          "velocity": 0.5354330708661418
        },
        {
          "duration": 0.10416675000000453,
          "durationTicks": 30,
          "midi": 76,
          "name": "E5",
          "ticks": 22680,
          "time": 78.750063,
          "velocity": 0.5354330708661418
        },
        {
          "duration": 0.10416675000000453,
          "durationTicks": 30,
          "midi": 67,
          "name": "G4",
          "ticks": 22710,
          "time": 78.85422975,
          "velocity": 0.5354330708661418
        },
        {
          "duration": 0.10416674999999032,
          "durationTicks": 30,
          "midi": 74,
          "name": "D5",
          "ticks": 22740,
          "time": 78.9583965,
          "velocity": 0.5354330708661418
        },
        {
          "duration": 0.10416675000000453,
          "durationTicks": 30,
          "midi": 66,
          "name": "F#4",
          "ticks": 22770,
          "time": 79.06256325,
          "velocity": 0.5354330708661418
        },
        {
          "duration": 0.10416675000000453,
          "durationTicks": 30,
          "midi": 67,
          "name": "G4",
          "ticks": 22800,
          "time": 79.16673,
          "velocity": 0.5354330708661418
        },
        {
          "duration": 0.10416674999999032,
          "durationTicks": 30,
          "midi": 69,
          "name": "A4",
          "ticks": 22830,
          "time": 79.27089675,
          "velocity": 0.5354330708661418
        },
        {
          "duration": 0.10416675000000453,
          "durationTicks": 30,
          "midi": 64,
          "name": "E4",
          "ticks": 22860,
          "time": 79.3750635,
          "velocity": 0.5354330708661418
        },
        {
          "duration": 0.10416675000000453,
          "durationTicks": 30,
          "midi": 66,
          "name": "F#4",
          "ticks": 22890,
          "time": 79.47923025,
          "velocity": 0.5354330708661418
        },
        {
          "duration": 0.10416674999999032,
          "durationTicks": 30,
          "midi": 67,
          "name": "G4",
          "ticks": 22920,
          "time": 79.583397,
          "velocity": 0.5354330708661418
        },
        {
          "duration": 0.10416675000000453,
          "durationTicks": 30,
          "midi": 62,
          "name": "D4",
          "ticks": 22950,
          "time": 79.68756375,
          "velocity": 0.5354330708661418
        },
        {
          "duration": 0.10416675000000453,
          "durationTicks": 30,
          "midi": 64,
          "name": "E4",
          "ticks": 22980,
          "time": 79.7917305,
          "velocity": 0.5354330708661418
        },
        {
          "duration": 0.10416675000000453,
          "durationTicks": 30,
          "midi": 66,
          "name": "F#4",
          "ticks": 23010,
          "time": 79.89589725,
          "velocity": 0.5354330708661418
        },
        {
          "duration": 1.6666679999999872,
          "durationTicks": 480,
          "midi": 71,
          "name": "B4",
          "ticks": 23040,
          "time": 80.00006400000001,
          "velocity": 0.5354330708661418
        }
      ],
      "endOfTrackTicks": 23520
    },
    {
      "channel": 11,
      "controlChanges": {
        "7": [
          {
            "number": 7,
            "ticks": 0,
            "time": 0,
            "value": 1
          }
        ],
        "10": [
          {
            "number": 10,
            "ticks": 0,
            "time": 0,
            "value": 0.5669291338582677
          }
        ]
      },
      "pitchBends": [],
      "instrument": {
        "family": "chromatic percussion",
        "number": 15,
        "name": "dulcimer"
      },
      "name": "Touhou 6: Enbodiment of Scarlet Devil - Shanghai Alice of Meiji 17 ",
      "notes": [
        {
          "duration": 0.10416674999999742,
          "durationTicks": 30,
          "midi": 70,
          "name": "A#4",
          "ticks": 11400,
          "time": 39.583365,
          "velocity": 0.23622047244094488
        },
        {
          "duration": 0.10416675000000453,
          "durationTicks": 30,
          "midi": 69,
          "name": "A4",
          "ticks": 11430,
          "time": 39.68753175,
          "velocity": 0.23622047244094488
        },
        {
          "duration": 0.10416674999999742,
          "durationTicks": 30,
          "midi": 67,
          "name": "G4",
          "ticks": 11460,
          "time": 39.7916985,
          "velocity": 0.23622047244094488
        },
        {
          "duration": 0.10416675000000453,
          "durationTicks": 30,
          "midi": 65,
          "name": "F4",
          "ticks": 11490,
          "time": 39.89586525,
          "velocity": 0.23622047244094488
        },
        {
          "duration": 0.10416674999999742,
          "durationTicks": 30,
          "midi": 62,
          "name": "D4",
          "ticks": 11520,
          "time": 40.000032000000004,
          "velocity": 0.23622047244094488
        },
        {
          "duration": 0.10416674999999742,
          "durationTicks": 30,
          "midi": 55,
          "name": "G3",
          "ticks": 11550,
          "time": 40.10419875,
          "velocity": 0.23622047244094488
        },
        {
          "duration": 0.10416675000000453,
          "durationTicks": 30,
          "midi": 65,
          "name": "F4",
          "ticks": 11580,
          "time": 40.2083655,
          "velocity": 0.23622047244094488
        },
        {
          "duration": 0.10416674999999742,
          "durationTicks": 30,
          "midi": 57,
          "name": "A3",
          "ticks": 11610,
          "time": 40.312532250000004,
          "velocity": 0.23622047244094488
        },
        {
          "duration": 0.10416674999999742,
          "durationTicks": 30,
          "midi": 67,
          "name": "G4",
          "ticks": 11640,
          "time": 40.416699,
          "velocity": 0.23622047244094488
        },
        {
          "duration": 0.10416675000000453,
          "durationTicks": 30,
          "midi": 58,
          "name": "A#3",
          "ticks": 11670,
          "time": 40.52086575,
          "velocity": 0.23622047244094488
        },
        {
          "duration": 0.10416674999999742,
          "durationTicks": 30,
          "midi": 69,
          "name": "A4",
          "ticks": 11700,
          "time": 40.6250325,
          "velocity": 0.23622047244094488
        },
        {
          "duration": 0.10416674999999742,
          "durationTicks": 30,
          "midi": 60,
          "name": "C4",
          "ticks": 11730,
          "time": 40.72919925,
          "velocity": 0.23622047244094488
        },
        {
          "duration": 0.4166670000000039,
          "durationTicks": 120,
          "midi": 70,
          "name": "A#4",
          "ticks": 11760,
          "time": 40.833366,
          "velocity": 0.23622047244094488
        },
        {
          "duration": 0.20833350000000195,
          "durationTicks": 60,
          "midi": 67,
          "name": "G4",
          "ticks": 11880,
          "time": 41.250033,
          "velocity": 0.23622047244094488
        },
        {
          "duration": 0.20833349999999484,
          "durationTicks": 60,
          "midi": 69,
          "name": "A4",
          "ticks": 11940,
          "time": 41.458366500000004,
          "velocity": 0.23622047244094488
        },
        {
          "duration": 0.20833350000000195,
          "durationTicks": 60,
          "midi": 74,
          "name": "D5",
          "ticks": 12000,
          "time": 41.6667,
          "velocity": 0.23622047244094488
        },
        {
          "duration": 0.20833350000000195,
          "durationTicks": 60,
          "midi": 67,
          "name": "G4",
          "ticks": 12060,
          "time": 41.8750335,
          "velocity": 0.23622047244094488
        },
        {
          "duration": 0.20833349999999484,
          "durationTicks": 60,
          "midi": 74,
          "name": "D5",
          "ticks": 12120,
          "time": 42.083367,
          "velocity": 0.23622047244094488
        },
        {
          "duration": 0.20833350000000195,
          "durationTicks": 60,
          "midi": 72,
          "name": "C5",
          "ticks": 12180,
          "time": 42.2917005,
          "velocity": 0.23622047244094488
        },
        {
          "duration": 0.20833350000000195,
          "durationTicks": 60,
          "midi": 70,
          "name": "A#4",
          "ticks": 12240,
          "time": 42.500034,
          "velocity": 0.23622047244094488
        },
        {
          "duration": 0.20833350000000195,
          "durationTicks": 60,
          "midi": 69,
          "name": "A4",
          "ticks": 12300,
          "time": 42.7083675,
          "velocity": 0.23622047244094488
        },
        {
          "duration": 0.20833349999999484,
          "durationTicks": 60,
          "midi": 62,
          "name": "D4",
          "ticks": 12360,
          "time": 42.916701,
          "velocity": 0.23622047244094488
        },
        {
          "duration": 0.20833350000000195,
          "durationTicks": 60,
          "midi": 65,
          "name": "F4",
          "ticks": 12420,
          "time": 43.1250345,
          "velocity": 0.23622047244094488
        },
        {
          "duration": 0.4166670000000039,
          "durationTicks": 120,
          "midi": 67,
          "name": "G4",
          "ticks": 12480,
          "time": 43.333368,
          "velocity": 0.23622047244094488
        },
        {
          "duration": 0.4166669999999968,
          "durationTicks": 120,
          "midi": 60,
          "name": "C4",
          "ticks": 12600,
          "time": 43.750035000000004,
          "velocity": 0.23622047244094488
        },
        {
          "duration": 0.31250024999999937,
          "durationTicks": 90,
          "midi": 69,
          "name": "A4",
          "ticks": 12720,
          "time": 44.166702,
          "velocity": 0.23622047244094488
        },
        {
          "duration": 0.31250024999999937,
          "durationTicks": 90,
          "midi": 66,
          "name": "F#4",
          "ticks": 12810,
          "time": 44.47920225,
          "velocity": 0.23622047244094488
        },
        {
          "duration": 0.20833350000000195,
          "durationTicks": 60,
          "midi": 62,
          "name": "D4",
          "ticks": 12900,
          "time": 44.7917025,
          "velocity": 0.23622047244094488
        },
        {
          "duration": 0.20833350000000195,
          "durationTicks": 60,
          "midi": 70,
          "name": "A#4",
          "ticks": 12960,
          "time": 45.000036,
          "velocity": 0.23622047244094488
        },
        {
          "duration": 0.20833349999999484,
          "durationTicks": 60,
          "midi": 62,
          "name": "D4",
          "ticks": 13020,
          "time": 45.2083695,
          "velocity": 0.23622047244094488
        },
        {
          "duration": 0.20833350000000195,
          "durationTicks": 60,
          "midi": 69,
          "name": "A4",
          "ticks": 13080,
          "time": 45.416703,
          "velocity": 0.23622047244094488
        },
        {
          "duration": 0.20833350000000195,
          "durationTicks": 60,
          "midi": 70,
          "name": "A#4",
          "ticks": 13140,
          "time": 45.6250365,
          "velocity": 0.23622047244094488
        },
        {
          "duration": 0.20833350000000195,
          "durationTicks": 60,
          "midi": 72,
          "name": "C5",
          "ticks": 13200,
          "time": 45.83337,
          "velocity": 0.23622047244094488
        },
        {
          "duration": 0.20833349999999484,
          "durationTicks": 60,
          "midi": 65,
          "name": "F4",
          "ticks": 13260,
          "time": 46.041703500000004,
          "velocity": 0.23622047244094488
        },
        {
          "duration": 0.10416675000000453,
          "durationTicks": 30,
          "midi": 77,
          "name": "F5",
          "ticks": 13320,
          "time": 46.250037,
          "velocity": 0.23622047244094488
        },
        {
          "duration": 0.10416674999999742,
          "durationTicks": 30,
          "midi": 72,
          "name": "C5",
          "ticks": 13350,
          "time": 46.35420375,
          "velocity": 0.23622047244094488
        },
        {
          "duration": 0.10416674999999742,
          "durationTicks": 30,
          "midi": 70,
          "name": "A#4",
          "ticks": 13380,
          "time": 46.4583705,
          "velocity": 0.23622047244094488
        },
        {
          "duration": 0.10416675000000453,
          "durationTicks": 30,
          "midi": 69,
          "name": "A4",
          "ticks": 13410,
          "time": 46.56253725,
          "velocity": 0.23622047244094488
        },
        {
          "duration": 0.10416674999999742,
          "durationTicks": 30,
          "midi": 62,
          "name": "D4",
          "ticks": 13440,
          "time": 46.666704,
          "velocity": 0.23622047244094488
        },
        {
          "duration": 0.10416674999999742,
          "durationTicks": 30,
          "midi": 55,
          "name": "G3",
          "ticks": 13470,
          "time": 46.77087075,
          "velocity": 0.23622047244094488
        },
        {
          "duration": 0.10416675000000453,
          "durationTicks": 30,
          "midi": 65,
          "name": "F4",
          "ticks": 13500,
          "time": 46.8750375,
          "velocity": 0.23622047244094488
        },
        {
          "duration": 0.10416674999999742,
          "durationTicks": 30,
          "midi": 57,
          "name": "A3",
          "ticks": 13530,
          "time": 46.97920425,
          "velocity": 0.23622047244094488
        },
        {
          "duration": 0.10416675000000453,
          "durationTicks": 30,
          "midi": 67,
          "name": "G4",
          "ticks": 13560,
          "time": 47.083371,
          "velocity": 0.23622047244094488
        },
        {
          "duration": 0.10416674999999742,
          "durationTicks": 30,
          "midi": 58,
          "name": "A#3",
          "ticks": 13590,
          "time": 47.187537750000004,
          "velocity": 0.23622047244094488
        },
        {
          "duration": 0.10416674999999742,
          "durationTicks": 30,
          "midi": 69,
          "name": "A4",
          "ticks": 13620,
          "time": 47.2917045,
          "velocity": 0.23622047244094488
        },
        {
          "duration": 0.10416675000000453,
          "durationTicks": 30,
          "midi": 60,
          "name": "C4",
          "ticks": 13650,
          "time": 47.39587125,
          "velocity": 0.23622047244094488
        },
        {
          "duration": 0.4166669999999968,
          "durationTicks": 120,
          "midi": 70,
          "name": "A#4",
          "ticks": 13680,
          "time": 47.500038,
          "velocity": 0.23622047244094488
        },
        {
          "duration": 0.20833350000000195,
          "durationTicks": 60,
          "midi": 67,
          "name": "G4",
          "ticks": 13800,
          "time": 47.916705,
          "velocity": 0.23622047244094488
        },
        {
          "duration": 0.20833350000000195,
          "durationTicks": 60,
          "midi": 69,
          "name": "A4",
          "ticks": 13860,
          "time": 48.1250385,
          "velocity": 0.23622047244094488
        },
        {
          "duration": 0.20833349999999484,
          "durationTicks": 60,
          "midi": 74,
          "name": "D5",
          "ticks": 13920,
          "time": 48.333372000000004,
          "velocity": 0.23622047244094488
        },
        {
          "duration": 0.20833350000000195,
          "durationTicks": 60,
          "midi": 67,
          "name": "G4",
          "ticks": 13980,
          "time": 48.5417055,
          "velocity": 0.23622047244094488
        },
        {
          "duration": 0.20833350000000195,
          "durationTicks": 60,
          "midi": 74,
          "name": "D5",
          "ticks": 14040,
          "time": 48.750039,
          "velocity": 0.23622047244094488
        },
        {
          "duration": 0.20833349999999484,
          "durationTicks": 60,
          "midi": 72,
          "name": "C5",
          "ticks": 14100,
          "time": 48.9583725,
          "velocity": 0.23622047244094488
        },
        {
          "duration": 0.20833350000000195,
          "durationTicks": 60,
          "midi": 70,
          "name": "A#4",
          "ticks": 14160,
          "time": 49.166706,
          "velocity": 0.23622047244094488
        },
        {
          "duration": 0.20833350000000195,
          "durationTicks": 60,
          "midi": 69,
          "name": "A4",
          "ticks": 14220,
          "time": 49.3750395,
          "velocity": 0.23622047244094488
        },
        {
          "duration": 0.20833350000000195,
          "durationTicks": 60,
          "midi": 62,
          "name": "D4",
          "ticks": 14280,
          "time": 49.583373,
          "velocity": 0.23622047244094488
        },
        {
          "duration": 0.20833349999999484,
          "durationTicks": 60,
          "midi": 65,
          "name": "F4",
          "ticks": 14340,
          "time": 49.791706500000004,
          "velocity": 0.23622047244094488
        },
        {
          "duration": 0.4166670000000039,
          "durationTicks": 120,
          "midi": 67,
          "name": "G4",
          "ticks": 14400,
          "time": 50.00004,
          "velocity": 0.23622047244094488
        },
        {
          "duration": 0.4166669999999968,
          "durationTicks": 120,
          "midi": 60,
          "name": "C4",
          "ticks": 14520,
          "time": 50.416707,
          "velocity": 0.23622047244094488
        },
        {
          "duration": 0.31250024999999937,
          "durationTicks": 90,
          "midi": 69,
          "name": "A4",
          "ticks": 14640,
          "time": 50.833374,
          "velocity": 0.23622047244094488
        },
        {
          "duration": 0.31250024999999937,
          "durationTicks": 90,
          "midi": 66,
          "name": "F#4",
          "ticks": 14730,
          "time": 51.14587425,
          "velocity": 0.23622047244094488
        },
        {
          "duration": 0.20833350000000195,
          "durationTicks": 60,
          "midi": 62,
          "name": "D4",
          "ticks": 14820,
          "time": 51.4583745,
          "velocity": 0.23622047244094488
        },
        {
          "duration": 0.20833350000000195,
          "durationTicks": 60,
          "midi": 70,
          "name": "A#4",
          "ticks": 14880,
          "time": 51.666708,
          "velocity": 0.23622047244094488
        },
        {
          "duration": 0.20833350000000195,
          "durationTicks": 60,
          "midi": 62,
          "name": "D4",
          "ticks": 14940,
          "time": 51.8750415,
          "velocity": 0.23622047244094488
        },
        {
          "duration": 0.20833349999999484,
          "durationTicks": 60,
          "midi": 69,
          "name": "A4",
          "ticks": 15000,
          "time": 52.083375000000004,
          "velocity": 0.23622047244094488
        },
        {
          "duration": 0.20833350000000195,
          "durationTicks": 60,
          "midi": 70,
          "name": "A#4",
          "ticks": 15060,
          "time": 52.2917085,
          "velocity": 0.23622047244094488
        },
        {
          "duration": 0.20833350000000195,
          "durationTicks": 60,
          "midi": 72,
          "name": "C5",
          "ticks": 15120,
          "time": 52.500042,
          "velocity": 0.23622047244094488
        },
        {
          "duration": 0.20833350000000195,
          "durationTicks": 60,
          "midi": 65,
          "name": "F4",
          "ticks": 15180,
          "time": 52.7083755,
          "velocity": 0.23622047244094488
        },
        {
          "duration": 0.10416674999999742,
          "durationTicks": 30,
          "midi": 77,
          "name": "F5",
          "ticks": 15240,
          "time": 52.916709000000004,
          "velocity": 0.23622047244094488
        },
        {
          "duration": 0.10416674999999742,
          "durationTicks": 30,
          "midi": 72,
          "name": "C5",
          "ticks": 15270,
          "time": 53.02087575,
          "velocity": 0.23622047244094488
        },
        {
          "duration": 0.10416675000000453,
          "durationTicks": 30,
          "midi": 70,
          "name": "A#4",
          "ticks": 15300,
          "time": 53.1250425,
          "velocity": 0.23622047244094488
        },
        {
          "duration": 0.10416674999999742,
          "durationTicks": 30,
          "midi": 69,
          "name": "A4",
          "ticks": 15330,
          "time": 53.229209250000004,
          "velocity": 0.23622047244094488
        },
        {
          "duration": 0.10416674999999742,
          "durationTicks": 30,
          "midi": 71,
          "name": "B4",
          "ticks": 15360,
          "time": 53.333376,
          "velocity": 0.23622047244094488
        },
        {
          "duration": 0.10416675000000453,
          "durationTicks": 30,
          "midi": 64,
          "name": "E4",
          "ticks": 15390,
          "time": 53.43754275,
          "velocity": 0.23622047244094488
        },
        {
          "duration": 0.10416674999999742,
          "durationTicks": 30,
          "midi": 74,
          "name": "D5",
          "ticks": 15420,
          "time": 53.5417095,
          "velocity": 0.23622047244094488
        },
        {
          "duration": 0.10416674999999742,
          "durationTicks": 30,
          "midi": 66,
          "name": "F#4",
          "ticks": 15450,
          "time": 53.64587625,
          "velocity": 0.23622047244094488
        },
        {
          "duration": 0.10416675000000453,
          "durationTicks": 30,
          "midi": 76,
          "name": "E5",
          "ticks": 15480,
          "time": 53.750043,
          "velocity": 0.23622047244094488
        },
        {
          "duration": 0.10416674999999742,
          "durationTicks": 30,
          "midi": 67,
          "name": "G4",
          "ticks": 15510,
          "time": 53.85420975,
          "velocity": 0.23622047244094488
        },
        {
          "duration": 0.10416675000000453,
          "durationTicks": 30,
          "midi": 78,
          "name": "F#5",
          "ticks": 15540,
          "time": 53.9583765,
          "velocity": 0.23622047244094488
        },
        {
          "duration": 0.10416674999999742,
          "durationTicks": 30,
          "midi": 69,
          "name": "A4",
          "ticks": 15570,
          "time": 54.062543250000004,
          "velocity": 0.23622047244094488
        },
        {
          "duration": 0.4166669999999968,
          "durationTicks": 120,
          "midi": 79,
          "name": "G5",
          "ticks": 15600,
          "time": 54.16671,
          "velocity": 0.23622047244094488
        },
        {
          "duration": 0.20833350000000195,
          "durationTicks": 60,
          "midi": 76,
          "name": "E5",
          "ticks": 15720,
          "time": 54.583377,
          "velocity": 0.23622047244094488
        },
        {
          "duration": 0.20833350000000195,
          "durationTicks": 60,
          "midi": 78,
          "name": "F#5",
          "ticks": 15780,
          "time": 54.7917105,
          "velocity": 0.23622047244094488
        },
        {
          "duration": 0.20833350000000195,
          "durationTicks": 60,
          "midi": 83,
          "name": "B5",
          "ticks": 15840,
          "time": 55.000044,
          "velocity": 0.23622047244094488
        },
        {
          "duration": 0.20833349999999484,
          "durationTicks": 60,
          "midi": 76,
          "name": "E5",
          "ticks": 15900,
          "time": 55.208377500000005,
          "velocity": 0.23622047244094488
        },
        {
          "duration": 0.20833350000000195,
          "durationTicks": 60,
          "midi": 83,
          "name": "B5",
          "ticks": 15960,
          "time": 55.416711,
          "velocity": 0.23622047244094488
        },
        {
          "duration": 0.20833350000000195,
          "durationTicks": 60,
          "midi": 81,
          "name": "A5",
          "ticks": 16020,
          "time": 55.6250445,
          "velocity": 0.23622047244094488
        },
        {
          "duration": 0.20833349999999484,
          "durationTicks": 60,
          "midi": 79,
          "name": "G5",
          "ticks": 16080,
          "time": 55.833378,
          "velocity": 0.23622047244094488
        },
        {
          "duration": 0.20833350000000195,
          "durationTicks": 60,
          "midi": 78,
          "name": "F#5",
          "ticks": 16140,
          "time": 56.0417115,
          "velocity": 0.23622047244094488
        },
        {
          "duration": 0.20833350000000195,
          "durationTicks": 60,
          "midi": 71,
          "name": "B4",
          "ticks": 16200,
          "time": 56.250045,
          "velocity": 0.23622047244094488
        },
        {
          "duration": 0.20833350000000195,
          "durationTicks": 60,
          "midi": 74,
          "name": "D5",
          "ticks": 16260,
          "time": 56.4583785,
          "velocity": 0.23622047244094488
        },
        {
          "duration": 0.4166669999999968,
          "durationTicks": 120,
          "midi": 76,
          "name": "E5",
          "ticks": 16320,
          "time": 56.666712000000004,
          "velocity": 0.23622047244094488
        },
        {
          "duration": 0.4166670000000039,
          "durationTicks": 120,
          "midi": 69,
          "name": "A4",
          "ticks": 16440,
          "time": 57.083379,
          "velocity": 0.23622047244094488
        },
        {
          "duration": 0.31250024999999937,
          "durationTicks": 90,
          "midi": 78,
          "name": "F#5",
          "ticks": 16560,
          "time": 57.500046000000005,
          "velocity": 0.23622047244094488
        },
        {
          "duration": 0.31250024999999937,
          "durationTicks": 90,
          "midi": 75,
          "name": "D#5",
          "ticks": 16650,
          "time": 57.812546250000004,
          "velocity": 0.23622047244094488
        },
        {
          "duration": 0.20833349999999484,
          "durationTicks": 60,
          "midi": 71,
          "name": "B4",
          "ticks": 16740,
          "time": 58.1250465,
          "velocity": 0.23622047244094488
        },
        {
          "duration": 0.20833350000000195,
          "durationTicks": 60,
          "midi": 79,
          "name": "G5",
          "ticks": 16800,
          "time": 58.33338,
          "velocity": 0.23622047244094488
        },
        {
          "duration": 0.20833350000000195,
          "durationTicks": 60,
          "midi": 71,
          "name": "B4",
          "ticks": 16860,
          "time": 58.5417135,
          "velocity": 0.23622047244094488
        },
        {
          "duration": 0.20833350000000195,
          "durationTicks": 60,
          "midi": 78,
          "name": "F#5",
          "ticks": 16920,
          "time": 58.750047,
          "velocity": 0.23622047244094488
        },
        {
          "duration": 0.20833349999999484,
          "durationTicks": 60,
          "midi": 79,
          "name": "G5",
          "ticks": 16980,
          "time": 58.958380500000004,
          "velocity": 0.23622047244094488
        },
        {
          "duration": 0.20833350000000195,
          "durationTicks": 60,
          "midi": 81,
          "name": "A5",
          "ticks": 17040,
          "time": 59.166714,
          "velocity": 0.23622047244094488
        },
        {
          "duration": 0.20833350000000195,
          "durationTicks": 60,
          "midi": 74,
          "name": "D5",
          "ticks": 17100,
          "time": 59.3750475,
          "velocity": 0.23622047244094488
        },
        {
          "duration": 0.10416674999999742,
          "durationTicks": 30,
          "midi": 86,
          "name": "D6",
          "ticks": 17160,
          "time": 59.583381,
          "velocity": 0.23622047244094488
        },
        {
          "duration": 0.10416675000000453,
          "durationTicks": 30,
          "midi": 81,
          "name": "A5",
          "ticks": 17190,
          "time": 59.68754775,
          "velocity": 0.23622047244094488
        },
        {
          "duration": 0.10416674999999742,
          "durationTicks": 30,
          "midi": 79,
          "name": "G5",
          "ticks": 17220,
          "time": 59.791714500000005,
          "velocity": 0.23622047244094488
        },
        {
          "duration": 0.10416674999999742,
          "durationTicks": 30,
          "midi": 78,
          "name": "F#5",
          "ticks": 17250,
          "time": 59.89588125,
          "velocity": 0.23622047244094488
        },
        {
          "duration": 0.10416675000000453,
          "durationTicks": 30,
          "midi": 71,
          "name": "B4",
          "ticks": 17280,
          "time": 60.000048,
          "velocity": 0.23622047244094488
        },
        {
          "duration": 0.10416674999999742,
          "durationTicks": 30,
          "midi": 64,
          "name": "E4",
          "ticks": 17310,
          "time": 60.104214750000004,
          "velocity": 0.23622047244094488
        },
        {
          "duration": 0.10416674999999742,
          "durationTicks": 30,
          "midi": 74,
          "name": "D5",
          "ticks": 17340,
          "time": 60.2083815,
          "velocity": 0.23622047244094488
        },
        {
          "duration": 0.10416675000000453,
          "durationTicks": 30,
          "midi": 66,
          "name": "F#4",
          "ticks": 17370,
          "time": 60.31254825,
          "velocity": 0.23622047244094488
        },
        {
          "duration": 0.10416674999999742,
          "durationTicks": 30,
          "midi": 76,
          "name": "E5",
          "ticks": 17400,
          "time": 60.416715,
          "velocity": 0.23622047244094488
        },
        {
          "duration": 0.10416674999999742,
          "durationTicks": 30,
          "midi": 67,
          "name": "G4",
          "ticks": 17430,
          "time": 60.52088175,
          "velocity": 0.23622047244094488
        },
        {
          "duration": 0.10416675000000453,
          "durationTicks": 30,
          "midi": 78,
          "name": "F#5",
          "ticks": 17460,
          "time": 60.6250485,
          "velocity": 0.23622047244094488
        },
        {
          "duration": 0.10416674999999742,
          "durationTicks": 30,
          "midi": 69,
          "name": "A4",
          "ticks": 17490,
          "time": 60.72921525,
          "velocity": 0.23622047244094488
        },
        {
          "duration": 0.4166670000000039,
          "durationTicks": 120,
          "midi": 79,
          "name": "G5",
          "ticks": 17520,
          "time": 60.833382,
          "velocity": 0.23622047244094488
        },
        {
          "duration": 0.20833349999999484,
          "durationTicks": 60,
          "midi": 76,
          "name": "E5",
          "ticks": 17640,
          "time": 61.250049000000004,
          "velocity": 0.23622047244094488
        },
        {
          "duration": 0.20833350000000195,
          "durationTicks": 60,
          "midi": 78,
          "name": "F#5",
          "ticks": 17700,
          "time": 61.4583825,
          "velocity": 0.23622047244094488
        },
        {
          "duration": 0.20833350000000195,
          "durationTicks": 60,
          "midi": 83,
          "name": "B5",
          "ticks": 17760,
          "time": 61.666716,
          "velocity": 0.23622047244094488
        },
        {
          "duration": 0.20833350000000195,
          "durationTicks": 60,
          "midi": 76,
          "name": "E5",
          "ticks": 17820,
          "time": 61.8750495,
          "velocity": 0.23622047244094488
        },
        {
          "duration": 0.20833349999999484,
          "durationTicks": 60,
          "midi": 83,
          "name": "B5",
          "ticks": 17880,
          "time": 62.083383000000005,
          "velocity": 0.23622047244094488
        },
        {
          "duration": 0.20833350000000195,
          "durationTicks": 60,
          "midi": 81,
          "name": "A5",
          "ticks": 17940,
          "time": 62.2917165,
          "velocity": 0.23622047244094488
        },
        {
          "duration": 0.20833350000000195,
          "durationTicks": 60,
          "midi": 79,
          "name": "G5",
          "ticks": 18000,
          "time": 62.50005,
          "velocity": 0.23622047244094488
        },
        {
          "duration": 0.20833349999999484,
          "durationTicks": 60,
          "midi": 78,
          "name": "F#5",
          "ticks": 18060,
          "time": 62.708383500000004,
          "velocity": 0.23622047244094488
        },
        {
          "duration": 0.20833350000000195,
          "durationTicks": 60,
          "midi": 71,
          "name": "B4",
          "ticks": 18120,
          "time": 62.916717,
          "velocity": 0.23622047244094488
        },
        {
          "duration": 0.20833350000000195,
          "durationTicks": 60,
          "midi": 74,
          "name": "D5",
          "ticks": 18180,
          "time": 63.1250505,
          "velocity": 0.23622047244094488
        },
        {
          "duration": 0.4166669999999968,
          "durationTicks": 120,
          "midi": 76,
          "name": "E5",
          "ticks": 18240,
          "time": 63.333384,
          "velocity": 0.23622047244094488
        },
        {
          "duration": 0.4166670000000039,
          "durationTicks": 120,
          "midi": 69,
          "name": "A4",
          "ticks": 18360,
          "time": 63.750051,
          "velocity": 0.23622047244094488
        },
        {
          "duration": 0.31250024999999937,
          "durationTicks": 90,
          "midi": 78,
          "name": "F#5",
          "ticks": 18480,
          "time": 64.166718,
          "velocity": 0.23622047244094488
        },
        {
          "duration": 0.31250024999999937,
          "durationTicks": 90,
          "midi": 75,
          "name": "D#5",
          "ticks": 18570,
          "time": 64.47921825,
          "velocity": 0.23622047244094488
        },
        {
          "duration": 0.20833349999999484,
          "durationTicks": 60,
          "midi": 71,
          "name": "B4",
          "ticks": 18660,
          "time": 64.7917185,
          "velocity": 0.23622047244094488
        },
        {
          "duration": 0.20833350000000905,
          "durationTicks": 60,
          "midi": 79,
          "name": "G5",
          "ticks": 18720,
          "time": 65.000052,
          "velocity": 0.23622047244094488
        },
        {
          "duration": 0.20833349999999484,
          "durationTicks": 60,
          "midi": 71,
          "name": "B4",
          "ticks": 18780,
          "time": 65.2083855,
          "velocity": 0.23622047244094488
        },
        {
          "duration": 0.20833349999999484,
          "durationTicks": 60,
          "midi": 78,
          "name": "F#5",
          "ticks": 18840,
          "time": 65.416719,
          "velocity": 0.23622047244094488
        },
        {
          "duration": 0.20833350000000905,
          "durationTicks": 60,
          "midi": 79,
          "name": "G5",
          "ticks": 18900,
          "time": 65.6250525,
          "velocity": 0.23622047244094488
        },
        {
          "duration": 0.20833349999999484,
          "durationTicks": 60,
          "midi": 81,
          "name": "A5",
          "ticks": 18960,
          "time": 65.833386,
          "velocity": 0.23622047244094488
        },
        {
          "duration": 0.20833350000000905,
          "durationTicks": 60,
          "midi": 74,
          "name": "D5",
          "ticks": 19020,
          "time": 66.0417195,
          "velocity": 0.23622047244094488
        },
        {
          "duration": 0.10416674999999032,
          "durationTicks": 30,
          "midi": 86,
          "name": "D6",
          "ticks": 19080,
          "time": 66.25005300000001,
          "velocity": 0.23622047244094488
        },
        {
          "duration": 0.10416675000000453,
          "durationTicks": 30,
          "midi": 81,
          "name": "A5",
          "ticks": 19110,
          "time": 66.35421975,
          "velocity": 0.23622047244094488
        },
        {
          "duration": 0.10416675000000453,
          "durationTicks": 30,
          "midi": 79,
          "name": "G5",
          "ticks": 19140,
          "time": 66.4583865,
          "velocity": 0.23622047244094488
        },
        {
          "duration": 0.10416674999999032,
          "durationTicks": 30,
          "midi": 78,
          "name": "F#5",
          "ticks": 19170,
          "time": 66.56255325000001,
          "velocity": 0.23622047244094488
        },
        {
          "duration": 0.10416675000000453,
          "durationTicks": 30,
          "midi": 71,
          "name": "B4",
          "ticks": 19200,
          "time": 66.66672,
          "velocity": 0.23622047244094488
        },
        {
          "duration": 0.10416675000000453,
          "durationTicks": 30,
          "midi": 64,
          "name": "E4",
          "ticks": 19230,
          "time": 66.77088675,
          "velocity": 0.23622047244094488
        },
        {
          "duration": 0.10416674999999032,
          "durationTicks": 30,
          "midi": 74,
          "name": "D5",
          "ticks": 19260,
          "time": 66.8750535,
          "velocity": 0.23622047244094488
        },
        {
          "duration": 0.10416675000000453,
          "durationTicks": 30,
          "midi": 66,
          "name": "F#4",
          "ticks": 19290,
          "time": 66.97922025,
          "velocity": 0.23622047244094488
        },
        {
          "duration": 0.10416675000000453,
          "durationTicks": 30,
          "midi": 76,
          "name": "E5",
          "ticks": 19320,
          "time": 67.083387,
          "velocity": 0.23622047244094488
        },
        {
          "duration": 0.10416674999999032,
          "durationTicks": 30,
          "midi": 67,
          "name": "G4",
          "ticks": 19350,
          "time": 67.18755375,
          "velocity": 0.23622047244094488
        },
        {
          "duration": 0.10416675000000453,
          "durationTicks": 30,
          "midi": 78,
          "name": "F#5",
          "ticks": 19380,
          "time": 67.2917205,
          "velocity": 0.23622047244094488
        },
        {
          "duration": 0.10416675000000453,
          "durationTicks": 30,
          "midi": 69,
          "name": "A4",
          "ticks": 19410,
          "time": 67.39588725,
          "velocity": 0.23622047244094488
        },
        {
          "duration": 0.4166669999999897,
          "durationTicks": 120,
          "midi": 79,
          "name": "G5",
          "ticks": 19440,
          "time": 67.500054,
          "velocity": 0.23622047244094488
        },
        {
          "duration": 0.20833350000000905,
          "durationTicks": 60,
          "midi": 76,
          "name": "E5",
          "ticks": 19560,
          "time": 67.916721,
          "velocity": 0.23622047244094488
        },
        {
          "duration": 0.20833349999999484,
          "durationTicks": 60,
          "midi": 78,
          "name": "F#5",
          "ticks": 19620,
          "time": 68.1250545,
          "velocity": 0.23622047244094488
        },
        {
          "duration": 0.31250024999999937,
          "durationTicks": 90,
          "midi": 76,
          "name": "E5",
          "ticks": 19680,
          "time": 68.333388,
          "velocity": 0.23622047244094488
        },
        {
          "duration": 0.31250024999999937,
          "durationTicks": 90,
          "midi": 83,
          "name": "B5",
          "ticks": 19770,
          "time": 68.64588825,
          "velocity": 0.23622047244094488
        },
        {
          "duration": 0.10416675000000453,
          "durationTicks": 30,
          "midi": 81,
          "name": "A5",
          "ticks": 19860,
          "time": 68.9583885,
          "velocity": 0.23622047244094488
        },
        {
          "duration": 0.10416675000000453,
          "durationTicks": 30,
          "midi": 79,
          "name": "G5",
          "ticks": 19890,
          "time": 69.06255525,
          "velocity": 0.23622047244094488
        },
        {
          "duration": 0.10416674999999032,
          "durationTicks": 30,
          "midi": 78,
          "name": "F#5",
          "ticks": 19920,
          "time": 69.16672200000001,
          "velocity": 0.23622047244094488
        },
        {
          "duration": 0.10416675000000453,
          "durationTicks": 30,
          "midi": 74,
          "name": "D5",
          "ticks": 19950,
          "time": 69.27088875,
          "velocity": 0.23622047244094488
        },
        {
          "duration": 0.10416675000000453,
          "durationTicks": 30,
          "midi": 76,
          "name": "E5",
          "ticks": 19980,
          "time": 69.3750555,
          "velocity": 0.23622047244094488
        },
        {
          "duration": 0.10416674999999032,
          "durationTicks": 30,
          "midi": 71,
          "name": "B4",
          "ticks": 20010,
          "time": 69.47922225,
          "velocity": 0.23622047244094488
        },
        {
          "duration": 0.10416675000000453,
          "durationTicks": 30,
          "midi": 74,
          "name": "D5",
          "ticks": 20040,
          "time": 69.583389,
          "velocity": 0.23622047244094488
        },
        {
          "duration": 0.10416675000000453,
          "durationTicks": 30,
          "midi": 69,
          "name": "A4",
          "ticks": 20070,
          "time": 69.68755575,
          "velocity": 0.23622047244094488
        },
        {
          "duration": 0.10416674999999032,
          "durationTicks": 30,
          "midi": 71,
          "name": "B4",
          "ticks": 20100,
          "time": 69.7917225,
          "velocity": 0.23622047244094488
        },
        {
          "duration": 0.10416675000000453,
          "durationTicks": 30,
          "midi": 67,
          "name": "G4",
          "ticks": 20130,
          "time": 69.89588925,
          "velocity": 0.23622047244094488
        },
        {
          "duration": 0.10416675000000453,
          "durationTicks": 30,
          "midi": 69,
          "name": "A4",
          "ticks": 20160,
          "time": 70.000056,
          "velocity": 0.23622047244094488
        },
        {
          "duration": 0.10416674999999032,
          "durationTicks": 30,
          "midi": 76,
          "name": "E5",
          "ticks": 20190,
          "time": 70.10422275,
          "velocity": 0.23622047244094488
        },
        {
          "duration": 0.10416675000000453,
          "durationTicks": 30,
          "midi": 72,
          "name": "C5",
          "ticks": 20220,
          "time": 70.2083895,
          "velocity": 0.23622047244094488
        },
        {
          "duration": 0.10416675000000453,
          "durationTicks": 30,
          "midi": 76,
          "name": "E5",
          "ticks": 20250,
          "time": 70.31255625,
          "velocity": 0.23622047244094488
        },
        {
          "duration": 0.10416674999999032,
          "durationTicks": 30,
          "midi": 81,
          "name": "A5",
          "ticks": 20280,
          "time": 70.416723,
          "velocity": 0.23622047244094488
        },
        {
          "duration": 0.10416675000000453,
          "durationTicks": 30,
          "midi": 86,
          "name": "D6",
          "ticks": 20310,
          "time": 70.52088975,
          "velocity": 0.23622047244094488
        },
        {
          "duration": 0.10416675000000453,
          "durationTicks": 30,
          "midi": 88,
          "name": "E6",
          "ticks": 20340,
          "time": 70.6250565,
          "velocity": 0.23622047244094488
        },
        {
          "duration": 0.10416675000000453,
          "durationTicks": 30,
          "midi": 86,
          "name": "D6",
          "ticks": 20370,
          "time": 70.72922325,
          "velocity": 0.23622047244094488
        },
        {
          "duration": 0.05208337499999516,
          "durationTicks": 15,
          "midi": 87,
          "name": "D#6",
          "ticks": 20400,
          "time": 70.83339000000001,
          "velocity": 0.23622047244094488
        },
        {
          "duration": 0.05208337499999516,
          "durationTicks": 15,
          "midi": 84,
          "name": "C6",
          "ticks": 20415,
          "time": 70.885473375,
          "velocity": 0.23622047244094488
        },
        {
          "duration": 0.10416675000000453,
          "durationTicks": 30,
          "midi": 83,
          "name": "B5",
          "ticks": 20430,
          "time": 70.93755675,
          "velocity": 0.23622047244094488
        },
        {
          "duration": 0.10416675000000453,
          "durationTicks": 30,
          "midi": 76,
          "name": "E5",
          "ticks": 20460,
          "time": 71.0417235,
          "velocity": 0.23622047244094488
        },
        {
          "duration": 0.10416674999999032,
          "durationTicks": 30,
          "midi": 75,
          "name": "D#5",
          "ticks": 20490,
          "time": 71.14589025000001,
          "velocity": 0.23622047244094488
        },
        {
          "duration": 0.10416675000000453,
          "durationTicks": 30,
          "midi": 72,
          "name": "C5",
          "ticks": 20520,
          "time": 71.250057,
          "velocity": 0.23622047244094488
        },
        {
          "duration": 0.10416675000000453,
          "durationTicks": 30,
          "midi": 75,
          "name": "D#5",
          "ticks": 20550,
          "time": 71.35422375,
          "velocity": 0.23622047244094488
        },
        {
          "duration": 0.10416674999999032,
          "durationTicks": 30,
          "midi": 71,
          "name": "B4",
          "ticks": 20580,
          "time": 71.45839050000001,
          "velocity": 0.23622047244094488
        },
        {
          "duration": 0.10416675000000453,
          "durationTicks": 30,
          "midi": 69,
          "name": "A4",
          "ticks": 20610,
          "time": 71.56255725,
          "velocity": 0.23622047244094488
        },
        {
          "duration": 0.10416675000000453,
          "durationTicks": 30,
          "midi": 64,
          "name": "E4",
          "ticks": 20640,
          "time": 71.666724,
          "velocity": 0.23622047244094488
        },
        {
          "duration": 0.10416674999999032,
          "durationTicks": 30,
          "midi": 66,
          "name": "F#4",
          "ticks": 20670,
          "time": 71.77089075,
          "velocity": 0.23622047244094488
        },
        {
          "duration": 0.10416675000000453,
          "durationTicks": 30,
          "midi": 67,
          "name": "G4",
          "ticks": 20700,
          "time": 71.8750575,
          "velocity": 0.23622047244094488
        },
        {
          "duration": 0.10416675000000453,
          "durationTicks": 30,
          "midi": 72,
          "name": "C5",
          "ticks": 20730,
          "time": 71.97922425,
          "velocity": 0.23622047244094488
        },
        {
          "duration": 0.10416674999999032,
          "durationTicks": 30,
          "midi": 74,
          "name": "D5",
          "ticks": 20760,
          "time": 72.083391,
          "velocity": 0.23622047244094488
        },
        {
          "duration": 0.10416675000000453,
          "durationTicks": 30,
          "midi": 76,
          "name": "E5",
          "ticks": 20790,
          "time": 72.18755775,
          "velocity": 0.23622047244094488
        },
        {
          "duration": 0.10416675000000453,
          "durationTicks": 30,
          "midi": 79,
          "name": "G5",
          "ticks": 20820,
          "time": 72.2917245,
          "velocity": 0.23622047244094488
        },
        {
          "duration": 0.10416674999999032,
          "durationTicks": 30,
          "midi": 84,
          "name": "C6",
          "ticks": 20850,
          "time": 72.39589125,
          "velocity": 0.23622047244094488
        },
        {
          "duration": 0.10416675000000453,
          "durationTicks": 30,
          "midi": 81,
          "name": "A5",
          "ticks": 20880,
          "time": 72.500058,
          "velocity": 0.23622047244094488
        },
        {
          "duration": 0.10416675000000453,
          "durationTicks": 30,
          "midi": 79,
          "name": "G5",
          "ticks": 20910,
          "time": 72.60422475,
          "velocity": 0.23622047244094488
        },
        {
          "duration": 0.10416674999999032,
          "durationTicks": 30,
          "midi": 78,
          "name": "F#5",
          "ticks": 20940,
          "time": 72.7083915,
          "velocity": 0.23622047244094488
        },
        {
          "duration": 0.10416675000000453,
          "durationTicks": 30,
          "midi": 74,
          "name": "D5",
          "ticks": 20970,
          "time": 72.81255825,
          "velocity": 0.23622047244094488
        },
        {
          "duration": 0.10416675000000453,
          "durationTicks": 30,
          "midi": 69,
          "name": "A4",
          "ticks": 21000,
          "time": 72.916725,
          "velocity": 0.23622047244094488
        },
        {
          "duration": 0.10416675000000453,
          "durationTicks": 30,
          "midi": 67,
          "name": "G4",
          "ticks": 21030,
          "time": 73.02089175,
          "velocity": 0.23622047244094488
        },
        {
          "duration": 0.10416674999999032,
          "durationTicks": 30,
          "midi": 66,
          "name": "F#4",
          "ticks": 21060,
          "time": 73.12505850000001,
          "velocity": 0.23622047244094488
        },
        {
          "duration": 0.10416675000000453,
          "durationTicks": 30,
          "midi": 74,
          "name": "D5",
          "ticks": 21090,
          "time": 73.22922525,
          "velocity": 0.23622047244094488
        },
        {
          "duration": 0.10416675000000453,
          "durationTicks": 30,
          "midi": 83,
          "name": "B5",
          "ticks": 21120,
          "time": 73.333392,
          "velocity": 0.23622047244094488
        },
        {
          "duration": 0.10416674999999032,
          "durationTicks": 30,
          "midi": 76,
          "name": "E5",
          "ticks": 21150,
          "time": 73.43755875000001,
          "velocity": 0.23622047244094488
        },
        {
          "duration": 0.10416675000000453,
          "durationTicks": 30,
          "midi": 86,
          "name": "D6",
          "ticks": 21180,
          "time": 73.5417255,
          "velocity": 0.23622047244094488
        },
        {
          "duration": 0.10416675000000453,
          "durationTicks": 30,
          "midi": 78,
          "name": "F#5",
          "ticks": 21210,
          "time": 73.64589225,
          "velocity": 0.23622047244094488
        },
        {
          "duration": 0.10416674999999032,
          "durationTicks": 30,
          "midi": 88,
          "name": "E6",
          "ticks": 21240,
          "time": 73.75005900000001,
          "velocity": 0.23622047244094488
        },
        {
          "duration": 0.10416675000000453,
          "durationTicks": 30,
          "midi": 79,
          "name": "G5",
          "ticks": 21270,
          "time": 73.85422575,
          "velocity": 0.23622047244094488
        },
        {
          "duration": 0.10416675000000453,
          "durationTicks": 30,
          "midi": 90,
          "name": "F#6",
          "ticks": 21300,
          "time": 73.9583925,
          "velocity": 0.23622047244094488
        },
        {
          "duration": 0.10416674999999032,
          "durationTicks": 30,
          "midi": 81,
          "name": "A5",
          "ticks": 21330,
          "time": 74.06255925,
          "velocity": 0.23622047244094488
        },
        {
          "duration": 0.4166670000000039,
          "durationTicks": 120,
          "midi": 91,
          "name": "G6",
          "ticks": 21360,
          "time": 74.166726,
          "velocity": 0.23622047244094488
        },
        {
          "duration": 0.20833349999999484,
          "durationTicks": 60,
          "midi": 88,
          "name": "E6",
          "ticks": 21480,
          "time": 74.583393,
          "velocity": 0.23622047244094488
        },
        {
          "duration": 0.20833350000000905,
          "durationTicks": 60,
          "midi": 90,
          "name": "F#6",
          "ticks": 21540,
          "time": 74.7917265,
          "velocity": 0.23622047244094488
        },
        {
          "duration": 0.10416674999999032,
          "durationTicks": 30,
          "midi": 88,
          "name": "E6",
          "ticks": 21600,
          "time": 75.00006,
          "velocity": 0.23622047244094488
        },
        {
          "duration": 0.10416675000000453,
          "durationTicks": 30,
          "midi": 90,
          "name": "F#6",
          "ticks": 21630,
          "time": 75.10422675,
          "velocity": 0.23622047244094488
        },
        {
          "duration": 0.10416675000000453,
          "durationTicks": 30,
          "midi": 91,
          "name": "G6",
          "ticks": 21660,
          "time": 75.2083935,
          "velocity": 0.23622047244094488
        },
        {
          "duration": 0.10416675000000453,
          "durationTicks": 30,
          "midi": 83,
          "name": "B5",
          "ticks": 21690,
          "time": 75.31256025,
          "velocity": 0.23622047244094488
        },
        {
          "duration": 0.20833349999999484,
          "durationTicks": 60,
          "midi": 86,
          "name": "D6",
          "ticks": 21720,
          "time": 75.41672700000001,
          "velocity": 0.23622047244094488
        },
        {
          "duration": 0.20833349999999484,
          "durationTicks": 60,
          "midi": 81,
          "name": "A5",
          "ticks": 21780,
          "time": 75.6250605,
          "velocity": 0.23622047244094488
        },
        {
          "duration": 0.20833350000000905,
          "durationTicks": 60,
          "midi": 83,
          "name": "B5",
          "ticks": 21840,
          "time": 75.833394,
          "velocity": 0.23622047244094488
        },
        {
          "duration": 0.20833349999999484,
          "durationTicks": 60,
          "midi": 88,
          "name": "E6",
          "ticks": 21900,
          "time": 76.04172750000001,
          "velocity": 0.23622047244094488
        },
        {
          "duration": 0.10416675000000453,
          "durationTicks": 30,
          "midi": 81,
          "name": "A5",
          "ticks": 21960,
          "time": 76.250061,
          "velocity": 0.23622047244094488
        },
        {
          "duration": 0.10416674999999032,
          "durationTicks": 30,
          "midi": 83,
          "name": "B5",
          "ticks": 21990,
          "time": 76.35422775,
          "velocity": 0.23622047244094488
        },
        {
          "duration": 0.20833350000000905,
          "durationTicks": 60,
          "midi": 90,
          "name": "F#6",
          "ticks": 22020,
          "time": 76.4583945,
          "velocity": 0.23622047244094488
        },
        {
          "duration": 0.10416674999999032,
          "durationTicks": 30,
          "midi": 91,
          "name": "G6",
          "ticks": 22080,
          "time": 76.666728,
          "velocity": 0.23622047244094488
        },
        {
          "duration": 0.10416675000000453,
          "durationTicks": 30,
          "midi": 88,
          "name": "E6",
          "ticks": 22110,
          "time": 76.77089475,
          "velocity": 0.23622047244094488
        },
        {
          "duration": 0.10416675000000453,
          "durationTicks": 30,
          "midi": 83,
          "name": "B5",
          "ticks": 22140,
          "time": 76.8750615,
          "velocity": 0.23622047244094488
        },
        {
          "duration": 0.10416674999999032,
          "durationTicks": 30,
          "midi": 90,
          "name": "F#6",
          "ticks": 22170,
          "time": 76.97922825,
          "velocity": 0.23622047244094488
        },
        {
          "duration": 0.10416675000000453,
          "durationTicks": 30,
          "midi": 86,
          "name": "D6",
          "ticks": 22200,
          "time": 77.083395,
          "velocity": 0.23622047244094488
        },
        {
          "duration": 0.10416675000000453,
          "durationTicks": 30,
          "midi": 81,
          "name": "A5",
          "ticks": 22230,
          "time": 77.18756175,
          "velocity": 0.23622047244094488
        },
        {
          "duration": 0.10416674999999032,
          "durationTicks": 30,
          "midi": 88,
          "name": "E6",
          "ticks": 22260,
          "time": 77.2917285,
          "velocity": 0.23622047244094488
        },
        {
          "duration": 0.10416675000000453,
          "durationTicks": 30,
          "midi": 81,
          "name": "A5",
          "ticks": 22290,
          "time": 77.39589525,
          "velocity": 0.23622047244094488
        },
        {
          "duration": 0.10416675000000453,
          "durationTicks": 30,
          "midi": 83,
          "name": "B5",
          "ticks": 22320,
          "time": 77.500062,
          "velocity": 0.23622047244094488
        },
        {
          "duration": 0.10416675000000453,
          "durationTicks": 30,
          "midi": 79,
          "name": "G5",
          "ticks": 22350,
          "time": 77.60422875,
          "velocity": 0.23622047244094488
        },
        {
          "duration": 0.10416674999999032,
          "durationTicks": 30,
          "midi": 81,
          "name": "A5",
          "ticks": 22380,
          "time": 77.70839550000001,
          "velocity": 0.23622047244094488
        },
        {
          "duration": 0.10416675000000453,
          "durationTicks": 30,
          "midi": 83,
          "name": "B5",
          "ticks": 22410,
          "time": 77.81256225,
          "velocity": 0.23622047244094488
        },
        {
          "duration": 0.10416675000000453,
          "durationTicks": 30,
          "midi": 86,
          "name": "D6",
          "ticks": 22440,
          "time": 77.916729,
          "velocity": 0.23622047244094488
        },
        {
          "duration": 0.10416674999999032,
          "durationTicks": 30,
          "midi": 78,
          "name": "F#5",
          "ticks": 22470,
          "time": 78.02089575000001,
          "velocity": 0.23622047244094488
        },
        {
          "duration": 0.10416675000000453,
          "durationTicks": 30,
          "midi": 79,
          "name": "G5",
          "ticks": 22500,
          "time": 78.1250625,
          "velocity": 0.23622047244094488
        },
        {
          "duration": 0.10416675000000453,
          "durationTicks": 30,
          "midi": 88,
          "name": "E6",
          "ticks": 22530,
          "time": 78.22922925,
          "velocity": 0.23622047244094488
        },
        {
          "duration": 0.10416674999999032,
          "durationTicks": 30,
          "midi": 76,
          "name": "E5",
          "ticks": 22560,
          "time": 78.33339600000001,
          "velocity": 0.23622047244094488
        },
        {
          "duration": 0.10416675000000453,
          "durationTicks": 30,
          "midi": 79,
          "name": "G5",
          "ticks": 22590,
          "time": 78.43756275,
          "velocity": 0.23622047244094488
        },
        {
          "duration": 0.10416675000000453,
          "durationTicks": 30,
          "midi": 86,
          "name": "D6",
          "ticks": 22620,
          "time": 78.5417295,
          "velocity": 0.23622047244094488
        },
        {
          "duration": 0.10416674999999032,
          "durationTicks": 30,
          "midi": 78,
          "name": "F#5",
          "ticks": 22650,
          "time": 78.64589625,
          "velocity": 0.23622047244094488
        },
        {
          "duration": 0.10416675000000453,
          "durationTicks": 30,
          "midi": 79,
          "name": "G5",
          "ticks": 22680,
          "time": 78.750063,
          "velocity": 0.23622047244094488
        },
        {
          "duration": 0.10416675000000453,
          "durationTicks": 30,
          "midi": 76,
          "name": "E5",
          "ticks": 22710,
          "time": 78.85422975,
          "velocity": 0.23622047244094488
        },
        {
          "duration": 0.10416674999999032,
          "durationTicks": 30,
          "midi": 78,
          "name": "F#5",
          "ticks": 22740,
          "time": 78.9583965,
          "velocity": 0.23622047244094488
        },
        {
          "duration": 0.10416675000000453,
          "durationTicks": 30,
          "midi": 74,
          "name": "D5",
          "ticks": 22770,
          "time": 79.06256325,
          "velocity": 0.23622047244094488
        },
        {
          "duration": 0.10416675000000453,
          "durationTicks": 30,
          "midi": 71,
          "name": "B4",
          "ticks": 22800,
          "time": 79.16673,
          "velocity": 0.23622047244094488
        },
        {
          "duration": 0.10416674999999032,
          "durationTicks": 30,
          "midi": 76,
          "name": "E5",
          "ticks": 22830,
          "time": 79.27089675,
          "velocity": 0.23622047244094488
        },
        {
          "duration": 0.10416675000000453,
          "durationTicks": 30,
          "midi": 67,
          "name": "G4",
          "ticks": 22860,
          "time": 79.3750635,
          "velocity": 0.23622047244094488
        },
        {
          "duration": 0.10416675000000453,
          "durationTicks": 30,
          "midi": 69,
          "name": "A4",
          "ticks": 22890,
          "time": 79.47923025,
          "velocity": 0.23622047244094488
        },
        {
          "duration": 0.10416674999999032,
          "durationTicks": 30,
          "midi": 71,
          "name": "B4",
          "ticks": 22920,
          "time": 79.583397,
          "velocity": 0.23622047244094488
        },
        {
          "duration": 0.10416675000000453,
          "durationTicks": 30,
          "midi": 64,
          "name": "E4",
          "ticks": 22950,
          "time": 79.68756375,
          "velocity": 0.23622047244094488
        },
        {
          "duration": 0.10416675000000453,
          "durationTicks": 30,
          "midi": 67,
          "name": "G4",
          "ticks": 22980,
          "time": 79.7917305,
          "velocity": 0.23622047244094488
        },
        {
          "duration": 0.10416675000000453,
          "durationTicks": 30,
          "midi": 69,
          "name": "A4",
          "ticks": 23010,
          "time": 79.89589725,
          "velocity": 0.23622047244094488
        },
        {
          "duration": 1.6666679999999872,
          "durationTicks": 480,
          "midi": 67,
          "name": "G4",
          "ticks": 23040,
          "time": 80.00006400000001,
          "velocity": 0.23622047244094488
        }
      ],
      "endOfTrackTicks": 23520
    }
  ]
}
