{
  "header": {
    "keySignatures": [],
    "meta": [],
    "name": "",
    "ppq": 384,
    "tempos": [
      {
        "bpm": 190.0002850004275,
        "ticks": 0
      }
    ],
    "timeSignatures": [
      {
        "ticks": 0,
        "timeSignature": [
          1,
          4
        ],
        "measures": 0
      }
    ]
  },
  "tracks": [
    {
      "channel": 0,
      "controlChanges": {},
      "pitchBends": [],
      "instrument": {
        "family": "piano",
        "number": 0,
        "name": "acoustic grand piano"
      },
      "name": "Elec. Piano (Classic)",
      "notes": [
        {
          "duration": 2.3684175,
          "durationTicks": 2880,
          "midi": 49,
          "name": "C#3",
          "ticks": 0,
          "time": 0,
          "velocity": 0.3937007874015748
        },
        {
          "duration": 0.23684175,
          "durationTicks": 288,
          "midi": 68,
          "name": "G#4",
          "ticks": 0,
          "time": 0,
          "velocity": 0.3937007874015748
        },
        {
          "duration": 2.3684175,
          "durationTicks": 2880,
          "midi": 46,
          "name": "A#2",
          "ticks": 0,
          "time": 0,
          "velocity": 0.3937007874015748
        },
        {
          "duration": 0.1578945,
          "durationTicks": 192,
          "midi": 68,
          "name": "G#4",
          "ticks": 384,
          "time": 0.315789,
          "velocity": 0.3937007874015748
        },
        {
          "duration": 0.1578945,
          "durationTicks": 192,
          "midi": 70,
          "name": "A#4",
          "ticks": 576,
          "time": 0.4736835,
          "velocity": 0.3937007874015748
        },
        {
          "duration": 0.15789450000000005,
          "durationTicks": 192,
          "midi": 72,
          "name": "C5",
          "ticks": 768,
          "time": 0.631578,
          "velocity": 0.3937007874015748
        },
        {
          "duration": 0.15789449999999994,
          "durationTicks": 192,
          "midi": 68,
          "name": "G#4",
          "ticks": 1152,
          "time": 0.947367,
          "velocity": 0.3937007874015748
        },
        {
          "duration": 0.23684174999999996,
          "durationTicks": 288,
          "midi": 70,
          "name": "A#4",
          "ticks": 1536,
          "time": 1.263156,
          "velocity": 0.3937007874015748
        },
        {
          "duration": 0.15789449999999983,
          "durationTicks": 192,
          "midi": 70,
          "name": "A#4",
          "ticks": 1920,
          "time": 1.578945,
          "velocity": 0.3937007874015748
        },
        {
          "duration": 0.15789450000000005,
          "durationTicks": 192,
          "midi": 72,
          "name": "C5",
          "ticks": 2112,
          "time": 1.7368394999999999,
          "velocity": 0.3937007874015748
        },
        {
          "duration": 0.15789450000000005,
          "durationTicks": 192,
          "midi": 67,
          "name": "G4",
          "ticks": 2304,
          "time": 1.894734,
          "velocity": 0.3937007874015748
        },
        {
          "duration": 0.15789450000000027,
          "durationTicks": 192,
          "midi": 63,
          "name": "D#4",
          "ticks": 2688,
          "time": 2.210523,
          "velocity": 0.3937007874015748
        },
        {
          "duration": 1.1842087499999998,
          "durationTicks": 1440,
          "midi": 48,
          "name": "C3",
          "ticks": 3072,
          "time": 2.526312,
          "velocity": 0.3937007874015748
        },
        {
          "duration": 0.23684174999999996,
          "durationTicks": 288,
          "midi": 68,
          "name": "G#4",
          "ticks": 3072,
          "time": 2.526312,
          "velocity": 0.3937007874015748
        },
        {
          "duration": 1.1842087499999998,
          "durationTicks": 1440,
          "midi": 51,
          "name": "D#3",
          "ticks": 3072,
          "time": 2.526312,
          "velocity": 0.3937007874015748
        },
        {
          "duration": 0.15789449999999983,
          "durationTicks": 192,
          "midi": 68,
          "name": "G#4",
          "ticks": 3456,
          "time": 2.842101,
          "velocity": 0.3937007874015748
        },
        {
          "duration": 0.15789450000000027,
          "durationTicks": 192,
          "midi": 70,
          "name": "A#4",
          "ticks": 3648,
          "time": 2.9999955,
          "velocity": 0.3937007874015748
        },
        {
          "duration": 0.15789449999999983,
          "durationTicks": 192,
          "midi": 72,
          "name": "C5",
          "ticks": 3840,
          "time": 3.15789,
          "velocity": 0.3937007874015748
        },
        {
          "duration": 0.15789450000000027,
          "durationTicks": 192,
          "midi": 80,
          "name": "G#5",
          "ticks": 4224,
          "time": 3.4736789999999997,
          "velocity": 0.3937007874015748
        },
        {
          "duration": 0.2368417500000004,
          "durationTicks": 288,
          "midi": 79,
          "name": "G5",
          "ticks": 4608,
          "time": 3.789468,
          "velocity": 0.3937007874015748
        },
        {
          "duration": 1.1842087500000003,
          "durationTicks": 1440,
          "midi": 55,
          "name": "G3",
          "ticks": 4608,
          "time": 3.789468,
          "velocity": 0.3937007874015748
        },
        {
          "duration": 0.15789450000000027,
          "durationTicks": 192,
          "midi": 75,
          "name": "D#5",
          "ticks": 4992,
          "time": 4.105257,
          "velocity": 0.3937007874015748
        },
        {
          "duration": 0.31578900000000054,
          "durationTicks": 384,
          "midi": 70,
          "name": "A#4",
          "ticks": 5376,
          "time": 4.421046,
          "velocity": 0.3937007874015748
        },
        {
          "duration": 0.31578899999999965,
          "durationTicks": 384,
          "midi": 67,
          "name": "G4",
          "ticks": 5760,
          "time": 4.736835,
          "velocity": 0.3937007874015748
        },
        {
          "duration": 2.3684174999999996,
          "durationTicks": 2880,
          "midi": 46,
          "name": "A#2",
          "ticks": 6144,
          "time": 5.052624,
          "velocity": 0.3937007874015748
        },
        {
          "duration": 2.3684174999999996,
          "durationTicks": 2880,
          "midi": 49,
          "name": "C#3",
          "ticks": 6144,
          "time": 5.052624,
          "velocity": 0.3937007874015748
        },
        {
          "duration": 0.23684174999999996,
          "durationTicks": 288,
          "midi": 68,
          "name": "G#4",
          "ticks": 6144,
          "time": 5.052624,
          "velocity": 0.3937007874015748
        },
        {
          "duration": 0.15789450000000027,
          "durationTicks": 192,
          "midi": 68,
          "name": "G#4",
          "ticks": 6528,
          "time": 5.368412999999999,
          "velocity": 0.3937007874015748
        },
        {
          "duration": 0.15789450000000027,
          "durationTicks": 192,
          "midi": 70,
          "name": "A#4",
          "ticks": 6720,
          "time": 5.5263075,
          "velocity": 0.3937007874015748
        },
        {
          "duration": 0.15789449999999938,
          "durationTicks": 192,
          "midi": 72,
          "name": "C5",
          "ticks": 6912,
          "time": 5.684202,
          "velocity": 0.3937007874015748
        },
        {
          "duration": 0.15789450000000027,
          "durationTicks": 192,
          "midi": 68,
          "name": "G#4",
          "ticks": 7296,
          "time": 5.999991,
          "velocity": 0.3937007874015748
        },
        {
          "duration": 0.23684174999999996,
          "durationTicks": 288,
          "midi": 70,
          "name": "A#4",
          "ticks": 7680,
          "time": 6.31578,
          "velocity": 0.3937007874015748
        },
        {
          "duration": 0.15789450000000027,
          "durationTicks": 192,
          "midi": 70,
          "name": "A#4",
          "ticks": 8064,
          "time": 6.631569,
          "velocity": 0.3937007874015748
        },
        {
          "duration": 0.15789449999999938,
          "durationTicks": 192,
          "midi": 72,
          "name": "C5",
          "ticks": 8256,
          "time": 6.7894635,
          "velocity": 0.3937007874015748
        },
        {
          "duration": 0.15789450000000027,
          "durationTicks": 192,
          "midi": 67,
          "name": "G4",
          "ticks": 8448,
          "time": 6.9473579999999995,
          "velocity": 0.3937007874015748
        },
        {
          "duration": 0.15789449999999938,
          "durationTicks": 192,
          "midi": 63,
          "name": "D#4",
          "ticks": 8832,
          "time": 7.263147,
          "velocity": 0.3937007874015748
        },
        {
          "duration": 0.15789450000000027,
          "durationTicks": 192,
          "midi": 69,
          "name": "A4",
          "ticks": 9216,
          "time": 7.578936,
          "velocity": 0.3937007874015748
        },
        {
          "duration": 2.3684175000000005,
          "durationTicks": 2880,
          "midi": 57,
          "name": "A3",
          "ticks": 9216,
          "time": 7.578936,
          "velocity": 0.3937007874015748
        },
        {
          "duration": 2.3684175000000005,
          "durationTicks": 2880,
          "midi": 50,
          "name": "D3",
          "ticks": 9216,
          "time": 7.578936,
          "velocity": 0.3937007874015748
        },
        {
          "duration": 0.15789450000000116,
          "durationTicks": 192,
          "midi": 69,
          "name": "A4",
          "ticks": 9600,
          "time": 7.894724999999999,
          "velocity": 0.3937007874015748
        },
        {
          "duration": 0.15789449999999938,
          "durationTicks": 192,
          "midi": 70,
          "name": "A#4",
          "ticks": 9792,
          "time": 8.0526195,
          "velocity": 0.3937007874015748
        },
        {
          "duration": 0.15789449999999938,
          "durationTicks": 192,
          "midi": 72,
          "name": "C5",
          "ticks": 9984,
          "time": 8.210514,
          "velocity": 0.3937007874015748
        },
        {
          "duration": 0.15789449999999938,
          "durationTicks": 192,
          "midi": 77,
          "name": "F5",
          "ticks": 10368,
          "time": 8.526303,
          "velocity": 0.3937007874015748
        },
        {
          "duration": 0.31578900000000054,
          "durationTicks": 384,
          "midi": 69,
          "name": "A4",
          "ticks": 10752,
          "time": 8.842092,
          "velocity": 0.3937007874015748
        },
        {
          "duration": 0.31578900000000054,
          "durationTicks": 384,
          "midi": 76,
          "name": "E5",
          "ticks": 10752,
          "time": 8.842092,
          "velocity": 0.3937007874015748
        },
        {
          "duration": 0.31578900000000054,
          "durationTicks": 384,
          "midi": 79,
          "name": "G5",
          "ticks": 11136,
          "time": 9.157881,
          "velocity": 0.3937007874015748
        },
        {
          "duration": 0.31578900000000054,
          "durationTicks": 384,
          "midi": 74,
          "name": "D5",
          "ticks": 11136,
          "time": 9.157881,
          "velocity": 0.3937007874015748
        },
        {
          "duration": 0.6315779999999993,
          "durationTicks": 768,
          "midi": 77,
          "name": "F5",
          "ticks": 11520,
          "time": 9.47367,
          "velocity": 0.3937007874015748
        },
        {
          "duration": 0.6315779999999993,
          "durationTicks": 768,
          "midi": 72,
          "name": "C5",
          "ticks": 11520,
          "time": 9.47367,
          "velocity": 0.3937007874015748
        },
        {
          "duration": 2.3684174999999996,
          "durationTicks": 2880,
          "midi": 46,
          "name": "A#2",
          "ticks": 12288,
          "time": 10.105248,
          "velocity": 0.3937007874015748
        },
        {
          "duration": 2.3684174999999996,
          "durationTicks": 2880,
          "midi": 49,
          "name": "C#3",
          "ticks": 12288,
          "time": 10.105248,
          "velocity": 0.3937007874015748
        },
        {
          "duration": 0.23684174999999996,
          "durationTicks": 288,
          "midi": 68,
          "name": "G#4",
          "ticks": 12288,
          "time": 10.105248,
          "velocity": 0.3937007874015748
        },
        {
          "duration": 0.15789449999999938,
          "durationTicks": 192,
          "midi": 68,
          "name": "G#4",
          "ticks": 12672,
          "time": 10.421037,
          "velocity": 0.3937007874015748
        },
        {
          "duration": 0.15789449999999938,
          "durationTicks": 192,
          "midi": 70,
          "name": "A#4",
          "ticks": 12864,
          "time": 10.5789315,
          "velocity": 0.3937007874015748
        },
        {
          "duration": 0.15789450000000116,
          "durationTicks": 192,
          "midi": 72,
          "name": "C5",
          "ticks": 13056,
          "time": 10.736825999999999,
          "velocity": 0.3937007874015748
        },
        {
          "duration": 0.15789449999999938,
          "durationTicks": 192,
          "midi": 68,
          "name": "G#4",
          "ticks": 13440,
          "time": 11.052615,
          "velocity": 0.3937007874015748
        },
        {
          "duration": 0.23684174999999996,
          "durationTicks": 288,
          "midi": 70,
          "name": "A#4",
          "ticks": 13824,
          "time": 11.368404,
          "velocity": 0.3937007874015748
        },
        {
          "duration": 0.15789450000000116,
          "durationTicks": 192,
          "midi": 70,
          "name": "A#4",
          "ticks": 14208,
          "time": 11.684192999999999,
          "velocity": 0.3937007874015748
        },
        {
          "duration": 0.15789449999999938,
          "durationTicks": 192,
          "midi": 72,
          "name": "C5",
          "ticks": 14400,
          "time": 11.8420875,
          "velocity": 0.3937007874015748
        },
        {
          "duration": 0.15789449999999938,
          "durationTicks": 192,
          "midi": 67,
          "name": "G4",
          "ticks": 14592,
          "time": 11.999982,
          "velocity": 0.3937007874015748
        },
        {
          "duration": 0.15789449999999938,
          "durationTicks": 192,
          "midi": 63,
          "name": "D#4",
          "ticks": 14976,
          "time": 12.315771,
          "velocity": 0.3937007874015748
        },
        {
          "duration": 1.1842087499999998,
          "durationTicks": 1440,
          "midi": 51,
          "name": "D#3",
          "ticks": 15360,
          "time": 12.63156,
          "velocity": 0.3937007874015748
        },
        {
          "duration": 0.23684174999999996,
          "durationTicks": 288,
          "midi": 68,
          "name": "G#4",
          "ticks": 15360,
          "time": 12.63156,
          "velocity": 0.3937007874015748
        },
        {
          "duration": 1.1842087499999998,
          "durationTicks": 1440,
          "midi": 48,
          "name": "C3",
          "ticks": 15360,
          "time": 12.63156,
          "velocity": 0.3937007874015748
        },
        {
          "duration": 0.15789450000000116,
          "durationTicks": 192,
          "midi": 68,
          "name": "G#4",
          "ticks": 15744,
          "time": 12.947348999999999,
          "velocity": 0.3937007874015748
        },
        {
          "duration": 0.15789449999999938,
          "durationTicks": 192,
          "midi": 70,
          "name": "A#4",
          "ticks": 15936,
          "time": 13.1052435,
          "velocity": 0.3937007874015748
        },
        {
          "duration": 0.15789449999999938,
          "durationTicks": 192,
          "midi": 72,
          "name": "C5",
          "ticks": 16128,
          "time": 13.263138,
          "velocity": 0.3937007874015748
        },
        {
          "duration": 0.15789449999999938,
          "durationTicks": 192,
          "midi": 80,
          "name": "G#5",
          "ticks": 16512,
          "time": 13.578927,
          "velocity": 0.3937007874015748
        },
        {
          "duration": 1.1842087499999998,
          "durationTicks": 1440,
          "midi": 55,
          "name": "G3",
          "ticks": 16896,
          "time": 13.894715999999999,
          "velocity": 0.3937007874015748
        },
        {
          "duration": 0.23684174999999996,
          "durationTicks": 288,
          "midi": 79,
          "name": "G5",
          "ticks": 16896,
          "time": 13.894715999999999,
          "velocity": 0.3937007874015748
        },
        {
          "duration": 0.15789449999999938,
          "durationTicks": 192,
          "midi": 75,
          "name": "D#5",
          "ticks": 17280,
          "time": 14.210505,
          "velocity": 0.3937007874015748
        },
        {
          "duration": 0.31578899999999877,
          "durationTicks": 384,
          "midi": 70,
          "name": "A#4",
          "ticks": 17664,
          "time": 14.526294,
          "velocity": 0.3937007874015748
        },
        {
          "duration": 0.31578900000000054,
          "durationTicks": 384,
          "midi": 67,
          "name": "G4",
          "ticks": 18048,
          "time": 14.842082999999999,
          "velocity": 0.3937007874015748
        },
        {
          "duration": 2.3684175000000014,
          "durationTicks": 2880,
          "midi": 49,
          "name": "C#3",
          "ticks": 18432,
          "time": 15.157872,
          "velocity": 0.3937007874015748
        },
        {
          "duration": 0.23684174999999996,
          "durationTicks": 288,
          "midi": 68,
          "name": "G#4",
          "ticks": 18432,
          "time": 15.157872,
          "velocity": 0.3937007874015748
        },
        {
          "duration": 2.3684175000000014,
          "durationTicks": 2880,
          "midi": 46,
          "name": "A#2",
          "ticks": 18432,
          "time": 15.157872,
          "velocity": 0.3937007874015748
        },
        {
          "duration": 0.15789449999999938,
          "durationTicks": 192,
          "midi": 68,
          "name": "G#4",
          "ticks": 18816,
          "time": 15.473661,
          "velocity": 0.3937007874015748
        },
        {
          "duration": 0.15789449999999938,
          "durationTicks": 192,
          "midi": 70,
          "name": "A#4",
          "ticks": 19008,
          "time": 15.6315555,
          "velocity": 0.3937007874015748
        },
        {
          "duration": 0.15789450000000116,
          "durationTicks": 192,
          "midi": 72,
          "name": "C5",
          "ticks": 19200,
          "time": 15.789449999999999,
          "velocity": 0.3937007874015748
        },
        {
          "duration": 0.1578944999999976,
          "durationTicks": 192,
          "midi": 68,
          "name": "G#4",
          "ticks": 19584,
          "time": 16.105239,
          "velocity": 0.3937007874015748
        },
        {
          "duration": 0.23684174999999996,
          "durationTicks": 288,
          "midi": 70,
          "name": "A#4",
          "ticks": 19968,
          "time": 16.421028,
          "velocity": 0.3937007874015748
        },
        {
          "duration": 0.15789450000000116,
          "durationTicks": 192,
          "midi": 70,
          "name": "A#4",
          "ticks": 20352,
          "time": 16.736817,
          "velocity": 0.3937007874015748
        },
        {
          "duration": 0.15789450000000116,
          "durationTicks": 192,
          "midi": 72,
          "name": "C5",
          "ticks": 20544,
          "time": 16.8947115,
          "velocity": 0.3937007874015748
        },
        {
          "duration": 0.1578944999999976,
          "durationTicks": 192,
          "midi": 67,
          "name": "G4",
          "ticks": 20736,
          "time": 17.052606,
          "velocity": 0.3937007874015748
        },
        {
          "duration": 0.15789450000000116,
          "durationTicks": 192,
          "midi": 63,
          "name": "D#4",
          "ticks": 21120,
          "time": 17.368395,
          "velocity": 0.3937007874015748
        },
        {
          "duration": 2.3684174999999996,
          "durationTicks": 2880,
          "midi": 57,
          "name": "A3",
          "ticks": 21504,
          "time": 17.684184,
          "velocity": 0.3937007874015748
        },
        {
          "duration": 2.3684174999999996,
          "durationTicks": 2880,
          "midi": 50,
          "name": "D3",
          "ticks": 21504,
          "time": 17.684184,
          "velocity": 0.3937007874015748
        },
        {
          "duration": 0.15789450000000116,
          "durationTicks": 192,
          "midi": 69,
          "name": "A4",
          "ticks": 21504,
          "time": 17.684184,
          "velocity": 0.3937007874015748
        },
        {
          "duration": 0.1578944999999976,
          "durationTicks": 192,
          "midi": 69,
          "name": "A4",
          "ticks": 21888,
          "time": 17.999973,
          "velocity": 0.3937007874015748
        },
        {
          "duration": 0.15789450000000116,
          "durationTicks": 192,
          "midi": 70,
          "name": "A#4",
          "ticks": 22080,
          "time": 18.1578675,
          "velocity": 0.3937007874015748
        },
        {
          "duration": 0.15789450000000116,
          "durationTicks": 192,
          "midi": 72,
          "name": "C5",
          "ticks": 22272,
          "time": 18.315762,
          "velocity": 0.3937007874015748
        },
        {
          "duration": 0.15789450000000116,
          "durationTicks": 192,
          "midi": 77,
          "name": "F5",
          "ticks": 22656,
          "time": 18.631550999999998,
          "velocity": 0.3937007874015748
        },
        {
          "duration": 0.31578899999999877,
          "durationTicks": 384,
          "midi": 76,
          "name": "E5",
          "ticks": 23040,
          "time": 18.94734,
          "velocity": 0.3937007874015748
        },
        {
          "duration": 0.31578899999999877,
          "durationTicks": 384,
          "midi": 69,
          "name": "A4",
          "ticks": 23040,
          "time": 18.94734,
          "velocity": 0.3937007874015748
        },
        {
          "duration": 0.31578899999999877,
          "durationTicks": 384,
          "midi": 79,
          "name": "G5",
          "ticks": 23424,
          "time": 19.263129,
          "velocity": 0.3937007874015748
        },
        {
          "duration": 0.31578899999999877,
          "durationTicks": 384,
          "midi": 74,
          "name": "D5",
          "ticks": 23424,
          "time": 19.263129,
          "velocity": 0.3937007874015748
        },
        {
          "duration": 0.6315780000000011,
          "durationTicks": 768,
          "midi": 72,
          "name": "C5",
          "ticks": 23808,
          "time": 19.578917999999998,
          "velocity": 0.3937007874015748
        },
        {
          "duration": 0.6315780000000011,
          "durationTicks": 768,
          "midi": 77,
          "name": "F5",
          "ticks": 23808,
          "time": 19.578917999999998,
          "velocity": 0.3937007874015748
        },
        {
          "duration": 0.15789450000000116,
          "durationTicks": 192,
          "midi": 34,
          "name": "A#1",
          "ticks": 24576,
          "time": 20.210496,
          "velocity": 0.3937007874015748
        },
        {
          "duration": 0.15789450000000116,
          "durationTicks": 192,
          "midi": 68,
          "name": "G#4",
          "ticks": 24576,
          "time": 20.210496,
          "velocity": 0.3937007874015748
        },
        {
          "duration": 2.3684174999999996,
          "durationTicks": 2880,
          "midi": 60,
          "name": "C4",
          "ticks": 24576,
          "time": 20.210496,
          "velocity": 0.3937007874015748
        },
        {
          "duration": 0.1578944999999976,
          "durationTicks": 192,
          "midi": 34,
          "name": "A#1",
          "ticks": 24768,
          "time": 20.3683905,
          "velocity": 0.3937007874015748
        },
        {
          "duration": 0.3157890000000023,
          "durationTicks": 384,
          "midi": 46,
          "name": "A#2",
          "ticks": 24960,
          "time": 20.526284999999998,
          "velocity": 0.3937007874015748
        },
        {
          "duration": 0.15789450000000116,
          "durationTicks": 192,
          "midi": 68,
          "name": "G#4",
          "ticks": 24960,
          "time": 20.526284999999998,
          "velocity": 0.3937007874015748
        },
        {
          "duration": 0.15789450000000116,
          "durationTicks": 192,
          "midi": 70,
          "name": "A#4",
          "ticks": 25152,
          "time": 20.6841795,
          "velocity": 0.3937007874015748
        },
        {
          "duration": 0.1578944999999976,
          "durationTicks": 192,
          "midi": 34,
          "name": "A#1",
          "ticks": 25344,
          "time": 20.842074,
          "velocity": 0.3937007874015748
        },
        {
          "duration": 0.1578944999999976,
          "durationTicks": 192,
          "midi": 72,
          "name": "C5",
          "ticks": 25344,
          "time": 20.842074,
          "velocity": 0.3937007874015748
        },
        {
          "duration": 0.3157890000000023,
          "durationTicks": 384,
          "midi": 46,
          "name": "A#2",
          "ticks": 25536,
          "time": 20.999968499999998,
          "velocity": 0.3937007874015748
        },
        {
          "duration": 0.15789450000000116,
          "durationTicks": 192,
          "midi": 68,
          "name": "G#4",
          "ticks": 25728,
          "time": 21.157863,
          "velocity": 0.3937007874015748
        },
        {
          "duration": 0.1578944999999976,
          "durationTicks": 192,
          "midi": 34,
          "name": "A#1",
          "ticks": 25920,
          "time": 21.3157575,
          "velocity": 0.3937007874015748
        },
        {
          "duration": 0.15789450000000116,
          "durationTicks": 192,
          "midi": 70,
          "name": "A#4",
          "ticks": 26112,
          "time": 21.473651999999998,
          "velocity": 0.3937007874015748
        },
        {
          "duration": 0.15789450000000116,
          "durationTicks": 192,
          "midi": 34,
          "name": "A#1",
          "ticks": 26112,
          "time": 21.473651999999998,
          "velocity": 0.3937007874015748
        },
        {
          "duration": 0.15789450000000116,
          "durationTicks": 192,
          "midi": 34,
          "name": "A#1",
          "ticks": 26304,
          "time": 21.6315465,
          "velocity": 0.3937007874015748
        },
        {
          "duration": 0.31578899999999877,
          "durationTicks": 384,
          "midi": 46,
          "name": "A#2",
          "ticks": 26496,
          "time": 21.789441,
          "velocity": 0.3937007874015748
        },
        {
          "duration": 0.1578944999999976,
          "durationTicks": 192,
          "midi": 70,
          "name": "A#4",
          "ticks": 26496,
          "time": 21.789441,
          "velocity": 0.3937007874015748
        },
        {
          "duration": 0.15789450000000116,
          "durationTicks": 192,
          "midi": 72,
          "name": "C5",
          "ticks": 26688,
          "time": 21.947335499999998,
          "velocity": 0.3937007874015748
        },
        {
          "duration": 0.15789450000000116,
          "durationTicks": 192,
          "midi": 34,
          "name": "A#1",
          "ticks": 26880,
          "time": 22.10523,
          "velocity": 0.3937007874015748
        },
        {
          "duration": 0.15789450000000116,
          "durationTicks": 192,
          "midi": 67,
          "name": "G4",
          "ticks": 26880,
          "time": 22.10523,
          "velocity": 0.3937007874015748
        },
        {
          "duration": 0.31578899999999877,
          "durationTicks": 384,
          "midi": 46,
          "name": "A#2",
          "ticks": 27072,
          "time": 22.2631245,
          "velocity": 0.3937007874015748
        },
        {
          "duration": 0.15789450000000116,
          "durationTicks": 192,
          "midi": 63,
          "name": "D#4",
          "ticks": 27264,
          "time": 22.421018999999998,
          "velocity": 0.3937007874015748
        },
        {
          "duration": 0.15789450000000116,
          "durationTicks": 192,
          "midi": 34,
          "name": "A#1",
          "ticks": 27456,
          "time": 22.5789135,
          "velocity": 0.3937007874015748
        },
        {
          "duration": 1.1842087499999998,
          "durationTicks": 1440,
          "midi": 63,
          "name": "D#4",
          "ticks": 27648,
          "time": 22.736808,
          "velocity": 0.3937007874015748
        },
        {
          "duration": 0.1578944999999976,
          "durationTicks": 192,
          "midi": 68,
          "name": "G#4",
          "ticks": 27648,
          "time": 22.736808,
          "velocity": 0.3937007874015748
        },
        {
          "duration": 0.1578944999999976,
          "durationTicks": 192,
          "midi": 36,
          "name": "C2",
          "ticks": 27648,
          "time": 22.736808,
          "velocity": 0.3937007874015748
        },
        {
          "duration": 0.15789450000000116,
          "durationTicks": 192,
          "midi": 36,
          "name": "C2",
          "ticks": 27840,
          "time": 22.894702499999998,
          "velocity": 0.3937007874015748
        },
        {
          "duration": 0.15789450000000116,
          "durationTicks": 192,
          "midi": 68,
          "name": "G#4",
          "ticks": 28032,
          "time": 23.052597,
          "velocity": 0.3937007874015748
        },
        {
          "duration": 0.31578899999999877,
          "durationTicks": 384,
          "midi": 48,
          "name": "C3",
          "ticks": 28032,
          "time": 23.052597,
          "velocity": 0.3937007874015748
        },
        {
          "duration": 0.1578944999999976,
          "durationTicks": 192,
          "midi": 70,
          "name": "A#4",
          "ticks": 28224,
          "time": 23.2104915,
          "velocity": 0.3937007874015748
        },
        {
          "duration": 0.15789450000000116,
          "durationTicks": 192,
          "midi": 72,
          "name": "C5",
          "ticks": 28416,
          "time": 23.368385999999997,
          "velocity": 0.3937007874015748
        },
        {
          "duration": 0.15789450000000116,
          "durationTicks": 192,
          "midi": 36,
          "name": "C2",
          "ticks": 28416,
          "time": 23.368385999999997,
          "velocity": 0.3937007874015748
        },
        {
          "duration": 0.31578899999999877,
          "durationTicks": 384,
          "midi": 48,
          "name": "C3",
          "ticks": 28608,
          "time": 23.5262805,
          "velocity": 0.3937007874015748
        },
        {
          "duration": 0.1578944999999976,
          "durationTicks": 192,
          "midi": 80,
          "name": "G#5",
          "ticks": 28800,
          "time": 23.684175,
          "velocity": 0.3937007874015748
        },
        {
          "duration": 0.15789450000000116,
          "durationTicks": 192,
          "midi": 36,
          "name": "C2",
          "ticks": 28992,
          "time": 23.842069499999997,
          "velocity": 0.3937007874015748
        },
        {
          "duration": 0.31578899999999877,
          "durationTicks": 384,
          "midi": 79,
          "name": "G5",
          "ticks": 29184,
          "time": 23.999964,
          "velocity": 0.3937007874015748
        },
        {
          "duration": 1.1842087499999998,
          "durationTicks": 1440,
          "midi": 65,
          "name": "F4",
          "ticks": 29184,
          "time": 23.999964,
          "velocity": 0.3937007874015748
        },
        {
          "duration": 0.15789450000000116,
          "durationTicks": 192,
          "midi": 36,
          "name": "C2",
          "ticks": 29184,
          "time": 23.999964,
          "velocity": 0.3937007874015748
        },
        {
          "duration": 0.1578944999999976,
          "durationTicks": 192,
          "midi": 36,
          "name": "C2",
          "ticks": 29376,
          "time": 24.1578585,
          "velocity": 0.3937007874015748
        },
        {
          "duration": 0.3157890000000023,
          "durationTicks": 384,
          "midi": 48,
          "name": "C3",
          "ticks": 29568,
          "time": 24.315752999999997,
          "velocity": 0.3937007874015748
        },
        {
          "duration": 0.15789450000000116,
          "durationTicks": 192,
          "midi": 75,
          "name": "D#5",
          "ticks": 29568,
          "time": 24.315752999999997,
          "velocity": 0.3937007874015748
        },
        {
          "duration": 0.1578944999999976,
          "durationTicks": 192,
          "midi": 36,
          "name": "C2",
          "ticks": 29952,
          "time": 24.631542,
          "velocity": 0.3937007874015748
        },
        {
          "duration": 0.31578899999999877,
          "durationTicks": 384,
          "midi": 70,
          "name": "A#4",
          "ticks": 29952,
          "time": 24.631542,
          "velocity": 0.3937007874015748
        },
        {
          "duration": 0.3157890000000023,
          "durationTicks": 384,
          "midi": 48,
          "name": "C3",
          "ticks": 30144,
          "time": 24.789436499999997,
          "velocity": 0.3937007874015748
        },
        {
          "duration": 0.3157890000000023,
          "durationTicks": 384,
          "midi": 67,
          "name": "G4",
          "ticks": 30336,
          "time": 24.947331,
          "velocity": 0.3937007874015748
        },
        {
          "duration": 0.15789450000000116,
          "durationTicks": 192,
          "midi": 36,
          "name": "C2",
          "ticks": 30528,
          "time": 25.1052255,
          "velocity": 0.3937007874015748
        },
        {
          "duration": 0.1578944999999976,
          "durationTicks": 192,
          "midi": 68,
          "name": "G#4",
          "ticks": 30720,
          "time": 25.26312,
          "velocity": 0.3937007874015748
        },
        {
          "duration": 0.1578944999999976,
          "durationTicks": 192,
          "midi": 37,
          "name": "C#2",
          "ticks": 30720,
          "time": 25.26312,
          "velocity": 0.3937007874015748
        },
        {
          "duration": 0.15789450000000116,
          "durationTicks": 192,
          "midi": 37,
          "name": "C#2",
          "ticks": 30912,
          "time": 25.4210145,
          "velocity": 0.3937007874015748
        },
        {
          "duration": 0.31578899999999877,
          "durationTicks": 384,
          "midi": 49,
          "name": "C#3",
          "ticks": 31104,
          "time": 25.578909,
          "velocity": 0.3937007874015748
        },
        {
          "duration": 0.15789450000000116,
          "durationTicks": 192,
          "midi": 68,
          "name": "G#4",
          "ticks": 31104,
          "time": 25.578909,
          "velocity": 0.3937007874015748
        },
        {
          "duration": 0.1578944999999976,
          "durationTicks": 192,
          "midi": 70,
          "name": "A#4",
          "ticks": 31296,
          "time": 25.7368035,
          "velocity": 0.3937007874015748
        },
        {
          "duration": 0.15789450000000116,
          "durationTicks": 192,
          "midi": 72,
          "name": "C5",
          "ticks": 31488,
          "time": 25.894697999999998,
          "velocity": 0.3937007874015748
        },
        {
          "duration": 0.15789450000000116,
          "durationTicks": 192,
          "midi": 37,
          "name": "C#2",
          "ticks": 31488,
          "time": 25.894697999999998,
          "velocity": 0.3937007874015748
        },
        {
          "duration": 0.31578899999999877,
          "durationTicks": 384,
          "midi": 49,
          "name": "C#3",
          "ticks": 31680,
          "time": 26.0525925,
          "velocity": 0.3937007874015748
        },
        {
          "duration": 0.1578944999999976,
          "durationTicks": 192,
          "midi": 68,
          "name": "G#4",
          "ticks": 31872,
          "time": 26.210487,
          "velocity": 0.3937007874015748
        },
        {
          "duration": 0.15789450000000116,
          "durationTicks": 192,
          "midi": 37,
          "name": "C#2",
          "ticks": 32064,
          "time": 26.368381499999998,
          "velocity": 0.3937007874015748
        },
        {
          "duration": 0.15789450000000116,
          "durationTicks": 192,
          "midi": 37,
          "name": "C#2",
          "ticks": 32256,
          "time": 26.526276,
          "velocity": 0.3937007874015748
        },
        {
          "duration": 0.15789450000000116,
          "durationTicks": 192,
          "midi": 70,
          "name": "A#4",
          "ticks": 32256,
          "time": 26.526276,
          "velocity": 0.3937007874015748
        },
        {
          "duration": 0.1578944999999976,
          "durationTicks": 192,
          "midi": 37,
          "name": "C#2",
          "ticks": 32448,
          "time": 26.6841705,
          "velocity": 0.3937007874015748
        },
        {
          "duration": 0.3157890000000023,
          "durationTicks": 384,
          "midi": 49,
          "name": "C#3",
          "ticks": 32640,
          "time": 26.842064999999998,
          "velocity": 0.3937007874015748
        },
        {
          "duration": 0.15789450000000116,
          "durationTicks": 192,
          "midi": 70,
          "name": "A#4",
          "ticks": 32640,
          "time": 26.842064999999998,
          "velocity": 0.3937007874015748
        },
        {
          "duration": 0.15789450000000116,
          "durationTicks": 192,
          "midi": 72,
          "name": "C5",
          "ticks": 32832,
          "time": 26.9999595,
          "velocity": 0.3937007874015748
        },
        {
          "duration": 0.1578944999999976,
          "durationTicks": 192,
          "midi": 37,
          "name": "C#2",
          "ticks": 33024,
          "time": 27.157854,
          "velocity": 0.3937007874015748
        },
        {
          "duration": 0.1578944999999976,
          "durationTicks": 192,
          "midi": 67,
          "name": "G4",
          "ticks": 33024,
          "time": 27.157854,
          "velocity": 0.3937007874015748
        },
        {
          "duration": 0.3157890000000023,
          "durationTicks": 384,
          "midi": 49,
          "name": "C#3",
          "ticks": 33216,
          "time": 27.315748499999998,
          "velocity": 0.3937007874015748
        },
        {
          "duration": 0.15789450000000116,
          "durationTicks": 192,
          "midi": 63,
          "name": "D#4",
          "ticks": 33408,
          "time": 27.473643,
          "velocity": 0.3937007874015748
        },
        {
          "duration": 0.15789450000000116,
          "durationTicks": 192,
          "midi": 63,
          "name": "D#4",
          "ticks": 33408,
          "time": 27.473643,
          "velocity": 0.3937007874015748
        },
        {
          "duration": 0.1578944999999976,
          "durationTicks": 192,
          "midi": 37,
          "name": "C#2",
          "ticks": 33600,
          "time": 27.6315375,
          "velocity": 0.3937007874015748
        },
        {
          "duration": 2.3684174999999996,
          "durationTicks": 2880,
          "midi": 64,
          "name": "E4",
          "ticks": 33792,
          "time": 27.789431999999998,
          "velocity": 0.3937007874015748
        },
        {
          "duration": 0.15789450000000116,
          "durationTicks": 192,
          "midi": 69,
          "name": "A4",
          "ticks": 33792,
          "time": 27.789431999999998,
          "velocity": 0.3937007874015748
        },
        {
          "duration": 0.15789450000000116,
          "durationTicks": 192,
          "midi": 38,
          "name": "D2",
          "ticks": 33792,
          "time": 27.789431999999998,
          "velocity": 0.3937007874015748
        },
        {
          "duration": 0.15789450000000116,
          "durationTicks": 192,
          "midi": 38,
          "name": "D2",
          "ticks": 33984,
          "time": 27.9473265,
          "velocity": 0.3937007874015748
        },
        {
          "duration": 0.1578944999999976,
          "durationTicks": 192,
          "midi": 69,
          "name": "A4",
          "ticks": 34176,
          "time": 28.105221,
          "velocity": 0.3937007874015748
        },
        {
          "duration": 0.31578899999999877,
          "durationTicks": 384,
          "midi": 50,
          "name": "D3",
          "ticks": 34176,
          "time": 28.105221,
          "velocity": 0.3937007874015748
        },
        {
          "duration": 0.15789450000000116,
          "durationTicks": 192,
          "midi": 70,
          "name": "A#4",
          "ticks": 34368,
          "time": 28.263115499999998,
          "velocity": 0.3937007874015748
        },
        {
          "duration": 0.15789450000000116,
          "durationTicks": 192,
          "midi": 72,
          "name": "C5",
          "ticks": 34560,
          "time": 28.42101,
          "velocity": 0.3937007874015748
        },
        {
          "duration": 0.15789450000000116,
          "durationTicks": 192,
          "midi": 38,
          "name": "D2",
          "ticks": 34560,
          "time": 28.42101,
          "velocity": 0.3937007874015748
        },
        {
          "duration": 0.31578899999999877,
          "durationTicks": 384,
          "midi": 50,
          "name": "D3",
          "ticks": 34752,
          "time": 28.5789045,
          "velocity": 0.3937007874015748
        },
        {
          "duration": 0.15789450000000116,
          "durationTicks": 192,
          "midi": 77,
          "name": "F5",
          "ticks": 34944,
          "time": 28.736798999999998,
          "velocity": 0.3937007874015748
        },
        {
          "duration": 0.15789450000000116,
          "durationTicks": 192,
          "midi": 38,
          "name": "D2",
          "ticks": 35136,
          "time": 28.8946935,
          "velocity": 0.3937007874015748
        },
        {
          "duration": 0.1578944999999976,
          "durationTicks": 192,
          "midi": 38,
          "name": "D2",
          "ticks": 35328,
          "time": 29.052588,
          "velocity": 0.3937007874015748
        },
        {
          "duration": 0.31578899999999877,
          "durationTicks": 384,
          "midi": 76,
          "name": "E5",
          "ticks": 35328,
          "time": 29.052588,
          "velocity": 0.3937007874015748
        },
        {
          "duration": 0.15789450000000116,
          "durationTicks": 192,
          "midi": 38,
          "name": "D2",
          "ticks": 35520,
          "time": 29.210482499999998,
          "velocity": 0.3937007874015748
        },
        {
          "duration": 0.31578899999999877,
          "durationTicks": 384,
          "midi": 79,
          "name": "G5",
          "ticks": 35712,
          "time": 29.368377,
          "velocity": 0.3937007874015748
        },
        {
          "duration": 0.31578899999999877,
          "durationTicks": 384,
          "midi": 50,
          "name": "D3",
          "ticks": 35712,
          "time": 29.368377,
          "velocity": 0.3937007874015748
        },
        {
          "duration": 0.6315780000000011,
          "durationTicks": 768,
          "midi": 77,
          "name": "F5",
          "ticks": 36096,
          "time": 29.684165999999998,
          "velocity": 0.3937007874015748
        },
        {
          "duration": 0.15789450000000116,
          "durationTicks": 192,
          "midi": 38,
          "name": "D2",
          "ticks": 36096,
          "time": 29.684165999999998,
          "velocity": 0.3937007874015748
        },
        {
          "duration": 0.31578899999999877,
          "durationTicks": 384,
          "midi": 50,
          "name": "D3",
          "ticks": 36288,
          "time": 29.8420605,
          "velocity": 0.3937007874015748
        },
        {
          "duration": 0.15789450000000116,
          "durationTicks": 192,
          "midi": 38,
          "name": "D2",
          "ticks": 36672,
          "time": 30.157849499999998,
          "velocity": 0.3937007874015748
        },
        {
          "duration": 0.15789450000000116,
          "durationTicks": 192,
          "midi": 34,
          "name": "A#1",
          "ticks": 36864,
          "time": 30.315744,
          "velocity": 0.3937007874015748
        },
        {
          "duration": 0.15789450000000116,
          "durationTicks": 192,
          "midi": 68,
          "name": "G#4",
          "ticks": 36864,
          "time": 30.315744,
          "velocity": 0.3937007874015748
        },
        {
          "duration": 2.368417500000003,
          "durationTicks": 2880,
          "midi": 60,
          "name": "C4",
          "ticks": 36864,
          "time": 30.315744,
          "velocity": 0.3937007874015748
        },
        {
          "duration": 0.1578944999999976,
          "durationTicks": 192,
          "midi": 34,
          "name": "A#1",
          "ticks": 37056,
          "time": 30.4736385,
          "velocity": 0.3937007874015748
        },
        {
          "duration": 0.3157890000000023,
          "durationTicks": 384,
          "midi": 46,
          "name": "A#2",
          "ticks": 37248,
          "time": 30.631532999999997,
          "velocity": 0.3937007874015748
        },
        {
          "duration": 0.15789450000000116,
          "durationTicks": 192,
          "midi": 68,
          "name": "G#4",
          "ticks": 37248,
          "time": 30.631532999999997,
          "velocity": 0.3937007874015748
        },
        {
          "duration": 0.15789450000000116,
          "durationTicks": 192,
          "midi": 70,
          "name": "A#4",
          "ticks": 37440,
          "time": 30.7894275,
          "velocity": 0.3937007874015748
        },
        {
          "duration": 0.1578944999999976,
          "durationTicks": 192,
          "midi": 34,
          "name": "A#1",
          "ticks": 37632,
          "time": 30.947322,
          "velocity": 0.3937007874015748
        },
        {
          "duration": 0.1578944999999976,
          "durationTicks": 192,
          "midi": 72,
          "name": "C5",
          "ticks": 37632,
          "time": 30.947322,
          "velocity": 0.3937007874015748
        },
        {
          "duration": 0.3157890000000023,
          "durationTicks": 384,
          "midi": 46,
          "name": "A#2",
          "ticks": 37824,
          "time": 31.105216499999997,
          "velocity": 0.3937007874015748
        },
        {
          "duration": 0.15789450000000116,
          "durationTicks": 192,
          "midi": 68,
          "name": "G#4",
          "ticks": 38016,
          "time": 31.263111,
          "velocity": 0.3937007874015748
        },
        {
          "duration": 0.1578944999999976,
          "durationTicks": 192,
          "midi": 34,
          "name": "A#1",
          "ticks": 38208,
          "time": 31.4210055,
          "velocity": 0.3937007874015748
        },
        {
          "duration": 0.15789450000000116,
          "durationTicks": 192,
          "midi": 34,
          "name": "A#1",
          "ticks": 38400,
          "time": 31.578899999999997,
          "velocity": 0.3937007874015748
        },
        {
          "duration": 0.15789450000000116,
          "durationTicks": 192,
          "midi": 70,
          "name": "A#4",
          "ticks": 38400,
          "time": 31.578899999999997,
          "velocity": 0.3937007874015748
        },
        {
          "duration": 0.15789450000000116,
          "durationTicks": 192,
          "midi": 34,
          "name": "A#1",
          "ticks": 38592,
          "time": 31.7367945,
          "velocity": 0.3937007874015748
        },
        {
          "duration": 0.3157890000000023,
          "durationTicks": 384,
          "midi": 46,
          "name": "A#2",
          "ticks": 38784,
          "time": 31.894689,
          "velocity": 0.3937007874015748
        },
        {
          "duration": 0.1578944999999976,
          "durationTicks": 192,
          "midi": 70,
          "name": "A#4",
          "ticks": 38784,
          "time": 31.894689,
          "velocity": 0.3937007874015748
        },
        {
          "duration": 0.1578945000000047,
          "durationTicks": 192,
          "midi": 72,
          "name": "C5",
          "ticks": 38976,
          "time": 32.0525835,
          "velocity": 0.3937007874015748
        },
        {
          "duration": 0.1578944999999976,
          "durationTicks": 192,
          "midi": 34,
          "name": "A#1",
          "ticks": 39168,
          "time": 32.210478,
          "velocity": 0.3937007874015748
        },
        {
          "duration": 0.1578944999999976,
          "durationTicks": 192,
          "midi": 67,
          "name": "G4",
          "ticks": 39168,
          "time": 32.210478,
          "velocity": 0.3937007874015748
        },
        {
          "duration": 0.3157890000000023,
          "durationTicks": 384,
          "midi": 46,
          "name": "A#2",
          "ticks": 39360,
          "time": 32.3683725,
          "velocity": 0.3937007874015748
        },
        {
          "duration": 0.1578945000000047,
          "durationTicks": 192,
          "midi": 63,
          "name": "D#4",
          "ticks": 39552,
          "time": 32.526267,
          "velocity": 0.3937007874015748
        },
        {
          "duration": 0.1578944999999976,
          "durationTicks": 192,
          "midi": 34,
          "name": "A#1",
          "ticks": 39744,
          "time": 32.6841615,
          "velocity": 0.3937007874015748
        },
        {
          "duration": 0.1578944999999976,
          "durationTicks": 192,
          "midi": 36,
          "name": "C2",
          "ticks": 39936,
          "time": 32.842056,
          "velocity": 0.3937007874015748
        },
        {
          "duration": 0.1578944999999976,
          "durationTicks": 192,
          "midi": 68,
          "name": "G#4",
          "ticks": 39936,
          "time": 32.842056,
          "velocity": 0.3937007874015748
        },
        {
          "duration": 1.1842087499999963,
          "durationTicks": 1440,
          "midi": 63,
          "name": "D#4",
          "ticks": 39936,
          "time": 32.842056,
          "velocity": 0.3937007874015748
        },
        {
          "duration": 0.1578945000000047,
          "durationTicks": 192,
          "midi": 36,
          "name": "C2",
          "ticks": 40128,
          "time": 32.9999505,
          "velocity": 0.3937007874015748
        },
        {
          "duration": 0.1578944999999976,
          "durationTicks": 192,
          "midi": 68,
          "name": "G#4",
          "ticks": 40320,
          "time": 33.157845,
          "velocity": 0.3937007874015748
        },
        {
          "duration": 0.3157889999999952,
          "durationTicks": 384,
          "midi": 48,
          "name": "C3",
          "ticks": 40320,
          "time": 33.157845,
          "velocity": 0.3937007874015748
        },
        {
          "duration": 0.1578944999999976,
          "durationTicks": 192,
          "midi": 70,
          "name": "A#4",
          "ticks": 40512,
          "time": 33.3157395,
          "velocity": 0.3937007874015748
        },
        {
          "duration": 0.1578945000000047,
          "durationTicks": 192,
          "midi": 36,
          "name": "C2",
          "ticks": 40704,
          "time": 33.473634,
          "velocity": 0.3937007874015748
        },
        {
          "duration": 0.1578945000000047,
          "durationTicks": 192,
          "midi": 72,
          "name": "C5",
          "ticks": 40704,
          "time": 33.473634,
          "velocity": 0.3937007874015748
        },
        {
          "duration": 0.3157889999999952,
          "durationTicks": 384,
          "midi": 48,
          "name": "C3",
          "ticks": 40896,
          "time": 33.6315285,
          "velocity": 0.3937007874015748
        },
        {
          "duration": 0.1578944999999976,
          "durationTicks": 192,
          "midi": 80,
          "name": "G#5",
          "ticks": 41088,
          "time": 33.789423,
          "velocity": 0.3937007874015748
        },
        {
          "duration": 0.1578945000000047,
          "durationTicks": 192,
          "midi": 36,
          "name": "C2",
          "ticks": 41280,
          "time": 33.9473175,
          "velocity": 0.3937007874015748
        },
        {
          "duration": 0.3157889999999952,
          "durationTicks": 384,
          "midi": 79,
          "name": "G5",
          "ticks": 41472,
          "time": 34.105212,
          "velocity": 0.3937007874015748
        },
        {
          "duration": 1.1842087499999963,
          "durationTicks": 1440,
          "midi": 65,
          "name": "F4",
          "ticks": 41472,
          "time": 34.105212,
          "velocity": 0.3937007874015748
        },
        {
          "duration": 0.1578944999999976,
          "durationTicks": 192,
          "midi": 36,
          "name": "C2",
          "ticks": 41472,
          "time": 34.105212,
          "velocity": 0.3937007874015748
        },
        {
          "duration": 0.1578944999999976,
          "durationTicks": 192,
          "midi": 36,
          "name": "C2",
          "ticks": 41664,
          "time": 34.2631065,
          "velocity": 0.3937007874015748
        },
        {
          "duration": 0.3157890000000023,
          "durationTicks": 384,
          "midi": 48,
          "name": "C3",
          "ticks": 41856,
          "time": 34.421001,
          "velocity": 0.3937007874015748
        },
        {
          "duration": 0.1578945000000047,
          "durationTicks": 192,
          "midi": 75,
          "name": "D#5",
          "ticks": 41856,
          "time": 34.421001,
          "velocity": 0.3937007874015748
        },
        {
          "duration": 0.1578944999999976,
          "durationTicks": 192,
          "midi": 36,
          "name": "C2",
          "ticks": 42240,
          "time": 34.73679,
          "velocity": 0.3937007874015748
        },
        {
          "duration": 0.3157890000000023,
          "durationTicks": 384,
          "midi": 70,
          "name": "A#4",
          "ticks": 42240,
          "time": 34.73679,
          "velocity": 0.3937007874015748
        },
        {
          "duration": 0.3157890000000023,
          "durationTicks": 384,
          "midi": 48,
          "name": "C3",
          "ticks": 42432,
          "time": 34.8946845,
          "velocity": 0.3937007874015748
        },
        {
          "duration": 0.3157889999999952,
          "durationTicks": 384,
          "midi": 67,
          "name": "G4",
          "ticks": 42624,
          "time": 35.052579,
          "velocity": 0.3937007874015748
        },
        {
          "duration": 0.1578944999999976,
          "durationTicks": 192,
          "midi": 36,
          "name": "C2",
          "ticks": 42816,
          "time": 35.2104735,
          "velocity": 0.3937007874015748
        },
        {
          "duration": 0.1578945000000047,
          "durationTicks": 192,
          "midi": 37,
          "name": "C#2",
          "ticks": 43008,
          "time": 35.368368,
          "velocity": 0.3937007874015748
        },
        {
          "duration": 0.1578945000000047,
          "durationTicks": 192,
          "midi": 68,
          "name": "G#4",
          "ticks": 43008,
          "time": 35.368368,
          "velocity": 0.3937007874015748
        },
        {
          "duration": 0.1578944999999976,
          "durationTicks": 192,
          "midi": 37,
          "name": "C#2",
          "ticks": 43200,
          "time": 35.5262625,
          "velocity": 0.3937007874015748
        },
        {
          "duration": 0.1578944999999976,
          "durationTicks": 192,
          "midi": 68,
          "name": "G#4",
          "ticks": 43392,
          "time": 35.684157,
          "velocity": 0.3937007874015748
        },
        {
          "duration": 0.3157890000000023,
          "durationTicks": 384,
          "midi": 49,
          "name": "C#3",
          "ticks": 43392,
          "time": 35.684157,
          "velocity": 0.3937007874015748
        },
        {
          "duration": 0.1578945000000047,
          "durationTicks": 192,
          "midi": 70,
          "name": "A#4",
          "ticks": 43584,
          "time": 35.8420515,
          "velocity": 0.3937007874015748
        },
        {
          "duration": 0.1578944999999976,
          "durationTicks": 192,
          "midi": 72,
          "name": "C5",
          "ticks": 43776,
          "time": 35.999946,
          "velocity": 0.3937007874015748
        },
        {
          "duration": 0.1578944999999976,
          "durationTicks": 192,
          "midi": 37,
          "name": "C#2",
          "ticks": 43776,
          "time": 35.999946,
          "velocity": 0.3937007874015748
        },
        {
          "duration": 0.3157890000000023,
          "durationTicks": 384,
          "midi": 49,
          "name": "C#3",
          "ticks": 43968,
          "time": 36.1578405,
          "velocity": 0.3937007874015748
        },
        {
          "duration": 0.1578945000000047,
          "durationTicks": 192,
          "midi": 68,
          "name": "G#4",
          "ticks": 44160,
          "time": 36.315735,
          "velocity": 0.3937007874015748
        },
        {
          "duration": 0.1578944999999976,
          "durationTicks": 192,
          "midi": 37,
          "name": "C#2",
          "ticks": 44352,
          "time": 36.4736295,
          "velocity": 0.3937007874015748
        },
        {
          "duration": 0.1578944999999976,
          "durationTicks": 192,
          "midi": 37,
          "name": "C#2",
          "ticks": 44544,
          "time": 36.631524,
          "velocity": 0.3937007874015748
        },
        {
          "duration": 0.1578944999999976,
          "durationTicks": 192,
          "midi": 70,
          "name": "A#4",
          "ticks": 44544,
          "time": 36.631524,
          "velocity": 0.3937007874015748
        },
        {
          "duration": 0.1578945000000047,
          "durationTicks": 192,
          "midi": 37,
          "name": "C#2",
          "ticks": 44736,
          "time": 36.7894185,
          "velocity": 0.3937007874015748
        },
        {
          "duration": 0.1578944999999976,
          "durationTicks": 192,
          "midi": 70,
          "name": "A#4",
          "ticks": 44928,
          "time": 36.947313,
          "velocity": 0.3937007874015748
        },
        {
          "duration": 0.3157889999999952,
          "durationTicks": 384,
          "midi": 49,
          "name": "C#3",
          "ticks": 44928,
          "time": 36.947313,
          "velocity": 0.3937007874015748
        },
        {
          "duration": 0.1578944999999976,
          "durationTicks": 192,
          "midi": 72,
          "name": "C5",
          "ticks": 45120,
          "time": 37.1052075,
          "velocity": 0.3937007874015748
        },
        {
          "duration": 0.1578945000000047,
          "durationTicks": 192,
          "midi": 67,
          "name": "G4",
          "ticks": 45312,
          "time": 37.263101999999996,
          "velocity": 0.3937007874015748
        },
        {
          "duration": 0.1578945000000047,
          "durationTicks": 192,
          "midi": 37,
          "name": "C#2",
          "ticks": 45312,
          "time": 37.263101999999996,
          "velocity": 0.3937007874015748
        },
        {
          "duration": 0.3157889999999952,
          "durationTicks": 384,
          "midi": 49,
          "name": "C#3",
          "ticks": 45504,
          "time": 37.4209965,
          "velocity": 0.3937007874015748
        },
        {
          "duration": 0.1578944999999976,
          "durationTicks": 192,
          "midi": 63,
          "name": "D#4",
          "ticks": 45696,
          "time": 37.578891,
          "velocity": 0.3937007874015748
        },
        {
          "duration": 0.1578944999999976,
          "durationTicks": 192,
          "midi": 63,
          "name": "D#4",
          "ticks": 45696,
          "time": 37.578891,
          "velocity": 0.3937007874015748
        },
        {
          "duration": 0.1578945000000047,
          "durationTicks": 192,
          "midi": 37,
          "name": "C#2",
          "ticks": 45888,
          "time": 37.736785499999996,
          "velocity": 0.3937007874015748
        },
        {
          "duration": 2.3684174999999996,
          "durationTicks": 2880,
          "midi": 64,
          "name": "E4",
          "ticks": 46080,
          "time": 37.89468,
          "velocity": 0.3937007874015748
        },
        {
          "duration": 0.1578944999999976,
          "durationTicks": 192,
          "midi": 38,
          "name": "D2",
          "ticks": 46080,
          "time": 37.89468,
          "velocity": 0.3937007874015748
        },
        {
          "duration": 0.1578944999999976,
          "durationTicks": 192,
          "midi": 69,
          "name": "A4",
          "ticks": 46080,
          "time": 37.89468,
          "velocity": 0.3937007874015748
        },
        {
          "duration": 0.1578944999999976,
          "durationTicks": 192,
          "midi": 38,
          "name": "D2",
          "ticks": 46272,
          "time": 38.0525745,
          "velocity": 0.3937007874015748
        },
        {
          "duration": 0.1578945000000047,
          "durationTicks": 192,
          "midi": 69,
          "name": "A4",
          "ticks": 46464,
          "time": 38.210468999999996,
          "velocity": 0.3937007874015748
        },
        {
          "duration": 0.3157890000000023,
          "durationTicks": 384,
          "midi": 50,
          "name": "D3",
          "ticks": 46464,
          "time": 38.210468999999996,
          "velocity": 0.3937007874015748
        },
        {
          "duration": 0.1578944999999976,
          "durationTicks": 192,
          "midi": 70,
          "name": "A#4",
          "ticks": 46656,
          "time": 38.3683635,
          "velocity": 0.3937007874015748
        },
        {
          "duration": 0.1578944999999976,
          "durationTicks": 192,
          "midi": 72,
          "name": "C5",
          "ticks": 46848,
          "time": 38.526258,
          "velocity": 0.3937007874015748
        },
        {
          "duration": 0.1578944999999976,
          "durationTicks": 192,
          "midi": 38,
          "name": "D2",
          "ticks": 46848,
          "time": 38.526258,
          "velocity": 0.3937007874015748
        },
        {
          "duration": 0.3157890000000023,
          "durationTicks": 384,
          "midi": 50,
          "name": "D3",
          "ticks": 47040,
          "time": 38.684152499999996,
          "velocity": 0.3937007874015748
        },
        {
          "duration": 0.1578944999999976,
          "durationTicks": 192,
          "midi": 77,
          "name": "F5",
          "ticks": 47232,
          "time": 38.842047,
          "velocity": 0.3937007874015748
        },
        {
          "duration": 0.1578944999999976,
          "durationTicks": 192,
          "midi": 38,
          "name": "D2",
          "ticks": 47424,
          "time": 38.9999415,
          "velocity": 0.3937007874015748
        },
        {
          "duration": 0.3157890000000023,
          "durationTicks": 384,
          "midi": 76,
          "name": "E5",
          "ticks": 47616,
          "time": 39.157835999999996,
          "velocity": 0.3937007874015748
        },
        {
          "duration": 0.1578945000000047,
          "durationTicks": 192,
          "midi": 38,
          "name": "D2",
          "ticks": 47616,
          "time": 39.157835999999996,
          "velocity": 0.3937007874015748
        },
        {
          "duration": 0.1578944999999976,
          "durationTicks": 192,
          "midi": 38,
          "name": "D2",
          "ticks": 47808,
          "time": 39.3157305,
          "velocity": 0.3937007874015748
        },
        {
          "duration": 0.3157890000000023,
          "durationTicks": 384,
          "midi": 79,
          "name": "G5",
          "ticks": 48000,
          "time": 39.473625,
          "velocity": 0.3937007874015748
        },
        {
          "duration": 0.3157890000000023,
          "durationTicks": 384,
          "midi": 50,
          "name": "D3",
          "ticks": 48000,
          "time": 39.473625,
          "velocity": 0.3937007874015748
        },
        {
          "duration": 0.1578944999999976,
          "durationTicks": 192,
          "midi": 38,
          "name": "D2",
          "ticks": 48384,
          "time": 39.789414,
          "velocity": 0.3937007874015748
        },
        {
          "duration": 0.6315779999999975,
          "durationTicks": 768,
          "midi": 77,
          "name": "F5",
          "ticks": 48384,
          "time": 39.789414,
          "velocity": 0.3937007874015748
        },
        {
          "duration": 0.3157890000000023,
          "durationTicks": 384,
          "midi": 50,
          "name": "D3",
          "ticks": 48576,
          "time": 39.9473085,
          "velocity": 0.3937007874015748
        },
        {
          "duration": 0.1578944999999976,
          "durationTicks": 192,
          "midi": 38,
          "name": "D2",
          "ticks": 48960,
          "time": 40.2630975,
          "velocity": 0.3937007874015748
        },
        {
          "duration": 0.1578944999999976,
          "durationTicks": 192,
          "midi": 34,
          "name": "A#1",
          "ticks": 49152,
          "time": 40.420992,
          "velocity": 0.3937007874015748
        },
        {
          "duration": 0.1578945000000047,
          "durationTicks": 192,
          "midi": 34,
          "name": "A#1",
          "ticks": 49344,
          "time": 40.578886499999996,
          "velocity": 0.3937007874015748
        },
        {
          "duration": 0.3157889999999952,
          "durationTicks": 384,
          "midi": 46,
          "name": "A#2",
          "ticks": 49536,
          "time": 40.736781,
          "velocity": 0.3937007874015748
        },
        {
          "duration": 0.1578945000000047,
          "durationTicks": 192,
          "midi": 34,
          "name": "A#1",
          "ticks": 49920,
          "time": 41.052569999999996,
          "velocity": 0.3937007874015748
        },
        {
          "duration": 0.3157889999999952,
          "durationTicks": 384,
          "midi": 46,
          "name": "A#2",
          "ticks": 50112,
          "time": 41.2104645,
          "velocity": 0.3937007874015748
        },
        {
          "duration": 0.1578945000000047,
          "durationTicks": 192,
          "midi": 34,
          "name": "A#1",
          "ticks": 50496,
          "time": 41.526253499999996,
          "velocity": 0.3937007874015748
        },
        {
          "duration": 0.1578944999999976,
          "durationTicks": 192,
          "midi": 34,
          "name": "A#1",
          "ticks": 50688,
          "time": 41.684148,
          "velocity": 0.3937007874015748
        },
        {
          "duration": 0.1578944999999976,
          "durationTicks": 192,
          "midi": 34,
          "name": "A#1",
          "ticks": 50880,
          "time": 41.8420425,
          "velocity": 0.3937007874015748
        },
        {
          "duration": 0.3157890000000023,
          "durationTicks": 384,
          "midi": 46,
          "name": "A#2",
          "ticks": 51072,
          "time": 41.999936999999996,
          "velocity": 0.3937007874015748
        },
        {
          "duration": 0.1578944999999976,
          "durationTicks": 192,
          "midi": 34,
          "name": "A#1",
          "ticks": 51456,
          "time": 42.315726,
          "velocity": 0.3937007874015748
        },
        {
          "duration": 0.3157890000000023,
          "durationTicks": 384,
          "midi": 46,
          "name": "A#2",
          "ticks": 51648,
          "time": 42.473620499999996,
          "velocity": 0.3937007874015748
        },
        {
          "duration": 0.1578944999999976,
          "durationTicks": 192,
          "midi": 34,
          "name": "A#1",
          "ticks": 52032,
          "time": 42.7894095,
          "velocity": 0.3937007874015748
        },
        {
          "duration": 0.1578945000000047,
          "durationTicks": 192,
          "midi": 36,
          "name": "C2",
          "ticks": 52224,
          "time": 42.947303999999995,
          "velocity": 0.3937007874015748
        },
        {
          "duration": 0.1578944999999976,
          "durationTicks": 192,
          "midi": 36,
          "name": "C2",
          "ticks": 52416,
          "time": 43.1051985,
          "velocity": 0.3937007874015748
        },
        {
          "duration": 0.3157890000000023,
          "durationTicks": 384,
          "midi": 48,
          "name": "C3",
          "ticks": 52608,
          "time": 43.263093,
          "velocity": 0.3937007874015748
        },
        {
          "duration": 0.1578944999999976,
          "durationTicks": 192,
          "midi": 36,
          "name": "C2",
          "ticks": 52992,
          "time": 43.578882,
          "velocity": 0.3937007874015748
        },
        {
          "duration": 0.3157890000000023,
          "durationTicks": 384,
          "midi": 48,
          "name": "C3",
          "ticks": 53184,
          "time": 43.7367765,
          "velocity": 0.3937007874015748
        },
        {
          "duration": 0.1578944999999976,
          "durationTicks": 192,
          "midi": 36,
          "name": "C2",
          "ticks": 53568,
          "time": 44.0525655,
          "velocity": 0.3937007874015748
        },
        {
          "duration": 0.1578944999999976,
          "durationTicks": 192,
          "midi": 36,
          "name": "C2",
          "ticks": 53760,
          "time": 44.21046,
          "velocity": 0.3937007874015748
        },
        {
          "duration": 0.1578945000000047,
          "durationTicks": 192,
          "midi": 36,
          "name": "C2",
          "ticks": 53952,
          "time": 44.368354499999995,
          "velocity": 0.3937007874015748
        },
        {
          "duration": 0.3157889999999952,
          "durationTicks": 384,
          "midi": 48,
          "name": "C3",
          "ticks": 54144,
          "time": 44.526249,
          "velocity": 0.3937007874015748
        },
        {
          "duration": 0.1578945000000047,
          "durationTicks": 192,
          "midi": 36,
          "name": "C2",
          "ticks": 54528,
          "time": 44.842037999999995,
          "velocity": 0.3937007874015748
        },
        {
          "duration": 0.3157889999999952,
          "durationTicks": 384,
          "midi": 48,
          "name": "C3",
          "ticks": 54720,
          "time": 44.9999325,
          "velocity": 0.3937007874015748
        },
        {
          "duration": 0.1578945000000047,
          "durationTicks": 192,
          "midi": 36,
          "name": "C2",
          "ticks": 55104,
          "time": 45.315721499999995,
          "velocity": 0.3937007874015748
        },
        {
          "duration": 0.1578944999999976,
          "durationTicks": 192,
          "midi": 37,
          "name": "C#2",
          "ticks": 55296,
          "time": 45.473616,
          "velocity": 0.3937007874015748
        },
        {
          "duration": 0.1578944999999976,
          "durationTicks": 192,
          "midi": 37,
          "name": "C#2",
          "ticks": 55488,
          "time": 45.6315105,
          "velocity": 0.3937007874015748
        },
        {
          "duration": 0.3157890000000023,
          "durationTicks": 384,
          "midi": 49,
          "name": "C#3",
          "ticks": 55680,
          "time": 45.789404999999995,
          "velocity": 0.3937007874015748
        },
        {
          "duration": 0.1578944999999976,
          "durationTicks": 192,
          "midi": 37,
          "name": "C#2",
          "ticks": 56064,
          "time": 46.105194,
          "velocity": 0.3937007874015748
        },
        {
          "duration": 0.3157890000000023,
          "durationTicks": 384,
          "midi": 49,
          "name": "C#3",
          "ticks": 56256,
          "time": 46.263088499999995,
          "velocity": 0.3937007874015748
        },
        {
          "duration": 0.1578944999999976,
          "durationTicks": 192,
          "midi": 37,
          "name": "C#2",
          "ticks": 56640,
          "time": 46.5788775,
          "velocity": 0.3937007874015748
        },
        {
          "duration": 0.1578945000000047,
          "durationTicks": 192,
          "midi": 37,
          "name": "C#2",
          "ticks": 56832,
          "time": 46.736771999999995,
          "velocity": 0.3937007874015748
        },
        {
          "duration": 0.1578944999999976,
          "durationTicks": 192,
          "midi": 37,
          "name": "C#2",
          "ticks": 57024,
          "time": 46.8946665,
          "velocity": 0.3937007874015748
        },
        {
          "duration": 0.3157890000000023,
          "durationTicks": 384,
          "midi": 49,
          "name": "C#3",
          "ticks": 57216,
          "time": 47.052561,
          "velocity": 0.3937007874015748
        },
        {
          "duration": 0.1578944999999976,
          "durationTicks": 192,
          "midi": 37,
          "name": "C#2",
          "ticks": 57600,
          "time": 47.36835,
          "velocity": 0.3937007874015748
        },
        {
          "duration": 0.3157890000000023,
          "durationTicks": 384,
          "midi": 49,
          "name": "C#3",
          "ticks": 57792,
          "time": 47.5262445,
          "velocity": 0.3937007874015748
        },
        {
          "duration": 0.1578944999999976,
          "durationTicks": 192,
          "midi": 37,
          "name": "C#2",
          "ticks": 58176,
          "time": 47.8420335,
          "velocity": 0.3937007874015748
        },
        {
          "duration": 0.1578944999999976,
          "durationTicks": 192,
          "midi": 38,
          "name": "D2",
          "ticks": 58368,
          "time": 47.999928,
          "velocity": 0.3937007874015748
        },
        {
          "duration": 0.1578945000000047,
          "durationTicks": 192,
          "midi": 38,
          "name": "D2",
          "ticks": 58560,
          "time": 48.157822499999995,
          "velocity": 0.3937007874015748
        },
        {
          "duration": 0.3157889999999952,
          "durationTicks": 384,
          "midi": 50,
          "name": "D3",
          "ticks": 58752,
          "time": 48.315717,
          "velocity": 0.3937007874015748
        },
        {
          "duration": 0.1578945000000047,
          "durationTicks": 192,
          "midi": 38,
          "name": "D2",
          "ticks": 59136,
          "time": 48.631505999999995,
          "velocity": 0.3937007874015748
        },
        {
          "duration": 0.3157889999999952,
          "durationTicks": 384,
          "midi": 50,
          "name": "D3",
          "ticks": 59328,
          "time": 48.7894005,
          "velocity": 0.3937007874015748
        },
        {
          "duration": 0.1578945000000047,
          "durationTicks": 192,
          "midi": 38,
          "name": "D2",
          "ticks": 59712,
          "time": 49.105189499999994,
          "velocity": 0.3937007874015748
        },
        {
          "duration": 0.1578944999999976,
          "durationTicks": 192,
          "midi": 38,
          "name": "D2",
          "ticks": 59904,
          "time": 49.263084,
          "velocity": 0.3937007874015748
        },
        {
          "duration": 0.1578944999999976,
          "durationTicks": 192,
          "midi": 38,
          "name": "D2",
          "ticks": 60096,
          "time": 49.4209785,
          "velocity": 0.3937007874015748
        },
        {
          "duration": 0.3157890000000023,
          "durationTicks": 384,
          "midi": 50,
          "name": "D3",
          "ticks": 60288,
          "time": 49.578872999999994,
          "velocity": 0.3937007874015748
        },
        {
          "duration": 0.1578944999999976,
          "durationTicks": 192,
          "midi": 38,
          "name": "D2",
          "ticks": 60672,
          "time": 49.894662,
          "velocity": 0.3937007874015748
        },
        {
          "duration": 0.3157890000000023,
          "durationTicks": 384,
          "midi": 50,
          "name": "D3",
          "ticks": 60864,
          "time": 50.052556499999994,
          "velocity": 0.3937007874015748
        },
        {
          "duration": 0.1578945000000047,
          "durationTicks": 192,
          "midi": 38,
          "name": "D2",
          "ticks": 61248,
          "time": 50.3683455,
          "velocity": 0.3937007874015748
        },
        {
          "duration": 0.1578944999999976,
          "durationTicks": 192,
          "midi": 34,
          "name": "A#1",
          "ticks": 61440,
          "time": 50.52624,
          "velocity": 0.3937007874015748
        },
        {
          "duration": 0.1578944999999976,
          "durationTicks": 192,
          "midi": 34,
          "name": "A#1",
          "ticks": 61632,
          "time": 50.6841345,
          "velocity": 0.3937007874015748
        },
        {
          "duration": 0.0789472499999988,
          "durationTicks": 96,
          "midi": 73,
          "name": "C#5",
          "ticks": 61824,
          "time": 50.842029,
          "velocity": 0.3937007874015748
        },
        {
          "duration": 0.3157890000000023,
          "durationTicks": 384,
          "midi": 46,
          "name": "A#2",
          "ticks": 61824,
          "time": 50.842029,
          "velocity": 0.3937007874015748
        },
        {
          "duration": 0.1578944999999976,
          "durationTicks": 192,
          "midi": 34,
          "name": "A#1",
          "ticks": 62208,
          "time": 51.157818,
          "velocity": 0.3937007874015748
        },
        {
          "duration": 0.3157890000000023,
          "durationTicks": 384,
          "midi": 46,
          "name": "A#2",
          "ticks": 62400,
          "time": 51.3157125,
          "velocity": 0.3937007874015748
        },
        {
          "duration": 0.1578944999999976,
          "durationTicks": 192,
          "midi": 34,
          "name": "A#1",
          "ticks": 62784,
          "time": 51.6315015,
          "velocity": 0.3937007874015748
        },
        {
          "duration": 0.1578945000000047,
          "durationTicks": 192,
          "midi": 34,
          "name": "A#1",
          "ticks": 62976,
          "time": 51.789395999999996,
          "velocity": 0.3937007874015748
        },
        {
          "duration": 0.1578944999999976,
          "durationTicks": 192,
          "midi": 34,
          "name": "A#1",
          "ticks": 63168,
          "time": 51.9472905,
          "velocity": 0.3937007874015748
        },
        {
          "duration": 0.3157890000000023,
          "durationTicks": 384,
          "midi": 46,
          "name": "A#2",
          "ticks": 63360,
          "time": 52.105185,
          "velocity": 0.3937007874015748
        },
        {
          "duration": 0.1578944999999976,
          "durationTicks": 192,
          "midi": 34,
          "name": "A#1",
          "ticks": 63744,
          "time": 52.420974,
          "velocity": 0.3937007874015748
        },
        {
          "duration": 0.3157890000000023,
          "durationTicks": 384,
          "midi": 46,
          "name": "A#2",
          "ticks": 63936,
          "time": 52.5788685,
          "velocity": 0.3937007874015748
        },
        {
          "duration": 0.1578944999999976,
          "durationTicks": 192,
          "midi": 34,
          "name": "A#1",
          "ticks": 64320,
          "time": 52.8946575,
          "velocity": 0.3937007874015748
        },
        {
          "duration": 0.1578944999999976,
          "durationTicks": 192,
          "midi": 36,
          "name": "C2",
          "ticks": 64512,
          "time": 53.052552,
          "velocity": 0.3937007874015748
        },
        {
          "duration": 0.1578945000000047,
          "durationTicks": 192,
          "midi": 36,
          "name": "C2",
          "ticks": 64704,
          "time": 53.210446499999996,
          "velocity": 0.3937007874015748
        },
        {
          "duration": 0.3157889999999952,
          "durationTicks": 384,
          "midi": 48,
          "name": "C3",
          "ticks": 64896,
          "time": 53.368341,
          "velocity": 0.3937007874015748
        },
        {
          "duration": 0.1578945000000047,
          "durationTicks": 192,
          "midi": 36,
          "name": "C2",
          "ticks": 65280,
          "time": 53.684129999999996,
          "velocity": 0.3937007874015748
        },
        {
          "duration": 0.3157889999999952,
          "durationTicks": 384,
          "midi": 48,
          "name": "C3",
          "ticks": 65472,
          "time": 53.8420245,
          "velocity": 0.3937007874015748
        },
        {
          "duration": 0.1578945000000047,
          "durationTicks": 192,
          "midi": 36,
          "name": "C2",
          "ticks": 65856,
          "time": 54.157813499999996,
          "velocity": 0.3937007874015748
        },
        {
          "duration": 0.1578944999999976,
          "durationTicks": 192,
          "midi": 36,
          "name": "C2",
          "ticks": 66048,
          "time": 54.315708,
          "velocity": 0.3937007874015748
        },
        {
          "duration": 0.1578944999999976,
          "durationTicks": 192,
          "midi": 36,
          "name": "C2",
          "ticks": 66240,
          "time": 54.4736025,
          "velocity": 0.3937007874015748
        },
        {
          "duration": 0.3157890000000023,
          "durationTicks": 384,
          "midi": 48,
          "name": "C3",
          "ticks": 66432,
          "time": 54.631496999999996,
          "velocity": 0.3937007874015748
        },
        {
          "duration": 0.1578944999999976,
          "durationTicks": 192,
          "midi": 36,
          "name": "C2",
          "ticks": 66816,
          "time": 54.947286,
          "velocity": 0.3937007874015748
        },
        {
          "duration": 0.3157890000000023,
          "durationTicks": 384,
          "midi": 48,
          "name": "C3",
          "ticks": 67008,
          "time": 55.105180499999996,
          "velocity": 0.3937007874015748
        },
        {
          "duration": 0.1578944999999976,
          "durationTicks": 192,
          "midi": 36,
          "name": "C2",
          "ticks": 67392,
          "time": 55.4209695,
          "velocity": 0.3937007874015748
        },
        {
          "duration": 0.1578945000000047,
          "durationTicks": 192,
          "midi": 37,
          "name": "C#2",
          "ticks": 67584,
          "time": 55.578863999999996,
          "velocity": 0.3937007874015748
        },
        {
          "duration": 0.1578944999999976,
          "durationTicks": 192,
          "midi": 37,
          "name": "C#2",
          "ticks": 67776,
          "time": 55.7367585,
          "velocity": 0.3937007874015748
        },
        {
          "duration": 0.3157890000000023,
          "durationTicks": 384,
          "midi": 49,
          "name": "C#3",
          "ticks": 67968,
          "time": 55.894653,
          "velocity": 0.3937007874015748
        },
        {
          "duration": 0.1578944999999976,
          "durationTicks": 192,
          "midi": 37,
          "name": "C#2",
          "ticks": 68352,
          "time": 56.210442,
          "velocity": 0.3937007874015748
        },
        {
          "duration": 0.3157890000000023,
          "durationTicks": 384,
          "midi": 49,
          "name": "C#3",
          "ticks": 68544,
          "time": 56.3683365,
          "velocity": 0.3937007874015748
        },
        {
          "duration": 0.1578944999999976,
          "durationTicks": 192,
          "midi": 37,
          "name": "C#2",
          "ticks": 68928,
          "time": 56.6841255,
          "velocity": 0.3937007874015748
        },
        {
          "duration": 0.1578944999999976,
          "durationTicks": 192,
          "midi": 37,
          "name": "C#2",
          "ticks": 69120,
          "time": 56.84202,
          "velocity": 0.3937007874015748
        },
        {
          "duration": 0.1578945000000047,
          "durationTicks": 192,
          "midi": 37,
          "name": "C#2",
          "ticks": 69312,
          "time": 56.999914499999996,
          "velocity": 0.3937007874015748
        },
        {
          "duration": 0.3157889999999952,
          "durationTicks": 384,
          "midi": 49,
          "name": "C#3",
          "ticks": 69504,
          "time": 57.157809,
          "velocity": 0.3937007874015748
        },
        {
          "duration": 0.1578945000000047,
          "durationTicks": 192,
          "midi": 37,
          "name": "C#2",
          "ticks": 69888,
          "time": 57.473597999999996,
          "velocity": 0.3937007874015748
        },
        {
          "duration": 0.3157889999999952,
          "durationTicks": 384,
          "midi": 49,
          "name": "C#3",
          "ticks": 70080,
          "time": 57.6314925,
          "velocity": 0.3937007874015748
        },
        {
          "duration": 0.1578945000000047,
          "durationTicks": 192,
          "midi": 37,
          "name": "C#2",
          "ticks": 70464,
          "time": 57.947281499999995,
          "velocity": 0.3937007874015748
        },
        {
          "duration": 0.1578944999999976,
          "durationTicks": 192,
          "midi": 81,
          "name": "A5",
          "ticks": 70656,
          "time": 58.105176,
          "velocity": 0.3937007874015748
        },
        {
          "duration": 0.1578945000000047,
          "durationTicks": 192,
          "midi": 81,
          "name": "A5",
          "ticks": 71040,
          "time": 58.420964999999995,
          "velocity": 0.3937007874015748
        },
        {
          "duration": 0.1578944999999976,
          "durationTicks": 192,
          "midi": 82,
          "name": "A#5",
          "ticks": 71232,
          "time": 58.5788595,
          "velocity": 0.3937007874015748
        },
        {
          "duration": 0.0789472499999988,
          "durationTicks": 96,
          "midi": 53,
          "name": "F3",
          "ticks": 71328,
          "time": 58.65780675,
          "velocity": 0.3937007874015748
        },
        {
          "duration": 0.1578944999999976,
          "durationTicks": 192,
          "midi": 84,
          "name": "C6",
          "ticks": 71424,
          "time": 58.736754,
          "velocity": 0.3937007874015748
        },
        {
          "duration": 0.1578944999999976,
          "durationTicks": 192,
          "midi": 89,
          "name": "F6",
          "ticks": 71808,
          "time": 59.052543,
          "velocity": 0.3937007874015748
        },
        {
          "duration": 0.0789472499999988,
          "durationTicks": 96,
          "midi": 86,
          "name": "D6",
          "ticks": 72192,
          "time": 59.368331999999995,
          "velocity": 0.3937007874015748
        },
        {
          "duration": 0.5526307499999987,
          "durationTicks": 672,
          "midi": 86,
          "name": "D6",
          "ticks": 72270,
          "time": 59.432476640625,
          "velocity": 0.3937007874015748
        },
        {
          "duration": 0.0789472499999988,
          "durationTicks": 96,
          "midi": 84,
          "name": "C6",
          "ticks": 72960,
          "time": 59.99991,
          "velocity": 0.3937007874015748
        },
        {
          "duration": 0.0789472499999988,
          "durationTicks": 96,
          "midi": 84,
          "name": "C6",
          "ticks": 73152,
          "time": 60.1578045,
          "velocity": 0.3937007874015748
        },
        {
          "duration": 0.0789472499999988,
          "durationTicks": 96,
          "midi": 84,
          "name": "C6",
          "ticks": 73344,
          "time": 60.315698999999995,
          "velocity": 0.3937007874015748
        },
        {
          "duration": 0.0789472499999988,
          "durationTicks": 96,
          "midi": 84,
          "name": "C6",
          "ticks": 73536,
          "time": 60.4735935,
          "velocity": 0.3937007874015748
        },
        {
          "duration": 1.1842087500000034,
          "durationTicks": 1440,
          "midi": 44,
          "name": "G#2",
          "ticks": 73728,
          "time": 60.631488,
          "velocity": 0.3937007874015748
        },
        {
          "duration": 0.1578944999999976,
          "durationTicks": 192,
          "midi": 68,
          "name": "G#4",
          "ticks": 73728,
          "time": 60.631488,
          "velocity": 0.3937007874015748
        },
        {
          "duration": 0.3157889999999952,
          "durationTicks": 384,
          "midi": 41,
          "name": "F2",
          "ticks": 74112,
          "time": 60.947277,
          "velocity": 0.3937007874015748
        },
        {
          "duration": 0.1578944999999976,
          "durationTicks": 192,
          "midi": 68,
          "name": "G#4",
          "ticks": 74112,
          "time": 60.947277,
          "velocity": 0.3937007874015748
        },
        {
          "duration": 0.1578944999999976,
          "durationTicks": 192,
          "midi": 70,
          "name": "A#4",
          "ticks": 74304,
          "time": 61.1051715,
          "velocity": 0.3937007874015748
        },
        {
          "duration": 0.1578945000000047,
          "durationTicks": 192,
          "midi": 72,
          "name": "C5",
          "ticks": 74496,
          "time": 61.263065999999995,
          "velocity": 0.3937007874015748
        },
        {
          "duration": 0.1578944999999976,
          "durationTicks": 192,
          "midi": 68,
          "name": "G#4",
          "ticks": 74880,
          "time": 61.578855,
          "velocity": 0.3937007874015748
        },
        {
          "duration": 0.3157890000000023,
          "durationTicks": 384,
          "midi": 41,
          "name": "F2",
          "ticks": 74880,
          "time": 61.578855,
          "velocity": 0.3937007874015748
        },
        {
          "duration": 0.6315779999999975,
          "durationTicks": 768,
          "midi": 44,
          "name": "G#2",
          "ticks": 75264,
          "time": 61.894644,
          "velocity": 0.3937007874015748
        },
        {
          "duration": 0.1578944999999976,
          "durationTicks": 192,
          "midi": 70,
          "name": "A#4",
          "ticks": 75264,
          "time": 61.894644,
          "velocity": 0.3937007874015748
        },
        {
          "duration": 0.1578945000000047,
          "durationTicks": 192,
          "midi": 70,
          "name": "A#4",
          "ticks": 75648,
          "time": 62.210432999999995,
          "velocity": 0.3937007874015748
        },
        {
          "duration": 0.3157890000000023,
          "durationTicks": 384,
          "midi": 41,
          "name": "F2",
          "ticks": 75648,
          "time": 62.210432999999995,
          "velocity": 0.3937007874015748
        },
        {
          "duration": 0.1578944999999976,
          "durationTicks": 192,
          "midi": 72,
          "name": "C5",
          "ticks": 75840,
          "time": 62.3683275,
          "velocity": 0.3937007874015748
        },
        {
          "duration": 0.1578944999999976,
          "durationTicks": 192,
          "midi": 67,
          "name": "G4",
          "ticks": 76032,
          "time": 62.526222,
          "velocity": 0.3937007874015748
        },
        {
          "duration": 0.6315779999999975,
          "durationTicks": 768,
          "midi": 46,
          "name": "A#2",
          "ticks": 76032,
          "time": 62.526222,
          "velocity": 0.3937007874015748
        },
        {
          "duration": 0.3157889999999952,
          "durationTicks": 384,
          "midi": 41,
          "name": "F2",
          "ticks": 76416,
          "time": 62.842011,
          "velocity": 0.3937007874015748
        },
        {
          "duration": 0.1578944999999976,
          "durationTicks": 192,
          "midi": 63,
          "name": "D#4",
          "ticks": 76416,
          "time": 62.842011,
          "velocity": 0.3937007874015748
        },
        {
          "duration": 0.1578945000000047,
          "durationTicks": 192,
          "midi": 68,
          "name": "G#4",
          "ticks": 76800,
          "time": 63.157799999999995,
          "velocity": 0.3937007874015748
        },
        {
          "duration": 1.1842087499999963,
          "durationTicks": 1440,
          "midi": 48,
          "name": "C3",
          "ticks": 76800,
          "time": 63.157799999999995,
          "velocity": 0.3937007874015748
        },
        {
          "duration": 0.3157890000000023,
          "durationTicks": 384,
          "midi": 44,
          "name": "G#2",
          "ticks": 77184,
          "time": 63.473589,
          "velocity": 0.3937007874015748
        },
        {
          "duration": 0.1578944999999976,
          "durationTicks": 192,
          "midi": 68,
          "name": "G#4",
          "ticks": 77184,
          "time": 63.473589,
          "velocity": 0.3937007874015748
        },
        {
          "duration": 0.1578945000000047,
          "durationTicks": 192,
          "midi": 70,
          "name": "A#4",
          "ticks": 77376,
          "time": 63.631483499999995,
          "velocity": 0.3937007874015748
        },
        {
          "duration": 0.1578944999999976,
          "durationTicks": 192,
          "midi": 72,
          "name": "C5",
          "ticks": 77568,
          "time": 63.789378,
          "velocity": 0.3937007874015748
        },
        {
          "duration": 0.1578944999999976,
          "durationTicks": 192,
          "midi": 68,
          "name": "G#4",
          "ticks": 77760,
          "time": 63.9472725,
          "velocity": 0.3937007874015748
        },
        {
          "duration": 0.3157890000000094,
          "durationTicks": 384,
          "midi": 44,
          "name": "G#2",
          "ticks": 77952,
          "time": 64.105167,
          "velocity": 0.3937007874015748
        },
        {
          "duration": 0.1578944999999976,
          "durationTicks": 192,
          "midi": 72,
          "name": "C5",
          "ticks": 77952,
          "time": 64.105167,
          "velocity": 0.3937007874015748
        },
        {
          "duration": 0.15789450000001182,
          "durationTicks": 192,
          "midi": 80,
          "name": "G#5",
          "ticks": 78144,
          "time": 64.26306149999999,
          "velocity": 0.3937007874015748
        },
        {
          "duration": 0.3157889999999952,
          "durationTicks": 384,
          "midi": 79,
          "name": "G5",
          "ticks": 78336,
          "time": 64.420956,
          "velocity": 0.3937007874015748
        },
        {
          "duration": 1.1842087499999963,
          "durationTicks": 1440,
          "midi": 39,
          "name": "D#2",
          "ticks": 78336,
          "time": 64.420956,
          "velocity": 0.3937007874015748
        },
        {
          "duration": 0.3157889999999952,
          "durationTicks": 384,
          "midi": 75,
          "name": "D#5",
          "ticks": 78720,
          "time": 64.736745,
          "velocity": 0.3937007874015748
        },
        {
          "duration": 0.3157889999999952,
          "durationTicks": 384,
          "midi": 44,
          "name": "G#2",
          "ticks": 78720,
          "time": 64.736745,
          "velocity": 0.3937007874015748
        },
        {
          "duration": 0.3157890000000094,
          "durationTicks": 384,
          "midi": 70,
          "name": "A#4",
          "ticks": 79104,
          "time": 65.052534,
          "velocity": 0.3937007874015748
        },
        {
          "duration": 0.3157889999999952,
          "durationTicks": 384,
          "midi": 43,
          "name": "G2",
          "ticks": 79488,
          "time": 65.368323,
          "velocity": 0.3937007874015748
        },
        {
          "duration": 0.3157889999999952,
          "durationTicks": 384,
          "midi": 75,
          "name": "D#5",
          "ticks": 79488,
          "time": 65.368323,
          "velocity": 0.3937007874015748
        },
        {
          "duration": 1.1842087499999963,
          "durationTicks": 1440,
          "midi": 41,
          "name": "F2",
          "ticks": 79872,
          "time": 65.684112,
          "velocity": 0.3937007874015748
        },
        {
          "duration": 0.3157889999999952,
          "durationTicks": 384,
          "midi": 68,
          "name": "G#4",
          "ticks": 79872,
          "time": 65.684112,
          "velocity": 0.3937007874015748
        },
        {
          "duration": 0.3157890000000094,
          "durationTicks": 384,
          "midi": 49,
          "name": "C#3",
          "ticks": 80256,
          "time": 65.999901,
          "velocity": 0.3937007874015748
        },
        {
          "duration": 0.1578944999999976,
          "durationTicks": 192,
          "midi": 68,
          "name": "G#4",
          "ticks": 80256,
          "time": 65.999901,
          "velocity": 0.3937007874015748
        },
        {
          "duration": 0.15789450000001182,
          "durationTicks": 192,
          "midi": 75,
          "name": "D#5",
          "ticks": 80448,
          "time": 66.15779549999999,
          "velocity": 0.3937007874015748
        },
        {
          "duration": 0.1578944999999976,
          "durationTicks": 192,
          "midi": 77,
          "name": "F5",
          "ticks": 80640,
          "time": 66.31569,
          "velocity": 0.3937007874015748
        },
        {
          "duration": 0.3157889999999952,
          "durationTicks": 384,
          "midi": 49,
          "name": "C#3",
          "ticks": 81024,
          "time": 66.631479,
          "velocity": 0.3937007874015748
        },
        {
          "duration": 0.1578944999999976,
          "durationTicks": 192,
          "midi": 72,
          "name": "C5",
          "ticks": 81024,
          "time": 66.631479,
          "velocity": 0.3937007874015748
        },
        {
          "duration": 0.6315780000000046,
          "durationTicks": 768,
          "midi": 41,
          "name": "F2",
          "ticks": 81408,
          "time": 66.947268,
          "velocity": 0.3937007874015748
        },
        {
          "duration": 0.1578944999999976,
          "durationTicks": 192,
          "midi": 70,
          "name": "A#4",
          "ticks": 81408,
          "time": 66.947268,
          "velocity": 0.3937007874015748
        },
        {
          "duration": 0.1578944999999976,
          "durationTicks": 192,
          "midi": 70,
          "name": "A#4",
          "ticks": 81792,
          "time": 67.263057,
          "velocity": 0.3937007874015748
        },
        {
          "duration": 0.3157889999999952,
          "durationTicks": 384,
          "midi": 49,
          "name": "C#3",
          "ticks": 81792,
          "time": 67.263057,
          "velocity": 0.3937007874015748
        },
        {
          "duration": 0.1578944999999976,
          "durationTicks": 192,
          "midi": 72,
          "name": "C5",
          "ticks": 81984,
          "time": 67.4209515,
          "velocity": 0.3937007874015748
        },
        {
          "duration": 0.1578944999999976,
          "durationTicks": 192,
          "midi": 70,
          "name": "A#4",
          "ticks": 82176,
          "time": 67.578846,
          "velocity": 0.3937007874015748
        },
        {
          "duration": 0.6315780000000046,
          "durationTicks": 768,
          "midi": 44,
          "name": "G#2",
          "ticks": 82176,
          "time": 67.578846,
          "velocity": 0.3937007874015748
        },
        {
          "duration": 0.3157890000000094,
          "durationTicks": 384,
          "midi": 49,
          "name": "C#3",
          "ticks": 82560,
          "time": 67.894635,
          "velocity": 0.3937007874015748
        },
        {
          "duration": 0.1578944999999976,
          "durationTicks": 192,
          "midi": 68,
          "name": "G#4",
          "ticks": 82560,
          "time": 67.894635,
          "velocity": 0.3937007874015748
        },
        {
          "duration": 0.1578944999999976,
          "durationTicks": 192,
          "midi": 70,
          "name": "A#4",
          "ticks": 82944,
          "time": 68.210424,
          "velocity": 0.3937007874015748
        },
        {
          "duration": 1.1842087499999963,
          "durationTicks": 1440,
          "midi": 41,
          "name": "F2",
          "ticks": 82944,
          "time": 68.210424,
          "velocity": 0.3937007874015748
        },
        {
          "duration": 0.3157889999999952,
          "durationTicks": 384,
          "midi": 49,
          "name": "C#3",
          "ticks": 83328,
          "time": 68.526213,
          "velocity": 0.3937007874015748
        },
        {
          "duration": 0.1578944999999976,
          "durationTicks": 192,
          "midi": 70,
          "name": "A#4",
          "ticks": 83328,
          "time": 68.526213,
          "velocity": 0.3937007874015748
        },
        {
          "duration": 0.1578944999999976,
          "durationTicks": 192,
          "midi": 72,
          "name": "C5",
          "ticks": 83520,
          "time": 68.6841075,
          "velocity": 0.3937007874015748
        },
        {
          "duration": 0.1578944999999976,
          "durationTicks": 192,
          "midi": 70,
          "name": "A#4",
          "ticks": 83712,
          "time": 68.842002,
          "velocity": 0.3937007874015748
        },
        {
          "duration": 0.3157889999999952,
          "durationTicks": 384,
          "midi": 49,
          "name": "C#3",
          "ticks": 84096,
          "time": 69.157791,
          "velocity": 0.3937007874015748
        },
        {
          "duration": 0.1578944999999976,
          "durationTicks": 192,
          "midi": 68,
          "name": "G#4",
          "ticks": 84096,
          "time": 69.157791,
          "velocity": 0.3937007874015748
        },
        {
          "duration": 1.1842087499999963,
          "durationTicks": 1440,
          "midi": 40,
          "name": "E2",
          "ticks": 84480,
          "time": 69.47358,
          "velocity": 0.3937007874015748
        },
        {
          "duration": 0.6315780000000046,
          "durationTicks": 768,
          "midi": 70,
          "name": "A#4",
          "ticks": 84480,
          "time": 69.47358,
          "velocity": 0.3937007874015748
        },
        {
          "duration": 0.3157890000000094,
          "durationTicks": 384,
          "midi": 48,
          "name": "C3",
          "ticks": 84864,
          "time": 69.789369,
          "velocity": 0.3937007874015748
        },
        {
          "duration": 0.6315779999999904,
          "durationTicks": 768,
          "midi": 72,
          "name": "C5",
          "ticks": 85248,
          "time": 70.105158,
          "velocity": 0.3937007874015748
        },
        {
          "duration": 0.3157889999999952,
          "durationTicks": 384,
          "midi": 48,
          "name": "C3",
          "ticks": 85632,
          "time": 70.420947,
          "velocity": 0.3937007874015748
        },
        {
          "duration": 0.1578944999999976,
          "durationTicks": 192,
          "midi": 68,
          "name": "G#4",
          "ticks": 86016,
          "time": 70.736736,
          "velocity": 0.3937007874015748
        },
        {
          "duration": 1.1842087500000105,
          "durationTicks": 1440,
          "midi": 44,
          "name": "G#2",
          "ticks": 86016,
          "time": 70.736736,
          "velocity": 0.3937007874015748
        },
        {
          "duration": 0.1578944999999976,
          "durationTicks": 192,
          "midi": 68,
          "name": "G#4",
          "ticks": 86400,
          "time": 71.052525,
          "velocity": 0.3937007874015748
        },
        {
          "duration": 0.3157889999999952,
          "durationTicks": 384,
          "midi": 41,
          "name": "F2",
          "ticks": 86400,
          "time": 71.052525,
          "velocity": 0.3937007874015748
        },
        {
          "duration": 0.1578944999999976,
          "durationTicks": 192,
          "midi": 70,
          "name": "A#4",
          "ticks": 86592,
          "time": 71.2104195,
          "velocity": 0.3937007874015748
        },
        {
          "duration": 0.1578944999999976,
          "durationTicks": 192,
          "midi": 72,
          "name": "C5",
          "ticks": 86784,
          "time": 71.368314,
          "velocity": 0.3937007874015748
        },
        {
          "duration": 0.3157890000000094,
          "durationTicks": 384,
          "midi": 41,
          "name": "F2",
          "ticks": 87168,
          "time": 71.684103,
          "velocity": 0.3937007874015748
        },
        {
          "duration": 0.1578944999999976,
          "durationTicks": 192,
          "midi": 68,
          "name": "G#4",
          "ticks": 87168,
          "time": 71.684103,
          "velocity": 0.3937007874015748
        },
        {
          "duration": 0.1578944999999976,
          "durationTicks": 192,
          "midi": 70,
          "name": "A#4",
          "ticks": 87552,
          "time": 71.999892,
          "velocity": 0.3937007874015748
        },
        {
          "duration": 0.6315779999999904,
          "durationTicks": 768,
          "midi": 44,
          "name": "G#2",
          "ticks": 87552,
          "time": 71.999892,
          "velocity": 0.3937007874015748
        },
        {
          "duration": 0.1578944999999976,
          "durationTicks": 192,
          "midi": 70,
          "name": "A#4",
          "ticks": 87936,
          "time": 72.315681,
          "velocity": 0.3937007874015748
        },
        {
          "duration": 0.3157889999999952,
          "durationTicks": 384,
          "midi": 41,
          "name": "F2",
          "ticks": 87936,
          "time": 72.315681,
          "velocity": 0.3937007874015748
        },
        {
          "duration": 0.1578944999999976,
          "durationTicks": 192,
          "midi": 72,
          "name": "C5",
          "ticks": 88128,
          "time": 72.4735755,
          "velocity": 0.3937007874015748
        },
        {
          "duration": 0.6315780000000046,
          "durationTicks": 768,
          "midi": 46,
          "name": "A#2",
          "ticks": 88320,
          "time": 72.63147,
          "velocity": 0.3937007874015748
        },
        {
          "duration": 0.1578944999999976,
          "durationTicks": 192,
          "midi": 67,
          "name": "G4",
          "ticks": 88320,
          "time": 72.63147,
          "velocity": 0.3937007874015748
        },
        {
          "duration": 0.1578944999999976,
          "durationTicks": 192,
          "midi": 63,
          "name": "D#4",
          "ticks": 88704,
          "time": 72.947259,
          "velocity": 0.3937007874015748
        },
        {
          "duration": 0.3157889999999952,
          "durationTicks": 384,
          "midi": 41,
          "name": "F2",
          "ticks": 88704,
          "time": 72.947259,
          "velocity": 0.3937007874015748
        },
        {
          "duration": 1.1842087499999963,
          "durationTicks": 1440,
          "midi": 48,
          "name": "C3",
          "ticks": 89088,
          "time": 73.263048,
          "velocity": 0.3937007874015748
        },
        {
          "duration": 0.1578944999999976,
          "durationTicks": 192,
          "midi": 68,
          "name": "G#4",
          "ticks": 89088,
          "time": 73.263048,
          "velocity": 0.3937007874015748
        },
        {
          "duration": 0.3157890000000094,
          "durationTicks": 384,
          "midi": 44,
          "name": "G#2",
          "ticks": 89472,
          "time": 73.578837,
          "velocity": 0.3937007874015748
        },
        {
          "duration": 0.1578944999999976,
          "durationTicks": 192,
          "midi": 68,
          "name": "G#4",
          "ticks": 89472,
          "time": 73.578837,
          "velocity": 0.3937007874015748
        },
        {
          "duration": 0.15789450000001182,
          "durationTicks": 192,
          "midi": 70,
          "name": "A#4",
          "ticks": 89664,
          "time": 73.73673149999999,
          "velocity": 0.3937007874015748
        },
        {
          "duration": 0.1578944999999976,
          "durationTicks": 192,
          "midi": 72,
          "name": "C5",
          "ticks": 89856,
          "time": 73.894626,
          "velocity": 0.3937007874015748
        },
        {
          "duration": 0.1578944999999976,
          "durationTicks": 192,
          "midi": 68,
          "name": "G#4",
          "ticks": 90048,
          "time": 74.0525205,
          "velocity": 0.3937007874015748
        },
        {
          "duration": 0.3157889999999952,
          "durationTicks": 384,
          "midi": 44,
          "name": "G#2",
          "ticks": 90240,
          "time": 74.210415,
          "velocity": 0.3937007874015748
        },
        {
          "duration": 0.1578944999999976,
          "durationTicks": 192,
          "midi": 72,
          "name": "C5",
          "ticks": 90240,
          "time": 74.210415,
          "velocity": 0.3937007874015748
        },
        {
          "duration": 0.0789472499999988,
          "durationTicks": 96,
          "midi": 53,
          "name": "F3",
          "ticks": 90336,
          "time": 74.28936225,
          "velocity": 0.3937007874015748
        },
        {
          "duration": 0.1578944999999976,
          "durationTicks": 192,
          "midi": 80,
          "name": "G#5",
          "ticks": 90432,
          "time": 74.3683095,
          "velocity": 0.3937007874015748
        },
        {
          "duration": 0.3157890000000094,
          "durationTicks": 384,
          "midi": 79,
          "name": "G5",
          "ticks": 90624,
          "time": 74.52620399999999,
          "velocity": 0.3937007874015748
        },
        {
          "duration": 1.1842087500000105,
          "durationTicks": 1440,
          "midi": 39,
          "name": "D#2",
          "ticks": 90624,
          "time": 74.52620399999999,
          "velocity": 0.3937007874015748
        },
        {
          "duration": 0.3157889999999952,
          "durationTicks": 384,
          "midi": 75,
          "name": "D#5",
          "ticks": 91008,
          "time": 74.841993,
          "velocity": 0.3937007874015748
        },
        {
          "duration": 0.3157889999999952,
          "durationTicks": 384,
          "midi": 44,
          "name": "G#2",
          "ticks": 91008,
          "time": 74.841993,
          "velocity": 0.3937007874015748
        },
        {
          "duration": 0.3157889999999952,
          "durationTicks": 384,
          "midi": 70,
          "name": "A#4",
          "ticks": 91392,
          "time": 75.157782,
          "velocity": 0.3937007874015748
        },
        {
          "duration": 0.3157890000000094,
          "durationTicks": 384,
          "midi": 67,
          "name": "G4",
          "ticks": 91776,
          "time": 75.47357099999999,
          "velocity": 0.3937007874015748
        },
        {
          "duration": 0.3157890000000094,
          "durationTicks": 384,
          "midi": 43,
          "name": "G2",
          "ticks": 91776,
          "time": 75.47357099999999,
          "velocity": 0.3937007874015748
        },
        {
          "duration": 1.1842087499999963,
          "durationTicks": 1440,
          "midi": 41,
          "name": "F2",
          "ticks": 92160,
          "time": 75.78936,
          "velocity": 0.3937007874015748
        },
        {
          "duration": 0.3157889999999952,
          "durationTicks": 384,
          "midi": 68,
          "name": "G#4",
          "ticks": 92160,
          "time": 75.78936,
          "velocity": 0.3937007874015748
        },
        {
          "duration": 0.1578944999999976,
          "durationTicks": 192,
          "midi": 68,
          "name": "G#4",
          "ticks": 92544,
          "time": 76.105149,
          "velocity": 0.3937007874015748
        },
        {
          "duration": 0.3157889999999952,
          "durationTicks": 384,
          "midi": 49,
          "name": "C#3",
          "ticks": 92544,
          "time": 76.105149,
          "velocity": 0.3937007874015748
        },
        {
          "duration": 0.1578944999999976,
          "durationTicks": 192,
          "midi": 75,
          "name": "D#5",
          "ticks": 92736,
          "time": 76.2630435,
          "velocity": 0.3937007874015748
        },
        {
          "duration": 0.1578944999999976,
          "durationTicks": 192,
          "midi": 77,
          "name": "F5",
          "ticks": 92928,
          "time": 76.42093799999999,
          "velocity": 0.3937007874015748
        },
        {
          "duration": 0.3157889999999952,
          "durationTicks": 384,
          "midi": 49,
          "name": "C#3",
          "ticks": 93312,
          "time": 76.736727,
          "velocity": 0.3937007874015748
        },
        {
          "duration": 0.1578944999999976,
          "durationTicks": 192,
          "midi": 72,
          "name": "C5",
          "ticks": 93312,
          "time": 76.736727,
          "velocity": 0.3937007874015748
        },
        {
          "duration": 0.1578944999999976,
          "durationTicks": 192,
          "midi": 70,
          "name": "A#4",
          "ticks": 93696,
          "time": 77.052516,
          "velocity": 0.3937007874015748
        },
        {
          "duration": 0.6315780000000046,
          "durationTicks": 768,
          "midi": 41,
          "name": "F2",
          "ticks": 93696,
          "time": 77.052516,
          "velocity": 0.3937007874015748
        },
        {
          "duration": 0.3157890000000094,
          "durationTicks": 384,
          "midi": 49,
          "name": "C#3",
          "ticks": 94080,
          "time": 77.36830499999999,
          "velocity": 0.3937007874015748
        },
        {
          "duration": 0.1578944999999976,
          "durationTicks": 192,
          "midi": 70,
          "name": "A#4",
          "ticks": 94080,
          "time": 77.36830499999999,
          "velocity": 0.3937007874015748
        },
        {
          "duration": 0.15789450000001182,
          "durationTicks": 192,
          "midi": 72,
          "name": "C5",
          "ticks": 94272,
          "time": 77.52619949999999,
          "velocity": 0.3937007874015748
        },
        {
          "duration": 0.6315779999999904,
          "durationTicks": 768,
          "midi": 44,
          "name": "G#2",
          "ticks": 94464,
          "time": 77.684094,
          "velocity": 0.3937007874015748
        },
        {
          "duration": 0.1578944999999976,
          "durationTicks": 192,
          "midi": 70,
          "name": "A#4",
          "ticks": 94464,
          "time": 77.684094,
          "velocity": 0.3937007874015748
        },
        {
          "duration": 0.3157889999999952,
          "durationTicks": 384,
          "midi": 49,
          "name": "C#3",
          "ticks": 94848,
          "time": 77.999883,
          "velocity": 0.3937007874015748
        },
        {
          "duration": 0.1578944999999976,
          "durationTicks": 192,
          "midi": 68,
          "name": "G#4",
          "ticks": 94848,
          "time": 77.999883,
          "velocity": 0.3937007874015748
        },
        {
          "duration": 1.1842087500000105,
          "durationTicks": 1440,
          "midi": 41,
          "name": "F2",
          "ticks": 95232,
          "time": 78.31567199999999,
          "velocity": 0.3937007874015748
        },
        {
          "duration": 0.1578944999999976,
          "durationTicks": 192,
          "midi": 70,
          "name": "A#4",
          "ticks": 95232,
          "time": 78.31567199999999,
          "velocity": 0.3937007874015748
        },
        {
          "duration": 0.1578944999999976,
          "durationTicks": 192,
          "midi": 70,
          "name": "A#4",
          "ticks": 95616,
          "time": 78.631461,
          "velocity": 0.3937007874015748
        },
        {
          "duration": 0.3157889999999952,
          "durationTicks": 384,
          "midi": 49,
          "name": "C#3",
          "ticks": 95616,
          "time": 78.631461,
          "velocity": 0.3937007874015748
        },
        {
          "duration": 0.1578944999999976,
          "durationTicks": 192,
          "midi": 72,
          "name": "C5",
          "ticks": 95808,
          "time": 78.7893555,
          "velocity": 0.3937007874015748
        },
        {
          "duration": 0.1578944999999976,
          "durationTicks": 192,
          "midi": 70,
          "name": "A#4",
          "ticks": 96000,
          "time": 78.94725,
          "velocity": 0.3937007874015748
        },
        {
          "duration": 0.3157890000000094,
          "durationTicks": 384,
          "midi": 49,
          "name": "C#3",
          "ticks": 96384,
          "time": 79.26303899999999,
          "velocity": 0.3937007874015748
        },
        {
          "duration": 0.1578944999999976,
          "durationTicks": 192,
          "midi": 68,
          "name": "G#4",
          "ticks": 96384,
          "time": 79.26303899999999,
          "velocity": 0.3937007874015748
        },
        {
          "duration": 0.6315779999999904,
          "durationTicks": 768,
          "midi": 70,
          "name": "A#4",
          "ticks": 96768,
          "time": 79.578828,
          "velocity": 0.3937007874015748
        },
        {
          "duration": 1.1842087499999963,
          "durationTicks": 1440,
          "midi": 40,
          "name": "E2",
          "ticks": 96768,
          "time": 79.578828,
          "velocity": 0.3937007874015748
        },
        {
          "duration": 0.3157889999999952,
          "durationTicks": 384,
          "midi": 48,
          "name": "C3",
          "ticks": 97152,
          "time": 79.894617,
          "velocity": 0.3937007874015748
        },
        {
          "duration": 0.6315780000000046,
          "durationTicks": 768,
          "midi": 72,
          "name": "C5",
          "ticks": 97536,
          "time": 80.21040599999999,
          "velocity": 0.3937007874015748
        },
        {
          "duration": 0.3157889999999952,
          "durationTicks": 384,
          "midi": 48,
          "name": "C3",
          "ticks": 97920,
          "time": 80.526195,
          "velocity": 0.3937007874015748
        },
        {
          "duration": 1.1842087499999963,
          "durationTicks": 1440,
          "midi": 44,
          "name": "G#2",
          "ticks": 98304,
          "time": 80.841984,
          "velocity": 0.3937007874015748
        },
        {
          "duration": 0.1578944999999976,
          "durationTicks": 192,
          "midi": 68,
          "name": "G#4",
          "ticks": 98304,
          "time": 80.841984,
          "velocity": 0.3937007874015748
        },
        {
          "duration": 0.3157890000000094,
          "durationTicks": 384,
          "midi": 41,
          "name": "F2",
          "ticks": 98688,
          "time": 81.15777299999999,
          "velocity": 0.3937007874015748
        },
        {
          "duration": 0.15789450000001182,
          "durationTicks": 192,
          "midi": 68,
          "name": "G#4",
          "ticks": 98688,
          "time": 81.15777299999999,
          "velocity": 0.3937007874015748
        },
        {
          "duration": 0.1578944999999976,
          "durationTicks": 192,
          "midi": 70,
          "name": "A#4",
          "ticks": 98880,
          "time": 81.3156675,
          "velocity": 0.3937007874015748
        },
        {
          "duration": 0.1578944999999976,
          "durationTicks": 192,
          "midi": 72,
          "name": "C5",
          "ticks": 99072,
          "time": 81.473562,
          "velocity": 0.3937007874015748
        },
        {
          "duration": 0.3157889999999952,
          "durationTicks": 384,
          "midi": 41,
          "name": "F2",
          "ticks": 99456,
          "time": 81.789351,
          "velocity": 0.3937007874015748
        },
        {
          "duration": 0.1578944999999976,
          "durationTicks": 192,
          "midi": 68,
          "name": "G#4",
          "ticks": 99456,
          "time": 81.789351,
          "velocity": 0.3937007874015748
        },
        {
          "duration": 0.6315780000000046,
          "durationTicks": 768,
          "midi": 44,
          "name": "G#2",
          "ticks": 99840,
          "time": 82.10513999999999,
          "velocity": 0.3937007874015748
        },
        {
          "duration": 0.15789450000001182,
          "durationTicks": 192,
          "midi": 70,
          "name": "A#4",
          "ticks": 99840,
          "time": 82.10513999999999,
          "velocity": 0.3937007874015748
        },
        {
          "duration": 0.1578944999999976,
          "durationTicks": 192,
          "midi": 70,
          "name": "A#4",
          "ticks": 100224,
          "time": 82.420929,
          "velocity": 0.3937007874015748
        },
        {
          "duration": 0.3157889999999952,
          "durationTicks": 384,
          "midi": 41,
          "name": "F2",
          "ticks": 100224,
          "time": 82.420929,
          "velocity": 0.3937007874015748
        },
        {
          "duration": 0.1578944999999976,
          "durationTicks": 192,
          "midi": 72,
          "name": "C5",
          "ticks": 100416,
          "time": 82.5788235,
          "velocity": 0.3937007874015748
        },
        {
          "duration": 0.1578944999999976,
          "durationTicks": 192,
          "midi": 67,
          "name": "G4",
          "ticks": 100608,
          "time": 82.736718,
          "velocity": 0.3937007874015748
        },
        {
          "duration": 0.6315780000000046,
          "durationTicks": 768,
          "midi": 46,
          "name": "A#2",
          "ticks": 100608,
          "time": 82.736718,
          "velocity": 0.3937007874015748
        },
        {
          "duration": 0.15789450000001182,
          "durationTicks": 192,
          "midi": 63,
          "name": "D#4",
          "ticks": 100992,
          "time": 83.05250699999999,
          "velocity": 0.3937007874015748
        },
        {
          "duration": 0.3157890000000094,
          "durationTicks": 384,
          "midi": 41,
          "name": "F2",
          "ticks": 100992,
          "time": 83.05250699999999,
          "velocity": 0.3937007874015748
        },
        {
          "duration": 0.1578944999999976,
          "durationTicks": 192,
          "midi": 68,
          "name": "G#4",
          "ticks": 101376,
          "time": 83.368296,
          "velocity": 0.3937007874015748
        },
        {
          "duration": 1.1842087499999963,
          "durationTicks": 1440,
          "midi": 48,
          "name": "C3",
          "ticks": 101376,
          "time": 83.368296,
          "velocity": 0.3937007874015748
        },
        {
          "duration": 0.1578944999999976,
          "durationTicks": 192,
          "midi": 68,
          "name": "G#4",
          "ticks": 101760,
          "time": 83.684085,
          "velocity": 0.3937007874015748
        },
        {
          "duration": 0.3157889999999952,
          "durationTicks": 384,
          "midi": 44,
          "name": "G#2",
          "ticks": 101760,
          "time": 83.684085,
          "velocity": 0.3937007874015748
        },
        {
          "duration": 0.1578944999999976,
          "durationTicks": 192,
          "midi": 70,
          "name": "A#4",
          "ticks": 101952,
          "time": 83.8419795,
          "velocity": 0.3937007874015748
        },
        {
          "duration": 0.15789450000001182,
          "durationTicks": 192,
          "midi": 72,
          "name": "C5",
          "ticks": 102144,
          "time": 83.99987399999999,
          "velocity": 0.3937007874015748
        },
        {
          "duration": 0.1578944999999976,
          "durationTicks": 192,
          "midi": 68,
          "name": "G#4",
          "ticks": 102336,
          "time": 84.1577685,
          "velocity": 0.3937007874015748
        },
        {
          "duration": 0.1578944999999976,
          "durationTicks": 192,
          "midi": 72,
          "name": "C5",
          "ticks": 102528,
          "time": 84.315663,
          "velocity": 0.3937007874015748
        },
        {
          "duration": 0.3157889999999952,
          "durationTicks": 384,
          "midi": 44,
          "name": "G#2",
          "ticks": 102528,
          "time": 84.315663,
          "velocity": 0.3937007874015748
        },
        {
          "duration": 0.1578944999999976,
          "durationTicks": 192,
          "midi": 80,
          "name": "G#5",
          "ticks": 102720,
          "time": 84.4735575,
          "velocity": 0.3937007874015748
        },
        {
          "duration": 1.1842087499999963,
          "durationTicks": 1440,
          "midi": 39,
          "name": "D#2",
          "ticks": 102912,
          "time": 84.631452,
          "velocity": 0.3937007874015748
        },
        {
          "duration": 0.3157889999999952,
          "durationTicks": 384,
          "midi": 79,
          "name": "G5",
          "ticks": 102912,
          "time": 84.631452,
          "velocity": 0.3937007874015748
        },
        {
          "duration": 0.3157890000000094,
          "durationTicks": 384,
          "midi": 44,
          "name": "G#2",
          "ticks": 103296,
          "time": 84.94724099999999,
          "velocity": 0.3937007874015748
        },
        {
          "duration": 0.3157890000000094,
          "durationTicks": 384,
          "midi": 75,
          "name": "D#5",
          "ticks": 103296,
          "time": 84.94724099999999,
          "velocity": 0.3937007874015748
        },
        {
          "duration": 0.3157889999999952,
          "durationTicks": 384,
          "midi": 70,
          "name": "A#4",
          "ticks": 103680,
          "time": 85.26303,
          "velocity": 0.3937007874015748
        },
        {
          "duration": 0.3157889999999952,
          "durationTicks": 384,
          "midi": 75,
          "name": "D#5",
          "ticks": 104064,
          "time": 85.578819,
          "velocity": 0.3937007874015748
        },
        {
          "duration": 0.3157889999999952,
          "durationTicks": 384,
          "midi": 43,
          "name": "G2",
          "ticks": 104064,
          "time": 85.578819,
          "velocity": 0.3937007874015748
        },
        {
          "duration": 1.1842087500000105,
          "durationTicks": 1440,
          "midi": 41,
          "name": "F2",
          "ticks": 104448,
          "time": 85.89460799999999,
          "velocity": 0.3937007874015748
        },
        {
          "duration": 0.3157890000000094,
          "durationTicks": 384,
          "midi": 77,
          "name": "F5",
          "ticks": 104448,
          "time": 85.89460799999999,
          "velocity": 0.3937007874015748
        },
        {
          "duration": 0.3157889999999952,
          "durationTicks": 384,
          "midi": 49,
          "name": "C#3",
          "ticks": 104832,
          "time": 86.210397,
          "velocity": 0.3937007874015748
        },
        {
          "duration": 0.1578944999999976,
          "durationTicks": 192,
          "midi": 72,
          "name": "C5",
          "ticks": 104832,
          "time": 86.210397,
          "velocity": 0.3937007874015748
        },
        {
          "duration": 0.1578944999999976,
          "durationTicks": 192,
          "midi": 75,
          "name": "D#5",
          "ticks": 105024,
          "time": 86.3682915,
          "velocity": 0.3937007874015748
        },
        {
          "duration": 0.1578944999999976,
          "durationTicks": 192,
          "midi": 77,
          "name": "F5",
          "ticks": 105216,
          "time": 86.526186,
          "velocity": 0.3937007874015748
        },
        {
          "duration": 0.15789450000001182,
          "durationTicks": 192,
          "midi": 72,
          "name": "C5",
          "ticks": 105600,
          "time": 86.84197499999999,
          "velocity": 0.3937007874015748
        },
        {
          "duration": 0.3157890000000094,
          "durationTicks": 384,
          "midi": 49,
          "name": "C#3",
          "ticks": 105600,
          "time": 86.84197499999999,
          "velocity": 0.3937007874015748
        },
        {
          "duration": 0.6315779999999904,
          "durationTicks": 768,
          "midi": 41,
          "name": "F2",
          "ticks": 105984,
          "time": 87.157764,
          "velocity": 0.3937007874015748
        },
        {
          "duration": 0.1578944999999976,
          "durationTicks": 192,
          "midi": 70,
          "name": "A#4",
          "ticks": 105984,
          "time": 87.157764,
          "velocity": 0.3937007874015748
        },
        {
          "duration": 0.3157889999999952,
          "durationTicks": 384,
          "midi": 49,
          "name": "C#3",
          "ticks": 106368,
          "time": 87.473553,
          "velocity": 0.3937007874015748
        },
        {
          "duration": 0.1578944999999976,
          "durationTicks": 192,
          "midi": 70,
          "name": "A#4",
          "ticks": 106368,
          "time": 87.473553,
          "velocity": 0.3937007874015748
        },
        {
          "duration": 0.1578944999999976,
          "durationTicks": 192,
          "midi": 72,
          "name": "C5",
          "ticks": 106560,
          "time": 87.6314475,
          "velocity": 0.3937007874015748
        },
        {
          "duration": 0.15789450000001182,
          "durationTicks": 192,
          "midi": 70,
          "name": "A#4",
          "ticks": 106752,
          "time": 87.78934199999999,
          "velocity": 0.3937007874015748
        },
        {
          "duration": 0.6315780000000046,
          "durationTicks": 768,
          "midi": 44,
          "name": "G#2",
          "ticks": 106752,
          "time": 87.78934199999999,
          "velocity": 0.3937007874015748
        },
        {
          "duration": 0.3157889999999952,
          "durationTicks": 384,
          "midi": 49,
          "name": "C#3",
          "ticks": 107136,
          "time": 88.105131,
          "velocity": 0.3937007874015748
        },
        {
          "duration": 0.1578944999999976,
          "durationTicks": 192,
          "midi": 68,
          "name": "G#4",
          "ticks": 107136,
          "time": 88.105131,
          "velocity": 0.3937007874015748
        },
        {
          "duration": 1.1842087499999963,
          "durationTicks": 1440,
          "midi": 41,
          "name": "F2",
          "ticks": 107520,
          "time": 88.42092,
          "velocity": 0.3937007874015748
        },
        {
          "duration": 0.1578944999999976,
          "durationTicks": 192,
          "midi": 65,
          "name": "F4",
          "ticks": 107520,
          "time": 88.42092,
          "velocity": 0.3937007874015748
        },
        {
          "duration": 0.1578944999999976,
          "durationTicks": 192,
          "midi": 68,
          "name": "G#4",
          "ticks": 107712,
          "time": 88.5788145,
          "velocity": 0.3937007874015748
        },
        {
          "duration": 0.3157890000000094,
          "durationTicks": 384,
          "midi": 49,
          "name": "C#3",
          "ticks": 107904,
          "time": 88.73670899999999,
          "velocity": 0.3937007874015748
        },
        {
          "duration": 0.15789450000001182,
          "durationTicks": 192,
          "midi": 70,
          "name": "A#4",
          "ticks": 107904,
          "time": 88.73670899999999,
          "velocity": 0.3937007874015748
        },
        {
          "duration": 0.1578944999999976,
          "durationTicks": 192,
          "midi": 72,
          "name": "C5",
          "ticks": 108096,
          "time": 88.8946035,
          "velocity": 0.3937007874015748
        },
        {
          "duration": 0.1578944999999976,
          "durationTicks": 192,
          "midi": 75,
          "name": "D#5",
          "ticks": 108288,
          "time": 89.052498,
          "velocity": 0.3937007874015748
        },
        {
          "duration": 0.1578944999999976,
          "durationTicks": 192,
          "midi": 72,
          "name": "C5",
          "ticks": 108480,
          "time": 89.2103925,
          "velocity": 0.3937007874015748
        },
        {
          "duration": 0.1578944999999976,
          "durationTicks": 192,
          "midi": 70,
          "name": "A#4",
          "ticks": 108672,
          "time": 89.368287,
          "velocity": 0.3937007874015748
        },
        {
          "duration": 0.3157889999999952,
          "durationTicks": 384,
          "midi": 49,
          "name": "C#3",
          "ticks": 108672,
          "time": 89.368287,
          "velocity": 0.3937007874015748
        },
        {
          "duration": 0.1578944999999976,
          "durationTicks": 192,
          "midi": 68,
          "name": "G#4",
          "ticks": 108864,
          "time": 89.52618149999999,
          "velocity": 0.3937007874015748
        },
        {
          "duration": 1.1842087500000105,
          "durationTicks": 1440,
          "midi": 40,
          "name": "E2",
          "ticks": 109056,
          "time": 89.68407599999999,
          "velocity": 0.3937007874015748
        },
        {
          "duration": 0.0789472499999988,
          "durationTicks": 96,
          "midi": 70,
          "name": "A#4",
          "ticks": 109056,
          "time": 89.68407599999999,
          "velocity": 0.3937007874015748
        },
        {
          "duration": 0.07894725000001301,
          "durationTicks": 96,
          "midi": 67,
          "name": "G4",
          "ticks": 109152,
          "time": 89.76302324999999,
          "velocity": 0.3937007874015748
        },
        {
          "duration": 0.0789472499999988,
          "durationTicks": 96,
          "midi": 65,
          "name": "F4",
          "ticks": 109248,
          "time": 89.8419705,
          "velocity": 0.3937007874015748
        },
        {
          "duration": 0.0789472499999988,
          "durationTicks": 96,
          "midi": 63,
          "name": "D#4",
          "ticks": 109344,
          "time": 89.92091775,
          "velocity": 0.3937007874015748
        },
        {
          "duration": 0.3157889999999952,
          "durationTicks": 384,
          "midi": 48,
          "name": "C3",
          "ticks": 109440,
          "time": 89.999865,
          "velocity": 0.3937007874015748
        },
        {
          "duration": 0.0789472499999988,
          "durationTicks": 96,
          "midi": 70,
          "name": "A#4",
          "ticks": 109440,
          "time": 89.999865,
          "velocity": 0.3937007874015748
        },
        {
          "duration": 0.0789472499999988,
          "durationTicks": 96,
          "midi": 67,
          "name": "G4",
          "ticks": 109536,
          "time": 90.07881225,
          "velocity": 0.3937007874015748
        },
        {
          "duration": 0.0789472499999988,
          "durationTicks": 96,
          "midi": 65,
          "name": "F4",
          "ticks": 109632,
          "time": 90.1577595,
          "velocity": 0.3937007874015748
        },
        {
          "duration": 0.0789472499999988,
          "durationTicks": 96,
          "midi": 63,
          "name": "D#4",
          "ticks": 109728,
          "time": 90.23670675,
          "velocity": 0.3937007874015748
        },
        {
          "duration": 0.0789472499999988,
          "durationTicks": 96,
          "midi": 72,
          "name": "C5",
          "ticks": 109824,
          "time": 90.315654,
          "velocity": 0.3937007874015748
        },
        {
          "duration": 0.0789472499999988,
          "durationTicks": 96,
          "midi": 68,
          "name": "G#4",
          "ticks": 109920,
          "time": 90.39460125,
          "velocity": 0.3937007874015748
        },
        {
          "duration": 0.0789472499999988,
          "durationTicks": 96,
          "midi": 64,
          "name": "E4",
          "ticks": 110016,
          "time": 90.47354849999999,
          "velocity": 0.3937007874015748
        },
        {
          "duration": 0.0789472499999988,
          "durationTicks": 96,
          "midi": 60,
          "name": "C4",
          "ticks": 110112,
          "time": 90.55249574999999,
          "velocity": 0.3937007874015748
        },
        {
          "duration": 0.0789472499999988,
          "durationTicks": 96,
          "midi": 72,
          "name": "C5",
          "ticks": 110208,
          "time": 90.63144299999999,
          "velocity": 0.3937007874015748
        },
        {
          "duration": 0.3157890000000094,
          "durationTicks": 384,
          "midi": 48,
          "name": "C3",
          "ticks": 110208,
          "time": 90.63144299999999,
          "velocity": 0.3937007874015748
        },
        {
          "duration": 0.07894725000001301,
          "durationTicks": 96,
          "midi": 68,
          "name": "G#4",
          "ticks": 110304,
          "time": 90.71039024999999,
          "velocity": 0.3937007874015748
        },
        {
          "duration": 0.0789472499999988,
          "durationTicks": 96,
          "midi": 64,
          "name": "E4",
          "ticks": 110400,
          "time": 90.7893375,
          "velocity": 0.3937007874015748
        },
        {
          "duration": 0.0789472499999988,
          "durationTicks": 96,
          "midi": 60,
          "name": "C4",
          "ticks": 110496,
          "time": 90.86828475,
          "velocity": 0.3937007874015748
        },
        {
          "duration": 0.1578944999999976,
          "durationTicks": 192,
          "midi": 68,
          "name": "G#4",
          "ticks": 110592,
          "time": 90.947232,
          "velocity": 0.3937007874015748
        },
        {
          "duration": 1.1842087499999963,
          "durationTicks": 1440,
          "midi": 44,
          "name": "G#2",
          "ticks": 110592,
          "time": 90.947232,
          "velocity": 0.3937007874015748
        },
        {
          "duration": 0.1578944999999976,
          "durationTicks": 192,
          "midi": 68,
          "name": "G#4",
          "ticks": 110976,
          "time": 91.263021,
          "velocity": 0.3937007874015748
        },
        {
          "duration": 0.3157889999999952,
          "durationTicks": 384,
          "midi": 41,
          "name": "F2",
          "ticks": 110976,
          "time": 91.263021,
          "velocity": 0.3937007874015748
        },
        {
          "duration": 0.1578944999999976,
          "durationTicks": 192,
          "midi": 70,
          "name": "A#4",
          "ticks": 111168,
          "time": 91.42091549999999,
          "velocity": 0.3937007874015748
        },
        {
          "duration": 0.15789450000001182,
          "durationTicks": 192,
          "midi": 72,
          "name": "C5",
          "ticks": 111360,
          "time": 91.57880999999999,
          "velocity": 0.3937007874015748
        },
        {
          "duration": 0.3157889999999952,
          "durationTicks": 384,
          "midi": 41,
          "name": "F2",
          "ticks": 111744,
          "time": 91.894599,
          "velocity": 0.3937007874015748
        },
        {
          "duration": 0.1578944999999976,
          "durationTicks": 192,
          "midi": 68,
          "name": "G#4",
          "ticks": 111744,
          "time": 91.894599,
          "velocity": 0.3937007874015748
        },
        {
          "duration": 0.6315780000000046,
          "durationTicks": 768,
          "midi": 44,
          "name": "G#2",
          "ticks": 112128,
          "time": 92.210388,
          "velocity": 0.3937007874015748
        },
        {
          "duration": 0.1578944999999976,
          "durationTicks": 192,
          "midi": 70,
          "name": "A#4",
          "ticks": 112128,
          "time": 92.210388,
          "velocity": 0.3937007874015748
        },
        {
          "duration": 0.15789450000001182,
          "durationTicks": 192,
          "midi": 70,
          "name": "A#4",
          "ticks": 112512,
          "time": 92.52617699999999,
          "velocity": 0.3937007874015748
        },
        {
          "duration": 0.3157890000000094,
          "durationTicks": 384,
          "midi": 41,
          "name": "F2",
          "ticks": 112512,
          "time": 92.52617699999999,
          "velocity": 0.3937007874015748
        },
        {
          "duration": 0.1578944999999976,
          "durationTicks": 192,
          "midi": 72,
          "name": "C5",
          "ticks": 112704,
          "time": 92.6840715,
          "velocity": 0.3937007874015748
        },
        {
          "duration": 0.6315779999999904,
          "durationTicks": 768,
          "midi": 46,
          "name": "A#2",
          "ticks": 112896,
          "time": 92.841966,
          "velocity": 0.3937007874015748
        },
        {
          "duration": 0.1578944999999976,
          "durationTicks": 192,
          "midi": 67,
          "name": "G4",
          "ticks": 112896,
          "time": 92.841966,
          "velocity": 0.3937007874015748
        },
        {
          "duration": 0.1578944999999976,
          "durationTicks": 192,
          "midi": 63,
          "name": "D#4",
          "ticks": 113280,
          "time": 93.157755,
          "velocity": 0.3937007874015748
        },
        {
          "duration": 0.3157889999999952,
          "durationTicks": 384,
          "midi": 41,
          "name": "F2",
          "ticks": 113280,
          "time": 93.157755,
          "velocity": 0.3937007874015748
        },
        {
          "duration": 1.1842087500000105,
          "durationTicks": 1440,
          "midi": 48,
          "name": "C3",
          "ticks": 113664,
          "time": 93.47354399999999,
          "velocity": 0.3937007874015748
        },
        {
          "duration": 0.15789450000001182,
          "durationTicks": 192,
          "midi": 68,
          "name": "G#4",
          "ticks": 113664,
          "time": 93.47354399999999,
          "velocity": 0.3937007874015748
        },
        {
          "duration": 0.1578944999999976,
          "durationTicks": 192,
          "midi": 68,
          "name": "G#4",
          "ticks": 114048,
          "time": 93.789333,
          "velocity": 0.3937007874015748
        },
        {
          "duration": 0.3157889999999952,
          "durationTicks": 384,
          "midi": 44,
          "name": "G#2",
          "ticks": 114048,
          "time": 93.789333,
          "velocity": 0.3937007874015748
        },
        {
          "duration": 0.1578944999999976,
          "durationTicks": 192,
          "midi": 70,
          "name": "A#4",
          "ticks": 114240,
          "time": 93.9472275,
          "velocity": 0.3937007874015748
        },
        {
          "duration": 0.1578944999999976,
          "durationTicks": 192,
          "midi": 72,
          "name": "C5",
          "ticks": 114432,
          "time": 94.105122,
          "velocity": 0.3937007874015748
        },
        {
          "duration": 0.1578944999999976,
          "durationTicks": 192,
          "midi": 68,
          "name": "G#4",
          "ticks": 114624,
          "time": 94.26301649999999,
          "velocity": 0.3937007874015748
        },
        {
          "duration": 0.3157890000000094,
          "durationTicks": 384,
          "midi": 44,
          "name": "G#2",
          "ticks": 114816,
          "time": 94.42091099999999,
          "velocity": 0.3937007874015748
        },
        {
          "duration": 0.15789450000001182,
          "durationTicks": 192,
          "midi": 72,
          "name": "C5",
          "ticks": 114816,
          "time": 94.42091099999999,
          "velocity": 0.3937007874015748
        },
        {
          "duration": 0.1578944999999976,
          "durationTicks": 192,
          "midi": 80,
          "name": "G#5",
          "ticks": 115008,
          "time": 94.5788055,
          "velocity": 0.3937007874015748
        },
        {
          "duration": 1.1842087499999963,
          "durationTicks": 1440,
          "midi": 39,
          "name": "D#2",
          "ticks": 115200,
          "time": 94.7367,
          "velocity": 0.3937007874015748
        },
        {
          "duration": 0.3157889999999952,
          "durationTicks": 384,
          "midi": 79,
          "name": "G5",
          "ticks": 115200,
          "time": 94.7367,
          "velocity": 0.3937007874015748
        },
        {
          "duration": 0.3157889999999952,
          "durationTicks": 384,
          "midi": 75,
          "name": "D#5",
          "ticks": 115584,
          "time": 95.052489,
          "velocity": 0.3937007874015748
        },
        {
          "duration": 0.3157889999999952,
          "durationTicks": 384,
          "midi": 44,
          "name": "G#2",
          "ticks": 115584,
          "time": 95.052489,
          "velocity": 0.3937007874015748
        },
        {
          "duration": 0.3157890000000094,
          "durationTicks": 384,
          "midi": 70,
          "name": "A#4",
          "ticks": 115968,
          "time": 95.36827799999999,
          "velocity": 0.3937007874015748
        },
        {
          "duration": 0.3157889999999952,
          "durationTicks": 384,
          "midi": 75,
          "name": "D#5",
          "ticks": 116352,
          "time": 95.684067,
          "velocity": 0.3937007874015748
        },
        {
          "duration": 0.3157889999999952,
          "durationTicks": 384,
          "midi": 43,
          "name": "G2",
          "ticks": 116352,
          "time": 95.684067,
          "velocity": 0.3937007874015748
        },
        {
          "duration": 1.1842087499999963,
          "durationTicks": 1440,
          "midi": 41,
          "name": "F2",
          "ticks": 116736,
          "time": 95.999856,
          "velocity": 0.3937007874015748
        },
        {
          "duration": 0.3157889999999952,
          "durationTicks": 384,
          "midi": 77,
          "name": "F5",
          "ticks": 116736,
          "time": 95.999856,
          "velocity": 0.3937007874015748
        },
        {
          "duration": 0.3157890000000094,
          "durationTicks": 384,
          "midi": 49,
          "name": "C#3",
          "ticks": 117120,
          "time": 96.31564499999999,
          "velocity": 0.3937007874015748
        },
        {
          "duration": 0.15789450000001182,
          "durationTicks": 192,
          "midi": 72,
          "name": "C5",
          "ticks": 117120,
          "time": 96.31564499999999,
          "velocity": 0.3937007874015748
        },
        {
          "duration": 0.1578944999999976,
          "durationTicks": 192,
          "midi": 75,
          "name": "D#5",
          "ticks": 117312,
          "time": 96.4735395,
          "velocity": 0.3937007874015748
        },
        {
          "duration": 0.1578944999999976,
          "durationTicks": 192,
          "midi": 77,
          "name": "F5",
          "ticks": 117504,
          "time": 96.631434,
          "velocity": 0.3937007874015748
        },
        {
          "duration": 0.1578944999999976,
          "durationTicks": 192,
          "midi": 72,
          "name": "C5",
          "ticks": 117888,
          "time": 96.947223,
          "velocity": 0.3937007874015748
        },
        {
          "duration": 0.3157889999999952,
          "durationTicks": 384,
          "midi": 49,
          "name": "C#3",
          "ticks": 117888,
          "time": 96.947223,
          "velocity": 0.3937007874015748
        },
        {
          "duration": 0.15789450000001182,
          "durationTicks": 192,
          "midi": 70,
          "name": "A#4",
          "ticks": 118272,
          "time": 97.26301199999999,
          "velocity": 0.3937007874015748
        },
        {
          "duration": 0.6315780000000046,
          "durationTicks": 768,
          "midi": 41,
          "name": "F2",
          "ticks": 118272,
          "time": 97.26301199999999,
          "velocity": 0.3937007874015748
        },
        {
          "duration": 0.1578944999999976,
          "durationTicks": 192,
          "midi": 70,
          "name": "A#4",
          "ticks": 118656,
          "time": 97.578801,
          "velocity": 0.3937007874015748
        },
        {
          "duration": 0.3157889999999952,
          "durationTicks": 384,
          "midi": 49,
          "name": "C#3",
          "ticks": 118656,
          "time": 97.578801,
          "velocity": 0.3937007874015748
        },
        {
          "duration": 0.1578944999999976,
          "durationTicks": 192,
          "midi": 72,
          "name": "C5",
          "ticks": 118848,
          "time": 97.7366955,
          "velocity": 0.3937007874015748
        },
        {
          "duration": 0.1578944999999976,
          "durationTicks": 192,
          "midi": 70,
          "name": "A#4",
          "ticks": 119040,
          "time": 97.89459,
          "velocity": 0.3937007874015748
        },
        {
          "duration": 0.6315780000000046,
          "durationTicks": 768,
          "midi": 44,
          "name": "G#2",
          "ticks": 119040,
          "time": 97.89459,
          "velocity": 0.3937007874015748
        },
        {
          "duration": 0.3157890000000094,
          "durationTicks": 384,
          "midi": 49,
          "name": "C#3",
          "ticks": 119424,
          "time": 98.21037899999999,
          "velocity": 0.3937007874015748
        },
        {
          "duration": 0.15789450000001182,
          "durationTicks": 192,
          "midi": 68,
          "name": "G#4",
          "ticks": 119424,
          "time": 98.21037899999999,
          "velocity": 0.3937007874015748
        },
        {
          "duration": 1.1842087499999963,
          "durationTicks": 1440,
          "midi": 41,
          "name": "F2",
          "ticks": 119808,
          "time": 98.526168,
          "velocity": 0.3937007874015748
        },
        {
          "duration": 0.1578944999999976,
          "durationTicks": 192,
          "midi": 65,
          "name": "F4",
          "ticks": 119808,
          "time": 98.526168,
          "velocity": 0.3937007874015748
        },
        {
          "duration": 0.1578944999999976,
          "durationTicks": 192,
          "midi": 68,
          "name": "G#4",
          "ticks": 120000,
          "time": 98.6840625,
          "velocity": 0.3937007874015748
        },
        {
          "duration": 0.3157889999999952,
          "durationTicks": 384,
          "midi": 49,
          "name": "C#3",
          "ticks": 120192,
          "time": 98.841957,
          "velocity": 0.3937007874015748
        },
        {
          "duration": 0.1578944999999976,
          "durationTicks": 192,
          "midi": 70,
          "name": "A#4",
          "ticks": 120192,
          "time": 98.841957,
          "velocity": 0.3937007874015748
        },
        {
          "duration": 0.1578944999999976,
          "durationTicks": 192,
          "midi": 72,
          "name": "C5",
          "ticks": 120384,
          "time": 98.99985149999999,
          "velocity": 0.3937007874015748
        },
        {
          "duration": 0.15789450000001182,
          "durationTicks": 192,
          "midi": 75,
          "name": "D#5",
          "ticks": 120576,
          "time": 99.15774599999999,
          "velocity": 0.3937007874015748
        },
        {
          "duration": 0.1578944999999976,
          "durationTicks": 192,
          "midi": 72,
          "name": "C5",
          "ticks": 120768,
          "time": 99.3156405,
          "velocity": 0.3937007874015748
        },
        {
          "duration": 0.1578944999999976,
          "durationTicks": 192,
          "midi": 70,
          "name": "A#4",
          "ticks": 120960,
          "time": 99.473535,
          "velocity": 0.3937007874015748
        },
        {
          "duration": 0.3157889999999952,
          "durationTicks": 384,
          "midi": 49,
          "name": "C#3",
          "ticks": 120960,
          "time": 99.473535,
          "velocity": 0.3937007874015748
        },
        {
          "duration": 0.1578944999999976,
          "durationTicks": 192,
          "midi": 68,
          "name": "G#4",
          "ticks": 121152,
          "time": 99.6314295,
          "velocity": 0.3937007874015748
        },
        {
          "duration": 1.1842087499999963,
          "durationTicks": 1440,
          "midi": 40,
          "name": "E2",
          "ticks": 121344,
          "time": 99.789324,
          "velocity": 0.3937007874015748
        },
        {
          "duration": 0.0789472499999988,
          "durationTicks": 96,
          "midi": 70,
          "name": "A#4",
          "ticks": 121344,
          "time": 99.789324,
          "velocity": 0.3937007874015748
        },
        {
          "duration": 0.0789472499999988,
          "durationTicks": 96,
          "midi": 67,
          "name": "G4",
          "ticks": 121440,
          "time": 99.86827124999999,
          "velocity": 0.3937007874015748
        },
        {
          "duration": 0.0789472499999988,
          "durationTicks": 96,
          "midi": 65,
          "name": "F4",
          "ticks": 121536,
          "time": 99.94721849999999,
          "velocity": 0.3937007874015748
        },
        {
          "duration": 0.0789472499999988,
          "durationTicks": 96,
          "midi": 63,
          "name": "D#4",
          "ticks": 121632,
          "time": 100.02616574999999,
          "velocity": 0.3937007874015748
        },
        {
          "duration": 0.3157890000000094,
          "durationTicks": 384,
          "midi": 48,
          "name": "C3",
          "ticks": 121728,
          "time": 100.10511299999999,
          "velocity": 0.3937007874015748
        },
        {
          "duration": 0.07894725000001301,
          "durationTicks": 96,
          "midi": 70,
          "name": "A#4",
          "ticks": 121728,
          "time": 100.10511299999999,
          "velocity": 0.3937007874015748
        },
        {
          "duration": 0.0789472499999988,
          "durationTicks": 96,
          "midi": 67,
          "name": "G4",
          "ticks": 121824,
          "time": 100.18406025,
          "velocity": 0.3937007874015748
        },
        {
          "duration": 0.0789472499999988,
          "durationTicks": 96,
          "midi": 65,
          "name": "F4",
          "ticks": 121920,
          "time": 100.2630075,
          "velocity": 0.3937007874015748
        },
        {
          "duration": 0.0789472499999988,
          "durationTicks": 96,
          "midi": 63,
          "name": "D#4",
          "ticks": 122016,
          "time": 100.34195475,
          "velocity": 0.3937007874015748
        },
        {
          "duration": 0.0789472499999988,
          "durationTicks": 96,
          "midi": 72,
          "name": "C5",
          "ticks": 122112,
          "time": 100.420902,
          "velocity": 0.3937007874015748
        },
        {
          "duration": 0.0789472499999988,
          "durationTicks": 96,
          "midi": 68,
          "name": "G#4",
          "ticks": 122208,
          "time": 100.49984925,
          "velocity": 0.3937007874015748
        },
        {
          "duration": 0.0789472499999988,
          "durationTicks": 96,
          "midi": 64,
          "name": "E4",
          "ticks": 122304,
          "time": 100.5787965,
          "velocity": 0.3937007874015748
        },
        {
          "duration": 0.0789472499999988,
          "durationTicks": 96,
          "midi": 60,
          "name": "C4",
          "ticks": 122400,
          "time": 100.65774375,
          "velocity": 0.3937007874015748
        },
        {
          "duration": 0.3157890000000094,
          "durationTicks": 384,
          "midi": 48,
          "name": "C3",
          "ticks": 122496,
          "time": 100.736691,
          "velocity": 0.3937007874015748
        },
        {
          "duration": 0.0789472499999988,
          "durationTicks": 96,
          "midi": 72,
          "name": "C5",
          "ticks": 122496,
          "time": 100.736691,
          "velocity": 0.3937007874015748
        },
        {
          "duration": 0.0789472499999988,
          "durationTicks": 96,
          "midi": 68,
          "name": "G#4",
          "ticks": 122592,
          "time": 100.81563824999999,
          "velocity": 0.3937007874015748
        },
        {
          "duration": 0.0789472499999988,
          "durationTicks": 96,
          "midi": 64,
          "name": "E4",
          "ticks": 122688,
          "time": 100.89458549999999,
          "velocity": 0.3937007874015748
        },
        {
          "duration": 0.07894725000001301,
          "durationTicks": 96,
          "midi": 60,
          "name": "C4",
          "ticks": 122784,
          "time": 100.97353274999999,
          "velocity": 0.3937007874015748
        },
        {
          "duration": 1.1842087499999963,
          "durationTicks": 1440,
          "midi": 44,
          "name": "G#2",
          "ticks": 122880,
          "time": 101.05248,
          "velocity": 0.3937007874015748
        },
        {
          "duration": 0.1578944999999976,
          "durationTicks": 192,
          "midi": 68,
          "name": "G#4",
          "ticks": 122880,
          "time": 101.05248,
          "velocity": 0.3937007874015748
        },
        {
          "duration": 0.3157889999999952,
          "durationTicks": 384,
          "midi": 41,
          "name": "F2",
          "ticks": 123264,
          "time": 101.368269,
          "velocity": 0.3937007874015748
        },
        {
          "duration": 0.1578944999999976,
          "durationTicks": 192,
          "midi": 68,
          "name": "G#4",
          "ticks": 123264,
          "time": 101.368269,
          "velocity": 0.3937007874015748
        },
        {
          "duration": 0.1578944999999976,
          "durationTicks": 192,
          "midi": 70,
          "name": "A#4",
          "ticks": 123456,
          "time": 101.5261635,
          "velocity": 0.3937007874015748
        },
        {
          "duration": 0.1578944999999976,
          "durationTicks": 192,
          "midi": 72,
          "name": "C5",
          "ticks": 123648,
          "time": 101.684058,
          "velocity": 0.3937007874015748
        },
        {
          "duration": 0.3157889999999952,
          "durationTicks": 384,
          "midi": 41,
          "name": "F2",
          "ticks": 124032,
          "time": 101.999847,
          "velocity": 0.3937007874015748
        },
        {
          "duration": 0.1578944999999976,
          "durationTicks": 192,
          "midi": 68,
          "name": "G#4",
          "ticks": 124032,
          "time": 101.999847,
          "velocity": 0.3937007874015748
        },
        {
          "duration": 0.6315780000000046,
          "durationTicks": 768,
          "midi": 44,
          "name": "G#2",
          "ticks": 124416,
          "time": 102.315636,
          "velocity": 0.3937007874015748
        },
        {
          "duration": 0.1578944999999976,
          "durationTicks": 192,
          "midi": 70,
          "name": "A#4",
          "ticks": 124416,
          "time": 102.315636,
          "velocity": 0.3937007874015748
        },
        {
          "duration": 0.3157890000000094,
          "durationTicks": 384,
          "midi": 41,
          "name": "F2",
          "ticks": 124800,
          "time": 102.631425,
          "velocity": 0.3937007874015748
        },
        {
          "duration": 0.1578944999999976,
          "durationTicks": 192,
          "midi": 70,
          "name": "A#4",
          "ticks": 124800,
          "time": 102.631425,
          "velocity": 0.3937007874015748
        },
        {
          "duration": 0.15789450000001182,
          "durationTicks": 192,
          "midi": 72,
          "name": "C5",
          "ticks": 124992,
          "time": 102.78931949999999,
          "velocity": 0.3937007874015748
        },
        {
          "duration": 0.6315779999999904,
          "durationTicks": 768,
          "midi": 46,
          "name": "A#2",
          "ticks": 125184,
          "time": 102.947214,
          "velocity": 0.3937007874015748
        },
        {
          "duration": 0.1578944999999976,
          "durationTicks": 192,
          "midi": 67,
          "name": "G4",
          "ticks": 125184,
          "time": 102.947214,
          "velocity": 0.3937007874015748
        },
        {
          "duration": 0.1578944999999976,
          "durationTicks": 192,
          "midi": 63,
          "name": "D#4",
          "ticks": 125568,
          "time": 103.263003,
          "velocity": 0.3937007874015748
        },
        {
          "duration": 0.3157889999999952,
          "durationTicks": 384,
          "midi": 41,
          "name": "F2",
          "ticks": 125568,
          "time": 103.263003,
          "velocity": 0.3937007874015748
        },
        {
          "duration": 0.1578944999999976,
          "durationTicks": 192,
          "midi": 68,
          "name": "G#4",
          "ticks": 125952,
          "time": 103.57879199999999,
          "velocity": 0.3937007874015748
        },
        {
          "duration": 1.1842087499999963,
          "durationTicks": 1440,
          "midi": 48,
          "name": "C3",
          "ticks": 125952,
          "time": 103.57879199999999,
          "velocity": 0.3937007874015748
        },
        {
          "duration": 0.1578944999999976,
          "durationTicks": 192,
          "midi": 68,
          "name": "G#4",
          "ticks": 126336,
          "time": 103.894581,
          "velocity": 0.3937007874015748
        },
        {
          "duration": 0.3157889999999952,
          "durationTicks": 384,
          "midi": 44,
          "name": "G#2",
          "ticks": 126336,
          "time": 103.894581,
          "velocity": 0.3937007874015748
        },
        {
          "duration": 0.1578944999999976,
          "durationTicks": 192,
          "midi": 70,
          "name": "A#4",
          "ticks": 126528,
          "time": 104.0524755,
          "velocity": 0.3937007874015748
        },
        {
          "duration": 0.1578944999999976,
          "durationTicks": 192,
          "midi": 72,
          "name": "C5",
          "ticks": 126720,
          "time": 104.21037,
          "velocity": 0.3937007874015748
        },
        {
          "duration": 0.1578944999999976,
          "durationTicks": 192,
          "midi": 68,
          "name": "G#4",
          "ticks": 126912,
          "time": 104.3682645,
          "velocity": 0.3937007874015748
        },
        {
          "duration": 0.1578944999999976,
          "durationTicks": 192,
          "midi": 72,
          "name": "C5",
          "ticks": 127104,
          "time": 104.52615899999999,
          "velocity": 0.3937007874015748
        },
        {
          "duration": 0.3157890000000094,
          "durationTicks": 384,
          "midi": 44,
          "name": "G#2",
          "ticks": 127104,
          "time": 104.52615899999999,
          "velocity": 0.3937007874015748
        },
        {
          "duration": 0.15789450000001182,
          "durationTicks": 192,
          "midi": 80,
          "name": "G#5",
          "ticks": 127296,
          "time": 104.68405349999999,
          "velocity": 0.3937007874015748
        },
        {
          "duration": 0.3157889999999952,
          "durationTicks": 384,
          "midi": 79,
          "name": "G5",
          "ticks": 127488,
          "time": 104.841948,
          "velocity": 0.3937007874015748
        },
        {
          "duration": 1.1842087499999963,
          "durationTicks": 1440,
          "midi": 39,
          "name": "D#2",
          "ticks": 127488,
          "time": 104.841948,
          "velocity": 0.3937007874015748
        },
        {
          "duration": 0.3157889999999952,
          "durationTicks": 384,
          "midi": 44,
          "name": "G#2",
          "ticks": 127872,
          "time": 105.157737,
          "velocity": 0.3937007874015748
        },
        {
          "duration": 0.3157889999999952,
          "durationTicks": 384,
          "midi": 75,
          "name": "D#5",
          "ticks": 127872,
          "time": 105.157737,
          "velocity": 0.3937007874015748
        },
        {
          "duration": 0.3157890000000094,
          "durationTicks": 384,
          "midi": 70,
          "name": "A#4",
          "ticks": 128256,
          "time": 105.47352599999999,
          "velocity": 0.3937007874015748
        },
        {
          "duration": 0.3157889999999952,
          "durationTicks": 384,
          "midi": 75,
          "name": "D#5",
          "ticks": 128640,
          "time": 105.789315,
          "velocity": 0.3937007874015748
        },
        {
          "duration": 0.3157889999999952,
          "durationTicks": 384,
          "midi": 43,
          "name": "G2",
          "ticks": 128640,
          "time": 105.789315,
          "velocity": 0.3937007874015748
        },
        {
          "duration": 1.1842087499999963,
          "durationTicks": 1440,
          "midi": 41,
          "name": "F2",
          "ticks": 129024,
          "time": 106.105104,
          "velocity": 0.3937007874015748
        },
        {
          "duration": 0.3157889999999952,
          "durationTicks": 384,
          "midi": 68,
          "name": "G#4",
          "ticks": 129024,
          "time": 106.105104,
          "velocity": 0.3937007874015748
        },
        {
          "duration": 0.3157890000000094,
          "durationTicks": 384,
          "midi": 49,
          "name": "C#3",
          "ticks": 129408,
          "time": 106.42089299999999,
          "velocity": 0.3937007874015748
        },
        {
          "duration": 0.1578944999999976,
          "durationTicks": 192,
          "midi": 68,
          "name": "G#4",
          "ticks": 129408,
          "time": 106.42089299999999,
          "velocity": 0.3937007874015748
        },
        {
          "duration": 0.15789450000001182,
          "durationTicks": 192,
          "midi": 75,
          "name": "D#5",
          "ticks": 129600,
          "time": 106.57878749999999,
          "velocity": 0.3937007874015748
        },
        {
          "duration": 0.1578944999999976,
          "durationTicks": 192,
          "midi": 77,
          "name": "F5",
          "ticks": 129792,
          "time": 106.736682,
          "velocity": 0.3937007874015748
        },
        {
          "duration": 0.1578944999999976,
          "durationTicks": 192,
          "midi": 72,
          "name": "C5",
          "ticks": 130176,
          "time": 107.052471,
          "velocity": 0.3937007874015748
        },
        {
          "duration": 0.3157889999999952,
          "durationTicks": 384,
          "midi": 49,
          "name": "C#3",
          "ticks": 130176,
          "time": 107.052471,
          "velocity": 0.3937007874015748
        },
        {
          "duration": 0.1578944999999976,
          "durationTicks": 192,
          "midi": 70,
          "name": "A#4",
          "ticks": 130560,
          "time": 107.36825999999999,
          "velocity": 0.3937007874015748
        },
        {
          "duration": 0.6315780000000046,
          "durationTicks": 768,
          "midi": 41,
          "name": "F2",
          "ticks": 130560,
          "time": 107.36825999999999,
          "velocity": 0.3937007874015748
        },
        {
          "duration": 0.1578944999999976,
          "durationTicks": 192,
          "midi": 70,
          "name": "A#4",
          "ticks": 130944,
          "time": 107.684049,
          "velocity": 0.3937007874015748
        },
        {
          "duration": 0.3157889999999952,
          "durationTicks": 384,
          "midi": 49,
          "name": "C#3",
          "ticks": 130944,
          "time": 107.684049,
          "velocity": 0.3937007874015748
        },
        {
          "duration": 0.1578944999999976,
          "durationTicks": 192,
          "midi": 72,
          "name": "C5",
          "ticks": 131136,
          "time": 107.8419435,
          "velocity": 0.3937007874015748
        },
        {
          "duration": 0.1578944999999976,
          "durationTicks": 192,
          "midi": 70,
          "name": "A#4",
          "ticks": 131328,
          "time": 107.999838,
          "velocity": 0.3937007874015748
        },
        {
          "duration": 0.6315780000000046,
          "durationTicks": 768,
          "midi": 44,
          "name": "G#2",
          "ticks": 131328,
          "time": 107.999838,
          "velocity": 0.3937007874015748
        },
        {
          "duration": 0.1578944999999976,
          "durationTicks": 192,
          "midi": 68,
          "name": "G#4",
          "ticks": 131712,
          "time": 108.31562699999999,
          "velocity": 0.3937007874015748
        },
        {
          "duration": 0.3157890000000094,
          "durationTicks": 384,
          "midi": 49,
          "name": "C#3",
          "ticks": 131712,
          "time": 108.31562699999999,
          "velocity": 0.3937007874015748
        },
        {
          "duration": 0.1578944999999976,
          "durationTicks": 192,
          "midi": 70,
          "name": "A#4",
          "ticks": 132096,
          "time": 108.631416,
          "velocity": 0.3937007874015748
        },
        {
          "duration": 1.1842087499999963,
          "durationTicks": 1440,
          "midi": 41,
          "name": "F2",
          "ticks": 132096,
          "time": 108.631416,
          "velocity": 0.3937007874015748
        },
        {
          "duration": 0.3157889999999952,
          "durationTicks": 384,
          "midi": 49,
          "name": "C#3",
          "ticks": 132480,
          "time": 108.947205,
          "velocity": 0.3937007874015748
        },
        {
          "duration": 0.1578944999999976,
          "durationTicks": 192,
          "midi": 70,
          "name": "A#4",
          "ticks": 132480,
          "time": 108.947205,
          "velocity": 0.3937007874015748
        },
        {
          "duration": 0.1578944999999976,
          "durationTicks": 192,
          "midi": 72,
          "name": "C5",
          "ticks": 132672,
          "time": 109.1050995,
          "velocity": 0.3937007874015748
        },
        {
          "duration": 0.1578944999999976,
          "durationTicks": 192,
          "midi": 70,
          "name": "A#4",
          "ticks": 132864,
          "time": 109.26299399999999,
          "velocity": 0.3937007874015748
        },
        {
          "duration": 0.1578944999999976,
          "durationTicks": 192,
          "midi": 68,
          "name": "G#4",
          "ticks": 133248,
          "time": 109.578783,
          "velocity": 0.3937007874015748
        },
        {
          "duration": 0.3157889999999952,
          "durationTicks": 384,
          "midi": 49,
          "name": "C#3",
          "ticks": 133248,
          "time": 109.578783,
          "velocity": 0.3937007874015748
        },
        {
          "duration": 0.6315780000000046,
          "durationTicks": 768,
          "midi": 70,
          "name": "A#4",
          "ticks": 133632,
          "time": 109.894572,
          "velocity": 0.3937007874015748
        },
        {
          "duration": 1.1842087499999963,
          "durationTicks": 1440,
          "midi": 40,
          "name": "E2",
          "ticks": 133632,
          "time": 109.894572,
          "velocity": 0.3937007874015748
        },
        {
          "duration": 0.3157890000000094,
          "durationTicks": 384,
          "midi": 48,
          "name": "C3",
          "ticks": 134016,
          "time": 110.21036099999999,
          "velocity": 0.3937007874015748
        },
        {
          "duration": 0.6315779999999904,
          "durationTicks": 768,
          "midi": 72,
          "name": "C5",
          "ticks": 134400,
          "time": 110.52615,
          "velocity": 0.3937007874015748
        },
        {
          "duration": 0.3157889999999952,
          "durationTicks": 384,
          "midi": 48,
          "name": "C3",
          "ticks": 134784,
          "time": 110.841939,
          "velocity": 0.3937007874015748
        },
        {
          "duration": 0.1578944999999976,
          "durationTicks": 192,
          "midi": 68,
          "name": "G#4",
          "ticks": 135168,
          "time": 111.15772799999999,
          "velocity": 0.3937007874015748
        },
        {
          "duration": 1.1842087500000105,
          "durationTicks": 1440,
          "midi": 44,
          "name": "G#2",
          "ticks": 135168,
          "time": 111.15772799999999,
          "velocity": 0.3937007874015748
        },
        {
          "duration": 0.3157889999999952,
          "durationTicks": 384,
          "midi": 41,
          "name": "F2",
          "ticks": 135552,
          "time": 111.473517,
          "velocity": 0.3937007874015748
        },
        {
          "duration": 0.1578944999999976,
          "durationTicks": 192,
          "midi": 68,
          "name": "G#4",
          "ticks": 135552,
          "time": 111.473517,
          "velocity": 0.3937007874015748
        },
        {
          "duration": 0.1578944999999976,
          "durationTicks": 192,
          "midi": 70,
          "name": "A#4",
          "ticks": 135744,
          "time": 111.6314115,
          "velocity": 0.3937007874015748
        },
        {
          "duration": 0.1578944999999976,
          "durationTicks": 192,
          "midi": 72,
          "name": "C5",
          "ticks": 135936,
          "time": 111.789306,
          "velocity": 0.3937007874015748
        },
        {
          "duration": 0.3157890000000094,
          "durationTicks": 384,
          "midi": 41,
          "name": "F2",
          "ticks": 136320,
          "time": 112.10509499999999,
          "velocity": 0.3937007874015748
        },
        {
          "duration": 0.1578944999999976,
          "durationTicks": 192,
          "midi": 68,
          "name": "G#4",
          "ticks": 136320,
          "time": 112.10509499999999,
          "velocity": 0.3937007874015748
        },
        {
          "duration": 0.1578944999999976,
          "durationTicks": 192,
          "midi": 70,
          "name": "A#4",
          "ticks": 136704,
          "time": 112.420884,
          "velocity": 0.3937007874015748
        },
        {
          "duration": 0.6315779999999904,
          "durationTicks": 768,
          "midi": 44,
          "name": "G#2",
          "ticks": 136704,
          "time": 112.420884,
          "velocity": 0.3937007874015748
        },
        {
          "duration": 0.3157889999999952,
          "durationTicks": 384,
          "midi": 41,
          "name": "F2",
          "ticks": 137088,
          "time": 112.736673,
          "velocity": 0.3937007874015748
        },
        {
          "duration": 0.1578944999999976,
          "durationTicks": 192,
          "midi": 70,
          "name": "A#4",
          "ticks": 137088,
          "time": 112.736673,
          "velocity": 0.3937007874015748
        },
        {
          "duration": 0.1578944999999976,
          "durationTicks": 192,
          "midi": 72,
          "name": "C5",
          "ticks": 137280,
          "time": 112.8945675,
          "velocity": 0.3937007874015748
        },
        {
          "duration": 0.1578944999999976,
          "durationTicks": 192,
          "midi": 67,
          "name": "G4",
          "ticks": 137472,
          "time": 113.05246199999999,
          "velocity": 0.3937007874015748
        },
        {
          "duration": 0.6315780000000046,
          "durationTicks": 768,
          "midi": 46,
          "name": "A#2",
          "ticks": 137472,
          "time": 113.05246199999999,
          "velocity": 0.3937007874015748
        },
        {
          "duration": 0.1578944999999976,
          "durationTicks": 192,
          "midi": 63,
          "name": "D#4",
          "ticks": 137856,
          "time": 113.368251,
          "velocity": 0.3937007874015748
        },
        {
          "duration": 0.3157889999999952,
          "durationTicks": 384,
          "midi": 41,
          "name": "F2",
          "ticks": 137856,
          "time": 113.368251,
          "velocity": 0.3937007874015748
        },
        {
          "duration": 0.1578944999999976,
          "durationTicks": 192,
          "midi": 68,
          "name": "G#4",
          "ticks": 138240,
          "time": 113.68404,
          "velocity": 0.3937007874015748
        },
        {
          "duration": 1.1842087499999963,
          "durationTicks": 1440,
          "midi": 48,
          "name": "C3",
          "ticks": 138240,
          "time": 113.68404,
          "velocity": 0.3937007874015748
        },
        {
          "duration": 0.3157890000000094,
          "durationTicks": 384,
          "midi": 44,
          "name": "G#2",
          "ticks": 138624,
          "time": 113.99982899999999,
          "velocity": 0.3937007874015748
        },
        {
          "duration": 0.1578944999999976,
          "durationTicks": 192,
          "midi": 68,
          "name": "G#4",
          "ticks": 138624,
          "time": 113.99982899999999,
          "velocity": 0.3937007874015748
        },
        {
          "duration": 0.15789450000001182,
          "durationTicks": 192,
          "midi": 70,
          "name": "A#4",
          "ticks": 138816,
          "time": 114.15772349999999,
          "velocity": 0.3937007874015748
        },
        {
          "duration": 0.1578944999999976,
          "durationTicks": 192,
          "midi": 72,
          "name": "C5",
          "ticks": 139008,
          "time": 114.315618,
          "velocity": 0.3937007874015748
        },
        {
          "duration": 0.1578944999999976,
          "durationTicks": 192,
          "midi": 68,
          "name": "G#4",
          "ticks": 139200,
          "time": 114.4735125,
          "velocity": 0.3937007874015748
        },
        {
          "duration": 0.3157889999999952,
          "durationTicks": 384,
          "midi": 44,
          "name": "G#2",
          "ticks": 139392,
          "time": 114.631407,
          "velocity": 0.3937007874015748
        },
        {
          "duration": 0.1578944999999976,
          "durationTicks": 192,
          "midi": 72,
          "name": "C5",
          "ticks": 139392,
          "time": 114.631407,
          "velocity": 0.3937007874015748
        },
        {
          "duration": 0.1578944999999976,
          "durationTicks": 192,
          "midi": 80,
          "name": "G#5",
          "ticks": 139584,
          "time": 114.7893015,
          "velocity": 0.3937007874015748
        },
        {
          "duration": 0.3157890000000094,
          "durationTicks": 384,
          "midi": 79,
          "name": "G5",
          "ticks": 139776,
          "time": 114.94719599999999,
          "velocity": 0.3937007874015748
        },
        {
          "duration": 1.1842087500000105,
          "durationTicks": 1440,
          "midi": 39,
          "name": "D#2",
          "ticks": 139776,
          "time": 114.94719599999999,
          "velocity": 0.3937007874015748
        },
        {
          "duration": 0.3157889999999952,
          "durationTicks": 384,
          "midi": 44,
          "name": "G#2",
          "ticks": 140160,
          "time": 115.262985,
          "velocity": 0.3937007874015748
        },
        {
          "duration": 0.3157889999999952,
          "durationTicks": 384,
          "midi": 75,
          "name": "D#5",
          "ticks": 140160,
          "time": 115.262985,
          "velocity": 0.3937007874015748
        },
        {
          "duration": 0.3157889999999952,
          "durationTicks": 384,
          "midi": 70,
          "name": "A#4",
          "ticks": 140544,
          "time": 115.578774,
          "velocity": 0.3937007874015748
        },
        {
          "duration": 0.3157890000000094,
          "durationTicks": 384,
          "midi": 43,
          "name": "G2",
          "ticks": 140928,
          "time": 115.89456299999999,
          "velocity": 0.3937007874015748
        },
        {
          "duration": 0.3157890000000094,
          "durationTicks": 384,
          "midi": 67,
          "name": "G4",
          "ticks": 140928,
          "time": 115.89456299999999,
          "velocity": 0.3937007874015748
        },
        {
          "duration": 1.1842087499999963,
          "durationTicks": 1440,
          "midi": 41,
          "name": "F2",
          "ticks": 141312,
          "time": 116.210352,
          "velocity": 0.3937007874015748
        },
        {
          "duration": 0.3157889999999952,
          "durationTicks": 384,
          "midi": 68,
          "name": "G#4",
          "ticks": 141312,
          "time": 116.210352,
          "velocity": 0.3937007874015748
        },
        {
          "duration": 0.3157889999999952,
          "durationTicks": 384,
          "midi": 49,
          "name": "C#3",
          "ticks": 141696,
          "time": 116.526141,
          "velocity": 0.3937007874015748
        },
        {
          "duration": 0.1578944999999976,
          "durationTicks": 192,
          "midi": 68,
          "name": "G#4",
          "ticks": 141696,
          "time": 116.526141,
          "velocity": 0.3937007874015748
        },
        {
          "duration": 0.1578944999999976,
          "durationTicks": 192,
          "midi": 75,
          "name": "D#5",
          "ticks": 141888,
          "time": 116.6840355,
          "velocity": 0.3937007874015748
        },
        {
          "duration": 0.1578944999999976,
          "durationTicks": 192,
          "midi": 77,
          "name": "F5",
          "ticks": 142080,
          "time": 116.84192999999999,
          "velocity": 0.3937007874015748
        },
        {
          "duration": 0.1578944999999976,
          "durationTicks": 192,
          "midi": 72,
          "name": "C5",
          "ticks": 142464,
          "time": 117.157719,
          "velocity": 0.3937007874015748
        },
        {
          "duration": 0.3157889999999952,
          "durationTicks": 384,
          "midi": 49,
          "name": "C#3",
          "ticks": 142464,
          "time": 117.157719,
          "velocity": 0.3937007874015748
        },
        {
          "duration": 0.6315780000000046,
          "durationTicks": 768,
          "midi": 41,
          "name": "F2",
          "ticks": 142848,
          "time": 117.473508,
          "velocity": 0.3937007874015748
        },
        {
          "duration": 0.1578944999999976,
          "durationTicks": 192,
          "midi": 70,
          "name": "A#4",
          "ticks": 142848,
          "time": 117.473508,
          "velocity": 0.3937007874015748
        },
        {
          "duration": 0.3157890000000094,
          "durationTicks": 384,
          "midi": 49,
          "name": "C#3",
          "ticks": 143232,
          "time": 117.78929699999999,
          "velocity": 0.3937007874015748
        },
        {
          "duration": 0.1578944999999976,
          "durationTicks": 192,
          "midi": 70,
          "name": "A#4",
          "ticks": 143232,
          "time": 117.78929699999999,
          "velocity": 0.3937007874015748
        },
        {
          "duration": 0.15789450000001182,
          "durationTicks": 192,
          "midi": 72,
          "name": "C5",
          "ticks": 143424,
          "time": 117.94719149999999,
          "velocity": 0.3937007874015748
        },
        {
          "duration": 0.6315779999999904,
          "durationTicks": 768,
          "midi": 44,
          "name": "G#2",
          "ticks": 143616,
          "time": 118.105086,
          "velocity": 0.3937007874015748
        },
        {
          "duration": 0.1578944999999976,
          "durationTicks": 192,
          "midi": 70,
          "name": "A#4",
          "ticks": 143616,
          "time": 118.105086,
          "velocity": 0.3937007874015748
        },
        {
          "duration": 0.1578944999999976,
          "durationTicks": 192,
          "midi": 68,
          "name": "G#4",
          "ticks": 144000,
          "time": 118.420875,
          "velocity": 0.3937007874015748
        },
        {
          "duration": 0.3157889999999952,
          "durationTicks": 384,
          "midi": 49,
          "name": "C#3",
          "ticks": 144000,
          "time": 118.420875,
          "velocity": 0.3937007874015748
        },
        {
          "duration": 0.1578944999999976,
          "durationTicks": 192,
          "midi": 70,
          "name": "A#4",
          "ticks": 144384,
          "time": 118.73666399999999,
          "velocity": 0.3937007874015748
        },
        {
          "duration": 1.1842087500000105,
          "durationTicks": 1440,
          "midi": 41,
          "name": "F2",
          "ticks": 144384,
          "time": 118.73666399999999,
          "velocity": 0.3937007874015748
        },
        {
          "duration": 0.3157889999999952,
          "durationTicks": 384,
          "midi": 49,
          "name": "C#3",
          "ticks": 144768,
          "time": 119.052453,
          "velocity": 0.3937007874015748
        },
        {
          "duration": 0.1578944999999976,
          "durationTicks": 192,
          "midi": 70,
          "name": "A#4",
          "ticks": 144768,
          "time": 119.052453,
          "velocity": 0.3937007874015748
        },
        {
          "duration": 0.1578944999999976,
          "durationTicks": 192,
          "midi": 72,
          "name": "C5",
          "ticks": 144960,
          "time": 119.2103475,
          "velocity": 0.3937007874015748
        },
        {
          "duration": 0.1578944999999976,
          "durationTicks": 192,
          "midi": 70,
          "name": "A#4",
          "ticks": 145152,
          "time": 119.368242,
          "velocity": 0.3937007874015748
        },
        {
          "duration": 0.1578944999999976,
          "durationTicks": 192,
          "midi": 68,
          "name": "G#4",
          "ticks": 145536,
          "time": 119.68403099999999,
          "velocity": 0.3937007874015748
        },
        {
          "duration": 0.3157890000000094,
          "durationTicks": 384,
          "midi": 49,
          "name": "C#3",
          "ticks": 145536,
          "time": 119.68403099999999,
          "velocity": 0.3937007874015748
        },
        {
          "duration": 1.1842087499999963,
          "durationTicks": 1440,
          "midi": 40,
          "name": "E2",
          "ticks": 145920,
          "time": 119.99982,
          "velocity": 0.3937007874015748
        },
        {
          "duration": 0.6315779999999904,
          "durationTicks": 768,
          "midi": 70,
          "name": "A#4",
          "ticks": 145920,
          "time": 119.99982,
          "velocity": 0.3937007874015748
        },
        {
          "duration": 0.3157889999999952,
          "durationTicks": 384,
          "midi": 48,
          "name": "C3",
          "ticks": 146304,
          "time": 120.315609,
          "velocity": 0.3937007874015748
        },
        {
          "duration": 0.6315780000000046,
          "durationTicks": 768,
          "midi": 72,
          "name": "C5",
          "ticks": 146688,
          "time": 120.63139799999999,
          "velocity": 0.3937007874015748
        },
        {
          "duration": 0.3157889999999952,
          "durationTicks": 384,
          "midi": 48,
          "name": "C3",
          "ticks": 147072,
          "time": 120.947187,
          "velocity": 0.3937007874015748
        },
        {
          "duration": 1.1842087499999963,
          "durationTicks": 1440,
          "midi": 44,
          "name": "G#2",
          "ticks": 147456,
          "time": 121.262976,
          "velocity": 0.3937007874015748
        },
        {
          "duration": 0.1578944999999976,
          "durationTicks": 192,
          "midi": 68,
          "name": "G#4",
          "ticks": 147456,
          "time": 121.262976,
          "velocity": 0.3937007874015748
        },
        {
          "duration": 0.3157890000000094,
          "durationTicks": 384,
          "midi": 41,
          "name": "F2",
          "ticks": 147840,
          "time": 121.57876499999999,
          "velocity": 0.3937007874015748
        },
        {
          "duration": 0.15789450000001182,
          "durationTicks": 192,
          "midi": 68,
          "name": "G#4",
          "ticks": 147840,
          "time": 121.57876499999999,
          "velocity": 0.3937007874015748
        },
        {
          "duration": 0.1578944999999976,
          "durationTicks": 192,
          "midi": 70,
          "name": "A#4",
          "ticks": 148032,
          "time": 121.7366595,
          "velocity": 0.3937007874015748
        },
        {
          "duration": 0.1578944999999976,
          "durationTicks": 192,
          "midi": 72,
          "name": "C5",
          "ticks": 148224,
          "time": 121.894554,
          "velocity": 0.3937007874015748
        },
        {
          "duration": 0.3157889999999952,
          "durationTicks": 384,
          "midi": 41,
          "name": "F2",
          "ticks": 148608,
          "time": 122.210343,
          "velocity": 0.3937007874015748
        },
        {
          "duration": 0.1578944999999976,
          "durationTicks": 192,
          "midi": 68,
          "name": "G#4",
          "ticks": 148608,
          "time": 122.210343,
          "velocity": 0.3937007874015748
        },
        {
          "duration": 0.6315780000000046,
          "durationTicks": 768,
          "midi": 44,
          "name": "G#2",
          "ticks": 148992,
          "time": 122.52613199999999,
          "velocity": 0.3937007874015748
        },
        {
          "duration": 0.15789450000001182,
          "durationTicks": 192,
          "midi": 70,
          "name": "A#4",
          "ticks": 148992,
          "time": 122.52613199999999,
          "velocity": 0.3937007874015748
        },
        {
          "duration": 0.1578944999999976,
          "durationTicks": 192,
          "midi": 70,
          "name": "A#4",
          "ticks": 149376,
          "time": 122.841921,
          "velocity": 0.3937007874015748
        },
        {
          "duration": 0.3157889999999952,
          "durationTicks": 384,
          "midi": 41,
          "name": "F2",
          "ticks": 149376,
          "time": 122.841921,
          "velocity": 0.3937007874015748
        },
        {
          "duration": 0.1578944999999976,
          "durationTicks": 192,
          "midi": 72,
          "name": "C5",
          "ticks": 149568,
          "time": 122.9998155,
          "velocity": 0.3937007874015748
        },
        {
          "duration": 0.6315780000000046,
          "durationTicks": 768,
          "midi": 46,
          "name": "A#2",
          "ticks": 149760,
          "time": 123.15771,
          "velocity": 0.3937007874015748
        },
        {
          "duration": 0.1578944999999976,
          "durationTicks": 192,
          "midi": 67,
          "name": "G4",
          "ticks": 149760,
          "time": 123.15771,
          "velocity": 0.3937007874015748
        },
        {
          "duration": 0.3157890000000094,
          "durationTicks": 384,
          "midi": 41,
          "name": "F2",
          "ticks": 150144,
          "time": 123.47349899999999,
          "velocity": 0.3937007874015748
        },
        {
          "duration": 0.15789450000001182,
          "durationTicks": 192,
          "midi": 63,
          "name": "D#4",
          "ticks": 150144,
          "time": 123.47349899999999,
          "velocity": 0.3937007874015748
        },
        {
          "duration": 0.1578944999999976,
          "durationTicks": 192,
          "midi": 68,
          "name": "G#4",
          "ticks": 150528,
          "time": 123.789288,
          "velocity": 0.3937007874015748
        },
        {
          "duration": 1.1842087499999963,
          "durationTicks": 1440,
          "midi": 48,
          "name": "C3",
          "ticks": 150528,
          "time": 123.789288,
          "velocity": 0.3937007874015748
        },
        {
          "duration": 0.1578944999999976,
          "durationTicks": 192,
          "midi": 68,
          "name": "G#4",
          "ticks": 150912,
          "time": 124.105077,
          "velocity": 0.3937007874015748
        },
        {
          "duration": 0.3157889999999952,
          "durationTicks": 384,
          "midi": 44,
          "name": "G#2",
          "ticks": 150912,
          "time": 124.105077,
          "velocity": 0.3937007874015748
        },
        {
          "duration": 0.1578944999999976,
          "durationTicks": 192,
          "midi": 70,
          "name": "A#4",
          "ticks": 151104,
          "time": 124.26297149999999,
          "velocity": 0.3937007874015748
        },
        {
          "duration": 0.15789450000001182,
          "durationTicks": 192,
          "midi": 72,
          "name": "C5",
          "ticks": 151296,
          "time": 124.42086599999999,
          "velocity": 0.3937007874015748
        },
        {
          "duration": 0.1578944999999976,
          "durationTicks": 192,
          "midi": 68,
          "name": "G#4",
          "ticks": 151488,
          "time": 124.5787605,
          "velocity": 0.3937007874015748
        },
        {
          "duration": 0.1578944999999976,
          "durationTicks": 192,
          "midi": 72,
          "name": "C5",
          "ticks": 151680,
          "time": 124.736655,
          "velocity": 0.3937007874015748
        },
        {
          "duration": 0.3157889999999952,
          "durationTicks": 384,
          "midi": 44,
          "name": "G#2",
          "ticks": 151680,
          "time": 124.736655,
          "velocity": 0.3937007874015748
        },
        {
          "duration": 0.1578944999999976,
          "durationTicks": 192,
          "midi": 80,
          "name": "G#5",
          "ticks": 151872,
          "time": 124.8945495,
          "velocity": 0.3937007874015748
        },
        {
          "duration": 0.3157889999999952,
          "durationTicks": 384,
          "midi": 79,
          "name": "G5",
          "ticks": 152064,
          "time": 125.052444,
          "velocity": 0.3937007874015748
        },
        {
          "duration": 1.1842087499999963,
          "durationTicks": 1440,
          "midi": 39,
          "name": "D#2",
          "ticks": 152064,
          "time": 125.052444,
          "velocity": 0.3937007874015748
        },
        {
          "duration": 0.3157890000000094,
          "durationTicks": 384,
          "midi": 44,
          "name": "G#2",
          "ticks": 152448,
          "time": 125.36823299999999,
          "velocity": 0.3937007874015748
        },
        {
          "duration": 0.3157890000000094,
          "durationTicks": 384,
          "midi": 75,
          "name": "D#5",
          "ticks": 152448,
          "time": 125.36823299999999,
          "velocity": 0.3937007874015748
        },
        {
          "duration": 0.3157889999999952,
          "durationTicks": 384,
          "midi": 70,
          "name": "A#4",
          "ticks": 152832,
          "time": 125.684022,
          "velocity": 0.3937007874015748
        },
        {
          "duration": 0.3157889999999952,
          "durationTicks": 384,
          "midi": 75,
          "name": "D#5",
          "ticks": 153216,
          "time": 125.999811,
          "velocity": 0.3937007874015748
        },
        {
          "duration": 0.3157889999999952,
          "durationTicks": 384,
          "midi": 43,
          "name": "G2",
          "ticks": 153216,
          "time": 125.999811,
          "velocity": 0.3937007874015748
        },
        {
          "duration": 0.3157890000000094,
          "durationTicks": 384,
          "midi": 77,
          "name": "F5",
          "ticks": 153600,
          "time": 126.31559999999999,
          "velocity": 0.3937007874015748
        },
        {
          "duration": 1.1842087500000105,
          "durationTicks": 1440,
          "midi": 41,
          "name": "F2",
          "ticks": 153600,
          "time": 126.31559999999999,
          "velocity": 0.3937007874015748
        },
        {
          "duration": 0.3157889999999952,
          "durationTicks": 384,
          "midi": 49,
          "name": "C#3",
          "ticks": 153984,
          "time": 126.631389,
          "velocity": 0.3937007874015748
        },
        {
          "duration": 0.1578944999999976,
          "durationTicks": 192,
          "midi": 72,
          "name": "C5",
          "ticks": 153984,
          "time": 126.631389,
          "velocity": 0.3937007874015748
        },
        {
          "duration": 0.1578944999999976,
          "durationTicks": 192,
          "midi": 75,
          "name": "D#5",
          "ticks": 154176,
          "time": 126.7892835,
          "velocity": 0.3937007874015748
        },
        {
          "duration": 0.1578944999999976,
          "durationTicks": 192,
          "midi": 77,
          "name": "F5",
          "ticks": 154368,
          "time": 126.947178,
          "velocity": 0.3937007874015748
        },
        {
          "duration": 0.15789450000001182,
          "durationTicks": 192,
          "midi": 72,
          "name": "C5",
          "ticks": 154752,
          "time": 127.26296699999999,
          "velocity": 0.3937007874015748
        },
        {
          "duration": 0.3157890000000094,
          "durationTicks": 384,
          "midi": 49,
          "name": "C#3",
          "ticks": 154752,
          "time": 127.26296699999999,
          "velocity": 0.3937007874015748
        },
        {
          "duration": 0.1578944999999976,
          "durationTicks": 192,
          "midi": 70,
          "name": "A#4",
          "ticks": 155136,
          "time": 127.578756,
          "velocity": 0.3937007874015748
        },
        {
          "duration": 0.6315779999999904,
          "durationTicks": 768,
          "midi": 41,
          "name": "F2",
          "ticks": 155136,
          "time": 127.578756,
          "velocity": 0.3937007874015748
        },
        {
          "duration": 0.3157889999999952,
          "durationTicks": 384,
          "midi": 49,
          "name": "C#3",
          "ticks": 155520,
          "time": 127.894545,
          "velocity": 0.3937007874015748
        },
        {
          "duration": 0.1578944999999976,
          "durationTicks": 192,
          "midi": 70,
          "name": "A#4",
          "ticks": 155520,
          "time": 127.894545,
          "velocity": 0.3937007874015748
        },
        {
          "duration": 0.1578944999999976,
          "durationTicks": 192,
          "midi": 72,
          "name": "C5",
          "ticks": 155712,
          "time": 128.0524395,
          "velocity": 0.3937007874015748
        },
        {
          "duration": 0.6315780000000188,
          "durationTicks": 768,
          "midi": 44,
          "name": "G#2",
          "ticks": 155904,
          "time": 128.210334,
          "velocity": 0.3937007874015748
        },
        {
          "duration": 0.1578944999999976,
          "durationTicks": 192,
          "midi": 70,
          "name": "A#4",
          "ticks": 155904,
          "time": 128.210334,
          "velocity": 0.3937007874015748
        },
        {
          "duration": 0.31578900000002363,
          "durationTicks": 384,
          "midi": 49,
          "name": "C#3",
          "ticks": 156288,
          "time": 128.52612299999998,
          "velocity": 0.3937007874015748
        },
        {
          "duration": 0.1578944999999976,
          "durationTicks": 192,
          "midi": 68,
          "name": "G#4",
          "ticks": 156288,
          "time": 128.52612299999998,
          "velocity": 0.3937007874015748
        },
        {
          "duration": 0.1578944999999976,
          "durationTicks": 192,
          "midi": 65,
          "name": "F4",
          "ticks": 156672,
          "time": 128.841912,
          "velocity": 0.3937007874015748
        },
        {
          "duration": 1.184208749999982,
          "durationTicks": 1440,
          "midi": 41,
          "name": "F2",
          "ticks": 156672,
          "time": 128.841912,
          "velocity": 0.3937007874015748
        },
        {
          "duration": 0.1578944999999976,
          "durationTicks": 192,
          "midi": 68,
          "name": "G#4",
          "ticks": 156864,
          "time": 128.9998065,
          "velocity": 0.3937007874015748
        },
        {
          "duration": 0.1578944999999976,
          "durationTicks": 192,
          "midi": 70,
          "name": "A#4",
          "ticks": 157056,
          "time": 129.157701,
          "velocity": 0.3937007874015748
        },
        {
          "duration": 0.3157889999999952,
          "durationTicks": 384,
          "midi": 49,
          "name": "C#3",
          "ticks": 157056,
          "time": 129.157701,
          "velocity": 0.3937007874015748
        },
        {
          "duration": 0.1578944999999976,
          "durationTicks": 192,
          "midi": 72,
          "name": "C5",
          "ticks": 157248,
          "time": 129.3155955,
          "velocity": 0.3937007874015748
        },
        {
          "duration": 0.1578944999999976,
          "durationTicks": 192,
          "midi": 75,
          "name": "D#5",
          "ticks": 157440,
          "time": 129.47349,
          "velocity": 0.3937007874015748
        },
        {
          "duration": 0.1578944999999976,
          "durationTicks": 192,
          "midi": 72,
          "name": "C5",
          "ticks": 157632,
          "time": 129.6313845,
          "velocity": 0.3937007874015748
        },
        {
          "duration": 0.3157889999999952,
          "durationTicks": 384,
          "midi": 49,
          "name": "C#3",
          "ticks": 157824,
          "time": 129.789279,
          "velocity": 0.3937007874015748
        },
        {
          "duration": 0.1578944999999976,
          "durationTicks": 192,
          "midi": 70,
          "name": "A#4",
          "ticks": 157824,
          "time": 129.789279,
          "velocity": 0.3937007874015748
        },
        {
          "duration": 0.1578944999999976,
          "durationTicks": 192,
          "midi": 68,
          "name": "G#4",
          "ticks": 158016,
          "time": 129.9471735,
          "velocity": 0.3937007874015748
        },
        {
          "duration": 0.0789472499999988,
          "durationTicks": 96,
          "midi": 70,
          "name": "A#4",
          "ticks": 158208,
          "time": 130.105068,
          "velocity": 0.3937007874015748
        },
        {
          "duration": 1.1842087500000105,
          "durationTicks": 1440,
          "midi": 40,
          "name": "E2",
          "ticks": 158208,
          "time": 130.105068,
          "velocity": 0.3937007874015748
        },
        {
          "duration": 0.0789472499999988,
          "durationTicks": 96,
          "midi": 67,
          "name": "G4",
          "ticks": 158304,
          "time": 130.18401525,
          "velocity": 0.3937007874015748
        },
        {
          "duration": 0.0789472499999988,
          "durationTicks": 96,
          "midi": 65,
          "name": "F4",
          "ticks": 158400,
          "time": 130.2629625,
          "velocity": 0.3937007874015748
        },
        {
          "duration": 0.0789472499999988,
          "durationTicks": 96,
          "midi": 63,
          "name": "D#4",
          "ticks": 158496,
          "time": 130.34190974999999,
          "velocity": 0.3937007874015748
        },
        {
          "duration": 0.31578900000002363,
          "durationTicks": 384,
          "midi": 48,
          "name": "C3",
          "ticks": 158592,
          "time": 130.42085699999998,
          "velocity": 0.3937007874015748
        },
        {
          "duration": 0.0789472499999988,
          "durationTicks": 96,
          "midi": 70,
          "name": "A#4",
          "ticks": 158592,
          "time": 130.42085699999998,
          "velocity": 0.3937007874015748
        },
        {
          "duration": 0.0789472499999988,
          "durationTicks": 96,
          "midi": 67,
          "name": "G4",
          "ticks": 158688,
          "time": 130.49980424999998,
          "velocity": 0.3937007874015748
        },
        {
          "duration": 0.0789472499999988,
          "durationTicks": 96,
          "midi": 65,
          "name": "F4",
          "ticks": 158784,
          "time": 130.57875149999998,
          "velocity": 0.3937007874015748
        },
        {
          "duration": 0.07894725000002722,
          "durationTicks": 96,
          "midi": 63,
          "name": "D#4",
          "ticks": 158880,
          "time": 130.65769874999998,
          "velocity": 0.3937007874015748
        },
        {
          "duration": 0.0789472499999988,
          "durationTicks": 96,
          "midi": 72,
          "name": "C5",
          "ticks": 158976,
          "time": 130.736646,
          "velocity": 0.3937007874015748
        },
        {
          "duration": 0.0789472499999988,
          "durationTicks": 96,
          "midi": 68,
          "name": "G#4",
          "ticks": 159072,
          "time": 130.81559325,
          "velocity": 0.3937007874015748
        },
        {
          "duration": 0.0789472499999988,
          "durationTicks": 96,
          "midi": 64,
          "name": "E4",
          "ticks": 159168,
          "time": 130.8945405,
          "velocity": 0.3937007874015748
        },
        {
          "duration": 0.0789472499999988,
          "durationTicks": 96,
          "midi": 60,
          "name": "C4",
          "ticks": 159264,
          "time": 130.97348775,
          "velocity": 0.3937007874015748
        },
        {
          "duration": 0.3157889999999952,
          "durationTicks": 384,
          "midi": 48,
          "name": "C3",
          "ticks": 159360,
          "time": 131.052435,
          "velocity": 0.3937007874015748
        },
        {
          "duration": 0.0789472499999988,
          "durationTicks": 96,
          "midi": 72,
          "name": "C5",
          "ticks": 159360,
          "time": 131.052435,
          "velocity": 0.3937007874015748
        },
        {
          "duration": 0.0789472499999988,
          "durationTicks": 96,
          "midi": 68,
          "name": "G#4",
          "ticks": 159456,
          "time": 131.13138225,
          "velocity": 0.3937007874015748
        },
        {
          "duration": 0.0789472499999988,
          "durationTicks": 96,
          "midi": 64,
          "name": "E4",
          "ticks": 159552,
          "time": 131.2103295,
          "velocity": 0.3937007874015748
        },
        {
          "duration": 0.0789472499999988,
          "durationTicks": 96,
          "midi": 60,
          "name": "C4",
          "ticks": 159648,
          "time": 131.28927675,
          "velocity": 0.3937007874015748
        },
        {
          "duration": 1.1842087500000105,
          "durationTicks": 1440,
          "midi": 44,
          "name": "G#2",
          "ticks": 159744,
          "time": 131.368224,
          "velocity": 0.3937007874015748
        },
        {
          "duration": 0.1578944999999976,
          "durationTicks": 192,
          "midi": 68,
          "name": "G#4",
          "ticks": 159744,
          "time": 131.368224,
          "velocity": 0.3937007874015748
        },
        {
          "duration": 0.3157889999999952,
          "durationTicks": 384,
          "midi": 41,
          "name": "F2",
          "ticks": 160128,
          "time": 131.684013,
          "velocity": 0.3937007874015748
        },
        {
          "duration": 0.1578944999999976,
          "durationTicks": 192,
          "midi": 68,
          "name": "G#4",
          "ticks": 160128,
          "time": 131.684013,
          "velocity": 0.3937007874015748
        },
        {
          "duration": 0.1578944999999976,
          "durationTicks": 192,
          "midi": 70,
          "name": "A#4",
          "ticks": 160320,
          "time": 131.8419075,
          "velocity": 0.3937007874015748
        },
        {
          "duration": 0.1578944999999976,
          "durationTicks": 192,
          "midi": 72,
          "name": "C5",
          "ticks": 160512,
          "time": 131.999802,
          "velocity": 0.3937007874015748
        },
        {
          "duration": 0.31578900000002363,
          "durationTicks": 384,
          "midi": 41,
          "name": "F2",
          "ticks": 160896,
          "time": 132.31559099999998,
          "velocity": 0.3937007874015748
        },
        {
          "duration": 0.1578944999999976,
          "durationTicks": 192,
          "midi": 68,
          "name": "G#4",
          "ticks": 160896,
          "time": 132.31559099999998,
          "velocity": 0.3937007874015748
        },
        {
          "duration": 0.1578944999999976,
          "durationTicks": 192,
          "midi": 70,
          "name": "A#4",
          "ticks": 161280,
          "time": 132.63138,
          "velocity": 0.3937007874015748
        },
        {
          "duration": 0.6315779999999904,
          "durationTicks": 768,
          "midi": 44,
          "name": "G#2",
          "ticks": 161280,
          "time": 132.63138,
          "velocity": 0.3937007874015748
        },
        {
          "duration": 0.1578944999999976,
          "durationTicks": 192,
          "midi": 70,
          "name": "A#4",
          "ticks": 161664,
          "time": 132.947169,
          "velocity": 0.3937007874015748
        },
        {
          "duration": 0.3157889999999952,
          "durationTicks": 384,
          "midi": 41,
          "name": "F2",
          "ticks": 161664,
          "time": 132.947169,
          "velocity": 0.3937007874015748
        },
        {
          "duration": 0.1578944999999976,
          "durationTicks": 192,
          "midi": 72,
          "name": "C5",
          "ticks": 161856,
          "time": 133.1050635,
          "velocity": 0.3937007874015748
        },
        {
          "duration": 0.1578944999999976,
          "durationTicks": 192,
          "midi": 67,
          "name": "G4",
          "ticks": 162048,
          "time": 133.262958,
          "velocity": 0.3937007874015748
        },
        {
          "duration": 0.6315779999999904,
          "durationTicks": 768,
          "midi": 46,
          "name": "A#2",
          "ticks": 162048,
          "time": 133.262958,
          "velocity": 0.3937007874015748
        },
        {
          "duration": 0.1578944999999976,
          "durationTicks": 192,
          "midi": 63,
          "name": "D#4",
          "ticks": 162432,
          "time": 133.578747,
          "velocity": 0.3937007874015748
        },
        {
          "duration": 0.3157889999999952,
          "durationTicks": 384,
          "midi": 41,
          "name": "F2",
          "ticks": 162432,
          "time": 133.578747,
          "velocity": 0.3937007874015748
        },
        {
          "duration": 1.1842087500000105,
          "durationTicks": 1440,
          "midi": 48,
          "name": "C3",
          "ticks": 162816,
          "time": 133.894536,
          "velocity": 0.3937007874015748
        },
        {
          "duration": 0.1578944999999976,
          "durationTicks": 192,
          "midi": 68,
          "name": "G#4",
          "ticks": 162816,
          "time": 133.894536,
          "velocity": 0.3937007874015748
        },
        {
          "duration": 0.1578944999999976,
          "durationTicks": 192,
          "midi": 68,
          "name": "G#4",
          "ticks": 163200,
          "time": 134.21032499999998,
          "velocity": 0.3937007874015748
        },
        {
          "duration": 0.31578900000002363,
          "durationTicks": 384,
          "midi": 44,
          "name": "G#2",
          "ticks": 163200,
          "time": 134.21032499999998,
          "velocity": 0.3937007874015748
        },
        {
          "duration": 0.15789450000002603,
          "durationTicks": 192,
          "midi": 70,
          "name": "A#4",
          "ticks": 163392,
          "time": 134.36821949999998,
          "velocity": 0.3937007874015748
        },
        {
          "duration": 0.1578944999999976,
          "durationTicks": 192,
          "midi": 72,
          "name": "C5",
          "ticks": 163584,
          "time": 134.526114,
          "velocity": 0.3937007874015748
        },
        {
          "duration": 0.1578944999999976,
          "durationTicks": 192,
          "midi": 68,
          "name": "G#4",
          "ticks": 163776,
          "time": 134.6840085,
          "velocity": 0.3937007874015748
        },
        {
          "duration": 0.1578944999999976,
          "durationTicks": 192,
          "midi": 72,
          "name": "C5",
          "ticks": 163968,
          "time": 134.841903,
          "velocity": 0.3937007874015748
        },
        {
          "duration": 0.3157889999999952,
          "durationTicks": 384,
          "midi": 44,
          "name": "G#2",
          "ticks": 163968,
          "time": 134.841903,
          "velocity": 0.3937007874015748
        },
        {
          "duration": 0.1578944999999976,
          "durationTicks": 192,
          "midi": 80,
          "name": "G#5",
          "ticks": 164160,
          "time": 134.9997975,
          "velocity": 0.3937007874015748
        },
        {
          "duration": 1.1842087500000105,
          "durationTicks": 1440,
          "midi": 39,
          "name": "D#2",
          "ticks": 164352,
          "time": 135.157692,
          "velocity": 0.3937007874015748
        },
        {
          "duration": 0.3157889999999952,
          "durationTicks": 384,
          "midi": 79,
          "name": "G5",
          "ticks": 164352,
          "time": 135.157692,
          "velocity": 0.3937007874015748
        },
        {
          "duration": 0.3157889999999952,
          "durationTicks": 384,
          "midi": 44,
          "name": "G#2",
          "ticks": 164736,
          "time": 135.473481,
          "velocity": 0.3937007874015748
        },
        {
          "duration": 0.3157889999999952,
          "durationTicks": 384,
          "midi": 75,
          "name": "D#5",
          "ticks": 164736,
          "time": 135.473481,
          "velocity": 0.3937007874015748
        },
        {
          "duration": 0.3157889999999952,
          "durationTicks": 384,
          "midi": 70,
          "name": "A#4",
          "ticks": 165120,
          "time": 135.78927,
          "velocity": 0.3937007874015748
        },
        {
          "duration": 0.31578900000002363,
          "durationTicks": 384,
          "midi": 43,
          "name": "G2",
          "ticks": 165504,
          "time": 136.10505899999998,
          "velocity": 0.3937007874015748
        },
        {
          "duration": 0.31578900000002363,
          "durationTicks": 384,
          "midi": 75,
          "name": "D#5",
          "ticks": 165504,
          "time": 136.10505899999998,
          "velocity": 0.3937007874015748
        },
        {
          "duration": 0.3157889999999952,
          "durationTicks": 384,
          "midi": 77,
          "name": "F5",
          "ticks": 165888,
          "time": 136.420848,
          "velocity": 0.3937007874015748
        },
        {
          "duration": 1.184208749999982,
          "durationTicks": 1440,
          "midi": 41,
          "name": "F2",
          "ticks": 165888,
          "time": 136.420848,
          "velocity": 0.3937007874015748
        },
        {
          "duration": 0.3157889999999952,
          "durationTicks": 384,
          "midi": 49,
          "name": "C#3",
          "ticks": 166272,
          "time": 136.736637,
          "velocity": 0.3937007874015748
        },
        {
          "duration": 0.1578944999999976,
          "durationTicks": 192,
          "midi": 72,
          "name": "C5",
          "ticks": 166272,
          "time": 136.736637,
          "velocity": 0.3937007874015748
        },
        {
          "duration": 0.1578944999999976,
          "durationTicks": 192,
          "midi": 75,
          "name": "D#5",
          "ticks": 166464,
          "time": 136.8945315,
          "velocity": 0.3937007874015748
        },
        {
          "duration": 0.1578944999999976,
          "durationTicks": 192,
          "midi": 77,
          "name": "F5",
          "ticks": 166656,
          "time": 137.052426,
          "velocity": 0.3937007874015748
        },
        {
          "duration": 0.1578944999999976,
          "durationTicks": 192,
          "midi": 72,
          "name": "C5",
          "ticks": 167040,
          "time": 137.368215,
          "velocity": 0.3937007874015748
        },
        {
          "duration": 0.3157889999999952,
          "durationTicks": 384,
          "midi": 49,
          "name": "C#3",
          "ticks": 167040,
          "time": 137.368215,
          "velocity": 0.3937007874015748
        },
        {
          "duration": 0.1578944999999976,
          "durationTicks": 192,
          "midi": 70,
          "name": "A#4",
          "ticks": 167424,
          "time": 137.684004,
          "velocity": 0.3937007874015748
        },
        {
          "duration": 0.6315780000000188,
          "durationTicks": 768,
          "midi": 41,
          "name": "F2",
          "ticks": 167424,
          "time": 137.684004,
          "velocity": 0.3937007874015748
        },
        {
          "duration": 0.1578944999999976,
          "durationTicks": 192,
          "midi": 70,
          "name": "A#4",
          "ticks": 167808,
          "time": 137.99979299999998,
          "velocity": 0.3937007874015748
        },
        {
          "duration": 0.31578900000002363,
          "durationTicks": 384,
          "midi": 49,
          "name": "C#3",
          "ticks": 167808,
          "time": 137.99979299999998,
          "velocity": 0.3937007874015748
        },
        {
          "duration": 0.15789450000002603,
          "durationTicks": 192,
          "midi": 72,
          "name": "C5",
          "ticks": 168000,
          "time": 138.15768749999998,
          "velocity": 0.3937007874015748
        },
        {
          "duration": 0.1578944999999976,
          "durationTicks": 192,
          "midi": 70,
          "name": "A#4",
          "ticks": 168192,
          "time": 138.315582,
          "velocity": 0.3937007874015748
        },
        {
          "duration": 0.6315779999999904,
          "durationTicks": 768,
          "midi": 44,
          "name": "G#2",
          "ticks": 168192,
          "time": 138.315582,
          "velocity": 0.3937007874015748
        },
        {
          "duration": 0.3157889999999952,
          "durationTicks": 384,
          "midi": 49,
          "name": "C#3",
          "ticks": 168576,
          "time": 138.631371,
          "velocity": 0.3937007874015748
        },
        {
          "duration": 0.1578944999999976,
          "durationTicks": 192,
          "midi": 68,
          "name": "G#4",
          "ticks": 168576,
          "time": 138.631371,
          "velocity": 0.3937007874015748
        },
        {
          "duration": 0.1578944999999976,
          "durationTicks": 192,
          "midi": 65,
          "name": "F4",
          "ticks": 168960,
          "time": 138.94716,
          "velocity": 0.3937007874015748
        },
        {
          "duration": 1.1842087500000105,
          "durationTicks": 1440,
          "midi": 41,
          "name": "F2",
          "ticks": 168960,
          "time": 138.94716,
          "velocity": 0.3937007874015748
        },
        {
          "duration": 0.1578944999999976,
          "durationTicks": 192,
          "midi": 68,
          "name": "G#4",
          "ticks": 169152,
          "time": 139.1050545,
          "velocity": 0.3937007874015748
        },
        {
          "duration": 0.1578944999999976,
          "durationTicks": 192,
          "midi": 70,
          "name": "A#4",
          "ticks": 169344,
          "time": 139.262949,
          "velocity": 0.3937007874015748
        },
        {
          "duration": 0.3157889999999952,
          "durationTicks": 384,
          "midi": 49,
          "name": "C#3",
          "ticks": 169344,
          "time": 139.262949,
          "velocity": 0.3937007874015748
        },
        {
          "duration": 0.1578944999999976,
          "durationTicks": 192,
          "midi": 72,
          "name": "C5",
          "ticks": 169536,
          "time": 139.4208435,
          "velocity": 0.3937007874015748
        },
        {
          "duration": 0.1578944999999976,
          "durationTicks": 192,
          "midi": 75,
          "name": "D#5",
          "ticks": 169728,
          "time": 139.578738,
          "velocity": 0.3937007874015748
        },
        {
          "duration": 0.1578944999999976,
          "durationTicks": 192,
          "midi": 72,
          "name": "C5",
          "ticks": 169920,
          "time": 139.73663249999998,
          "velocity": 0.3937007874015748
        },
        {
          "duration": 0.31578900000002363,
          "durationTicks": 384,
          "midi": 49,
          "name": "C#3",
          "ticks": 170112,
          "time": 139.89452699999998,
          "velocity": 0.3937007874015748
        },
        {
          "duration": 0.1578944999999976,
          "durationTicks": 192,
          "midi": 70,
          "name": "A#4",
          "ticks": 170112,
          "time": 139.89452699999998,
          "velocity": 0.3937007874015748
        },
        {
          "duration": 0.15789450000002603,
          "durationTicks": 192,
          "midi": 68,
          "name": "G#4",
          "ticks": 170304,
          "time": 140.05242149999998,
          "velocity": 0.3937007874015748
        },
        {
          "duration": 0.0789472499999988,
          "durationTicks": 96,
          "midi": 70,
          "name": "A#4",
          "ticks": 170496,
          "time": 140.210316,
          "velocity": 0.3937007874015748
        },
        {
          "duration": 1.184208749999982,
          "durationTicks": 1440,
          "midi": 40,
          "name": "E2",
          "ticks": 170496,
          "time": 140.210316,
          "velocity": 0.3937007874015748
        },
        {
          "duration": 0.0789472499999988,
          "durationTicks": 96,
          "midi": 67,
          "name": "G4",
          "ticks": 170592,
          "time": 140.28926325,
          "velocity": 0.3937007874015748
        },
        {
          "duration": 0.0789472499999988,
          "durationTicks": 96,
          "midi": 65,
          "name": "F4",
          "ticks": 170688,
          "time": 140.3682105,
          "velocity": 0.3937007874015748
        },
        {
          "duration": 0.0789472499999988,
          "durationTicks": 96,
          "midi": 63,
          "name": "D#4",
          "ticks": 170784,
          "time": 140.44715775,
          "velocity": 0.3937007874015748
        },
        {
          "duration": 0.0789472499999988,
          "durationTicks": 96,
          "midi": 70,
          "name": "A#4",
          "ticks": 170880,
          "time": 140.526105,
          "velocity": 0.3937007874015748
        },
        {
          "duration": 0.3157889999999952,
          "durationTicks": 384,
          "midi": 48,
          "name": "C3",
          "ticks": 170880,
          "time": 140.526105,
          "velocity": 0.3937007874015748
        },
        {
          "duration": 0.0789472499999988,
          "durationTicks": 96,
          "midi": 67,
          "name": "G4",
          "ticks": 170976,
          "time": 140.60505225,
          "velocity": 0.3937007874015748
        },
        {
          "duration": 0.0789472499999988,
          "durationTicks": 96,
          "midi": 65,
          "name": "F4",
          "ticks": 171072,
          "time": 140.6839995,
          "velocity": 0.3937007874015748
        },
        {
          "duration": 0.0789472499999988,
          "durationTicks": 96,
          "midi": 63,
          "name": "D#4",
          "ticks": 171168,
          "time": 140.76294675,
          "velocity": 0.3937007874015748
        },
        {
          "duration": 0.0789472499999988,
          "durationTicks": 96,
          "midi": 72,
          "name": "C5",
          "ticks": 171264,
          "time": 140.841894,
          "velocity": 0.3937007874015748
        },
        {
          "duration": 0.0789472499999988,
          "durationTicks": 96,
          "midi": 68,
          "name": "G#4",
          "ticks": 171360,
          "time": 140.92084125,
          "velocity": 0.3937007874015748
        },
        {
          "duration": 0.0789472499999988,
          "durationTicks": 96,
          "midi": 64,
          "name": "E4",
          "ticks": 171456,
          "time": 140.9997885,
          "velocity": 0.3937007874015748
        },
        {
          "duration": 0.0789472499999988,
          "durationTicks": 96,
          "midi": 60,
          "name": "C4",
          "ticks": 171552,
          "time": 141.07873575,
          "velocity": 0.3937007874015748
        },
        {
          "duration": 0.3157889999999952,
          "durationTicks": 384,
          "midi": 48,
          "name": "C3",
          "ticks": 171648,
          "time": 141.157683,
          "velocity": 0.3937007874015748
        },
        {
          "duration": 0.0789472499999988,
          "durationTicks": 96,
          "midi": 72,
          "name": "C5",
          "ticks": 171648,
          "time": 141.157683,
          "velocity": 0.3937007874015748
        },
        {
          "duration": 0.0789472499999988,
          "durationTicks": 96,
          "midi": 68,
          "name": "G#4",
          "ticks": 171744,
          "time": 141.23663025,
          "velocity": 0.3937007874015748
        },
        {
          "duration": 0.0789472499999988,
          "durationTicks": 96,
          "midi": 64,
          "name": "E4",
          "ticks": 171840,
          "time": 141.3155775,
          "velocity": 0.3937007874015748
        },
        {
          "duration": 0.0789472499999988,
          "durationTicks": 96,
          "midi": 60,
          "name": "C4",
          "ticks": 171936,
          "time": 141.39452475,
          "velocity": 0.3937007874015748
        },
        {
          "duration": 1.1842087500000105,
          "durationTicks": 1440,
          "midi": 44,
          "name": "G#2",
          "ticks": 172032,
          "time": 141.473472,
          "velocity": 0.3937007874015748
        },
        {
          "duration": 0.1578944999999976,
          "durationTicks": 192,
          "midi": 68,
          "name": "G#4",
          "ticks": 172032,
          "time": 141.473472,
          "velocity": 0.3937007874015748
        },
        {
          "duration": 0.15789450000002603,
          "durationTicks": 192,
          "midi": 68,
          "name": "G#4",
          "ticks": 172416,
          "time": 141.78926099999998,
          "velocity": 0.3937007874015748
        },
        {
          "duration": 0.31578900000002363,
          "durationTicks": 384,
          "midi": 41,
          "name": "F2",
          "ticks": 172416,
          "time": 141.78926099999998,
          "velocity": 0.3937007874015748
        },
        {
          "duration": 0.1578944999999976,
          "durationTicks": 192,
          "midi": 70,
          "name": "A#4",
          "ticks": 172608,
          "time": 141.9471555,
          "velocity": 0.3937007874015748
        },
        {
          "duration": 0.1578944999999976,
          "durationTicks": 192,
          "midi": 72,
          "name": "C5",
          "ticks": 172800,
          "time": 142.10505,
          "velocity": 0.3937007874015748
        },
        {
          "duration": 0.1578944999999976,
          "durationTicks": 192,
          "midi": 68,
          "name": "G#4",
          "ticks": 173184,
          "time": 142.420839,
          "velocity": 0.3937007874015748
        },
        {
          "duration": 0.3157889999999952,
          "durationTicks": 384,
          "midi": 41,
          "name": "F2",
          "ticks": 173184,
          "time": 142.420839,
          "velocity": 0.3937007874015748
        },
        {
          "duration": 0.6315779999999904,
          "durationTicks": 768,
          "midi": 44,
          "name": "G#2",
          "ticks": 173568,
          "time": 142.736628,
          "velocity": 0.3937007874015748
        },
        {
          "duration": 0.1578944999999976,
          "durationTicks": 192,
          "midi": 70,
          "name": "A#4",
          "ticks": 173568,
          "time": 142.736628,
          "velocity": 0.3937007874015748
        },
        {
          "duration": 0.1578944999999976,
          "durationTicks": 192,
          "midi": 70,
          "name": "A#4",
          "ticks": 173952,
          "time": 143.052417,
          "velocity": 0.3937007874015748
        },
        {
          "duration": 0.3157889999999952,
          "durationTicks": 384,
          "midi": 41,
          "name": "F2",
          "ticks": 173952,
          "time": 143.052417,
          "velocity": 0.3937007874015748
        },
        {
          "duration": 0.1578944999999976,
          "durationTicks": 192,
          "midi": 72,
          "name": "C5",
          "ticks": 174144,
          "time": 143.2103115,
          "velocity": 0.3937007874015748
        },
        {
          "duration": 0.6315780000000188,
          "durationTicks": 768,
          "midi": 46,
          "name": "A#2",
          "ticks": 174336,
          "time": 143.368206,
          "velocity": 0.3937007874015748
        },
        {
          "duration": 0.1578944999999976,
          "durationTicks": 192,
          "midi": 67,
          "name": "G4",
          "ticks": 174336,
          "time": 143.368206,
          "velocity": 0.3937007874015748
        },
        {
          "duration": 0.15789450000002603,
          "durationTicks": 192,
          "midi": 63,
          "name": "D#4",
          "ticks": 174720,
          "time": 143.68399499999998,
          "velocity": 0.3937007874015748
        },
        {
          "duration": 0.31578900000002363,
          "durationTicks": 384,
          "midi": 41,
          "name": "F2",
          "ticks": 174720,
          "time": 143.68399499999998,
          "velocity": 0.3937007874015748
        },
        {
          "duration": 0.1578944999999976,
          "durationTicks": 192,
          "midi": 68,
          "name": "G#4",
          "ticks": 175104,
          "time": 143.999784,
          "velocity": 0.3937007874015748
        },
        {
          "duration": 1.184208749999982,
          "durationTicks": 1440,
          "midi": 48,
          "name": "C3",
          "ticks": 175104,
          "time": 143.999784,
          "velocity": 0.3937007874015748
        },
        {
          "duration": 0.3157889999999952,
          "durationTicks": 384,
          "midi": 44,
          "name": "G#2",
          "ticks": 175488,
          "time": 144.315573,
          "velocity": 0.3937007874015748
        },
        {
          "duration": 0.1578944999999976,
          "durationTicks": 192,
          "midi": 68,
          "name": "G#4",
          "ticks": 175488,
          "time": 144.315573,
          "velocity": 0.3937007874015748
        },
        {
          "duration": 0.1578944999999976,
          "durationTicks": 192,
          "midi": 70,
          "name": "A#4",
          "ticks": 175680,
          "time": 144.4734675,
          "velocity": 0.3937007874015748
        },
        {
          "duration": 0.1578944999999976,
          "durationTicks": 192,
          "midi": 72,
          "name": "C5",
          "ticks": 175872,
          "time": 144.631362,
          "velocity": 0.3937007874015748
        },
        {
          "duration": 0.1578944999999976,
          "durationTicks": 192,
          "midi": 68,
          "name": "G#4",
          "ticks": 176064,
          "time": 144.7892565,
          "velocity": 0.3937007874015748
        },
        {
          "duration": 0.1578944999999976,
          "durationTicks": 192,
          "midi": 72,
          "name": "C5",
          "ticks": 176256,
          "time": 144.947151,
          "velocity": 0.3937007874015748
        },
        {
          "duration": 0.3157889999999952,
          "durationTicks": 384,
          "midi": 44,
          "name": "G#2",
          "ticks": 176256,
          "time": 144.947151,
          "velocity": 0.3937007874015748
        },
        {
          "duration": 0.1578944999999976,
          "durationTicks": 192,
          "midi": 80,
          "name": "G#5",
          "ticks": 176448,
          "time": 145.1050455,
          "velocity": 0.3937007874015748
        },
        {
          "duration": 0.3157889999999952,
          "durationTicks": 384,
          "midi": 79,
          "name": "G5",
          "ticks": 176640,
          "time": 145.26294,
          "velocity": 0.3937007874015748
        },
        {
          "duration": 1.1842087500000105,
          "durationTicks": 1440,
          "midi": 39,
          "name": "D#2",
          "ticks": 176640,
          "time": 145.26294,
          "velocity": 0.3937007874015748
        },
        {
          "duration": 0.31578900000002363,
          "durationTicks": 384,
          "midi": 44,
          "name": "G#2",
          "ticks": 177024,
          "time": 145.57872899999998,
          "velocity": 0.3937007874015748
        },
        {
          "duration": 0.31578900000002363,
          "durationTicks": 384,
          "midi": 75,
          "name": "D#5",
          "ticks": 177024,
          "time": 145.57872899999998,
          "velocity": 0.3937007874015748
        },
        {
          "duration": 0.3157889999999952,
          "durationTicks": 384,
          "midi": 70,
          "name": "A#4",
          "ticks": 177408,
          "time": 145.894518,
          "velocity": 0.3937007874015748
        },
        {
          "duration": 0.3157889999999952,
          "durationTicks": 384,
          "midi": 43,
          "name": "G2",
          "ticks": 177792,
          "time": 146.210307,
          "velocity": 0.3937007874015748
        },
        {
          "duration": 0.3157889999999952,
          "durationTicks": 384,
          "midi": 75,
          "name": "D#5",
          "ticks": 177792,
          "time": 146.210307,
          "velocity": 0.3937007874015748
        },
        {
          "duration": 1.1842087500000105,
          "durationTicks": 1440,
          "midi": 41,
          "name": "F2",
          "ticks": 178176,
          "time": 146.526096,
          "velocity": 0.3937007874015748
        },
        {
          "duration": 0.3157889999999952,
          "durationTicks": 384,
          "midi": 77,
          "name": "F5",
          "ticks": 178176,
          "time": 146.526096,
          "velocity": 0.3937007874015748
        },
        {
          "duration": 0.3157889999999952,
          "durationTicks": 384,
          "midi": 49,
          "name": "C#3",
          "ticks": 178560,
          "time": 146.841885,
          "velocity": 0.3937007874015748
        },
        {
          "duration": 0.1578944999999976,
          "durationTicks": 192,
          "midi": 72,
          "name": "C5",
          "ticks": 178560,
          "time": 146.841885,
          "velocity": 0.3937007874015748
        },
        {
          "duration": 0.1578944999999976,
          "durationTicks": 192,
          "midi": 75,
          "name": "D#5",
          "ticks": 178752,
          "time": 146.9997795,
          "velocity": 0.3937007874015748
        },
        {
          "duration": 0.1578944999999976,
          "durationTicks": 192,
          "midi": 77,
          "name": "F5",
          "ticks": 178944,
          "time": 147.157674,
          "velocity": 0.3937007874015748
        },
        {
          "duration": 0.15789450000002603,
          "durationTicks": 192,
          "midi": 72,
          "name": "C5",
          "ticks": 179328,
          "time": 147.47346299999998,
          "velocity": 0.3937007874015748
        },
        {
          "duration": 0.31578900000002363,
          "durationTicks": 384,
          "midi": 49,
          "name": "C#3",
          "ticks": 179328,
          "time": 147.47346299999998,
          "velocity": 0.3937007874015748
        },
        {
          "duration": 0.1578944999999976,
          "durationTicks": 192,
          "midi": 70,
          "name": "A#4",
          "ticks": 179712,
          "time": 147.789252,
          "velocity": 0.3937007874015748
        },
        {
          "duration": 0.6315779999999904,
          "durationTicks": 768,
          "midi": 41,
          "name": "F2",
          "ticks": 179712,
          "time": 147.789252,
          "velocity": 0.3937007874015748
        },
        {
          "duration": 0.3157889999999952,
          "durationTicks": 384,
          "midi": 49,
          "name": "C#3",
          "ticks": 180096,
          "time": 148.105041,
          "velocity": 0.3937007874015748
        },
        {
          "duration": 0.1578944999999976,
          "durationTicks": 192,
          "midi": 70,
          "name": "A#4",
          "ticks": 180096,
          "time": 148.105041,
          "velocity": 0.3937007874015748
        },
        {
          "duration": 0.1578944999999976,
          "durationTicks": 192,
          "midi": 72,
          "name": "C5",
          "ticks": 180288,
          "time": 148.2629355,
          "velocity": 0.3937007874015748
        },
        {
          "duration": 0.6315779999999904,
          "durationTicks": 768,
          "midi": 44,
          "name": "G#2",
          "ticks": 180480,
          "time": 148.42083,
          "velocity": 0.3937007874015748
        },
        {
          "duration": 0.1578944999999976,
          "durationTicks": 192,
          "midi": 70,
          "name": "A#4",
          "ticks": 180480,
          "time": 148.42083,
          "velocity": 0.3937007874015748
        },
        {
          "duration": 0.1578944999999976,
          "durationTicks": 192,
          "midi": 68,
          "name": "G#4",
          "ticks": 180864,
          "time": 148.736619,
          "velocity": 0.3937007874015748
        },
        {
          "duration": 0.3157889999999952,
          "durationTicks": 384,
          "midi": 49,
          "name": "C#3",
          "ticks": 180864,
          "time": 148.736619,
          "velocity": 0.3937007874015748
        },
        {
          "duration": 0.1578944999999976,
          "durationTicks": 192,
          "midi": 65,
          "name": "F4",
          "ticks": 181248,
          "time": 149.05240799999999,
          "velocity": 0.3937007874015748
        },
        {
          "duration": 1.1842087500000105,
          "durationTicks": 1440,
          "midi": 41,
          "name": "F2",
          "ticks": 181248,
          "time": 149.05240799999999,
          "velocity": 0.3937007874015748
        },
        {
          "duration": 0.1578944999999976,
          "durationTicks": 192,
          "midi": 68,
          "name": "G#4",
          "ticks": 181440,
          "time": 149.21030249999998,
          "velocity": 0.3937007874015748
        },
        {
          "duration": 0.15789450000002603,
          "durationTicks": 192,
          "midi": 70,
          "name": "A#4",
          "ticks": 181632,
          "time": 149.36819699999998,
          "velocity": 0.3937007874015748
        },
        {
          "duration": 0.31578900000002363,
          "durationTicks": 384,
          "midi": 49,
          "name": "C#3",
          "ticks": 181632,
          "time": 149.36819699999998,
          "velocity": 0.3937007874015748
        },
        {
          "duration": 0.1578944999999976,
          "durationTicks": 192,
          "midi": 72,
          "name": "C5",
          "ticks": 181824,
          "time": 149.5260915,
          "velocity": 0.3937007874015748
        },
        {
          "duration": 0.1578944999999976,
          "durationTicks": 192,
          "midi": 75,
          "name": "D#5",
          "ticks": 182016,
          "time": 149.683986,
          "velocity": 0.3937007874015748
        },
        {
          "duration": 0.1578944999999976,
          "durationTicks": 192,
          "midi": 72,
          "name": "C5",
          "ticks": 182208,
          "time": 149.8418805,
          "velocity": 0.3937007874015748
        },
        {
          "duration": 0.1578944999999976,
          "durationTicks": 192,
          "midi": 70,
          "name": "A#4",
          "ticks": 182400,
          "time": 149.999775,
          "velocity": 0.3937007874015748
        },
        {
          "duration": 0.3157889999999952,
          "durationTicks": 384,
          "midi": 49,
          "name": "C#3",
          "ticks": 182400,
          "time": 149.999775,
          "velocity": 0.3937007874015748
        },
        {
          "duration": 0.1578944999999976,
          "durationTicks": 192,
          "midi": 68,
          "name": "G#4",
          "ticks": 182592,
          "time": 150.1576695,
          "velocity": 0.3937007874015748
        },
        {
          "duration": 0.0789472499999988,
          "durationTicks": 96,
          "midi": 70,
          "name": "A#4",
          "ticks": 182784,
          "time": 150.315564,
          "velocity": 0.3937007874015748
        },
        {
          "duration": 1.1842087500000105,
          "durationTicks": 1440,
          "midi": 40,
          "name": "E2",
          "ticks": 182784,
          "time": 150.315564,
          "velocity": 0.3937007874015748
        },
        {
          "duration": 0.0789472499999988,
          "durationTicks": 96,
          "midi": 67,
          "name": "G4",
          "ticks": 182880,
          "time": 150.39451125,
          "velocity": 0.3937007874015748
        },
        {
          "duration": 0.0789472499999988,
          "durationTicks": 96,
          "midi": 65,
          "name": "F4",
          "ticks": 182976,
          "time": 150.4734585,
          "velocity": 0.3937007874015748
        },
        {
          "duration": 0.0789472499999988,
          "durationTicks": 96,
          "midi": 63,
          "name": "D#4",
          "ticks": 183072,
          "time": 150.55240575,
          "velocity": 0.3937007874015748
        },
        {
          "duration": 0.0789472499999988,
          "durationTicks": 96,
          "midi": 70,
          "name": "A#4",
          "ticks": 183168,
          "time": 150.631353,
          "velocity": 0.3937007874015748
        },
        {
          "duration": 0.3157889999999952,
          "durationTicks": 384,
          "midi": 48,
          "name": "C3",
          "ticks": 183168,
          "time": 150.631353,
          "velocity": 0.3937007874015748
        },
        {
          "duration": 0.0789472499999988,
          "durationTicks": 96,
          "midi": 67,
          "name": "G4",
          "ticks": 183264,
          "time": 150.71030025,
          "velocity": 0.3937007874015748
        },
        {
          "duration": 0.0789472499999988,
          "durationTicks": 96,
          "midi": 65,
          "name": "F4",
          "ticks": 183360,
          "time": 150.7892475,
          "velocity": 0.3937007874015748
        },
        {
          "duration": 0.0789472499999988,
          "durationTicks": 96,
          "midi": 63,
          "name": "D#4",
          "ticks": 183456,
          "time": 150.86819475,
          "velocity": 0.3937007874015748
        },
        {
          "duration": 0.0789472499999988,
          "durationTicks": 96,
          "midi": 72,
          "name": "C5",
          "ticks": 183552,
          "time": 150.94714199999999,
          "velocity": 0.3937007874015748
        },
        {
          "duration": 0.0789472499999988,
          "durationTicks": 96,
          "midi": 68,
          "name": "G#4",
          "ticks": 183648,
          "time": 151.02608924999998,
          "velocity": 0.3937007874015748
        },
        {
          "duration": 0.0789472499999988,
          "durationTicks": 96,
          "midi": 64,
          "name": "E4",
          "ticks": 183744,
          "time": 151.10503649999998,
          "velocity": 0.3937007874015748
        },
        {
          "duration": 0.0789472499999988,
          "durationTicks": 96,
          "midi": 60,
          "name": "C4",
          "ticks": 183840,
          "time": 151.18398374999998,
          "velocity": 0.3937007874015748
        },
        {
          "duration": 0.0789472499999988,
          "durationTicks": 96,
          "midi": 72,
          "name": "C5",
          "ticks": 183936,
          "time": 151.26293099999998,
          "velocity": 0.3937007874015748
        },
        {
          "duration": 0.31578900000002363,
          "durationTicks": 384,
          "midi": 48,
          "name": "C3",
          "ticks": 183936,
          "time": 151.26293099999998,
          "velocity": 0.3937007874015748
        },
        {
          "duration": 0.07894725000002722,
          "durationTicks": 96,
          "midi": 68,
          "name": "G#4",
          "ticks": 184032,
          "time": 151.34187824999998,
          "velocity": 0.3937007874015748
        },
        {
          "duration": 0.0789472499999988,
          "durationTicks": 96,
          "midi": 64,
          "name": "E4",
          "ticks": 184128,
          "time": 151.4208255,
          "velocity": 0.3937007874015748
        },
        {
          "duration": 0.0789472499999988,
          "durationTicks": 96,
          "midi": 60,
          "name": "C4",
          "ticks": 184224,
          "time": 151.49977275,
          "velocity": 0.3937007874015748
        }
      ],
      "endOfTrackTicks": 184320
    },
    {
      "channel": 1,
      "controlChanges": {},
      "pitchBends": [],
      "instrument": {
        "family": "guitar",
        "number": 24,
        "name": "acoustic guitar (nylon)"
      },
      "name": "Acoustic Guitar",
      "notes": [
        {
          "duration": 0.31578899999999877,
          "durationTicks": 384,
          "midi": 68,
          "name": "G#4",
          "ticks": 24576,
          "time": 20.210496,
          "velocity": 0.3937007874015748
        },
        {
          "duration": 2.526312000000001,
          "durationTicks": 3072,
          "midi": 60,
          "name": "C4",
          "ticks": 24576,
          "time": 20.210496,
          "velocity": 0.3937007874015748
        },
        {
          "duration": 0.15789450000000116,
          "durationTicks": 192,
          "midi": 68,
          "name": "G#4",
          "ticks": 24960,
          "time": 20.526284999999998,
          "velocity": 0.3937007874015748
        },
        {
          "duration": 0.15789450000000116,
          "durationTicks": 192,
          "midi": 70,
          "name": "A#4",
          "ticks": 25152,
          "time": 20.6841795,
          "velocity": 0.3937007874015748
        },
        {
          "duration": 0.31578899999999877,
          "durationTicks": 384,
          "midi": 72,
          "name": "C5",
          "ticks": 25344,
          "time": 20.842074,
          "velocity": 0.3937007874015748
        },
        {
          "duration": 0.31578899999999877,
          "durationTicks": 384,
          "midi": 68,
          "name": "G#4",
          "ticks": 25728,
          "time": 21.157863,
          "velocity": 0.3937007874015748
        },
        {
          "duration": 0.3157890000000023,
          "durationTicks": 384,
          "midi": 70,
          "name": "A#4",
          "ticks": 26112,
          "time": 21.473651999999998,
          "velocity": 0.3937007874015748
        },
        {
          "duration": 0.1578944999999976,
          "durationTicks": 192,
          "midi": 70,
          "name": "A#4",
          "ticks": 26496,
          "time": 21.789441,
          "velocity": 0.3937007874015748
        },
        {
          "duration": 0.15789450000000116,
          "durationTicks": 192,
          "midi": 72,
          "name": "C5",
          "ticks": 26688,
          "time": 21.947335499999998,
          "velocity": 0.3937007874015748
        },
        {
          "duration": 0.31578899999999877,
          "durationTicks": 384,
          "midi": 67,
          "name": "G4",
          "ticks": 26880,
          "time": 22.10523,
          "velocity": 0.3937007874015748
        },
        {
          "duration": 0.3157890000000023,
          "durationTicks": 384,
          "midi": 63,
          "name": "D#4",
          "ticks": 27264,
          "time": 22.421018999999998,
          "velocity": 0.3937007874015748
        },
        {
          "duration": 0.31578899999999877,
          "durationTicks": 384,
          "midi": 68,
          "name": "G#4",
          "ticks": 27648,
          "time": 22.736808,
          "velocity": 0.3937007874015748
        },
        {
          "duration": 1.2631559999999986,
          "durationTicks": 1536,
          "midi": 63,
          "name": "D#4",
          "ticks": 27648,
          "time": 22.736808,
          "velocity": 0.3937007874015748
        },
        {
          "duration": 0.15789450000000116,
          "durationTicks": 192,
          "midi": 68,
          "name": "G#4",
          "ticks": 28032,
          "time": 23.052597,
          "velocity": 0.3937007874015748
        },
        {
          "duration": 0.1578944999999976,
          "durationTicks": 192,
          "midi": 70,
          "name": "A#4",
          "ticks": 28224,
          "time": 23.2104915,
          "velocity": 0.3937007874015748
        },
        {
          "duration": 0.3157890000000023,
          "durationTicks": 384,
          "midi": 72,
          "name": "C5",
          "ticks": 28416,
          "time": 23.368385999999997,
          "velocity": 0.3937007874015748
        },
        {
          "duration": 0.31578899999999877,
          "durationTicks": 384,
          "midi": 80,
          "name": "G#5",
          "ticks": 28800,
          "time": 23.684175,
          "velocity": 0.3937007874015748
        },
        {
          "duration": 0.31578899999999877,
          "durationTicks": 384,
          "midi": 79,
          "name": "G5",
          "ticks": 29184,
          "time": 23.999964,
          "velocity": 0.3937007874015748
        },
        {
          "duration": 1.2631560000000022,
          "durationTicks": 1536,
          "midi": 65,
          "name": "F4",
          "ticks": 29184,
          "time": 23.999964,
          "velocity": 0.3937007874015748
        },
        {
          "duration": 0.3157890000000023,
          "durationTicks": 384,
          "midi": 75,
          "name": "D#5",
          "ticks": 29568,
          "time": 24.315752999999997,
          "velocity": 0.3937007874015748
        },
        {
          "duration": 0.31578899999999877,
          "durationTicks": 384,
          "midi": 70,
          "name": "A#4",
          "ticks": 29952,
          "time": 24.631542,
          "velocity": 0.3937007874015748
        },
        {
          "duration": 0.3157890000000023,
          "durationTicks": 384,
          "midi": 67,
          "name": "G4",
          "ticks": 30336,
          "time": 24.947331,
          "velocity": 0.3937007874015748
        },
        {
          "duration": 0.1578944999999976,
          "durationTicks": 192,
          "midi": 68,
          "name": "G#4",
          "ticks": 30720,
          "time": 25.26312,
          "velocity": 0.3937007874015748
        },
        {
          "duration": 0.15789450000000116,
          "durationTicks": 192,
          "midi": 68,
          "name": "G#4",
          "ticks": 31104,
          "time": 25.578909,
          "velocity": 0.3937007874015748
        },
        {
          "duration": 0.1578944999999976,
          "durationTicks": 192,
          "midi": 70,
          "name": "A#4",
          "ticks": 31296,
          "time": 25.7368035,
          "velocity": 0.3937007874015748
        },
        {
          "duration": 0.15789450000000116,
          "durationTicks": 192,
          "midi": 72,
          "name": "C5",
          "ticks": 31488,
          "time": 25.894697999999998,
          "velocity": 0.3937007874015748
        },
        {
          "duration": 0.1578944999999976,
          "durationTicks": 192,
          "midi": 68,
          "name": "G#4",
          "ticks": 31872,
          "time": 26.210487,
          "velocity": 0.3937007874015748
        },
        {
          "duration": 0.15789450000000116,
          "durationTicks": 192,
          "midi": 70,
          "name": "A#4",
          "ticks": 32256,
          "time": 26.526276,
          "velocity": 0.3937007874015748
        },
        {
          "duration": 0.15789450000000116,
          "durationTicks": 192,
          "midi": 70,
          "name": "A#4",
          "ticks": 32640,
          "time": 26.842064999999998,
          "velocity": 0.3937007874015748
        },
        {
          "duration": 0.15789450000000116,
          "durationTicks": 192,
          "midi": 72,
          "name": "C5",
          "ticks": 32832,
          "time": 26.9999595,
          "velocity": 0.3937007874015748
        },
        {
          "duration": 0.1578944999999976,
          "durationTicks": 192,
          "midi": 67,
          "name": "G4",
          "ticks": 33024,
          "time": 27.157854,
          "velocity": 0.3937007874015748
        },
        {
          "duration": 0.15789450000000116,
          "durationTicks": 192,
          "midi": 63,
          "name": "D#4",
          "ticks": 33408,
          "time": 27.473643,
          "velocity": 0.3937007874015748
        },
        {
          "duration": 0.31578899999999877,
          "durationTicks": 384,
          "midi": 63,
          "name": "D#4",
          "ticks": 33408,
          "time": 27.473643,
          "velocity": 0.3937007874015748
        },
        {
          "duration": 0.15789450000000116,
          "durationTicks": 192,
          "midi": 69,
          "name": "A4",
          "ticks": 33792,
          "time": 27.789431999999998,
          "velocity": 0.3937007874015748
        },
        {
          "duration": 1.2631560000000022,
          "durationTicks": 1536,
          "midi": 64,
          "name": "E4",
          "ticks": 33792,
          "time": 27.789431999999998,
          "velocity": 0.3937007874015748
        },
        {
          "duration": 0.1578944999999976,
          "durationTicks": 192,
          "midi": 69,
          "name": "A4",
          "ticks": 34176,
          "time": 28.105221,
          "velocity": 0.3937007874015748
        },
        {
          "duration": 0.15789450000000116,
          "durationTicks": 192,
          "midi": 70,
          "name": "A#4",
          "ticks": 34368,
          "time": 28.263115499999998,
          "velocity": 0.3937007874015748
        },
        {
          "duration": 0.15789450000000116,
          "durationTicks": 192,
          "midi": 72,
          "name": "C5",
          "ticks": 34560,
          "time": 28.42101,
          "velocity": 0.3937007874015748
        },
        {
          "duration": 0.15789450000000116,
          "durationTicks": 192,
          "midi": 77,
          "name": "F5",
          "ticks": 34944,
          "time": 28.736798999999998,
          "velocity": 0.3937007874015748
        },
        {
          "duration": 0.31578899999999877,
          "durationTicks": 384,
          "midi": 76,
          "name": "E5",
          "ticks": 35328,
          "time": 29.052588,
          "velocity": 0.3937007874015748
        },
        {
          "duration": 1.2631559999999986,
          "durationTicks": 1536,
          "midi": 64,
          "name": "E4",
          "ticks": 35328,
          "time": 29.052588,
          "velocity": 0.3937007874015748
        },
        {
          "duration": 0.31578899999999877,
          "durationTicks": 384,
          "midi": 79,
          "name": "G5",
          "ticks": 35712,
          "time": 29.368377,
          "velocity": 0.3937007874015748
        },
        {
          "duration": 0.6315780000000011,
          "durationTicks": 768,
          "midi": 77,
          "name": "F5",
          "ticks": 36096,
          "time": 29.684165999999998,
          "velocity": 0.3937007874015748
        },
        {
          "duration": 0.15789450000000116,
          "durationTicks": 192,
          "midi": 68,
          "name": "G#4",
          "ticks": 36864,
          "time": 30.315744,
          "velocity": 0.3937007874015748
        },
        {
          "duration": 1.2631559999999986,
          "durationTicks": 1536,
          "midi": 60,
          "name": "C4",
          "ticks": 36864,
          "time": 30.315744,
          "velocity": 0.3937007874015748
        },
        {
          "duration": 0.15789450000000116,
          "durationTicks": 192,
          "midi": 68,
          "name": "G#4",
          "ticks": 37248,
          "time": 30.631532999999997,
          "velocity": 0.3937007874015748
        },
        {
          "duration": 0.15789450000000116,
          "durationTicks": 192,
          "midi": 70,
          "name": "A#4",
          "ticks": 37440,
          "time": 30.7894275,
          "velocity": 0.3937007874015748
        },
        {
          "duration": 0.1578944999999976,
          "durationTicks": 192,
          "midi": 72,
          "name": "C5",
          "ticks": 37632,
          "time": 30.947322,
          "velocity": 0.3937007874015748
        },
        {
          "duration": 0.15789450000000116,
          "durationTicks": 192,
          "midi": 68,
          "name": "G#4",
          "ticks": 38016,
          "time": 31.263111,
          "velocity": 0.3937007874015748
        },
        {
          "duration": 0.15789450000000116,
          "durationTicks": 192,
          "midi": 70,
          "name": "A#4",
          "ticks": 38400,
          "time": 31.578899999999997,
          "velocity": 0.3937007874015748
        },
        {
          "duration": 1.2631560000000022,
          "durationTicks": 1536,
          "midi": 60,
          "name": "C4",
          "ticks": 38400,
          "time": 31.578899999999997,
          "velocity": 0.3937007874015748
        },
        {
          "duration": 0.1578944999999976,
          "durationTicks": 192,
          "midi": 70,
          "name": "A#4",
          "ticks": 38784,
          "time": 31.894689,
          "velocity": 0.3937007874015748
        },
        {
          "duration": 0.1578945000000047,
          "durationTicks": 192,
          "midi": 72,
          "name": "C5",
          "ticks": 38976,
          "time": 32.0525835,
          "velocity": 0.3937007874015748
        },
        {
          "duration": 0.1578944999999976,
          "durationTicks": 192,
          "midi": 67,
          "name": "G4",
          "ticks": 39168,
          "time": 32.210478,
          "velocity": 0.3937007874015748
        },
        {
          "duration": 0.1578945000000047,
          "durationTicks": 192,
          "midi": 63,
          "name": "D#4",
          "ticks": 39552,
          "time": 32.526267,
          "velocity": 0.3937007874015748
        },
        {
          "duration": 0.1578944999999976,
          "durationTicks": 192,
          "midi": 68,
          "name": "G#4",
          "ticks": 39936,
          "time": 32.842056,
          "velocity": 0.3937007874015748
        },
        {
          "duration": 1.2631560000000022,
          "durationTicks": 1536,
          "midi": 63,
          "name": "D#4",
          "ticks": 39936,
          "time": 32.842056,
          "velocity": 0.3937007874015748
        },
        {
          "duration": 0.1578944999999976,
          "durationTicks": 192,
          "midi": 68,
          "name": "G#4",
          "ticks": 40320,
          "time": 33.157845,
          "velocity": 0.3937007874015748
        },
        {
          "duration": 0.1578944999999976,
          "durationTicks": 192,
          "midi": 70,
          "name": "A#4",
          "ticks": 40512,
          "time": 33.3157395,
          "velocity": 0.3937007874015748
        },
        {
          "duration": 0.1578945000000047,
          "durationTicks": 192,
          "midi": 72,
          "name": "C5",
          "ticks": 40704,
          "time": 33.473634,
          "velocity": 0.3937007874015748
        },
        {
          "duration": 0.1578944999999976,
          "durationTicks": 192,
          "midi": 80,
          "name": "G#5",
          "ticks": 41088,
          "time": 33.789423,
          "velocity": 0.3937007874015748
        },
        {
          "duration": 0.3157889999999952,
          "durationTicks": 384,
          "midi": 79,
          "name": "G5",
          "ticks": 41472,
          "time": 34.105212,
          "velocity": 0.3937007874015748
        },
        {
          "duration": 1.263155999999995,
          "durationTicks": 1536,
          "midi": 65,
          "name": "F4",
          "ticks": 41472,
          "time": 34.105212,
          "velocity": 0.3937007874015748
        },
        {
          "duration": 0.1578945000000047,
          "durationTicks": 192,
          "midi": 75,
          "name": "D#5",
          "ticks": 41856,
          "time": 34.421001,
          "velocity": 0.3937007874015748
        },
        {
          "duration": 0.3157890000000023,
          "durationTicks": 384,
          "midi": 70,
          "name": "A#4",
          "ticks": 42240,
          "time": 34.73679,
          "velocity": 0.3937007874015748
        },
        {
          "duration": 0.3157889999999952,
          "durationTicks": 384,
          "midi": 67,
          "name": "G4",
          "ticks": 42624,
          "time": 35.052579,
          "velocity": 0.3937007874015748
        },
        {
          "duration": 0.1578945000000047,
          "durationTicks": 192,
          "midi": 68,
          "name": "G#4",
          "ticks": 43008,
          "time": 35.368368,
          "velocity": 0.3937007874015748
        },
        {
          "duration": 0.1578944999999976,
          "durationTicks": 192,
          "midi": 68,
          "name": "G#4",
          "ticks": 43392,
          "time": 35.684157,
          "velocity": 0.3937007874015748
        },
        {
          "duration": 0.1578945000000047,
          "durationTicks": 192,
          "midi": 70,
          "name": "A#4",
          "ticks": 43584,
          "time": 35.8420515,
          "velocity": 0.3937007874015748
        },
        {
          "duration": 0.1578944999999976,
          "durationTicks": 192,
          "midi": 72,
          "name": "C5",
          "ticks": 43776,
          "time": 35.999946,
          "velocity": 0.3937007874015748
        },
        {
          "duration": 0.1578945000000047,
          "durationTicks": 192,
          "midi": 68,
          "name": "G#4",
          "ticks": 44160,
          "time": 36.315735,
          "velocity": 0.3937007874015748
        },
        {
          "duration": 0.1578944999999976,
          "durationTicks": 192,
          "midi": 70,
          "name": "A#4",
          "ticks": 44544,
          "time": 36.631524,
          "velocity": 0.3937007874015748
        },
        {
          "duration": 0.1578944999999976,
          "durationTicks": 192,
          "midi": 70,
          "name": "A#4",
          "ticks": 44928,
          "time": 36.947313,
          "velocity": 0.3937007874015748
        },
        {
          "duration": 0.1578944999999976,
          "durationTicks": 192,
          "midi": 72,
          "name": "C5",
          "ticks": 45120,
          "time": 37.1052075,
          "velocity": 0.3937007874015748
        },
        {
          "duration": 0.1578945000000047,
          "durationTicks": 192,
          "midi": 67,
          "name": "G4",
          "ticks": 45312,
          "time": 37.263101999999996,
          "velocity": 0.3937007874015748
        },
        {
          "duration": 0.1578944999999976,
          "durationTicks": 192,
          "midi": 63,
          "name": "D#4",
          "ticks": 45696,
          "time": 37.578891,
          "velocity": 0.3937007874015748
        },
        {
          "duration": 0.3157890000000023,
          "durationTicks": 384,
          "midi": 63,
          "name": "D#4",
          "ticks": 45696,
          "time": 37.578891,
          "velocity": 0.3937007874015748
        },
        {
          "duration": 2.5263119999999972,
          "durationTicks": 3072,
          "midi": 64,
          "name": "E4",
          "ticks": 46080,
          "time": 37.89468,
          "velocity": 0.3937007874015748
        },
        {
          "duration": 0.1578944999999976,
          "durationTicks": 192,
          "midi": 69,
          "name": "A4",
          "ticks": 46080,
          "time": 37.89468,
          "velocity": 0.3937007874015748
        },
        {
          "duration": 0.1578945000000047,
          "durationTicks": 192,
          "midi": 69,
          "name": "A4",
          "ticks": 46464,
          "time": 38.210468999999996,
          "velocity": 0.3937007874015748
        },
        {
          "duration": 0.1578944999999976,
          "durationTicks": 192,
          "midi": 70,
          "name": "A#4",
          "ticks": 46656,
          "time": 38.3683635,
          "velocity": 0.3937007874015748
        },
        {
          "duration": 0.1578944999999976,
          "durationTicks": 192,
          "midi": 72,
          "name": "C5",
          "ticks": 46848,
          "time": 38.526258,
          "velocity": 0.3937007874015748
        },
        {
          "duration": 0.1578944999999976,
          "durationTicks": 192,
          "midi": 77,
          "name": "F5",
          "ticks": 47232,
          "time": 38.842047,
          "velocity": 0.3937007874015748
        },
        {
          "duration": 0.3157890000000023,
          "durationTicks": 384,
          "midi": 76,
          "name": "E5",
          "ticks": 47616,
          "time": 39.157835999999996,
          "velocity": 0.3937007874015748
        },
        {
          "duration": 0.3157890000000023,
          "durationTicks": 384,
          "midi": 79,
          "name": "G5",
          "ticks": 48000,
          "time": 39.473625,
          "velocity": 0.3937007874015748
        },
        {
          "duration": 0.6315779999999975,
          "durationTicks": 768,
          "midi": 77,
          "name": "F5",
          "ticks": 48384,
          "time": 39.789414,
          "velocity": 0.3937007874015748
        },
        {
          "duration": 0.1578944999999976,
          "durationTicks": 192,
          "midi": 69,
          "name": "A4",
          "ticks": 70656,
          "time": 58.105176,
          "velocity": 0.3937007874015748
        },
        {
          "duration": 0.1578945000000047,
          "durationTicks": 192,
          "midi": 69,
          "name": "A4",
          "ticks": 71040,
          "time": 58.420964999999995,
          "velocity": 0.3937007874015748
        },
        {
          "duration": 0.1578944999999976,
          "durationTicks": 192,
          "midi": 70,
          "name": "A#4",
          "ticks": 71232,
          "time": 58.5788595,
          "velocity": 0.3937007874015748
        },
        {
          "duration": 0.1578944999999976,
          "durationTicks": 192,
          "midi": 72,
          "name": "C5",
          "ticks": 71424,
          "time": 58.736754,
          "velocity": 0.3937007874015748
        },
        {
          "duration": 0.1578944999999976,
          "durationTicks": 192,
          "midi": 77,
          "name": "F5",
          "ticks": 71808,
          "time": 59.052543,
          "velocity": 0.3937007874015748
        },
        {
          "duration": 0.0789472499999988,
          "durationTicks": 96,
          "midi": 74,
          "name": "D5",
          "ticks": 72192,
          "time": 59.368331999999995,
          "velocity": 0.3937007874015748
        },
        {
          "duration": 0.5526307499999987,
          "durationTicks": 672,
          "midi": 74,
          "name": "D5",
          "ticks": 72270,
          "time": 59.432476640625,
          "velocity": 0.3937007874015748
        },
        {
          "duration": 0.0789472499999988,
          "durationTicks": 96,
          "midi": 72,
          "name": "C5",
          "ticks": 72960,
          "time": 59.99991,
          "velocity": 0.3937007874015748
        },
        {
          "duration": 0.0789472499999988,
          "durationTicks": 96,
          "midi": 72,
          "name": "C5",
          "ticks": 73152,
          "time": 60.1578045,
          "velocity": 0.3937007874015748
        },
        {
          "duration": 0.0789472499999988,
          "durationTicks": 96,
          "midi": 72,
          "name": "C5",
          "ticks": 73344,
          "time": 60.315698999999995,
          "velocity": 0.3937007874015748
        },
        {
          "duration": 0.0789472499999988,
          "durationTicks": 96,
          "midi": 72,
          "name": "C5",
          "ticks": 73536,
          "time": 60.4735935,
          "velocity": 0.3937007874015748
        },
        {
          "duration": 0.1578944999999976,
          "durationTicks": 192,
          "midi": 80,
          "name": "G#5",
          "ticks": 73728,
          "time": 60.631488,
          "velocity": 0.3937007874015748
        },
        {
          "duration": 0.1578944999999976,
          "durationTicks": 192,
          "midi": 80,
          "name": "G#5",
          "ticks": 74112,
          "time": 60.947277,
          "velocity": 0.3937007874015748
        },
        {
          "duration": 0.1578944999999976,
          "durationTicks": 192,
          "midi": 82,
          "name": "A#5",
          "ticks": 74304,
          "time": 61.1051715,
          "velocity": 0.3937007874015748
        },
        {
          "duration": 0.1578945000000047,
          "durationTicks": 192,
          "midi": 84,
          "name": "C6",
          "ticks": 74496,
          "time": 61.263065999999995,
          "velocity": 0.3937007874015748
        },
        {
          "duration": 0.1578944999999976,
          "durationTicks": 192,
          "midi": 80,
          "name": "G#5",
          "ticks": 74880,
          "time": 61.578855,
          "velocity": 0.3937007874015748
        },
        {
          "duration": 0.1578944999999976,
          "durationTicks": 192,
          "midi": 82,
          "name": "A#5",
          "ticks": 75264,
          "time": 61.894644,
          "velocity": 0.3937007874015748
        },
        {
          "duration": 0.1578945000000047,
          "durationTicks": 192,
          "midi": 82,
          "name": "A#5",
          "ticks": 75648,
          "time": 62.210432999999995,
          "velocity": 0.3937007874015748
        },
        {
          "duration": 0.1578944999999976,
          "durationTicks": 192,
          "midi": 84,
          "name": "C6",
          "ticks": 75840,
          "time": 62.3683275,
          "velocity": 0.3937007874015748
        },
        {
          "duration": 0.1578944999999976,
          "durationTicks": 192,
          "midi": 79,
          "name": "G5",
          "ticks": 76032,
          "time": 62.526222,
          "velocity": 0.3937007874015748
        },
        {
          "duration": 0.1578944999999976,
          "durationTicks": 192,
          "midi": 75,
          "name": "D#5",
          "ticks": 76416,
          "time": 62.842011,
          "velocity": 0.3937007874015748
        },
        {
          "duration": 0.1578945000000047,
          "durationTicks": 192,
          "midi": 80,
          "name": "G#5",
          "ticks": 76800,
          "time": 63.157799999999995,
          "velocity": 0.3937007874015748
        },
        {
          "duration": 0.1578944999999976,
          "durationTicks": 192,
          "midi": 80,
          "name": "G#5",
          "ticks": 77184,
          "time": 63.473589,
          "velocity": 0.3937007874015748
        },
        {
          "duration": 0.1578945000000047,
          "durationTicks": 192,
          "midi": 82,
          "name": "A#5",
          "ticks": 77376,
          "time": 63.631483499999995,
          "velocity": 0.3937007874015748
        },
        {
          "duration": 0.1578944999999976,
          "durationTicks": 192,
          "midi": 84,
          "name": "C6",
          "ticks": 77568,
          "time": 63.789378,
          "velocity": 0.3937007874015748
        },
        {
          "duration": 0.1578944999999976,
          "durationTicks": 192,
          "midi": 80,
          "name": "G#5",
          "ticks": 77760,
          "time": 63.9472725,
          "velocity": 0.3937007874015748
        },
        {
          "duration": 0.1578944999999976,
          "durationTicks": 192,
          "midi": 84,
          "name": "C6",
          "ticks": 77952,
          "time": 64.105167,
          "velocity": 0.3937007874015748
        },
        {
          "duration": 0.15789450000001182,
          "durationTicks": 192,
          "midi": 92,
          "name": "G#6",
          "ticks": 78144,
          "time": 64.26306149999999,
          "velocity": 0.3937007874015748
        },
        {
          "duration": 0.3157889999999952,
          "durationTicks": 384,
          "midi": 91,
          "name": "G6",
          "ticks": 78336,
          "time": 64.420956,
          "velocity": 0.3937007874015748
        },
        {
          "duration": 0.3157889999999952,
          "durationTicks": 384,
          "midi": 87,
          "name": "D#6",
          "ticks": 78720,
          "time": 64.736745,
          "velocity": 0.3937007874015748
        },
        {
          "duration": 0.3157890000000094,
          "durationTicks": 384,
          "midi": 82,
          "name": "A#5",
          "ticks": 79104,
          "time": 65.052534,
          "velocity": 0.3937007874015748
        },
        {
          "duration": 0.3157889999999952,
          "durationTicks": 384,
          "midi": 87,
          "name": "D#6",
          "ticks": 79488,
          "time": 65.368323,
          "velocity": 0.3937007874015748
        },
        {
          "duration": 0.3157889999999952,
          "durationTicks": 384,
          "midi": 80,
          "name": "G#5",
          "ticks": 79872,
          "time": 65.684112,
          "velocity": 0.3937007874015748
        },
        {
          "duration": 0.1578944999999976,
          "durationTicks": 192,
          "midi": 80,
          "name": "G#5",
          "ticks": 80256,
          "time": 65.999901,
          "velocity": 0.3937007874015748
        },
        {
          "duration": 0.15789450000001182,
          "durationTicks": 192,
          "midi": 87,
          "name": "D#6",
          "ticks": 80448,
          "time": 66.15779549999999,
          "velocity": 0.3937007874015748
        },
        {
          "duration": 0.1578944999999976,
          "durationTicks": 192,
          "midi": 89,
          "name": "F6",
          "ticks": 80640,
          "time": 66.31569,
          "velocity": 0.3937007874015748
        },
        {
          "duration": 0.1578944999999976,
          "durationTicks": 192,
          "midi": 84,
          "name": "C6",
          "ticks": 81024,
          "time": 66.631479,
          "velocity": 0.3937007874015748
        },
        {
          "duration": 0.1578944999999976,
          "durationTicks": 192,
          "midi": 82,
          "name": "A#5",
          "ticks": 81408,
          "time": 66.947268,
          "velocity": 0.3937007874015748
        },
        {
          "duration": 0.1578944999999976,
          "durationTicks": 192,
          "midi": 82,
          "name": "A#5",
          "ticks": 81792,
          "time": 67.263057,
          "velocity": 0.3937007874015748
        },
        {
          "duration": 0.1578944999999976,
          "durationTicks": 192,
          "midi": 84,
          "name": "C6",
          "ticks": 81984,
          "time": 67.4209515,
          "velocity": 0.3937007874015748
        },
        {
          "duration": 0.1578944999999976,
          "durationTicks": 192,
          "midi": 82,
          "name": "A#5",
          "ticks": 82176,
          "time": 67.578846,
          "velocity": 0.3937007874015748
        },
        {
          "duration": 0.1578944999999976,
          "durationTicks": 192,
          "midi": 80,
          "name": "G#5",
          "ticks": 82560,
          "time": 67.894635,
          "velocity": 0.3937007874015748
        },
        {
          "duration": 0.1578944999999976,
          "durationTicks": 192,
          "midi": 82,
          "name": "A#5",
          "ticks": 82944,
          "time": 68.210424,
          "velocity": 0.3937007874015748
        },
        {
          "duration": 0.1578944999999976,
          "durationTicks": 192,
          "midi": 82,
          "name": "A#5",
          "ticks": 83328,
          "time": 68.526213,
          "velocity": 0.3937007874015748
        },
        {
          "duration": 0.1578944999999976,
          "durationTicks": 192,
          "midi": 84,
          "name": "C6",
          "ticks": 83520,
          "time": 68.6841075,
          "velocity": 0.3937007874015748
        },
        {
          "duration": 0.1578944999999976,
          "durationTicks": 192,
          "midi": 82,
          "name": "A#5",
          "ticks": 83712,
          "time": 68.842002,
          "velocity": 0.3937007874015748
        },
        {
          "duration": 0.1578944999999976,
          "durationTicks": 192,
          "midi": 80,
          "name": "G#5",
          "ticks": 84096,
          "time": 69.157791,
          "velocity": 0.3937007874015748
        },
        {
          "duration": 0.6315780000000046,
          "durationTicks": 768,
          "midi": 82,
          "name": "A#5",
          "ticks": 84480,
          "time": 69.47358,
          "velocity": 0.3937007874015748
        },
        {
          "duration": 0.6315779999999904,
          "durationTicks": 768,
          "midi": 84,
          "name": "C6",
          "ticks": 85248,
          "time": 70.105158,
          "velocity": 0.3937007874015748
        },
        {
          "duration": 0.1578944999999976,
          "durationTicks": 192,
          "midi": 80,
          "name": "G#5",
          "ticks": 86016,
          "time": 70.736736,
          "velocity": 0.3937007874015748
        },
        {
          "duration": 0.1578944999999976,
          "durationTicks": 192,
          "midi": 80,
          "name": "G#5",
          "ticks": 86400,
          "time": 71.052525,
          "velocity": 0.3937007874015748
        },
        {
          "duration": 0.1578944999999976,
          "durationTicks": 192,
          "midi": 82,
          "name": "A#5",
          "ticks": 86592,
          "time": 71.2104195,
          "velocity": 0.3937007874015748
        },
        {
          "duration": 0.1578944999999976,
          "durationTicks": 192,
          "midi": 84,
          "name": "C6",
          "ticks": 86784,
          "time": 71.368314,
          "velocity": 0.3937007874015748
        },
        {
          "duration": 0.1578944999999976,
          "durationTicks": 192,
          "midi": 80,
          "name": "G#5",
          "ticks": 87168,
          "time": 71.684103,
          "velocity": 0.3937007874015748
        },
        {
          "duration": 0.1578944999999976,
          "durationTicks": 192,
          "midi": 82,
          "name": "A#5",
          "ticks": 87552,
          "time": 71.999892,
          "velocity": 0.3937007874015748
        },
        {
          "duration": 0.1578944999999976,
          "durationTicks": 192,
          "midi": 82,
          "name": "A#5",
          "ticks": 87936,
          "time": 72.315681,
          "velocity": 0.3937007874015748
        },
        {
          "duration": 0.1578944999999976,
          "durationTicks": 192,
          "midi": 84,
          "name": "C6",
          "ticks": 88128,
          "time": 72.4735755,
          "velocity": 0.3937007874015748
        },
        {
          "duration": 0.1578944999999976,
          "durationTicks": 192,
          "midi": 79,
          "name": "G5",
          "ticks": 88320,
          "time": 72.63147,
          "velocity": 0.3937007874015748
        },
        {
          "duration": 0.1578944999999976,
          "durationTicks": 192,
          "midi": 75,
          "name": "D#5",
          "ticks": 88704,
          "time": 72.947259,
          "velocity": 0.3937007874015748
        },
        {
          "duration": 0.1578944999999976,
          "durationTicks": 192,
          "midi": 80,
          "name": "G#5",
          "ticks": 89088,
          "time": 73.263048,
          "velocity": 0.3937007874015748
        },
        {
          "duration": 0.1578944999999976,
          "durationTicks": 192,
          "midi": 80,
          "name": "G#5",
          "ticks": 89472,
          "time": 73.578837,
          "velocity": 0.3937007874015748
        },
        {
          "duration": 0.15789450000001182,
          "durationTicks": 192,
          "midi": 82,
          "name": "A#5",
          "ticks": 89664,
          "time": 73.73673149999999,
          "velocity": 0.3937007874015748
        },
        {
          "duration": 0.1578944999999976,
          "durationTicks": 192,
          "midi": 84,
          "name": "C6",
          "ticks": 89856,
          "time": 73.894626,
          "velocity": 0.3937007874015748
        },
        {
          "duration": 0.1578944999999976,
          "durationTicks": 192,
          "midi": 80,
          "name": "G#5",
          "ticks": 90048,
          "time": 74.0525205,
          "velocity": 0.3937007874015748
        },
        {
          "duration": 0.1578944999999976,
          "durationTicks": 192,
          "midi": 84,
          "name": "C6",
          "ticks": 90240,
          "time": 74.210415,
          "velocity": 0.3937007874015748
        },
        {
          "duration": 0.1578944999999976,
          "durationTicks": 192,
          "midi": 92,
          "name": "G#6",
          "ticks": 90432,
          "time": 74.3683095,
          "velocity": 0.3937007874015748
        },
        {
          "duration": 0.3157890000000094,
          "durationTicks": 384,
          "midi": 91,
          "name": "G6",
          "ticks": 90624,
          "time": 74.52620399999999,
          "velocity": 0.3937007874015748
        },
        {
          "duration": 0.3157889999999952,
          "durationTicks": 384,
          "midi": 87,
          "name": "D#6",
          "ticks": 91008,
          "time": 74.841993,
          "velocity": 0.3937007874015748
        },
        {
          "duration": 0.3157889999999952,
          "durationTicks": 384,
          "midi": 82,
          "name": "A#5",
          "ticks": 91392,
          "time": 75.157782,
          "velocity": 0.3937007874015748
        },
        {
          "duration": 0.3157890000000094,
          "durationTicks": 384,
          "midi": 79,
          "name": "G5",
          "ticks": 91776,
          "time": 75.47357099999999,
          "velocity": 0.3937007874015748
        },
        {
          "duration": 0.3157889999999952,
          "durationTicks": 384,
          "midi": 80,
          "name": "G#5",
          "ticks": 92160,
          "time": 75.78936,
          "velocity": 0.3937007874015748
        },
        {
          "duration": 0.1578944999999976,
          "durationTicks": 192,
          "midi": 80,
          "name": "G#5",
          "ticks": 92544,
          "time": 76.105149,
          "velocity": 0.3937007874015748
        },
        {
          "duration": 0.1578944999999976,
          "durationTicks": 192,
          "midi": 87,
          "name": "D#6",
          "ticks": 92736,
          "time": 76.2630435,
          "velocity": 0.3937007874015748
        },
        {
          "duration": 0.1578944999999976,
          "durationTicks": 192,
          "midi": 89,
          "name": "F6",
          "ticks": 92928,
          "time": 76.42093799999999,
          "velocity": 0.3937007874015748
        },
        {
          "duration": 0.1578944999999976,
          "durationTicks": 192,
          "midi": 84,
          "name": "C6",
          "ticks": 93312,
          "time": 76.736727,
          "velocity": 0.3937007874015748
        },
        {
          "duration": 0.1578944999999976,
          "durationTicks": 192,
          "midi": 82,
          "name": "A#5",
          "ticks": 93696,
          "time": 77.052516,
          "velocity": 0.3937007874015748
        },
        {
          "duration": 0.1578944999999976,
          "durationTicks": 192,
          "midi": 82,
          "name": "A#5",
          "ticks": 94080,
          "time": 77.36830499999999,
          "velocity": 0.3937007874015748
        },
        {
          "duration": 0.15789450000001182,
          "durationTicks": 192,
          "midi": 84,
          "name": "C6",
          "ticks": 94272,
          "time": 77.52619949999999,
          "velocity": 0.3937007874015748
        },
        {
          "duration": 0.1578944999999976,
          "durationTicks": 192,
          "midi": 82,
          "name": "A#5",
          "ticks": 94464,
          "time": 77.684094,
          "velocity": 0.3937007874015748
        },
        {
          "duration": 0.1578944999999976,
          "durationTicks": 192,
          "midi": 80,
          "name": "G#5",
          "ticks": 94848,
          "time": 77.999883,
          "velocity": 0.3937007874015748
        },
        {
          "duration": 0.1578944999999976,
          "durationTicks": 192,
          "midi": 82,
          "name": "A#5",
          "ticks": 95232,
          "time": 78.31567199999999,
          "velocity": 0.3937007874015748
        },
        {
          "duration": 0.1578944999999976,
          "durationTicks": 192,
          "midi": 82,
          "name": "A#5",
          "ticks": 95616,
          "time": 78.631461,
          "velocity": 0.3937007874015748
        },
        {
          "duration": 0.1578944999999976,
          "durationTicks": 192,
          "midi": 84,
          "name": "C6",
          "ticks": 95808,
          "time": 78.7893555,
          "velocity": 0.3937007874015748
        },
        {
          "duration": 0.1578944999999976,
          "durationTicks": 192,
          "midi": 82,
          "name": "A#5",
          "ticks": 96000,
          "time": 78.94725,
          "velocity": 0.3937007874015748
        },
        {
          "duration": 0.1578944999999976,
          "durationTicks": 192,
          "midi": 80,
          "name": "G#5",
          "ticks": 96384,
          "time": 79.26303899999999,
          "velocity": 0.3937007874015748
        },
        {
          "duration": 0.6315779999999904,
          "durationTicks": 768,
          "midi": 82,
          "name": "A#5",
          "ticks": 96768,
          "time": 79.578828,
          "velocity": 0.3937007874015748
        },
        {
          "duration": 0.6315780000000046,
          "durationTicks": 768,
          "midi": 84,
          "name": "C6",
          "ticks": 97536,
          "time": 80.21040599999999,
          "velocity": 0.3937007874015748
        },
        {
          "duration": 0.1578944999999976,
          "durationTicks": 192,
          "midi": 80,
          "name": "G#5",
          "ticks": 98304,
          "time": 80.841984,
          "velocity": 0.3937007874015748
        },
        {
          "duration": 0.15789450000001182,
          "durationTicks": 192,
          "midi": 80,
          "name": "G#5",
          "ticks": 98688,
          "time": 81.15777299999999,
          "velocity": 0.3937007874015748
        },
        {
          "duration": 0.1578944999999976,
          "durationTicks": 192,
          "midi": 82,
          "name": "A#5",
          "ticks": 98880,
          "time": 81.3156675,
          "velocity": 0.3937007874015748
        },
        {
          "duration": 0.1578944999999976,
          "durationTicks": 192,
          "midi": 84,
          "name": "C6",
          "ticks": 99072,
          "time": 81.473562,
          "velocity": 0.3937007874015748
        },
        {
          "duration": 0.1578944999999976,
          "durationTicks": 192,
          "midi": 80,
          "name": "G#5",
          "ticks": 99456,
          "time": 81.789351,
          "velocity": 0.3937007874015748
        },
        {
          "duration": 0.15789450000001182,
          "durationTicks": 192,
          "midi": 82,
          "name": "A#5",
          "ticks": 99840,
          "time": 82.10513999999999,
          "velocity": 0.3937007874015748
        },
        {
          "duration": 0.1578944999999976,
          "durationTicks": 192,
          "midi": 82,
          "name": "A#5",
          "ticks": 100224,
          "time": 82.420929,
          "velocity": 0.3937007874015748
        },
        {
          "duration": 0.1578944999999976,
          "durationTicks": 192,
          "midi": 84,
          "name": "C6",
          "ticks": 100416,
          "time": 82.5788235,
          "velocity": 0.3937007874015748
        },
        {
          "duration": 0.1578944999999976,
          "durationTicks": 192,
          "midi": 79,
          "name": "G5",
          "ticks": 100608,
          "time": 82.736718,
          "velocity": 0.3937007874015748
        },
        {
          "duration": 0.15789450000001182,
          "durationTicks": 192,
          "midi": 75,
          "name": "D#5",
          "ticks": 100992,
          "time": 83.05250699999999,
          "velocity": 0.3937007874015748
        },
        {
          "duration": 0.1578944999999976,
          "durationTicks": 192,
          "midi": 80,
          "name": "G#5",
          "ticks": 101376,
          "time": 83.368296,
          "velocity": 0.3937007874015748
        },
        {
          "duration": 0.1578944999999976,
          "durationTicks": 192,
          "midi": 80,
          "name": "G#5",
          "ticks": 101760,
          "time": 83.684085,
          "velocity": 0.3937007874015748
        },
        {
          "duration": 0.1578944999999976,
          "durationTicks": 192,
          "midi": 82,
          "name": "A#5",
          "ticks": 101952,
          "time": 83.8419795,
          "velocity": 0.3937007874015748
        },
        {
          "duration": 0.15789450000001182,
          "durationTicks": 192,
          "midi": 84,
          "name": "C6",
          "ticks": 102144,
          "time": 83.99987399999999,
          "velocity": 0.3937007874015748
        },
        {
          "duration": 0.1578944999999976,
          "durationTicks": 192,
          "midi": 80,
          "name": "G#5",
          "ticks": 102336,
          "time": 84.1577685,
          "velocity": 0.3937007874015748
        },
        {
          "duration": 0.1578944999999976,
          "durationTicks": 192,
          "midi": 84,
          "name": "C6",
          "ticks": 102528,
          "time": 84.315663,
          "velocity": 0.3937007874015748
        },
        {
          "duration": 0.1578944999999976,
          "durationTicks": 192,
          "midi": 92,
          "name": "G#6",
          "ticks": 102720,
          "time": 84.4735575,
          "velocity": 0.3937007874015748
        },
        {
          "duration": 0.3157889999999952,
          "durationTicks": 384,
          "midi": 91,
          "name": "G6",
          "ticks": 102912,
          "time": 84.631452,
          "velocity": 0.3937007874015748
        },
        {
          "duration": 0.3157890000000094,
          "durationTicks": 384,
          "midi": 87,
          "name": "D#6",
          "ticks": 103296,
          "time": 84.94724099999999,
          "velocity": 0.3937007874015748
        },
        {
          "duration": 0.3157889999999952,
          "durationTicks": 384,
          "midi": 82,
          "name": "A#5",
          "ticks": 103680,
          "time": 85.26303,
          "velocity": 0.3937007874015748
        },
        {
          "duration": 0.3157889999999952,
          "durationTicks": 384,
          "midi": 87,
          "name": "D#6",
          "ticks": 104064,
          "time": 85.578819,
          "velocity": 0.3937007874015748
        },
        {
          "duration": 0.3157890000000094,
          "durationTicks": 384,
          "midi": 89,
          "name": "F6",
          "ticks": 104448,
          "time": 85.89460799999999,
          "velocity": 0.3937007874015748
        },
        {
          "duration": 0.1578944999999976,
          "durationTicks": 192,
          "midi": 84,
          "name": "C6",
          "ticks": 104832,
          "time": 86.210397,
          "velocity": 0.3937007874015748
        },
        {
          "duration": 0.1578944999999976,
          "durationTicks": 192,
          "midi": 87,
          "name": "D#6",
          "ticks": 105024,
          "time": 86.3682915,
          "velocity": 0.3937007874015748
        },
        {
          "duration": 0.1578944999999976,
          "durationTicks": 192,
          "midi": 89,
          "name": "F6",
          "ticks": 105216,
          "time": 86.526186,
          "velocity": 0.3937007874015748
        },
        {
          "duration": 0.15789450000001182,
          "durationTicks": 192,
          "midi": 84,
          "name": "C6",
          "ticks": 105600,
          "time": 86.84197499999999,
          "velocity": 0.3937007874015748
        },
        {
          "duration": 0.1578944999999976,
          "durationTicks": 192,
          "midi": 82,
          "name": "A#5",
          "ticks": 105984,
          "time": 87.157764,
          "velocity": 0.3937007874015748
        },
        {
          "duration": 0.1578944999999976,
          "durationTicks": 192,
          "midi": 82,
          "name": "A#5",
          "ticks": 106368,
          "time": 87.473553,
          "velocity": 0.3937007874015748
        },
        {
          "duration": 0.1578944999999976,
          "durationTicks": 192,
          "midi": 84,
          "name": "C6",
          "ticks": 106560,
          "time": 87.6314475,
          "velocity": 0.3937007874015748
        },
        {
          "duration": 0.15789450000001182,
          "durationTicks": 192,
          "midi": 82,
          "name": "A#5",
          "ticks": 106752,
          "time": 87.78934199999999,
          "velocity": 0.3937007874015748
        },
        {
          "duration": 0.1578944999999976,
          "durationTicks": 192,
          "midi": 80,
          "name": "G#5",
          "ticks": 107136,
          "time": 88.105131,
          "velocity": 0.3937007874015748
        },
        {
          "duration": 0.1578944999999976,
          "durationTicks": 192,
          "midi": 77,
          "name": "F5",
          "ticks": 107520,
          "time": 88.42092,
          "velocity": 0.3937007874015748
        },
        {
          "duration": 0.1578944999999976,
          "durationTicks": 192,
          "midi": 80,
          "name": "G#5",
          "ticks": 107712,
          "time": 88.5788145,
          "velocity": 0.3937007874015748
        },
        {
          "duration": 0.15789450000001182,
          "durationTicks": 192,
          "midi": 82,
          "name": "A#5",
          "ticks": 107904,
          "time": 88.73670899999999,
          "velocity": 0.3937007874015748
        },
        {
          "duration": 0.1578944999999976,
          "durationTicks": 192,
          "midi": 84,
          "name": "C6",
          "ticks": 108096,
          "time": 88.8946035,
          "velocity": 0.3937007874015748
        },
        {
          "duration": 0.1578944999999976,
          "durationTicks": 192,
          "midi": 87,
          "name": "D#6",
          "ticks": 108288,
          "time": 89.052498,
          "velocity": 0.3937007874015748
        },
        {
          "duration": 0.1578944999999976,
          "durationTicks": 192,
          "midi": 84,
          "name": "C6",
          "ticks": 108480,
          "time": 89.2103925,
          "velocity": 0.3937007874015748
        },
        {
          "duration": 0.1578944999999976,
          "durationTicks": 192,
          "midi": 82,
          "name": "A#5",
          "ticks": 108672,
          "time": 89.368287,
          "velocity": 0.3937007874015748
        },
        {
          "duration": 0.1578944999999976,
          "durationTicks": 192,
          "midi": 80,
          "name": "G#5",
          "ticks": 108864,
          "time": 89.52618149999999,
          "velocity": 0.3937007874015748
        },
        {
          "duration": 0.0789472499999988,
          "durationTicks": 96,
          "midi": 82,
          "name": "A#5",
          "ticks": 109056,
          "time": 89.68407599999999,
          "velocity": 0.3937007874015748
        },
        {
          "duration": 0.07894725000001301,
          "durationTicks": 96,
          "midi": 79,
          "name": "G5",
          "ticks": 109152,
          "time": 89.76302324999999,
          "velocity": 0.3937007874015748
        },
        {
          "duration": 0.0789472499999988,
          "durationTicks": 96,
          "midi": 77,
          "name": "F5",
          "ticks": 109248,
          "time": 89.8419705,
          "velocity": 0.3937007874015748
        },
        {
          "duration": 0.0789472499999988,
          "durationTicks": 96,
          "midi": 75,
          "name": "D#5",
          "ticks": 109344,
          "time": 89.92091775,
          "velocity": 0.3937007874015748
        },
        {
          "duration": 0.0789472499999988,
          "durationTicks": 96,
          "midi": 82,
          "name": "A#5",
          "ticks": 109440,
          "time": 89.999865,
          "velocity": 0.3937007874015748
        },
        {
          "duration": 0.0789472499999988,
          "durationTicks": 96,
          "midi": 79,
          "name": "G5",
          "ticks": 109536,
          "time": 90.07881225,
          "velocity": 0.3937007874015748
        },
        {
          "duration": 0.0789472499999988,
          "durationTicks": 96,
          "midi": 77,
          "name": "F5",
          "ticks": 109632,
          "time": 90.1577595,
          "velocity": 0.3937007874015748
        },
        {
          "duration": 0.0789472499999988,
          "durationTicks": 96,
          "midi": 75,
          "name": "D#5",
          "ticks": 109728,
          "time": 90.23670675,
          "velocity": 0.3937007874015748
        },
        {
          "duration": 0.0789472499999988,
          "durationTicks": 96,
          "midi": 84,
          "name": "C6",
          "ticks": 109824,
          "time": 90.315654,
          "velocity": 0.3937007874015748
        },
        {
          "duration": 0.0789472499999988,
          "durationTicks": 96,
          "midi": 80,
          "name": "G#5",
          "ticks": 109920,
          "time": 90.39460125,
          "velocity": 0.3937007874015748
        },
        {
          "duration": 0.0789472499999988,
          "durationTicks": 96,
          "midi": 76,
          "name": "E5",
          "ticks": 110016,
          "time": 90.47354849999999,
          "velocity": 0.3937007874015748
        },
        {
          "duration": 0.0789472499999988,
          "durationTicks": 96,
          "midi": 72,
          "name": "C5",
          "ticks": 110112,
          "time": 90.55249574999999,
          "velocity": 0.3937007874015748
        },
        {
          "duration": 0.0789472499999988,
          "durationTicks": 96,
          "midi": 84,
          "name": "C6",
          "ticks": 110208,
          "time": 90.63144299999999,
          "velocity": 0.3937007874015748
        },
        {
          "duration": 0.07894725000001301,
          "durationTicks": 96,
          "midi": 80,
          "name": "G#5",
          "ticks": 110304,
          "time": 90.71039024999999,
          "velocity": 0.3937007874015748
        },
        {
          "duration": 0.0789472499999988,
          "durationTicks": 96,
          "midi": 76,
          "name": "E5",
          "ticks": 110400,
          "time": 90.7893375,
          "velocity": 0.3937007874015748
        },
        {
          "duration": 0.0789472499999988,
          "durationTicks": 96,
          "midi": 72,
          "name": "C5",
          "ticks": 110496,
          "time": 90.86828475,
          "velocity": 0.3937007874015748
        },
        {
          "duration": 0.1578944999999976,
          "durationTicks": 192,
          "midi": 80,
          "name": "G#5",
          "ticks": 110592,
          "time": 90.947232,
          "velocity": 0.3937007874015748
        },
        {
          "duration": 0.1578944999999976,
          "durationTicks": 192,
          "midi": 80,
          "name": "G#5",
          "ticks": 110976,
          "time": 91.263021,
          "velocity": 0.3937007874015748
        },
        {
          "duration": 0.1578944999999976,
          "durationTicks": 192,
          "midi": 82,
          "name": "A#5",
          "ticks": 111168,
          "time": 91.42091549999999,
          "velocity": 0.3937007874015748
        },
        {
          "duration": 0.15789450000001182,
          "durationTicks": 192,
          "midi": 84,
          "name": "C6",
          "ticks": 111360,
          "time": 91.57880999999999,
          "velocity": 0.3937007874015748
        },
        {
          "duration": 0.1578944999999976,
          "durationTicks": 192,
          "midi": 80,
          "name": "G#5",
          "ticks": 111744,
          "time": 91.894599,
          "velocity": 0.3937007874015748
        },
        {
          "duration": 0.1578944999999976,
          "durationTicks": 192,
          "midi": 82,
          "name": "A#5",
          "ticks": 112128,
          "time": 92.210388,
          "velocity": 0.3937007874015748
        },
        {
          "duration": 0.15789450000001182,
          "durationTicks": 192,
          "midi": 82,
          "name": "A#5",
          "ticks": 112512,
          "time": 92.52617699999999,
          "velocity": 0.3937007874015748
        },
        {
          "duration": 0.1578944999999976,
          "durationTicks": 192,
          "midi": 84,
          "name": "C6",
          "ticks": 112704,
          "time": 92.6840715,
          "velocity": 0.3937007874015748
        },
        {
          "duration": 0.1578944999999976,
          "durationTicks": 192,
          "midi": 79,
          "name": "G5",
          "ticks": 112896,
          "time": 92.841966,
          "velocity": 0.3937007874015748
        },
        {
          "duration": 0.1578944999999976,
          "durationTicks": 192,
          "midi": 75,
          "name": "D#5",
          "ticks": 113280,
          "time": 93.157755,
          "velocity": 0.3937007874015748
        },
        {
          "duration": 0.15789450000001182,
          "durationTicks": 192,
          "midi": 80,
          "name": "G#5",
          "ticks": 113664,
          "time": 93.47354399999999,
          "velocity": 0.3937007874015748
        },
        {
          "duration": 0.1578944999999976,
          "durationTicks": 192,
          "midi": 80,
          "name": "G#5",
          "ticks": 114048,
          "time": 93.789333,
          "velocity": 0.3937007874015748
        },
        {
          "duration": 0.1578944999999976,
          "durationTicks": 192,
          "midi": 82,
          "name": "A#5",
          "ticks": 114240,
          "time": 93.9472275,
          "velocity": 0.3937007874015748
        },
        {
          "duration": 0.1578944999999976,
          "durationTicks": 192,
          "midi": 84,
          "name": "C6",
          "ticks": 114432,
          "time": 94.105122,
          "velocity": 0.3937007874015748
        },
        {
          "duration": 0.1578944999999976,
          "durationTicks": 192,
          "midi": 80,
          "name": "G#5",
          "ticks": 114624,
          "time": 94.26301649999999,
          "velocity": 0.3937007874015748
        },
        {
          "duration": 0.15789450000001182,
          "durationTicks": 192,
          "midi": 84,
          "name": "C6",
          "ticks": 114816,
          "time": 94.42091099999999,
          "velocity": 0.3937007874015748
        },
        {
          "duration": 0.1578944999999976,
          "durationTicks": 192,
          "midi": 92,
          "name": "G#6",
          "ticks": 115008,
          "time": 94.5788055,
          "velocity": 0.3937007874015748
        },
        {
          "duration": 0.3157889999999952,
          "durationTicks": 384,
          "midi": 91,
          "name": "G6",
          "ticks": 115200,
          "time": 94.7367,
          "velocity": 0.3937007874015748
        },
        {
          "duration": 0.3157889999999952,
          "durationTicks": 384,
          "midi": 87,
          "name": "D#6",
          "ticks": 115584,
          "time": 95.052489,
          "velocity": 0.3937007874015748
        },
        {
          "duration": 0.3157890000000094,
          "durationTicks": 384,
          "midi": 82,
          "name": "A#5",
          "ticks": 115968,
          "time": 95.36827799999999,
          "velocity": 0.3937007874015748
        },
        {
          "duration": 0.3157889999999952,
          "durationTicks": 384,
          "midi": 87,
          "name": "D#6",
          "ticks": 116352,
          "time": 95.684067,
          "velocity": 0.3937007874015748
        },
        {
          "duration": 0.3157889999999952,
          "durationTicks": 384,
          "midi": 89,
          "name": "F6",
          "ticks": 116736,
          "time": 95.999856,
          "velocity": 0.3937007874015748
        },
        {
          "duration": 0.15789450000001182,
          "durationTicks": 192,
          "midi": 84,
          "name": "C6",
          "ticks": 117120,
          "time": 96.31564499999999,
          "velocity": 0.3937007874015748
        },
        {
          "duration": 0.1578944999999976,
          "durationTicks": 192,
          "midi": 87,
          "name": "D#6",
          "ticks": 117312,
          "time": 96.4735395,
          "velocity": 0.3937007874015748
        },
        {
          "duration": 0.1578944999999976,
          "durationTicks": 192,
          "midi": 89,
          "name": "F6",
          "ticks": 117504,
          "time": 96.631434,
          "velocity": 0.3937007874015748
        },
        {
          "duration": 0.1578944999999976,
          "durationTicks": 192,
          "midi": 84,
          "name": "C6",
          "ticks": 117888,
          "time": 96.947223,
          "velocity": 0.3937007874015748
        },
        {
          "duration": 0.15789450000001182,
          "durationTicks": 192,
          "midi": 82,
          "name": "A#5",
          "ticks": 118272,
          "time": 97.26301199999999,
          "velocity": 0.3937007874015748
        },
        {
          "duration": 0.1578944999999976,
          "durationTicks": 192,
          "midi": 82,
          "name": "A#5",
          "ticks": 118656,
          "time": 97.578801,
          "velocity": 0.3937007874015748
        },
        {
          "duration": 0.1578944999999976,
          "durationTicks": 192,
          "midi": 84,
          "name": "C6",
          "ticks": 118848,
          "time": 97.7366955,
          "velocity": 0.3937007874015748
        },
        {
          "duration": 0.1578944999999976,
          "durationTicks": 192,
          "midi": 82,
          "name": "A#5",
          "ticks": 119040,
          "time": 97.89459,
          "velocity": 0.3937007874015748
        },
        {
          "duration": 0.15789450000001182,
          "durationTicks": 192,
          "midi": 80,
          "name": "G#5",
          "ticks": 119424,
          "time": 98.21037899999999,
          "velocity": 0.3937007874015748
        },
        {
          "duration": 0.1578944999999976,
          "durationTicks": 192,
          "midi": 77,
          "name": "F5",
          "ticks": 119808,
          "time": 98.526168,
          "velocity": 0.3937007874015748
        },
        {
          "duration": 0.1578944999999976,
          "durationTicks": 192,
          "midi": 80,
          "name": "G#5",
          "ticks": 120000,
          "time": 98.6840625,
          "velocity": 0.3937007874015748
        },
        {
          "duration": 0.1578944999999976,
          "durationTicks": 192,
          "midi": 82,
          "name": "A#5",
          "ticks": 120192,
          "time": 98.841957,
          "velocity": 0.3937007874015748
        },
        {
          "duration": 0.1578944999999976,
          "durationTicks": 192,
          "midi": 84,
          "name": "C6",
          "ticks": 120384,
          "time": 98.99985149999999,
          "velocity": 0.3937007874015748
        },
        {
          "duration": 0.15789450000001182,
          "durationTicks": 192,
          "midi": 87,
          "name": "D#6",
          "ticks": 120576,
          "time": 99.15774599999999,
          "velocity": 0.3937007874015748
        },
        {
          "duration": 0.1578944999999976,
          "durationTicks": 192,
          "midi": 84,
          "name": "C6",
          "ticks": 120768,
          "time": 99.3156405,
          "velocity": 0.3937007874015748
        },
        {
          "duration": 0.1578944999999976,
          "durationTicks": 192,
          "midi": 82,
          "name": "A#5",
          "ticks": 120960,
          "time": 99.473535,
          "velocity": 0.3937007874015748
        },
        {
          "duration": 0.1578944999999976,
          "durationTicks": 192,
          "midi": 80,
          "name": "G#5",
          "ticks": 121152,
          "time": 99.6314295,
          "velocity": 0.3937007874015748
        },
        {
          "duration": 0.0789472499999988,
          "durationTicks": 96,
          "midi": 82,
          "name": "A#5",
          "ticks": 121344,
          "time": 99.789324,
          "velocity": 0.3937007874015748
        },
        {
          "duration": 0.0789472499999988,
          "durationTicks": 96,
          "midi": 79,
          "name": "G5",
          "ticks": 121440,
          "time": 99.86827124999999,
          "velocity": 0.3937007874015748
        },
        {
          "duration": 0.0789472499999988,
          "durationTicks": 96,
          "midi": 77,
          "name": "F5",
          "ticks": 121536,
          "time": 99.94721849999999,
          "velocity": 0.3937007874015748
        },
        {
          "duration": 0.0789472499999988,
          "durationTicks": 96,
          "midi": 75,
          "name": "D#5",
          "ticks": 121632,
          "time": 100.02616574999999,
          "velocity": 0.3937007874015748
        },
        {
          "duration": 0.07894725000001301,
          "durationTicks": 96,
          "midi": 82,
          "name": "A#5",
          "ticks": 121728,
          "time": 100.10511299999999,
          "velocity": 0.3937007874015748
        },
        {
          "duration": 0.0789472499999988,
          "durationTicks": 96,
          "midi": 79,
          "name": "G5",
          "ticks": 121824,
          "time": 100.18406025,
          "velocity": 0.3937007874015748
        },
        {
          "duration": 0.0789472499999988,
          "durationTicks": 96,
          "midi": 77,
          "name": "F5",
          "ticks": 121920,
          "time": 100.2630075,
          "velocity": 0.3937007874015748
        },
        {
          "duration": 0.0789472499999988,
          "durationTicks": 96,
          "midi": 75,
          "name": "D#5",
          "ticks": 122016,
          "time": 100.34195475,
          "velocity": 0.3937007874015748
        },
        {
          "duration": 0.0789472499999988,
          "durationTicks": 96,
          "midi": 84,
          "name": "C6",
          "ticks": 122112,
          "time": 100.420902,
          "velocity": 0.3937007874015748
        },
        {
          "duration": 0.0789472499999988,
          "durationTicks": 96,
          "midi": 80,
          "name": "G#5",
          "ticks": 122208,
          "time": 100.49984925,
          "velocity": 0.3937007874015748
        },
        {
          "duration": 0.0789472499999988,
          "durationTicks": 96,
          "midi": 76,
          "name": "E5",
          "ticks": 122304,
          "time": 100.5787965,
          "velocity": 0.3937007874015748
        },
        {
          "duration": 0.0789472499999988,
          "durationTicks": 96,
          "midi": 72,
          "name": "C5",
          "ticks": 122400,
          "time": 100.65774375,
          "velocity": 0.3937007874015748
        },
        {
          "duration": 0.0789472499999988,
          "durationTicks": 96,
          "midi": 84,
          "name": "C6",
          "ticks": 122496,
          "time": 100.736691,
          "velocity": 0.3937007874015748
        },
        {
          "duration": 0.0789472499999988,
          "durationTicks": 96,
          "midi": 80,
          "name": "G#5",
          "ticks": 122592,
          "time": 100.81563824999999,
          "velocity": 0.3937007874015748
        },
        {
          "duration": 0.0789472499999988,
          "durationTicks": 96,
          "midi": 76,
          "name": "E5",
          "ticks": 122688,
          "time": 100.89458549999999,
          "velocity": 0.3937007874015748
        },
        {
          "duration": 0.07894725000001301,
          "durationTicks": 96,
          "midi": 72,
          "name": "C5",
          "ticks": 122784,
          "time": 100.97353274999999,
          "velocity": 0.3937007874015748
        },
        {
          "duration": 0.1578944999999976,
          "durationTicks": 192,
          "midi": 80,
          "name": "G#5",
          "ticks": 122880,
          "time": 101.05248,
          "velocity": 0.3937007874015748
        },
        {
          "duration": 0.1578944999999976,
          "durationTicks": 192,
          "midi": 80,
          "name": "G#5",
          "ticks": 123264,
          "time": 101.368269,
          "velocity": 0.3937007874015748
        },
        {
          "duration": 0.1578944999999976,
          "durationTicks": 192,
          "midi": 82,
          "name": "A#5",
          "ticks": 123456,
          "time": 101.5261635,
          "velocity": 0.3937007874015748
        },
        {
          "duration": 0.1578944999999976,
          "durationTicks": 192,
          "midi": 84,
          "name": "C6",
          "ticks": 123648,
          "time": 101.684058,
          "velocity": 0.3937007874015748
        },
        {
          "duration": 0.1578944999999976,
          "durationTicks": 192,
          "midi": 80,
          "name": "G#5",
          "ticks": 124032,
          "time": 101.999847,
          "velocity": 0.3937007874015748
        },
        {
          "duration": 0.1578944999999976,
          "durationTicks": 192,
          "midi": 82,
          "name": "A#5",
          "ticks": 124416,
          "time": 102.315636,
          "velocity": 0.3937007874015748
        },
        {
          "duration": 0.1578944999999976,
          "durationTicks": 192,
          "midi": 82,
          "name": "A#5",
          "ticks": 124800,
          "time": 102.631425,
          "velocity": 0.3937007874015748
        },
        {
          "duration": 0.15789450000001182,
          "durationTicks": 192,
          "midi": 84,
          "name": "C6",
          "ticks": 124992,
          "time": 102.78931949999999,
          "velocity": 0.3937007874015748
        },
        {
          "duration": 0.1578944999999976,
          "durationTicks": 192,
          "midi": 79,
          "name": "G5",
          "ticks": 125184,
          "time": 102.947214,
          "velocity": 0.3937007874015748
        },
        {
          "duration": 0.1578944999999976,
          "durationTicks": 192,
          "midi": 75,
          "name": "D#5",
          "ticks": 125568,
          "time": 103.263003,
          "velocity": 0.3937007874015748
        },
        {
          "duration": 0.1578944999999976,
          "durationTicks": 192,
          "midi": 80,
          "name": "G#5",
          "ticks": 125952,
          "time": 103.57879199999999,
          "velocity": 0.3937007874015748
        },
        {
          "duration": 0.1578944999999976,
          "durationTicks": 192,
          "midi": 80,
          "name": "G#5",
          "ticks": 126336,
          "time": 103.894581,
          "velocity": 0.3937007874015748
        },
        {
          "duration": 0.1578944999999976,
          "durationTicks": 192,
          "midi": 82,
          "name": "A#5",
          "ticks": 126528,
          "time": 104.0524755,
          "velocity": 0.3937007874015748
        },
        {
          "duration": 0.1578944999999976,
          "durationTicks": 192,
          "midi": 84,
          "name": "C6",
          "ticks": 126720,
          "time": 104.21037,
          "velocity": 0.3937007874015748
        },
        {
          "duration": 0.1578944999999976,
          "durationTicks": 192,
          "midi": 80,
          "name": "G#5",
          "ticks": 126912,
          "time": 104.3682645,
          "velocity": 0.3937007874015748
        },
        {
          "duration": 0.1578944999999976,
          "durationTicks": 192,
          "midi": 84,
          "name": "C6",
          "ticks": 127104,
          "time": 104.52615899999999,
          "velocity": 0.3937007874015748
        },
        {
          "duration": 0.15789450000001182,
          "durationTicks": 192,
          "midi": 92,
          "name": "G#6",
          "ticks": 127296,
          "time": 104.68405349999999,
          "velocity": 0.3937007874015748
        },
        {
          "duration": 0.3157889999999952,
          "durationTicks": 384,
          "midi": 91,
          "name": "G6",
          "ticks": 127488,
          "time": 104.841948,
          "velocity": 0.3937007874015748
        },
        {
          "duration": 0.3157889999999952,
          "durationTicks": 384,
          "midi": 87,
          "name": "D#6",
          "ticks": 127872,
          "time": 105.157737,
          "velocity": 0.3937007874015748
        },
        {
          "duration": 0.3157890000000094,
          "durationTicks": 384,
          "midi": 82,
          "name": "A#5",
          "ticks": 128256,
          "time": 105.47352599999999,
          "velocity": 0.3937007874015748
        },
        {
          "duration": 0.3157889999999952,
          "durationTicks": 384,
          "midi": 87,
          "name": "D#6",
          "ticks": 128640,
          "time": 105.789315,
          "velocity": 0.3937007874015748
        },
        {
          "duration": 0.3157889999999952,
          "durationTicks": 384,
          "midi": 80,
          "name": "G#5",
          "ticks": 129024,
          "time": 106.105104,
          "velocity": 0.3937007874015748
        },
        {
          "duration": 0.1578944999999976,
          "durationTicks": 192,
          "midi": 80,
          "name": "G#5",
          "ticks": 129408,
          "time": 106.42089299999999,
          "velocity": 0.3937007874015748
        },
        {
          "duration": 0.15789450000001182,
          "durationTicks": 192,
          "midi": 87,
          "name": "D#6",
          "ticks": 129600,
          "time": 106.57878749999999,
          "velocity": 0.3937007874015748
        },
        {
          "duration": 0.1578944999999976,
          "durationTicks": 192,
          "midi": 89,
          "name": "F6",
          "ticks": 129792,
          "time": 106.736682,
          "velocity": 0.3937007874015748
        },
        {
          "duration": 0.1578944999999976,
          "durationTicks": 192,
          "midi": 84,
          "name": "C6",
          "ticks": 130176,
          "time": 107.052471,
          "velocity": 0.3937007874015748
        },
        {
          "duration": 0.1578944999999976,
          "durationTicks": 192,
          "midi": 82,
          "name": "A#5",
          "ticks": 130560,
          "time": 107.36825999999999,
          "velocity": 0.3937007874015748
        },
        {
          "duration": 0.1578944999999976,
          "durationTicks": 192,
          "midi": 82,
          "name": "A#5",
          "ticks": 130944,
          "time": 107.684049,
          "velocity": 0.3937007874015748
        },
        {
          "duration": 0.1578944999999976,
          "durationTicks": 192,
          "midi": 84,
          "name": "C6",
          "ticks": 131136,
          "time": 107.8419435,
          "velocity": 0.3937007874015748
        },
        {
          "duration": 0.1578944999999976,
          "durationTicks": 192,
          "midi": 82,
          "name": "A#5",
          "ticks": 131328,
          "time": 107.999838,
          "velocity": 0.3937007874015748
        },
        {
          "duration": 0.1578944999999976,
          "durationTicks": 192,
          "midi": 80,
          "name": "G#5",
          "ticks": 131712,
          "time": 108.31562699999999,
          "velocity": 0.3937007874015748
        },
        {
          "duration": 0.1578944999999976,
          "durationTicks": 192,
          "midi": 82,
          "name": "A#5",
          "ticks": 132096,
          "time": 108.631416,
          "velocity": 0.3937007874015748
        },
        {
          "duration": 0.1578944999999976,
          "durationTicks": 192,
          "midi": 82,
          "name": "A#5",
          "ticks": 132480,
          "time": 108.947205,
          "velocity": 0.3937007874015748
        },
        {
          "duration": 0.1578944999999976,
          "durationTicks": 192,
          "midi": 84,
          "name": "C6",
          "ticks": 132672,
          "time": 109.1050995,
          "velocity": 0.3937007874015748
        },
        {
          "duration": 0.1578944999999976,
          "durationTicks": 192,
          "midi": 82,
          "name": "A#5",
          "ticks": 132864,
          "time": 109.26299399999999,
          "velocity": 0.3937007874015748
        },
        {
          "duration": 0.1578944999999976,
          "durationTicks": 192,
          "midi": 80,
          "name": "G#5",
          "ticks": 133248,
          "time": 109.578783,
          "velocity": 0.3937007874015748
        },
        {
          "duration": 0.6315780000000046,
          "durationTicks": 768,
          "midi": 82,
          "name": "A#5",
          "ticks": 133632,
          "time": 109.894572,
          "velocity": 0.3937007874015748
        },
        {
          "duration": 0.6315779999999904,
          "durationTicks": 768,
          "midi": 84,
          "name": "C6",
          "ticks": 134400,
          "time": 110.52615,
          "velocity": 0.3937007874015748
        },
        {
          "duration": 0.1578944999999976,
          "durationTicks": 192,
          "midi": 80,
          "name": "G#5",
          "ticks": 135168,
          "time": 111.15772799999999,
          "velocity": 0.3937007874015748
        },
        {
          "duration": 0.1578944999999976,
          "durationTicks": 192,
          "midi": 80,
          "name": "G#5",
          "ticks": 135552,
          "time": 111.473517,
          "velocity": 0.3937007874015748
        },
        {
          "duration": 0.1578944999999976,
          "durationTicks": 192,
          "midi": 82,
          "name": "A#5",
          "ticks": 135744,
          "time": 111.6314115,
          "velocity": 0.3937007874015748
        },
        {
          "duration": 0.1578944999999976,
          "durationTicks": 192,
          "midi": 84,
          "name": "C6",
          "ticks": 135936,
          "time": 111.789306,
          "velocity": 0.3937007874015748
        },
        {
          "duration": 0.1578944999999976,
          "durationTicks": 192,
          "midi": 80,
          "name": "G#5",
          "ticks": 136320,
          "time": 112.10509499999999,
          "velocity": 0.3937007874015748
        },
        {
          "duration": 0.1578944999999976,
          "durationTicks": 192,
          "midi": 82,
          "name": "A#5",
          "ticks": 136704,
          "time": 112.420884,
          "velocity": 0.3937007874015748
        },
        {
          "duration": 0.1578944999999976,
          "durationTicks": 192,
          "midi": 82,
          "name": "A#5",
          "ticks": 137088,
          "time": 112.736673,
          "velocity": 0.3937007874015748
        },
        {
          "duration": 0.1578944999999976,
          "durationTicks": 192,
          "midi": 84,
          "name": "C6",
          "ticks": 137280,
          "time": 112.8945675,
          "velocity": 0.3937007874015748
        },
        {
          "duration": 0.1578944999999976,
          "durationTicks": 192,
          "midi": 79,
          "name": "G5",
          "ticks": 137472,
          "time": 113.05246199999999,
          "velocity": 0.3937007874015748
        },
        {
          "duration": 0.1578944999999976,
          "durationTicks": 192,
          "midi": 75,
          "name": "D#5",
          "ticks": 137856,
          "time": 113.368251,
          "velocity": 0.3937007874015748
        },
        {
          "duration": 0.1578944999999976,
          "durationTicks": 192,
          "midi": 80,
          "name": "G#5",
          "ticks": 138240,
          "time": 113.68404,
          "velocity": 0.3937007874015748
        },
        {
          "duration": 0.1578944999999976,
          "durationTicks": 192,
          "midi": 80,
          "name": "G#5",
          "ticks": 138624,
          "time": 113.99982899999999,
          "velocity": 0.3937007874015748
        },
        {
          "duration": 0.15789450000001182,
          "durationTicks": 192,
          "midi": 82,
          "name": "A#5",
          "ticks": 138816,
          "time": 114.15772349999999,
          "velocity": 0.3937007874015748
        },
        {
          "duration": 0.1578944999999976,
          "durationTicks": 192,
          "midi": 84,
          "name": "C6",
          "ticks": 139008,
          "time": 114.315618,
          "velocity": 0.3937007874015748
        },
        {
          "duration": 0.1578944999999976,
          "durationTicks": 192,
          "midi": 80,
          "name": "G#5",
          "ticks": 139200,
          "time": 114.4735125,
          "velocity": 0.3937007874015748
        },
        {
          "duration": 0.1578944999999976,
          "durationTicks": 192,
          "midi": 84,
          "name": "C6",
          "ticks": 139392,
          "time": 114.631407,
          "velocity": 0.3937007874015748
        },
        {
          "duration": 0.1578944999999976,
          "durationTicks": 192,
          "midi": 92,
          "name": "G#6",
          "ticks": 139584,
          "time": 114.7893015,
          "velocity": 0.3937007874015748
        },
        {
          "duration": 0.3157890000000094,
          "durationTicks": 384,
          "midi": 91,
          "name": "G6",
          "ticks": 139776,
          "time": 114.94719599999999,
          "velocity": 0.3937007874015748
        },
        {
          "duration": 0.3157889999999952,
          "durationTicks": 384,
          "midi": 87,
          "name": "D#6",
          "ticks": 140160,
          "time": 115.262985,
          "velocity": 0.3937007874015748
        },
        {
          "duration": 0.3157889999999952,
          "durationTicks": 384,
          "midi": 82,
          "name": "A#5",
          "ticks": 140544,
          "time": 115.578774,
          "velocity": 0.3937007874015748
        },
        {
          "duration": 0.3157890000000094,
          "durationTicks": 384,
          "midi": 79,
          "name": "G5",
          "ticks": 140928,
          "time": 115.89456299999999,
          "velocity": 0.3937007874015748
        },
        {
          "duration": 0.3157889999999952,
          "durationTicks": 384,
          "midi": 80,
          "name": "G#5",
          "ticks": 141312,
          "time": 116.210352,
          "velocity": 0.3937007874015748
        },
        {
          "duration": 0.1578944999999976,
          "durationTicks": 192,
          "midi": 80,
          "name": "G#5",
          "ticks": 141696,
          "time": 116.526141,
          "velocity": 0.3937007874015748
        },
        {
          "duration": 0.1578944999999976,
          "durationTicks": 192,
          "midi": 87,
          "name": "D#6",
          "ticks": 141888,
          "time": 116.6840355,
          "velocity": 0.3937007874015748
        },
        {
          "duration": 0.1578944999999976,
          "durationTicks": 192,
          "midi": 89,
          "name": "F6",
          "ticks": 142080,
          "time": 116.84192999999999,
          "velocity": 0.3937007874015748
        },
        {
          "duration": 0.1578944999999976,
          "durationTicks": 192,
          "midi": 84,
          "name": "C6",
          "ticks": 142464,
          "time": 117.157719,
          "velocity": 0.3937007874015748
        },
        {
          "duration": 0.1578944999999976,
          "durationTicks": 192,
          "midi": 82,
          "name": "A#5",
          "ticks": 142848,
          "time": 117.473508,
          "velocity": 0.3937007874015748
        },
        {
          "duration": 0.1578944999999976,
          "durationTicks": 192,
          "midi": 82,
          "name": "A#5",
          "ticks": 143232,
          "time": 117.78929699999999,
          "velocity": 0.3937007874015748
        },
        {
          "duration": 0.15789450000001182,
          "durationTicks": 192,
          "midi": 84,
          "name": "C6",
          "ticks": 143424,
          "time": 117.94719149999999,
          "velocity": 0.3937007874015748
        },
        {
          "duration": 0.1578944999999976,
          "durationTicks": 192,
          "midi": 82,
          "name": "A#5",
          "ticks": 143616,
          "time": 118.105086,
          "velocity": 0.3937007874015748
        },
        {
          "duration": 0.1578944999999976,
          "durationTicks": 192,
          "midi": 80,
          "name": "G#5",
          "ticks": 144000,
          "time": 118.420875,
          "velocity": 0.3937007874015748
        },
        {
          "duration": 0.1578944999999976,
          "durationTicks": 192,
          "midi": 82,
          "name": "A#5",
          "ticks": 144384,
          "time": 118.73666399999999,
          "velocity": 0.3937007874015748
        },
        {
          "duration": 0.1578944999999976,
          "durationTicks": 192,
          "midi": 82,
          "name": "A#5",
          "ticks": 144768,
          "time": 119.052453,
          "velocity": 0.3937007874015748
        },
        {
          "duration": 0.1578944999999976,
          "durationTicks": 192,
          "midi": 84,
          "name": "C6",
          "ticks": 144960,
          "time": 119.2103475,
          "velocity": 0.3937007874015748
        },
        {
          "duration": 0.1578944999999976,
          "durationTicks": 192,
          "midi": 82,
          "name": "A#5",
          "ticks": 145152,
          "time": 119.368242,
          "velocity": 0.3937007874015748
        },
        {
          "duration": 0.1578944999999976,
          "durationTicks": 192,
          "midi": 80,
          "name": "G#5",
          "ticks": 145536,
          "time": 119.68403099999999,
          "velocity": 0.3937007874015748
        },
        {
          "duration": 0.6315779999999904,
          "durationTicks": 768,
          "midi": 82,
          "name": "A#5",
          "ticks": 145920,
          "time": 119.99982,
          "velocity": 0.3937007874015748
        },
        {
          "duration": 0.6315780000000046,
          "durationTicks": 768,
          "midi": 84,
          "name": "C6",
          "ticks": 146688,
          "time": 120.63139799999999,
          "velocity": 0.3937007874015748
        },
        {
          "duration": 0.1578944999999976,
          "durationTicks": 192,
          "midi": 80,
          "name": "G#5",
          "ticks": 147456,
          "time": 121.262976,
          "velocity": 0.3937007874015748
        },
        {
          "duration": 0.15789450000001182,
          "durationTicks": 192,
          "midi": 80,
          "name": "G#5",
          "ticks": 147840,
          "time": 121.57876499999999,
          "velocity": 0.3937007874015748
        },
        {
          "duration": 0.1578944999999976,
          "durationTicks": 192,
          "midi": 82,
          "name": "A#5",
          "ticks": 148032,
          "time": 121.7366595,
          "velocity": 0.3937007874015748
        },
        {
          "duration": 0.1578944999999976,
          "durationTicks": 192,
          "midi": 84,
          "name": "C6",
          "ticks": 148224,
          "time": 121.894554,
          "velocity": 0.3937007874015748
        },
        {
          "duration": 0.1578944999999976,
          "durationTicks": 192,
          "midi": 80,
          "name": "G#5",
          "ticks": 148608,
          "time": 122.210343,
          "velocity": 0.3937007874015748
        },
        {
          "duration": 0.15789450000001182,
          "durationTicks": 192,
          "midi": 82,
          "name": "A#5",
          "ticks": 148992,
          "time": 122.52613199999999,
          "velocity": 0.3937007874015748
        },
        {
          "duration": 0.1578944999999976,
          "durationTicks": 192,
          "midi": 82,
          "name": "A#5",
          "ticks": 149376,
          "time": 122.841921,
          "velocity": 0.3937007874015748
        },
        {
          "duration": 0.1578944999999976,
          "durationTicks": 192,
          "midi": 84,
          "name": "C6",
          "ticks": 149568,
          "time": 122.9998155,
          "velocity": 0.3937007874015748
        },
        {
          "duration": 0.1578944999999976,
          "durationTicks": 192,
          "midi": 79,
          "name": "G5",
          "ticks": 149760,
          "time": 123.15771,
          "velocity": 0.3937007874015748
        },
        {
          "duration": 0.15789450000001182,
          "durationTicks": 192,
          "midi": 75,
          "name": "D#5",
          "ticks": 150144,
          "time": 123.47349899999999,
          "velocity": 0.3937007874015748
        },
        {
          "duration": 0.1578944999999976,
          "durationTicks": 192,
          "midi": 80,
          "name": "G#5",
          "ticks": 150528,
          "time": 123.789288,
          "velocity": 0.3937007874015748
        },
        {
          "duration": 0.1578944999999976,
          "durationTicks": 192,
          "midi": 80,
          "name": "G#5",
          "ticks": 150912,
          "time": 124.105077,
          "velocity": 0.3937007874015748
        },
        {
          "duration": 0.1578944999999976,
          "durationTicks": 192,
          "midi": 82,
          "name": "A#5",
          "ticks": 151104,
          "time": 124.26297149999999,
          "velocity": 0.3937007874015748
        },
        {
          "duration": 0.15789450000001182,
          "durationTicks": 192,
          "midi": 84,
          "name": "C6",
          "ticks": 151296,
          "time": 124.42086599999999,
          "velocity": 0.3937007874015748
        },
        {
          "duration": 0.1578944999999976,
          "durationTicks": 192,
          "midi": 80,
          "name": "G#5",
          "ticks": 151488,
          "time": 124.5787605,
          "velocity": 0.3937007874015748
        },
        {
          "duration": 0.1578944999999976,
          "durationTicks": 192,
          "midi": 84,
          "name": "C6",
          "ticks": 151680,
          "time": 124.736655,
          "velocity": 0.3937007874015748
        },
        {
          "duration": 0.1578944999999976,
          "durationTicks": 192,
          "midi": 92,
          "name": "G#6",
          "ticks": 151872,
          "time": 124.8945495,
          "velocity": 0.3937007874015748
        },
        {
          "duration": 0.3157889999999952,
          "durationTicks": 384,
          "midi": 91,
          "name": "G6",
          "ticks": 152064,
          "time": 125.052444,
          "velocity": 0.3937007874015748
        },
        {
          "duration": 0.3157890000000094,
          "durationTicks": 384,
          "midi": 87,
          "name": "D#6",
          "ticks": 152448,
          "time": 125.36823299999999,
          "velocity": 0.3937007874015748
        },
        {
          "duration": 0.3157889999999952,
          "durationTicks": 384,
          "midi": 82,
          "name": "A#5",
          "ticks": 152832,
          "time": 125.684022,
          "velocity": 0.3937007874015748
        },
        {
          "duration": 0.3157889999999952,
          "durationTicks": 384,
          "midi": 87,
          "name": "D#6",
          "ticks": 153216,
          "time": 125.999811,
          "velocity": 0.3937007874015748
        },
        {
          "duration": 0.3157890000000094,
          "durationTicks": 384,
          "midi": 89,
          "name": "F6",
          "ticks": 153600,
          "time": 126.31559999999999,
          "velocity": 0.3937007874015748
        },
        {
          "duration": 0.1578944999999976,
          "durationTicks": 192,
          "midi": 84,
          "name": "C6",
          "ticks": 153984,
          "time": 126.631389,
          "velocity": 0.3937007874015748
        },
        {
          "duration": 0.1578944999999976,
          "durationTicks": 192,
          "midi": 87,
          "name": "D#6",
          "ticks": 154176,
          "time": 126.7892835,
          "velocity": 0.3937007874015748
        },
        {
          "duration": 0.1578944999999976,
          "durationTicks": 192,
          "midi": 89,
          "name": "F6",
          "ticks": 154368,
          "time": 126.947178,
          "velocity": 0.3937007874015748
        },
        {
          "duration": 0.15789450000001182,
          "durationTicks": 192,
          "midi": 84,
          "name": "C6",
          "ticks": 154752,
          "time": 127.26296699999999,
          "velocity": 0.3937007874015748
        },
        {
          "duration": 0.1578944999999976,
          "durationTicks": 192,
          "midi": 82,
          "name": "A#5",
          "ticks": 155136,
          "time": 127.578756,
          "velocity": 0.3937007874015748
        },
        {
          "duration": 0.1578944999999976,
          "durationTicks": 192,
          "midi": 82,
          "name": "A#5",
          "ticks": 155520,
          "time": 127.894545,
          "velocity": 0.3937007874015748
        },
        {
          "duration": 0.1578944999999976,
          "durationTicks": 192,
          "midi": 84,
          "name": "C6",
          "ticks": 155712,
          "time": 128.0524395,
          "velocity": 0.3937007874015748
        },
        {
          "duration": 0.1578944999999976,
          "durationTicks": 192,
          "midi": 82,
          "name": "A#5",
          "ticks": 155904,
          "time": 128.210334,
          "velocity": 0.3937007874015748
        },
        {
          "duration": 0.1578944999999976,
          "durationTicks": 192,
          "midi": 80,
          "name": "G#5",
          "ticks": 156288,
          "time": 128.52612299999998,
          "velocity": 0.3937007874015748
        },
        {
          "duration": 0.1578944999999976,
          "durationTicks": 192,
          "midi": 77,
          "name": "F5",
          "ticks": 156672,
          "time": 128.841912,
          "velocity": 0.3937007874015748
        },
        {
          "duration": 0.1578944999999976,
          "durationTicks": 192,
          "midi": 80,
          "name": "G#5",
          "ticks": 156864,
          "time": 128.9998065,
          "velocity": 0.3937007874015748
        },
        {
          "duration": 0.1578944999999976,
          "durationTicks": 192,
          "midi": 82,
          "name": "A#5",
          "ticks": 157056,
          "time": 129.157701,
          "velocity": 0.3937007874015748
        },
        {
          "duration": 0.1578944999999976,
          "durationTicks": 192,
          "midi": 84,
          "name": "C6",
          "ticks": 157248,
          "time": 129.3155955,
          "velocity": 0.3937007874015748
        },
        {
          "duration": 0.1578944999999976,
          "durationTicks": 192,
          "midi": 87,
          "name": "D#6",
          "ticks": 157440,
          "time": 129.47349,
          "velocity": 0.3937007874015748
        },
        {
          "duration": 0.1578944999999976,
          "durationTicks": 192,
          "midi": 84,
          "name": "C6",
          "ticks": 157632,
          "time": 129.6313845,
          "velocity": 0.3937007874015748
        },
        {
          "duration": 0.1578944999999976,
          "durationTicks": 192,
          "midi": 82,
          "name": "A#5",
          "ticks": 157824,
          "time": 129.789279,
          "velocity": 0.3937007874015748
        },
        {
          "duration": 0.1578944999999976,
          "durationTicks": 192,
          "midi": 80,
          "name": "G#5",
          "ticks": 158016,
          "time": 129.9471735,
          "velocity": 0.3937007874015748
        },
        {
          "duration": 0.0789472499999988,
          "durationTicks": 96,
          "midi": 82,
          "name": "A#5",
          "ticks": 158208,
          "time": 130.105068,
          "velocity": 0.3937007874015748
        },
        {
          "duration": 0.0789472499999988,
          "durationTicks": 96,
          "midi": 79,
          "name": "G5",
          "ticks": 158304,
          "time": 130.18401525,
          "velocity": 0.3937007874015748
        },
        {
          "duration": 0.0789472499999988,
          "durationTicks": 96,
          "midi": 77,
          "name": "F5",
          "ticks": 158400,
          "time": 130.2629625,
          "velocity": 0.3937007874015748
        },
        {
          "duration": 0.0789472499999988,
          "durationTicks": 96,
          "midi": 75,
          "name": "D#5",
          "ticks": 158496,
          "time": 130.34190974999999,
          "velocity": 0.3937007874015748
        },
        {
          "duration": 0.0789472499999988,
          "durationTicks": 96,
          "midi": 82,
          "name": "A#5",
          "ticks": 158592,
          "time": 130.42085699999998,
          "velocity": 0.3937007874015748
        },
        {
          "duration": 0.0789472499999988,
          "durationTicks": 96,
          "midi": 79,
          "name": "G5",
          "ticks": 158688,
          "time": 130.49980424999998,
          "velocity": 0.3937007874015748
        },
        {
          "duration": 0.0789472499999988,
          "durationTicks": 96,
          "midi": 77,
          "name": "F5",
          "ticks": 158784,
          "time": 130.57875149999998,
          "velocity": 0.3937007874015748
        },
        {
          "duration": 0.07894725000002722,
          "durationTicks": 96,
          "midi": 75,
          "name": "D#5",
          "ticks": 158880,
          "time": 130.65769874999998,
          "velocity": 0.3937007874015748
        },
        {
          "duration": 0.0789472499999988,
          "durationTicks": 96,
          "midi": 84,
          "name": "C6",
          "ticks": 158976,
          "time": 130.736646,
          "velocity": 0.3937007874015748
        },
        {
          "duration": 0.0789472499999988,
          "durationTicks": 96,
          "midi": 80,
          "name": "G#5",
          "ticks": 159072,
          "time": 130.81559325,
          "velocity": 0.3937007874015748
        },
        {
          "duration": 0.0789472499999988,
          "durationTicks": 96,
          "midi": 76,
          "name": "E5",
          "ticks": 159168,
          "time": 130.8945405,
          "velocity": 0.3937007874015748
        },
        {
          "duration": 0.0789472499999988,
          "durationTicks": 96,
          "midi": 72,
          "name": "C5",
          "ticks": 159264,
          "time": 130.97348775,
          "velocity": 0.3937007874015748
        },
        {
          "duration": 0.0789472499999988,
          "durationTicks": 96,
          "midi": 84,
          "name": "C6",
          "ticks": 159360,
          "time": 131.052435,
          "velocity": 0.3937007874015748
        },
        {
          "duration": 0.0789472499999988,
          "durationTicks": 96,
          "midi": 80,
          "name": "G#5",
          "ticks": 159456,
          "time": 131.13138225,
          "velocity": 0.3937007874015748
        },
        {
          "duration": 0.0789472499999988,
          "durationTicks": 96,
          "midi": 76,
          "name": "E5",
          "ticks": 159552,
          "time": 131.2103295,
          "velocity": 0.3937007874015748
        },
        {
          "duration": 0.0789472499999988,
          "durationTicks": 96,
          "midi": 72,
          "name": "C5",
          "ticks": 159648,
          "time": 131.28927675,
          "velocity": 0.3937007874015748
        },
        {
          "duration": 0.1578944999999976,
          "durationTicks": 192,
          "midi": 80,
          "name": "G#5",
          "ticks": 159744,
          "time": 131.368224,
          "velocity": 0.3937007874015748
        },
        {
          "duration": 0.1578944999999976,
          "durationTicks": 192,
          "midi": 80,
          "name": "G#5",
          "ticks": 160128,
          "time": 131.684013,
          "velocity": 0.3937007874015748
        },
        {
          "duration": 0.1578944999999976,
          "durationTicks": 192,
          "midi": 82,
          "name": "A#5",
          "ticks": 160320,
          "time": 131.8419075,
          "velocity": 0.3937007874015748
        },
        {
          "duration": 0.1578944999999976,
          "durationTicks": 192,
          "midi": 84,
          "name": "C6",
          "ticks": 160512,
          "time": 131.999802,
          "velocity": 0.3937007874015748
        },
        {
          "duration": 0.1578944999999976,
          "durationTicks": 192,
          "midi": 80,
          "name": "G#5",
          "ticks": 160896,
          "time": 132.31559099999998,
          "velocity": 0.3937007874015748
        },
        {
          "duration": 0.1578944999999976,
          "durationTicks": 192,
          "midi": 82,
          "name": "A#5",
          "ticks": 161280,
          "time": 132.63138,
          "velocity": 0.3937007874015748
        },
        {
          "duration": 0.1578944999999976,
          "durationTicks": 192,
          "midi": 82,
          "name": "A#5",
          "ticks": 161664,
          "time": 132.947169,
          "velocity": 0.3937007874015748
        },
        {
          "duration": 0.1578944999999976,
          "durationTicks": 192,
          "midi": 84,
          "name": "C6",
          "ticks": 161856,
          "time": 133.1050635,
          "velocity": 0.3937007874015748
        },
        {
          "duration": 0.1578944999999976,
          "durationTicks": 192,
          "midi": 79,
          "name": "G5",
          "ticks": 162048,
          "time": 133.262958,
          "velocity": 0.3937007874015748
        },
        {
          "duration": 0.1578944999999976,
          "durationTicks": 192,
          "midi": 75,
          "name": "D#5",
          "ticks": 162432,
          "time": 133.578747,
          "velocity": 0.3937007874015748
        },
        {
          "duration": 0.1578944999999976,
          "durationTicks": 192,
          "midi": 80,
          "name": "G#5",
          "ticks": 162816,
          "time": 133.894536,
          "velocity": 0.3937007874015748
        },
        {
          "duration": 0.1578944999999976,
          "durationTicks": 192,
          "midi": 80,
          "name": "G#5",
          "ticks": 163200,
          "time": 134.21032499999998,
          "velocity": 0.3937007874015748
        },
        {
          "duration": 0.15789450000002603,
          "durationTicks": 192,
          "midi": 82,
          "name": "A#5",
          "ticks": 163392,
          "time": 134.36821949999998,
          "velocity": 0.3937007874015748
        },
        {
          "duration": 0.1578944999999976,
          "durationTicks": 192,
          "midi": 84,
          "name": "C6",
          "ticks": 163584,
          "time": 134.526114,
          "velocity": 0.3937007874015748
        },
        {
          "duration": 0.1578944999999976,
          "durationTicks": 192,
          "midi": 80,
          "name": "G#5",
          "ticks": 163776,
          "time": 134.6840085,
          "velocity": 0.3937007874015748
        },
        {
          "duration": 0.1578944999999976,
          "durationTicks": 192,
          "midi": 84,
          "name": "C6",
          "ticks": 163968,
          "time": 134.841903,
          "velocity": 0.3937007874015748
        },
        {
          "duration": 0.1578944999999976,
          "durationTicks": 192,
          "midi": 92,
          "name": "G#6",
          "ticks": 164160,
          "time": 134.9997975,
          "velocity": 0.3937007874015748
        },
        {
          "duration": 0.3157889999999952,
          "durationTicks": 384,
          "midi": 91,
          "name": "G6",
          "ticks": 164352,
          "time": 135.157692,
          "velocity": 0.3937007874015748
        },
        {
          "duration": 0.3157889999999952,
          "durationTicks": 384,
          "midi": 87,
          "name": "D#6",
          "ticks": 164736,
          "time": 135.473481,
          "velocity": 0.3937007874015748
        },
        {
          "duration": 0.3157889999999952,
          "durationTicks": 384,
          "midi": 82,
          "name": "A#5",
          "ticks": 165120,
          "time": 135.78927,
          "velocity": 0.3937007874015748
        },
        {
          "duration": 0.31578900000002363,
          "durationTicks": 384,
          "midi": 87,
          "name": "D#6",
          "ticks": 165504,
          "time": 136.10505899999998,
          "velocity": 0.3937007874015748
        },
        {
          "duration": 0.3157889999999952,
          "durationTicks": 384,
          "midi": 89,
          "name": "F6",
          "ticks": 165888,
          "time": 136.420848,
          "velocity": 0.3937007874015748
        },
        {
          "duration": 0.1578944999999976,
          "durationTicks": 192,
          "midi": 84,
          "name": "C6",
          "ticks": 166272,
          "time": 136.736637,
          "velocity": 0.3937007874015748
        },
        {
          "duration": 0.1578944999999976,
          "durationTicks": 192,
          "midi": 87,
          "name": "D#6",
          "ticks": 166464,
          "time": 136.8945315,
          "velocity": 0.3937007874015748
        },
        {
          "duration": 0.1578944999999976,
          "durationTicks": 192,
          "midi": 89,
          "name": "F6",
          "ticks": 166656,
          "time": 137.052426,
          "velocity": 0.3937007874015748
        },
        {
          "duration": 0.1578944999999976,
          "durationTicks": 192,
          "midi": 84,
          "name": "C6",
          "ticks": 167040,
          "time": 137.368215,
          "velocity": 0.3937007874015748
        },
        {
          "duration": 0.1578944999999976,
          "durationTicks": 192,
          "midi": 82,
          "name": "A#5",
          "ticks": 167424,
          "time": 137.684004,
          "velocity": 0.3937007874015748
        },
        {
          "duration": 0.1578944999999976,
          "durationTicks": 192,
          "midi": 82,
          "name": "A#5",
          "ticks": 167808,
          "time": 137.99979299999998,
          "velocity": 0.3937007874015748
        },
        {
          "duration": 0.15789450000002603,
          "durationTicks": 192,
          "midi": 84,
          "name": "C6",
          "ticks": 168000,
          "time": 138.15768749999998,
          "velocity": 0.3937007874015748
        },
        {
          "duration": 0.1578944999999976,
          "durationTicks": 192,
          "midi": 82,
          "name": "A#5",
          "ticks": 168192,
          "time": 138.315582,
          "velocity": 0.3937007874015748
        },
        {
          "duration": 0.1578944999999976,
          "durationTicks": 192,
          "midi": 80,
          "name": "G#5",
          "ticks": 168576,
          "time": 138.631371,
          "velocity": 0.3937007874015748
        },
        {
          "duration": 0.1578944999999976,
          "durationTicks": 192,
          "midi": 77,
          "name": "F5",
          "ticks": 168960,
          "time": 138.94716,
          "velocity": 0.3937007874015748
        },
        {
          "duration": 0.1578944999999976,
          "durationTicks": 192,
          "midi": 80,
          "name": "G#5",
          "ticks": 169152,
          "time": 139.1050545,
          "velocity": 0.3937007874015748
        },
        {
          "duration": 0.1578944999999976,
          "durationTicks": 192,
          "midi": 82,
          "name": "A#5",
          "ticks": 169344,
          "time": 139.262949,
          "velocity": 0.3937007874015748
        },
        {
          "duration": 0.1578944999999976,
          "durationTicks": 192,
          "midi": 84,
          "name": "C6",
          "ticks": 169536,
          "time": 139.4208435,
          "velocity": 0.3937007874015748
        },
        {
          "duration": 0.1578944999999976,
          "durationTicks": 192,
          "midi": 87,
          "name": "D#6",
          "ticks": 169728,
          "time": 139.578738,
          "velocity": 0.3937007874015748
        },
        {
          "duration": 0.1578944999999976,
          "durationTicks": 192,
          "midi": 84,
          "name": "C6",
          "ticks": 169920,
          "time": 139.73663249999998,
          "velocity": 0.3937007874015748
        },
        {
          "duration": 0.1578944999999976,
          "durationTicks": 192,
          "midi": 82,
          "name": "A#5",
          "ticks": 170112,
          "time": 139.89452699999998,
          "velocity": 0.3937007874015748
        },
        {
          "duration": 0.15789450000002603,
          "durationTicks": 192,
          "midi": 80,
          "name": "G#5",
          "ticks": 170304,
          "time": 140.05242149999998,
          "velocity": 0.3937007874015748
        },
        {
          "duration": 0.0789472499999988,
          "durationTicks": 96,
          "midi": 82,
          "name": "A#5",
          "ticks": 170496,
          "time": 140.210316,
          "velocity": 0.3937007874015748
        },
        {
          "duration": 0.0789472499999988,
          "durationTicks": 96,
          "midi": 79,
          "name": "G5",
          "ticks": 170592,
          "time": 140.28926325,
          "velocity": 0.3937007874015748
        },
        {
          "duration": 0.0789472499999988,
          "durationTicks": 96,
          "midi": 77,
          "name": "F5",
          "ticks": 170688,
          "time": 140.3682105,
          "velocity": 0.3937007874015748
        },
        {
          "duration": 0.0789472499999988,
          "durationTicks": 96,
          "midi": 75,
          "name": "D#5",
          "ticks": 170784,
          "time": 140.44715775,
          "velocity": 0.3937007874015748
        },
        {
          "duration": 0.0789472499999988,
          "durationTicks": 96,
          "midi": 82,
          "name": "A#5",
          "ticks": 170880,
          "time": 140.526105,
          "velocity": 0.3937007874015748
        },
        {
          "duration": 0.0789472499999988,
          "durationTicks": 96,
          "midi": 79,
          "name": "G5",
          "ticks": 170976,
          "time": 140.60505225,
          "velocity": 0.3937007874015748
        },
        {
          "duration": 0.0789472499999988,
          "durationTicks": 96,
          "midi": 77,
          "name": "F5",
          "ticks": 171072,
          "time": 140.6839995,
          "velocity": 0.3937007874015748
        },
        {
          "duration": 0.0789472499999988,
          "durationTicks": 96,
          "midi": 75,
          "name": "D#5",
          "ticks": 171168,
          "time": 140.76294675,
          "velocity": 0.3937007874015748
        },
        {
          "duration": 0.0789472499999988,
          "durationTicks": 96,
          "midi": 84,
          "name": "C6",
          "ticks": 171264,
          "time": 140.841894,
          "velocity": 0.3937007874015748
        },
        {
          "duration": 0.0789472499999988,
          "durationTicks": 96,
          "midi": 80,
          "name": "G#5",
          "ticks": 171360,
          "time": 140.92084125,
          "velocity": 0.3937007874015748
        },
        {
          "duration": 0.0789472499999988,
          "durationTicks": 96,
          "midi": 76,
          "name": "E5",
          "ticks": 171456,
          "time": 140.9997885,
          "velocity": 0.3937007874015748
        },
        {
          "duration": 0.0789472499999988,
          "durationTicks": 96,
          "midi": 72,
          "name": "C5",
          "ticks": 171552,
          "time": 141.07873575,
          "velocity": 0.3937007874015748
        },
        {
          "duration": 0.0789472499999988,
          "durationTicks": 96,
          "midi": 84,
          "name": "C6",
          "ticks": 171648,
          "time": 141.157683,
          "velocity": 0.3937007874015748
        },
        {
          "duration": 0.0789472499999988,
          "durationTicks": 96,
          "midi": 80,
          "name": "G#5",
          "ticks": 171744,
          "time": 141.23663025,
          "velocity": 0.3937007874015748
        },
        {
          "duration": 0.0789472499999988,
          "durationTicks": 96,
          "midi": 76,
          "name": "E5",
          "ticks": 171840,
          "time": 141.3155775,
          "velocity": 0.3937007874015748
        },
        {
          "duration": 0.0789472499999988,
          "durationTicks": 96,
          "midi": 72,
          "name": "C5",
          "ticks": 171936,
          "time": 141.39452475,
          "velocity": 0.3937007874015748
        },
        {
          "duration": 0.1578944999999976,
          "durationTicks": 192,
          "midi": 80,
          "name": "G#5",
          "ticks": 172032,
          "time": 141.473472,
          "velocity": 0.3937007874015748
        },
        {
          "duration": 0.15789450000002603,
          "durationTicks": 192,
          "midi": 80,
          "name": "G#5",
          "ticks": 172416,
          "time": 141.78926099999998,
          "velocity": 0.3937007874015748
        },
        {
          "duration": 0.1578944999999976,
          "durationTicks": 192,
          "midi": 82,
          "name": "A#5",
          "ticks": 172608,
          "time": 141.9471555,
          "velocity": 0.3937007874015748
        },
        {
          "duration": 0.1578944999999976,
          "durationTicks": 192,
          "midi": 84,
          "name": "C6",
          "ticks": 172800,
          "time": 142.10505,
          "velocity": 0.3937007874015748
        },
        {
          "duration": 0.1578944999999976,
          "durationTicks": 192,
          "midi": 80,
          "name": "G#5",
          "ticks": 173184,
          "time": 142.420839,
          "velocity": 0.3937007874015748
        },
        {
          "duration": 0.1578944999999976,
          "durationTicks": 192,
          "midi": 82,
          "name": "A#5",
          "ticks": 173568,
          "time": 142.736628,
          "velocity": 0.3937007874015748
        },
        {
          "duration": 0.1578944999999976,
          "durationTicks": 192,
          "midi": 82,
          "name": "A#5",
          "ticks": 173952,
          "time": 143.052417,
          "velocity": 0.3937007874015748
        },
        {
          "duration": 0.1578944999999976,
          "durationTicks": 192,
          "midi": 84,
          "name": "C6",
          "ticks": 174144,
          "time": 143.2103115,
          "velocity": 0.3937007874015748
        },
        {
          "duration": 0.1578944999999976,
          "durationTicks": 192,
          "midi": 79,
          "name": "G5",
          "ticks": 174336,
          "time": 143.368206,
          "velocity": 0.3937007874015748
        },
        {
          "duration": 0.15789450000002603,
          "durationTicks": 192,
          "midi": 75,
          "name": "D#5",
          "ticks": 174720,
          "time": 143.68399499999998,
          "velocity": 0.3937007874015748
        },
        {
          "duration": 0.1578944999999976,
          "durationTicks": 192,
          "midi": 80,
          "name": "G#5",
          "ticks": 175104,
          "time": 143.999784,
          "velocity": 0.3937007874015748
        },
        {
          "duration": 0.1578944999999976,
          "durationTicks": 192,
          "midi": 80,
          "name": "G#5",
          "ticks": 175488,
          "time": 144.315573,
          "velocity": 0.3937007874015748
        },
        {
          "duration": 0.1578944999999976,
          "durationTicks": 192,
          "midi": 82,
          "name": "A#5",
          "ticks": 175680,
          "time": 144.4734675,
          "velocity": 0.3937007874015748
        },
        {
          "duration": 0.1578944999999976,
          "durationTicks": 192,
          "midi": 84,
          "name": "C6",
          "ticks": 175872,
          "time": 144.631362,
          "velocity": 0.3937007874015748
        },
        {
          "duration": 0.1578944999999976,
          "durationTicks": 192,
          "midi": 80,
          "name": "G#5",
          "ticks": 176064,
          "time": 144.7892565,
          "velocity": 0.3937007874015748
        },
        {
          "duration": 0.1578944999999976,
          "durationTicks": 192,
          "midi": 84,
          "name": "C6",
          "ticks": 176256,
          "time": 144.947151,
          "velocity": 0.3937007874015748
        },
        {
          "duration": 0.1578944999999976,
          "durationTicks": 192,
          "midi": 92,
          "name": "G#6",
          "ticks": 176448,
          "time": 145.1050455,
          "velocity": 0.3937007874015748
        },
        {
          "duration": 0.3157889999999952,
          "durationTicks": 384,
          "midi": 91,
          "name": "G6",
          "ticks": 176640,
          "time": 145.26294,
          "velocity": 0.3937007874015748
        },
        {
          "duration": 0.31578900000002363,
          "durationTicks": 384,
          "midi": 87,
          "name": "D#6",
          "ticks": 177024,
          "time": 145.57872899999998,
          "velocity": 0.3937007874015748
        },
        {
          "duration": 0.3157889999999952,
          "durationTicks": 384,
          "midi": 82,
          "name": "A#5",
          "ticks": 177408,
          "time": 145.894518,
          "velocity": 0.3937007874015748
        },
        {
          "duration": 0.3157889999999952,
          "durationTicks": 384,
          "midi": 87,
          "name": "D#6",
          "ticks": 177792,
          "time": 146.210307,
          "velocity": 0.3937007874015748
        },
        {
          "duration": 0.3157889999999952,
          "durationTicks": 384,
          "midi": 89,
          "name": "F6",
          "ticks": 178176,
          "time": 146.526096,
          "velocity": 0.3937007874015748
        },
        {
          "duration": 0.1578944999999976,
          "durationTicks": 192,
          "midi": 84,
          "name": "C6",
          "ticks": 178560,
          "time": 146.841885,
          "velocity": 0.3937007874015748
        },
        {
          "duration": 0.1578944999999976,
          "durationTicks": 192,
          "midi": 87,
          "name": "D#6",
          "ticks": 178752,
          "time": 146.9997795,
          "velocity": 0.3937007874015748
        },
        {
          "duration": 0.1578944999999976,
          "durationTicks": 192,
          "midi": 89,
          "name": "F6",
          "ticks": 178944,
          "time": 147.157674,
          "velocity": 0.3937007874015748
        },
        {
          "duration": 0.15789450000002603,
          "durationTicks": 192,
          "midi": 84,
          "name": "C6",
          "ticks": 179328,
          "time": 147.47346299999998,
          "velocity": 0.3937007874015748
        },
        {
          "duration": 0.1578944999999976,
          "durationTicks": 192,
          "midi": 82,
          "name": "A#5",
          "ticks": 179712,
          "time": 147.789252,
          "velocity": 0.3937007874015748
        },
        {
          "duration": 0.1578944999999976,
          "durationTicks": 192,
          "midi": 82,
          "name": "A#5",
          "ticks": 180096,
          "time": 148.105041,
          "velocity": 0.3937007874015748
        },
        {
          "duration": 0.1578944999999976,
          "durationTicks": 192,
          "midi": 84,
          "name": "C6",
          "ticks": 180288,
          "time": 148.2629355,
          "velocity": 0.3937007874015748
        },
        {
          "duration": 0.1578944999999976,
          "durationTicks": 192,
          "midi": 82,
          "name": "A#5",
          "ticks": 180480,
          "time": 148.42083,
          "velocity": 0.3937007874015748
        },
        {
          "duration": 0.1578944999999976,
          "durationTicks": 192,
          "midi": 80,
          "name": "G#5",
          "ticks": 180864,
          "time": 148.736619,
          "velocity": 0.3937007874015748
        },
        {
          "duration": 0.1578944999999976,
          "durationTicks": 192,
          "midi": 77,
          "name": "F5",
          "ticks": 181248,
          "time": 149.05240799999999,
          "velocity": 0.3937007874015748
        },
        {
          "duration": 0.1578944999999976,
          "durationTicks": 192,
          "midi": 80,
          "name": "G#5",
          "ticks": 181440,
          "time": 149.21030249999998,
          "velocity": 0.3937007874015748
        },
        {
          "duration": 0.15789450000002603,
          "durationTicks": 192,
          "midi": 82,
          "name": "A#5",
          "ticks": 181632,
          "time": 149.36819699999998,
          "velocity": 0.3937007874015748
        },
        {
          "duration": 0.1578944999999976,
          "durationTicks": 192,
          "midi": 84,
          "name": "C6",
          "ticks": 181824,
          "time": 149.5260915,
          "velocity": 0.3937007874015748
        },
        {
          "duration": 0.1578944999999976,
          "durationTicks": 192,
          "midi": 87,
          "name": "D#6",
          "ticks": 182016,
          "time": 149.683986,
          "velocity": 0.3937007874015748
        },
        {
          "duration": 0.1578944999999976,
          "durationTicks": 192,
          "midi": 84,
          "name": "C6",
          "ticks": 182208,
          "time": 149.8418805,
          "velocity": 0.3937007874015748
        },
        {
          "duration": 0.1578944999999976,
          "durationTicks": 192,
          "midi": 82,
          "name": "A#5",
          "ticks": 182400,
          "time": 149.999775,
          "velocity": 0.3937007874015748
        },
        {
          "duration": 0.1578944999999976,
          "durationTicks": 192,
          "midi": 80,
          "name": "G#5",
          "ticks": 182592,
          "time": 150.1576695,
          "velocity": 0.3937007874015748
        },
        {
          "duration": 0.0789472499999988,
          "durationTicks": 96,
          "midi": 82,
          "name": "A#5",
          "ticks": 182784,
          "time": 150.315564,
          "velocity": 0.3937007874015748
        },
        {
          "duration": 0.0789472499999988,
          "durationTicks": 96,
          "midi": 79,
          "name": "G5",
          "ticks": 182880,
          "time": 150.39451125,
          "velocity": 0.3937007874015748
        },
        {
          "duration": 0.0789472499999988,
          "durationTicks": 96,
          "midi": 77,
          "name": "F5",
          "ticks": 182976,
          "time": 150.4734585,
          "velocity": 0.3937007874015748
        },
        {
          "duration": 0.0789472499999988,
          "durationTicks": 96,
          "midi": 75,
          "name": "D#5",
          "ticks": 183072,
          "time": 150.55240575,
          "velocity": 0.3937007874015748
        },
        {
          "duration": 0.0789472499999988,
          "durationTicks": 96,
          "midi": 82,
          "name": "A#5",
          "ticks": 183168,
          "time": 150.631353,
          "velocity": 0.3937007874015748
        },
        {
          "duration": 0.0789472499999988,
          "durationTicks": 96,
          "midi": 79,
          "name": "G5",
          "ticks": 183264,
          "time": 150.71030025,
          "velocity": 0.3937007874015748
        },
        {
          "duration": 0.0789472499999988,
          "durationTicks": 96,
          "midi": 77,
          "name": "F5",
          "ticks": 183360,
          "time": 150.7892475,
          "velocity": 0.3937007874015748
        },
        {
          "duration": 0.0789472499999988,
          "durationTicks": 96,
          "midi": 75,
          "name": "D#5",
          "ticks": 183456,
          "time": 150.86819475,
          "velocity": 0.3937007874015748
        },
        {
          "duration": 0.0789472499999988,
          "durationTicks": 96,
          "midi": 84,
          "name": "C6",
          "ticks": 183552,
          "time": 150.94714199999999,
          "velocity": 0.3937007874015748
        },
        {
          "duration": 0.0789472499999988,
          "durationTicks": 96,
          "midi": 80,
          "name": "G#5",
          "ticks": 183648,
          "time": 151.02608924999998,
          "velocity": 0.3937007874015748
        },
        {
          "duration": 0.0789472499999988,
          "durationTicks": 96,
          "midi": 76,
          "name": "E5",
          "ticks": 183744,
          "time": 151.10503649999998,
          "velocity": 0.3937007874015748
        },
        {
          "duration": 0.0789472499999988,
          "durationTicks": 96,
          "midi": 72,
          "name": "C5",
          "ticks": 183840,
          "time": 151.18398374999998,
          "velocity": 0.3937007874015748
        },
        {
          "duration": 0.0789472499999988,
          "durationTicks": 96,
          "midi": 84,
          "name": "C6",
          "ticks": 183936,
          "time": 151.26293099999998,
          "velocity": 0.3937007874015748
        },
        {
          "duration": 0.07894725000002722,
          "durationTicks": 96,
          "midi": 80,
          "name": "G#5",
          "ticks": 184032,
          "time": 151.34187824999998,
          "velocity": 0.3937007874015748
        },
        {
          "duration": 0.0789472499999988,
          "durationTicks": 96,
          "midi": 76,
          "name": "E5",
          "ticks": 184128,
          "time": 151.4208255,
          "velocity": 0.3937007874015748
        },
        {
          "duration": 0.0789472499999988,
          "durationTicks": 96,
          "midi": 72,
          "name": "C5",
          "ticks": 184224,
          "time": 151.49977275,
          "velocity": 0.3937007874015748
        }
      ],
      "endOfTrackTicks": 184320
    },
    {
      "channel": 9,
      "controlChanges": {},
      "pitchBends": [],
      "instrument": {
        "family": "drums",
        "number": 0,
        "name": "standard kit"
      },
      "name": "Drum Kit",
      "notes": [
        {
          "duration": 0.15789450000000116,
          "durationTicks": 192,
          "midi": 53,
          "name": "F3",
          "ticks": 24576,
          "time": 20.210496,
          "velocity": 0.3937007874015748
        },
        {
          "duration": 0.15789450000000116,
          "durationTicks": 192,
          "midi": 35,
          "name": "B1",
          "ticks": 24576,
          "time": 20.210496,
          "velocity": 0.3937007874015748
        },
        {
          "duration": 0.1578944999999976,
          "durationTicks": 192,
          "midi": 35,
          "name": "B1",
          "ticks": 24768,
          "time": 20.3683905,
          "velocity": 0.3937007874015748
        },
        {
          "duration": 0.1578944999999976,
          "durationTicks": 192,
          "midi": 53,
          "name": "F3",
          "ticks": 24768,
          "time": 20.3683905,
          "velocity": 0.3937007874015748
        },
        {
          "duration": 0.15789450000000116,
          "durationTicks": 192,
          "midi": 51,
          "name": "D#3",
          "ticks": 24960,
          "time": 20.526284999999998,
          "velocity": 0.3937007874015748
        },
        {
          "duration": 0.3157890000000023,
          "durationTicks": 384,
          "midi": 38,
          "name": "D2",
          "ticks": 24960,
          "time": 20.526284999999998,
          "velocity": 0.3937007874015748
        },
        {
          "duration": 0.15789450000000116,
          "durationTicks": 192,
          "midi": 53,
          "name": "F3",
          "ticks": 25152,
          "time": 20.6841795,
          "velocity": 0.3937007874015748
        },
        {
          "duration": 0.1578944999999976,
          "durationTicks": 192,
          "midi": 35,
          "name": "B1",
          "ticks": 25344,
          "time": 20.842074,
          "velocity": 0.3937007874015748
        },
        {
          "duration": 0.1578944999999976,
          "durationTicks": 192,
          "midi": 53,
          "name": "F3",
          "ticks": 25344,
          "time": 20.842074,
          "velocity": 0.3937007874015748
        },
        {
          "duration": 0.15789450000000116,
          "durationTicks": 192,
          "midi": 35,
          "name": "B1",
          "ticks": 25536,
          "time": 20.999968499999998,
          "velocity": 0.3937007874015748
        },
        {
          "duration": 0.15789450000000116,
          "durationTicks": 192,
          "midi": 53,
          "name": "F3",
          "ticks": 25536,
          "time": 20.999968499999998,
          "velocity": 0.3937007874015748
        },
        {
          "duration": 0.31578899999999877,
          "durationTicks": 384,
          "midi": 38,
          "name": "D2",
          "ticks": 25728,
          "time": 21.157863,
          "velocity": 0.3937007874015748
        },
        {
          "duration": 0.15789450000000116,
          "durationTicks": 192,
          "midi": 51,
          "name": "D#3",
          "ticks": 25728,
          "time": 21.157863,
          "velocity": 0.3937007874015748
        },
        {
          "duration": 0.1578944999999976,
          "durationTicks": 192,
          "midi": 53,
          "name": "F3",
          "ticks": 25920,
          "time": 21.3157575,
          "velocity": 0.3937007874015748
        },
        {
          "duration": 0.15789450000000116,
          "durationTicks": 192,
          "midi": 53,
          "name": "F3",
          "ticks": 26112,
          "time": 21.473651999999998,
          "velocity": 0.3937007874015748
        },
        {
          "duration": 0.15789450000000116,
          "durationTicks": 192,
          "midi": 35,
          "name": "B1",
          "ticks": 26112,
          "time": 21.473651999999998,
          "velocity": 0.3937007874015748
        },
        {
          "duration": 0.15789450000000116,
          "durationTicks": 192,
          "midi": 35,
          "name": "B1",
          "ticks": 26304,
          "time": 21.6315465,
          "velocity": 0.3937007874015748
        },
        {
          "duration": 0.15789450000000116,
          "durationTicks": 192,
          "midi": 53,
          "name": "F3",
          "ticks": 26304,
          "time": 21.6315465,
          "velocity": 0.3937007874015748
        },
        {
          "duration": 0.31578899999999877,
          "durationTicks": 384,
          "midi": 38,
          "name": "D2",
          "ticks": 26496,
          "time": 21.789441,
          "velocity": 0.3937007874015748
        },
        {
          "duration": 0.1578944999999976,
          "durationTicks": 192,
          "midi": 51,
          "name": "D#3",
          "ticks": 26496,
          "time": 21.789441,
          "velocity": 0.3937007874015748
        },
        {
          "duration": 0.15789450000000116,
          "durationTicks": 192,
          "midi": 53,
          "name": "F3",
          "ticks": 26688,
          "time": 21.947335499999998,
          "velocity": 0.3937007874015748
        },
        {
          "duration": 0.15789450000000116,
          "durationTicks": 192,
          "midi": 35,
          "name": "B1",
          "ticks": 26880,
          "time": 22.10523,
          "velocity": 0.3937007874015748
        },
        {
          "duration": 0.15789450000000116,
          "durationTicks": 192,
          "midi": 53,
          "name": "F3",
          "ticks": 26880,
          "time": 22.10523,
          "velocity": 0.3937007874015748
        },
        {
          "duration": 0.1578944999999976,
          "durationTicks": 192,
          "midi": 53,
          "name": "F3",
          "ticks": 27072,
          "time": 22.2631245,
          "velocity": 0.3937007874015748
        },
        {
          "duration": 0.1578944999999976,
          "durationTicks": 192,
          "midi": 35,
          "name": "B1",
          "ticks": 27072,
          "time": 22.2631245,
          "velocity": 0.3937007874015748
        },
        {
          "duration": 0.3157890000000023,
          "durationTicks": 384,
          "midi": 38,
          "name": "D2",
          "ticks": 27264,
          "time": 22.421018999999998,
          "velocity": 0.3937007874015748
        },
        {
          "duration": 0.15789450000000116,
          "durationTicks": 192,
          "midi": 51,
          "name": "D#3",
          "ticks": 27264,
          "time": 22.421018999999998,
          "velocity": 0.3937007874015748
        },
        {
          "duration": 0.15789450000000116,
          "durationTicks": 192,
          "midi": 53,
          "name": "F3",
          "ticks": 27456,
          "time": 22.5789135,
          "velocity": 0.3937007874015748
        },
        {
          "duration": 0.1578944999999976,
          "durationTicks": 192,
          "midi": 35,
          "name": "B1",
          "ticks": 27648,
          "time": 22.736808,
          "velocity": 0.3937007874015748
        },
        {
          "duration": 0.1578944999999976,
          "durationTicks": 192,
          "midi": 53,
          "name": "F3",
          "ticks": 27648,
          "time": 22.736808,
          "velocity": 0.3937007874015748
        },
        {
          "duration": 0.15789450000000116,
          "durationTicks": 192,
          "midi": 35,
          "name": "B1",
          "ticks": 27840,
          "time": 22.894702499999998,
          "velocity": 0.3937007874015748
        },
        {
          "duration": 0.15789450000000116,
          "durationTicks": 192,
          "midi": 53,
          "name": "F3",
          "ticks": 27840,
          "time": 22.894702499999998,
          "velocity": 0.3937007874015748
        },
        {
          "duration": 0.31578899999999877,
          "durationTicks": 384,
          "midi": 38,
          "name": "D2",
          "ticks": 28032,
          "time": 23.052597,
          "velocity": 0.3937007874015748
        },
        {
          "duration": 0.15789450000000116,
          "durationTicks": 192,
          "midi": 51,
          "name": "D#3",
          "ticks": 28032,
          "time": 23.052597,
          "velocity": 0.3937007874015748
        },
        {
          "duration": 0.1578944999999976,
          "durationTicks": 192,
          "midi": 53,
          "name": "F3",
          "ticks": 28224,
          "time": 23.2104915,
          "velocity": 0.3937007874015748
        },
        {
          "duration": 0.15789450000000116,
          "durationTicks": 192,
          "midi": 53,
          "name": "F3",
          "ticks": 28416,
          "time": 23.368385999999997,
          "velocity": 0.3937007874015748
        },
        {
          "duration": 0.15789450000000116,
          "durationTicks": 192,
          "midi": 35,
          "name": "B1",
          "ticks": 28416,
          "time": 23.368385999999997,
          "velocity": 0.3937007874015748
        },
        {
          "duration": 0.15789450000000116,
          "durationTicks": 192,
          "midi": 53,
          "name": "F3",
          "ticks": 28608,
          "time": 23.5262805,
          "velocity": 0.3937007874015748
        },
        {
          "duration": 0.15789450000000116,
          "durationTicks": 192,
          "midi": 35,
          "name": "B1",
          "ticks": 28608,
          "time": 23.5262805,
          "velocity": 0.3937007874015748
        },
        {
          "duration": 0.1578944999999976,
          "durationTicks": 192,
          "midi": 51,
          "name": "D#3",
          "ticks": 28800,
          "time": 23.684175,
          "velocity": 0.3937007874015748
        },
        {
          "duration": 0.31578899999999877,
          "durationTicks": 384,
          "midi": 38,
          "name": "D2",
          "ticks": 28800,
          "time": 23.684175,
          "velocity": 0.3937007874015748
        },
        {
          "duration": 0.15789450000000116,
          "durationTicks": 192,
          "midi": 53,
          "name": "F3",
          "ticks": 28992,
          "time": 23.842069499999997,
          "velocity": 0.3937007874015748
        },
        {
          "duration": 0.15789450000000116,
          "durationTicks": 192,
          "midi": 35,
          "name": "B1",
          "ticks": 29184,
          "time": 23.999964,
          "velocity": 0.3937007874015748
        },
        {
          "duration": 0.15789450000000116,
          "durationTicks": 192,
          "midi": 53,
          "name": "F3",
          "ticks": 29184,
          "time": 23.999964,
          "velocity": 0.3937007874015748
        },
        {
          "duration": 0.1578944999999976,
          "durationTicks": 192,
          "midi": 35,
          "name": "B1",
          "ticks": 29376,
          "time": 24.1578585,
          "velocity": 0.3937007874015748
        },
        {
          "duration": 0.1578944999999976,
          "durationTicks": 192,
          "midi": 53,
          "name": "F3",
          "ticks": 29376,
          "time": 24.1578585,
          "velocity": 0.3937007874015748
        },
        {
          "duration": 0.15789450000000116,
          "durationTicks": 192,
          "midi": 51,
          "name": "D#3",
          "ticks": 29568,
          "time": 24.315752999999997,
          "velocity": 0.3937007874015748
        },
        {
          "duration": 0.3157890000000023,
          "durationTicks": 384,
          "midi": 38,
          "name": "D2",
          "ticks": 29568,
          "time": 24.315752999999997,
          "velocity": 0.3937007874015748
        },
        {
          "duration": 0.15789450000000116,
          "durationTicks": 192,
          "midi": 53,
          "name": "F3",
          "ticks": 29760,
          "time": 24.4736475,
          "velocity": 0.3937007874015748
        },
        {
          "duration": 0.1578944999999976,
          "durationTicks": 192,
          "midi": 53,
          "name": "F3",
          "ticks": 29952,
          "time": 24.631542,
          "velocity": 0.3937007874015748
        },
        {
          "duration": 0.1578944999999976,
          "durationTicks": 192,
          "midi": 35,
          "name": "B1",
          "ticks": 29952,
          "time": 24.631542,
          "velocity": 0.3937007874015748
        },
        {
          "duration": 0.15789450000000116,
          "durationTicks": 192,
          "midi": 35,
          "name": "B1",
          "ticks": 30144,
          "time": 24.789436499999997,
          "velocity": 0.3937007874015748
        },
        {
          "duration": 0.15789450000000116,
          "durationTicks": 192,
          "midi": 53,
          "name": "F3",
          "ticks": 30144,
          "time": 24.789436499999997,
          "velocity": 0.3937007874015748
        },
        {
          "duration": 0.3157890000000023,
          "durationTicks": 384,
          "midi": 38,
          "name": "D2",
          "ticks": 30336,
          "time": 24.947331,
          "velocity": 0.3937007874015748
        },
        {
          "duration": 0.15789450000000116,
          "durationTicks": 192,
          "midi": 51,
          "name": "D#3",
          "ticks": 30336,
          "time": 24.947331,
          "velocity": 0.3937007874015748
        },
        {
          "duration": 0.15789450000000116,
          "durationTicks": 192,
          "midi": 53,
          "name": "F3",
          "ticks": 30528,
          "time": 25.1052255,
          "velocity": 0.3937007874015748
        },
        {
          "duration": 0.1578944999999976,
          "durationTicks": 192,
          "midi": 35,
          "name": "B1",
          "ticks": 30720,
          "time": 25.26312,
          "velocity": 0.3937007874015748
        },
        {
          "duration": 0.1578944999999976,
          "durationTicks": 192,
          "midi": 53,
          "name": "F3",
          "ticks": 30720,
          "time": 25.26312,
          "velocity": 0.3937007874015748
        },
        {
          "duration": 0.15789450000000116,
          "durationTicks": 192,
          "midi": 53,
          "name": "F3",
          "ticks": 30912,
          "time": 25.4210145,
          "velocity": 0.3937007874015748
        },
        {
          "duration": 0.15789450000000116,
          "durationTicks": 192,
          "midi": 35,
          "name": "B1",
          "ticks": 30912,
          "time": 25.4210145,
          "velocity": 0.3937007874015748
        },
        {
          "duration": 0.15789450000000116,
          "durationTicks": 192,
          "midi": 51,
          "name": "D#3",
          "ticks": 31104,
          "time": 25.578909,
          "velocity": 0.3937007874015748
        },
        {
          "duration": 0.31578899999999877,
          "durationTicks": 384,
          "midi": 38,
          "name": "D2",
          "ticks": 31104,
          "time": 25.578909,
          "velocity": 0.3937007874015748
        },
        {
          "duration": 0.1578944999999976,
          "durationTicks": 192,
          "midi": 53,
          "name": "F3",
          "ticks": 31296,
          "time": 25.7368035,
          "velocity": 0.3937007874015748
        },
        {
          "duration": 0.15789450000000116,
          "durationTicks": 192,
          "midi": 35,
          "name": "B1",
          "ticks": 31488,
          "time": 25.894697999999998,
          "velocity": 0.3937007874015748
        },
        {
          "duration": 0.15789450000000116,
          "durationTicks": 192,
          "midi": 53,
          "name": "F3",
          "ticks": 31488,
          "time": 25.894697999999998,
          "velocity": 0.3937007874015748
        },
        {
          "duration": 0.15789450000000116,
          "durationTicks": 192,
          "midi": 53,
          "name": "F3",
          "ticks": 31680,
          "time": 26.0525925,
          "velocity": 0.3937007874015748
        },
        {
          "duration": 0.15789450000000116,
          "durationTicks": 192,
          "midi": 35,
          "name": "B1",
          "ticks": 31680,
          "time": 26.0525925,
          "velocity": 0.3937007874015748
        },
        {
          "duration": 0.31578899999999877,
          "durationTicks": 384,
          "midi": 38,
          "name": "D2",
          "ticks": 31872,
          "time": 26.210487,
          "velocity": 0.3937007874015748
        },
        {
          "duration": 0.1578944999999976,
          "durationTicks": 192,
          "midi": 51,
          "name": "D#3",
          "ticks": 31872,
          "time": 26.210487,
          "velocity": 0.3937007874015748
        },
        {
          "duration": 0.15789450000000116,
          "durationTicks": 192,
          "midi": 53,
          "name": "F3",
          "ticks": 32064,
          "time": 26.368381499999998,
          "velocity": 0.3937007874015748
        },
        {
          "duration": 0.15789450000000116,
          "durationTicks": 192,
          "midi": 53,
          "name": "F3",
          "ticks": 32256,
          "time": 26.526276,
          "velocity": 0.3937007874015748
        },
        {
          "duration": 0.15789450000000116,
          "durationTicks": 192,
          "midi": 35,
          "name": "B1",
          "ticks": 32256,
          "time": 26.526276,
          "velocity": 0.3937007874015748
        },
        {
          "duration": 0.1578944999999976,
          "durationTicks": 192,
          "midi": 35,
          "name": "B1",
          "ticks": 32448,
          "time": 26.6841705,
          "velocity": 0.3937007874015748
        },
        {
          "duration": 0.1578944999999976,
          "durationTicks": 192,
          "midi": 53,
          "name": "F3",
          "ticks": 32448,
          "time": 26.6841705,
          "velocity": 0.3937007874015748
        },
        {
          "duration": 0.3157890000000023,
          "durationTicks": 384,
          "midi": 38,
          "name": "D2",
          "ticks": 32640,
          "time": 26.842064999999998,
          "velocity": 0.3937007874015748
        },
        {
          "duration": 0.15789450000000116,
          "durationTicks": 192,
          "midi": 51,
          "name": "D#3",
          "ticks": 32640,
          "time": 26.842064999999998,
          "velocity": 0.3937007874015748
        },
        {
          "duration": 0.15789450000000116,
          "durationTicks": 192,
          "midi": 53,
          "name": "F3",
          "ticks": 32832,
          "time": 26.9999595,
          "velocity": 0.3937007874015748
        },
        {
          "duration": 0.1578944999999976,
          "durationTicks": 192,
          "midi": 35,
          "name": "B1",
          "ticks": 33024,
          "time": 27.157854,
          "velocity": 0.3937007874015748
        },
        {
          "duration": 0.1578944999999976,
          "durationTicks": 192,
          "midi": 53,
          "name": "F3",
          "ticks": 33024,
          "time": 27.157854,
          "velocity": 0.3937007874015748
        },
        {
          "duration": 0.15789450000000116,
          "durationTicks": 192,
          "midi": 53,
          "name": "F3",
          "ticks": 33216,
          "time": 27.315748499999998,
          "velocity": 0.3937007874015748
        },
        {
          "duration": 0.15789450000000116,
          "durationTicks": 192,
          "midi": 35,
          "name": "B1",
          "ticks": 33216,
          "time": 27.315748499999998,
          "velocity": 0.3937007874015748
        },
        {
          "duration": 0.31578899999999877,
          "durationTicks": 384,
          "midi": 38,
          "name": "D2",
          "ticks": 33408,
          "time": 27.473643,
          "velocity": 0.3937007874015748
        },
        {
          "duration": 0.15789450000000116,
          "durationTicks": 192,
          "midi": 51,
          "name": "D#3",
          "ticks": 33408,
          "time": 27.473643,
          "velocity": 0.3937007874015748
        },
        {
          "duration": 0.1578944999999976,
          "durationTicks": 192,
          "midi": 53,
          "name": "F3",
          "ticks": 33600,
          "time": 27.6315375,
          "velocity": 0.3937007874015748
        },
        {
          "duration": 0.15789450000000116,
          "durationTicks": 192,
          "midi": 53,
          "name": "F3",
          "ticks": 33792,
          "time": 27.789431999999998,
          "velocity": 0.3937007874015748
        },
        {
          "duration": 0.15789450000000116,
          "durationTicks": 192,
          "midi": 35,
          "name": "B1",
          "ticks": 33792,
          "time": 27.789431999999998,
          "velocity": 0.3937007874015748
        },
        {
          "duration": 0.15789450000000116,
          "durationTicks": 192,
          "midi": 53,
          "name": "F3",
          "ticks": 33984,
          "time": 27.9473265,
          "velocity": 0.3937007874015748
        },
        {
          "duration": 0.15789450000000116,
          "durationTicks": 192,
          "midi": 35,
          "name": "B1",
          "ticks": 33984,
          "time": 27.9473265,
          "velocity": 0.3937007874015748
        },
        {
          "duration": 0.1578944999999976,
          "durationTicks": 192,
          "midi": 51,
          "name": "D#3",
          "ticks": 34176,
          "time": 28.105221,
          "velocity": 0.3937007874015748
        },
        {
          "duration": 0.31578899999999877,
          "durationTicks": 384,
          "midi": 38,
          "name": "D2",
          "ticks": 34176,
          "time": 28.105221,
          "velocity": 0.3937007874015748
        },
        {
          "duration": 0.15789450000000116,
          "durationTicks": 192,
          "midi": 53,
          "name": "F3",
          "ticks": 34368,
          "time": 28.263115499999998,
          "velocity": 0.3937007874015748
        },
        {
          "duration": 0.15789450000000116,
          "durationTicks": 192,
          "midi": 35,
          "name": "B1",
          "ticks": 34560,
          "time": 28.42101,
          "velocity": 0.3937007874015748
        },
        {
          "duration": 0.15789450000000116,
          "durationTicks": 192,
          "midi": 53,
          "name": "F3",
          "ticks": 34560,
          "time": 28.42101,
          "velocity": 0.3937007874015748
        },
        {
          "duration": 0.1578944999999976,
          "durationTicks": 192,
          "midi": 35,
          "name": "B1",
          "ticks": 34752,
          "time": 28.5789045,
          "velocity": 0.3937007874015748
        },
        {
          "duration": 0.1578944999999976,
          "durationTicks": 192,
          "midi": 53,
          "name": "F3",
          "ticks": 34752,
          "time": 28.5789045,
          "velocity": 0.3937007874015748
        },
        {
          "duration": 0.3157890000000023,
          "durationTicks": 384,
          "midi": 38,
          "name": "D2",
          "ticks": 34944,
          "time": 28.736798999999998,
          "velocity": 0.3937007874015748
        },
        {
          "duration": 0.15789450000000116,
          "durationTicks": 192,
          "midi": 51,
          "name": "D#3",
          "ticks": 34944,
          "time": 28.736798999999998,
          "velocity": 0.3937007874015748
        },
        {
          "duration": 0.15789450000000116,
          "durationTicks": 192,
          "midi": 53,
          "name": "F3",
          "ticks": 35136,
          "time": 28.8946935,
          "velocity": 0.3937007874015748
        },
        {
          "duration": 0.1578944999999976,
          "durationTicks": 192,
          "midi": 35,
          "name": "B1",
          "ticks": 35328,
          "time": 29.052588,
          "velocity": 0.3937007874015748
        },
        {
          "duration": 0.1578944999999976,
          "durationTicks": 192,
          "midi": 53,
          "name": "F3",
          "ticks": 35328,
          "time": 29.052588,
          "velocity": 0.3937007874015748
        },
        {
          "duration": 0.15789450000000116,
          "durationTicks": 192,
          "midi": 53,
          "name": "F3",
          "ticks": 35520,
          "time": 29.210482499999998,
          "velocity": 0.3937007874015748
        },
        {
          "duration": 0.15789450000000116,
          "durationTicks": 192,
          "midi": 35,
          "name": "B1",
          "ticks": 35520,
          "time": 29.210482499999998,
          "velocity": 0.3937007874015748
        },
        {
          "duration": 0.31578899999999877,
          "durationTicks": 384,
          "midi": 38,
          "name": "D2",
          "ticks": 35712,
          "time": 29.368377,
          "velocity": 0.3937007874015748
        },
        {
          "duration": 0.15789450000000116,
          "durationTicks": 192,
          "midi": 51,
          "name": "D#3",
          "ticks": 35712,
          "time": 29.368377,
          "velocity": 0.3937007874015748
        },
        {
          "duration": 0.1578944999999976,
          "durationTicks": 192,
          "midi": 53,
          "name": "F3",
          "ticks": 35904,
          "time": 29.5262715,
          "velocity": 0.3937007874015748
        },
        {
          "duration": 0.15789450000000116,
          "durationTicks": 192,
          "midi": 53,
          "name": "F3",
          "ticks": 36096,
          "time": 29.684165999999998,
          "velocity": 0.3937007874015748
        },
        {
          "duration": 0.15789450000000116,
          "durationTicks": 192,
          "midi": 35,
          "name": "B1",
          "ticks": 36096,
          "time": 29.684165999999998,
          "velocity": 0.3937007874015748
        },
        {
          "duration": 0.15789450000000116,
          "durationTicks": 192,
          "midi": 35,
          "name": "B1",
          "ticks": 36288,
          "time": 29.8420605,
          "velocity": 0.3937007874015748
        },
        {
          "duration": 0.15789450000000116,
          "durationTicks": 192,
          "midi": 53,
          "name": "F3",
          "ticks": 36288,
          "time": 29.8420605,
          "velocity": 0.3937007874015748
        },
        {
          "duration": 0.1578944999999976,
          "durationTicks": 192,
          "midi": 51,
          "name": "D#3",
          "ticks": 36480,
          "time": 29.999955,
          "velocity": 0.3937007874015748
        },
        {
          "duration": 0.31578899999999877,
          "durationTicks": 384,
          "midi": 38,
          "name": "D2",
          "ticks": 36480,
          "time": 29.999955,
          "velocity": 0.3937007874015748
        },
        {
          "duration": 0.15789450000000116,
          "durationTicks": 192,
          "midi": 53,
          "name": "F3",
          "ticks": 36672,
          "time": 30.157849499999998,
          "velocity": 0.3937007874015748
        },
        {
          "duration": 0.15789450000000116,
          "durationTicks": 192,
          "midi": 53,
          "name": "F3",
          "ticks": 36864,
          "time": 30.315744,
          "velocity": 0.3937007874015748
        },
        {
          "duration": 0.15789450000000116,
          "durationTicks": 192,
          "midi": 35,
          "name": "B1",
          "ticks": 36864,
          "time": 30.315744,
          "velocity": 0.3937007874015748
        },
        {
          "duration": 0.1578944999999976,
          "durationTicks": 192,
          "midi": 53,
          "name": "F3",
          "ticks": 37056,
          "time": 30.4736385,
          "velocity": 0.3937007874015748
        },
        {
          "duration": 0.1578944999999976,
          "durationTicks": 192,
          "midi": 35,
          "name": "B1",
          "ticks": 37056,
          "time": 30.4736385,
          "velocity": 0.3937007874015748
        },
        {
          "duration": 0.15789450000000116,
          "durationTicks": 192,
          "midi": 51,
          "name": "D#3",
          "ticks": 37248,
          "time": 30.631532999999997,
          "velocity": 0.3937007874015748
        },
        {
          "duration": 0.3157890000000023,
          "durationTicks": 384,
          "midi": 38,
          "name": "D2",
          "ticks": 37248,
          "time": 30.631532999999997,
          "velocity": 0.3937007874015748
        },
        {
          "duration": 0.15789450000000116,
          "durationTicks": 192,
          "midi": 53,
          "name": "F3",
          "ticks": 37440,
          "time": 30.7894275,
          "velocity": 0.3937007874015748
        },
        {
          "duration": 0.1578944999999976,
          "durationTicks": 192,
          "midi": 53,
          "name": "F3",
          "ticks": 37632,
          "time": 30.947322,
          "velocity": 0.3937007874015748
        },
        {
          "duration": 0.1578944999999976,
          "durationTicks": 192,
          "midi": 35,
          "name": "B1",
          "ticks": 37632,
          "time": 30.947322,
          "velocity": 0.3937007874015748
        },
        {
          "duration": 0.15789450000000116,
          "durationTicks": 192,
          "midi": 53,
          "name": "F3",
          "ticks": 37824,
          "time": 31.105216499999997,
          "velocity": 0.3937007874015748
        },
        {
          "duration": 0.15789450000000116,
          "durationTicks": 192,
          "midi": 35,
          "name": "B1",
          "ticks": 37824,
          "time": 31.105216499999997,
          "velocity": 0.3937007874015748
        },
        {
          "duration": 0.31578899999999877,
          "durationTicks": 384,
          "midi": 38,
          "name": "D2",
          "ticks": 38016,
          "time": 31.263111,
          "velocity": 0.3937007874015748
        },
        {
          "duration": 0.15789450000000116,
          "durationTicks": 192,
          "midi": 51,
          "name": "D#3",
          "ticks": 38016,
          "time": 31.263111,
          "velocity": 0.3937007874015748
        },
        {
          "duration": 0.1578944999999976,
          "durationTicks": 192,
          "midi": 53,
          "name": "F3",
          "ticks": 38208,
          "time": 31.4210055,
          "velocity": 0.3937007874015748
        },
        {
          "duration": 0.15789450000000116,
          "durationTicks": 192,
          "midi": 35,
          "name": "B1",
          "ticks": 38400,
          "time": 31.578899999999997,
          "velocity": 0.3937007874015748
        },
        {
          "duration": 0.15789450000000116,
          "durationTicks": 192,
          "midi": 53,
          "name": "F3",
          "ticks": 38400,
          "time": 31.578899999999997,
          "velocity": 0.3937007874015748
        },
        {
          "duration": 0.15789450000000116,
          "durationTicks": 192,
          "midi": 35,
          "name": "B1",
          "ticks": 38592,
          "time": 31.7367945,
          "velocity": 0.3937007874015748
        },
        {
          "duration": 0.15789450000000116,
          "durationTicks": 192,
          "midi": 53,
          "name": "F3",
          "ticks": 38592,
          "time": 31.7367945,
          "velocity": 0.3937007874015748
        },
        {
          "duration": 0.3157890000000023,
          "durationTicks": 384,
          "midi": 38,
          "name": "D2",
          "ticks": 38784,
          "time": 31.894689,
          "velocity": 0.3937007874015748
        },
        {
          "duration": 0.1578944999999976,
          "durationTicks": 192,
          "midi": 51,
          "name": "D#3",
          "ticks": 38784,
          "time": 31.894689,
          "velocity": 0.3937007874015748
        },
        {
          "duration": 0.1578945000000047,
          "durationTicks": 192,
          "midi": 53,
          "name": "F3",
          "ticks": 38976,
          "time": 32.0525835,
          "velocity": 0.3937007874015748
        },
        {
          "duration": 0.1578944999999976,
          "durationTicks": 192,
          "midi": 53,
          "name": "F3",
          "ticks": 39168,
          "time": 32.210478,
          "velocity": 0.3937007874015748
        },
        {
          "duration": 0.1578944999999976,
          "durationTicks": 192,
          "midi": 35,
          "name": "B1",
          "ticks": 39168,
          "time": 32.210478,
          "velocity": 0.3937007874015748
        },
        {
          "duration": 0.1578944999999976,
          "durationTicks": 192,
          "midi": 35,
          "name": "B1",
          "ticks": 39360,
          "time": 32.3683725,
          "velocity": 0.3937007874015748
        },
        {
          "duration": 0.1578944999999976,
          "durationTicks": 192,
          "midi": 53,
          "name": "F3",
          "ticks": 39360,
          "time": 32.3683725,
          "velocity": 0.3937007874015748
        },
        {
          "duration": 0.1578945000000047,
          "durationTicks": 192,
          "midi": 51,
          "name": "D#3",
          "ticks": 39552,
          "time": 32.526267,
          "velocity": 0.3937007874015748
        },
        {
          "duration": 0.3157890000000023,
          "durationTicks": 384,
          "midi": 38,
          "name": "D2",
          "ticks": 39552,
          "time": 32.526267,
          "velocity": 0.3937007874015748
        },
        {
          "duration": 0.1578944999999976,
          "durationTicks": 192,
          "midi": 53,
          "name": "F3",
          "ticks": 39744,
          "time": 32.6841615,
          "velocity": 0.3937007874015748
        },
        {
          "duration": 0.1578944999999976,
          "durationTicks": 192,
          "midi": 35,
          "name": "B1",
          "ticks": 39936,
          "time": 32.842056,
          "velocity": 0.3937007874015748
        },
        {
          "duration": 0.1578944999999976,
          "durationTicks": 192,
          "midi": 53,
          "name": "F3",
          "ticks": 39936,
          "time": 32.842056,
          "velocity": 0.3937007874015748
        },
        {
          "duration": 0.1578945000000047,
          "durationTicks": 192,
          "midi": 53,
          "name": "F3",
          "ticks": 40128,
          "time": 32.9999505,
          "velocity": 0.3937007874015748
        },
        {
          "duration": 0.1578945000000047,
          "durationTicks": 192,
          "midi": 35,
          "name": "B1",
          "ticks": 40128,
          "time": 32.9999505,
          "velocity": 0.3937007874015748
        },
        {
          "duration": 0.3157889999999952,
          "durationTicks": 384,
          "midi": 38,
          "name": "D2",
          "ticks": 40320,
          "time": 33.157845,
          "velocity": 0.3937007874015748
        },
        {
          "duration": 0.1578944999999976,
          "durationTicks": 192,
          "midi": 51,
          "name": "D#3",
          "ticks": 40320,
          "time": 33.157845,
          "velocity": 0.3937007874015748
        },
        {
          "duration": 0.1578944999999976,
          "durationTicks": 192,
          "midi": 53,
          "name": "F3",
          "ticks": 40512,
          "time": 33.3157395,
          "velocity": 0.3937007874015748
        },
        {
          "duration": 0.1578945000000047,
          "durationTicks": 192,
          "midi": 35,
          "name": "B1",
          "ticks": 40704,
          "time": 33.473634,
          "velocity": 0.3937007874015748
        },
        {
          "duration": 0.1578945000000047,
          "durationTicks": 192,
          "midi": 53,
          "name": "F3",
          "ticks": 40704,
          "time": 33.473634,
          "velocity": 0.3937007874015748
        },
        {
          "duration": 0.1578944999999976,
          "durationTicks": 192,
          "midi": 35,
          "name": "B1",
          "ticks": 40896,
          "time": 33.6315285,
          "velocity": 0.3937007874015748
        },
        {
          "duration": 0.1578944999999976,
          "durationTicks": 192,
          "midi": 53,
          "name": "F3",
          "ticks": 40896,
          "time": 33.6315285,
          "velocity": 0.3937007874015748
        },
        {
          "duration": 0.3157890000000023,
          "durationTicks": 384,
          "midi": 38,
          "name": "D2",
          "ticks": 41088,
          "time": 33.789423,
          "velocity": 0.3937007874015748
        },
        {
          "duration": 0.1578944999999976,
          "durationTicks": 192,
          "midi": 51,
          "name": "D#3",
          "ticks": 41088,
          "time": 33.789423,
          "velocity": 0.3937007874015748
        },
        {
          "duration": 0.1578945000000047,
          "durationTicks": 192,
          "midi": 53,
          "name": "F3",
          "ticks": 41280,
          "time": 33.9473175,
          "velocity": 0.3937007874015748
        },
        {
          "duration": 0.1578944999999976,
          "durationTicks": 192,
          "midi": 53,
          "name": "F3",
          "ticks": 41472,
          "time": 34.105212,
          "velocity": 0.3937007874015748
        },
        {
          "duration": 0.1578944999999976,
          "durationTicks": 192,
          "midi": 35,
          "name": "B1",
          "ticks": 41472,
          "time": 34.105212,
          "velocity": 0.3937007874015748
        },
        {
          "duration": 0.1578944999999976,
          "durationTicks": 192,
          "midi": 53,
          "name": "F3",
          "ticks": 41664,
          "time": 34.2631065,
          "velocity": 0.3937007874015748
        },
        {
          "duration": 0.1578944999999976,
          "durationTicks": 192,
          "midi": 35,
          "name": "B1",
          "ticks": 41664,
          "time": 34.2631065,
          "velocity": 0.3937007874015748
        },
        {
          "duration": 0.1578945000000047,
          "durationTicks": 192,
          "midi": 51,
          "name": "D#3",
          "ticks": 41856,
          "time": 34.421001,
          "velocity": 0.3937007874015748
        },
        {
          "duration": 0.3157890000000023,
          "durationTicks": 384,
          "midi": 38,
          "name": "D2",
          "ticks": 41856,
          "time": 34.421001,
          "velocity": 0.3937007874015748
        },
        {
          "duration": 0.1578944999999976,
          "durationTicks": 192,
          "midi": 53,
          "name": "F3",
          "ticks": 42048,
          "time": 34.5788955,
          "velocity": 0.3937007874015748
        },
        {
          "duration": 0.1578944999999976,
          "durationTicks": 192,
          "midi": 35,
          "name": "B1",
          "ticks": 42240,
          "time": 34.73679,
          "velocity": 0.3937007874015748
        },
        {
          "duration": 0.1578944999999976,
          "durationTicks": 192,
          "midi": 53,
          "name": "F3",
          "ticks": 42240,
          "time": 34.73679,
          "velocity": 0.3937007874015748
        },
        {
          "duration": 0.1578945000000047,
          "durationTicks": 192,
          "midi": 53,
          "name": "F3",
          "ticks": 42432,
          "time": 34.8946845,
          "velocity": 0.3937007874015748
        },
        {
          "duration": 0.1578945000000047,
          "durationTicks": 192,
          "midi": 35,
          "name": "B1",
          "ticks": 42432,
          "time": 34.8946845,
          "velocity": 0.3937007874015748
        },
        {
          "duration": 0.1578944999999976,
          "durationTicks": 192,
          "midi": 51,
          "name": "D#3",
          "ticks": 42624,
          "time": 35.052579,
          "velocity": 0.3937007874015748
        },
        {
          "duration": 0.3157889999999952,
          "durationTicks": 384,
          "midi": 38,
          "name": "D2",
          "ticks": 42624,
          "time": 35.052579,
          "velocity": 0.3937007874015748
        },
        {
          "duration": 0.1578944999999976,
          "durationTicks": 192,
          "midi": 53,
          "name": "F3",
          "ticks": 42816,
          "time": 35.2104735,
          "velocity": 0.3937007874015748
        },
        {
          "duration": 0.1578945000000047,
          "durationTicks": 192,
          "midi": 35,
          "name": "B1",
          "ticks": 43008,
          "time": 35.368368,
          "velocity": 0.3937007874015748
        },
        {
          "duration": 0.1578945000000047,
          "durationTicks": 192,
          "midi": 53,
          "name": "F3",
          "ticks": 43008,
          "time": 35.368368,
          "velocity": 0.3937007874015748
        },
        {
          "duration": 0.1578944999999976,
          "durationTicks": 192,
          "midi": 53,
          "name": "F3",
          "ticks": 43200,
          "time": 35.5262625,
          "velocity": 0.3937007874015748
        },
        {
          "duration": 0.1578944999999976,
          "durationTicks": 192,
          "midi": 35,
          "name": "B1",
          "ticks": 43200,
          "time": 35.5262625,
          "velocity": 0.3937007874015748
        },
        {
          "duration": 0.1578944999999976,
          "durationTicks": 192,
          "midi": 51,
          "name": "D#3",
          "ticks": 43392,
          "time": 35.684157,
          "velocity": 0.3937007874015748
        },
        {
          "duration": 0.3157890000000023,
          "durationTicks": 384,
          "midi": 38,
          "name": "D2",
          "ticks": 43392,
          "time": 35.684157,
          "velocity": 0.3937007874015748
        },
        {
          "duration": 0.1578945000000047,
          "durationTicks": 192,
          "midi": 53,
          "name": "F3",
          "ticks": 43584,
          "time": 35.8420515,
          "velocity": 0.3937007874015748
        },
        {
          "duration": 0.1578944999999976,
          "durationTicks": 192,
          "midi": 35,
          "name": "B1",
          "ticks": 43776,
          "time": 35.999946,
          "velocity": 0.3937007874015748
        },
        {
          "duration": 0.1578944999999976,
          "durationTicks": 192,
          "midi": 53,
          "name": "F3",
          "ticks": 43776,
          "time": 35.999946,
          "velocity": 0.3937007874015748
        },
        {
          "duration": 0.1578944999999976,
          "durationTicks": 192,
          "midi": 35,
          "name": "B1",
          "ticks": 43968,
          "time": 36.1578405,
          "velocity": 0.3937007874015748
        },
        {
          "duration": 0.1578944999999976,
          "durationTicks": 192,
          "midi": 53,
          "name": "F3",
          "ticks": 43968,
          "time": 36.1578405,
          "velocity": 0.3937007874015748
        },
        {
          "duration": 0.3157890000000023,
          "durationTicks": 384,
          "midi": 38,
          "name": "D2",
          "ticks": 44160,
          "time": 36.315735,
          "velocity": 0.3937007874015748
        },
        {
          "duration": 0.1578945000000047,
          "durationTicks": 192,
          "midi": 51,
          "name": "D#3",
          "ticks": 44160,
          "time": 36.315735,
          "velocity": 0.3937007874015748
        },
        {
          "duration": 0.1578944999999976,
          "durationTicks": 192,
          "midi": 53,
          "name": "F3",
          "ticks": 44352,
          "time": 36.4736295,
          "velocity": 0.3937007874015748
        },
        {
          "duration": 0.1578944999999976,
          "durationTicks": 192,
          "midi": 53,
          "name": "F3",
          "ticks": 44544,
          "time": 36.631524,
          "velocity": 0.3937007874015748
        },
        {
          "duration": 0.1578944999999976,
          "durationTicks": 192,
          "midi": 35,
          "name": "B1",
          "ticks": 44544,
          "time": 36.631524,
          "velocity": 0.3937007874015748
        },
        {
          "duration": 0.1578945000000047,
          "durationTicks": 192,
          "midi": 35,
          "name": "B1",
          "ticks": 44736,
          "time": 36.7894185,
          "velocity": 0.3937007874015748
        },
        {
          "duration": 0.1578945000000047,
          "durationTicks": 192,
          "midi": 53,
          "name": "F3",
          "ticks": 44736,
          "time": 36.7894185,
          "velocity": 0.3937007874015748
        },
        {
          "duration": 0.1578944999999976,
          "durationTicks": 192,
          "midi": 51,
          "name": "D#3",
          "ticks": 44928,
          "time": 36.947313,
          "velocity": 0.3937007874015748
        },
        {
          "duration": 0.3157889999999952,
          "durationTicks": 384,
          "midi": 38,
          "name": "D2",
          "ticks": 44928,
          "time": 36.947313,
          "velocity": 0.3937007874015748
        },
        {
          "duration": 0.1578944999999976,
          "durationTicks": 192,
          "midi": 53,
          "name": "F3",
          "ticks": 45120,
          "time": 37.1052075,
          "velocity": 0.3937007874015748
        },
        {
          "duration": 0.1578945000000047,
          "durationTicks": 192,
          "midi": 35,
          "name": "B1",
          "ticks": 45312,
          "time": 37.263101999999996,
          "velocity": 0.3937007874015748
        },
        {
          "duration": 0.1578945000000047,
          "durationTicks": 192,
          "midi": 53,
          "name": "F3",
          "ticks": 45312,
          "time": 37.263101999999996,
          "velocity": 0.3937007874015748
        },
        {
          "duration": 0.1578944999999976,
          "durationTicks": 192,
          "midi": 53,
          "name": "F3",
          "ticks": 45504,
          "time": 37.4209965,
          "velocity": 0.3937007874015748
        },
        {
          "duration": 0.1578944999999976,
          "durationTicks": 192,
          "midi": 35,
          "name": "B1",
          "ticks": 45504,
          "time": 37.4209965,
          "velocity": 0.3937007874015748
        },
        {
          "duration": 0.3157890000000023,
          "durationTicks": 384,
          "midi": 38,
          "name": "D2",
          "ticks": 45696,
          "time": 37.578891,
          "velocity": 0.3937007874015748
        },
        {
          "duration": 0.1578944999999976,
          "durationTicks": 192,
          "midi": 51,
          "name": "D#3",
          "ticks": 45696,
          "time": 37.578891,
          "velocity": 0.3937007874015748
        },
        {
          "duration": 0.1578945000000047,
          "durationTicks": 192,
          "midi": 53,
          "name": "F3",
          "ticks": 45888,
          "time": 37.736785499999996,
          "velocity": 0.3937007874015748
        },
        {
          "duration": 0.1578944999999976,
          "durationTicks": 192,
          "midi": 35,
          "name": "B1",
          "ticks": 46080,
          "time": 37.89468,
          "velocity": 0.3937007874015748
        },
        {
          "duration": 0.1578944999999976,
          "durationTicks": 192,
          "midi": 53,
          "name": "F3",
          "ticks": 46080,
          "time": 37.89468,
          "velocity": 0.3937007874015748
        },
        {
          "duration": 0.1578944999999976,
          "durationTicks": 192,
          "midi": 35,
          "name": "B1",
          "ticks": 46272,
          "time": 38.0525745,
          "velocity": 0.3937007874015748
        },
        {
          "duration": 0.1578944999999976,
          "durationTicks": 192,
          "midi": 53,
          "name": "F3",
          "ticks": 46272,
          "time": 38.0525745,
          "velocity": 0.3937007874015748
        },
        {
          "duration": 0.1578945000000047,
          "durationTicks": 192,
          "midi": 51,
          "name": "D#3",
          "ticks": 46464,
          "time": 38.210468999999996,
          "velocity": 0.3937007874015748
        },
        {
          "duration": 0.3157890000000023,
          "durationTicks": 384,
          "midi": 38,
          "name": "D2",
          "ticks": 46464,
          "time": 38.210468999999996,
          "velocity": 0.3937007874015748
        },
        {
          "duration": 0.1578944999999976,
          "durationTicks": 192,
          "midi": 53,
          "name": "F3",
          "ticks": 46656,
          "time": 38.3683635,
          "velocity": 0.3937007874015748
        },
        {
          "duration": 0.1578944999999976,
          "durationTicks": 192,
          "midi": 35,
          "name": "B1",
          "ticks": 46848,
          "time": 38.526258,
          "velocity": 0.3937007874015748
        },
        {
          "duration": 0.1578944999999976,
          "durationTicks": 192,
          "midi": 53,
          "name": "F3",
          "ticks": 46848,
          "time": 38.526258,
          "velocity": 0.3937007874015748
        },
        {
          "duration": 0.1578945000000047,
          "durationTicks": 192,
          "midi": 35,
          "name": "B1",
          "ticks": 47040,
          "time": 38.684152499999996,
          "velocity": 0.3937007874015748
        },
        {
          "duration": 0.1578945000000047,
          "durationTicks": 192,
          "midi": 53,
          "name": "F3",
          "ticks": 47040,
          "time": 38.684152499999996,
          "velocity": 0.3937007874015748
        },
        {
          "duration": 0.1578944999999976,
          "durationTicks": 192,
          "midi": 51,
          "name": "D#3",
          "ticks": 47232,
          "time": 38.842047,
          "velocity": 0.3937007874015748
        },
        {
          "duration": 0.3157889999999952,
          "durationTicks": 384,
          "midi": 38,
          "name": "D2",
          "ticks": 47232,
          "time": 38.842047,
          "velocity": 0.3937007874015748
        },
        {
          "duration": 0.1578944999999976,
          "durationTicks": 192,
          "midi": 53,
          "name": "F3",
          "ticks": 47424,
          "time": 38.9999415,
          "velocity": 0.3937007874015748
        },
        {
          "duration": 0.1578945000000047,
          "durationTicks": 192,
          "midi": 35,
          "name": "B1",
          "ticks": 47616,
          "time": 39.157835999999996,
          "velocity": 0.3937007874015748
        },
        {
          "duration": 0.1578945000000047,
          "durationTicks": 192,
          "midi": 53,
          "name": "F3",
          "ticks": 47616,
          "time": 39.157835999999996,
          "velocity": 0.3937007874015748
        },
        {
          "duration": 0.1578944999999976,
          "durationTicks": 192,
          "midi": 53,
          "name": "F3",
          "ticks": 47808,
          "time": 39.3157305,
          "velocity": 0.3937007874015748
        },
        {
          "duration": 0.1578944999999976,
          "durationTicks": 192,
          "midi": 35,
          "name": "B1",
          "ticks": 47808,
          "time": 39.3157305,
          "velocity": 0.3937007874015748
        },
        {
          "duration": 0.1578944999999976,
          "durationTicks": 192,
          "midi": 51,
          "name": "D#3",
          "ticks": 48000,
          "time": 39.473625,
          "velocity": 0.3937007874015748
        },
        {
          "duration": 0.3157890000000023,
          "durationTicks": 384,
          "midi": 38,
          "name": "D2",
          "ticks": 48000,
          "time": 39.473625,
          "velocity": 0.3937007874015748
        },
        {
          "duration": 0.1578945000000047,
          "durationTicks": 192,
          "midi": 53,
          "name": "F3",
          "ticks": 48192,
          "time": 39.631519499999996,
          "velocity": 0.3937007874015748
        },
        {
          "duration": 0.1578944999999976,
          "durationTicks": 192,
          "midi": 35,
          "name": "B1",
          "ticks": 48384,
          "time": 39.789414,
          "velocity": 0.3937007874015748
        },
        {
          "duration": 0.1578944999999976,
          "durationTicks": 192,
          "midi": 53,
          "name": "F3",
          "ticks": 48384,
          "time": 39.789414,
          "velocity": 0.3937007874015748
        },
        {
          "duration": 0.1578944999999976,
          "durationTicks": 192,
          "midi": 53,
          "name": "F3",
          "ticks": 48576,
          "time": 39.9473085,
          "velocity": 0.3937007874015748
        },
        {
          "duration": 0.1578944999999976,
          "durationTicks": 192,
          "midi": 35,
          "name": "B1",
          "ticks": 48576,
          "time": 39.9473085,
          "velocity": 0.3937007874015748
        },
        {
          "duration": 0.3157890000000023,
          "durationTicks": 384,
          "midi": 38,
          "name": "D2",
          "ticks": 48768,
          "time": 40.105202999999996,
          "velocity": 0.3937007874015748
        },
        {
          "duration": 0.1578945000000047,
          "durationTicks": 192,
          "midi": 51,
          "name": "D#3",
          "ticks": 48768,
          "time": 40.105202999999996,
          "velocity": 0.3937007874015748
        },
        {
          "duration": 0.1578944999999976,
          "durationTicks": 192,
          "midi": 53,
          "name": "F3",
          "ticks": 48960,
          "time": 40.2630975,
          "velocity": 0.3937007874015748
        },
        {
          "duration": 0.1578944999999976,
          "durationTicks": 192,
          "midi": 53,
          "name": "F3",
          "ticks": 49152,
          "time": 40.420992,
          "velocity": 0.3937007874015748
        },
        {
          "duration": 0.1578944999999976,
          "durationTicks": 192,
          "midi": 35,
          "name": "B1",
          "ticks": 49152,
          "time": 40.420992,
          "velocity": 0.3937007874015748
        },
        {
          "duration": 0.1578945000000047,
          "durationTicks": 192,
          "midi": 53,
          "name": "F3",
          "ticks": 49344,
          "time": 40.578886499999996,
          "velocity": 0.3937007874015748
        },
        {
          "duration": 0.1578945000000047,
          "durationTicks": 192,
          "midi": 35,
          "name": "B1",
          "ticks": 49344,
          "time": 40.578886499999996,
          "velocity": 0.3937007874015748
        },
        {
          "duration": 0.1578944999999976,
          "durationTicks": 192,
          "midi": 51,
          "name": "D#3",
          "ticks": 49536,
          "time": 40.736781,
          "velocity": 0.3937007874015748
        },
        {
          "duration": 0.3157889999999952,
          "durationTicks": 384,
          "midi": 38,
          "name": "D2",
          "ticks": 49536,
          "time": 40.736781,
          "velocity": 0.3937007874015748
        },
        {
          "duration": 0.1578944999999976,
          "durationTicks": 192,
          "midi": 53,
          "name": "F3",
          "ticks": 49728,
          "time": 40.8946755,
          "velocity": 0.3937007874015748
        },
        {
          "duration": 0.1578945000000047,
          "durationTicks": 192,
          "midi": 35,
          "name": "B1",
          "ticks": 49920,
          "time": 41.052569999999996,
          "velocity": 0.3937007874015748
        },
        {
          "duration": 0.1578945000000047,
          "durationTicks": 192,
          "midi": 53,
          "name": "F3",
          "ticks": 49920,
          "time": 41.052569999999996,
          "velocity": 0.3937007874015748
        },
        {
          "duration": 0.1578944999999976,
          "durationTicks": 192,
          "midi": 35,
          "name": "B1",
          "ticks": 50112,
          "time": 41.2104645,
          "velocity": 0.3937007874015748
        },
        {
          "duration": 0.1578944999999976,
          "durationTicks": 192,
          "midi": 53,
          "name": "F3",
          "ticks": 50112,
          "time": 41.2104645,
          "velocity": 0.3937007874015748
        },
        {
          "duration": 0.1578944999999976,
          "durationTicks": 192,
          "midi": 51,
          "name": "D#3",
          "ticks": 50304,
          "time": 41.368359,
          "velocity": 0.3937007874015748
        },
        {
          "duration": 0.3157890000000023,
          "durationTicks": 384,
          "midi": 38,
          "name": "D2",
          "ticks": 50304,
          "time": 41.368359,
          "velocity": 0.3937007874015748
        },
        {
          "duration": 0.1578945000000047,
          "durationTicks": 192,
          "midi": 53,
          "name": "F3",
          "ticks": 50496,
          "time": 41.526253499999996,
          "velocity": 0.3937007874015748
        },
        {
          "duration": 0.1578944999999976,
          "durationTicks": 192,
          "midi": 35,
          "name": "B1",
          "ticks": 50688,
          "time": 41.684148,
          "velocity": 0.3937007874015748
        },
        {
          "duration": 0.1578944999999976,
          "durationTicks": 192,
          "midi": 53,
          "name": "F3",
          "ticks": 50688,
          "time": 41.684148,
          "velocity": 0.3937007874015748
        },
        {
          "duration": 0.1578944999999976,
          "durationTicks": 192,
          "midi": 35,
          "name": "B1",
          "ticks": 50880,
          "time": 41.8420425,
          "velocity": 0.3937007874015748
        },
        {
          "duration": 0.1578944999999976,
          "durationTicks": 192,
          "midi": 53,
          "name": "F3",
          "ticks": 50880,
          "time": 41.8420425,
          "velocity": 0.3937007874015748
        },
        {
          "duration": 0.3157890000000023,
          "durationTicks": 384,
          "midi": 38,
          "name": "D2",
          "ticks": 51072,
          "time": 41.999936999999996,
          "velocity": 0.3937007874015748
        },
        {
          "duration": 0.1578945000000047,
          "durationTicks": 192,
          "midi": 51,
          "name": "D#3",
          "ticks": 51072,
          "time": 41.999936999999996,
          "velocity": 0.3937007874015748
        },
        {
          "duration": 0.1578944999999976,
          "durationTicks": 192,
          "midi": 53,
          "name": "F3",
          "ticks": 51264,
          "time": 42.1578315,
          "velocity": 0.3937007874015748
        },
        {
          "duration": 0.1578944999999976,
          "durationTicks": 192,
          "midi": 53,
          "name": "F3",
          "ticks": 51456,
          "time": 42.315726,
          "velocity": 0.3937007874015748
        },
        {
          "duration": 0.1578944999999976,
          "durationTicks": 192,
          "midi": 35,
          "name": "B1",
          "ticks": 51456,
          "time": 42.315726,
          "velocity": 0.3937007874015748
        },
        {
          "duration": 0.1578945000000047,
          "durationTicks": 192,
          "midi": 35,
          "name": "B1",
          "ticks": 51648,
          "time": 42.473620499999996,
          "velocity": 0.3937007874015748
        },
        {
          "duration": 0.1578945000000047,
          "durationTicks": 192,
          "midi": 53,
          "name": "F3",
          "ticks": 51648,
          "time": 42.473620499999996,
          "velocity": 0.3937007874015748
        },
        {
          "duration": 0.3157889999999952,
          "durationTicks": 384,
          "midi": 38,
          "name": "D2",
          "ticks": 51840,
          "time": 42.631515,
          "velocity": 0.3937007874015748
        },
        {
          "duration": 0.1578944999999976,
          "durationTicks": 192,
          "midi": 51,
          "name": "D#3",
          "ticks": 51840,
          "time": 42.631515,
          "velocity": 0.3937007874015748
        },
        {
          "duration": 0.1578944999999976,
          "durationTicks": 192,
          "midi": 53,
          "name": "F3",
          "ticks": 52032,
          "time": 42.7894095,
          "velocity": 0.3937007874015748
        },
        {
          "duration": 0.1578945000000047,
          "durationTicks": 192,
          "midi": 35,
          "name": "B1",
          "ticks": 52224,
          "time": 42.947303999999995,
          "velocity": 0.3937007874015748
        },
        {
          "duration": 0.1578945000000047,
          "durationTicks": 192,
          "midi": 53,
          "name": "F3",
          "ticks": 52224,
          "time": 42.947303999999995,
          "velocity": 0.3937007874015748
        },
        {
          "duration": 0.1578944999999976,
          "durationTicks": 192,
          "midi": 35,
          "name": "B1",
          "ticks": 52416,
          "time": 43.1051985,
          "velocity": 0.3937007874015748
        },
        {
          "duration": 0.1578944999999976,
          "durationTicks": 192,
          "midi": 53,
          "name": "F3",
          "ticks": 52416,
          "time": 43.1051985,
          "velocity": 0.3937007874015748
        },
        {
          "duration": 0.1578944999999976,
          "durationTicks": 192,
          "midi": 51,
          "name": "D#3",
          "ticks": 52608,
          "time": 43.263093,
          "velocity": 0.3937007874015748
        },
        {
          "duration": 0.3157890000000023,
          "durationTicks": 384,
          "midi": 38,
          "name": "D2",
          "ticks": 52608,
          "time": 43.263093,
          "velocity": 0.3937007874015748
        },
        {
          "duration": 0.1578945000000047,
          "durationTicks": 192,
          "midi": 53,
          "name": "F3",
          "ticks": 52800,
          "time": 43.420987499999995,
          "velocity": 0.3937007874015748
        },
        {
          "duration": 0.1578944999999976,
          "durationTicks": 192,
          "midi": 53,
          "name": "F3",
          "ticks": 52992,
          "time": 43.578882,
          "velocity": 0.3937007874015748
        },
        {
          "duration": 0.1578944999999976,
          "durationTicks": 192,
          "midi": 35,
          "name": "B1",
          "ticks": 52992,
          "time": 43.578882,
          "velocity": 0.3937007874015748
        },
        {
          "duration": 0.1578944999999976,
          "durationTicks": 192,
          "midi": 53,
          "name": "F3",
          "ticks": 53184,
          "time": 43.7367765,
          "velocity": 0.3937007874015748
        },
        {
          "duration": 0.1578944999999976,
          "durationTicks": 192,
          "midi": 35,
          "name": "B1",
          "ticks": 53184,
          "time": 43.7367765,
          "velocity": 0.3937007874015748
        },
        {
          "duration": 0.3157890000000023,
          "durationTicks": 384,
          "midi": 38,
          "name": "D2",
          "ticks": 53376,
          "time": 43.894670999999995,
          "velocity": 0.3937007874015748
        },
        {
          "duration": 0.1578945000000047,
          "durationTicks": 192,
          "midi": 51,
          "name": "D#3",
          "ticks": 53376,
          "time": 43.894670999999995,
          "velocity": 0.3937007874015748
        },
        {
          "duration": 0.1578944999999976,
          "durationTicks": 192,
          "midi": 53,
          "name": "F3",
          "ticks": 53568,
          "time": 44.0525655,
          "velocity": 0.3937007874015748
        },
        {
          "duration": 0.1578944999999976,
          "durationTicks": 192,
          "midi": 53,
          "name": "F3",
          "ticks": 53760,
          "time": 44.21046,
          "velocity": 0.3937007874015748
        },
        {
          "duration": 0.1578944999999976,
          "durationTicks": 192,
          "midi": 35,
          "name": "B1",
          "ticks": 53760,
          "time": 44.21046,
          "velocity": 0.3937007874015748
        },
        {
          "duration": 0.1578945000000047,
          "durationTicks": 192,
          "midi": 53,
          "name": "F3",
          "ticks": 53952,
          "time": 44.368354499999995,
          "velocity": 0.3937007874015748
        },
        {
          "duration": 0.1578945000000047,
          "durationTicks": 192,
          "midi": 35,
          "name": "B1",
          "ticks": 53952,
          "time": 44.368354499999995,
          "velocity": 0.3937007874015748
        },
        {
          "duration": 0.1578944999999976,
          "durationTicks": 192,
          "midi": 51,
          "name": "D#3",
          "ticks": 54144,
          "time": 44.526249,
          "velocity": 0.3937007874015748
        },
        {
          "duration": 0.3157889999999952,
          "durationTicks": 384,
          "midi": 38,
          "name": "D2",
          "ticks": 54144,
          "time": 44.526249,
          "velocity": 0.3937007874015748
        },
        {
          "duration": 0.1578944999999976,
          "durationTicks": 192,
          "midi": 53,
          "name": "F3",
          "ticks": 54336,
          "time": 44.6841435,
          "velocity": 0.3937007874015748
        },
        {
          "duration": 0.1578945000000047,
          "durationTicks": 192,
          "midi": 53,
          "name": "F3",
          "ticks": 54528,
          "time": 44.842037999999995,
          "velocity": 0.3937007874015748
        },
        {
          "duration": 0.1578945000000047,
          "durationTicks": 192,
          "midi": 35,
          "name": "B1",
          "ticks": 54528,
          "time": 44.842037999999995,
          "velocity": 0.3937007874015748
        },
        {
          "duration": 0.1578944999999976,
          "durationTicks": 192,
          "midi": 35,
          "name": "B1",
          "ticks": 54720,
          "time": 44.9999325,
          "velocity": 0.3937007874015748
        },
        {
          "duration": 0.1578944999999976,
          "durationTicks": 192,
          "midi": 53,
          "name": "F3",
          "ticks": 54720,
          "time": 44.9999325,
          "velocity": 0.3937007874015748
        },
        {
          "duration": 0.3157890000000023,
          "durationTicks": 384,
          "midi": 38,
          "name": "D2",
          "ticks": 54912,
          "time": 45.157827,
          "velocity": 0.3937007874015748
        },
        {
          "duration": 0.1578944999999976,
          "durationTicks": 192,
          "midi": 51,
          "name": "D#3",
          "ticks": 54912,
          "time": 45.157827,
          "velocity": 0.3937007874015748
        },
        {
          "duration": 0.1578945000000047,
          "durationTicks": 192,
          "midi": 53,
          "name": "F3",
          "ticks": 55104,
          "time": 45.315721499999995,
          "velocity": 0.3937007874015748
        },
        {
          "duration": 0.1578944999999976,
          "durationTicks": 192,
          "midi": 53,
          "name": "F3",
          "ticks": 55296,
          "time": 45.473616,
          "velocity": 0.3937007874015748
        },
        {
          "duration": 0.1578944999999976,
          "durationTicks": 192,
          "midi": 35,
          "name": "B1",
          "ticks": 55296,
          "time": 45.473616,
          "velocity": 0.3937007874015748
        },
        {
          "duration": 0.1578944999999976,
          "durationTicks": 192,
          "midi": 35,
          "name": "B1",
          "ticks": 55488,
          "time": 45.6315105,
          "velocity": 0.3937007874015748
        },
        {
          "duration": 0.1578944999999976,
          "durationTicks": 192,
          "midi": 53,
          "name": "F3",
          "ticks": 55488,
          "time": 45.6315105,
          "velocity": 0.3937007874015748
        },
        {
          "duration": 0.1578945000000047,
          "durationTicks": 192,
          "midi": 51,
          "name": "D#3",
          "ticks": 55680,
          "time": 45.789404999999995,
          "velocity": 0.3937007874015748
        },
        {
          "duration": 0.3157890000000023,
          "durationTicks": 384,
          "midi": 38,
          "name": "D2",
          "ticks": 55680,
          "time": 45.789404999999995,
          "velocity": 0.3937007874015748
        },
        {
          "duration": 0.1578944999999976,
          "durationTicks": 192,
          "midi": 53,
          "name": "F3",
          "ticks": 55872,
          "time": 45.9472995,
          "velocity": 0.3937007874015748
        },
        {
          "duration": 0.1578944999999976,
          "durationTicks": 192,
          "midi": 53,
          "name": "F3",
          "ticks": 56064,
          "time": 46.105194,
          "velocity": 0.3937007874015748
        },
        {
          "duration": 0.1578944999999976,
          "durationTicks": 192,
          "midi": 35,
          "name": "B1",
          "ticks": 56064,
          "time": 46.105194,
          "velocity": 0.3937007874015748
        },
        {
          "duration": 0.1578945000000047,
          "durationTicks": 192,
          "midi": 53,
          "name": "F3",
          "ticks": 56256,
          "time": 46.263088499999995,
          "velocity": 0.3937007874015748
        },
        {
          "duration": 0.1578945000000047,
          "durationTicks": 192,
          "midi": 35,
          "name": "B1",
          "ticks": 56256,
          "time": 46.263088499999995,
          "velocity": 0.3937007874015748
        },
        {
          "duration": 0.3157889999999952,
          "durationTicks": 384,
          "midi": 38,
          "name": "D2",
          "ticks": 56448,
          "time": 46.420983,
          "velocity": 0.3937007874015748
        },
        {
          "duration": 0.1578944999999976,
          "durationTicks": 192,
          "midi": 51,
          "name": "D#3",
          "ticks": 56448,
          "time": 46.420983,
          "velocity": 0.3937007874015748
        },
        {
          "duration": 0.1578944999999976,
          "durationTicks": 192,
          "midi": 53,
          "name": "F3",
          "ticks": 56640,
          "time": 46.5788775,
          "velocity": 0.3937007874015748
        },
        {
          "duration": 0.1578945000000047,
          "durationTicks": 192,
          "midi": 53,
          "name": "F3",
          "ticks": 56832,
          "time": 46.736771999999995,
          "velocity": 0.3937007874015748
        },
        {
          "duration": 0.1578945000000047,
          "durationTicks": 192,
          "midi": 35,
          "name": "B1",
          "ticks": 56832,
          "time": 46.736771999999995,
          "velocity": 0.3937007874015748
        },
        {
          "duration": 0.1578944999999976,
          "durationTicks": 192,
          "midi": 35,
          "name": "B1",
          "ticks": 57024,
          "time": 46.8946665,
          "velocity": 0.3937007874015748
        },
        {
          "duration": 0.1578944999999976,
          "durationTicks": 192,
          "midi": 53,
          "name": "F3",
          "ticks": 57024,
          "time": 46.8946665,
          "velocity": 0.3937007874015748
        },
        {
          "duration": 0.3157890000000023,
          "durationTicks": 384,
          "midi": 38,
          "name": "D2",
          "ticks": 57216,
          "time": 47.052561,
          "velocity": 0.3937007874015748
        },
        {
          "duration": 0.1578944999999976,
          "durationTicks": 192,
          "midi": 51,
          "name": "D#3",
          "ticks": 57216,
          "time": 47.052561,
          "velocity": 0.3937007874015748
        },
        {
          "duration": 0.1578945000000047,
          "durationTicks": 192,
          "midi": 53,
          "name": "F3",
          "ticks": 57408,
          "time": 47.210455499999995,
          "velocity": 0.3937007874015748
        },
        {
          "duration": 0.1578944999999976,
          "durationTicks": 192,
          "midi": 53,
          "name": "F3",
          "ticks": 57600,
          "time": 47.36835,
          "velocity": 0.3937007874015748
        },
        {
          "duration": 0.1578944999999976,
          "durationTicks": 192,
          "midi": 35,
          "name": "B1",
          "ticks": 57600,
          "time": 47.36835,
          "velocity": 0.3937007874015748
        },
        {
          "duration": 0.1578944999999976,
          "durationTicks": 192,
          "midi": 53,
          "name": "F3",
          "ticks": 57792,
          "time": 47.5262445,
          "velocity": 0.3937007874015748
        },
        {
          "duration": 0.1578944999999976,
          "durationTicks": 192,
          "midi": 35,
          "name": "B1",
          "ticks": 57792,
          "time": 47.5262445,
          "velocity": 0.3937007874015748
        },
        {
          "duration": 0.3157890000000023,
          "durationTicks": 384,
          "midi": 38,
          "name": "D2",
          "ticks": 57984,
          "time": 47.684138999999995,
          "velocity": 0.3937007874015748
        },
        {
          "duration": 0.1578945000000047,
          "durationTicks": 192,
          "midi": 51,
          "name": "D#3",
          "ticks": 57984,
          "time": 47.684138999999995,
          "velocity": 0.3937007874015748
        },
        {
          "duration": 0.1578944999999976,
          "durationTicks": 192,
          "midi": 53,
          "name": "F3",
          "ticks": 58176,
          "time": 47.8420335,
          "velocity": 0.3937007874015748
        },
        {
          "duration": 0.1578944999999976,
          "durationTicks": 192,
          "midi": 35,
          "name": "B1",
          "ticks": 58368,
          "time": 47.999928,
          "velocity": 0.3937007874015748
        },
        {
          "duration": 0.1578944999999976,
          "durationTicks": 192,
          "midi": 53,
          "name": "F3",
          "ticks": 58368,
          "time": 47.999928,
          "velocity": 0.3937007874015748
        },
        {
          "duration": 0.1578945000000047,
          "durationTicks": 192,
          "midi": 53,
          "name": "F3",
          "ticks": 58560,
          "time": 48.157822499999995,
          "velocity": 0.3937007874015748
        },
        {
          "duration": 0.1578945000000047,
          "durationTicks": 192,
          "midi": 35,
          "name": "B1",
          "ticks": 58560,
          "time": 48.157822499999995,
          "velocity": 0.3937007874015748
        },
        {
          "duration": 0.3157889999999952,
          "durationTicks": 384,
          "midi": 38,
          "name": "D2",
          "ticks": 58752,
          "time": 48.315717,
          "velocity": 0.3937007874015748
        },
        {
          "duration": 0.1578944999999976,
          "durationTicks": 192,
          "midi": 51,
          "name": "D#3",
          "ticks": 58752,
          "time": 48.315717,
          "velocity": 0.3937007874015748
        },
        {
          "duration": 0.1578944999999976,
          "durationTicks": 192,
          "midi": 53,
          "name": "F3",
          "ticks": 58944,
          "time": 48.4736115,
          "velocity": 0.3937007874015748
        },
        {
          "duration": 0.1578945000000047,
          "durationTicks": 192,
          "midi": 53,
          "name": "F3",
          "ticks": 59136,
          "time": 48.631505999999995,
          "velocity": 0.3937007874015748
        },
        {
          "duration": 0.1578945000000047,
          "durationTicks": 192,
          "midi": 35,
          "name": "B1",
          "ticks": 59136,
          "time": 48.631505999999995,
          "velocity": 0.3937007874015748
        },
        {
          "duration": 0.1578944999999976,
          "durationTicks": 192,
          "midi": 53,
          "name": "F3",
          "ticks": 59328,
          "time": 48.7894005,
          "velocity": 0.3937007874015748
        },
        {
          "duration": 0.1578944999999976,
          "durationTicks": 192,
          "midi": 35,
          "name": "B1",
          "ticks": 59328,
          "time": 48.7894005,
          "velocity": 0.3937007874015748
        },
        {
          "duration": 0.3157890000000023,
          "durationTicks": 384,
          "midi": 38,
          "name": "D2",
          "ticks": 59520,
          "time": 48.947295,
          "velocity": 0.3937007874015748
        },
        {
          "duration": 0.1578944999999976,
          "durationTicks": 192,
          "midi": 51,
          "name": "D#3",
          "ticks": 59520,
          "time": 48.947295,
          "velocity": 0.3937007874015748
        },
        {
          "duration": 0.1578945000000047,
          "durationTicks": 192,
          "midi": 53,
          "name": "F3",
          "ticks": 59712,
          "time": 49.105189499999994,
          "velocity": 0.3937007874015748
        },
        {
          "duration": 0.1578944999999976,
          "durationTicks": 192,
          "midi": 35,
          "name": "B1",
          "ticks": 59904,
          "time": 49.263084,
          "velocity": 0.3937007874015748
        },
        {
          "duration": 0.1578944999999976,
          "durationTicks": 192,
          "midi": 53,
          "name": "F3",
          "ticks": 59904,
          "time": 49.263084,
          "velocity": 0.3937007874015748
        },
        {
          "duration": 0.1578944999999976,
          "durationTicks": 192,
          "midi": 35,
          "name": "B1",
          "ticks": 60096,
          "time": 49.4209785,
          "velocity": 0.3937007874015748
        },
        {
          "duration": 0.1578944999999976,
          "durationTicks": 192,
          "midi": 53,
          "name": "F3",
          "ticks": 60096,
          "time": 49.4209785,
          "velocity": 0.3937007874015748
        },
        {
          "duration": 0.1578945000000047,
          "durationTicks": 192,
          "midi": 51,
          "name": "D#3",
          "ticks": 60288,
          "time": 49.578872999999994,
          "velocity": 0.3937007874015748
        },
        {
          "duration": 0.3157890000000023,
          "durationTicks": 384,
          "midi": 38,
          "name": "D2",
          "ticks": 60288,
          "time": 49.578872999999994,
          "velocity": 0.3937007874015748
        },
        {
          "duration": 0.1578944999999976,
          "durationTicks": 192,
          "midi": 53,
          "name": "F3",
          "ticks": 60480,
          "time": 49.7367675,
          "velocity": 0.3937007874015748
        },
        {
          "duration": 0.1578944999999976,
          "durationTicks": 192,
          "midi": 35,
          "name": "B1",
          "ticks": 60672,
          "time": 49.894662,
          "velocity": 0.3937007874015748
        },
        {
          "duration": 0.1578944999999976,
          "durationTicks": 192,
          "midi": 53,
          "name": "F3",
          "ticks": 60672,
          "time": 49.894662,
          "velocity": 0.3937007874015748
        },
        {
          "duration": 0.1578945000000047,
          "durationTicks": 192,
          "midi": 53,
          "name": "F3",
          "ticks": 60864,
          "time": 50.052556499999994,
          "velocity": 0.3937007874015748
        },
        {
          "duration": 0.1578945000000047,
          "durationTicks": 192,
          "midi": 35,
          "name": "B1",
          "ticks": 60864,
          "time": 50.052556499999994,
          "velocity": 0.3937007874015748
        },
        {
          "duration": 0.3157890000000023,
          "durationTicks": 384,
          "midi": 38,
          "name": "D2",
          "ticks": 61056,
          "time": 50.210451,
          "velocity": 0.3937007874015748
        },
        {
          "duration": 0.1578944999999976,
          "durationTicks": 192,
          "midi": 51,
          "name": "D#3",
          "ticks": 61056,
          "time": 50.210451,
          "velocity": 0.3937007874015748
        },
        {
          "duration": 0.1578945000000047,
          "durationTicks": 192,
          "midi": 53,
          "name": "F3",
          "ticks": 61248,
          "time": 50.3683455,
          "velocity": 0.3937007874015748
        },
        {
          "duration": 0.1578944999999976,
          "durationTicks": 192,
          "midi": 35,
          "name": "B1",
          "ticks": 61440,
          "time": 50.52624,
          "velocity": 0.3937007874015748
        },
        {
          "duration": 0.1578944999999976,
          "durationTicks": 192,
          "midi": 53,
          "name": "F3",
          "ticks": 61440,
          "time": 50.52624,
          "velocity": 0.3937007874015748
        },
        {
          "duration": 0.1578944999999976,
          "durationTicks": 192,
          "midi": 53,
          "name": "F3",
          "ticks": 61632,
          "time": 50.6841345,
          "velocity": 0.3937007874015748
        },
        {
          "duration": 0.1578944999999976,
          "durationTicks": 192,
          "midi": 35,
          "name": "B1",
          "ticks": 61632,
          "time": 50.6841345,
          "velocity": 0.3937007874015748
        },
        {
          "duration": 0.1578945000000047,
          "durationTicks": 192,
          "midi": 51,
          "name": "D#3",
          "ticks": 61824,
          "time": 50.842029,
          "velocity": 0.3937007874015748
        },
        {
          "duration": 0.3157890000000023,
          "durationTicks": 384,
          "midi": 38,
          "name": "D2",
          "ticks": 61824,
          "time": 50.842029,
          "velocity": 0.3937007874015748
        },
        {
          "duration": 0.1578944999999976,
          "durationTicks": 192,
          "midi": 53,
          "name": "F3",
          "ticks": 62016,
          "time": 50.9999235,
          "velocity": 0.3937007874015748
        },
        {
          "duration": 0.1578944999999976,
          "durationTicks": 192,
          "midi": 53,
          "name": "F3",
          "ticks": 62208,
          "time": 51.157818,
          "velocity": 0.3937007874015748
        },
        {
          "duration": 0.1578944999999976,
          "durationTicks": 192,
          "midi": 35,
          "name": "B1",
          "ticks": 62208,
          "time": 51.157818,
          "velocity": 0.3937007874015748
        },
        {
          "duration": 0.1578945000000047,
          "durationTicks": 192,
          "midi": 53,
          "name": "F3",
          "ticks": 62400,
          "time": 51.3157125,
          "velocity": 0.3937007874015748
        },
        {
          "duration": 0.1578945000000047,
          "durationTicks": 192,
          "midi": 35,
          "name": "B1",
          "ticks": 62400,
          "time": 51.3157125,
          "velocity": 0.3937007874015748
        },
        {
          "duration": 0.3157889999999952,
          "durationTicks": 384,
          "midi": 38,
          "name": "D2",
          "ticks": 62592,
          "time": 51.473607,
          "velocity": 0.3937007874015748
        },
        {
          "duration": 0.1578944999999976,
          "durationTicks": 192,
          "midi": 51,
          "name": "D#3",
          "ticks": 62592,
          "time": 51.473607,
          "velocity": 0.3937007874015748
        },
        {
          "duration": 0.1578944999999976,
          "durationTicks": 192,
          "midi": 53,
          "name": "F3",
          "ticks": 62784,
          "time": 51.6315015,
          "velocity": 0.3937007874015748
        },
        {
          "duration": 0.1578945000000047,
          "durationTicks": 192,
          "midi": 35,
          "name": "B1",
          "ticks": 62976,
          "time": 51.789395999999996,
          "velocity": 0.3937007874015748
        },
        {
          "duration": 0.1578945000000047,
          "durationTicks": 192,
          "midi": 53,
          "name": "F3",
          "ticks": 62976,
          "time": 51.789395999999996,
          "velocity": 0.3937007874015748
        },
        {
          "duration": 0.1578944999999976,
          "durationTicks": 192,
          "midi": 35,
          "name": "B1",
          "ticks": 63168,
          "time": 51.9472905,
          "velocity": 0.3937007874015748
        },
        {
          "duration": 0.1578944999999976,
          "durationTicks": 192,
          "midi": 53,
          "name": "F3",
          "ticks": 63168,
          "time": 51.9472905,
          "velocity": 0.3937007874015748
        },
        {
          "duration": 0.3157890000000023,
          "durationTicks": 384,
          "midi": 38,
          "name": "D2",
          "ticks": 63360,
          "time": 52.105185,
          "velocity": 0.3937007874015748
        },
        {
          "duration": 0.1578944999999976,
          "durationTicks": 192,
          "midi": 51,
          "name": "D#3",
          "ticks": 63360,
          "time": 52.105185,
          "velocity": 0.3937007874015748
        },
        {
          "duration": 0.1578945000000047,
          "durationTicks": 192,
          "midi": 53,
          "name": "F3",
          "ticks": 63552,
          "time": 52.263079499999996,
          "velocity": 0.3937007874015748
        },
        {
          "duration": 0.1578944999999976,
          "durationTicks": 192,
          "midi": 35,
          "name": "B1",
          "ticks": 63744,
          "time": 52.420974,
          "velocity": 0.3937007874015748
        },
        {
          "duration": 0.1578944999999976,
          "durationTicks": 192,
          "midi": 53,
          "name": "F3",
          "ticks": 63744,
          "time": 52.420974,
          "velocity": 0.3937007874015748
        },
        {
          "duration": 0.1578944999999976,
          "durationTicks": 192,
          "midi": 53,
          "name": "F3",
          "ticks": 63936,
          "time": 52.5788685,
          "velocity": 0.3937007874015748
        },
        {
          "duration": 0.1578944999999976,
          "durationTicks": 192,
          "midi": 35,
          "name": "B1",
          "ticks": 63936,
          "time": 52.5788685,
          "velocity": 0.3937007874015748
        },
        {
          "duration": 0.1578945000000047,
          "durationTicks": 192,
          "midi": 51,
          "name": "D#3",
          "ticks": 64128,
          "time": 52.736762999999996,
          "velocity": 0.3937007874015748
        },
        {
          "duration": 0.3157890000000023,
          "durationTicks": 384,
          "midi": 38,
          "name": "D2",
          "ticks": 64128,
          "time": 52.736762999999996,
          "velocity": 0.3937007874015748
        },
        {
          "duration": 0.1578944999999976,
          "durationTicks": 192,
          "midi": 53,
          "name": "F3",
          "ticks": 64320,
          "time": 52.8946575,
          "velocity": 0.3937007874015748
        },
        {
          "duration": 0.1578944999999976,
          "durationTicks": 192,
          "midi": 53,
          "name": "F3",
          "ticks": 64512,
          "time": 53.052552,
          "velocity": 0.3937007874015748
        },
        {
          "duration": 0.1578944999999976,
          "durationTicks": 192,
          "midi": 35,
          "name": "B1",
          "ticks": 64512,
          "time": 53.052552,
          "velocity": 0.3937007874015748
        },
        {
          "duration": 0.1578945000000047,
          "durationTicks": 192,
          "midi": 53,
          "name": "F3",
          "ticks": 64704,
          "time": 53.210446499999996,
          "velocity": 0.3937007874015748
        },
        {
          "duration": 0.1578945000000047,
          "durationTicks": 192,
          "midi": 35,
          "name": "B1",
          "ticks": 64704,
          "time": 53.210446499999996,
          "velocity": 0.3937007874015748
        },
        {
          "duration": 0.3157889999999952,
          "durationTicks": 384,
          "midi": 38,
          "name": "D2",
          "ticks": 64896,
          "time": 53.368341,
          "velocity": 0.3937007874015748
        },
        {
          "duration": 0.1578944999999976,
          "durationTicks": 192,
          "midi": 51,
          "name": "D#3",
          "ticks": 64896,
          "time": 53.368341,
          "velocity": 0.3937007874015748
        },
        {
          "duration": 0.1578944999999976,
          "durationTicks": 192,
          "midi": 53,
          "name": "F3",
          "ticks": 65088,
          "time": 53.5262355,
          "velocity": 0.3937007874015748
        },
        {
          "duration": 0.1578945000000047,
          "durationTicks": 192,
          "midi": 35,
          "name": "B1",
          "ticks": 65280,
          "time": 53.684129999999996,
          "velocity": 0.3937007874015748
        },
        {
          "duration": 0.1578945000000047,
          "durationTicks": 192,
          "midi": 53,
          "name": "F3",
          "ticks": 65280,
          "time": 53.684129999999996,
          "velocity": 0.3937007874015748
        },
        {
          "duration": 0.1578944999999976,
          "durationTicks": 192,
          "midi": 53,
          "name": "F3",
          "ticks": 65472,
          "time": 53.8420245,
          "velocity": 0.3937007874015748
        },
        {
          "duration": 0.1578944999999976,
          "durationTicks": 192,
          "midi": 35,
          "name": "B1",
          "ticks": 65472,
          "time": 53.8420245,
          "velocity": 0.3937007874015748
        },
        {
          "duration": 0.3157890000000023,
          "durationTicks": 384,
          "midi": 38,
          "name": "D2",
          "ticks": 65664,
          "time": 53.999919,
          "velocity": 0.3937007874015748
        },
        {
          "duration": 0.1578944999999976,
          "durationTicks": 192,
          "midi": 51,
          "name": "D#3",
          "ticks": 65664,
          "time": 53.999919,
          "velocity": 0.3937007874015748
        },
        {
          "duration": 0.1578945000000047,
          "durationTicks": 192,
          "midi": 53,
          "name": "F3",
          "ticks": 65856,
          "time": 54.157813499999996,
          "velocity": 0.3937007874015748
        },
        {
          "duration": 0.1578944999999976,
          "durationTicks": 192,
          "midi": 53,
          "name": "F3",
          "ticks": 66048,
          "time": 54.315708,
          "velocity": 0.3937007874015748
        },
        {
          "duration": 0.1578944999999976,
          "durationTicks": 192,
          "midi": 35,
          "name": "B1",
          "ticks": 66048,
          "time": 54.315708,
          "velocity": 0.3937007874015748
        },
        {
          "duration": 0.1578944999999976,
          "durationTicks": 192,
          "midi": 53,
          "name": "F3",
          "ticks": 66240,
          "time": 54.4736025,
          "velocity": 0.3937007874015748
        },
        {
          "duration": 0.1578944999999976,
          "durationTicks": 192,
          "midi": 35,
          "name": "B1",
          "ticks": 66240,
          "time": 54.4736025,
          "velocity": 0.3937007874015748
        },
        {
          "duration": 0.1578945000000047,
          "durationTicks": 192,
          "midi": 51,
          "name": "D#3",
          "ticks": 66432,
          "time": 54.631496999999996,
          "velocity": 0.3937007874015748
        },
        {
          "duration": 0.3157890000000023,
          "durationTicks": 384,
          "midi": 38,
          "name": "D2",
          "ticks": 66432,
          "time": 54.631496999999996,
          "velocity": 0.3937007874015748
        },
        {
          "duration": 0.1578944999999976,
          "durationTicks": 192,
          "midi": 53,
          "name": "F3",
          "ticks": 66624,
          "time": 54.7893915,
          "velocity": 0.3937007874015748
        },
        {
          "duration": 0.1578944999999976,
          "durationTicks": 192,
          "midi": 35,
          "name": "B1",
          "ticks": 66816,
          "time": 54.947286,
          "velocity": 0.3937007874015748
        },
        {
          "duration": 0.1578944999999976,
          "durationTicks": 192,
          "midi": 53,
          "name": "F3",
          "ticks": 66816,
          "time": 54.947286,
          "velocity": 0.3937007874015748
        },
        {
          "duration": 0.1578945000000047,
          "durationTicks": 192,
          "midi": 35,
          "name": "B1",
          "ticks": 67008,
          "time": 55.105180499999996,
          "velocity": 0.3937007874015748
        },
        {
          "duration": 0.1578945000000047,
          "durationTicks": 192,
          "midi": 53,
          "name": "F3",
          "ticks": 67008,
          "time": 55.105180499999996,
          "velocity": 0.3937007874015748
        },
        {
          "duration": 0.3157889999999952,
          "durationTicks": 384,
          "midi": 38,
          "name": "D2",
          "ticks": 67200,
          "time": 55.263075,
          "velocity": 0.3937007874015748
        },
        {
          "duration": 0.1578944999999976,
          "durationTicks": 192,
          "midi": 51,
          "name": "D#3",
          "ticks": 67200,
          "time": 55.263075,
          "velocity": 0.3937007874015748
        },
        {
          "duration": 0.1578944999999976,
          "durationTicks": 192,
          "midi": 53,
          "name": "F3",
          "ticks": 67392,
          "time": 55.4209695,
          "velocity": 0.3937007874015748
        },
        {
          "duration": 0.1578945000000047,
          "durationTicks": 192,
          "midi": 35,
          "name": "B1",
          "ticks": 67584,
          "time": 55.578863999999996,
          "velocity": 0.3937007874015748
        },
        {
          "duration": 0.1578945000000047,
          "durationTicks": 192,
          "midi": 53,
          "name": "F3",
          "ticks": 67584,
          "time": 55.578863999999996,
          "velocity": 0.3937007874015748
        },
        {
          "duration": 0.1578944999999976,
          "durationTicks": 192,
          "midi": 53,
          "name": "F3",
          "ticks": 67776,
          "time": 55.7367585,
          "velocity": 0.3937007874015748
        },
        {
          "duration": 0.1578944999999976,
          "durationTicks": 192,
          "midi": 35,
          "name": "B1",
          "ticks": 67776,
          "time": 55.7367585,
          "velocity": 0.3937007874015748
        },
        {
          "duration": 0.1578944999999976,
          "durationTicks": 192,
          "midi": 51,
          "name": "D#3",
          "ticks": 67968,
          "time": 55.894653,
          "velocity": 0.3937007874015748
        },
        {
          "duration": 0.3157890000000023,
          "durationTicks": 384,
          "midi": 38,
          "name": "D2",
          "ticks": 67968,
          "time": 55.894653,
          "velocity": 0.3937007874015748
        },
        {
          "duration": 0.1578945000000047,
          "durationTicks": 192,
          "midi": 53,
          "name": "F3",
          "ticks": 68160,
          "time": 56.052547499999996,
          "velocity": 0.3937007874015748
        },
        {
          "duration": 0.1578944999999976,
          "durationTicks": 192,
          "midi": 35,
          "name": "B1",
          "ticks": 68352,
          "time": 56.210442,
          "velocity": 0.3937007874015748
        },
        {
          "duration": 0.1578944999999976,
          "durationTicks": 192,
          "midi": 53,
          "name": "F3",
          "ticks": 68352,
          "time": 56.210442,
          "velocity": 0.3937007874015748
        },
        {
          "duration": 0.1578944999999976,
          "durationTicks": 192,
          "midi": 53,
          "name": "F3",
          "ticks": 68544,
          "time": 56.3683365,
          "velocity": 0.3937007874015748
        },
        {
          "duration": 0.1578944999999976,
          "durationTicks": 192,
          "midi": 35,
          "name": "B1",
          "ticks": 68544,
          "time": 56.3683365,
          "velocity": 0.3937007874015748
        },
        {
          "duration": 0.3157890000000023,
          "durationTicks": 384,
          "midi": 38,
          "name": "D2",
          "ticks": 68736,
          "time": 56.526230999999996,
          "velocity": 0.3937007874015748
        },
        {
          "duration": 0.1578945000000047,
          "durationTicks": 192,
          "midi": 51,
          "name": "D#3",
          "ticks": 68736,
          "time": 56.526230999999996,
          "velocity": 0.3937007874015748
        },
        {
          "duration": 0.1578944999999976,
          "durationTicks": 192,
          "midi": 53,
          "name": "F3",
          "ticks": 68928,
          "time": 56.6841255,
          "velocity": 0.3937007874015748
        },
        {
          "duration": 0.1578944999999976,
          "durationTicks": 192,
          "midi": 35,
          "name": "B1",
          "ticks": 69120,
          "time": 56.84202,
          "velocity": 0.3937007874015748
        },
        {
          "duration": 0.1578944999999976,
          "durationTicks": 192,
          "midi": 53,
          "name": "F3",
          "ticks": 69120,
          "time": 56.84202,
          "velocity": 0.3937007874015748
        },
        {
          "duration": 0.1578945000000047,
          "durationTicks": 192,
          "midi": 35,
          "name": "B1",
          "ticks": 69312,
          "time": 56.999914499999996,
          "velocity": 0.3937007874015748
        },
        {
          "duration": 0.1578945000000047,
          "durationTicks": 192,
          "midi": 53,
          "name": "F3",
          "ticks": 69312,
          "time": 56.999914499999996,
          "velocity": 0.3937007874015748
        },
        {
          "duration": 0.3157889999999952,
          "durationTicks": 384,
          "midi": 38,
          "name": "D2",
          "ticks": 69504,
          "time": 57.157809,
          "velocity": 0.3937007874015748
        },
        {
          "duration": 0.1578944999999976,
          "durationTicks": 192,
          "midi": 51,
          "name": "D#3",
          "ticks": 69504,
          "time": 57.157809,
          "velocity": 0.3937007874015748
        },
        {
          "duration": 0.1578944999999976,
          "durationTicks": 192,
          "midi": 53,
          "name": "F3",
          "ticks": 69696,
          "time": 57.3157035,
          "velocity": 0.3937007874015748
        },
        {
          "duration": 0.1578945000000047,
          "durationTicks": 192,
          "midi": 53,
          "name": "F3",
          "ticks": 69888,
          "time": 57.473597999999996,
          "velocity": 0.3937007874015748
        },
        {
          "duration": 0.1578945000000047,
          "durationTicks": 192,
          "midi": 35,
          "name": "B1",
          "ticks": 69888,
          "time": 57.473597999999996,
          "velocity": 0.3937007874015748
        },
        {
          "duration": 0.1578944999999976,
          "durationTicks": 192,
          "midi": 35,
          "name": "B1",
          "ticks": 70080,
          "time": 57.6314925,
          "velocity": 0.3937007874015748
        },
        {
          "duration": 0.1578944999999976,
          "durationTicks": 192,
          "midi": 53,
          "name": "F3",
          "ticks": 70080,
          "time": 57.6314925,
          "velocity": 0.3937007874015748
        },
        {
          "duration": 0.1578944999999976,
          "durationTicks": 192,
          "midi": 51,
          "name": "D#3",
          "ticks": 70272,
          "time": 57.789387,
          "velocity": 0.3937007874015748
        },
        {
          "duration": 0.3157890000000023,
          "durationTicks": 384,
          "midi": 38,
          "name": "D2",
          "ticks": 70272,
          "time": 57.789387,
          "velocity": 0.3937007874015748
        },
        {
          "duration": 0.1578945000000047,
          "durationTicks": 192,
          "midi": 53,
          "name": "F3",
          "ticks": 70464,
          "time": 57.947281499999995,
          "velocity": 0.3937007874015748
        },
        {
          "duration": 0.1578944999999976,
          "durationTicks": 192,
          "midi": 35,
          "name": "B1",
          "ticks": 73728,
          "time": 60.631488,
          "velocity": 0.3937007874015748
        },
        {
          "duration": 0.1578944999999976,
          "durationTicks": 192,
          "midi": 53,
          "name": "F3",
          "ticks": 73728,
          "time": 60.631488,
          "velocity": 0.3937007874015748
        },
        {
          "duration": 0.1578945000000047,
          "durationTicks": 192,
          "midi": 53,
          "name": "F3",
          "ticks": 73920,
          "time": 60.789382499999995,
          "velocity": 0.3937007874015748
        },
        {
          "duration": 0.1578945000000047,
          "durationTicks": 192,
          "midi": 35,
          "name": "B1",
          "ticks": 73920,
          "time": 60.789382499999995,
          "velocity": 0.3937007874015748
        },
        {
          "duration": 0.1578944999999976,
          "durationTicks": 192,
          "midi": 51,
          "name": "D#3",
          "ticks": 74112,
          "time": 60.947277,
          "velocity": 0.3937007874015748
        },
        {
          "duration": 0.3157889999999952,
          "durationTicks": 384,
          "midi": 38,
          "name": "D2",
          "ticks": 74112,
          "time": 60.947277,
          "velocity": 0.3937007874015748
        },
        {
          "duration": 0.1578944999999976,
          "durationTicks": 192,
          "midi": 53,
          "name": "F3",
          "ticks": 74304,
          "time": 61.1051715,
          "velocity": 0.3937007874015748
        },
        {
          "duration": 0.1578945000000047,
          "durationTicks": 192,
          "midi": 35,
          "name": "B1",
          "ticks": 74496,
          "time": 61.263065999999995,
          "velocity": 0.3937007874015748
        },
        {
          "duration": 0.1578945000000047,
          "durationTicks": 192,
          "midi": 53,
          "name": "F3",
          "ticks": 74496,
          "time": 61.263065999999995,
          "velocity": 0.3937007874015748
        },
        {
          "duration": 0.1578944999999976,
          "durationTicks": 192,
          "midi": 35,
          "name": "B1",
          "ticks": 74688,
          "time": 61.4209605,
          "velocity": 0.3937007874015748
        },
        {
          "duration": 0.1578944999999976,
          "durationTicks": 192,
          "midi": 53,
          "name": "F3",
          "ticks": 74688,
          "time": 61.4209605,
          "velocity": 0.3937007874015748
        },
        {
          "duration": 0.3157890000000023,
          "durationTicks": 384,
          "midi": 38,
          "name": "D2",
          "ticks": 74880,
          "time": 61.578855,
          "velocity": 0.3937007874015748
        },
        {
          "duration": 0.1578944999999976,
          "durationTicks": 192,
          "midi": 51,
          "name": "D#3",
          "ticks": 74880,
          "time": 61.578855,
          "velocity": 0.3937007874015748
        },
        {
          "duration": 0.1578945000000047,
          "durationTicks": 192,
          "midi": 53,
          "name": "F3",
          "ticks": 75072,
          "time": 61.736749499999995,
          "velocity": 0.3937007874015748
        },
        {
          "duration": 0.1578944999999976,
          "durationTicks": 192,
          "midi": 35,
          "name": "B1",
          "ticks": 75264,
          "time": 61.894644,
          "velocity": 0.3937007874015748
        },
        {
          "duration": 0.1578944999999976,
          "durationTicks": 192,
          "midi": 53,
          "name": "F3",
          "ticks": 75264,
          "time": 61.894644,
          "velocity": 0.3937007874015748
        },
        {
          "duration": 0.1578944999999976,
          "durationTicks": 192,
          "midi": 35,
          "name": "B1",
          "ticks": 75456,
          "time": 62.0525385,
          "velocity": 0.3937007874015748
        },
        {
          "duration": 0.1578944999999976,
          "durationTicks": 192,
          "midi": 53,
          "name": "F3",
          "ticks": 75456,
          "time": 62.0525385,
          "velocity": 0.3937007874015748
        },
        {
          "duration": 0.1578945000000047,
          "durationTicks": 192,
          "midi": 51,
          "name": "D#3",
          "ticks": 75648,
          "time": 62.210432999999995,
          "velocity": 0.3937007874015748
        },
        {
          "duration": 0.3157890000000023,
          "durationTicks": 384,
          "midi": 38,
          "name": "D2",
          "ticks": 75648,
          "time": 62.210432999999995,
          "velocity": 0.3937007874015748
        },
        {
          "duration": 0.1578944999999976,
          "durationTicks": 192,
          "midi": 53,
          "name": "F3",
          "ticks": 75840,
          "time": 62.3683275,
          "velocity": 0.3937007874015748
        },
        {
          "duration": 0.1578944999999976,
          "durationTicks": 192,
          "midi": 53,
          "name": "F3",
          "ticks": 76032,
          "time": 62.526222,
          "velocity": 0.3937007874015748
        },
        {
          "duration": 0.1578944999999976,
          "durationTicks": 192,
          "midi": 35,
          "name": "B1",
          "ticks": 76032,
          "time": 62.526222,
          "velocity": 0.3937007874015748
        },
        {
          "duration": 0.1578945000000047,
          "durationTicks": 192,
          "midi": 53,
          "name": "F3",
          "ticks": 76224,
          "time": 62.684116499999995,
          "velocity": 0.3937007874015748
        },
        {
          "duration": 0.1578945000000047,
          "durationTicks": 192,
          "midi": 35,
          "name": "B1",
          "ticks": 76224,
          "time": 62.684116499999995,
          "velocity": 0.3937007874015748
        },
        {
          "duration": 0.1578944999999976,
          "durationTicks": 192,
          "midi": 51,
          "name": "D#3",
          "ticks": 76416,
          "time": 62.842011,
          "velocity": 0.3937007874015748
        },
        {
          "duration": 0.3157889999999952,
          "durationTicks": 384,
          "midi": 38,
          "name": "D2",
          "ticks": 76416,
          "time": 62.842011,
          "velocity": 0.3937007874015748
        },
        {
          "duration": 0.1578944999999976,
          "durationTicks": 192,
          "midi": 53,
          "name": "F3",
          "ticks": 76608,
          "time": 62.9999055,
          "velocity": 0.3937007874015748
        },
        {
          "duration": 0.1578945000000047,
          "durationTicks": 192,
          "midi": 35,
          "name": "B1",
          "ticks": 76800,
          "time": 63.157799999999995,
          "velocity": 0.3937007874015748
        },
        {
          "duration": 0.1578945000000047,
          "durationTicks": 192,
          "midi": 53,
          "name": "F3",
          "ticks": 76800,
          "time": 63.157799999999995,
          "velocity": 0.3937007874015748
        },
        {
          "duration": 0.1578944999999976,
          "durationTicks": 192,
          "midi": 35,
          "name": "B1",
          "ticks": 76992,
          "time": 63.3156945,
          "velocity": 0.3937007874015748
        },
        {
          "duration": 0.1578944999999976,
          "durationTicks": 192,
          "midi": 53,
          "name": "F3",
          "ticks": 76992,
          "time": 63.3156945,
          "velocity": 0.3937007874015748
        },
        {
          "duration": 0.1578944999999976,
          "durationTicks": 192,
          "midi": 51,
          "name": "D#3",
          "ticks": 77184,
          "time": 63.473589,
          "velocity": 0.3937007874015748
        },
        {
          "duration": 0.3157890000000023,
          "durationTicks": 384,
          "midi": 38,
          "name": "D2",
          "ticks": 77184,
          "time": 63.473589,
          "velocity": 0.3937007874015748
        },
        {
          "duration": 0.1578945000000047,
          "durationTicks": 192,
          "midi": 53,
          "name": "F3",
          "ticks": 77376,
          "time": 63.631483499999995,
          "velocity": 0.3937007874015748
        },
        {
          "duration": 0.1578944999999976,
          "durationTicks": 192,
          "midi": 53,
          "name": "F3",
          "ticks": 77568,
          "time": 63.789378,
          "velocity": 0.3937007874015748
        },
        {
          "duration": 0.1578944999999976,
          "durationTicks": 192,
          "midi": 35,
          "name": "B1",
          "ticks": 77568,
          "time": 63.789378,
          "velocity": 0.3937007874015748
        },
        {
          "duration": 0.1578944999999976,
          "durationTicks": 192,
          "midi": 35,
          "name": "B1",
          "ticks": 77760,
          "time": 63.9472725,
          "velocity": 0.3937007874015748
        },
        {
          "duration": 0.1578944999999976,
          "durationTicks": 192,
          "midi": 53,
          "name": "F3",
          "ticks": 77760,
          "time": 63.9472725,
          "velocity": 0.3937007874015748
        },
        {
          "duration": 0.1578944999999976,
          "durationTicks": 192,
          "midi": 51,
          "name": "D#3",
          "ticks": 77952,
          "time": 64.105167,
          "velocity": 0.3937007874015748
        },
        {
          "duration": 0.3157890000000094,
          "durationTicks": 384,
          "midi": 38,
          "name": "D2",
          "ticks": 77952,
          "time": 64.105167,
          "velocity": 0.3937007874015748
        },
        {
          "duration": 0.15789450000001182,
          "durationTicks": 192,
          "midi": 53,
          "name": "F3",
          "ticks": 78144,
          "time": 64.26306149999999,
          "velocity": 0.3937007874015748
        },
        {
          "duration": 0.1578944999999976,
          "durationTicks": 192,
          "midi": 53,
          "name": "F3",
          "ticks": 78336,
          "time": 64.420956,
          "velocity": 0.3937007874015748
        },
        {
          "duration": 0.1578944999999976,
          "durationTicks": 192,
          "midi": 35,
          "name": "B1",
          "ticks": 78336,
          "time": 64.420956,
          "velocity": 0.3937007874015748
        },
        {
          "duration": 0.1578944999999976,
          "durationTicks": 192,
          "midi": 35,
          "name": "B1",
          "ticks": 78528,
          "time": 64.5788505,
          "velocity": 0.3937007874015748
        },
        {
          "duration": 0.1578944999999976,
          "durationTicks": 192,
          "midi": 53,
          "name": "F3",
          "ticks": 78528,
          "time": 64.5788505,
          "velocity": 0.3937007874015748
        },
        {
          "duration": 0.3157889999999952,
          "durationTicks": 384,
          "midi": 38,
          "name": "D2",
          "ticks": 78720,
          "time": 64.736745,
          "velocity": 0.3937007874015748
        },
        {
          "duration": 0.1578944999999976,
          "durationTicks": 192,
          "midi": 51,
          "name": "D#3",
          "ticks": 78720,
          "time": 64.736745,
          "velocity": 0.3937007874015748
        },
        {
          "duration": 0.1578944999999976,
          "durationTicks": 192,
          "midi": 53,
          "name": "F3",
          "ticks": 78912,
          "time": 64.8946395,
          "velocity": 0.3937007874015748
        },
        {
          "duration": 0.1578944999999976,
          "durationTicks": 192,
          "midi": 53,
          "name": "F3",
          "ticks": 79104,
          "time": 65.052534,
          "velocity": 0.3937007874015748
        },
        {
          "duration": 0.1578944999999976,
          "durationTicks": 192,
          "midi": 35,
          "name": "B1",
          "ticks": 79104,
          "time": 65.052534,
          "velocity": 0.3937007874015748
        },
        {
          "duration": 0.15789450000001182,
          "durationTicks": 192,
          "midi": 35,
          "name": "B1",
          "ticks": 79296,
          "time": 65.21042849999999,
          "velocity": 0.3937007874015748
        },
        {
          "duration": 0.15789450000001182,
          "durationTicks": 192,
          "midi": 53,
          "name": "F3",
          "ticks": 79296,
          "time": 65.21042849999999,
          "velocity": 0.3937007874015748
        },
        {
          "duration": 0.1578944999999976,
          "durationTicks": 192,
          "midi": 51,
          "name": "D#3",
          "ticks": 79488,
          "time": 65.368323,
          "velocity": 0.3937007874015748
        },
        {
          "duration": 0.3157889999999952,
          "durationTicks": 384,
          "midi": 38,
          "name": "D2",
          "ticks": 79488,
          "time": 65.368323,
          "velocity": 0.3937007874015748
        },
        {
          "duration": 0.1578944999999976,
          "durationTicks": 192,
          "midi": 53,
          "name": "F3",
          "ticks": 79680,
          "time": 65.5262175,
          "velocity": 0.3937007874015748
        },
        {
          "duration": 0.1578944999999976,
          "durationTicks": 192,
          "midi": 35,
          "name": "B1",
          "ticks": 79872,
          "time": 65.684112,
          "velocity": 0.3937007874015748
        },
        {
          "duration": 0.1578944999999976,
          "durationTicks": 192,
          "midi": 53,
          "name": "F3",
          "ticks": 79872,
          "time": 65.684112,
          "velocity": 0.3937007874015748
        },
        {
          "duration": 0.1578944999999976,
          "durationTicks": 192,
          "midi": 53,
          "name": "F3",
          "ticks": 80064,
          "time": 65.8420065,
          "velocity": 0.3937007874015748
        },
        {
          "duration": 0.1578944999999976,
          "durationTicks": 192,
          "midi": 35,
          "name": "B1",
          "ticks": 80064,
          "time": 65.8420065,
          "velocity": 0.3937007874015748
        },
        {
          "duration": 0.1578944999999976,
          "durationTicks": 192,
          "midi": 51,
          "name": "D#3",
          "ticks": 80256,
          "time": 65.999901,
          "velocity": 0.3937007874015748
        },
        {
          "duration": 0.3157890000000094,
          "durationTicks": 384,
          "midi": 38,
          "name": "D2",
          "ticks": 80256,
          "time": 65.999901,
          "velocity": 0.3937007874015748
        },
        {
          "duration": 0.15789450000001182,
          "durationTicks": 192,
          "midi": 53,
          "name": "F3",
          "ticks": 80448,
          "time": 66.15779549999999,
          "velocity": 0.3937007874015748
        },
        {
          "duration": 0.1578944999999976,
          "durationTicks": 192,
          "midi": 53,
          "name": "F3",
          "ticks": 80640,
          "time": 66.31569,
          "velocity": 0.3937007874015748
        },
        {
          "duration": 0.1578944999999976,
          "durationTicks": 192,
          "midi": 35,
          "name": "B1",
          "ticks": 80640,
          "time": 66.31569,
          "velocity": 0.3937007874015748
        },
        {
          "duration": 0.1578944999999976,
          "durationTicks": 192,
          "midi": 35,
          "name": "B1",
          "ticks": 80832,
          "time": 66.4735845,
          "velocity": 0.3937007874015748
        },
        {
          "duration": 0.1578944999999976,
          "durationTicks": 192,
          "midi": 53,
          "name": "F3",
          "ticks": 80832,
          "time": 66.4735845,
          "velocity": 0.3937007874015748
        },
        {
          "duration": 0.3157889999999952,
          "durationTicks": 384,
          "midi": 38,
          "name": "D2",
          "ticks": 81024,
          "time": 66.631479,
          "velocity": 0.3937007874015748
        },
        {
          "duration": 0.1578944999999976,
          "durationTicks": 192,
          "midi": 51,
          "name": "D#3",
          "ticks": 81024,
          "time": 66.631479,
          "velocity": 0.3937007874015748
        },
        {
          "duration": 0.1578944999999976,
          "durationTicks": 192,
          "midi": 53,
          "name": "F3",
          "ticks": 81216,
          "time": 66.7893735,
          "velocity": 0.3937007874015748
        },
        {
          "duration": 0.1578944999999976,
          "durationTicks": 192,
          "midi": 35,
          "name": "B1",
          "ticks": 81408,
          "time": 66.947268,
          "velocity": 0.3937007874015748
        },
        {
          "duration": 0.1578944999999976,
          "durationTicks": 192,
          "midi": 53,
          "name": "F3",
          "ticks": 81408,
          "time": 66.947268,
          "velocity": 0.3937007874015748
        },
        {
          "duration": 0.15789450000001182,
          "durationTicks": 192,
          "midi": 53,
          "name": "F3",
          "ticks": 81600,
          "time": 67.10516249999999,
          "velocity": 0.3937007874015748
        },
        {
          "duration": 0.15789450000001182,
          "durationTicks": 192,
          "midi": 35,
          "name": "B1",
          "ticks": 81600,
          "time": 67.10516249999999,
          "velocity": 0.3937007874015748
        },
        {
          "duration": 0.1578944999999976,
          "durationTicks": 192,
          "midi": 51,
          "name": "D#3",
          "ticks": 81792,
          "time": 67.263057,
          "velocity": 0.3937007874015748
        },
        {
          "duration": 0.3157889999999952,
          "durationTicks": 384,
          "midi": 38,
          "name": "D2",
          "ticks": 81792,
          "time": 67.263057,
          "velocity": 0.3937007874015748
        },
        {
          "duration": 0.1578944999999976,
          "durationTicks": 192,
          "midi": 53,
          "name": "F3",
          "ticks": 81984,
          "time": 67.4209515,
          "velocity": 0.3937007874015748
        },
        {
          "duration": 0.1578944999999976,
          "durationTicks": 192,
          "midi": 53,
          "name": "F3",
          "ticks": 82176,
          "time": 67.578846,
          "velocity": 0.3937007874015748
        },
        {
          "duration": 0.1578944999999976,
          "durationTicks": 192,
          "midi": 35,
          "name": "B1",
          "ticks": 82176,
          "time": 67.578846,
          "velocity": 0.3937007874015748
        },
        {
          "duration": 0.1578944999999976,
          "durationTicks": 192,
          "midi": 53,
          "name": "F3",
          "ticks": 82368,
          "time": 67.7367405,
          "velocity": 0.3937007874015748
        },
        {
          "duration": 0.1578944999999976,
          "durationTicks": 192,
          "midi": 35,
          "name": "B1",
          "ticks": 82368,
          "time": 67.7367405,
          "velocity": 0.3937007874015748
        },
        {
          "duration": 0.1578944999999976,
          "durationTicks": 192,
          "midi": 51,
          "name": "D#3",
          "ticks": 82560,
          "time": 67.894635,
          "velocity": 0.3937007874015748
        },
        {
          "duration": 0.3157890000000094,
          "durationTicks": 384,
          "midi": 38,
          "name": "D2",
          "ticks": 82560,
          "time": 67.894635,
          "velocity": 0.3937007874015748
        },
        {
          "duration": 0.15789450000001182,
          "durationTicks": 192,
          "midi": 53,
          "name": "F3",
          "ticks": 82752,
          "time": 68.05252949999999,
          "velocity": 0.3937007874015748
        },
        {
          "duration": 0.1578944999999976,
          "durationTicks": 192,
          "midi": 53,
          "name": "F3",
          "ticks": 82944,
          "time": 68.210424,
          "velocity": 0.3937007874015748
        },
        {
          "duration": 0.1578944999999976,
          "durationTicks": 192,
          "midi": 35,
          "name": "B1",
          "ticks": 82944,
          "time": 68.210424,
          "velocity": 0.3937007874015748
        },
        {
          "duration": 0.1578944999999976,
          "durationTicks": 192,
          "midi": 35,
          "name": "B1",
          "ticks": 83136,
          "time": 68.3683185,
          "velocity": 0.3937007874015748
        },
        {
          "duration": 0.1578944999999976,
          "durationTicks": 192,
          "midi": 53,
          "name": "F3",
          "ticks": 83136,
          "time": 68.3683185,
          "velocity": 0.3937007874015748
        },
        {
          "duration": 0.1578944999999976,
          "durationTicks": 192,
          "midi": 51,
          "name": "D#3",
          "ticks": 83328,
          "time": 68.526213,
          "velocity": 0.3937007874015748
        },
        {
          "duration": 0.3157889999999952,
          "durationTicks": 384,
          "midi": 38,
          "name": "D2",
          "ticks": 83328,
          "time": 68.526213,
          "velocity": 0.3937007874015748
        },
        {
          "duration": 0.1578944999999976,
          "durationTicks": 192,
          "midi": 53,
          "name": "F3",
          "ticks": 83520,
          "time": 68.6841075,
          "velocity": 0.3937007874015748
        },
        {
          "duration": 0.1578944999999976,
          "durationTicks": 192,
          "midi": 53,
          "name": "F3",
          "ticks": 83712,
          "time": 68.842002,
          "velocity": 0.3937007874015748
        },
        {
          "duration": 0.1578944999999976,
          "durationTicks": 192,
          "midi": 35,
          "name": "B1",
          "ticks": 83712,
          "time": 68.842002,
          "velocity": 0.3937007874015748
        },
        {
          "duration": 0.15789450000001182,
          "durationTicks": 192,
          "midi": 35,
          "name": "B1",
          "ticks": 83904,
          "time": 68.99989649999999,
          "velocity": 0.3937007874015748
        },
        {
          "duration": 0.15789450000001182,
          "durationTicks": 192,
          "midi": 53,
          "name": "F3",
          "ticks": 83904,
          "time": 68.99989649999999,
          "velocity": 0.3937007874015748
        },
        {
          "duration": 0.1578944999999976,
          "durationTicks": 192,
          "midi": 51,
          "name": "D#3",
          "ticks": 84096,
          "time": 69.157791,
          "velocity": 0.3937007874015748
        },
        {
          "duration": 0.3157889999999952,
          "durationTicks": 384,
          "midi": 38,
          "name": "D2",
          "ticks": 84096,
          "time": 69.157791,
          "velocity": 0.3937007874015748
        },
        {
          "duration": 0.1578944999999976,
          "durationTicks": 192,
          "midi": 53,
          "name": "F3",
          "ticks": 84288,
          "time": 69.3156855,
          "velocity": 0.3937007874015748
        },
        {
          "duration": 0.1578944999999976,
          "durationTicks": 192,
          "midi": 35,
          "name": "B1",
          "ticks": 84480,
          "time": 69.47358,
          "velocity": 0.3937007874015748
        },
        {
          "duration": 0.1578944999999976,
          "durationTicks": 192,
          "midi": 53,
          "name": "F3",
          "ticks": 84480,
          "time": 69.47358,
          "velocity": 0.3937007874015748
        },
        {
          "duration": 0.1578944999999976,
          "durationTicks": 192,
          "midi": 35,
          "name": "B1",
          "ticks": 84672,
          "time": 69.6314745,
          "velocity": 0.3937007874015748
        },
        {
          "duration": 0.1578944999999976,
          "durationTicks": 192,
          "midi": 53,
          "name": "F3",
          "ticks": 84672,
          "time": 69.6314745,
          "velocity": 0.3937007874015748
        },
        {
          "duration": 0.1578944999999976,
          "durationTicks": 192,
          "midi": 51,
          "name": "D#3",
          "ticks": 84864,
          "time": 69.789369,
          "velocity": 0.3937007874015748
        },
        {
          "duration": 0.3157890000000094,
          "durationTicks": 384,
          "midi": 38,
          "name": "D2",
          "ticks": 84864,
          "time": 69.789369,
          "velocity": 0.3937007874015748
        },
        {
          "duration": 0.15789450000001182,
          "durationTicks": 192,
          "midi": 53,
          "name": "F3",
          "ticks": 85056,
          "time": 69.94726349999999,
          "velocity": 0.3937007874015748
        },
        {
          "duration": 0.1578944999999976,
          "durationTicks": 192,
          "midi": 35,
          "name": "B1",
          "ticks": 85248,
          "time": 70.105158,
          "velocity": 0.3937007874015748
        },
        {
          "duration": 0.1578944999999976,
          "durationTicks": 192,
          "midi": 53,
          "name": "F3",
          "ticks": 85248,
          "time": 70.105158,
          "velocity": 0.3937007874015748
        },
        {
          "duration": 0.1578944999999976,
          "durationTicks": 192,
          "midi": 35,
          "name": "B1",
          "ticks": 85440,
          "time": 70.2630525,
          "velocity": 0.3937007874015748
        },
        {
          "duration": 0.1578944999999976,
          "durationTicks": 192,
          "midi": 53,
          "name": "F3",
          "ticks": 85440,
          "time": 70.2630525,
          "velocity": 0.3937007874015748
        },
        {
          "duration": 0.1578944999999976,
          "durationTicks": 192,
          "midi": 51,
          "name": "D#3",
          "ticks": 85632,
          "time": 70.420947,
          "velocity": 0.3937007874015748
        },
        {
          "duration": 0.3157889999999952,
          "durationTicks": 384,
          "midi": 38,
          "name": "D2",
          "ticks": 85632,
          "time": 70.420947,
          "velocity": 0.3937007874015748
        },
        {
          "duration": 0.1578944999999976,
          "durationTicks": 192,
          "midi": 53,
          "name": "F3",
          "ticks": 85824,
          "time": 70.5788415,
          "velocity": 0.3937007874015748
        },
        {
          "duration": 0.1578944999999976,
          "durationTicks": 192,
          "midi": 53,
          "name": "F3",
          "ticks": 86016,
          "time": 70.736736,
          "velocity": 0.3937007874015748
        },
        {
          "duration": 0.1578944999999976,
          "durationTicks": 192,
          "midi": 35,
          "name": "B1",
          "ticks": 86016,
          "time": 70.736736,
          "velocity": 0.3937007874015748
        },
        {
          "duration": 0.15789450000001182,
          "durationTicks": 192,
          "midi": 53,
          "name": "F3",
          "ticks": 86208,
          "time": 70.89463049999999,
          "velocity": 0.3937007874015748
        },
        {
          "duration": 0.15789450000001182,
          "durationTicks": 192,
          "midi": 35,
          "name": "B1",
          "ticks": 86208,
          "time": 70.89463049999999,
          "velocity": 0.3937007874015748
        },
        {
          "duration": 0.1578944999999976,
          "durationTicks": 192,
          "midi": 51,
          "name": "D#3",
          "ticks": 86400,
          "time": 71.052525,
          "velocity": 0.3937007874015748
        },
        {
          "duration": 0.3157889999999952,
          "durationTicks": 384,
          "midi": 38,
          "name": "D2",
          "ticks": 86400,
          "time": 71.052525,
          "velocity": 0.3937007874015748
        },
        {
          "duration": 0.1578944999999976,
          "durationTicks": 192,
          "midi": 53,
          "name": "F3",
          "ticks": 86592,
          "time": 71.2104195,
          "velocity": 0.3937007874015748
        },
        {
          "duration": 0.1578944999999976,
          "durationTicks": 192,
          "midi": 53,
          "name": "F3",
          "ticks": 86784,
          "time": 71.368314,
          "velocity": 0.3937007874015748
        },
        {
          "duration": 0.1578944999999976,
          "durationTicks": 192,
          "midi": 35,
          "name": "B1",
          "ticks": 86784,
          "time": 71.368314,
          "velocity": 0.3937007874015748
        },
        {
          "duration": 0.1578944999999976,
          "durationTicks": 192,
          "midi": 35,
          "name": "B1",
          "ticks": 86976,
          "time": 71.5262085,
          "velocity": 0.3937007874015748
        },
        {
          "duration": 0.1578944999999976,
          "durationTicks": 192,
          "midi": 53,
          "name": "F3",
          "ticks": 86976,
          "time": 71.5262085,
          "velocity": 0.3937007874015748
        },
        {
          "duration": 0.3157890000000094,
          "durationTicks": 384,
          "midi": 38,
          "name": "D2",
          "ticks": 87168,
          "time": 71.684103,
          "velocity": 0.3937007874015748
        },
        {
          "duration": 0.1578944999999976,
          "durationTicks": 192,
          "midi": 51,
          "name": "D#3",
          "ticks": 87168,
          "time": 71.684103,
          "velocity": 0.3937007874015748
        },
        {
          "duration": 0.15789450000001182,
          "durationTicks": 192,
          "midi": 53,
          "name": "F3",
          "ticks": 87360,
          "time": 71.84199749999999,
          "velocity": 0.3937007874015748
        },
        {
          "duration": 0.1578944999999976,
          "durationTicks": 192,
          "midi": 35,
          "name": "B1",
          "ticks": 87552,
          "time": 71.999892,
          "velocity": 0.3937007874015748
        },
        {
          "duration": 0.1578944999999976,
          "durationTicks": 192,
          "midi": 53,
          "name": "F3",
          "ticks": 87552,
          "time": 71.999892,
          "velocity": 0.3937007874015748
        },
        {
          "duration": 0.1578944999999976,
          "durationTicks": 192,
          "midi": 35,
          "name": "B1",
          "ticks": 87744,
          "time": 72.1577865,
          "velocity": 0.3937007874015748
        },
        {
          "duration": 0.1578944999999976,
          "durationTicks": 192,
          "midi": 53,
          "name": "F3",
          "ticks": 87744,
          "time": 72.1577865,
          "velocity": 0.3937007874015748
        },
        {
          "duration": 0.3157889999999952,
          "durationTicks": 384,
          "midi": 38,
          "name": "D2",
          "ticks": 87936,
          "time": 72.315681,
          "velocity": 0.3937007874015748
        },
        {
          "duration": 0.1578944999999976,
          "durationTicks": 192,
          "midi": 51,
          "name": "D#3",
          "ticks": 87936,
          "time": 72.315681,
          "velocity": 0.3937007874015748
        },
        {
          "duration": 0.1578944999999976,
          "durationTicks": 192,
          "midi": 53,
          "name": "F3",
          "ticks": 88128,
          "time": 72.4735755,
          "velocity": 0.3937007874015748
        },
        {
          "duration": 0.1578944999999976,
          "durationTicks": 192,
          "midi": 53,
          "name": "F3",
          "ticks": 88320,
          "time": 72.63147,
          "velocity": 0.3937007874015748
        },
        {
          "duration": 0.1578944999999976,
          "durationTicks": 192,
          "midi": 35,
          "name": "B1",
          "ticks": 88320,
          "time": 72.63147,
          "velocity": 0.3937007874015748
        },
        {
          "duration": 0.15789450000001182,
          "durationTicks": 192,
          "midi": 53,
          "name": "F3",
          "ticks": 88512,
          "time": 72.78936449999999,
          "velocity": 0.3937007874015748
        },
        {
          "duration": 0.15789450000001182,
          "durationTicks": 192,
          "midi": 35,
          "name": "B1",
          "ticks": 88512,
          "time": 72.78936449999999,
          "velocity": 0.3937007874015748
        },
        {
          "duration": 0.1578944999999976,
          "durationTicks": 192,
          "midi": 51,
          "name": "D#3",
          "ticks": 88704,
          "time": 72.947259,
          "velocity": 0.3937007874015748
        },
        {
          "duration": 0.3157889999999952,
          "durationTicks": 384,
          "midi": 38,
          "name": "D2",
          "ticks": 88704,
          "time": 72.947259,
          "velocity": 0.3937007874015748
        },
        {
          "duration": 0.1578944999999976,
          "durationTicks": 192,
          "midi": 53,
          "name": "F3",
          "ticks": 88896,
          "time": 73.1051535,
          "velocity": 0.3937007874015748
        },
        {
          "duration": 0.1578944999999976,
          "durationTicks": 192,
          "midi": 35,
          "name": "B1",
          "ticks": 89088,
          "time": 73.263048,
          "velocity": 0.3937007874015748
        },
        {
          "duration": 0.1578944999999976,
          "durationTicks": 192,
          "midi": 53,
          "name": "F3",
          "ticks": 89088,
          "time": 73.263048,
          "velocity": 0.3937007874015748
        },
        {
          "duration": 0.1578944999999976,
          "durationTicks": 192,
          "midi": 53,
          "name": "F3",
          "ticks": 89280,
          "time": 73.4209425,
          "velocity": 0.3937007874015748
        },
        {
          "duration": 0.1578944999999976,
          "durationTicks": 192,
          "midi": 35,
          "name": "B1",
          "ticks": 89280,
          "time": 73.4209425,
          "velocity": 0.3937007874015748
        },
        {
          "duration": 0.3157890000000094,
          "durationTicks": 384,
          "midi": 38,
          "name": "D2",
          "ticks": 89472,
          "time": 73.578837,
          "velocity": 0.3937007874015748
        },
        {
          "duration": 0.1578944999999976,
          "durationTicks": 192,
          "midi": 51,
          "name": "D#3",
          "ticks": 89472,
          "time": 73.578837,
          "velocity": 0.3937007874015748
        },
        {
          "duration": 0.15789450000001182,
          "durationTicks": 192,
          "midi": 53,
          "name": "F3",
          "ticks": 89664,
          "time": 73.73673149999999,
          "velocity": 0.3937007874015748
        },
        {
          "duration": 0.1578944999999976,
          "durationTicks": 192,
          "midi": 35,
          "name": "B1",
          "ticks": 89856,
          "time": 73.894626,
          "velocity": 0.3937007874015748
        },
        {
          "duration": 0.1578944999999976,
          "durationTicks": 192,
          "midi": 53,
          "name": "F3",
          "ticks": 89856,
          "time": 73.894626,
          "velocity": 0.3937007874015748
        },
        {
          "duration": 0.1578944999999976,
          "durationTicks": 192,
          "midi": 35,
          "name": "B1",
          "ticks": 90048,
          "time": 74.0525205,
          "velocity": 0.3937007874015748
        },
        {
          "duration": 0.1578944999999976,
          "durationTicks": 192,
          "midi": 53,
          "name": "F3",
          "ticks": 90048,
          "time": 74.0525205,
          "velocity": 0.3937007874015748
        },
        {
          "duration": 0.3157889999999952,
          "durationTicks": 384,
          "midi": 38,
          "name": "D2",
          "ticks": 90240,
          "time": 74.210415,
          "velocity": 0.3937007874015748
        },
        {
          "duration": 0.1578944999999976,
          "durationTicks": 192,
          "midi": 51,
          "name": "D#3",
          "ticks": 90240,
          "time": 74.210415,
          "velocity": 0.3937007874015748
        },
        {
          "duration": 0.1578944999999976,
          "durationTicks": 192,
          "midi": 53,
          "name": "F3",
          "ticks": 90432,
          "time": 74.3683095,
          "velocity": 0.3937007874015748
        },
        {
          "duration": 0.1578944999999976,
          "durationTicks": 192,
          "midi": 53,
          "name": "F3",
          "ticks": 90624,
          "time": 74.52620399999999,
          "velocity": 0.3937007874015748
        },
        {
          "duration": 0.1578944999999976,
          "durationTicks": 192,
          "midi": 35,
          "name": "B1",
          "ticks": 90624,
          "time": 74.52620399999999,
          "velocity": 0.3937007874015748
        },
        {
          "duration": 0.15789450000001182,
          "durationTicks": 192,
          "midi": 35,
          "name": "B1",
          "ticks": 90816,
          "time": 74.68409849999999,
          "velocity": 0.3937007874015748
        },
        {
          "duration": 0.15789450000001182,
          "durationTicks": 192,
          "midi": 53,
          "name": "F3",
          "ticks": 90816,
          "time": 74.68409849999999,
          "velocity": 0.3937007874015748
        },
        {
          "duration": 0.3157889999999952,
          "durationTicks": 384,
          "midi": 38,
          "name": "D2",
          "ticks": 91008,
          "time": 74.841993,
          "velocity": 0.3937007874015748
        },
        {
          "duration": 0.1578944999999976,
          "durationTicks": 192,
          "midi": 51,
          "name": "D#3",
          "ticks": 91008,
          "time": 74.841993,
          "velocity": 0.3937007874015748
        },
        {
          "duration": 0.1578944999999976,
          "durationTicks": 192,
          "midi": 53,
          "name": "F3",
          "ticks": 91200,
          "time": 74.9998875,
          "velocity": 0.3937007874015748
        },
        {
          "duration": 0.1578944999999976,
          "durationTicks": 192,
          "midi": 53,
          "name": "F3",
          "ticks": 91392,
          "time": 75.157782,
          "velocity": 0.3937007874015748
        },
        {
          "duration": 0.1578944999999976,
          "durationTicks": 192,
          "midi": 35,
          "name": "B1",
          "ticks": 91392,
          "time": 75.157782,
          "velocity": 0.3937007874015748
        },
        {
          "duration": 0.1578944999999976,
          "durationTicks": 192,
          "midi": 53,
          "name": "F3",
          "ticks": 91584,
          "time": 75.3156765,
          "velocity": 0.3937007874015748
        },
        {
          "duration": 0.1578944999999976,
          "durationTicks": 192,
          "midi": 35,
          "name": "B1",
          "ticks": 91584,
          "time": 75.3156765,
          "velocity": 0.3937007874015748
        },
        {
          "duration": 0.3157890000000094,
          "durationTicks": 384,
          "midi": 38,
          "name": "D2",
          "ticks": 91776,
          "time": 75.47357099999999,
          "velocity": 0.3937007874015748
        },
        {
          "duration": 0.1578944999999976,
          "durationTicks": 192,
          "midi": 51,
          "name": "D#3",
          "ticks": 91776,
          "time": 75.47357099999999,
          "velocity": 0.3937007874015748
        },
        {
          "duration": 0.15789450000001182,
          "durationTicks": 192,
          "midi": 53,
          "name": "F3",
          "ticks": 91968,
          "time": 75.63146549999999,
          "velocity": 0.3937007874015748
        },
        {
          "duration": 0.1578944999999976,
          "durationTicks": 192,
          "midi": 35,
          "name": "B1",
          "ticks": 92160,
          "time": 75.78936,
          "velocity": 0.3937007874015748
        },
        {
          "duration": 0.1578944999999976,
          "durationTicks": 192,
          "midi": 53,
          "name": "F3",
          "ticks": 92160,
          "time": 75.78936,
          "velocity": 0.3937007874015748
        },
        {
          "duration": 0.1578944999999976,
          "durationTicks": 192,
          "midi": 53,
          "name": "F3",
          "ticks": 92352,
          "time": 75.9472545,
          "velocity": 0.3937007874015748
        },
        {
          "duration": 0.1578944999999976,
          "durationTicks": 192,
          "midi": 35,
          "name": "B1",
          "ticks": 92352,
          "time": 75.9472545,
          "velocity": 0.3937007874015748
        },
        {
          "duration": 0.3157889999999952,
          "durationTicks": 384,
          "midi": 38,
          "name": "D2",
          "ticks": 92544,
          "time": 76.105149,
          "velocity": 0.3937007874015748
        },
        {
          "duration": 0.1578944999999976,
          "durationTicks": 192,
          "midi": 51,
          "name": "D#3",
          "ticks": 92544,
          "time": 76.105149,
          "velocity": 0.3937007874015748
        },
        {
          "duration": 0.1578944999999976,
          "durationTicks": 192,
          "midi": 53,
          "name": "F3",
          "ticks": 92736,
          "time": 76.2630435,
          "velocity": 0.3937007874015748
        },
        {
          "duration": 0.1578944999999976,
          "durationTicks": 192,
          "midi": 35,
          "name": "B1",
          "ticks": 92928,
          "time": 76.42093799999999,
          "velocity": 0.3937007874015748
        },
        {
          "duration": 0.1578944999999976,
          "durationTicks": 192,
          "midi": 53,
          "name": "F3",
          "ticks": 92928,
          "time": 76.42093799999999,
          "velocity": 0.3937007874015748
        },
        {
          "duration": 0.15789450000001182,
          "durationTicks": 192,
          "midi": 53,
          "name": "F3",
          "ticks": 93120,
          "time": 76.57883249999999,
          "velocity": 0.3937007874015748
        },
        {
          "duration": 0.15789450000001182,
          "durationTicks": 192,
          "midi": 35,
          "name": "B1",
          "ticks": 93120,
          "time": 76.57883249999999,
          "velocity": 0.3937007874015748
        },
        {
          "duration": 0.1578944999999976,
          "durationTicks": 192,
          "midi": 51,
          "name": "D#3",
          "ticks": 93312,
          "time": 76.736727,
          "velocity": 0.3937007874015748
        },
        {
          "duration": 0.3157889999999952,
          "durationTicks": 384,
          "midi": 38,
          "name": "D2",
          "ticks": 93312,
          "time": 76.736727,
          "velocity": 0.3937007874015748
        },
        {
          "duration": 0.1578944999999976,
          "durationTicks": 192,
          "midi": 53,
          "name": "F3",
          "ticks": 93504,
          "time": 76.8946215,
          "velocity": 0.3937007874015748
        },
        {
          "duration": 0.1578944999999976,
          "durationTicks": 192,
          "midi": 53,
          "name": "F3",
          "ticks": 93696,
          "time": 77.052516,
          "velocity": 0.3937007874015748
        },
        {
          "duration": 0.1578944999999976,
          "durationTicks": 192,
          "midi": 35,
          "name": "B1",
          "ticks": 93696,
          "time": 77.052516,
          "velocity": 0.3937007874015748
        },
        {
          "duration": 0.1578944999999976,
          "durationTicks": 192,
          "midi": 53,
          "name": "F3",
          "ticks": 93888,
          "time": 77.2104105,
          "velocity": 0.3937007874015748
        },
        {
          "duration": 0.1578944999999976,
          "durationTicks": 192,
          "midi": 35,
          "name": "B1",
          "ticks": 93888,
          "time": 77.2104105,
          "velocity": 0.3937007874015748
        },
        {
          "duration": 0.3157890000000094,
          "durationTicks": 384,
          "midi": 38,
          "name": "D2",
          "ticks": 94080,
          "time": 77.36830499999999,
          "velocity": 0.3937007874015748
        },
        {
          "duration": 0.1578944999999976,
          "durationTicks": 192,
          "midi": 51,
          "name": "D#3",
          "ticks": 94080,
          "time": 77.36830499999999,
          "velocity": 0.3937007874015748
        },
        {
          "duration": 0.15789450000001182,
          "durationTicks": 192,
          "midi": 53,
          "name": "F3",
          "ticks": 94272,
          "time": 77.52619949999999,
          "velocity": 0.3937007874015748
        },
        {
          "duration": 0.1578944999999976,
          "durationTicks": 192,
          "midi": 53,
          "name": "F3",
          "ticks": 94464,
          "time": 77.684094,
          "velocity": 0.3937007874015748
        },
        {
          "duration": 0.1578944999999976,
          "durationTicks": 192,
          "midi": 35,
          "name": "B1",
          "ticks": 94464,
          "time": 77.684094,
          "velocity": 0.3937007874015748
        },
        {
          "duration": 0.1578944999999976,
          "durationTicks": 192,
          "midi": 35,
          "name": "B1",
          "ticks": 94656,
          "time": 77.8419885,
          "velocity": 0.3937007874015748
        },
        {
          "duration": 0.1578944999999976,
          "durationTicks": 192,
          "midi": 53,
          "name": "F3",
          "ticks": 94656,
          "time": 77.8419885,
          "velocity": 0.3937007874015748
        },
        {
          "duration": 0.1578944999999976,
          "durationTicks": 192,
          "midi": 51,
          "name": "D#3",
          "ticks": 94848,
          "time": 77.999883,
          "velocity": 0.3937007874015748
        },
        {
          "duration": 0.3157889999999952,
          "durationTicks": 384,
          "midi": 38,
          "name": "D2",
          "ticks": 94848,
          "time": 77.999883,
          "velocity": 0.3937007874015748
        },
        {
          "duration": 0.1578944999999976,
          "durationTicks": 192,
          "midi": 53,
          "name": "F3",
          "ticks": 95040,
          "time": 78.1577775,
          "velocity": 0.3937007874015748
        },
        {
          "duration": 0.1578944999999976,
          "durationTicks": 192,
          "midi": 35,
          "name": "B1",
          "ticks": 95232,
          "time": 78.31567199999999,
          "velocity": 0.3937007874015748
        },
        {
          "duration": 0.1578944999999976,
          "durationTicks": 192,
          "midi": 53,
          "name": "F3",
          "ticks": 95232,
          "time": 78.31567199999999,
          "velocity": 0.3937007874015748
        },
        {
          "duration": 0.15789450000001182,
          "durationTicks": 192,
          "midi": 53,
          "name": "F3",
          "ticks": 95424,
          "time": 78.47356649999999,
          "velocity": 0.3937007874015748
        },
        {
          "duration": 0.15789450000001182,
          "durationTicks": 192,
          "midi": 35,
          "name": "B1",
          "ticks": 95424,
          "time": 78.47356649999999,
          "velocity": 0.3937007874015748
        },
        {
          "duration": 0.1578944999999976,
          "durationTicks": 192,
          "midi": 51,
          "name": "D#3",
          "ticks": 95616,
          "time": 78.631461,
          "velocity": 0.3937007874015748
        },
        {
          "duration": 0.3157889999999952,
          "durationTicks": 384,
          "midi": 38,
          "name": "D2",
          "ticks": 95616,
          "time": 78.631461,
          "velocity": 0.3937007874015748
        },
        {
          "duration": 0.1578944999999976,
          "durationTicks": 192,
          "midi": 53,
          "name": "F3",
          "ticks": 95808,
          "time": 78.7893555,
          "velocity": 0.3937007874015748
        },
        {
          "duration": 0.1578944999999976,
          "durationTicks": 192,
          "midi": 35,
          "name": "B1",
          "ticks": 96000,
          "time": 78.94725,
          "velocity": 0.3937007874015748
        },
        {
          "duration": 0.1578944999999976,
          "durationTicks": 192,
          "midi": 53,
          "name": "F3",
          "ticks": 96000,
          "time": 78.94725,
          "velocity": 0.3937007874015748
        },
        {
          "duration": 0.1578944999999976,
          "durationTicks": 192,
          "midi": 53,
          "name": "F3",
          "ticks": 96192,
          "time": 79.1051445,
          "velocity": 0.3937007874015748
        },
        {
          "duration": 0.1578944999999976,
          "durationTicks": 192,
          "midi": 35,
          "name": "B1",
          "ticks": 96192,
          "time": 79.1051445,
          "velocity": 0.3937007874015748
        },
        {
          "duration": 0.1578944999999976,
          "durationTicks": 192,
          "midi": 51,
          "name": "D#3",
          "ticks": 96384,
          "time": 79.26303899999999,
          "velocity": 0.3937007874015748
        },
        {
          "duration": 0.3157890000000094,
          "durationTicks": 384,
          "midi": 38,
          "name": "D2",
          "ticks": 96384,
          "time": 79.26303899999999,
          "velocity": 0.3937007874015748
        },
        {
          "duration": 0.15789450000001182,
          "durationTicks": 192,
          "midi": 53,
          "name": "F3",
          "ticks": 96576,
          "time": 79.42093349999999,
          "velocity": 0.3937007874015748
        },
        {
          "duration": 0.1578944999999976,
          "durationTicks": 192,
          "midi": 53,
          "name": "F3",
          "ticks": 96768,
          "time": 79.578828,
          "velocity": 0.3937007874015748
        },
        {
          "duration": 0.1578944999999976,
          "durationTicks": 192,
          "midi": 35,
          "name": "B1",
          "ticks": 96768,
          "time": 79.578828,
          "velocity": 0.3937007874015748
        },
        {
          "duration": 0.1578944999999976,
          "durationTicks": 192,
          "midi": 53,
          "name": "F3",
          "ticks": 96960,
          "time": 79.7367225,
          "velocity": 0.3937007874015748
        },
        {
          "duration": 0.1578944999999976,
          "durationTicks": 192,
          "midi": 35,
          "name": "B1",
          "ticks": 96960,
          "time": 79.7367225,
          "velocity": 0.3937007874015748
        },
        {
          "duration": 0.3157889999999952,
          "durationTicks": 384,
          "midi": 38,
          "name": "D2",
          "ticks": 97152,
          "time": 79.894617,
          "velocity": 0.3937007874015748
        },
        {
          "duration": 0.1578944999999976,
          "durationTicks": 192,
          "midi": 51,
          "name": "D#3",
          "ticks": 97152,
          "time": 79.894617,
          "velocity": 0.3937007874015748
        },
        {
          "duration": 0.1578944999999976,
          "durationTicks": 192,
          "midi": 53,
          "name": "F3",
          "ticks": 97344,
          "time": 80.0525115,
          "velocity": 0.3937007874015748
        },
        {
          "duration": 0.1578944999999976,
          "durationTicks": 192,
          "midi": 53,
          "name": "F3",
          "ticks": 97536,
          "time": 80.21040599999999,
          "velocity": 0.3937007874015748
        },
        {
          "duration": 0.1578944999999976,
          "durationTicks": 192,
          "midi": 35,
          "name": "B1",
          "ticks": 97536,
          "time": 80.21040599999999,
          "velocity": 0.3937007874015748
        },
        {
          "duration": 0.15789450000001182,
          "durationTicks": 192,
          "midi": 53,
          "name": "F3",
          "ticks": 97728,
          "time": 80.36830049999999,
          "velocity": 0.3937007874015748
        },
        {
          "duration": 0.15789450000001182,
          "durationTicks": 192,
          "midi": 35,
          "name": "B1",
          "ticks": 97728,
          "time": 80.36830049999999,
          "velocity": 0.3937007874015748
        },
        {
          "duration": 0.1578944999999976,
          "durationTicks": 192,
          "midi": 51,
          "name": "D#3",
          "ticks": 97920,
          "time": 80.526195,
          "velocity": 0.3937007874015748
        },
        {
          "duration": 0.3157889999999952,
          "durationTicks": 384,
          "midi": 38,
          "name": "D2",
          "ticks": 97920,
          "time": 80.526195,
          "velocity": 0.3937007874015748
        },
        {
          "duration": 0.1578944999999976,
          "durationTicks": 192,
          "midi": 53,
          "name": "F3",
          "ticks": 98112,
          "time": 80.6840895,
          "velocity": 0.3937007874015748
        },
        {
          "duration": 0.1578944999999976,
          "durationTicks": 192,
          "midi": 53,
          "name": "F3",
          "ticks": 98304,
          "time": 80.841984,
          "velocity": 0.3937007874015748
        },
        {
          "duration": 0.1578944999999976,
          "durationTicks": 192,
          "midi": 35,
          "name": "B1",
          "ticks": 98304,
          "time": 80.841984,
          "velocity": 0.3937007874015748
        },
        {
          "duration": 0.1578944999999976,
          "durationTicks": 192,
          "midi": 35,
          "name": "B1",
          "ticks": 98496,
          "time": 80.9998785,
          "velocity": 0.3937007874015748
        },
        {
          "duration": 0.1578944999999976,
          "durationTicks": 192,
          "midi": 53,
          "name": "F3",
          "ticks": 98496,
          "time": 80.9998785,
          "velocity": 0.3937007874015748
        },
        {
          "duration": 0.3157890000000094,
          "durationTicks": 384,
          "midi": 38,
          "name": "D2",
          "ticks": 98688,
          "time": 81.15777299999999,
          "velocity": 0.3937007874015748
        },
        {
          "duration": 0.15789450000001182,
          "durationTicks": 192,
          "midi": 51,
          "name": "D#3",
          "ticks": 98688,
          "time": 81.15777299999999,
          "velocity": 0.3937007874015748
        },
        {
          "duration": 0.1578944999999976,
          "durationTicks": 192,
          "midi": 53,
          "name": "F3",
          "ticks": 98880,
          "time": 81.3156675,
          "velocity": 0.3937007874015748
        },
        {
          "duration": 0.1578944999999976,
          "durationTicks": 192,
          "midi": 35,
          "name": "B1",
          "ticks": 99072,
          "time": 81.473562,
          "velocity": 0.3937007874015748
        },
        {
          "duration": 0.1578944999999976,
          "durationTicks": 192,
          "midi": 53,
          "name": "F3",
          "ticks": 99072,
          "time": 81.473562,
          "velocity": 0.3937007874015748
        },
        {
          "duration": 0.1578944999999976,
          "durationTicks": 192,
          "midi": 53,
          "name": "F3",
          "ticks": 99264,
          "time": 81.6314565,
          "velocity": 0.3937007874015748
        },
        {
          "duration": 0.1578944999999976,
          "durationTicks": 192,
          "midi": 35,
          "name": "B1",
          "ticks": 99264,
          "time": 81.6314565,
          "velocity": 0.3937007874015748
        },
        {
          "duration": 0.3157889999999952,
          "durationTicks": 384,
          "midi": 38,
          "name": "D2",
          "ticks": 99456,
          "time": 81.789351,
          "velocity": 0.3937007874015748
        },
        {
          "duration": 0.1578944999999976,
          "durationTicks": 192,
          "midi": 51,
          "name": "D#3",
          "ticks": 99456,
          "time": 81.789351,
          "velocity": 0.3937007874015748
        },
        {
          "duration": 0.1578944999999976,
          "durationTicks": 192,
          "midi": 53,
          "name": "F3",
          "ticks": 99648,
          "time": 81.9472455,
          "velocity": 0.3937007874015748
        },
        {
          "duration": 0.15789450000001182,
          "durationTicks": 192,
          "midi": 53,
          "name": "F3",
          "ticks": 99840,
          "time": 82.10513999999999,
          "velocity": 0.3937007874015748
        },
        {
          "duration": 0.15789450000001182,
          "durationTicks": 192,
          "midi": 35,
          "name": "B1",
          "ticks": 99840,
          "time": 82.10513999999999,
          "velocity": 0.3937007874015748
        },
        {
          "duration": 0.1578944999999976,
          "durationTicks": 192,
          "midi": 35,
          "name": "B1",
          "ticks": 100032,
          "time": 82.2630345,
          "velocity": 0.3937007874015748
        },
        {
          "duration": 0.1578944999999976,
          "durationTicks": 192,
          "midi": 53,
          "name": "F3",
          "ticks": 100032,
          "time": 82.2630345,
          "velocity": 0.3937007874015748
        },
        {
          "duration": 0.3157889999999952,
          "durationTicks": 384,
          "midi": 38,
          "name": "D2",
          "ticks": 100224,
          "time": 82.420929,
          "velocity": 0.3937007874015748
        },
        {
          "duration": 0.1578944999999976,
          "durationTicks": 192,
          "midi": 51,
          "name": "D#3",
          "ticks": 100224,
          "time": 82.420929,
          "velocity": 0.3937007874015748
        },
        {
          "duration": 0.1578944999999976,
          "durationTicks": 192,
          "midi": 53,
          "name": "F3",
          "ticks": 100416,
          "time": 82.5788235,
          "velocity": 0.3937007874015748
        },
        {
          "duration": 0.1578944999999976,
          "durationTicks": 192,
          "midi": 35,
          "name": "B1",
          "ticks": 100608,
          "time": 82.736718,
          "velocity": 0.3937007874015748
        },
        {
          "duration": 0.1578944999999976,
          "durationTicks": 192,
          "midi": 53,
          "name": "F3",
          "ticks": 100608,
          "time": 82.736718,
          "velocity": 0.3937007874015748
        },
        {
          "duration": 0.1578944999999976,
          "durationTicks": 192,
          "midi": 35,
          "name": "B1",
          "ticks": 100800,
          "time": 82.8946125,
          "velocity": 0.3937007874015748
        },
        {
          "duration": 0.1578944999999976,
          "durationTicks": 192,
          "midi": 53,
          "name": "F3",
          "ticks": 100800,
          "time": 82.8946125,
          "velocity": 0.3937007874015748
        },
        {
          "duration": 0.3157890000000094,
          "durationTicks": 384,
          "midi": 38,
          "name": "D2",
          "ticks": 100992,
          "time": 83.05250699999999,
          "velocity": 0.3937007874015748
        },
        {
          "duration": 0.15789450000001182,
          "durationTicks": 192,
          "midi": 51,
          "name": "D#3",
          "ticks": 100992,
          "time": 83.05250699999999,
          "velocity": 0.3937007874015748
        },
        {
          "duration": 0.1578944999999976,
          "durationTicks": 192,
          "midi": 53,
          "name": "F3",
          "ticks": 101184,
          "time": 83.2104015,
          "velocity": 0.3937007874015748
        },
        {
          "duration": 0.1578944999999976,
          "durationTicks": 192,
          "midi": 35,
          "name": "B1",
          "ticks": 101376,
          "time": 83.368296,
          "velocity": 0.3937007874015748
        },
        {
          "duration": 0.1578944999999976,
          "durationTicks": 192,
          "midi": 53,
          "name": "F3",
          "ticks": 101376,
          "time": 83.368296,
          "velocity": 0.3937007874015748
        },
        {
          "duration": 0.1578944999999976,
          "durationTicks": 192,
          "midi": 53,
          "name": "F3",
          "ticks": 101568,
          "time": 83.5261905,
          "velocity": 0.3937007874015748
        },
        {
          "duration": 0.1578944999999976,
          "durationTicks": 192,
          "midi": 35,
          "name": "B1",
          "ticks": 101568,
          "time": 83.5261905,
          "velocity": 0.3937007874015748
        },
        {
          "duration": 0.1578944999999976,
          "durationTicks": 192,
          "midi": 51,
          "name": "D#3",
          "ticks": 101760,
          "time": 83.684085,
          "velocity": 0.3937007874015748
        },
        {
          "duration": 0.3157889999999952,
          "durationTicks": 384,
          "midi": 38,
          "name": "D2",
          "ticks": 101760,
          "time": 83.684085,
          "velocity": 0.3937007874015748
        },
        {
          "duration": 0.1578944999999976,
          "durationTicks": 192,
          "midi": 53,
          "name": "F3",
          "ticks": 101952,
          "time": 83.8419795,
          "velocity": 0.3937007874015748
        },
        {
          "duration": 0.15789450000001182,
          "durationTicks": 192,
          "midi": 53,
          "name": "F3",
          "ticks": 102144,
          "time": 83.99987399999999,
          "velocity": 0.3937007874015748
        },
        {
          "duration": 0.15789450000001182,
          "durationTicks": 192,
          "midi": 35,
          "name": "B1",
          "ticks": 102144,
          "time": 83.99987399999999,
          "velocity": 0.3937007874015748
        },
        {
          "duration": 0.1578944999999976,
          "durationTicks": 192,
          "midi": 35,
          "name": "B1",
          "ticks": 102336,
          "time": 84.1577685,
          "velocity": 0.3937007874015748
        },
        {
          "duration": 0.1578944999999976,
          "durationTicks": 192,
          "midi": 53,
          "name": "F3",
          "ticks": 102336,
          "time": 84.1577685,
          "velocity": 0.3937007874015748
        },
        {
          "duration": 0.3157889999999952,
          "durationTicks": 384,
          "midi": 38,
          "name": "D2",
          "ticks": 102528,
          "time": 84.315663,
          "velocity": 0.3937007874015748
        },
        {
          "duration": 0.1578944999999976,
          "durationTicks": 192,
          "midi": 51,
          "name": "D#3",
          "ticks": 102528,
          "time": 84.315663,
          "velocity": 0.3937007874015748
        },
        {
          "duration": 0.1578944999999976,
          "durationTicks": 192,
          "midi": 53,
          "name": "F3",
          "ticks": 102720,
          "time": 84.4735575,
          "velocity": 0.3937007874015748
        },
        {
          "duration": 0.1578944999999976,
          "durationTicks": 192,
          "midi": 35,
          "name": "B1",
          "ticks": 102912,
          "time": 84.631452,
          "velocity": 0.3937007874015748
        },
        {
          "duration": 0.1578944999999976,
          "durationTicks": 192,
          "midi": 53,
          "name": "F3",
          "ticks": 102912,
          "time": 84.631452,
          "velocity": 0.3937007874015748
        },
        {
          "duration": 0.1578944999999976,
          "durationTicks": 192,
          "midi": 35,
          "name": "B1",
          "ticks": 103104,
          "time": 84.7893465,
          "velocity": 0.3937007874015748
        },
        {
          "duration": 0.1578944999999976,
          "durationTicks": 192,
          "midi": 53,
          "name": "F3",
          "ticks": 103104,
          "time": 84.7893465,
          "velocity": 0.3937007874015748
        },
        {
          "duration": 0.15789450000001182,
          "durationTicks": 192,
          "midi": 51,
          "name": "D#3",
          "ticks": 103296,
          "time": 84.94724099999999,
          "velocity": 0.3937007874015748
        },
        {
          "duration": 0.3157890000000094,
          "durationTicks": 384,
          "midi": 38,
          "name": "D2",
          "ticks": 103296,
          "time": 84.94724099999999,
          "velocity": 0.3937007874015748
        },
        {
          "duration": 0.1578944999999976,
          "durationTicks": 192,
          "midi": 53,
          "name": "F3",
          "ticks": 103488,
          "time": 85.1051355,
          "velocity": 0.3937007874015748
        },
        {
          "duration": 0.1578944999999976,
          "durationTicks": 192,
          "midi": 53,
          "name": "F3",
          "ticks": 103680,
          "time": 85.26303,
          "velocity": 0.3937007874015748
        },
        {
          "duration": 0.1578944999999976,
          "durationTicks": 192,
          "midi": 35,
          "name": "B1",
          "ticks": 103680,
          "time": 85.26303,
          "velocity": 0.3937007874015748
        },
        {
          "duration": 0.1578944999999976,
          "durationTicks": 192,
          "midi": 53,
          "name": "F3",
          "ticks": 103872,
          "time": 85.4209245,
          "velocity": 0.3937007874015748
        },
        {
          "duration": 0.1578944999999976,
          "durationTicks": 192,
          "midi": 35,
          "name": "B1",
          "ticks": 103872,
          "time": 85.4209245,
          "velocity": 0.3937007874015748
        },
        {
          "duration": 0.3157889999999952,
          "durationTicks": 384,
          "midi": 38,
          "name": "D2",
          "ticks": 104064,
          "time": 85.578819,
          "velocity": 0.3937007874015748
        },
        {
          "duration": 0.1578944999999976,
          "durationTicks": 192,
          "midi": 51,
          "name": "D#3",
          "ticks": 104064,
          "time": 85.578819,
          "velocity": 0.3937007874015748
        },
        {
          "duration": 0.1578944999999976,
          "durationTicks": 192,
          "midi": 53,
          "name": "F3",
          "ticks": 104256,
          "time": 85.7367135,
          "velocity": 0.3937007874015748
        },
        {
          "duration": 0.15789450000001182,
          "durationTicks": 192,
          "midi": 53,
          "name": "F3",
          "ticks": 104448,
          "time": 85.89460799999999,
          "velocity": 0.3937007874015748
        },
        {
          "duration": 0.15789450000001182,
          "durationTicks": 192,
          "midi": 35,
          "name": "B1",
          "ticks": 104448,
          "time": 85.89460799999999,
          "velocity": 0.3937007874015748
        },
        {
          "duration": 0.1578944999999976,
          "durationTicks": 192,
          "midi": 53,
          "name": "F3",
          "ticks": 104640,
          "time": 86.0525025,
          "velocity": 0.3937007874015748
        },
        {
          "duration": 0.1578944999999976,
          "durationTicks": 192,
          "midi": 35,
          "name": "B1",
          "ticks": 104640,
          "time": 86.0525025,
          "velocity": 0.3937007874015748
        },
        {
          "duration": 0.3157889999999952,
          "durationTicks": 384,
          "midi": 38,
          "name": "D2",
          "ticks": 104832,
          "time": 86.210397,
          "velocity": 0.3937007874015748
        },
        {
          "duration": 0.1578944999999976,
          "durationTicks": 192,
          "midi": 51,
          "name": "D#3",
          "ticks": 104832,
          "time": 86.210397,
          "velocity": 0.3937007874015748
        },
        {
          "duration": 0.1578944999999976,
          "durationTicks": 192,
          "midi": 53,
          "name": "F3",
          "ticks": 105024,
          "time": 86.3682915,
          "velocity": 0.3937007874015748
        },
        {
          "duration": 0.1578944999999976,
          "durationTicks": 192,
          "midi": 53,
          "name": "F3",
          "ticks": 105216,
          "time": 86.526186,
          "velocity": 0.3937007874015748
        },
        {
          "duration": 0.1578944999999976,
          "durationTicks": 192,
          "midi": 35,
          "name": "B1",
          "ticks": 105216,
          "time": 86.526186,
          "velocity": 0.3937007874015748
        },
        {
          "duration": 0.1578944999999976,
          "durationTicks": 192,
          "midi": 35,
          "name": "B1",
          "ticks": 105408,
          "time": 86.6840805,
          "velocity": 0.3937007874015748
        },
        {
          "duration": 0.1578944999999976,
          "durationTicks": 192,
          "midi": 53,
          "name": "F3",
          "ticks": 105408,
          "time": 86.6840805,
          "velocity": 0.3937007874015748
        },
        {
          "duration": 0.3157890000000094,
          "durationTicks": 384,
          "midi": 38,
          "name": "D2",
          "ticks": 105600,
          "time": 86.84197499999999,
          "velocity": 0.3937007874015748
        },
        {
          "duration": 0.15789450000001182,
          "durationTicks": 192,
          "midi": 51,
          "name": "D#3",
          "ticks": 105600,
          "time": 86.84197499999999,
          "velocity": 0.3937007874015748
        },
        {
          "duration": 0.1578944999999976,
          "durationTicks": 192,
          "midi": 53,
          "name": "F3",
          "ticks": 105792,
          "time": 86.9998695,
          "velocity": 0.3937007874015748
        },
        {
          "duration": 0.1578944999999976,
          "durationTicks": 192,
          "midi": 53,
          "name": "F3",
          "ticks": 105984,
          "time": 87.157764,
          "velocity": 0.3937007874015748
        },
        {
          "duration": 0.1578944999999976,
          "durationTicks": 192,
          "midi": 35,
          "name": "B1",
          "ticks": 105984,
          "time": 87.157764,
          "velocity": 0.3937007874015748
        },
        {
          "duration": 0.1578944999999976,
          "durationTicks": 192,
          "midi": 53,
          "name": "F3",
          "ticks": 106176,
          "time": 87.3156585,
          "velocity": 0.3937007874015748
        },
        {
          "duration": 0.1578944999999976,
          "durationTicks": 192,
          "midi": 35,
          "name": "B1",
          "ticks": 106176,
          "time": 87.3156585,
          "velocity": 0.3937007874015748
        },
        {
          "duration": 0.3157889999999952,
          "durationTicks": 384,
          "midi": 38,
          "name": "D2",
          "ticks": 106368,
          "time": 87.473553,
          "velocity": 0.3937007874015748
        },
        {
          "duration": 0.1578944999999976,
          "durationTicks": 192,
          "midi": 51,
          "name": "D#3",
          "ticks": 106368,
          "time": 87.473553,
          "velocity": 0.3937007874015748
        },
        {
          "duration": 0.1578944999999976,
          "durationTicks": 192,
          "midi": 53,
          "name": "F3",
          "ticks": 106560,
          "time": 87.6314475,
          "velocity": 0.3937007874015748
        },
        {
          "duration": 0.15789450000001182,
          "durationTicks": 192,
          "midi": 53,
          "name": "F3",
          "ticks": 106752,
          "time": 87.78934199999999,
          "velocity": 0.3937007874015748
        },
        {
          "duration": 0.15789450000001182,
          "durationTicks": 192,
          "midi": 35,
          "name": "B1",
          "ticks": 106752,
          "time": 87.78934199999999,
          "velocity": 0.3937007874015748
        },
        {
          "duration": 0.1578944999999976,
          "durationTicks": 192,
          "midi": 53,
          "name": "F3",
          "ticks": 106944,
          "time": 87.9472365,
          "velocity": 0.3937007874015748
        },
        {
          "duration": 0.1578944999999976,
          "durationTicks": 192,
          "midi": 35,
          "name": "B1",
          "ticks": 106944,
          "time": 87.9472365,
          "velocity": 0.3937007874015748
        },
        {
          "duration": 0.3157889999999952,
          "durationTicks": 384,
          "midi": 38,
          "name": "D2",
          "ticks": 107136,
          "time": 88.105131,
          "velocity": 0.3937007874015748
        },
        {
          "duration": 0.1578944999999976,
          "durationTicks": 192,
          "midi": 51,
          "name": "D#3",
          "ticks": 107136,
          "time": 88.105131,
          "velocity": 0.3937007874015748
        },
        {
          "duration": 0.1578944999999976,
          "durationTicks": 192,
          "midi": 53,
          "name": "F3",
          "ticks": 107328,
          "time": 88.2630255,
          "velocity": 0.3937007874015748
        },
        {
          "duration": 0.1578944999999976,
          "durationTicks": 192,
          "midi": 53,
          "name": "F3",
          "ticks": 107520,
          "time": 88.42092,
          "velocity": 0.3937007874015748
        },
        {
          "duration": 0.1578944999999976,
          "durationTicks": 192,
          "midi": 35,
          "name": "B1",
          "ticks": 107520,
          "time": 88.42092,
          "velocity": 0.3937007874015748
        },
        {
          "duration": 0.1578944999999976,
          "durationTicks": 192,
          "midi": 35,
          "name": "B1",
          "ticks": 107712,
          "time": 88.5788145,
          "velocity": 0.3937007874015748
        },
        {
          "duration": 0.1578944999999976,
          "durationTicks": 192,
          "midi": 53,
          "name": "F3",
          "ticks": 107712,
          "time": 88.5788145,
          "velocity": 0.3937007874015748
        },
        {
          "duration": 0.15789450000001182,
          "durationTicks": 192,
          "midi": 51,
          "name": "D#3",
          "ticks": 107904,
          "time": 88.73670899999999,
          "velocity": 0.3937007874015748
        },
        {
          "duration": 0.3157890000000094,
          "durationTicks": 384,
          "midi": 38,
          "name": "D2",
          "ticks": 107904,
          "time": 88.73670899999999,
          "velocity": 0.3937007874015748
        },
        {
          "duration": 0.1578944999999976,
          "durationTicks": 192,
          "midi": 53,
          "name": "F3",
          "ticks": 108096,
          "time": 88.8946035,
          "velocity": 0.3937007874015748
        },
        {
          "duration": 0.1578944999999976,
          "durationTicks": 192,
          "midi": 53,
          "name": "F3",
          "ticks": 108288,
          "time": 89.052498,
          "velocity": 0.3937007874015748
        },
        {
          "duration": 0.1578944999999976,
          "durationTicks": 192,
          "midi": 35,
          "name": "B1",
          "ticks": 108288,
          "time": 89.052498,
          "velocity": 0.3937007874015748
        },
        {
          "duration": 0.1578944999999976,
          "durationTicks": 192,
          "midi": 35,
          "name": "B1",
          "ticks": 108480,
          "time": 89.2103925,
          "velocity": 0.3937007874015748
        },
        {
          "duration": 0.1578944999999976,
          "durationTicks": 192,
          "midi": 53,
          "name": "F3",
          "ticks": 108480,
          "time": 89.2103925,
          "velocity": 0.3937007874015748
        },
        {
          "duration": 0.1578944999999976,
          "durationTicks": 192,
          "midi": 51,
          "name": "D#3",
          "ticks": 108672,
          "time": 89.368287,
          "velocity": 0.3937007874015748
        },
        {
          "duration": 0.3157889999999952,
          "durationTicks": 384,
          "midi": 38,
          "name": "D2",
          "ticks": 108672,
          "time": 89.368287,
          "velocity": 0.3937007874015748
        },
        {
          "duration": 0.1578944999999976,
          "durationTicks": 192,
          "midi": 53,
          "name": "F3",
          "ticks": 108864,
          "time": 89.52618149999999,
          "velocity": 0.3937007874015748
        },
        {
          "duration": 0.15789450000001182,
          "durationTicks": 192,
          "midi": 35,
          "name": "B1",
          "ticks": 109056,
          "time": 89.68407599999999,
          "velocity": 0.3937007874015748
        },
        {
          "duration": 0.15789450000001182,
          "durationTicks": 192,
          "midi": 53,
          "name": "F3",
          "ticks": 109056,
          "time": 89.68407599999999,
          "velocity": 0.3937007874015748
        },
        {
          "duration": 0.1578944999999976,
          "durationTicks": 192,
          "midi": 53,
          "name": "F3",
          "ticks": 109248,
          "time": 89.8419705,
          "velocity": 0.3937007874015748
        },
        {
          "duration": 0.1578944999999976,
          "durationTicks": 192,
          "midi": 35,
          "name": "B1",
          "ticks": 109248,
          "time": 89.8419705,
          "velocity": 0.3937007874015748
        },
        {
          "duration": 0.3157889999999952,
          "durationTicks": 384,
          "midi": 38,
          "name": "D2",
          "ticks": 109440,
          "time": 89.999865,
          "velocity": 0.3937007874015748
        },
        {
          "duration": 0.1578944999999976,
          "durationTicks": 192,
          "midi": 51,
          "name": "D#3",
          "ticks": 109440,
          "time": 89.999865,
          "velocity": 0.3937007874015748
        },
        {
          "duration": 0.1578944999999976,
          "durationTicks": 192,
          "midi": 53,
          "name": "F3",
          "ticks": 109632,
          "time": 90.1577595,
          "velocity": 0.3937007874015748
        },
        {
          "duration": 0.1578944999999976,
          "durationTicks": 192,
          "midi": 35,
          "name": "B1",
          "ticks": 109824,
          "time": 90.315654,
          "velocity": 0.3937007874015748
        },
        {
          "duration": 0.1578944999999976,
          "durationTicks": 192,
          "midi": 53,
          "name": "F3",
          "ticks": 109824,
          "time": 90.315654,
          "velocity": 0.3937007874015748
        },
        {
          "duration": 0.1578944999999976,
          "durationTicks": 192,
          "midi": 35,
          "name": "B1",
          "ticks": 110016,
          "time": 90.47354849999999,
          "velocity": 0.3937007874015748
        },
        {
          "duration": 0.1578944999999976,
          "durationTicks": 192,
          "midi": 53,
          "name": "F3",
          "ticks": 110016,
          "time": 90.47354849999999,
          "velocity": 0.3937007874015748
        },
        {
          "duration": 0.15789450000001182,
          "durationTicks": 192,
          "midi": 51,
          "name": "D#3",
          "ticks": 110208,
          "time": 90.63144299999999,
          "velocity": 0.3937007874015748
        },
        {
          "duration": 0.3157890000000094,
          "durationTicks": 384,
          "midi": 38,
          "name": "D2",
          "ticks": 110208,
          "time": 90.63144299999999,
          "velocity": 0.3937007874015748
        },
        {
          "duration": 0.1578944999999976,
          "durationTicks": 192,
          "midi": 53,
          "name": "F3",
          "ticks": 110400,
          "time": 90.7893375,
          "velocity": 0.3937007874015748
        },
        {
          "duration": 0.1578944999999976,
          "durationTicks": 192,
          "midi": 35,
          "name": "B1",
          "ticks": 110592,
          "time": 90.947232,
          "velocity": 0.3937007874015748
        },
        {
          "duration": 0.1578944999999976,
          "durationTicks": 192,
          "midi": 53,
          "name": "F3",
          "ticks": 110592,
          "time": 90.947232,
          "velocity": 0.3937007874015748
        },
        {
          "duration": 0.1578944999999976,
          "durationTicks": 192,
          "midi": 35,
          "name": "B1",
          "ticks": 110784,
          "time": 91.1051265,
          "velocity": 0.3937007874015748
        },
        {
          "duration": 0.1578944999999976,
          "durationTicks": 192,
          "midi": 53,
          "name": "F3",
          "ticks": 110784,
          "time": 91.1051265,
          "velocity": 0.3937007874015748
        },
        {
          "duration": 0.3157889999999952,
          "durationTicks": 384,
          "midi": 38,
          "name": "D2",
          "ticks": 110976,
          "time": 91.263021,
          "velocity": 0.3937007874015748
        },
        {
          "duration": 0.1578944999999976,
          "durationTicks": 192,
          "midi": 51,
          "name": "D#3",
          "ticks": 110976,
          "time": 91.263021,
          "velocity": 0.3937007874015748
        },
        {
          "duration": 0.1578944999999976,
          "durationTicks": 192,
          "midi": 53,
          "name": "F3",
          "ticks": 111168,
          "time": 91.42091549999999,
          "velocity": 0.3937007874015748
        },
        {
          "duration": 0.15789450000001182,
          "durationTicks": 192,
          "midi": 53,
          "name": "F3",
          "ticks": 111360,
          "time": 91.57880999999999,
          "velocity": 0.3937007874015748
        },
        {
          "duration": 0.15789450000001182,
          "durationTicks": 192,
          "midi": 35,
          "name": "B1",
          "ticks": 111360,
          "time": 91.57880999999999,
          "velocity": 0.3937007874015748
        },
        {
          "duration": 0.1578944999999976,
          "durationTicks": 192,
          "midi": 35,
          "name": "B1",
          "ticks": 111552,
          "time": 91.7367045,
          "velocity": 0.3937007874015748
        },
        {
          "duration": 0.1578944999999976,
          "durationTicks": 192,
          "midi": 53,
          "name": "F3",
          "ticks": 111552,
          "time": 91.7367045,
          "velocity": 0.3937007874015748
        },
        {
          "duration": 0.1578944999999976,
          "durationTicks": 192,
          "midi": 51,
          "name": "D#3",
          "ticks": 111744,
          "time": 91.894599,
          "velocity": 0.3937007874015748
        },
        {
          "duration": 0.3157889999999952,
          "durationTicks": 384,
          "midi": 38,
          "name": "D2",
          "ticks": 111744,
          "time": 91.894599,
          "velocity": 0.3937007874015748
        },
        {
          "duration": 0.1578944999999976,
          "durationTicks": 192,
          "midi": 53,
          "name": "F3",
          "ticks": 111936,
          "time": 92.0524935,
          "velocity": 0.3937007874015748
        },
        {
          "duration": 0.1578944999999976,
          "durationTicks": 192,
          "midi": 35,
          "name": "B1",
          "ticks": 112128,
          "time": 92.210388,
          "velocity": 0.3937007874015748
        },
        {
          "duration": 0.1578944999999976,
          "durationTicks": 192,
          "midi": 53,
          "name": "F3",
          "ticks": 112128,
          "time": 92.210388,
          "velocity": 0.3937007874015748
        },
        {
          "duration": 0.1578944999999976,
          "durationTicks": 192,
          "midi": 53,
          "name": "F3",
          "ticks": 112320,
          "time": 92.36828249999999,
          "velocity": 0.3937007874015748
        },
        {
          "duration": 0.1578944999999976,
          "durationTicks": 192,
          "midi": 35,
          "name": "B1",
          "ticks": 112320,
          "time": 92.36828249999999,
          "velocity": 0.3937007874015748
        },
        {
          "duration": 0.15789450000001182,
          "durationTicks": 192,
          "midi": 51,
          "name": "D#3",
          "ticks": 112512,
          "time": 92.52617699999999,
          "velocity": 0.3937007874015748
        },
        {
          "duration": 0.3157890000000094,
          "durationTicks": 384,
          "midi": 38,
          "name": "D2",
          "ticks": 112512,
          "time": 92.52617699999999,
          "velocity": 0.3937007874015748
        },
        {
          "duration": 0.1578944999999976,
          "durationTicks": 192,
          "midi": 53,
          "name": "F3",
          "ticks": 112704,
          "time": 92.6840715,
          "velocity": 0.3937007874015748
        },
        {
          "duration": 0.1578944999999976,
          "durationTicks": 192,
          "midi": 53,
          "name": "F3",
          "ticks": 112896,
          "time": 92.841966,
          "velocity": 0.3937007874015748
        },
        {
          "duration": 0.1578944999999976,
          "durationTicks": 192,
          "midi": 35,
          "name": "B1",
          "ticks": 112896,
          "time": 92.841966,
          "velocity": 0.3937007874015748
        },
        {
          "duration": 0.1578944999999976,
          "durationTicks": 192,
          "midi": 35,
          "name": "B1",
          "ticks": 113088,
          "time": 92.9998605,
          "velocity": 0.3937007874015748
        },
        {
          "duration": 0.1578944999999976,
          "durationTicks": 192,
          "midi": 53,
          "name": "F3",
          "ticks": 113088,
          "time": 92.9998605,
          "velocity": 0.3937007874015748
        },
        {
          "duration": 0.1578944999999976,
          "durationTicks": 192,
          "midi": 51,
          "name": "D#3",
          "ticks": 113280,
          "time": 93.157755,
          "velocity": 0.3937007874015748
        },
        {
          "duration": 0.3157889999999952,
          "durationTicks": 384,
          "midi": 38,
          "name": "D2",
          "ticks": 113280,
          "time": 93.157755,
          "velocity": 0.3937007874015748
        },
        {
          "duration": 0.1578944999999976,
          "durationTicks": 192,
          "midi": 53,
          "name": "F3",
          "ticks": 113472,
          "time": 93.31564949999999,
          "velocity": 0.3937007874015748
        },
        {
          "duration": 0.15789450000001182,
          "durationTicks": 192,
          "midi": 35,
          "name": "B1",
          "ticks": 113664,
          "time": 93.47354399999999,
          "velocity": 0.3937007874015748
        },
        {
          "duration": 0.15789450000001182,
          "durationTicks": 192,
          "midi": 53,
          "name": "F3",
          "ticks": 113664,
          "time": 93.47354399999999,
          "velocity": 0.3937007874015748
        },
        {
          "duration": 0.1578944999999976,
          "durationTicks": 192,
          "midi": 35,
          "name": "B1",
          "ticks": 113856,
          "time": 93.6314385,
          "velocity": 0.3937007874015748
        },
        {
          "duration": 0.1578944999999976,
          "durationTicks": 192,
          "midi": 53,
          "name": "F3",
          "ticks": 113856,
          "time": 93.6314385,
          "velocity": 0.3937007874015748
        },
        {
          "duration": 0.3157889999999952,
          "durationTicks": 384,
          "midi": 38,
          "name": "D2",
          "ticks": 114048,
          "time": 93.789333,
          "velocity": 0.3937007874015748
        },
        {
          "duration": 0.1578944999999976,
          "durationTicks": 192,
          "midi": 51,
          "name": "D#3",
          "ticks": 114048,
          "time": 93.789333,
          "velocity": 0.3937007874015748
        },
        {
          "duration": 0.1578944999999976,
          "durationTicks": 192,
          "midi": 53,
          "name": "F3",
          "ticks": 114240,
          "time": 93.9472275,
          "velocity": 0.3937007874015748
        },
        {
          "duration": 0.1578944999999976,
          "durationTicks": 192,
          "midi": 53,
          "name": "F3",
          "ticks": 114432,
          "time": 94.105122,
          "velocity": 0.3937007874015748
        },
        {
          "duration": 0.1578944999999976,
          "durationTicks": 192,
          "midi": 35,
          "name": "B1",
          "ticks": 114432,
          "time": 94.105122,
          "velocity": 0.3937007874015748
        },
        {
          "duration": 0.1578944999999976,
          "durationTicks": 192,
          "midi": 53,
          "name": "F3",
          "ticks": 114624,
          "time": 94.26301649999999,
          "velocity": 0.3937007874015748
        },
        {
          "duration": 0.1578944999999976,
          "durationTicks": 192,
          "midi": 35,
          "name": "B1",
          "ticks": 114624,
          "time": 94.26301649999999,
          "velocity": 0.3937007874015748
        },
        {
          "duration": 0.3157890000000094,
          "durationTicks": 384,
          "midi": 38,
          "name": "D2",
          "ticks": 114816,
          "time": 94.42091099999999,
          "velocity": 0.3937007874015748
        },
        {
          "duration": 0.15789450000001182,
          "durationTicks": 192,
          "midi": 51,
          "name": "D#3",
          "ticks": 114816,
          "time": 94.42091099999999,
          "velocity": 0.3937007874015748
        },
        {
          "duration": 0.1578944999999976,
          "durationTicks": 192,
          "midi": 53,
          "name": "F3",
          "ticks": 115008,
          "time": 94.5788055,
          "velocity": 0.3937007874015748
        },
        {
          "duration": 0.1578944999999976,
          "durationTicks": 192,
          "midi": 35,
          "name": "B1",
          "ticks": 115200,
          "time": 94.7367,
          "velocity": 0.3937007874015748
        },
        {
          "duration": 0.1578944999999976,
          "durationTicks": 192,
          "midi": 53,
          "name": "F3",
          "ticks": 115200,
          "time": 94.7367,
          "velocity": 0.3937007874015748
        },
        {
          "duration": 0.1578944999999976,
          "durationTicks": 192,
          "midi": 53,
          "name": "F3",
          "ticks": 115392,
          "time": 94.8945945,
          "velocity": 0.3937007874015748
        },
        {
          "duration": 0.1578944999999976,
          "durationTicks": 192,
          "midi": 35,
          "name": "B1",
          "ticks": 115392,
          "time": 94.8945945,
          "velocity": 0.3937007874015748
        },
        {
          "duration": 0.3157889999999952,
          "durationTicks": 384,
          "midi": 38,
          "name": "D2",
          "ticks": 115584,
          "time": 95.052489,
          "velocity": 0.3937007874015748
        },
        {
          "duration": 0.1578944999999976,
          "durationTicks": 192,
          "midi": 51,
          "name": "D#3",
          "ticks": 115584,
          "time": 95.052489,
          "velocity": 0.3937007874015748
        },
        {
          "duration": 0.1578944999999976,
          "durationTicks": 192,
          "midi": 53,
          "name": "F3",
          "ticks": 115776,
          "time": 95.21038349999999,
          "velocity": 0.3937007874015748
        },
        {
          "duration": 0.15789450000001182,
          "durationTicks": 192,
          "midi": 35,
          "name": "B1",
          "ticks": 115968,
          "time": 95.36827799999999,
          "velocity": 0.3937007874015748
        },
        {
          "duration": 0.15789450000001182,
          "durationTicks": 192,
          "midi": 53,
          "name": "F3",
          "ticks": 115968,
          "time": 95.36827799999999,
          "velocity": 0.3937007874015748
        },
        {
          "duration": 0.1578944999999976,
          "durationTicks": 192,
          "midi": 53,
          "name": "F3",
          "ticks": 116160,
          "time": 95.5261725,
          "velocity": 0.3937007874015748
        },
        {
          "duration": 0.1578944999999976,
          "durationTicks": 192,
          "midi": 35,
          "name": "B1",
          "ticks": 116160,
          "time": 95.5261725,
          "velocity": 0.3937007874015748
        },
        {
          "duration": 0.1578944999999976,
          "durationTicks": 192,
          "midi": 51,
          "name": "D#3",
          "ticks": 116352,
          "time": 95.684067,
          "velocity": 0.3937007874015748
        },
        {
          "duration": 0.3157889999999952,
          "durationTicks": 384,
          "midi": 38,
          "name": "D2",
          "ticks": 116352,
          "time": 95.684067,
          "velocity": 0.3937007874015748
        },
        {
          "duration": 0.1578944999999976,
          "durationTicks": 192,
          "midi": 53,
          "name": "F3",
          "ticks": 116544,
          "time": 95.8419615,
          "velocity": 0.3937007874015748
        },
        {
          "duration": 0.1578944999999976,
          "durationTicks": 192,
          "midi": 53,
          "name": "F3",
          "ticks": 116736,
          "time": 95.999856,
          "velocity": 0.3937007874015748
        },
        {
          "duration": 0.1578944999999976,
          "durationTicks": 192,
          "midi": 35,
          "name": "B1",
          "ticks": 116736,
          "time": 95.999856,
          "velocity": 0.3937007874015748
        },
        {
          "duration": 0.1578944999999976,
          "durationTicks": 192,
          "midi": 53,
          "name": "F3",
          "ticks": 116928,
          "time": 96.15775049999999,
          "velocity": 0.3937007874015748
        },
        {
          "duration": 0.1578944999999976,
          "durationTicks": 192,
          "midi": 35,
          "name": "B1",
          "ticks": 116928,
          "time": 96.15775049999999,
          "velocity": 0.3937007874015748
        },
        {
          "duration": 0.3157890000000094,
          "durationTicks": 384,
          "midi": 38,
          "name": "D2",
          "ticks": 117120,
          "time": 96.31564499999999,
          "velocity": 0.3937007874015748
        },
        {
          "duration": 0.15789450000001182,
          "durationTicks": 192,
          "midi": 51,
          "name": "D#3",
          "ticks": 117120,
          "time": 96.31564499999999,
          "velocity": 0.3937007874015748
        },
        {
          "duration": 0.1578944999999976,
          "durationTicks": 192,
          "midi": 53,
          "name": "F3",
          "ticks": 117312,
          "time": 96.4735395,
          "velocity": 0.3937007874015748
        },
        {
          "duration": 0.1578944999999976,
          "durationTicks": 192,
          "midi": 35,
          "name": "B1",
          "ticks": 117504,
          "time": 96.631434,
          "velocity": 0.3937007874015748
        },
        {
          "duration": 0.1578944999999976,
          "durationTicks": 192,
          "midi": 53,
          "name": "F3",
          "ticks": 117504,
          "time": 96.631434,
          "velocity": 0.3937007874015748
        },
        {
          "duration": 0.1578944999999976,
          "durationTicks": 192,
          "midi": 53,
          "name": "F3",
          "ticks": 117696,
          "time": 96.7893285,
          "velocity": 0.3937007874015748
        },
        {
          "duration": 0.1578944999999976,
          "durationTicks": 192,
          "midi": 35,
          "name": "B1",
          "ticks": 117696,
          "time": 96.7893285,
          "velocity": 0.3937007874015748
        },
        {
          "duration": 0.3157889999999952,
          "durationTicks": 384,
          "midi": 38,
          "name": "D2",
          "ticks": 117888,
          "time": 96.947223,
          "velocity": 0.3937007874015748
        },
        {
          "duration": 0.1578944999999976,
          "durationTicks": 192,
          "midi": 51,
          "name": "D#3",
          "ticks": 117888,
          "time": 96.947223,
          "velocity": 0.3937007874015748
        },
        {
          "duration": 0.1578944999999976,
          "durationTicks": 192,
          "midi": 53,
          "name": "F3",
          "ticks": 118080,
          "time": 97.10511749999999,
          "velocity": 0.3937007874015748
        },
        {
          "duration": 0.15789450000001182,
          "durationTicks": 192,
          "midi": 35,
          "name": "B1",
          "ticks": 118272,
          "time": 97.26301199999999,
          "velocity": 0.3937007874015748
        },
        {
          "duration": 0.15789450000001182,
          "durationTicks": 192,
          "midi": 53,
          "name": "F3",
          "ticks": 118272,
          "time": 97.26301199999999,
          "velocity": 0.3937007874015748
        },
        {
          "duration": 0.1578944999999976,
          "durationTicks": 192,
          "midi": 53,
          "name": "F3",
          "ticks": 118464,
          "time": 97.4209065,
          "velocity": 0.3937007874015748
        },
        {
          "duration": 0.1578944999999976,
          "durationTicks": 192,
          "midi": 35,
          "name": "B1",
          "ticks": 118464,
          "time": 97.4209065,
          "velocity": 0.3937007874015748
        },
        {
          "duration": 0.1578944999999976,
          "durationTicks": 192,
          "midi": 51,
          "name": "D#3",
          "ticks": 118656,
          "time": 97.578801,
          "velocity": 0.3937007874015748
        },
        {
          "duration": 0.3157889999999952,
          "durationTicks": 384,
          "midi": 38,
          "name": "D2",
          "ticks": 118656,
          "time": 97.578801,
          "velocity": 0.3937007874015748
        },
        {
          "duration": 0.1578944999999976,
          "durationTicks": 192,
          "midi": 53,
          "name": "F3",
          "ticks": 118848,
          "time": 97.7366955,
          "velocity": 0.3937007874015748
        },
        {
          "duration": 0.1578944999999976,
          "durationTicks": 192,
          "midi": 35,
          "name": "B1",
          "ticks": 119040,
          "time": 97.89459,
          "velocity": 0.3937007874015748
        },
        {
          "duration": 0.1578944999999976,
          "durationTicks": 192,
          "midi": 53,
          "name": "F3",
          "ticks": 119040,
          "time": 97.89459,
          "velocity": 0.3937007874015748
        },
        {
          "duration": 0.1578944999999976,
          "durationTicks": 192,
          "midi": 53,
          "name": "F3",
          "ticks": 119232,
          "time": 98.05248449999999,
          "velocity": 0.3937007874015748
        },
        {
          "duration": 0.1578944999999976,
          "durationTicks": 192,
          "midi": 35,
          "name": "B1",
          "ticks": 119232,
          "time": 98.05248449999999,
          "velocity": 0.3937007874015748
        },
        {
          "duration": 0.15789450000001182,
          "durationTicks": 192,
          "midi": 51,
          "name": "D#3",
          "ticks": 119424,
          "time": 98.21037899999999,
          "velocity": 0.3937007874015748
        },
        {
          "duration": 0.3157890000000094,
          "durationTicks": 384,
          "midi": 38,
          "name": "D2",
          "ticks": 119424,
          "time": 98.21037899999999,
          "velocity": 0.3937007874015748
        },
        {
          "duration": 0.1578944999999976,
          "durationTicks": 192,
          "midi": 53,
          "name": "F3",
          "ticks": 119616,
          "time": 98.3682735,
          "velocity": 0.3937007874015748
        },
        {
          "duration": 0.1578944999999976,
          "durationTicks": 192,
          "midi": 35,
          "name": "B1",
          "ticks": 119808,
          "time": 98.526168,
          "velocity": 0.3937007874015748
        },
        {
          "duration": 0.1578944999999976,
          "durationTicks": 192,
          "midi": 53,
          "name": "F3",
          "ticks": 119808,
          "time": 98.526168,
          "velocity": 0.3937007874015748
        },
        {
          "duration": 0.1578944999999976,
          "durationTicks": 192,
          "midi": 35,
          "name": "B1",
          "ticks": 120000,
          "time": 98.6840625,
          "velocity": 0.3937007874015748
        },
        {
          "duration": 0.1578944999999976,
          "durationTicks": 192,
          "midi": 53,
          "name": "F3",
          "ticks": 120000,
          "time": 98.6840625,
          "velocity": 0.3937007874015748
        },
        {
          "duration": 0.3157889999999952,
          "durationTicks": 384,
          "midi": 38,
          "name": "D2",
          "ticks": 120192,
          "time": 98.841957,
          "velocity": 0.3937007874015748
        },
        {
          "duration": 0.1578944999999976,
          "durationTicks": 192,
          "midi": 51,
          "name": "D#3",
          "ticks": 120192,
          "time": 98.841957,
          "velocity": 0.3937007874015748
        },
        {
          "duration": 0.1578944999999976,
          "durationTicks": 192,
          "midi": 53,
          "name": "F3",
          "ticks": 120384,
          "time": 98.99985149999999,
          "velocity": 0.3937007874015748
        },
        {
          "duration": 0.15789450000001182,
          "durationTicks": 192,
          "midi": 35,
          "name": "B1",
          "ticks": 120576,
          "time": 99.15774599999999,
          "velocity": 0.3937007874015748
        },
        {
          "duration": 0.15789450000001182,
          "durationTicks": 192,
          "midi": 53,
          "name": "F3",
          "ticks": 120576,
          "time": 99.15774599999999,
          "velocity": 0.3937007874015748
        },
        {
          "duration": 0.1578944999999976,
          "durationTicks": 192,
          "midi": 35,
          "name": "B1",
          "ticks": 120768,
          "time": 99.3156405,
          "velocity": 0.3937007874015748
        },
        {
          "duration": 0.1578944999999976,
          "durationTicks": 192,
          "midi": 53,
          "name": "F3",
          "ticks": 120768,
          "time": 99.3156405,
          "velocity": 0.3937007874015748
        },
        {
          "duration": 0.1578944999999976,
          "durationTicks": 192,
          "midi": 51,
          "name": "D#3",
          "ticks": 120960,
          "time": 99.473535,
          "velocity": 0.3937007874015748
        },
        {
          "duration": 0.3157889999999952,
          "durationTicks": 384,
          "midi": 38,
          "name": "D2",
          "ticks": 120960,
          "time": 99.473535,
          "velocity": 0.3937007874015748
        },
        {
          "duration": 0.1578944999999976,
          "durationTicks": 192,
          "midi": 53,
          "name": "F3",
          "ticks": 121152,
          "time": 99.6314295,
          "velocity": 0.3937007874015748
        },
        {
          "duration": 0.1578944999999976,
          "durationTicks": 192,
          "midi": 53,
          "name": "F3",
          "ticks": 121344,
          "time": 99.789324,
          "velocity": 0.3937007874015748
        },
        {
          "duration": 0.1578944999999976,
          "durationTicks": 192,
          "midi": 35,
          "name": "B1",
          "ticks": 121344,
          "time": 99.789324,
          "velocity": 0.3937007874015748
        },
        {
          "duration": 0.1578944999999976,
          "durationTicks": 192,
          "midi": 53,
          "name": "F3",
          "ticks": 121536,
          "time": 99.94721849999999,
          "velocity": 0.3937007874015748
        },
        {
          "duration": 0.1578944999999976,
          "durationTicks": 192,
          "midi": 35,
          "name": "B1",
          "ticks": 121536,
          "time": 99.94721849999999,
          "velocity": 0.3937007874015748
        },
        {
          "duration": 0.15789450000001182,
          "durationTicks": 192,
          "midi": 51,
          "name": "D#3",
          "ticks": 121728,
          "time": 100.10511299999999,
          "velocity": 0.3937007874015748
        },
        {
          "duration": 0.3157890000000094,
          "durationTicks": 384,
          "midi": 38,
          "name": "D2",
          "ticks": 121728,
          "time": 100.10511299999999,
          "velocity": 0.3937007874015748
        },
        {
          "duration": 0.1578944999999976,
          "durationTicks": 192,
          "midi": 53,
          "name": "F3",
          "ticks": 121920,
          "time": 100.2630075,
          "velocity": 0.3937007874015748
        },
        {
          "duration": 0.1578944999999976,
          "durationTicks": 192,
          "midi": 35,
          "name": "B1",
          "ticks": 122112,
          "time": 100.420902,
          "velocity": 0.3937007874015748
        },
        {
          "duration": 0.1578944999999976,
          "durationTicks": 192,
          "midi": 53,
          "name": "F3",
          "ticks": 122112,
          "time": 100.420902,
          "velocity": 0.3937007874015748
        },
        {
          "duration": 0.1578944999999976,
          "durationTicks": 192,
          "midi": 35,
          "name": "B1",
          "ticks": 122304,
          "time": 100.5787965,
          "velocity": 0.3937007874015748
        },
        {
          "duration": 0.1578944999999976,
          "durationTicks": 192,
          "midi": 53,
          "name": "F3",
          "ticks": 122304,
          "time": 100.5787965,
          "velocity": 0.3937007874015748
        },
        {
          "duration": 0.3157890000000094,
          "durationTicks": 384,
          "midi": 38,
          "name": "D2",
          "ticks": 122496,
          "time": 100.736691,
          "velocity": 0.3937007874015748
        },
        {
          "duration": 0.1578944999999976,
          "durationTicks": 192,
          "midi": 51,
          "name": "D#3",
          "ticks": 122496,
          "time": 100.736691,
          "velocity": 0.3937007874015748
        },
        {
          "duration": 0.15789450000001182,
          "durationTicks": 192,
          "midi": 53,
          "name": "F3",
          "ticks": 122688,
          "time": 100.89458549999999,
          "velocity": 0.3937007874015748
        },
        {
          "duration": 0.1578944999999976,
          "durationTicks": 192,
          "midi": 53,
          "name": "F3",
          "ticks": 122880,
          "time": 101.05248,
          "velocity": 0.3937007874015748
        },
        {
          "duration": 0.1578944999999976,
          "durationTicks": 192,
          "midi": 35,
          "name": "B1",
          "ticks": 122880,
          "time": 101.05248,
          "velocity": 0.3937007874015748
        },
        {
          "duration": 0.1578944999999976,
          "durationTicks": 192,
          "midi": 35,
          "name": "B1",
          "ticks": 123072,
          "time": 101.2103745,
          "velocity": 0.3937007874015748
        },
        {
          "duration": 0.1578944999999976,
          "durationTicks": 192,
          "midi": 53,
          "name": "F3",
          "ticks": 123072,
          "time": 101.2103745,
          "velocity": 0.3937007874015748
        },
        {
          "duration": 0.1578944999999976,
          "durationTicks": 192,
          "midi": 51,
          "name": "D#3",
          "ticks": 123264,
          "time": 101.368269,
          "velocity": 0.3937007874015748
        },
        {
          "duration": 0.3157889999999952,
          "durationTicks": 384,
          "midi": 38,
          "name": "D2",
          "ticks": 123264,
          "time": 101.368269,
          "velocity": 0.3937007874015748
        },
        {
          "duration": 0.1578944999999976,
          "durationTicks": 192,
          "midi": 53,
          "name": "F3",
          "ticks": 123456,
          "time": 101.5261635,
          "velocity": 0.3937007874015748
        },
        {
          "duration": 0.1578944999999976,
          "durationTicks": 192,
          "midi": 35,
          "name": "B1",
          "ticks": 123648,
          "time": 101.684058,
          "velocity": 0.3937007874015748
        },
        {
          "duration": 0.1578944999999976,
          "durationTicks": 192,
          "midi": 53,
          "name": "F3",
          "ticks": 123648,
          "time": 101.684058,
          "velocity": 0.3937007874015748
        },
        {
          "duration": 0.15789450000001182,
          "durationTicks": 192,
          "midi": 35,
          "name": "B1",
          "ticks": 123840,
          "time": 101.84195249999999,
          "velocity": 0.3937007874015748
        },
        {
          "duration": 0.15789450000001182,
          "durationTicks": 192,
          "midi": 53,
          "name": "F3",
          "ticks": 123840,
          "time": 101.84195249999999,
          "velocity": 0.3937007874015748
        },
        {
          "duration": 0.1578944999999976,
          "durationTicks": 192,
          "midi": 51,
          "name": "D#3",
          "ticks": 124032,
          "time": 101.999847,
          "velocity": 0.3937007874015748
        },
        {
          "duration": 0.3157889999999952,
          "durationTicks": 384,
          "midi": 38,
          "name": "D2",
          "ticks": 124032,
          "time": 101.999847,
          "velocity": 0.3937007874015748
        },
        {
          "duration": 0.1578944999999976,
          "durationTicks": 192,
          "midi": 53,
          "name": "F3",
          "ticks": 124224,
          "time": 102.1577415,
          "velocity": 0.3937007874015748
        },
        {
          "duration": 0.1578944999999976,
          "durationTicks": 192,
          "midi": 53,
          "name": "F3",
          "ticks": 124416,
          "time": 102.315636,
          "velocity": 0.3937007874015748
        },
        {
          "duration": 0.1578944999999976,
          "durationTicks": 192,
          "midi": 35,
          "name": "B1",
          "ticks": 124416,
          "time": 102.315636,
          "velocity": 0.3937007874015748
        },
        {
          "duration": 0.1578944999999976,
          "durationTicks": 192,
          "midi": 35,
          "name": "B1",
          "ticks": 124608,
          "time": 102.4735305,
          "velocity": 0.3937007874015748
        },
        {
          "duration": 0.1578944999999976,
          "durationTicks": 192,
          "midi": 53,
          "name": "F3",
          "ticks": 124608,
          "time": 102.4735305,
          "velocity": 0.3937007874015748
        },
        {
          "duration": 0.1578944999999976,
          "durationTicks": 192,
          "midi": 51,
          "name": "D#3",
          "ticks": 124800,
          "time": 102.631425,
          "velocity": 0.3937007874015748
        },
        {
          "duration": 0.3157890000000094,
          "durationTicks": 384,
          "midi": 38,
          "name": "D2",
          "ticks": 124800,
          "time": 102.631425,
          "velocity": 0.3937007874015748
        },
        {
          "duration": 0.15789450000001182,
          "durationTicks": 192,
          "midi": 53,
          "name": "F3",
          "ticks": 124992,
          "time": 102.78931949999999,
          "velocity": 0.3937007874015748
        },
        {
          "duration": 0.1578944999999976,
          "durationTicks": 192,
          "midi": 53,
          "name": "F3",
          "ticks": 125184,
          "time": 102.947214,
          "velocity": 0.3937007874015748
        },
        {
          "duration": 0.1578944999999976,
          "durationTicks": 192,
          "midi": 35,
          "name": "B1",
          "ticks": 125184,
          "time": 102.947214,
          "velocity": 0.3937007874015748
        },
        {
          "duration": 0.1578944999999976,
          "durationTicks": 192,
          "midi": 53,
          "name": "F3",
          "ticks": 125376,
          "time": 103.1051085,
          "velocity": 0.3937007874015748
        },
        {
          "duration": 0.1578944999999976,
          "durationTicks": 192,
          "midi": 35,
          "name": "B1",
          "ticks": 125376,
          "time": 103.1051085,
          "velocity": 0.3937007874015748
        },
        {
          "duration": 0.1578944999999976,
          "durationTicks": 192,
          "midi": 51,
          "name": "D#3",
          "ticks": 125568,
          "time": 103.263003,
          "velocity": 0.3937007874015748
        },
        {
          "duration": 0.3157889999999952,
          "durationTicks": 384,
          "midi": 38,
          "name": "D2",
          "ticks": 125568,
          "time": 103.263003,
          "velocity": 0.3937007874015748
        },
        {
          "duration": 0.1578944999999976,
          "durationTicks": 192,
          "midi": 53,
          "name": "F3",
          "ticks": 125760,
          "time": 103.4208975,
          "velocity": 0.3937007874015748
        },
        {
          "duration": 0.1578944999999976,
          "durationTicks": 192,
          "midi": 35,
          "name": "B1",
          "ticks": 125952,
          "time": 103.57879199999999,
          "velocity": 0.3937007874015748
        },
        {
          "duration": 0.1578944999999976,
          "durationTicks": 192,
          "midi": 53,
          "name": "F3",
          "ticks": 125952,
          "time": 103.57879199999999,
          "velocity": 0.3937007874015748
        },
        {
          "duration": 0.15789450000001182,
          "durationTicks": 192,
          "midi": 35,
          "name": "B1",
          "ticks": 126144,
          "time": 103.73668649999999,
          "velocity": 0.3937007874015748
        },
        {
          "duration": 0.15789450000001182,
          "durationTicks": 192,
          "midi": 53,
          "name": "F3",
          "ticks": 126144,
          "time": 103.73668649999999,
          "velocity": 0.3937007874015748
        },
        {
          "duration": 0.3157889999999952,
          "durationTicks": 384,
          "midi": 38,
          "name": "D2",
          "ticks": 126336,
          "time": 103.894581,
          "velocity": 0.3937007874015748
        },
        {
          "duration": 0.1578944999999976,
          "durationTicks": 192,
          "midi": 51,
          "name": "D#3",
          "ticks": 126336,
          "time": 103.894581,
          "velocity": 0.3937007874015748
        },
        {
          "duration": 0.1578944999999976,
          "durationTicks": 192,
          "midi": 53,
          "name": "F3",
          "ticks": 126528,
          "time": 104.0524755,
          "velocity": 0.3937007874015748
        },
        {
          "duration": 0.1578944999999976,
          "durationTicks": 192,
          "midi": 53,
          "name": "F3",
          "ticks": 126720,
          "time": 104.21037,
          "velocity": 0.3937007874015748
        },
        {
          "duration": 0.1578944999999976,
          "durationTicks": 192,
          "midi": 35,
          "name": "B1",
          "ticks": 126720,
          "time": 104.21037,
          "velocity": 0.3937007874015748
        },
        {
          "duration": 0.1578944999999976,
          "durationTicks": 192,
          "midi": 35,
          "name": "B1",
          "ticks": 126912,
          "time": 104.3682645,
          "velocity": 0.3937007874015748
        },
        {
          "duration": 0.1578944999999976,
          "durationTicks": 192,
          "midi": 53,
          "name": "F3",
          "ticks": 126912,
          "time": 104.3682645,
          "velocity": 0.3937007874015748
        },
        {
          "duration": 0.3157890000000094,
          "durationTicks": 384,
          "midi": 38,
          "name": "D2",
          "ticks": 127104,
          "time": 104.52615899999999,
          "velocity": 0.3937007874015748
        },
        {
          "duration": 0.1578944999999976,
          "durationTicks": 192,
          "midi": 51,
          "name": "D#3",
          "ticks": 127104,
          "time": 104.52615899999999,
          "velocity": 0.3937007874015748
        },
        {
          "duration": 0.15789450000001182,
          "durationTicks": 192,
          "midi": 53,
          "name": "F3",
          "ticks": 127296,
          "time": 104.68405349999999,
          "velocity": 0.3937007874015748
        },
        {
          "duration": 0.1578944999999976,
          "durationTicks": 192,
          "midi": 35,
          "name": "B1",
          "ticks": 127488,
          "time": 104.841948,
          "velocity": 0.3937007874015748
        },
        {
          "duration": 0.1578944999999976,
          "durationTicks": 192,
          "midi": 53,
          "name": "F3",
          "ticks": 127488,
          "time": 104.841948,
          "velocity": 0.3937007874015748
        },
        {
          "duration": 0.1578944999999976,
          "durationTicks": 192,
          "midi": 35,
          "name": "B1",
          "ticks": 127680,
          "time": 104.9998425,
          "velocity": 0.3937007874015748
        },
        {
          "duration": 0.1578944999999976,
          "durationTicks": 192,
          "midi": 53,
          "name": "F3",
          "ticks": 127680,
          "time": 104.9998425,
          "velocity": 0.3937007874015748
        },
        {
          "duration": 0.3157889999999952,
          "durationTicks": 384,
          "midi": 38,
          "name": "D2",
          "ticks": 127872,
          "time": 105.157737,
          "velocity": 0.3937007874015748
        },
        {
          "duration": 0.1578944999999976,
          "durationTicks": 192,
          "midi": 51,
          "name": "D#3",
          "ticks": 127872,
          "time": 105.157737,
          "velocity": 0.3937007874015748
        },
        {
          "duration": 0.1578944999999976,
          "durationTicks": 192,
          "midi": 53,
          "name": "F3",
          "ticks": 128064,
          "time": 105.3156315,
          "velocity": 0.3937007874015748
        },
        {
          "duration": 0.1578944999999976,
          "durationTicks": 192,
          "midi": 35,
          "name": "B1",
          "ticks": 128256,
          "time": 105.47352599999999,
          "velocity": 0.3937007874015748
        },
        {
          "duration": 0.1578944999999976,
          "durationTicks": 192,
          "midi": 53,
          "name": "F3",
          "ticks": 128256,
          "time": 105.47352599999999,
          "velocity": 0.3937007874015748
        },
        {
          "duration": 0.15789450000001182,
          "durationTicks": 192,
          "midi": 35,
          "name": "B1",
          "ticks": 128448,
          "time": 105.63142049999999,
          "velocity": 0.3937007874015748
        },
        {
          "duration": 0.15789450000001182,
          "durationTicks": 192,
          "midi": 53,
          "name": "F3",
          "ticks": 128448,
          "time": 105.63142049999999,
          "velocity": 0.3937007874015748
        },
        {
          "duration": 0.3157889999999952,
          "durationTicks": 384,
          "midi": 38,
          "name": "D2",
          "ticks": 128640,
          "time": 105.789315,
          "velocity": 0.3937007874015748
        },
        {
          "duration": 0.1578944999999976,
          "durationTicks": 192,
          "midi": 51,
          "name": "D#3",
          "ticks": 128640,
          "time": 105.789315,
          "velocity": 0.3937007874015748
        },
        {
          "duration": 0.1578944999999976,
          "durationTicks": 192,
          "midi": 53,
          "name": "F3",
          "ticks": 128832,
          "time": 105.9472095,
          "velocity": 0.3937007874015748
        },
        {
          "duration": 0.1578944999999976,
          "durationTicks": 192,
          "midi": 53,
          "name": "F3",
          "ticks": 129024,
          "time": 106.105104,
          "velocity": 0.3937007874015748
        },
        {
          "duration": 0.1578944999999976,
          "durationTicks": 192,
          "midi": 35,
          "name": "B1",
          "ticks": 129024,
          "time": 106.105104,
          "velocity": 0.3937007874015748
        },
        {
          "duration": 0.1578944999999976,
          "durationTicks": 192,
          "midi": 35,
          "name": "B1",
          "ticks": 129216,
          "time": 106.2629985,
          "velocity": 0.3937007874015748
        },
        {
          "duration": 0.1578944999999976,
          "durationTicks": 192,
          "midi": 53,
          "name": "F3",
          "ticks": 129216,
          "time": 106.2629985,
          "velocity": 0.3937007874015748
        },
        {
          "duration": 0.1578944999999976,
          "durationTicks": 192,
          "midi": 51,
          "name": "D#3",
          "ticks": 129408,
          "time": 106.42089299999999,
          "velocity": 0.3937007874015748
        },
        {
          "duration": 0.3157890000000094,
          "durationTicks": 384,
          "midi": 38,
          "name": "D2",
          "ticks": 129408,
          "time": 106.42089299999999,
          "velocity": 0.3937007874015748
        },
        {
          "duration": 0.15789450000001182,
          "durationTicks": 192,
          "midi": 53,
          "name": "F3",
          "ticks": 129600,
          "time": 106.57878749999999,
          "velocity": 0.3937007874015748
        },
        {
          "duration": 0.1578944999999976,
          "durationTicks": 192,
          "midi": 53,
          "name": "F3",
          "ticks": 129792,
          "time": 106.736682,
          "velocity": 0.3937007874015748
        },
        {
          "duration": 0.1578944999999976,
          "durationTicks": 192,
          "midi": 35,
          "name": "B1",
          "ticks": 129792,
          "time": 106.736682,
          "velocity": 0.3937007874015748
        },
        {
          "duration": 0.1578944999999976,
          "durationTicks": 192,
          "midi": 35,
          "name": "B1",
          "ticks": 129984,
          "time": 106.8945765,
          "velocity": 0.3937007874015748
        },
        {
          "duration": 0.1578944999999976,
          "durationTicks": 192,
          "midi": 53,
          "name": "F3",
          "ticks": 129984,
          "time": 106.8945765,
          "velocity": 0.3937007874015748
        },
        {
          "duration": 0.3157889999999952,
          "durationTicks": 384,
          "midi": 38,
          "name": "D2",
          "ticks": 130176,
          "time": 107.052471,
          "velocity": 0.3937007874015748
        },
        {
          "duration": 0.1578944999999976,
          "durationTicks": 192,
          "midi": 51,
          "name": "D#3",
          "ticks": 130176,
          "time": 107.052471,
          "velocity": 0.3937007874015748
        },
        {
          "duration": 0.1578944999999976,
          "durationTicks": 192,
          "midi": 53,
          "name": "F3",
          "ticks": 130368,
          "time": 107.2103655,
          "velocity": 0.3937007874015748
        },
        {
          "duration": 0.1578944999999976,
          "durationTicks": 192,
          "midi": 53,
          "name": "F3",
          "ticks": 130560,
          "time": 107.36825999999999,
          "velocity": 0.3937007874015748
        },
        {
          "duration": 0.1578944999999976,
          "durationTicks": 192,
          "midi": 35,
          "name": "B1",
          "ticks": 130560,
          "time": 107.36825999999999,
          "velocity": 0.3937007874015748
        },
        {
          "duration": 0.15789450000001182,
          "durationTicks": 192,
          "midi": 53,
          "name": "F3",
          "ticks": 130752,
          "time": 107.52615449999999,
          "velocity": 0.3937007874015748
        },
        {
          "duration": 0.15789450000001182,
          "durationTicks": 192,
          "midi": 35,
          "name": "B1",
          "ticks": 130752,
          "time": 107.52615449999999,
          "velocity": 0.3937007874015748
        },
        {
          "duration": 0.1578944999999976,
          "durationTicks": 192,
          "midi": 51,
          "name": "D#3",
          "ticks": 130944,
          "time": 107.684049,
          "velocity": 0.3937007874015748
        },
        {
          "duration": 0.3157889999999952,
          "durationTicks": 384,
          "midi": 38,
          "name": "D2",
          "ticks": 130944,
          "time": 107.684049,
          "velocity": 0.3937007874015748
        },
        {
          "duration": 0.1578944999999976,
          "durationTicks": 192,
          "midi": 53,
          "name": "F3",
          "ticks": 131136,
          "time": 107.8419435,
          "velocity": 0.3937007874015748
        },
        {
          "duration": 0.1578944999999976,
          "durationTicks": 192,
          "midi": 53,
          "name": "F3",
          "ticks": 131328,
          "time": 107.999838,
          "velocity": 0.3937007874015748
        },
        {
          "duration": 0.1578944999999976,
          "durationTicks": 192,
          "midi": 35,
          "name": "B1",
          "ticks": 131328,
          "time": 107.999838,
          "velocity": 0.3937007874015748
        },
        {
          "duration": 0.1578944999999976,
          "durationTicks": 192,
          "midi": 35,
          "name": "B1",
          "ticks": 131520,
          "time": 108.1577325,
          "velocity": 0.3937007874015748
        },
        {
          "duration": 0.1578944999999976,
          "durationTicks": 192,
          "midi": 53,
          "name": "F3",
          "ticks": 131520,
          "time": 108.1577325,
          "velocity": 0.3937007874015748
        },
        {
          "duration": 0.3157890000000094,
          "durationTicks": 384,
          "midi": 38,
          "name": "D2",
          "ticks": 131712,
          "time": 108.31562699999999,
          "velocity": 0.3937007874015748
        },
        {
          "duration": 0.1578944999999976,
          "durationTicks": 192,
          "midi": 51,
          "name": "D#3",
          "ticks": 131712,
          "time": 108.31562699999999,
          "velocity": 0.3937007874015748
        },
        {
          "duration": 0.15789450000001182,
          "durationTicks": 192,
          "midi": 53,
          "name": "F3",
          "ticks": 131904,
          "time": 108.47352149999999,
          "velocity": 0.3937007874015748
        },
        {
          "duration": 0.1578944999999976,
          "durationTicks": 192,
          "midi": 35,
          "name": "B1",
          "ticks": 132096,
          "time": 108.631416,
          "velocity": 0.3937007874015748
        },
        {
          "duration": 0.1578944999999976,
          "durationTicks": 192,
          "midi": 53,
          "name": "F3",
          "ticks": 132096,
          "time": 108.631416,
          "velocity": 0.3937007874015748
        },
        {
          "duration": 0.1578944999999976,
          "durationTicks": 192,
          "midi": 53,
          "name": "F3",
          "ticks": 132288,
          "time": 108.7893105,
          "velocity": 0.3937007874015748
        },
        {
          "duration": 0.1578944999999976,
          "durationTicks": 192,
          "midi": 35,
          "name": "B1",
          "ticks": 132288,
          "time": 108.7893105,
          "velocity": 0.3937007874015748
        },
        {
          "duration": 0.3157889999999952,
          "durationTicks": 384,
          "midi": 38,
          "name": "D2",
          "ticks": 132480,
          "time": 108.947205,
          "velocity": 0.3937007874015748
        },
        {
          "duration": 0.1578944999999976,
          "durationTicks": 192,
          "midi": 51,
          "name": "D#3",
          "ticks": 132480,
          "time": 108.947205,
          "velocity": 0.3937007874015748
        },
        {
          "duration": 0.1578944999999976,
          "durationTicks": 192,
          "midi": 53,
          "name": "F3",
          "ticks": 132672,
          "time": 109.1050995,
          "velocity": 0.3937007874015748
        },
        {
          "duration": 0.1578944999999976,
          "durationTicks": 192,
          "midi": 53,
          "name": "F3",
          "ticks": 132864,
          "time": 109.26299399999999,
          "velocity": 0.3937007874015748
        },
        {
          "duration": 0.1578944999999976,
          "durationTicks": 192,
          "midi": 35,
          "name": "B1",
          "ticks": 132864,
          "time": 109.26299399999999,
          "velocity": 0.3937007874015748
        },
        {
          "duration": 0.15789450000001182,
          "durationTicks": 192,
          "midi": 53,
          "name": "F3",
          "ticks": 133056,
          "time": 109.42088849999999,
          "velocity": 0.3937007874015748
        },
        {
          "duration": 0.15789450000001182,
          "durationTicks": 192,
          "midi": 35,
          "name": "B1",
          "ticks": 133056,
          "time": 109.42088849999999,
          "velocity": 0.3937007874015748
        },
        {
          "duration": 0.3157889999999952,
          "durationTicks": 384,
          "midi": 38,
          "name": "D2",
          "ticks": 133248,
          "time": 109.578783,
          "velocity": 0.3937007874015748
        },
        {
          "duration": 0.1578944999999976,
          "durationTicks": 192,
          "midi": 51,
          "name": "D#3",
          "ticks": 133248,
          "time": 109.578783,
          "velocity": 0.3937007874015748
        },
        {
          "duration": 0.1578944999999976,
          "durationTicks": 192,
          "midi": 53,
          "name": "F3",
          "ticks": 133440,
          "time": 109.7366775,
          "velocity": 0.3937007874015748
        },
        {
          "duration": 0.1578944999999976,
          "durationTicks": 192,
          "midi": 35,
          "name": "B1",
          "ticks": 133632,
          "time": 109.894572,
          "velocity": 0.3937007874015748
        },
        {
          "duration": 0.1578944999999976,
          "durationTicks": 192,
          "midi": 53,
          "name": "F3",
          "ticks": 133632,
          "time": 109.894572,
          "velocity": 0.3937007874015748
        },
        {
          "duration": 0.1578944999999976,
          "durationTicks": 192,
          "midi": 53,
          "name": "F3",
          "ticks": 133824,
          "time": 110.0524665,
          "velocity": 0.3937007874015748
        },
        {
          "duration": 0.1578944999999976,
          "durationTicks": 192,
          "midi": 35,
          "name": "B1",
          "ticks": 133824,
          "time": 110.0524665,
          "velocity": 0.3937007874015748
        },
        {
          "duration": 0.1578944999999976,
          "durationTicks": 192,
          "midi": 51,
          "name": "D#3",
          "ticks": 134016,
          "time": 110.21036099999999,
          "velocity": 0.3937007874015748
        },
        {
          "duration": 0.3157890000000094,
          "durationTicks": 384,
          "midi": 38,
          "name": "D2",
          "ticks": 134016,
          "time": 110.21036099999999,
          "velocity": 0.3937007874015748
        },
        {
          "duration": 0.15789450000001182,
          "durationTicks": 192,
          "midi": 53,
          "name": "F3",
          "ticks": 134208,
          "time": 110.36825549999999,
          "velocity": 0.3937007874015748
        },
        {
          "duration": 0.1578944999999976,
          "durationTicks": 192,
          "midi": 35,
          "name": "B1",
          "ticks": 134400,
          "time": 110.52615,
          "velocity": 0.3937007874015748
        },
        {
          "duration": 0.1578944999999976,
          "durationTicks": 192,
          "midi": 53,
          "name": "F3",
          "ticks": 134400,
          "time": 110.52615,
          "velocity": 0.3937007874015748
        },
        {
          "duration": 0.1578944999999976,
          "durationTicks": 192,
          "midi": 53,
          "name": "F3",
          "ticks": 134592,
          "time": 110.6840445,
          "velocity": 0.3937007874015748
        },
        {
          "duration": 0.1578944999999976,
          "durationTicks": 192,
          "midi": 35,
          "name": "B1",
          "ticks": 134592,
          "time": 110.6840445,
          "velocity": 0.3937007874015748
        },
        {
          "duration": 0.1578944999999976,
          "durationTicks": 192,
          "midi": 51,
          "name": "D#3",
          "ticks": 134784,
          "time": 110.841939,
          "velocity": 0.3937007874015748
        },
        {
          "duration": 0.3157889999999952,
          "durationTicks": 384,
          "midi": 38,
          "name": "D2",
          "ticks": 134784,
          "time": 110.841939,
          "velocity": 0.3937007874015748
        },
        {
          "duration": 0.1578944999999976,
          "durationTicks": 192,
          "midi": 53,
          "name": "F3",
          "ticks": 134976,
          "time": 110.9998335,
          "velocity": 0.3937007874015748
        },
        {
          "duration": 0.1578944999999976,
          "durationTicks": 192,
          "midi": 35,
          "name": "B1",
          "ticks": 135168,
          "time": 111.15772799999999,
          "velocity": 0.3937007874015748
        },
        {
          "duration": 0.1578944999999976,
          "durationTicks": 192,
          "midi": 53,
          "name": "F3",
          "ticks": 135168,
          "time": 111.15772799999999,
          "velocity": 0.3937007874015748
        },
        {
          "duration": 0.15789450000001182,
          "durationTicks": 192,
          "midi": 53,
          "name": "F3",
          "ticks": 135360,
          "time": 111.31562249999999,
          "velocity": 0.3937007874015748
        },
        {
          "duration": 0.15789450000001182,
          "durationTicks": 192,
          "midi": 35,
          "name": "B1",
          "ticks": 135360,
          "time": 111.31562249999999,
          "velocity": 0.3937007874015748
        },
        {
          "duration": 0.1578944999999976,
          "durationTicks": 192,
          "midi": 51,
          "name": "D#3",
          "ticks": 135552,
          "time": 111.473517,
          "velocity": 0.3937007874015748
        },
        {
          "duration": 0.3157889999999952,
          "durationTicks": 384,
          "midi": 38,
          "name": "D2",
          "ticks": 135552,
          "time": 111.473517,
          "velocity": 0.3937007874015748
        },
        {
          "duration": 0.1578944999999976,
          "durationTicks": 192,
          "midi": 53,
          "name": "F3",
          "ticks": 135744,
          "time": 111.6314115,
          "velocity": 0.3937007874015748
        },
        {
          "duration": 0.1578944999999976,
          "durationTicks": 192,
          "midi": 35,
          "name": "B1",
          "ticks": 135936,
          "time": 111.789306,
          "velocity": 0.3937007874015748
        },
        {
          "duration": 0.1578944999999976,
          "durationTicks": 192,
          "midi": 53,
          "name": "F3",
          "ticks": 135936,
          "time": 111.789306,
          "velocity": 0.3937007874015748
        },
        {
          "duration": 0.1578944999999976,
          "durationTicks": 192,
          "midi": 53,
          "name": "F3",
          "ticks": 136128,
          "time": 111.9472005,
          "velocity": 0.3937007874015748
        },
        {
          "duration": 0.1578944999999976,
          "durationTicks": 192,
          "midi": 35,
          "name": "B1",
          "ticks": 136128,
          "time": 111.9472005,
          "velocity": 0.3937007874015748
        },
        {
          "duration": 0.3157890000000094,
          "durationTicks": 384,
          "midi": 38,
          "name": "D2",
          "ticks": 136320,
          "time": 112.10509499999999,
          "velocity": 0.3937007874015748
        },
        {
          "duration": 0.1578944999999976,
          "durationTicks": 192,
          "midi": 51,
          "name": "D#3",
          "ticks": 136320,
          "time": 112.10509499999999,
          "velocity": 0.3937007874015748
        },
        {
          "duration": 0.15789450000001182,
          "durationTicks": 192,
          "midi": 53,
          "name": "F3",
          "ticks": 136512,
          "time": 112.26298949999999,
          "velocity": 0.3937007874015748
        },
        {
          "duration": 0.1578944999999976,
          "durationTicks": 192,
          "midi": 35,
          "name": "B1",
          "ticks": 136704,
          "time": 112.420884,
          "velocity": 0.3937007874015748
        },
        {
          "duration": 0.1578944999999976,
          "durationTicks": 192,
          "midi": 53,
          "name": "F3",
          "ticks": 136704,
          "time": 112.420884,
          "velocity": 0.3937007874015748
        },
        {
          "duration": 0.1578944999999976,
          "durationTicks": 192,
          "midi": 35,
          "name": "B1",
          "ticks": 136896,
          "time": 112.5787785,
          "velocity": 0.3937007874015748
        },
        {
          "duration": 0.1578944999999976,
          "durationTicks": 192,
          "midi": 53,
          "name": "F3",
          "ticks": 136896,
          "time": 112.5787785,
          "velocity": 0.3937007874015748
        },
        {
          "duration": 0.3157889999999952,
          "durationTicks": 384,
          "midi": 38,
          "name": "D2",
          "ticks": 137088,
          "time": 112.736673,
          "velocity": 0.3937007874015748
        },
        {
          "duration": 0.1578944999999976,
          "durationTicks": 192,
          "midi": 51,
          "name": "D#3",
          "ticks": 137088,
          "time": 112.736673,
          "velocity": 0.3937007874015748
        },
        {
          "duration": 0.1578944999999976,
          "durationTicks": 192,
          "midi": 53,
          "name": "F3",
          "ticks": 137280,
          "time": 112.8945675,
          "velocity": 0.3937007874015748
        },
        {
          "duration": 0.1578944999999976,
          "durationTicks": 192,
          "midi": 53,
          "name": "F3",
          "ticks": 137472,
          "time": 113.05246199999999,
          "velocity": 0.3937007874015748
        },
        {
          "duration": 0.1578944999999976,
          "durationTicks": 192,
          "midi": 35,
          "name": "B1",
          "ticks": 137472,
          "time": 113.05246199999999,
          "velocity": 0.3937007874015748
        },
        {
          "duration": 0.15789450000001182,
          "durationTicks": 192,
          "midi": 35,
          "name": "B1",
          "ticks": 137664,
          "time": 113.21035649999999,
          "velocity": 0.3937007874015748
        },
        {
          "duration": 0.15789450000001182,
          "durationTicks": 192,
          "midi": 53,
          "name": "F3",
          "ticks": 137664,
          "time": 113.21035649999999,
          "velocity": 0.3937007874015748
        },
        {
          "duration": 0.1578944999999976,
          "durationTicks": 192,
          "midi": 51,
          "name": "D#3",
          "ticks": 137856,
          "time": 113.368251,
          "velocity": 0.3937007874015748
        },
        {
          "duration": 0.3157889999999952,
          "durationTicks": 384,
          "midi": 38,
          "name": "D2",
          "ticks": 137856,
          "time": 113.368251,
          "velocity": 0.3937007874015748
        },
        {
          "duration": 0.1578944999999976,
          "durationTicks": 192,
          "midi": 53,
          "name": "F3",
          "ticks": 138048,
          "time": 113.5261455,
          "velocity": 0.3937007874015748
        },
        {
          "duration": 0.1578944999999976,
          "durationTicks": 192,
          "midi": 53,
          "name": "F3",
          "ticks": 138240,
          "time": 113.68404,
          "velocity": 0.3937007874015748
        },
        {
          "duration": 0.1578944999999976,
          "durationTicks": 192,
          "midi": 35,
          "name": "B1",
          "ticks": 138240,
          "time": 113.68404,
          "velocity": 0.3937007874015748
        },
        {
          "duration": 0.1578944999999976,
          "durationTicks": 192,
          "midi": 35,
          "name": "B1",
          "ticks": 138432,
          "time": 113.8419345,
          "velocity": 0.3937007874015748
        },
        {
          "duration": 0.1578944999999976,
          "durationTicks": 192,
          "midi": 53,
          "name": "F3",
          "ticks": 138432,
          "time": 113.8419345,
          "velocity": 0.3937007874015748
        },
        {
          "duration": 0.1578944999999976,
          "durationTicks": 192,
          "midi": 51,
          "name": "D#3",
          "ticks": 138624,
          "time": 113.99982899999999,
          "velocity": 0.3937007874015748
        },
        {
          "duration": 0.3157890000000094,
          "durationTicks": 384,
          "midi": 38,
          "name": "D2",
          "ticks": 138624,
          "time": 113.99982899999999,
          "velocity": 0.3937007874015748
        },
        {
          "duration": 0.15789450000001182,
          "durationTicks": 192,
          "midi": 53,
          "name": "F3",
          "ticks": 138816,
          "time": 114.15772349999999,
          "velocity": 0.3937007874015748
        },
        {
          "duration": 0.1578944999999976,
          "durationTicks": 192,
          "midi": 35,
          "name": "B1",
          "ticks": 139008,
          "time": 114.315618,
          "velocity": 0.3937007874015748
        },
        {
          "duration": 0.1578944999999976,
          "durationTicks": 192,
          "midi": 53,
          "name": "F3",
          "ticks": 139008,
          "time": 114.315618,
          "velocity": 0.3937007874015748
        },
        {
          "duration": 0.1578944999999976,
          "durationTicks": 192,
          "midi": 35,
          "name": "B1",
          "ticks": 139200,
          "time": 114.4735125,
          "velocity": 0.3937007874015748
        },
        {
          "duration": 0.1578944999999976,
          "durationTicks": 192,
          "midi": 53,
          "name": "F3",
          "ticks": 139200,
          "time": 114.4735125,
          "velocity": 0.3937007874015748
        },
        {
          "duration": 0.3157889999999952,
          "durationTicks": 384,
          "midi": 38,
          "name": "D2",
          "ticks": 139392,
          "time": 114.631407,
          "velocity": 0.3937007874015748
        },
        {
          "duration": 0.1578944999999976,
          "durationTicks": 192,
          "midi": 51,
          "name": "D#3",
          "ticks": 139392,
          "time": 114.631407,
          "velocity": 0.3937007874015748
        },
        {
          "duration": 0.1578944999999976,
          "durationTicks": 192,
          "midi": 53,
          "name": "F3",
          "ticks": 139584,
          "time": 114.7893015,
          "velocity": 0.3937007874015748
        },
        {
          "duration": 0.1578944999999976,
          "durationTicks": 192,
          "midi": 53,
          "name": "F3",
          "ticks": 139776,
          "time": 114.94719599999999,
          "velocity": 0.3937007874015748
        },
        {
          "duration": 0.1578944999999976,
          "durationTicks": 192,
          "midi": 35,
          "name": "B1",
          "ticks": 139776,
          "time": 114.94719599999999,
          "velocity": 0.3937007874015748
        },
        {
          "duration": 0.15789450000001182,
          "durationTicks": 192,
          "midi": 53,
          "name": "F3",
          "ticks": 139968,
          "time": 115.10509049999999,
          "velocity": 0.3937007874015748
        },
        {
          "duration": 0.15789450000001182,
          "durationTicks": 192,
          "midi": 35,
          "name": "B1",
          "ticks": 139968,
          "time": 115.10509049999999,
          "velocity": 0.3937007874015748
        },
        {
          "duration": 0.3157889999999952,
          "durationTicks": 384,
          "midi": 38,
          "name": "D2",
          "ticks": 140160,
          "time": 115.262985,
          "velocity": 0.3937007874015748
        },
        {
          "duration": 0.1578944999999976,
          "durationTicks": 192,
          "midi": 51,
          "name": "D#3",
          "ticks": 140160,
          "time": 115.262985,
          "velocity": 0.3937007874015748
        },
        {
          "duration": 0.1578944999999976,
          "durationTicks": 192,
          "midi": 53,
          "name": "F3",
          "ticks": 140352,
          "time": 115.4208795,
          "velocity": 0.3937007874015748
        },
        {
          "duration": 0.1578944999999976,
          "durationTicks": 192,
          "midi": 35,
          "name": "B1",
          "ticks": 140544,
          "time": 115.578774,
          "velocity": 0.3937007874015748
        },
        {
          "duration": 0.1578944999999976,
          "durationTicks": 192,
          "midi": 53,
          "name": "F3",
          "ticks": 140544,
          "time": 115.578774,
          "velocity": 0.3937007874015748
        },
        {
          "duration": 0.1578944999999976,
          "durationTicks": 192,
          "midi": 53,
          "name": "F3",
          "ticks": 140736,
          "time": 115.7366685,
          "velocity": 0.3937007874015748
        },
        {
          "duration": 0.1578944999999976,
          "durationTicks": 192,
          "midi": 35,
          "name": "B1",
          "ticks": 140736,
          "time": 115.7366685,
          "velocity": 0.3937007874015748
        },
        {
          "duration": 0.1578944999999976,
          "durationTicks": 192,
          "midi": 51,
          "name": "D#3",
          "ticks": 140928,
          "time": 115.89456299999999,
          "velocity": 0.3937007874015748
        },
        {
          "duration": 0.3157890000000094,
          "durationTicks": 384,
          "midi": 38,
          "name": "D2",
          "ticks": 140928,
          "time": 115.89456299999999,
          "velocity": 0.3937007874015748
        },
        {
          "duration": 0.15789450000001182,
          "durationTicks": 192,
          "midi": 53,
          "name": "F3",
          "ticks": 141120,
          "time": 116.05245749999999,
          "velocity": 0.3937007874015748
        },
        {
          "duration": 0.1578944999999976,
          "durationTicks": 192,
          "midi": 35,
          "name": "B1",
          "ticks": 141312,
          "time": 116.210352,
          "velocity": 0.3937007874015748
        },
        {
          "duration": 0.1578944999999976,
          "durationTicks": 192,
          "midi": 53,
          "name": "F3",
          "ticks": 141312,
          "time": 116.210352,
          "velocity": 0.3937007874015748
        },
        {
          "duration": 0.1578944999999976,
          "durationTicks": 192,
          "midi": 53,
          "name": "F3",
          "ticks": 141504,
          "time": 116.3682465,
          "velocity": 0.3937007874015748
        },
        {
          "duration": 0.1578944999999976,
          "durationTicks": 192,
          "midi": 35,
          "name": "B1",
          "ticks": 141504,
          "time": 116.3682465,
          "velocity": 0.3937007874015748
        },
        {
          "duration": 0.3157889999999952,
          "durationTicks": 384,
          "midi": 38,
          "name": "D2",
          "ticks": 141696,
          "time": 116.526141,
          "velocity": 0.3937007874015748
        },
        {
          "duration": 0.1578944999999976,
          "durationTicks": 192,
          "midi": 51,
          "name": "D#3",
          "ticks": 141696,
          "time": 116.526141,
          "velocity": 0.3937007874015748
        },
        {
          "duration": 0.1578944999999976,
          "durationTicks": 192,
          "midi": 53,
          "name": "F3",
          "ticks": 141888,
          "time": 116.6840355,
          "velocity": 0.3937007874015748
        },
        {
          "duration": 0.1578944999999976,
          "durationTicks": 192,
          "midi": 53,
          "name": "F3",
          "ticks": 142080,
          "time": 116.84192999999999,
          "velocity": 0.3937007874015748
        },
        {
          "duration": 0.1578944999999976,
          "durationTicks": 192,
          "midi": 35,
          "name": "B1",
          "ticks": 142080,
          "time": 116.84192999999999,
          "velocity": 0.3937007874015748
        },
        {
          "duration": 0.15789450000001182,
          "durationTicks": 192,
          "midi": 53,
          "name": "F3",
          "ticks": 142272,
          "time": 116.99982449999999,
          "velocity": 0.3937007874015748
        },
        {
          "duration": 0.15789450000001182,
          "durationTicks": 192,
          "midi": 35,
          "name": "B1",
          "ticks": 142272,
          "time": 116.99982449999999,
          "velocity": 0.3937007874015748
        },
        {
          "duration": 0.1578944999999976,
          "durationTicks": 192,
          "midi": 51,
          "name": "D#3",
          "ticks": 142464,
          "time": 117.157719,
          "velocity": 0.3937007874015748
        },
        {
          "duration": 0.3157889999999952,
          "durationTicks": 384,
          "midi": 38,
          "name": "D2",
          "ticks": 142464,
          "time": 117.157719,
          "velocity": 0.3937007874015748
        },
        {
          "duration": 0.1578944999999976,
          "durationTicks": 192,
          "midi": 53,
          "name": "F3",
          "ticks": 142656,
          "time": 117.3156135,
          "velocity": 0.3937007874015748
        },
        {
          "duration": 0.1578944999999976,
          "durationTicks": 192,
          "midi": 53,
          "name": "F3",
          "ticks": 142848,
          "time": 117.473508,
          "velocity": 0.3937007874015748
        },
        {
          "duration": 0.1578944999999976,
          "durationTicks": 192,
          "midi": 35,
          "name": "B1",
          "ticks": 142848,
          "time": 117.473508,
          "velocity": 0.3937007874015748
        },
        {
          "duration": 0.1578944999999976,
          "durationTicks": 192,
          "midi": 53,
          "name": "F3",
          "ticks": 143040,
          "time": 117.6314025,
          "velocity": 0.3937007874015748
        },
        {
          "duration": 0.1578944999999976,
          "durationTicks": 192,
          "midi": 35,
          "name": "B1",
          "ticks": 143040,
          "time": 117.6314025,
          "velocity": 0.3937007874015748
        },
        {
          "duration": 0.3157890000000094,
          "durationTicks": 384,
          "midi": 38,
          "name": "D2",
          "ticks": 143232,
          "time": 117.78929699999999,
          "velocity": 0.3937007874015748
        },
        {
          "duration": 0.1578944999999976,
          "durationTicks": 192,
          "midi": 51,
          "name": "D#3",
          "ticks": 143232,
          "time": 117.78929699999999,
          "velocity": 0.3937007874015748
        },
        {
          "duration": 0.15789450000001182,
          "durationTicks": 192,
          "midi": 53,
          "name": "F3",
          "ticks": 143424,
          "time": 117.94719149999999,
          "velocity": 0.3937007874015748
        },
        {
          "duration": 0.1578944999999976,
          "durationTicks": 192,
          "midi": 35,
          "name": "B1",
          "ticks": 143616,
          "time": 118.105086,
          "velocity": 0.3937007874015748
        },
        {
          "duration": 0.1578944999999976,
          "durationTicks": 192,
          "midi": 53,
          "name": "F3",
          "ticks": 143616,
          "time": 118.105086,
          "velocity": 0.3937007874015748
        },
        {
          "duration": 0.1578944999999976,
          "durationTicks": 192,
          "midi": 53,
          "name": "F3",
          "ticks": 143808,
          "time": 118.2629805,
          "velocity": 0.3937007874015748
        },
        {
          "duration": 0.1578944999999976,
          "durationTicks": 192,
          "midi": 35,
          "name": "B1",
          "ticks": 143808,
          "time": 118.2629805,
          "velocity": 0.3937007874015748
        },
        {
          "duration": 0.1578944999999976,
          "durationTicks": 192,
          "midi": 51,
          "name": "D#3",
          "ticks": 144000,
          "time": 118.420875,
          "velocity": 0.3937007874015748
        },
        {
          "duration": 0.3157889999999952,
          "durationTicks": 384,
          "midi": 38,
          "name": "D2",
          "ticks": 144000,
          "time": 118.420875,
          "velocity": 0.3937007874015748
        },
        {
          "duration": 0.1578944999999976,
          "durationTicks": 192,
          "midi": 53,
          "name": "F3",
          "ticks": 144192,
          "time": 118.57876949999999,
          "velocity": 0.3937007874015748
        },
        {
          "duration": 0.1578944999999976,
          "durationTicks": 192,
          "midi": 53,
          "name": "F3",
          "ticks": 144384,
          "time": 118.73666399999999,
          "velocity": 0.3937007874015748
        },
        {
          "duration": 0.1578944999999976,
          "durationTicks": 192,
          "midi": 35,
          "name": "B1",
          "ticks": 144384,
          "time": 118.73666399999999,
          "velocity": 0.3937007874015748
        },
        {
          "duration": 0.15789450000001182,
          "durationTicks": 192,
          "midi": 53,
          "name": "F3",
          "ticks": 144576,
          "time": 118.89455849999999,
          "velocity": 0.3937007874015748
        },
        {
          "duration": 0.15789450000001182,
          "durationTicks": 192,
          "midi": 35,
          "name": "B1",
          "ticks": 144576,
          "time": 118.89455849999999,
          "velocity": 0.3937007874015748
        },
        {
          "duration": 0.1578944999999976,
          "durationTicks": 192,
          "midi": 51,
          "name": "D#3",
          "ticks": 144768,
          "time": 119.052453,
          "velocity": 0.3937007874015748
        },
        {
          "duration": 0.3157889999999952,
          "durationTicks": 384,
          "midi": 38,
          "name": "D2",
          "ticks": 144768,
          "time": 119.052453,
          "velocity": 0.3937007874015748
        },
        {
          "duration": 0.1578944999999976,
          "durationTicks": 192,
          "midi": 53,
          "name": "F3",
          "ticks": 144960,
          "time": 119.2103475,
          "velocity": 0.3937007874015748
        },
        {
          "duration": 0.1578944999999976,
          "durationTicks": 192,
          "midi": 35,
          "name": "B1",
          "ticks": 145152,
          "time": 119.368242,
          "velocity": 0.3937007874015748
        },
        {
          "duration": 0.1578944999999976,
          "durationTicks": 192,
          "midi": 53,
          "name": "F3",
          "ticks": 145152,
          "time": 119.368242,
          "velocity": 0.3937007874015748
        },
        {
          "duration": 0.1578944999999976,
          "durationTicks": 192,
          "midi": 35,
          "name": "B1",
          "ticks": 145344,
          "time": 119.52613649999999,
          "velocity": 0.3937007874015748
        },
        {
          "duration": 0.1578944999999976,
          "durationTicks": 192,
          "midi": 53,
          "name": "F3",
          "ticks": 145344,
          "time": 119.52613649999999,
          "velocity": 0.3937007874015748
        },
        {
          "duration": 0.1578944999999976,
          "durationTicks": 192,
          "midi": 51,
          "name": "D#3",
          "ticks": 145536,
          "time": 119.68403099999999,
          "velocity": 0.3937007874015748
        },
        {
          "duration": 0.3157890000000094,
          "durationTicks": 384,
          "midi": 38,
          "name": "D2",
          "ticks": 145536,
          "time": 119.68403099999999,
          "velocity": 0.3937007874015748
        },
        {
          "duration": 0.15789450000001182,
          "durationTicks": 192,
          "midi": 53,
          "name": "F3",
          "ticks": 145728,
          "time": 119.84192549999999,
          "velocity": 0.3937007874015748
        },
        {
          "duration": 0.1578944999999976,
          "durationTicks": 192,
          "midi": 53,
          "name": "F3",
          "ticks": 145920,
          "time": 119.99982,
          "velocity": 0.3937007874015748
        },
        {
          "duration": 0.1578944999999976,
          "durationTicks": 192,
          "midi": 35,
          "name": "B1",
          "ticks": 145920,
          "time": 119.99982,
          "velocity": 0.3937007874015748
        },
        {
          "duration": 0.1578944999999976,
          "durationTicks": 192,
          "midi": 35,
          "name": "B1",
          "ticks": 146112,
          "time": 120.1577145,
          "velocity": 0.3937007874015748
        },
        {
          "duration": 0.1578944999999976,
          "durationTicks": 192,
          "midi": 53,
          "name": "F3",
          "ticks": 146112,
          "time": 120.1577145,
          "velocity": 0.3937007874015748
        },
        {
          "duration": 0.3157889999999952,
          "durationTicks": 384,
          "midi": 38,
          "name": "D2",
          "ticks": 146304,
          "time": 120.315609,
          "velocity": 0.3937007874015748
        },
        {
          "duration": 0.1578944999999976,
          "durationTicks": 192,
          "midi": 51,
          "name": "D#3",
          "ticks": 146304,
          "time": 120.315609,
          "velocity": 0.3937007874015748
        },
        {
          "duration": 0.1578944999999976,
          "durationTicks": 192,
          "midi": 53,
          "name": "F3",
          "ticks": 146496,
          "time": 120.47350349999999,
          "velocity": 0.3937007874015748
        },
        {
          "duration": 0.1578944999999976,
          "durationTicks": 192,
          "midi": 35,
          "name": "B1",
          "ticks": 146688,
          "time": 120.63139799999999,
          "velocity": 0.3937007874015748
        },
        {
          "duration": 0.1578944999999976,
          "durationTicks": 192,
          "midi": 53,
          "name": "F3",
          "ticks": 146688,
          "time": 120.63139799999999,
          "velocity": 0.3937007874015748
        },
        {
          "duration": 0.15789450000001182,
          "durationTicks": 192,
          "midi": 53,
          "name": "F3",
          "ticks": 146880,
          "time": 120.78929249999999,
          "velocity": 0.3937007874015748
        },
        {
          "duration": 0.15789450000001182,
          "durationTicks": 192,
          "midi": 35,
          "name": "B1",
          "ticks": 146880,
          "time": 120.78929249999999,
          "velocity": 0.3937007874015748
        },
        {
          "duration": 0.1578944999999976,
          "durationTicks": 192,
          "midi": 51,
          "name": "D#3",
          "ticks": 147072,
          "time": 120.947187,
          "velocity": 0.3937007874015748
        },
        {
          "duration": 0.3157889999999952,
          "durationTicks": 384,
          "midi": 38,
          "name": "D2",
          "ticks": 147072,
          "time": 120.947187,
          "velocity": 0.3937007874015748
        },
        {
          "duration": 0.1578944999999976,
          "durationTicks": 192,
          "midi": 53,
          "name": "F3",
          "ticks": 147264,
          "time": 121.1050815,
          "velocity": 0.3937007874015748
        },
        {
          "duration": 0.1578944999999976,
          "durationTicks": 192,
          "midi": 35,
          "name": "B1",
          "ticks": 147456,
          "time": 121.262976,
          "velocity": 0.3937007874015748
        },
        {
          "duration": 0.1578944999999976,
          "durationTicks": 192,
          "midi": 53,
          "name": "F3",
          "ticks": 147456,
          "time": 121.262976,
          "velocity": 0.3937007874015748
        },
        {
          "duration": 0.1578944999999976,
          "durationTicks": 192,
          "midi": 53,
          "name": "F3",
          "ticks": 147648,
          "time": 121.42087049999999,
          "velocity": 0.3937007874015748
        },
        {
          "duration": 0.1578944999999976,
          "durationTicks": 192,
          "midi": 35,
          "name": "B1",
          "ticks": 147648,
          "time": 121.42087049999999,
          "velocity": 0.3937007874015748
        },
        {
          "duration": 0.15789450000001182,
          "durationTicks": 192,
          "midi": 51,
          "name": "D#3",
          "ticks": 147840,
          "time": 121.57876499999999,
          "velocity": 0.3937007874015748
        },
        {
          "duration": 0.3157890000000094,
          "durationTicks": 384,
          "midi": 38,
          "name": "D2",
          "ticks": 147840,
          "time": 121.57876499999999,
          "velocity": 0.3937007874015748
        },
        {
          "duration": 0.1578944999999976,
          "durationTicks": 192,
          "midi": 53,
          "name": "F3",
          "ticks": 148032,
          "time": 121.7366595,
          "velocity": 0.3937007874015748
        },
        {
          "duration": 0.1578944999999976,
          "durationTicks": 192,
          "midi": 53,
          "name": "F3",
          "ticks": 148224,
          "time": 121.894554,
          "velocity": 0.3937007874015748
        },
        {
          "duration": 0.1578944999999976,
          "durationTicks": 192,
          "midi": 35,
          "name": "B1",
          "ticks": 148224,
          "time": 121.894554,
          "velocity": 0.3937007874015748
        },
        {
          "duration": 0.1578944999999976,
          "durationTicks": 192,
          "midi": 35,
          "name": "B1",
          "ticks": 148416,
          "time": 122.0524485,
          "velocity": 0.3937007874015748
        },
        {
          "duration": 0.1578944999999976,
          "durationTicks": 192,
          "midi": 53,
          "name": "F3",
          "ticks": 148416,
          "time": 122.0524485,
          "velocity": 0.3937007874015748
        },
        {
          "duration": 0.3157889999999952,
          "durationTicks": 384,
          "midi": 38,
          "name": "D2",
          "ticks": 148608,
          "time": 122.210343,
          "velocity": 0.3937007874015748
        },
        {
          "duration": 0.1578944999999976,
          "durationTicks": 192,
          "midi": 51,
          "name": "D#3",
          "ticks": 148608,
          "time": 122.210343,
          "velocity": 0.3937007874015748
        },
        {
          "duration": 0.1578944999999976,
          "durationTicks": 192,
          "midi": 53,
          "name": "F3",
          "ticks": 148800,
          "time": 122.36823749999999,
          "velocity": 0.3937007874015748
        },
        {
          "duration": 0.15789450000001182,
          "durationTicks": 192,
          "midi": 53,
          "name": "F3",
          "ticks": 148992,
          "time": 122.52613199999999,
          "velocity": 0.3937007874015748
        },
        {
          "duration": 0.15789450000001182,
          "durationTicks": 192,
          "midi": 35,
          "name": "B1",
          "ticks": 148992,
          "time": 122.52613199999999,
          "velocity": 0.3937007874015748
        },
        {
          "duration": 0.1578944999999976,
          "durationTicks": 192,
          "midi": 53,
          "name": "F3",
          "ticks": 149184,
          "time": 122.6840265,
          "velocity": 0.3937007874015748
        },
        {
          "duration": 0.1578944999999976,
          "durationTicks": 192,
          "midi": 35,
          "name": "B1",
          "ticks": 149184,
          "time": 122.6840265,
          "velocity": 0.3937007874015748
        },
        {
          "duration": 0.3157889999999952,
          "durationTicks": 384,
          "midi": 38,
          "name": "D2",
          "ticks": 149376,
          "time": 122.841921,
          "velocity": 0.3937007874015748
        },
        {
          "duration": 0.1578944999999976,
          "durationTicks": 192,
          "midi": 51,
          "name": "D#3",
          "ticks": 149376,
          "time": 122.841921,
          "velocity": 0.3937007874015748
        },
        {
          "duration": 0.1578944999999976,
          "durationTicks": 192,
          "midi": 53,
          "name": "F3",
          "ticks": 149568,
          "time": 122.9998155,
          "velocity": 0.3937007874015748
        },
        {
          "duration": 0.1578944999999976,
          "durationTicks": 192,
          "midi": 35,
          "name": "B1",
          "ticks": 149760,
          "time": 123.15771,
          "velocity": 0.3937007874015748
        },
        {
          "duration": 0.1578944999999976,
          "durationTicks": 192,
          "midi": 53,
          "name": "F3",
          "ticks": 149760,
          "time": 123.15771,
          "velocity": 0.3937007874015748
        },
        {
          "duration": 0.1578944999999976,
          "durationTicks": 192,
          "midi": 35,
          "name": "B1",
          "ticks": 149952,
          "time": 123.31560449999999,
          "velocity": 0.3937007874015748
        },
        {
          "duration": 0.1578944999999976,
          "durationTicks": 192,
          "midi": 53,
          "name": "F3",
          "ticks": 149952,
          "time": 123.31560449999999,
          "velocity": 0.3937007874015748
        },
        {
          "duration": 0.15789450000001182,
          "durationTicks": 192,
          "midi": 51,
          "name": "D#3",
          "ticks": 150144,
          "time": 123.47349899999999,
          "velocity": 0.3937007874015748
        },
        {
          "duration": 0.3157890000000094,
          "durationTicks": 384,
          "midi": 38,
          "name": "D2",
          "ticks": 150144,
          "time": 123.47349899999999,
          "velocity": 0.3937007874015748
        },
        {
          "duration": 0.1578944999999976,
          "durationTicks": 192,
          "midi": 53,
          "name": "F3",
          "ticks": 150336,
          "time": 123.6313935,
          "velocity": 0.3937007874015748
        },
        {
          "duration": 0.1578944999999976,
          "durationTicks": 192,
          "midi": 35,
          "name": "B1",
          "ticks": 150528,
          "time": 123.789288,
          "velocity": 0.3937007874015748
        },
        {
          "duration": 0.1578944999999976,
          "durationTicks": 192,
          "midi": 53,
          "name": "F3",
          "ticks": 150528,
          "time": 123.789288,
          "velocity": 0.3937007874015748
        },
        {
          "duration": 0.1578944999999976,
          "durationTicks": 192,
          "midi": 35,
          "name": "B1",
          "ticks": 150720,
          "time": 123.9471825,
          "velocity": 0.3937007874015748
        },
        {
          "duration": 0.1578944999999976,
          "durationTicks": 192,
          "midi": 53,
          "name": "F3",
          "ticks": 150720,
          "time": 123.9471825,
          "velocity": 0.3937007874015748
        },
        {
          "duration": 0.1578944999999976,
          "durationTicks": 192,
          "midi": 51,
          "name": "D#3",
          "ticks": 150912,
          "time": 124.105077,
          "velocity": 0.3937007874015748
        },
        {
          "duration": 0.3157889999999952,
          "durationTicks": 384,
          "midi": 38,
          "name": "D2",
          "ticks": 150912,
          "time": 124.105077,
          "velocity": 0.3937007874015748
        },
        {
          "duration": 0.1578944999999976,
          "durationTicks": 192,
          "midi": 53,
          "name": "F3",
          "ticks": 151104,
          "time": 124.26297149999999,
          "velocity": 0.3937007874015748
        },
        {
          "duration": 0.15789450000001182,
          "durationTicks": 192,
          "midi": 35,
          "name": "B1",
          "ticks": 151296,
          "time": 124.42086599999999,
          "velocity": 0.3937007874015748
        },
        {
          "duration": 0.15789450000001182,
          "durationTicks": 192,
          "midi": 53,
          "name": "F3",
          "ticks": 151296,
          "time": 124.42086599999999,
          "velocity": 0.3937007874015748
        },
        {
          "duration": 0.1578944999999976,
          "durationTicks": 192,
          "midi": 53,
          "name": "F3",
          "ticks": 151488,
          "time": 124.5787605,
          "velocity": 0.3937007874015748
        },
        {
          "duration": 0.1578944999999976,
          "durationTicks": 192,
          "midi": 35,
          "name": "B1",
          "ticks": 151488,
          "time": 124.5787605,
          "velocity": 0.3937007874015748
        },
        {
          "duration": 0.1578944999999976,
          "durationTicks": 192,
          "midi": 51,
          "name": "D#3",
          "ticks": 151680,
          "time": 124.736655,
          "velocity": 0.3937007874015748
        },
        {
          "duration": 0.3157889999999952,
          "durationTicks": 384,
          "midi": 38,
          "name": "D2",
          "ticks": 151680,
          "time": 124.736655,
          "velocity": 0.3937007874015748
        },
        {
          "duration": 0.1578944999999976,
          "durationTicks": 192,
          "midi": 53,
          "name": "F3",
          "ticks": 151872,
          "time": 124.8945495,
          "velocity": 0.3937007874015748
        },
        {
          "duration": 0.1578944999999976,
          "durationTicks": 192,
          "midi": 35,
          "name": "B1",
          "ticks": 152064,
          "time": 125.052444,
          "velocity": 0.3937007874015748
        },
        {
          "duration": 0.1578944999999976,
          "durationTicks": 192,
          "midi": 53,
          "name": "F3",
          "ticks": 152064,
          "time": 125.052444,
          "velocity": 0.3937007874015748
        },
        {
          "duration": 0.1578944999999976,
          "durationTicks": 192,
          "midi": 35,
          "name": "B1",
          "ticks": 152256,
          "time": 125.21033849999999,
          "velocity": 0.3937007874015748
        },
        {
          "duration": 0.1578944999999976,
          "durationTicks": 192,
          "midi": 53,
          "name": "F3",
          "ticks": 152256,
          "time": 125.21033849999999,
          "velocity": 0.3937007874015748
        },
        {
          "duration": 0.3157890000000094,
          "durationTicks": 384,
          "midi": 38,
          "name": "D2",
          "ticks": 152448,
          "time": 125.36823299999999,
          "velocity": 0.3937007874015748
        },
        {
          "duration": 0.15789450000001182,
          "durationTicks": 192,
          "midi": 51,
          "name": "D#3",
          "ticks": 152448,
          "time": 125.36823299999999,
          "velocity": 0.3937007874015748
        },
        {
          "duration": 0.1578944999999976,
          "durationTicks": 192,
          "midi": 53,
          "name": "F3",
          "ticks": 152640,
          "time": 125.5261275,
          "velocity": 0.3937007874015748
        },
        {
          "duration": 0.1578944999999976,
          "durationTicks": 192,
          "midi": 35,
          "name": "B1",
          "ticks": 152832,
          "time": 125.684022,
          "velocity": 0.3937007874015748
        },
        {
          "duration": 0.1578944999999976,
          "durationTicks": 192,
          "midi": 53,
          "name": "F3",
          "ticks": 152832,
          "time": 125.684022,
          "velocity": 0.3937007874015748
        },
        {
          "duration": 0.1578944999999976,
          "durationTicks": 192,
          "midi": 53,
          "name": "F3",
          "ticks": 153024,
          "time": 125.8419165,
          "velocity": 0.3937007874015748
        },
        {
          "duration": 0.1578944999999976,
          "durationTicks": 192,
          "midi": 35,
          "name": "B1",
          "ticks": 153024,
          "time": 125.8419165,
          "velocity": 0.3937007874015748
        },
        {
          "duration": 0.3157889999999952,
          "durationTicks": 384,
          "midi": 38,
          "name": "D2",
          "ticks": 153216,
          "time": 125.999811,
          "velocity": 0.3937007874015748
        },
        {
          "duration": 0.1578944999999976,
          "durationTicks": 192,
          "midi": 51,
          "name": "D#3",
          "ticks": 153216,
          "time": 125.999811,
          "velocity": 0.3937007874015748
        },
        {
          "duration": 0.1578944999999976,
          "durationTicks": 192,
          "midi": 53,
          "name": "F3",
          "ticks": 153408,
          "time": 126.15770549999999,
          "velocity": 0.3937007874015748
        },
        {
          "duration": 0.15789450000001182,
          "durationTicks": 192,
          "midi": 53,
          "name": "F3",
          "ticks": 153600,
          "time": 126.31559999999999,
          "velocity": 0.3937007874015748
        },
        {
          "duration": 0.15789450000001182,
          "durationTicks": 192,
          "midi": 35,
          "name": "B1",
          "ticks": 153600,
          "time": 126.31559999999999,
          "velocity": 0.3937007874015748
        },
        {
          "duration": 0.1578944999999976,
          "durationTicks": 192,
          "midi": 53,
          "name": "F3",
          "ticks": 153792,
          "time": 126.4734945,
          "velocity": 0.3937007874015748
        },
        {
          "duration": 0.1578944999999976,
          "durationTicks": 192,
          "midi": 35,
          "name": "B1",
          "ticks": 153792,
          "time": 126.4734945,
          "velocity": 0.3937007874015748
        },
        {
          "duration": 0.1578944999999976,
          "durationTicks": 192,
          "midi": 51,
          "name": "D#3",
          "ticks": 153984,
          "time": 126.631389,
          "velocity": 0.3937007874015748
        },
        {
          "duration": 0.3157889999999952,
          "durationTicks": 384,
          "midi": 38,
          "name": "D2",
          "ticks": 153984,
          "time": 126.631389,
          "velocity": 0.3937007874015748
        },
        {
          "duration": 0.1578944999999976,
          "durationTicks": 192,
          "midi": 53,
          "name": "F3",
          "ticks": 154176,
          "time": 126.7892835,
          "velocity": 0.3937007874015748
        },
        {
          "duration": 0.1578944999999976,
          "durationTicks": 192,
          "midi": 35,
          "name": "B1",
          "ticks": 154368,
          "time": 126.947178,
          "velocity": 0.3937007874015748
        },
        {
          "duration": 0.1578944999999976,
          "durationTicks": 192,
          "midi": 53,
          "name": "F3",
          "ticks": 154368,
          "time": 126.947178,
          "velocity": 0.3937007874015748
        },
        {
          "duration": 0.1578944999999976,
          "durationTicks": 192,
          "midi": 53,
          "name": "F3",
          "ticks": 154560,
          "time": 127.10507249999999,
          "velocity": 0.3937007874015748
        },
        {
          "duration": 0.1578944999999976,
          "durationTicks": 192,
          "midi": 35,
          "name": "B1",
          "ticks": 154560,
          "time": 127.10507249999999,
          "velocity": 0.3937007874015748
        },
        {
          "duration": 0.15789450000001182,
          "durationTicks": 192,
          "midi": 51,
          "name": "D#3",
          "ticks": 154752,
          "time": 127.26296699999999,
          "velocity": 0.3937007874015748
        },
        {
          "duration": 0.3157890000000094,
          "durationTicks": 384,
          "midi": 38,
          "name": "D2",
          "ticks": 154752,
          "time": 127.26296699999999,
          "velocity": 0.3937007874015748
        },
        {
          "duration": 0.1578944999999976,
          "durationTicks": 192,
          "midi": 53,
          "name": "F3",
          "ticks": 154944,
          "time": 127.4208615,
          "velocity": 0.3937007874015748
        },
        {
          "duration": 0.1578944999999976,
          "durationTicks": 192,
          "midi": 53,
          "name": "F3",
          "ticks": 155136,
          "time": 127.578756,
          "velocity": 0.3937007874015748
        },
        {
          "duration": 0.1578944999999976,
          "durationTicks": 192,
          "midi": 35,
          "name": "B1",
          "ticks": 155136,
          "time": 127.578756,
          "velocity": 0.3937007874015748
        },
        {
          "duration": 0.1578944999999976,
          "durationTicks": 192,
          "midi": 35,
          "name": "B1",
          "ticks": 155328,
          "time": 127.7366505,
          "velocity": 0.3937007874015748
        },
        {
          "duration": 0.1578944999999976,
          "durationTicks": 192,
          "midi": 53,
          "name": "F3",
          "ticks": 155328,
          "time": 127.7366505,
          "velocity": 0.3937007874015748
        },
        {
          "duration": 0.1578944999999976,
          "durationTicks": 192,
          "midi": 51,
          "name": "D#3",
          "ticks": 155520,
          "time": 127.894545,
          "velocity": 0.3937007874015748
        },
        {
          "duration": 0.3157889999999952,
          "durationTicks": 384,
          "midi": 38,
          "name": "D2",
          "ticks": 155520,
          "time": 127.894545,
          "velocity": 0.3937007874015748
        },
        {
          "duration": 0.1578944999999976,
          "durationTicks": 192,
          "midi": 53,
          "name": "F3",
          "ticks": 155712,
          "time": 128.0524395,
          "velocity": 0.3937007874015748
        },
        {
          "duration": 0.1578944999999976,
          "durationTicks": 192,
          "midi": 35,
          "name": "B1",
          "ticks": 155904,
          "time": 128.210334,
          "velocity": 0.3937007874015748
        },
        {
          "duration": 0.1578944999999976,
          "durationTicks": 192,
          "midi": 53,
          "name": "F3",
          "ticks": 155904,
          "time": 128.210334,
          "velocity": 0.3937007874015748
        },
        {
          "duration": 0.1578944999999976,
          "durationTicks": 192,
          "midi": 35,
          "name": "B1",
          "ticks": 156096,
          "time": 128.3682285,
          "velocity": 0.3937007874015748
        },
        {
          "duration": 0.1578944999999976,
          "durationTicks": 192,
          "midi": 53,
          "name": "F3",
          "ticks": 156096,
          "time": 128.3682285,
          "velocity": 0.3937007874015748
        },
        {
          "duration": 0.1578944999999976,
          "durationTicks": 192,
          "midi": 51,
          "name": "D#3",
          "ticks": 156288,
          "time": 128.52612299999998,
          "velocity": 0.3937007874015748
        },
        {
          "duration": 0.31578900000002363,
          "durationTicks": 384,
          "midi": 38,
          "name": "D2",
          "ticks": 156288,
          "time": 128.52612299999998,
          "velocity": 0.3937007874015748
        },
        {
          "duration": 0.15789450000002603,
          "durationTicks": 192,
          "midi": 53,
          "name": "F3",
          "ticks": 156480,
          "time": 128.68401749999998,
          "velocity": 0.3937007874015748
        },
        {
          "duration": 0.1578944999999976,
          "durationTicks": 192,
          "midi": 53,
          "name": "F3",
          "ticks": 156672,
          "time": 128.841912,
          "velocity": 0.3937007874015748
        },
        {
          "duration": 0.1578944999999976,
          "durationTicks": 192,
          "midi": 35,
          "name": "B1",
          "ticks": 156672,
          "time": 128.841912,
          "velocity": 0.3937007874015748
        },
        {
          "duration": 0.1578944999999976,
          "durationTicks": 192,
          "midi": 53,
          "name": "F3",
          "ticks": 156864,
          "time": 128.9998065,
          "velocity": 0.3937007874015748
        },
        {
          "duration": 0.1578944999999976,
          "durationTicks": 192,
          "midi": 35,
          "name": "B1",
          "ticks": 156864,
          "time": 128.9998065,
          "velocity": 0.3937007874015748
        },
        {
          "duration": 0.1578944999999976,
          "durationTicks": 192,
          "midi": 51,
          "name": "D#3",
          "ticks": 157056,
          "time": 129.157701,
          "velocity": 0.3937007874015748
        },
        {
          "duration": 0.3157889999999952,
          "durationTicks": 384,
          "midi": 38,
          "name": "D2",
          "ticks": 157056,
          "time": 129.157701,
          "velocity": 0.3937007874015748
        },
        {
          "duration": 0.1578944999999976,
          "durationTicks": 192,
          "midi": 53,
          "name": "F3",
          "ticks": 157248,
          "time": 129.3155955,
          "velocity": 0.3937007874015748
        },
        {
          "duration": 0.1578944999999976,
          "durationTicks": 192,
          "midi": 35,
          "name": "B1",
          "ticks": 157440,
          "time": 129.47349,
          "velocity": 0.3937007874015748
        },
        {
          "duration": 0.1578944999999976,
          "durationTicks": 192,
          "midi": 53,
          "name": "F3",
          "ticks": 157440,
          "time": 129.47349,
          "velocity": 0.3937007874015748
        },
        {
          "duration": 0.1578944999999976,
          "durationTicks": 192,
          "midi": 35,
          "name": "B1",
          "ticks": 157632,
          "time": 129.6313845,
          "velocity": 0.3937007874015748
        },
        {
          "duration": 0.1578944999999976,
          "durationTicks": 192,
          "midi": 53,
          "name": "F3",
          "ticks": 157632,
          "time": 129.6313845,
          "velocity": 0.3937007874015748
        },
        {
          "duration": 0.3157889999999952,
          "durationTicks": 384,
          "midi": 38,
          "name": "D2",
          "ticks": 157824,
          "time": 129.789279,
          "velocity": 0.3937007874015748
        },
        {
          "duration": 0.1578944999999976,
          "durationTicks": 192,
          "midi": 51,
          "name": "D#3",
          "ticks": 157824,
          "time": 129.789279,
          "velocity": 0.3937007874015748
        },
        {
          "duration": 0.1578944999999976,
          "durationTicks": 192,
          "midi": 53,
          "name": "F3",
          "ticks": 158016,
          "time": 129.9471735,
          "velocity": 0.3937007874015748
        },
        {
          "duration": 0.1578944999999976,
          "durationTicks": 192,
          "midi": 53,
          "name": "F3",
          "ticks": 158208,
          "time": 130.105068,
          "velocity": 0.3937007874015748
        },
        {
          "duration": 0.1578944999999976,
          "durationTicks": 192,
          "midi": 35,
          "name": "B1",
          "ticks": 158208,
          "time": 130.105068,
          "velocity": 0.3937007874015748
        },
        {
          "duration": 0.1578944999999976,
          "durationTicks": 192,
          "midi": 53,
          "name": "F3",
          "ticks": 158400,
          "time": 130.2629625,
          "velocity": 0.3937007874015748
        },
        {
          "duration": 0.1578944999999976,
          "durationTicks": 192,
          "midi": 35,
          "name": "B1",
          "ticks": 158400,
          "time": 130.2629625,
          "velocity": 0.3937007874015748
        },
        {
          "duration": 0.31578900000002363,
          "durationTicks": 384,
          "midi": 38,
          "name": "D2",
          "ticks": 158592,
          "time": 130.42085699999998,
          "velocity": 0.3937007874015748
        },
        {
          "duration": 0.1578944999999976,
          "durationTicks": 192,
          "midi": 51,
          "name": "D#3",
          "ticks": 158592,
          "time": 130.42085699999998,
          "velocity": 0.3937007874015748
        },
        {
          "duration": 0.15789450000002603,
          "durationTicks": 192,
          "midi": 53,
          "name": "F3",
          "ticks": 158784,
          "time": 130.57875149999998,
          "velocity": 0.3937007874015748
        },
        {
          "duration": 0.1578944999999976,
          "durationTicks": 192,
          "midi": 53,
          "name": "F3",
          "ticks": 158976,
          "time": 130.736646,
          "velocity": 0.3937007874015748
        },
        {
          "duration": 0.1578944999999976,
          "durationTicks": 192,
          "midi": 35,
          "name": "B1",
          "ticks": 158976,
          "time": 130.736646,
          "velocity": 0.3937007874015748
        },
        {
          "duration": 0.1578944999999976,
          "durationTicks": 192,
          "midi": 53,
          "name": "F3",
          "ticks": 159168,
          "time": 130.8945405,
          "velocity": 0.3937007874015748
        },
        {
          "duration": 0.1578944999999976,
          "durationTicks": 192,
          "midi": 35,
          "name": "B1",
          "ticks": 159168,
          "time": 130.8945405,
          "velocity": 0.3937007874015748
        },
        {
          "duration": 0.1578944999999976,
          "durationTicks": 192,
          "midi": 51,
          "name": "D#3",
          "ticks": 159360,
          "time": 131.052435,
          "velocity": 0.3937007874015748
        },
        {
          "duration": 0.3157889999999952,
          "durationTicks": 384,
          "midi": 38,
          "name": "D2",
          "ticks": 159360,
          "time": 131.052435,
          "velocity": 0.3937007874015748
        },
        {
          "duration": 0.1578944999999976,
          "durationTicks": 192,
          "midi": 53,
          "name": "F3",
          "ticks": 159552,
          "time": 131.2103295,
          "velocity": 0.3937007874015748
        },
        {
          "duration": 0.1578944999999976,
          "durationTicks": 192,
          "midi": 53,
          "name": "F3",
          "ticks": 159744,
          "time": 131.368224,
          "velocity": 0.3937007874015748
        },
        {
          "duration": 0.1578944999999976,
          "durationTicks": 192,
          "midi": 35,
          "name": "B1",
          "ticks": 159744,
          "time": 131.368224,
          "velocity": 0.3937007874015748
        },
        {
          "duration": 0.1578944999999976,
          "durationTicks": 192,
          "midi": 35,
          "name": "B1",
          "ticks": 159936,
          "time": 131.5261185,
          "velocity": 0.3937007874015748
        },
        {
          "duration": 0.1578944999999976,
          "durationTicks": 192,
          "midi": 53,
          "name": "F3",
          "ticks": 159936,
          "time": 131.5261185,
          "velocity": 0.3937007874015748
        },
        {
          "duration": 0.1578944999999976,
          "durationTicks": 192,
          "midi": 51,
          "name": "D#3",
          "ticks": 160128,
          "time": 131.684013,
          "velocity": 0.3937007874015748
        },
        {
          "duration": 0.3157889999999952,
          "durationTicks": 384,
          "midi": 38,
          "name": "D2",
          "ticks": 160128,
          "time": 131.684013,
          "velocity": 0.3937007874015748
        },
        {
          "duration": 0.1578944999999976,
          "durationTicks": 192,
          "midi": 53,
          "name": "F3",
          "ticks": 160320,
          "time": 131.8419075,
          "velocity": 0.3937007874015748
        },
        {
          "duration": 0.1578944999999976,
          "durationTicks": 192,
          "midi": 35,
          "name": "B1",
          "ticks": 160512,
          "time": 131.999802,
          "velocity": 0.3937007874015748
        },
        {
          "duration": 0.1578944999999976,
          "durationTicks": 192,
          "midi": 53,
          "name": "F3",
          "ticks": 160512,
          "time": 131.999802,
          "velocity": 0.3937007874015748
        },
        {
          "duration": 0.1578944999999976,
          "durationTicks": 192,
          "midi": 53,
          "name": "F3",
          "ticks": 160704,
          "time": 132.1576965,
          "velocity": 0.3937007874015748
        },
        {
          "duration": 0.1578944999999976,
          "durationTicks": 192,
          "midi": 35,
          "name": "B1",
          "ticks": 160704,
          "time": 132.1576965,
          "velocity": 0.3937007874015748
        },
        {
          "duration": 0.1578944999999976,
          "durationTicks": 192,
          "midi": 51,
          "name": "D#3",
          "ticks": 160896,
          "time": 132.31559099999998,
          "velocity": 0.3937007874015748
        },
        {
          "duration": 0.31578900000002363,
          "durationTicks": 384,
          "midi": 38,
          "name": "D2",
          "ticks": 160896,
          "time": 132.31559099999998,
          "velocity": 0.3937007874015748
        },
        {
          "duration": 0.15789450000002603,
          "durationTicks": 192,
          "midi": 53,
          "name": "F3",
          "ticks": 161088,
          "time": 132.47348549999998,
          "velocity": 0.3937007874015748
        },
        {
          "duration": 0.1578944999999976,
          "durationTicks": 192,
          "midi": 53,
          "name": "F3",
          "ticks": 161280,
          "time": 132.63138,
          "velocity": 0.3937007874015748
        },
        {
          "duration": 0.1578944999999976,
          "durationTicks": 192,
          "midi": 35,
          "name": "B1",
          "ticks": 161280,
          "time": 132.63138,
          "velocity": 0.3937007874015748
        },
        {
          "duration": 0.1578944999999976,
          "durationTicks": 192,
          "midi": 35,
          "name": "B1",
          "ticks": 161472,
          "time": 132.7892745,
          "velocity": 0.3937007874015748
        },
        {
          "duration": 0.1578944999999976,
          "durationTicks": 192,
          "midi": 53,
          "name": "F3",
          "ticks": 161472,
          "time": 132.7892745,
          "velocity": 0.3937007874015748
        },
        {
          "duration": 0.3157889999999952,
          "durationTicks": 384,
          "midi": 38,
          "name": "D2",
          "ticks": 161664,
          "time": 132.947169,
          "velocity": 0.3937007874015748
        },
        {
          "duration": 0.1578944999999976,
          "durationTicks": 192,
          "midi": 51,
          "name": "D#3",
          "ticks": 161664,
          "time": 132.947169,
          "velocity": 0.3937007874015748
        },
        {
          "duration": 0.1578944999999976,
          "durationTicks": 192,
          "midi": 53,
          "name": "F3",
          "ticks": 161856,
          "time": 133.1050635,
          "velocity": 0.3937007874015748
        },
        {
          "duration": 0.1578944999999976,
          "durationTicks": 192,
          "midi": 35,
          "name": "B1",
          "ticks": 162048,
          "time": 133.262958,
          "velocity": 0.3937007874015748
        },
        {
          "duration": 0.1578944999999976,
          "durationTicks": 192,
          "midi": 53,
          "name": "F3",
          "ticks": 162048,
          "time": 133.262958,
          "velocity": 0.3937007874015748
        },
        {
          "duration": 0.1578944999999976,
          "durationTicks": 192,
          "midi": 53,
          "name": "F3",
          "ticks": 162240,
          "time": 133.4208525,
          "velocity": 0.3937007874015748
        },
        {
          "duration": 0.1578944999999976,
          "durationTicks": 192,
          "midi": 35,
          "name": "B1",
          "ticks": 162240,
          "time": 133.4208525,
          "velocity": 0.3937007874015748
        },
        {
          "duration": 0.1578944999999976,
          "durationTicks": 192,
          "midi": 51,
          "name": "D#3",
          "ticks": 162432,
          "time": 133.578747,
          "velocity": 0.3937007874015748
        },
        {
          "duration": 0.3157889999999952,
          "durationTicks": 384,
          "midi": 38,
          "name": "D2",
          "ticks": 162432,
          "time": 133.578747,
          "velocity": 0.3937007874015748
        },
        {
          "duration": 0.1578944999999976,
          "durationTicks": 192,
          "midi": 53,
          "name": "F3",
          "ticks": 162624,
          "time": 133.7366415,
          "velocity": 0.3937007874015748
        },
        {
          "duration": 0.1578944999999976,
          "durationTicks": 192,
          "midi": 53,
          "name": "F3",
          "ticks": 162816,
          "time": 133.894536,
          "velocity": 0.3937007874015748
        },
        {
          "duration": 0.1578944999999976,
          "durationTicks": 192,
          "midi": 35,
          "name": "B1",
          "ticks": 162816,
          "time": 133.894536,
          "velocity": 0.3937007874015748
        },
        {
          "duration": 0.1578944999999976,
          "durationTicks": 192,
          "midi": 35,
          "name": "B1",
          "ticks": 163008,
          "time": 134.05243049999999,
          "velocity": 0.3937007874015748
        },
        {
          "duration": 0.1578944999999976,
          "durationTicks": 192,
          "midi": 53,
          "name": "F3",
          "ticks": 163008,
          "time": 134.05243049999999,
          "velocity": 0.3937007874015748
        },
        {
          "duration": 0.1578944999999976,
          "durationTicks": 192,
          "midi": 51,
          "name": "D#3",
          "ticks": 163200,
          "time": 134.21032499999998,
          "velocity": 0.3937007874015748
        },
        {
          "duration": 0.31578900000002363,
          "durationTicks": 384,
          "midi": 38,
          "name": "D2",
          "ticks": 163200,
          "time": 134.21032499999998,
          "velocity": 0.3937007874015748
        },
        {
          "duration": 0.15789450000002603,
          "durationTicks": 192,
          "midi": 53,
          "name": "F3",
          "ticks": 163392,
          "time": 134.36821949999998,
          "velocity": 0.3937007874015748
        },
        {
          "duration": 0.1578944999999976,
          "durationTicks": 192,
          "midi": 53,
          "name": "F3",
          "ticks": 163584,
          "time": 134.526114,
          "velocity": 0.3937007874015748
        },
        {
          "duration": 0.1578944999999976,
          "durationTicks": 192,
          "midi": 35,
          "name": "B1",
          "ticks": 163584,
          "time": 134.526114,
          "velocity": 0.3937007874015748
        },
        {
          "duration": 0.1578944999999976,
          "durationTicks": 192,
          "midi": 35,
          "name": "B1",
          "ticks": 163776,
          "time": 134.6840085,
          "velocity": 0.3937007874015748
        },
        {
          "duration": 0.1578944999999976,
          "durationTicks": 192,
          "midi": 53,
          "name": "F3",
          "ticks": 163776,
          "time": 134.6840085,
          "velocity": 0.3937007874015748
        },
        {
          "duration": 0.1578944999999976,
          "durationTicks": 192,
          "midi": 51,
          "name": "D#3",
          "ticks": 163968,
          "time": 134.841903,
          "velocity": 0.3937007874015748
        },
        {
          "duration": 0.3157889999999952,
          "durationTicks": 384,
          "midi": 38,
          "name": "D2",
          "ticks": 163968,
          "time": 134.841903,
          "velocity": 0.3937007874015748
        },
        {
          "duration": 0.1578944999999976,
          "durationTicks": 192,
          "midi": 53,
          "name": "F3",
          "ticks": 164160,
          "time": 134.9997975,
          "velocity": 0.3937007874015748
        },
        {
          "duration": 0.1578944999999976,
          "durationTicks": 192,
          "midi": 53,
          "name": "F3",
          "ticks": 164352,
          "time": 135.157692,
          "velocity": 0.3937007874015748
        },
        {
          "duration": 0.1578944999999976,
          "durationTicks": 192,
          "midi": 35,
          "name": "B1",
          "ticks": 164352,
          "time": 135.157692,
          "velocity": 0.3937007874015748
        },
        {
          "duration": 0.1578944999999976,
          "durationTicks": 192,
          "midi": 35,
          "name": "B1",
          "ticks": 164544,
          "time": 135.3155865,
          "velocity": 0.3937007874015748
        },
        {
          "duration": 0.1578944999999976,
          "durationTicks": 192,
          "midi": 53,
          "name": "F3",
          "ticks": 164544,
          "time": 135.3155865,
          "velocity": 0.3937007874015748
        },
        {
          "duration": 0.3157889999999952,
          "durationTicks": 384,
          "midi": 38,
          "name": "D2",
          "ticks": 164736,
          "time": 135.473481,
          "velocity": 0.3937007874015748
        },
        {
          "duration": 0.1578944999999976,
          "durationTicks": 192,
          "midi": 51,
          "name": "D#3",
          "ticks": 164736,
          "time": 135.473481,
          "velocity": 0.3937007874015748
        },
        {
          "duration": 0.1578944999999976,
          "durationTicks": 192,
          "midi": 53,
          "name": "F3",
          "ticks": 164928,
          "time": 135.6313755,
          "velocity": 0.3937007874015748
        },
        {
          "duration": 0.1578944999999976,
          "durationTicks": 192,
          "midi": 35,
          "name": "B1",
          "ticks": 165120,
          "time": 135.78927,
          "velocity": 0.3937007874015748
        },
        {
          "duration": 0.1578944999999976,
          "durationTicks": 192,
          "midi": 53,
          "name": "F3",
          "ticks": 165120,
          "time": 135.78927,
          "velocity": 0.3937007874015748
        },
        {
          "duration": 0.1578944999999976,
          "durationTicks": 192,
          "midi": 35,
          "name": "B1",
          "ticks": 165312,
          "time": 135.94716449999999,
          "velocity": 0.3937007874015748
        },
        {
          "duration": 0.1578944999999976,
          "durationTicks": 192,
          "midi": 53,
          "name": "F3",
          "ticks": 165312,
          "time": 135.94716449999999,
          "velocity": 0.3937007874015748
        },
        {
          "duration": 0.1578944999999976,
          "durationTicks": 192,
          "midi": 51,
          "name": "D#3",
          "ticks": 165504,
          "time": 136.10505899999998,
          "velocity": 0.3937007874015748
        },
        {
          "duration": 0.31578900000002363,
          "durationTicks": 384,
          "midi": 38,
          "name": "D2",
          "ticks": 165504,
          "time": 136.10505899999998,
          "velocity": 0.3937007874015748
        },
        {
          "duration": 0.15789450000002603,
          "durationTicks": 192,
          "midi": 53,
          "name": "F3",
          "ticks": 165696,
          "time": 136.26295349999998,
          "velocity": 0.3937007874015748
        },
        {
          "duration": 0.1578944999999976,
          "durationTicks": 192,
          "midi": 35,
          "name": "B1",
          "ticks": 165888,
          "time": 136.420848,
          "velocity": 0.3937007874015748
        },
        {
          "duration": 0.1578944999999976,
          "durationTicks": 192,
          "midi": 53,
          "name": "F3",
          "ticks": 165888,
          "time": 136.420848,
          "velocity": 0.3937007874015748
        },
        {
          "duration": 0.1578944999999976,
          "durationTicks": 192,
          "midi": 53,
          "name": "F3",
          "ticks": 166080,
          "time": 136.5787425,
          "velocity": 0.3937007874015748
        },
        {
          "duration": 0.1578944999999976,
          "durationTicks": 192,
          "midi": 35,
          "name": "B1",
          "ticks": 166080,
          "time": 136.5787425,
          "velocity": 0.3937007874015748
        },
        {
          "duration": 0.3157889999999952,
          "durationTicks": 384,
          "midi": 38,
          "name": "D2",
          "ticks": 166272,
          "time": 136.736637,
          "velocity": 0.3937007874015748
        },
        {
          "duration": 0.1578944999999976,
          "durationTicks": 192,
          "midi": 51,
          "name": "D#3",
          "ticks": 166272,
          "time": 136.736637,
          "velocity": 0.3937007874015748
        },
        {
          "duration": 0.1578944999999976,
          "durationTicks": 192,
          "midi": 53,
          "name": "F3",
          "ticks": 166464,
          "time": 136.8945315,
          "velocity": 0.3937007874015748
        },
        {
          "duration": 0.1578944999999976,
          "durationTicks": 192,
          "midi": 53,
          "name": "F3",
          "ticks": 166656,
          "time": 137.052426,
          "velocity": 0.3937007874015748
        },
        {
          "duration": 0.1578944999999976,
          "durationTicks": 192,
          "midi": 35,
          "name": "B1",
          "ticks": 166656,
          "time": 137.052426,
          "velocity": 0.3937007874015748
        },
        {
          "duration": 0.1578944999999976,
          "durationTicks": 192,
          "midi": 53,
          "name": "F3",
          "ticks": 166848,
          "time": 137.2103205,
          "velocity": 0.3937007874015748
        },
        {
          "duration": 0.1578944999999976,
          "durationTicks": 192,
          "midi": 35,
          "name": "B1",
          "ticks": 166848,
          "time": 137.2103205,
          "velocity": 0.3937007874015748
        },
        {
          "duration": 0.1578944999999976,
          "durationTicks": 192,
          "midi": 51,
          "name": "D#3",
          "ticks": 167040,
          "time": 137.368215,
          "velocity": 0.3937007874015748
        },
        {
          "duration": 0.3157889999999952,
          "durationTicks": 384,
          "midi": 38,
          "name": "D2",
          "ticks": 167040,
          "time": 137.368215,
          "velocity": 0.3937007874015748
        },
        {
          "duration": 0.1578944999999976,
          "durationTicks": 192,
          "midi": 53,
          "name": "F3",
          "ticks": 167232,
          "time": 137.5261095,
          "velocity": 0.3937007874015748
        },
        {
          "duration": 0.1578944999999976,
          "durationTicks": 192,
          "midi": 53,
          "name": "F3",
          "ticks": 167424,
          "time": 137.684004,
          "velocity": 0.3937007874015748
        },
        {
          "duration": 0.1578944999999976,
          "durationTicks": 192,
          "midi": 35,
          "name": "B1",
          "ticks": 167424,
          "time": 137.684004,
          "velocity": 0.3937007874015748
        },
        {
          "duration": 0.1578944999999976,
          "durationTicks": 192,
          "midi": 35,
          "name": "B1",
          "ticks": 167616,
          "time": 137.84189849999999,
          "velocity": 0.3937007874015748
        },
        {
          "duration": 0.1578944999999976,
          "durationTicks": 192,
          "midi": 53,
          "name": "F3",
          "ticks": 167616,
          "time": 137.84189849999999,
          "velocity": 0.3937007874015748
        },
        {
          "duration": 0.31578900000002363,
          "durationTicks": 384,
          "midi": 38,
          "name": "D2",
          "ticks": 167808,
          "time": 137.99979299999998,
          "velocity": 0.3937007874015748
        },
        {
          "duration": 0.1578944999999976,
          "durationTicks": 192,
          "midi": 51,
          "name": "D#3",
          "ticks": 167808,
          "time": 137.99979299999998,
          "velocity": 0.3937007874015748
        },
        {
          "duration": 0.15789450000002603,
          "durationTicks": 192,
          "midi": 53,
          "name": "F3",
          "ticks": 168000,
          "time": 138.15768749999998,
          "velocity": 0.3937007874015748
        },
        {
          "duration": 0.1578944999999976,
          "durationTicks": 192,
          "midi": 35,
          "name": "B1",
          "ticks": 168192,
          "time": 138.315582,
          "velocity": 0.3937007874015748
        },
        {
          "duration": 0.1578944999999976,
          "durationTicks": 192,
          "midi": 53,
          "name": "F3",
          "ticks": 168192,
          "time": 138.315582,
          "velocity": 0.3937007874015748
        },
        {
          "duration": 0.1578944999999976,
          "durationTicks": 192,
          "midi": 35,
          "name": "B1",
          "ticks": 168384,
          "time": 138.4734765,
          "velocity": 0.3937007874015748
        },
        {
          "duration": 0.1578944999999976,
          "durationTicks": 192,
          "midi": 53,
          "name": "F3",
          "ticks": 168384,
          "time": 138.4734765,
          "velocity": 0.3937007874015748
        },
        {
          "duration": 0.1578944999999976,
          "durationTicks": 192,
          "midi": 51,
          "name": "D#3",
          "ticks": 168576,
          "time": 138.631371,
          "velocity": 0.3937007874015748
        },
        {
          "duration": 0.3157889999999952,
          "durationTicks": 384,
          "midi": 38,
          "name": "D2",
          "ticks": 168576,
          "time": 138.631371,
          "velocity": 0.3937007874015748
        },
        {
          "duration": 0.1578944999999976,
          "durationTicks": 192,
          "midi": 53,
          "name": "F3",
          "ticks": 168768,
          "time": 138.7892655,
          "velocity": 0.3937007874015748
        },
        {
          "duration": 0.1578944999999976,
          "durationTicks": 192,
          "midi": 35,
          "name": "B1",
          "ticks": 168960,
          "time": 138.94716,
          "velocity": 0.3937007874015748
        },
        {
          "duration": 0.1578944999999976,
          "durationTicks": 192,
          "midi": 53,
          "name": "F3",
          "ticks": 168960,
          "time": 138.94716,
          "velocity": 0.3937007874015748
        },
        {
          "duration": 0.1578944999999976,
          "durationTicks": 192,
          "midi": 53,
          "name": "F3",
          "ticks": 169152,
          "time": 139.1050545,
          "velocity": 0.3937007874015748
        },
        {
          "duration": 0.1578944999999976,
          "durationTicks": 192,
          "midi": 35,
          "name": "B1",
          "ticks": 169152,
          "time": 139.1050545,
          "velocity": 0.3937007874015748
        },
        {
          "duration": 0.1578944999999976,
          "durationTicks": 192,
          "midi": 51,
          "name": "D#3",
          "ticks": 169344,
          "time": 139.262949,
          "velocity": 0.3937007874015748
        },
        {
          "duration": 0.3157889999999952,
          "durationTicks": 384,
          "midi": 38,
          "name": "D2",
          "ticks": 169344,
          "time": 139.262949,
          "velocity": 0.3937007874015748
        },
        {
          "duration": 0.1578944999999976,
          "durationTicks": 192,
          "midi": 53,
          "name": "F3",
          "ticks": 169536,
          "time": 139.4208435,
          "velocity": 0.3937007874015748
        },
        {
          "duration": 0.1578944999999976,
          "durationTicks": 192,
          "midi": 53,
          "name": "F3",
          "ticks": 169728,
          "time": 139.578738,
          "velocity": 0.3937007874015748
        },
        {
          "duration": 0.1578944999999976,
          "durationTicks": 192,
          "midi": 35,
          "name": "B1",
          "ticks": 169728,
          "time": 139.578738,
          "velocity": 0.3937007874015748
        },
        {
          "duration": 0.1578944999999976,
          "durationTicks": 192,
          "midi": 35,
          "name": "B1",
          "ticks": 169920,
          "time": 139.73663249999998,
          "velocity": 0.3937007874015748
        },
        {
          "duration": 0.1578944999999976,
          "durationTicks": 192,
          "midi": 53,
          "name": "F3",
          "ticks": 169920,
          "time": 139.73663249999998,
          "velocity": 0.3937007874015748
        },
        {
          "duration": 0.1578944999999976,
          "durationTicks": 192,
          "midi": 51,
          "name": "D#3",
          "ticks": 170112,
          "time": 139.89452699999998,
          "velocity": 0.3937007874015748
        },
        {
          "duration": 0.31578900000002363,
          "durationTicks": 384,
          "midi": 38,
          "name": "D2",
          "ticks": 170112,
          "time": 139.89452699999998,
          "velocity": 0.3937007874015748
        },
        {
          "duration": 0.15789450000002603,
          "durationTicks": 192,
          "midi": 53,
          "name": "F3",
          "ticks": 170304,
          "time": 140.05242149999998,
          "velocity": 0.3937007874015748
        },
        {
          "duration": 0.1578944999999976,
          "durationTicks": 192,
          "midi": 35,
          "name": "B1",
          "ticks": 170496,
          "time": 140.210316,
          "velocity": 0.3937007874015748
        },
        {
          "duration": 0.1578944999999976,
          "durationTicks": 192,
          "midi": 53,
          "name": "F3",
          "ticks": 170496,
          "time": 140.210316,
          "velocity": 0.3937007874015748
        },
        {
          "duration": 0.1578944999999976,
          "durationTicks": 192,
          "midi": 53,
          "name": "F3",
          "ticks": 170688,
          "time": 140.3682105,
          "velocity": 0.3937007874015748
        },
        {
          "duration": 0.1578944999999976,
          "durationTicks": 192,
          "midi": 35,
          "name": "B1",
          "ticks": 170688,
          "time": 140.3682105,
          "velocity": 0.3937007874015748
        },
        {
          "duration": 0.1578944999999976,
          "durationTicks": 192,
          "midi": 51,
          "name": "D#3",
          "ticks": 170880,
          "time": 140.526105,
          "velocity": 0.3937007874015748
        },
        {
          "duration": 0.3157889999999952,
          "durationTicks": 384,
          "midi": 38,
          "name": "D2",
          "ticks": 170880,
          "time": 140.526105,
          "velocity": 0.3937007874015748
        },
        {
          "duration": 0.1578944999999976,
          "durationTicks": 192,
          "midi": 53,
          "name": "F3",
          "ticks": 171072,
          "time": 140.6839995,
          "velocity": 0.3937007874015748
        },
        {
          "duration": 0.1578944999999976,
          "durationTicks": 192,
          "midi": 53,
          "name": "F3",
          "ticks": 171264,
          "time": 140.841894,
          "velocity": 0.3937007874015748
        },
        {
          "duration": 0.1578944999999976,
          "durationTicks": 192,
          "midi": 35,
          "name": "B1",
          "ticks": 171264,
          "time": 140.841894,
          "velocity": 0.3937007874015748
        },
        {
          "duration": 0.1578944999999976,
          "durationTicks": 192,
          "midi": 35,
          "name": "B1",
          "ticks": 171456,
          "time": 140.9997885,
          "velocity": 0.3937007874015748
        },
        {
          "duration": 0.1578944999999976,
          "durationTicks": 192,
          "midi": 53,
          "name": "F3",
          "ticks": 171456,
          "time": 140.9997885,
          "velocity": 0.3937007874015748
        },
        {
          "duration": 0.1578944999999976,
          "durationTicks": 192,
          "midi": 51,
          "name": "D#3",
          "ticks": 171648,
          "time": 141.157683,
          "velocity": 0.3937007874015748
        },
        {
          "duration": 0.3157889999999952,
          "durationTicks": 384,
          "midi": 38,
          "name": "D2",
          "ticks": 171648,
          "time": 141.157683,
          "velocity": 0.3937007874015748
        },
        {
          "duration": 0.1578944999999976,
          "durationTicks": 192,
          "midi": 53,
          "name": "F3",
          "ticks": 171840,
          "time": 141.3155775,
          "velocity": 0.3937007874015748
        },
        {
          "duration": 0.1578944999999976,
          "durationTicks": 192,
          "midi": 53,
          "name": "F3",
          "ticks": 172032,
          "time": 141.473472,
          "velocity": 0.3937007874015748
        },
        {
          "duration": 0.1578944999999976,
          "durationTicks": 192,
          "midi": 35,
          "name": "B1",
          "ticks": 172032,
          "time": 141.473472,
          "velocity": 0.3937007874015748
        },
        {
          "duration": 0.1578944999999976,
          "durationTicks": 192,
          "midi": 53,
          "name": "F3",
          "ticks": 172224,
          "time": 141.63136649999998,
          "velocity": 0.3937007874015748
        },
        {
          "duration": 0.1578944999999976,
          "durationTicks": 192,
          "midi": 35,
          "name": "B1",
          "ticks": 172224,
          "time": 141.63136649999998,
          "velocity": 0.3937007874015748
        },
        {
          "duration": 0.15789450000002603,
          "durationTicks": 192,
          "midi": 51,
          "name": "D#3",
          "ticks": 172416,
          "time": 141.78926099999998,
          "velocity": 0.3937007874015748
        },
        {
          "duration": 0.31578900000002363,
          "durationTicks": 384,
          "midi": 38,
          "name": "D2",
          "ticks": 172416,
          "time": 141.78926099999998,
          "velocity": 0.3937007874015748
        },
        {
          "duration": 0.1578944999999976,
          "durationTicks": 192,
          "midi": 53,
          "name": "F3",
          "ticks": 172608,
          "time": 141.9471555,
          "velocity": 0.3937007874015748
        },
        {
          "duration": 0.1578944999999976,
          "durationTicks": 192,
          "midi": 53,
          "name": "F3",
          "ticks": 172800,
          "time": 142.10505,
          "velocity": 0.3937007874015748
        },
        {
          "duration": 0.1578944999999976,
          "durationTicks": 192,
          "midi": 35,
          "name": "B1",
          "ticks": 172800,
          "time": 142.10505,
          "velocity": 0.3937007874015748
        },
        {
          "duration": 0.1578944999999976,
          "durationTicks": 192,
          "midi": 35,
          "name": "B1",
          "ticks": 172992,
          "time": 142.2629445,
          "velocity": 0.3937007874015748
        },
        {
          "duration": 0.1578944999999976,
          "durationTicks": 192,
          "midi": 53,
          "name": "F3",
          "ticks": 172992,
          "time": 142.2629445,
          "velocity": 0.3937007874015748
        },
        {
          "duration": 0.3157889999999952,
          "durationTicks": 384,
          "midi": 38,
          "name": "D2",
          "ticks": 173184,
          "time": 142.420839,
          "velocity": 0.3937007874015748
        },
        {
          "duration": 0.1578944999999976,
          "durationTicks": 192,
          "midi": 51,
          "name": "D#3",
          "ticks": 173184,
          "time": 142.420839,
          "velocity": 0.3937007874015748
        },
        {
          "duration": 0.1578944999999976,
          "durationTicks": 192,
          "midi": 53,
          "name": "F3",
          "ticks": 173376,
          "time": 142.5787335,
          "velocity": 0.3937007874015748
        },
        {
          "duration": 0.1578944999999976,
          "durationTicks": 192,
          "midi": 35,
          "name": "B1",
          "ticks": 173568,
          "time": 142.736628,
          "velocity": 0.3937007874015748
        },
        {
          "duration": 0.1578944999999976,
          "durationTicks": 192,
          "midi": 53,
          "name": "F3",
          "ticks": 173568,
          "time": 142.736628,
          "velocity": 0.3937007874015748
        },
        {
          "duration": 0.1578944999999976,
          "durationTicks": 192,
          "midi": 53,
          "name": "F3",
          "ticks": 173760,
          "time": 142.8945225,
          "velocity": 0.3937007874015748
        },
        {
          "duration": 0.1578944999999976,
          "durationTicks": 192,
          "midi": 35,
          "name": "B1",
          "ticks": 173760,
          "time": 142.8945225,
          "velocity": 0.3937007874015748
        },
        {
          "duration": 0.3157889999999952,
          "durationTicks": 384,
          "midi": 38,
          "name": "D2",
          "ticks": 173952,
          "time": 143.052417,
          "velocity": 0.3937007874015748
        },
        {
          "duration": 0.1578944999999976,
          "durationTicks": 192,
          "midi": 51,
          "name": "D#3",
          "ticks": 173952,
          "time": 143.052417,
          "velocity": 0.3937007874015748
        },
        {
          "duration": 0.1578944999999976,
          "durationTicks": 192,
          "midi": 53,
          "name": "F3",
          "ticks": 174144,
          "time": 143.2103115,
          "velocity": 0.3937007874015748
        },
        {
          "duration": 0.1578944999999976,
          "durationTicks": 192,
          "midi": 35,
          "name": "B1",
          "ticks": 174336,
          "time": 143.368206,
          "velocity": 0.3937007874015748
        },
        {
          "duration": 0.1578944999999976,
          "durationTicks": 192,
          "midi": 53,
          "name": "F3",
          "ticks": 174336,
          "time": 143.368206,
          "velocity": 0.3937007874015748
        },
        {
          "duration": 0.1578944999999976,
          "durationTicks": 192,
          "midi": 53,
          "name": "F3",
          "ticks": 174528,
          "time": 143.52610049999998,
          "velocity": 0.3937007874015748
        },
        {
          "duration": 0.1578944999999976,
          "durationTicks": 192,
          "midi": 35,
          "name": "B1",
          "ticks": 174528,
          "time": 143.52610049999998,
          "velocity": 0.3937007874015748
        },
        {
          "duration": 0.31578900000002363,
          "durationTicks": 384,
          "midi": 38,
          "name": "D2",
          "ticks": 174720,
          "time": 143.68399499999998,
          "velocity": 0.3937007874015748
        },
        {
          "duration": 0.15789450000002603,
          "durationTicks": 192,
          "midi": 51,
          "name": "D#3",
          "ticks": 174720,
          "time": 143.68399499999998,
          "velocity": 0.3937007874015748
        },
        {
          "duration": 0.1578944999999976,
          "durationTicks": 192,
          "midi": 53,
          "name": "F3",
          "ticks": 174912,
          "time": 143.8418895,
          "velocity": 0.3937007874015748
        },
        {
          "duration": 0.1578944999999976,
          "durationTicks": 192,
          "midi": 35,
          "name": "B1",
          "ticks": 175104,
          "time": 143.999784,
          "velocity": 0.3937007874015748
        },
        {
          "duration": 0.1578944999999976,
          "durationTicks": 192,
          "midi": 53,
          "name": "F3",
          "ticks": 175104,
          "time": 143.999784,
          "velocity": 0.3937007874015748
        },
        {
          "duration": 0.1578944999999976,
          "durationTicks": 192,
          "midi": 53,
          "name": "F3",
          "ticks": 175296,
          "time": 144.1576785,
          "velocity": 0.3937007874015748
        },
        {
          "duration": 0.1578944999999976,
          "durationTicks": 192,
          "midi": 35,
          "name": "B1",
          "ticks": 175296,
          "time": 144.1576785,
          "velocity": 0.3937007874015748
        },
        {
          "duration": 0.3157889999999952,
          "durationTicks": 384,
          "midi": 38,
          "name": "D2",
          "ticks": 175488,
          "time": 144.315573,
          "velocity": 0.3937007874015748
        },
        {
          "duration": 0.1578944999999976,
          "durationTicks": 192,
          "midi": 51,
          "name": "D#3",
          "ticks": 175488,
          "time": 144.315573,
          "velocity": 0.3937007874015748
        },
        {
          "duration": 0.1578944999999976,
          "durationTicks": 192,
          "midi": 53,
          "name": "F3",
          "ticks": 175680,
          "time": 144.4734675,
          "velocity": 0.3937007874015748
        },
        {
          "duration": 0.1578944999999976,
          "durationTicks": 192,
          "midi": 53,
          "name": "F3",
          "ticks": 175872,
          "time": 144.631362,
          "velocity": 0.3937007874015748
        },
        {
          "duration": 0.1578944999999976,
          "durationTicks": 192,
          "midi": 35,
          "name": "B1",
          "ticks": 175872,
          "time": 144.631362,
          "velocity": 0.3937007874015748
        },
        {
          "duration": 0.1578944999999976,
          "durationTicks": 192,
          "midi": 53,
          "name": "F3",
          "ticks": 176064,
          "time": 144.7892565,
          "velocity": 0.3937007874015748
        },
        {
          "duration": 0.1578944999999976,
          "durationTicks": 192,
          "midi": 35,
          "name": "B1",
          "ticks": 176064,
          "time": 144.7892565,
          "velocity": 0.3937007874015748
        },
        {
          "duration": 0.1578944999999976,
          "durationTicks": 192,
          "midi": 51,
          "name": "D#3",
          "ticks": 176256,
          "time": 144.947151,
          "velocity": 0.3937007874015748
        },
        {
          "duration": 0.3157889999999952,
          "durationTicks": 384,
          "midi": 38,
          "name": "D2",
          "ticks": 176256,
          "time": 144.947151,
          "velocity": 0.3937007874015748
        },
        {
          "duration": 0.1578944999999976,
          "durationTicks": 192,
          "midi": 53,
          "name": "F3",
          "ticks": 176448,
          "time": 145.1050455,
          "velocity": 0.3937007874015748
        },
        {
          "duration": 0.1578944999999976,
          "durationTicks": 192,
          "midi": 35,
          "name": "B1",
          "ticks": 176640,
          "time": 145.26294,
          "velocity": 0.3937007874015748
        },
        {
          "duration": 0.1578944999999976,
          "durationTicks": 192,
          "midi": 53,
          "name": "F3",
          "ticks": 176640,
          "time": 145.26294,
          "velocity": 0.3937007874015748
        },
        {
          "duration": 0.1578944999999976,
          "durationTicks": 192,
          "midi": 35,
          "name": "B1",
          "ticks": 176832,
          "time": 145.42083449999998,
          "velocity": 0.3937007874015748
        },
        {
          "duration": 0.1578944999999976,
          "durationTicks": 192,
          "midi": 53,
          "name": "F3",
          "ticks": 176832,
          "time": 145.42083449999998,
          "velocity": 0.3937007874015748
        },
        {
          "duration": 0.31578900000002363,
          "durationTicks": 384,
          "midi": 38,
          "name": "D2",
          "ticks": 177024,
          "time": 145.57872899999998,
          "velocity": 0.3937007874015748
        },
        {
          "duration": 0.15789450000002603,
          "durationTicks": 192,
          "midi": 51,
          "name": "D#3",
          "ticks": 177024,
          "time": 145.57872899999998,
          "velocity": 0.3937007874015748
        },
        {
          "duration": 0.1578944999999976,
          "durationTicks": 192,
          "midi": 53,
          "name": "F3",
          "ticks": 177216,
          "time": 145.7366235,
          "velocity": 0.3937007874015748
        },
        {
          "duration": 0.1578944999999976,
          "durationTicks": 192,
          "midi": 53,
          "name": "F3",
          "ticks": 177408,
          "time": 145.894518,
          "velocity": 0.3937007874015748
        },
        {
          "duration": 0.1578944999999976,
          "durationTicks": 192,
          "midi": 35,
          "name": "B1",
          "ticks": 177408,
          "time": 145.894518,
          "velocity": 0.3937007874015748
        },
        {
          "duration": 0.1578944999999976,
          "durationTicks": 192,
          "midi": 35,
          "name": "B1",
          "ticks": 177600,
          "time": 146.0524125,
          "velocity": 0.3937007874015748
        },
        {
          "duration": 0.1578944999999976,
          "durationTicks": 192,
          "midi": 53,
          "name": "F3",
          "ticks": 177600,
          "time": 146.0524125,
          "velocity": 0.3937007874015748
        },
        {
          "duration": 0.3157889999999952,
          "durationTicks": 384,
          "midi": 38,
          "name": "D2",
          "ticks": 177792,
          "time": 146.210307,
          "velocity": 0.3937007874015748
        },
        {
          "duration": 0.1578944999999976,
          "durationTicks": 192,
          "midi": 51,
          "name": "D#3",
          "ticks": 177792,
          "time": 146.210307,
          "velocity": 0.3937007874015748
        },
        {
          "duration": 0.1578944999999976,
          "durationTicks": 192,
          "midi": 53,
          "name": "F3",
          "ticks": 177984,
          "time": 146.3682015,
          "velocity": 0.3937007874015748
        },
        {
          "duration": 0.1578944999999976,
          "durationTicks": 192,
          "midi": 35,
          "name": "B1",
          "ticks": 178176,
          "time": 146.526096,
          "velocity": 0.3937007874015748
        },
        {
          "duration": 0.1578944999999976,
          "durationTicks": 192,
          "midi": 53,
          "name": "F3",
          "ticks": 178176,
          "time": 146.526096,
          "velocity": 0.3937007874015748
        },
        {
          "duration": 0.1578944999999976,
          "durationTicks": 192,
          "midi": 53,
          "name": "F3",
          "ticks": 178368,
          "time": 146.6839905,
          "velocity": 0.3937007874015748
        },
        {
          "duration": 0.1578944999999976,
          "durationTicks": 192,
          "midi": 35,
          "name": "B1",
          "ticks": 178368,
          "time": 146.6839905,
          "velocity": 0.3937007874015748
        },
        {
          "duration": 0.3157889999999952,
          "durationTicks": 384,
          "midi": 38,
          "name": "D2",
          "ticks": 178560,
          "time": 146.841885,
          "velocity": 0.3937007874015748
        },
        {
          "duration": 0.1578944999999976,
          "durationTicks": 192,
          "midi": 51,
          "name": "D#3",
          "ticks": 178560,
          "time": 146.841885,
          "velocity": 0.3937007874015748
        },
        {
          "duration": 0.1578944999999976,
          "durationTicks": 192,
          "midi": 53,
          "name": "F3",
          "ticks": 178752,
          "time": 146.9997795,
          "velocity": 0.3937007874015748
        },
        {
          "duration": 0.1578944999999976,
          "durationTicks": 192,
          "midi": 35,
          "name": "B1",
          "ticks": 178944,
          "time": 147.157674,
          "velocity": 0.3937007874015748
        },
        {
          "duration": 0.1578944999999976,
          "durationTicks": 192,
          "midi": 53,
          "name": "F3",
          "ticks": 178944,
          "time": 147.157674,
          "velocity": 0.3937007874015748
        },
        {
          "duration": 0.1578944999999976,
          "durationTicks": 192,
          "midi": 53,
          "name": "F3",
          "ticks": 179136,
          "time": 147.31556849999998,
          "velocity": 0.3937007874015748
        },
        {
          "duration": 0.1578944999999976,
          "durationTicks": 192,
          "midi": 35,
          "name": "B1",
          "ticks": 179136,
          "time": 147.31556849999998,
          "velocity": 0.3937007874015748
        },
        {
          "duration": 0.31578900000002363,
          "durationTicks": 384,
          "midi": 38,
          "name": "D2",
          "ticks": 179328,
          "time": 147.47346299999998,
          "velocity": 0.3937007874015748
        },
        {
          "duration": 0.15789450000002603,
          "durationTicks": 192,
          "midi": 51,
          "name": "D#3",
          "ticks": 179328,
          "time": 147.47346299999998,
          "velocity": 0.3937007874015748
        },
        {
          "duration": 0.1578944999999976,
          "durationTicks": 192,
          "midi": 53,
          "name": "F3",
          "ticks": 179520,
          "time": 147.6313575,
          "velocity": 0.3937007874015748
        },
        {
          "duration": 0.1578944999999976,
          "durationTicks": 192,
          "midi": 53,
          "name": "F3",
          "ticks": 179712,
          "time": 147.789252,
          "velocity": 0.3937007874015748
        },
        {
          "duration": 0.1578944999999976,
          "durationTicks": 192,
          "midi": 35,
          "name": "B1",
          "ticks": 179712,
          "time": 147.789252,
          "velocity": 0.3937007874015748
        },
        {
          "duration": 0.1578944999999976,
          "durationTicks": 192,
          "midi": 35,
          "name": "B1",
          "ticks": 179904,
          "time": 147.9471465,
          "velocity": 0.3937007874015748
        },
        {
          "duration": 0.1578944999999976,
          "durationTicks": 192,
          "midi": 53,
          "name": "F3",
          "ticks": 179904,
          "time": 147.9471465,
          "velocity": 0.3937007874015748
        },
        {
          "duration": 0.3157889999999952,
          "durationTicks": 384,
          "midi": 38,
          "name": "D2",
          "ticks": 180096,
          "time": 148.105041,
          "velocity": 0.3937007874015748
        },
        {
          "duration": 0.1578944999999976,
          "durationTicks": 192,
          "midi": 51,
          "name": "D#3",
          "ticks": 180096,
          "time": 148.105041,
          "velocity": 0.3937007874015748
        },
        {
          "duration": 0.1578944999999976,
          "durationTicks": 192,
          "midi": 53,
          "name": "F3",
          "ticks": 180288,
          "time": 148.2629355,
          "velocity": 0.3937007874015748
        },
        {
          "duration": 0.1578944999999976,
          "durationTicks": 192,
          "midi": 35,
          "name": "B1",
          "ticks": 180480,
          "time": 148.42083,
          "velocity": 0.3937007874015748
        },
        {
          "duration": 0.1578944999999976,
          "durationTicks": 192,
          "midi": 53,
          "name": "F3",
          "ticks": 180480,
          "time": 148.42083,
          "velocity": 0.3937007874015748
        },
        {
          "duration": 0.1578944999999976,
          "durationTicks": 192,
          "midi": 53,
          "name": "F3",
          "ticks": 180672,
          "time": 148.5787245,
          "velocity": 0.3937007874015748
        },
        {
          "duration": 0.1578944999999976,
          "durationTicks": 192,
          "midi": 35,
          "name": "B1",
          "ticks": 180672,
          "time": 148.5787245,
          "velocity": 0.3937007874015748
        },
        {
          "duration": 0.1578944999999976,
          "durationTicks": 192,
          "midi": 51,
          "name": "D#3",
          "ticks": 180864,
          "time": 148.736619,
          "velocity": 0.3937007874015748
        },
        {
          "duration": 0.3157889999999952,
          "durationTicks": 384,
          "midi": 38,
          "name": "D2",
          "ticks": 180864,
          "time": 148.736619,
          "velocity": 0.3937007874015748
        },
        {
          "duration": 0.1578944999999976,
          "durationTicks": 192,
          "midi": 53,
          "name": "F3",
          "ticks": 181056,
          "time": 148.8945135,
          "velocity": 0.3937007874015748
        },
        {
          "duration": 0.1578944999999976,
          "durationTicks": 192,
          "midi": 35,
          "name": "B1",
          "ticks": 181248,
          "time": 149.05240799999999,
          "velocity": 0.3937007874015748
        },
        {
          "duration": 0.1578944999999976,
          "durationTicks": 192,
          "midi": 53,
          "name": "F3",
          "ticks": 181248,
          "time": 149.05240799999999,
          "velocity": 0.3937007874015748
        },
        {
          "duration": 0.1578944999999976,
          "durationTicks": 192,
          "midi": 53,
          "name": "F3",
          "ticks": 181440,
          "time": 149.21030249999998,
          "velocity": 0.3937007874015748
        },
        {
          "duration": 0.1578944999999976,
          "durationTicks": 192,
          "midi": 35,
          "name": "B1",
          "ticks": 181440,
          "time": 149.21030249999998,
          "velocity": 0.3937007874015748
        },
        {
          "duration": 0.15789450000002603,
          "durationTicks": 192,
          "midi": 51,
          "name": "D#3",
          "ticks": 181632,
          "time": 149.36819699999998,
          "velocity": 0.3937007874015748
        },
        {
          "duration": 0.31578900000002363,
          "durationTicks": 384,
          "midi": 38,
          "name": "D2",
          "ticks": 181632,
          "time": 149.36819699999998,
          "velocity": 0.3937007874015748
        },
        {
          "duration": 0.1578944999999976,
          "durationTicks": 192,
          "midi": 53,
          "name": "F3",
          "ticks": 181824,
          "time": 149.5260915,
          "velocity": 0.3937007874015748
        },
        {
          "duration": 0.1578944999999976,
          "durationTicks": 192,
          "midi": 35,
          "name": "B1",
          "ticks": 182016,
          "time": 149.683986,
          "velocity": 0.3937007874015748
        },
        {
          "duration": 0.1578944999999976,
          "durationTicks": 192,
          "midi": 53,
          "name": "F3",
          "ticks": 182016,
          "time": 149.683986,
          "velocity": 0.3937007874015748
        },
        {
          "duration": 0.1578944999999976,
          "durationTicks": 192,
          "midi": 35,
          "name": "B1",
          "ticks": 182208,
          "time": 149.8418805,
          "velocity": 0.3937007874015748
        },
        {
          "duration": 0.1578944999999976,
          "durationTicks": 192,
          "midi": 53,
          "name": "F3",
          "ticks": 182208,
          "time": 149.8418805,
          "velocity": 0.3937007874015748
        },
        {
          "duration": 0.1578944999999976,
          "durationTicks": 192,
          "midi": 51,
          "name": "D#3",
          "ticks": 182400,
          "time": 149.999775,
          "velocity": 0.3937007874015748
        },
        {
          "duration": 0.3157889999999952,
          "durationTicks": 384,
          "midi": 38,
          "name": "D2",
          "ticks": 182400,
          "time": 149.999775,
          "velocity": 0.3937007874015748
        },
        {
          "duration": 0.1578944999999976,
          "durationTicks": 192,
          "midi": 53,
          "name": "F3",
          "ticks": 182592,
          "time": 150.1576695,
          "velocity": 0.3937007874015748
        },
        {
          "duration": 0.1578944999999976,
          "durationTicks": 192,
          "midi": 35,
          "name": "B1",
          "ticks": 182784,
          "time": 150.315564,
          "velocity": 0.3937007874015748
        },
        {
          "duration": 0.1578944999999976,
          "durationTicks": 192,
          "midi": 53,
          "name": "F3",
          "ticks": 182784,
          "time": 150.315564,
          "velocity": 0.3937007874015748
        },
        {
          "duration": 0.1578944999999976,
          "durationTicks": 192,
          "midi": 35,
          "name": "B1",
          "ticks": 182976,
          "time": 150.4734585,
          "velocity": 0.3937007874015748
        },
        {
          "duration": 0.1578944999999976,
          "durationTicks": 192,
          "midi": 53,
          "name": "F3",
          "ticks": 182976,
          "time": 150.4734585,
          "velocity": 0.3937007874015748
        },
        {
          "duration": 0.1578944999999976,
          "durationTicks": 192,
          "midi": 51,
          "name": "D#3",
          "ticks": 183168,
          "time": 150.631353,
          "velocity": 0.3937007874015748
        },
        {
          "duration": 0.3157889999999952,
          "durationTicks": 384,
          "midi": 38,
          "name": "D2",
          "ticks": 183168,
          "time": 150.631353,
          "velocity": 0.3937007874015748
        },
        {
          "duration": 0.1578944999999976,
          "durationTicks": 192,
          "midi": 53,
          "name": "F3",
          "ticks": 183360,
          "time": 150.7892475,
          "velocity": 0.3937007874015748
        },
        {
          "duration": 0.1578944999999976,
          "durationTicks": 192,
          "midi": 35,
          "name": "B1",
          "ticks": 183552,
          "time": 150.94714199999999,
          "velocity": 0.3937007874015748
        },
        {
          "duration": 0.1578944999999976,
          "durationTicks": 192,
          "midi": 53,
          "name": "F3",
          "ticks": 183552,
          "time": 150.94714199999999,
          "velocity": 0.3937007874015748
        },
        {
          "duration": 0.1578944999999976,
          "durationTicks": 192,
          "midi": 35,
          "name": "B1",
          "ticks": 183744,
          "time": 151.10503649999998,
          "velocity": 0.3937007874015748
        },
        {
          "duration": 0.1578944999999976,
          "durationTicks": 192,
          "midi": 53,
          "name": "F3",
          "ticks": 183744,
          "time": 151.10503649999998,
          "velocity": 0.3937007874015748
        },
        {
          "duration": 0.31578900000002363,
          "durationTicks": 384,
          "midi": 38,
          "name": "D2",
          "ticks": 183936,
          "time": 151.26293099999998,
          "velocity": 0.3937007874015748
        },
        {
          "duration": 0.15789450000002603,
          "durationTicks": 192,
          "midi": 51,
          "name": "D#3",
          "ticks": 183936,
          "time": 151.26293099999998,
          "velocity": 0.3937007874015748
        },
        {
          "duration": 0.1578944999999976,
          "durationTicks": 192,
          "midi": 53,
          "name": "F3",
          "ticks": 184128,
          "time": 151.4208255,
          "velocity": 0.3937007874015748
        }
      ],
      "endOfTrackTicks": 184320
    },
    {
      "channel": 2,
      "controlChanges": {},
      "pitchBends": [],
      "instrument": {
        "family": "synth lead",
        "number": 80,
        "name": "lead 1 (square)"
      },
      "name": "Smooth Synth",
      "notes": [
        {
          "duration": 2.3684174999999996,
          "durationTicks": 2880,
          "midi": 80,
          "name": "G#5",
          "ticks": 12288,
          "time": 10.105248,
          "velocity": 0.3937007874015748
        },
        {
          "duration": 2.3684174999999996,
          "durationTicks": 2880,
          "midi": 84,
          "name": "C6",
          "ticks": 12288,
          "time": 10.105248,
          "velocity": 0.3937007874015748
        },
        {
          "duration": 2.3684174999999996,
          "durationTicks": 2880,
          "midi": 80,
          "name": "G#5",
          "ticks": 15360,
          "time": 12.63156,
          "velocity": 0.3937007874015748
        },
        {
          "duration": 2.3684174999999996,
          "durationTicks": 2880,
          "midi": 84,
          "name": "C6",
          "ticks": 15360,
          "time": 12.63156,
          "velocity": 0.3937007874015748
        },
        {
          "duration": 2.3684175000000014,
          "durationTicks": 2880,
          "midi": 77,
          "name": "F5",
          "ticks": 18432,
          "time": 15.157872,
          "velocity": 0.3937007874015748
        },
        {
          "duration": 2.3684175000000014,
          "durationTicks": 2880,
          "midi": 80,
          "name": "G#5",
          "ticks": 18432,
          "time": 15.157872,
          "velocity": 0.3937007874015748
        },
        {
          "duration": 2.3684174999999996,
          "durationTicks": 2880,
          "midi": 77,
          "name": "F5",
          "ticks": 21504,
          "time": 17.684184,
          "velocity": 0.3937007874015748
        },
        {
          "duration": 2.3684174999999996,
          "durationTicks": 2880,
          "midi": 81,
          "name": "A5",
          "ticks": 21504,
          "time": 17.684184,
          "velocity": 0.3937007874015748
        },
        {
          "duration": 2.3684174999999996,
          "durationTicks": 2880,
          "midi": 84,
          "name": "C6",
          "ticks": 24576,
          "time": 20.210496,
          "velocity": 0.3937007874015748
        },
        {
          "duration": 2.3684174999999996,
          "durationTicks": 2880,
          "midi": 80,
          "name": "G#5",
          "ticks": 24576,
          "time": 20.210496,
          "velocity": 0.3937007874015748
        },
        {
          "duration": 2.3684174999999996,
          "durationTicks": 2880,
          "midi": 80,
          "name": "G#5",
          "ticks": 27648,
          "time": 22.736808,
          "velocity": 0.3937007874015748
        },
        {
          "duration": 2.3684174999999996,
          "durationTicks": 2880,
          "midi": 84,
          "name": "C6",
          "ticks": 27648,
          "time": 22.736808,
          "velocity": 0.3937007874015748
        },
        {
          "duration": 2.3684174999999996,
          "durationTicks": 2880,
          "midi": 77,
          "name": "F5",
          "ticks": 30720,
          "time": 25.26312,
          "velocity": 0.3937007874015748
        },
        {
          "duration": 2.3684174999999996,
          "durationTicks": 2880,
          "midi": 80,
          "name": "G#5",
          "ticks": 30720,
          "time": 25.26312,
          "velocity": 0.3937007874015748
        },
        {
          "duration": 2.3684174999999996,
          "durationTicks": 2880,
          "midi": 77,
          "name": "F5",
          "ticks": 33792,
          "time": 27.789431999999998,
          "velocity": 0.3937007874015748
        },
        {
          "duration": 2.3684174999999996,
          "durationTicks": 2880,
          "midi": 81,
          "name": "A5",
          "ticks": 33792,
          "time": 27.789431999999998,
          "velocity": 0.3937007874015748
        }
      ],
      "endOfTrackTicks": 36672
    },
    {
      "channel": 3,
      "controlChanges": {},
      "pitchBends": [],
      "instrument": {
        "family": "synth lead",
        "number": 87,
        "name": "lead 8 (bass + lead)"
      },
      "name": "Synth Pluck",
      "notes": [
        {
          "duration": 0.6315780000000046,
          "durationTicks": 768,
          "midi": 53,
          "name": "F3",
          "ticks": 49920,
          "time": 41.052569999999996,
          "velocity": 0.3937007874015748
        },
        {
          "duration": 0.6315779999999975,
          "durationTicks": 768,
          "midi": 56,
          "name": "G#3",
          "ticks": 50688,
          "time": 41.684148,
          "velocity": 0.3937007874015748
        },
        {
          "duration": 0.6315779999999975,
          "durationTicks": 768,
          "midi": 60,
          "name": "C4",
          "ticks": 51456,
          "time": 42.315726,
          "velocity": 0.3937007874015748
        },
        {
          "duration": 1.2631560000000022,
          "durationTicks": 1536,
          "midi": 58,
          "name": "A#3",
          "ticks": 52224,
          "time": 42.947303999999995,
          "velocity": 0.3937007874015748
        },
        {
          "duration": 0.6315779999999975,
          "durationTicks": 768,
          "midi": 55,
          "name": "G3",
          "ticks": 53760,
          "time": 44.21046,
          "velocity": 0.3937007874015748
        },
        {
          "duration": 0.6315780000000046,
          "durationTicks": 768,
          "midi": 51,
          "name": "D#3",
          "ticks": 54528,
          "time": 44.842037999999995,
          "velocity": 0.3937007874015748
        },
        {
          "duration": 2.5263119999999972,
          "durationTicks": 3072,
          "midi": 53,
          "name": "F3",
          "ticks": 55296,
          "time": 45.473616,
          "velocity": 0.3937007874015748
        },
        {
          "duration": 2.5263120000000043,
          "durationTicks": 3072,
          "midi": 57,
          "name": "A3",
          "ticks": 58368,
          "time": 47.999928,
          "velocity": 0.3937007874015748
        },
        {
          "duration": 0.6315779999999975,
          "durationTicks": 768,
          "midi": 53,
          "name": "F3",
          "ticks": 62208,
          "time": 51.157818,
          "velocity": 0.3937007874015748
        },
        {
          "duration": 0.6315780000000046,
          "durationTicks": 768,
          "midi": 56,
          "name": "G#3",
          "ticks": 62976,
          "time": 51.789395999999996,
          "velocity": 0.3937007874015748
        },
        {
          "duration": 0.6315779999999975,
          "durationTicks": 768,
          "midi": 60,
          "name": "C4",
          "ticks": 63744,
          "time": 52.420974,
          "velocity": 0.3937007874015748
        },
        {
          "duration": 1.2631560000000022,
          "durationTicks": 1536,
          "midi": 63,
          "name": "D#4",
          "ticks": 64512,
          "time": 53.052552,
          "velocity": 0.3937007874015748
        },
        {
          "duration": 0.6315779999999975,
          "durationTicks": 768,
          "midi": 58,
          "name": "A#3",
          "ticks": 66048,
          "time": 54.315708,
          "velocity": 0.3937007874015748
        },
        {
          "duration": 0.6315779999999975,
          "durationTicks": 768,
          "midi": 55,
          "name": "G3",
          "ticks": 66816,
          "time": 54.947286,
          "velocity": 0.3937007874015748
        },
        {
          "duration": 2.5263120000000043,
          "durationTicks": 3072,
          "midi": 56,
          "name": "G#3",
          "ticks": 67584,
          "time": 55.578863999999996,
          "velocity": 0.3937007874015748
        },
        {
          "duration": 1.2631560000000022,
          "durationTicks": 1536,
          "midi": 44,
          "name": "G#2",
          "ticks": 73728,
          "time": 60.631488,
          "velocity": 0.3937007874015748
        },
        {
          "duration": 0.6315779999999975,
          "durationTicks": 768,
          "midi": 44,
          "name": "G#2",
          "ticks": 75264,
          "time": 61.894644,
          "velocity": 0.3937007874015748
        },
        {
          "duration": 0.6315779999999975,
          "durationTicks": 768,
          "midi": 46,
          "name": "A#2",
          "ticks": 76032,
          "time": 62.526222,
          "velocity": 0.3937007874015748
        },
        {
          "duration": 1.2631560000000093,
          "durationTicks": 1536,
          "midi": 48,
          "name": "C3",
          "ticks": 76800,
          "time": 63.157799999999995,
          "velocity": 0.3937007874015748
        },
        {
          "duration": 1.263155999999995,
          "durationTicks": 1536,
          "midi": 39,
          "name": "D#2",
          "ticks": 78336,
          "time": 64.420956,
          "velocity": 0.3937007874015748
        },
        {
          "duration": 1.263155999999995,
          "durationTicks": 1536,
          "midi": 41,
          "name": "F2",
          "ticks": 79872,
          "time": 65.684112,
          "velocity": 0.3937007874015748
        },
        {
          "duration": 0.6315780000000046,
          "durationTicks": 768,
          "midi": 41,
          "name": "F2",
          "ticks": 81408,
          "time": 66.947268,
          "velocity": 0.3937007874015748
        },
        {
          "duration": 0.6315780000000046,
          "durationTicks": 768,
          "midi": 44,
          "name": "G#2",
          "ticks": 82176,
          "time": 67.578846,
          "velocity": 0.3937007874015748
        },
        {
          "duration": 1.263155999999995,
          "durationTicks": 1536,
          "midi": 41,
          "name": "F2",
          "ticks": 82944,
          "time": 68.210424,
          "velocity": 0.3937007874015748
        },
        {
          "duration": 1.263155999999995,
          "durationTicks": 1536,
          "midi": 40,
          "name": "E2",
          "ticks": 84480,
          "time": 69.47358,
          "velocity": 0.3937007874015748
        },
        {
          "duration": 1.2631560000000093,
          "durationTicks": 1536,
          "midi": 44,
          "name": "G#2",
          "ticks": 86016,
          "time": 70.736736,
          "velocity": 0.3937007874015748
        },
        {
          "duration": 0.6315779999999904,
          "durationTicks": 768,
          "midi": 44,
          "name": "G#2",
          "ticks": 87552,
          "time": 71.999892,
          "velocity": 0.3937007874015748
        },
        {
          "duration": 0.6315780000000046,
          "durationTicks": 768,
          "midi": 46,
          "name": "A#2",
          "ticks": 88320,
          "time": 72.63147,
          "velocity": 0.3937007874015748
        },
        {
          "duration": 1.263155999999995,
          "durationTicks": 1536,
          "midi": 48,
          "name": "C3",
          "ticks": 89088,
          "time": 73.263048,
          "velocity": 0.3937007874015748
        },
        {
          "duration": 1.2631560000000093,
          "durationTicks": 1536,
          "midi": 39,
          "name": "D#2",
          "ticks": 90624,
          "time": 74.52620399999999,
          "velocity": 0.3937007874015748
        },
        {
          "duration": 1.263155999999995,
          "durationTicks": 1536,
          "midi": 41,
          "name": "F2",
          "ticks": 92160,
          "time": 75.78936,
          "velocity": 0.3937007874015748
        },
        {
          "duration": 0.6315780000000046,
          "durationTicks": 768,
          "midi": 41,
          "name": "F2",
          "ticks": 93696,
          "time": 77.052516,
          "velocity": 0.3937007874015748
        },
        {
          "duration": 0.6315779999999904,
          "durationTicks": 768,
          "midi": 44,
          "name": "G#2",
          "ticks": 94464,
          "time": 77.684094,
          "velocity": 0.3937007874015748
        },
        {
          "duration": 1.2631560000000093,
          "durationTicks": 1536,
          "midi": 41,
          "name": "F2",
          "ticks": 95232,
          "time": 78.31567199999999,
          "velocity": 0.3937007874015748
        },
        {
          "duration": 1.263155999999995,
          "durationTicks": 1536,
          "midi": 40,
          "name": "E2",
          "ticks": 96768,
          "time": 79.578828,
          "velocity": 0.3937007874015748
        },
        {
          "duration": 1.263155999999995,
          "durationTicks": 1536,
          "midi": 44,
          "name": "G#2",
          "ticks": 98304,
          "time": 80.841984,
          "velocity": 0.3937007874015748
        },
        {
          "duration": 0.6315780000000046,
          "durationTicks": 768,
          "midi": 44,
          "name": "G#2",
          "ticks": 99840,
          "time": 82.10513999999999,
          "velocity": 0.3937007874015748
        },
        {
          "duration": 0.6315780000000046,
          "durationTicks": 768,
          "midi": 46,
          "name": "A#2",
          "ticks": 100608,
          "time": 82.736718,
          "velocity": 0.3937007874015748
        },
        {
          "duration": 1.263155999999995,
          "durationTicks": 1536,
          "midi": 48,
          "name": "C3",
          "ticks": 101376,
          "time": 83.368296,
          "velocity": 0.3937007874015748
        },
        {
          "duration": 1.263155999999995,
          "durationTicks": 1536,
          "midi": 39,
          "name": "D#2",
          "ticks": 102912,
          "time": 84.631452,
          "velocity": 0.3937007874015748
        },
        {
          "duration": 1.2631560000000093,
          "durationTicks": 1536,
          "midi": 41,
          "name": "F2",
          "ticks": 104448,
          "time": 85.89460799999999,
          "velocity": 0.3937007874015748
        },
        {
          "duration": 0.6315779999999904,
          "durationTicks": 768,
          "midi": 41,
          "name": "F2",
          "ticks": 105984,
          "time": 87.157764,
          "velocity": 0.3937007874015748
        },
        {
          "duration": 0.6315780000000046,
          "durationTicks": 768,
          "midi": 44,
          "name": "G#2",
          "ticks": 106752,
          "time": 87.78934199999999,
          "velocity": 0.3937007874015748
        },
        {
          "duration": 1.263155999999995,
          "durationTicks": 1536,
          "midi": 41,
          "name": "F2",
          "ticks": 107520,
          "time": 88.42092,
          "velocity": 0.3937007874015748
        },
        {
          "duration": 1.2631560000000093,
          "durationTicks": 1536,
          "midi": 40,
          "name": "E2",
          "ticks": 109056,
          "time": 89.68407599999999,
          "velocity": 0.3937007874015748
        },
        {
          "duration": 1.263155999999995,
          "durationTicks": 1536,
          "midi": 44,
          "name": "G#2",
          "ticks": 122880,
          "time": 101.05248,
          "velocity": 0.3937007874015748
        },
        {
          "duration": 0.6315780000000046,
          "durationTicks": 768,
          "midi": 44,
          "name": "G#2",
          "ticks": 124416,
          "time": 102.315636,
          "velocity": 0.3937007874015748
        },
        {
          "duration": 0.6315779999999904,
          "durationTicks": 768,
          "midi": 46,
          "name": "A#2",
          "ticks": 125184,
          "time": 102.947214,
          "velocity": 0.3937007874015748
        },
        {
          "duration": 1.2631560000000093,
          "durationTicks": 1536,
          "midi": 48,
          "name": "C3",
          "ticks": 125952,
          "time": 103.57879199999999,
          "velocity": 0.3937007874015748
        },
        {
          "duration": 1.263155999999995,
          "durationTicks": 1536,
          "midi": 39,
          "name": "D#2",
          "ticks": 127488,
          "time": 104.841948,
          "velocity": 0.3937007874015748
        },
        {
          "duration": 1.263155999999995,
          "durationTicks": 1536,
          "midi": 41,
          "name": "F2",
          "ticks": 129024,
          "time": 106.105104,
          "velocity": 0.3937007874015748
        },
        {
          "duration": 0.6315780000000046,
          "durationTicks": 768,
          "midi": 41,
          "name": "F2",
          "ticks": 130560,
          "time": 107.36825999999999,
          "velocity": 0.3937007874015748
        },
        {
          "duration": 0.6315780000000046,
          "durationTicks": 768,
          "midi": 44,
          "name": "G#2",
          "ticks": 131328,
          "time": 107.999838,
          "velocity": 0.3937007874015748
        },
        {
          "duration": 1.263155999999995,
          "durationTicks": 1536,
          "midi": 41,
          "name": "F2",
          "ticks": 132096,
          "time": 108.631416,
          "velocity": 0.3937007874015748
        },
        {
          "duration": 1.263155999999995,
          "durationTicks": 1536,
          "midi": 40,
          "name": "E2",
          "ticks": 133632,
          "time": 109.894572,
          "velocity": 0.3937007874015748
        },
        {
          "duration": 1.2631560000000093,
          "durationTicks": 1536,
          "midi": 44,
          "name": "G#2",
          "ticks": 135168,
          "time": 111.15772799999999,
          "velocity": 0.3937007874015748
        },
        {
          "duration": 0.6315779999999904,
          "durationTicks": 768,
          "midi": 44,
          "name": "G#2",
          "ticks": 136704,
          "time": 112.420884,
          "velocity": 0.3937007874015748
        },
        {
          "duration": 0.6315780000000046,
          "durationTicks": 768,
          "midi": 46,
          "name": "A#2",
          "ticks": 137472,
          "time": 113.05246199999999,
          "velocity": 0.3937007874015748
        },
        {
          "duration": 1.263155999999995,
          "durationTicks": 1536,
          "midi": 48,
          "name": "C3",
          "ticks": 138240,
          "time": 113.68404,
          "velocity": 0.3937007874015748
        },
        {
          "duration": 1.2631560000000093,
          "durationTicks": 1536,
          "midi": 39,
          "name": "D#2",
          "ticks": 139776,
          "time": 114.94719599999999,
          "velocity": 0.3937007874015748
        },
        {
          "duration": 1.263155999999995,
          "durationTicks": 1536,
          "midi": 41,
          "name": "F2",
          "ticks": 141312,
          "time": 116.210352,
          "velocity": 0.3937007874015748
        },
        {
          "duration": 0.6315780000000046,
          "durationTicks": 768,
          "midi": 41,
          "name": "F2",
          "ticks": 142848,
          "time": 117.473508,
          "velocity": 0.3937007874015748
        },
        {
          "duration": 0.6315779999999904,
          "durationTicks": 768,
          "midi": 44,
          "name": "G#2",
          "ticks": 143616,
          "time": 118.105086,
          "velocity": 0.3937007874015748
        },
        {
          "duration": 1.2631560000000093,
          "durationTicks": 1536,
          "midi": 41,
          "name": "F2",
          "ticks": 144384,
          "time": 118.73666399999999,
          "velocity": 0.3937007874015748
        },
        {
          "duration": 1.263155999999995,
          "durationTicks": 1536,
          "midi": 40,
          "name": "E2",
          "ticks": 145920,
          "time": 119.99982,
          "velocity": 0.3937007874015748
        },
        {
          "duration": 1.263155999999995,
          "durationTicks": 1536,
          "midi": 44,
          "name": "G#2",
          "ticks": 147456,
          "time": 121.262976,
          "velocity": 0.3937007874015748
        },
        {
          "duration": 0.6315780000000046,
          "durationTicks": 768,
          "midi": 44,
          "name": "G#2",
          "ticks": 148992,
          "time": 122.52613199999999,
          "velocity": 0.3937007874015748
        },
        {
          "duration": 0.6315780000000046,
          "durationTicks": 768,
          "midi": 46,
          "name": "A#2",
          "ticks": 149760,
          "time": 123.15771,
          "velocity": 0.3937007874015748
        },
        {
          "duration": 1.263155999999995,
          "durationTicks": 1536,
          "midi": 48,
          "name": "C3",
          "ticks": 150528,
          "time": 123.789288,
          "velocity": 0.3937007874015748
        },
        {
          "duration": 1.263155999999995,
          "durationTicks": 1536,
          "midi": 39,
          "name": "D#2",
          "ticks": 152064,
          "time": 125.052444,
          "velocity": 0.3937007874015748
        },
        {
          "duration": 1.2631560000000093,
          "durationTicks": 1536,
          "midi": 41,
          "name": "F2",
          "ticks": 153600,
          "time": 126.31559999999999,
          "velocity": 0.3937007874015748
        },
        {
          "duration": 0.6315779999999904,
          "durationTicks": 768,
          "midi": 41,
          "name": "F2",
          "ticks": 155136,
          "time": 127.578756,
          "velocity": 0.3937007874015748
        },
        {
          "duration": 0.6315780000000188,
          "durationTicks": 768,
          "midi": 44,
          "name": "G#2",
          "ticks": 155904,
          "time": 128.210334,
          "velocity": 0.3937007874015748
        },
        {
          "duration": 1.2631559999999808,
          "durationTicks": 1536,
          "midi": 41,
          "name": "F2",
          "ticks": 156672,
          "time": 128.841912,
          "velocity": 0.3937007874015748
        },
        {
          "duration": 1.2631560000000093,
          "durationTicks": 1536,
          "midi": 40,
          "name": "E2",
          "ticks": 158208,
          "time": 130.105068,
          "velocity": 0.3937007874015748
        }
      ],
      "endOfTrackTicks": 159744
    },
    {
      "channel": 4,
      "controlChanges": {},
      "pitchBends": [],
      "instrument": {
        "family": "piano",
        "number": 0,
        "name": "acoustic grand piano"
      },
      "name": "Grand Piano (Classic)",
      "notes": [
        {
          "duration": 2.526312000000001,
          "durationTicks": 3072,
          "midi": 58,
          "name": "A#3",
          "ticks": 12288,
          "time": 10.105248,
          "velocity": 0.3937007874015748
        },
        {
          "duration": 2.526312000000001,
          "durationTicks": 3072,
          "midi": 61,
          "name": "C#4",
          "ticks": 12288,
          "time": 10.105248,
          "velocity": 0.3937007874015748
        },
        {
          "duration": 1.2631559999999986,
          "durationTicks": 1536,
          "midi": 63,
          "name": "D#4",
          "ticks": 15360,
          "time": 12.63156,
          "velocity": 0.3937007874015748
        },
        {
          "duration": 1.2631559999999986,
          "durationTicks": 1536,
          "midi": 60,
          "name": "C4",
          "ticks": 15360,
          "time": 12.63156,
          "velocity": 0.3937007874015748
        },
        {
          "duration": 1.2631560000000004,
          "durationTicks": 1536,
          "midi": 67,
          "name": "G4",
          "ticks": 16896,
          "time": 13.894715999999999,
          "velocity": 0.3937007874015748
        },
        {
          "duration": 2.526311999999999,
          "durationTicks": 3072,
          "midi": 61,
          "name": "C#4",
          "ticks": 18432,
          "time": 15.157872,
          "velocity": 0.3937007874015748
        },
        {
          "duration": 2.526311999999999,
          "durationTicks": 3072,
          "midi": 58,
          "name": "A#3",
          "ticks": 18432,
          "time": 15.157872,
          "velocity": 0.3937007874015748
        },
        {
          "duration": 2.526312000000001,
          "durationTicks": 3072,
          "midi": 69,
          "name": "A4",
          "ticks": 21504,
          "time": 17.684184,
          "velocity": 0.3937007874015748
        },
        {
          "duration": 2.526312000000001,
          "durationTicks": 3072,
          "midi": 62,
          "name": "D4",
          "ticks": 21504,
          "time": 17.684184,
          "velocity": 0.3937007874015748
        },
        {
          "duration": 2.526312000000001,
          "durationTicks": 3072,
          "midi": 58,
          "name": "A#3",
          "ticks": 24576,
          "time": 20.210496,
          "velocity": 0.3937007874015748
        },
        {
          "duration": 2.526312000000001,
          "durationTicks": 3072,
          "midi": 61,
          "name": "C#4",
          "ticks": 24576,
          "time": 20.210496,
          "velocity": 0.3937007874015748
        },
        {
          "duration": 1.2631559999999986,
          "durationTicks": 1536,
          "midi": 60,
          "name": "C4",
          "ticks": 27648,
          "time": 22.736808,
          "velocity": 0.3937007874015748
        },
        {
          "duration": 1.2631559999999986,
          "durationTicks": 1536,
          "midi": 63,
          "name": "D#4",
          "ticks": 27648,
          "time": 22.736808,
          "velocity": 0.3937007874015748
        },
        {
          "duration": 1.2631560000000022,
          "durationTicks": 1536,
          "midi": 67,
          "name": "G4",
          "ticks": 29184,
          "time": 23.999964,
          "velocity": 0.3937007874015748
        },
        {
          "duration": 2.5263119999999972,
          "durationTicks": 3072,
          "midi": 58,
          "name": "A#3",
          "ticks": 30720,
          "time": 25.26312,
          "velocity": 0.3937007874015748
        },
        {
          "duration": 2.5263119999999972,
          "durationTicks": 3072,
          "midi": 61,
          "name": "C#4",
          "ticks": 30720,
          "time": 25.26312,
          "velocity": 0.3937007874015748
        },
        {
          "duration": 2.526312000000001,
          "durationTicks": 3072,
          "midi": 62,
          "name": "D4",
          "ticks": 33792,
          "time": 27.789431999999998,
          "velocity": 0.3937007874015748
        },
        {
          "duration": 2.526312000000001,
          "durationTicks": 3072,
          "midi": 69,
          "name": "A4",
          "ticks": 33792,
          "time": 27.789431999999998,
          "velocity": 0.3937007874015748
        },
        {
          "duration": 2.526312000000001,
          "durationTicks": 3072,
          "midi": 61,
          "name": "C#4",
          "ticks": 36864,
          "time": 30.315744,
          "velocity": 0.3937007874015748
        },
        {
          "duration": 2.526312000000001,
          "durationTicks": 3072,
          "midi": 58,
          "name": "A#3",
          "ticks": 36864,
          "time": 30.315744,
          "velocity": 0.3937007874015748
        },
        {
          "duration": 1.2631560000000022,
          "durationTicks": 1536,
          "midi": 60,
          "name": "C4",
          "ticks": 39936,
          "time": 32.842056,
          "velocity": 0.3937007874015748
        },
        {
          "duration": 1.2631560000000022,
          "durationTicks": 1536,
          "midi": 63,
          "name": "D#4",
          "ticks": 39936,
          "time": 32.842056,
          "velocity": 0.3937007874015748
        },
        {
          "duration": 1.263155999999995,
          "durationTicks": 1536,
          "midi": 67,
          "name": "G4",
          "ticks": 41472,
          "time": 34.105212,
          "velocity": 0.3937007874015748
        },
        {
          "duration": 2.5263120000000043,
          "durationTicks": 3072,
          "midi": 58,
          "name": "A#3",
          "ticks": 43008,
          "time": 35.368368,
          "velocity": 0.3937007874015748
        },
        {
          "duration": 2.5263120000000043,
          "durationTicks": 3072,
          "midi": 61,
          "name": "C#4",
          "ticks": 43008,
          "time": 35.368368,
          "velocity": 0.3937007874015748
        },
        {
          "duration": 2.5263119999999972,
          "durationTicks": 3072,
          "midi": 62,
          "name": "D4",
          "ticks": 46080,
          "time": 37.89468,
          "velocity": 0.3937007874015748
        },
        {
          "duration": 2.5263119999999972,
          "durationTicks": 3072,
          "midi": 69,
          "name": "A4",
          "ticks": 46080,
          "time": 37.89468,
          "velocity": 0.3937007874015748
        },
        {
          "duration": 2.5263119999999972,
          "durationTicks": 3072,
          "midi": 58,
          "name": "A#3",
          "ticks": 73728,
          "time": 60.631488,
          "velocity": 0.3937007874015748
        },
        {
          "duration": 2.5263119999999972,
          "durationTicks": 3072,
          "midi": 61,
          "name": "C#4",
          "ticks": 73728,
          "time": 60.631488,
          "velocity": 0.3937007874015748
        },
        {
          "duration": 1.2631560000000093,
          "durationTicks": 1536,
          "midi": 63,
          "name": "D#4",
          "ticks": 76800,
          "time": 63.157799999999995,
          "velocity": 0.3937007874015748
        },
        {
          "duration": 1.2631560000000093,
          "durationTicks": 1536,
          "midi": 60,
          "name": "C4",
          "ticks": 76800,
          "time": 63.157799999999995,
          "velocity": 0.3937007874015748
        },
        {
          "duration": 1.263155999999995,
          "durationTicks": 1536,
          "midi": 67,
          "name": "G4",
          "ticks": 78336,
          "time": 64.420956,
          "velocity": 0.3937007874015748
        },
        {
          "duration": 2.5263120000000043,
          "durationTicks": 3072,
          "midi": 61,
          "name": "C#4",
          "ticks": 79872,
          "time": 65.684112,
          "velocity": 0.3937007874015748
        },
        {
          "duration": 2.5263120000000043,
          "durationTicks": 3072,
          "midi": 65,
          "name": "F4",
          "ticks": 79872,
          "time": 65.684112,
          "velocity": 0.3937007874015748
        },
        {
          "duration": 1.263155999999995,
          "durationTicks": 1536,
          "midi": 60,
          "name": "C4",
          "ticks": 82944,
          "time": 68.210424,
          "velocity": 0.3937007874015748
        },
        {
          "duration": 1.263155999999995,
          "durationTicks": 1536,
          "midi": 63,
          "name": "D#4",
          "ticks": 82944,
          "time": 68.210424,
          "velocity": 0.3937007874015748
        },
        {
          "duration": 1.263155999999995,
          "durationTicks": 1536,
          "midi": 67,
          "name": "G4",
          "ticks": 84480,
          "time": 69.47358,
          "velocity": 0.3937007874015748
        },
        {
          "duration": 2.5263120000000043,
          "durationTicks": 3072,
          "midi": 61,
          "name": "C#4",
          "ticks": 86016,
          "time": 70.736736,
          "velocity": 0.3937007874015748
        },
        {
          "duration": 2.5263120000000043,
          "durationTicks": 3072,
          "midi": 65,
          "name": "F4",
          "ticks": 86016,
          "time": 70.736736,
          "velocity": 0.3937007874015748
        },
        {
          "duration": 1.263155999999995,
          "durationTicks": 1536,
          "midi": 60,
          "name": "C4",
          "ticks": 89088,
          "time": 73.263048,
          "velocity": 0.3937007874015748
        },
        {
          "duration": 1.263155999999995,
          "durationTicks": 1536,
          "midi": 63,
          "name": "D#4",
          "ticks": 89088,
          "time": 73.263048,
          "velocity": 0.3937007874015748
        },
        {
          "duration": 1.2631560000000093,
          "durationTicks": 1536,
          "midi": 67,
          "name": "G4",
          "ticks": 90624,
          "time": 74.52620399999999,
          "velocity": 0.3937007874015748
        },
        {
          "duration": 2.52631199999999,
          "durationTicks": 3072,
          "midi": 65,
          "name": "F4",
          "ticks": 92160,
          "time": 75.78936,
          "velocity": 0.3937007874015748
        },
        {
          "duration": 2.52631199999999,
          "durationTicks": 3072,
          "midi": 61,
          "name": "C#4",
          "ticks": 92160,
          "time": 75.78936,
          "velocity": 0.3937007874015748
        },
        {
          "duration": 1.2631560000000093,
          "durationTicks": 1536,
          "midi": 60,
          "name": "C4",
          "ticks": 95232,
          "time": 78.31567199999999,
          "velocity": 0.3937007874015748
        },
        {
          "duration": 1.2631560000000093,
          "durationTicks": 1536,
          "midi": 63,
          "name": "D#4",
          "ticks": 95232,
          "time": 78.31567199999999,
          "velocity": 0.3937007874015748
        },
        {
          "duration": 1.263155999999995,
          "durationTicks": 1536,
          "midi": 67,
          "name": "G4",
          "ticks": 96768,
          "time": 79.578828,
          "velocity": 0.3937007874015748
        },
        {
          "duration": 2.5263120000000043,
          "durationTicks": 3072,
          "midi": 65,
          "name": "F4",
          "ticks": 98304,
          "time": 80.841984,
          "velocity": 0.3937007874015748
        },
        {
          "duration": 2.5263120000000043,
          "durationTicks": 3072,
          "midi": 61,
          "name": "C#4",
          "ticks": 98304,
          "time": 80.841984,
          "velocity": 0.3937007874015748
        },
        {
          "duration": 1.263155999999995,
          "durationTicks": 1536,
          "midi": 63,
          "name": "D#4",
          "ticks": 101376,
          "time": 83.368296,
          "velocity": 0.3937007874015748
        },
        {
          "duration": 1.263155999999995,
          "durationTicks": 1536,
          "midi": 60,
          "name": "C4",
          "ticks": 101376,
          "time": 83.368296,
          "velocity": 0.3937007874015748
        },
        {
          "duration": 1.263155999999995,
          "durationTicks": 1536,
          "midi": 67,
          "name": "G4",
          "ticks": 102912,
          "time": 84.631452,
          "velocity": 0.3937007874015748
        },
        {
          "duration": 2.5263120000000043,
          "durationTicks": 3072,
          "midi": 61,
          "name": "C#4",
          "ticks": 104448,
          "time": 85.89460799999999,
          "velocity": 0.3937007874015748
        },
        {
          "duration": 2.5263120000000043,
          "durationTicks": 3072,
          "midi": 65,
          "name": "F4",
          "ticks": 104448,
          "time": 85.89460799999999,
          "velocity": 0.3937007874015748
        },
        {
          "duration": 2.5263120000000043,
          "durationTicks": 3072,
          "midi": 63,
          "name": "D#4",
          "ticks": 107520,
          "time": 88.42092,
          "velocity": 0.3937007874015748
        },
        {
          "duration": 2.5263120000000043,
          "durationTicks": 3072,
          "midi": 60,
          "name": "C4",
          "ticks": 107520,
          "time": 88.42092,
          "velocity": 0.3937007874015748
        },
        {
          "duration": 1.2631560000000093,
          "durationTicks": 1536,
          "midi": 67,
          "name": "G4",
          "ticks": 121344,
          "time": 99.789324,
          "velocity": 0.3937007874015748
        },
        {
          "duration": 2.52631199999999,
          "durationTicks": 3072,
          "midi": 58,
          "name": "A#3",
          "ticks": 122880,
          "time": 101.05248,
          "velocity": 0.3937007874015748
        },
        {
          "duration": 2.52631199999999,
          "durationTicks": 3072,
          "midi": 61,
          "name": "C#4",
          "ticks": 122880,
          "time": 101.05248,
          "velocity": 0.3937007874015748
        },
        {
          "duration": 1.2631560000000093,
          "durationTicks": 1536,
          "midi": 63,
          "name": "D#4",
          "ticks": 125952,
          "time": 103.57879199999999,
          "velocity": 0.3937007874015748
        },
        {
          "duration": 1.2631560000000093,
          "durationTicks": 1536,
          "midi": 60,
          "name": "C4",
          "ticks": 125952,
          "time": 103.57879199999999,
          "velocity": 0.3937007874015748
        },
        {
          "duration": 1.263155999999995,
          "durationTicks": 1536,
          "midi": 67,
          "name": "G4",
          "ticks": 127488,
          "time": 104.841948,
          "velocity": 0.3937007874015748
        },
        {
          "duration": 2.5263120000000043,
          "durationTicks": 3072,
          "midi": 61,
          "name": "C#4",
          "ticks": 129024,
          "time": 106.105104,
          "velocity": 0.3937007874015748
        },
        {
          "duration": 2.5263120000000043,
          "durationTicks": 3072,
          "midi": 65,
          "name": "F4",
          "ticks": 129024,
          "time": 106.105104,
          "velocity": 0.3937007874015748
        },
        {
          "duration": 1.263155999999995,
          "durationTicks": 1536,
          "midi": 60,
          "name": "C4",
          "ticks": 132096,
          "time": 108.631416,
          "velocity": 0.3937007874015748
        },
        {
          "duration": 1.263155999999995,
          "durationTicks": 1536,
          "midi": 63,
          "name": "D#4",
          "ticks": 132096,
          "time": 108.631416,
          "velocity": 0.3937007874015748
        },
        {
          "duration": 1.263155999999995,
          "durationTicks": 1536,
          "midi": 67,
          "name": "G4",
          "ticks": 133632,
          "time": 109.894572,
          "velocity": 0.3937007874015748
        },
        {
          "duration": 2.5263120000000043,
          "durationTicks": 3072,
          "midi": 61,
          "name": "C#4",
          "ticks": 135168,
          "time": 111.15772799999999,
          "velocity": 0.3937007874015748
        },
        {
          "duration": 2.5263120000000043,
          "durationTicks": 3072,
          "midi": 65,
          "name": "F4",
          "ticks": 135168,
          "time": 111.15772799999999,
          "velocity": 0.3937007874015748
        },
        {
          "duration": 1.263155999999995,
          "durationTicks": 1536,
          "midi": 60,
          "name": "C4",
          "ticks": 138240,
          "time": 113.68404,
          "velocity": 0.3937007874015748
        },
        {
          "duration": 1.263155999999995,
          "durationTicks": 1536,
          "midi": 63,
          "name": "D#4",
          "ticks": 138240,
          "time": 113.68404,
          "velocity": 0.3937007874015748
        },
        {
          "duration": 1.2631560000000093,
          "durationTicks": 1536,
          "midi": 67,
          "name": "G4",
          "ticks": 139776,
          "time": 114.94719599999999,
          "velocity": 0.3937007874015748
        },
        {
          "duration": 2.52631199999999,
          "durationTicks": 3072,
          "midi": 65,
          "name": "F4",
          "ticks": 141312,
          "time": 116.210352,
          "velocity": 0.3937007874015748
        },
        {
          "duration": 2.52631199999999,
          "durationTicks": 3072,
          "midi": 61,
          "name": "C#4",
          "ticks": 141312,
          "time": 116.210352,
          "velocity": 0.3937007874015748
        },
        {
          "duration": 1.2631560000000093,
          "durationTicks": 1536,
          "midi": 60,
          "name": "C4",
          "ticks": 144384,
          "time": 118.73666399999999,
          "velocity": 0.3937007874015748
        },
        {
          "duration": 1.2631560000000093,
          "durationTicks": 1536,
          "midi": 63,
          "name": "D#4",
          "ticks": 144384,
          "time": 118.73666399999999,
          "velocity": 0.3937007874015748
        },
        {
          "duration": 1.263155999999995,
          "durationTicks": 1536,
          "midi": 67,
          "name": "G4",
          "ticks": 145920,
          "time": 119.99982,
          "velocity": 0.3937007874015748
        },
        {
          "duration": 2.5263120000000043,
          "durationTicks": 3072,
          "midi": 61,
          "name": "C#4",
          "ticks": 147456,
          "time": 121.262976,
          "velocity": 0.3937007874015748
        },
        {
          "duration": 2.5263120000000043,
          "durationTicks": 3072,
          "midi": 65,
          "name": "F4",
          "ticks": 147456,
          "time": 121.262976,
          "velocity": 0.3937007874015748
        },
        {
          "duration": 1.263155999999995,
          "durationTicks": 1536,
          "midi": 63,
          "name": "D#4",
          "ticks": 150528,
          "time": 123.789288,
          "velocity": 0.3937007874015748
        },
        {
          "duration": 1.263155999999995,
          "durationTicks": 1536,
          "midi": 60,
          "name": "C4",
          "ticks": 150528,
          "time": 123.789288,
          "velocity": 0.3937007874015748
        },
        {
          "duration": 1.263155999999995,
          "durationTicks": 1536,
          "midi": 67,
          "name": "G4",
          "ticks": 152064,
          "time": 125.052444,
          "velocity": 0.3937007874015748
        },
        {
          "duration": 2.5263120000000185,
          "durationTicks": 3072,
          "midi": 61,
          "name": "C#4",
          "ticks": 153600,
          "time": 126.31559999999999,
          "velocity": 0.3937007874015748
        },
        {
          "duration": 2.5263120000000185,
          "durationTicks": 3072,
          "midi": 65,
          "name": "F4",
          "ticks": 153600,
          "time": 126.31559999999999,
          "velocity": 0.3937007874015748
        },
        {
          "duration": 2.52631199999999,
          "durationTicks": 3072,
          "midi": 60,
          "name": "C4",
          "ticks": 156672,
          "time": 128.841912,
          "velocity": 0.3937007874015748
        },
        {
          "duration": 2.52631199999999,
          "durationTicks": 3072,
          "midi": 63,
          "name": "D#4",
          "ticks": 156672,
          "time": 128.841912,
          "velocity": 0.3937007874015748
        },
        {
          "duration": 1.2631559999999808,
          "durationTicks": 1536,
          "midi": 67,
          "name": "G4",
          "ticks": 170496,
          "time": 140.210316,
          "velocity": 0.3937007874015748
        },
        {
          "duration": 2.5263120000000185,
          "durationTicks": 3072,
          "midi": 58,
          "name": "A#3",
          "ticks": 172032,
          "time": 141.473472,
          "velocity": 0.3937007874015748
        },
        {
          "duration": 2.5263120000000185,
          "durationTicks": 3072,
          "midi": 61,
          "name": "C#4",
          "ticks": 172032,
          "time": 141.473472,
          "velocity": 0.3937007874015748
        },
        {
          "duration": 1.2631559999999808,
          "durationTicks": 1536,
          "midi": 60,
          "name": "C4",
          "ticks": 175104,
          "time": 143.999784,
          "velocity": 0.3937007874015748
        },
        {
          "duration": 1.2631559999999808,
          "durationTicks": 1536,
          "midi": 63,
          "name": "D#4",
          "ticks": 175104,
          "time": 143.999784,
          "velocity": 0.3937007874015748
        },
        {
          "duration": 1.2631560000000093,
          "durationTicks": 1536,
          "midi": 67,
          "name": "G4",
          "ticks": 176640,
          "time": 145.26294,
          "velocity": 0.3937007874015748
        },
        {
          "duration": 2.52631199999999,
          "durationTicks": 3072,
          "midi": 61,
          "name": "C#4",
          "ticks": 178176,
          "time": 146.526096,
          "velocity": 0.3937007874015748
        },
        {
          "duration": 2.52631199999999,
          "durationTicks": 3072,
          "midi": 65,
          "name": "F4",
          "ticks": 178176,
          "time": 146.526096,
          "velocity": 0.3937007874015748
        },
        {
          "duration": 1.2631560000000093,
          "durationTicks": 1536,
          "midi": 60,
          "name": "C4",
          "ticks": 181248,
          "time": 149.05240799999999,
          "velocity": 0.3937007874015748
        },
        {
          "duration": 1.2631560000000093,
          "durationTicks": 1536,
          "midi": 63,
          "name": "D#4",
          "ticks": 181248,
          "time": 149.05240799999999,
          "velocity": 0.3937007874015748
        },
        {
          "duration": 1.2631560000000093,
          "durationTicks": 1536,
          "midi": 67,
          "name": "G4",
          "ticks": 182784,
          "time": 150.315564,
          "velocity": 0.3937007874015748
        }
      ],
      "endOfTrackTicks": 184320
    },
    {
      "channel": 5,
      "controlChanges": {},
      "pitchBends": [],
      "instrument": {
        "family": "chromatic percussion",
        "number": 10,
        "name": "music box"
      },
      "name": "Music Box",
      "notes": [
        {
          "duration": 0.0789472499999988,
          "durationTicks": 96,
          "midi": 89,
          "name": "F6",
          "ticks": 123168,
          "time": 101.28932175,
          "velocity": 0.3937007874015748
        }
      ],
      "endOfTrackTicks": 123264
    }
  ]
}
