{
  "header": {
    "keySignatures": [],
    "meta": [
      {
        "text": "HitBit  ",
        "ticks": 0,
        "type": "text"
      }
    ],
    "name": "",
    "ppq": 192,
    "tempos": [],
    "timeSignatures": []
  },
  "tracks": [
    {
      "channel": 9,
      "controlChanges": {
        "0": [
          {
            "number": 0,
            "ticks": 186,
            "time": 0.484375,
            "value": 0
          }
        ],
        "7": [
          {
            "number": 7,
            "ticks": 188,
            "time": 0.4895833333333333,
            "value": 0.7716535433070866
          },
          {
            "number": 7,
            "ticks": 18428,
            "time": 47.989583333333336,
            "value": 0.7637795275590551
          },
          {
            "number": 7,
            "ticks": 18521,
            "time": 48.231770833333336,
            "value": 0.7480314960629921
          },
          {
            "number": 7,
            "ticks": 18614,
            "time": 48.473958333333336,
            "value": 0.7165354330708661
          },
          {
            "number": 7,
            "ticks": 18707,
            "time": 48.716145833333336,
            "value": 0.6850393700787402
          },
          {
            "number": 7,
            "ticks": 18800,
            "time": 48.958333333333336,
            "value": 0.6614173228346457
          },
          {
            "number": 7,
            "ticks": 18893,
            "time": 49.200520833333336,
            "value": 0.6377952755905512
          },
          {
            "number": 7,
            "ticks": 18986,
            "time": 49.442708333333336,
            "value": 0.6062992125984252
          },
          {
            "number": 7,
            "ticks": 19079,
            "time": 49.684895833333336,
            "value": 0.5826771653543307
          },
          {
            "number": 7,
            "ticks": 19172,
            "time": 49.927083333333336,
            "value": 0.5590551181102362
          },
          {
            "number": 7,
            "ticks": 19264,
            "time": 50.166666666666664,
            "value": 0.5275590551181102
          },
          {
            "number": 7,
            "ticks": 19357,
            "time": 50.408854166666664,
            "value": 0.49606299212598426
          },
          {
            "number": 7,
            "ticks": 19450,
            "time": 50.651041666666664,
            "value": 0.47244094488188976
          },
          {
            "number": 7,
            "ticks": 19543,
            "time": 50.893229166666664,
            "value": 0.44881889763779526
          },
          {
            "number": 7,
            "ticks": 19636,
            "time": 51.135416666666664,
            "value": 0.41732283464566927
          },
          {
            "number": 7,
            "ticks": 19729,
            "time": 51.377604166666664,
            "value": 0.3937007874015748
          },
          {
            "number": 7,
            "ticks": 19822,
            "time": 51.619791666666664,
            "value": 0.3700787401574803
          },
          {
            "number": 7,
            "ticks": 19915,
            "time": 51.861979166666664,
            "value": 0.33858267716535434
          },
          {
            "number": 7,
            "ticks": 20008,
            "time": 52.104166666666664,
            "value": 0.31496062992125984
          },
          {
            "number": 7,
            "ticks": 20101,
            "time": 52.346354166666664,
            "value": 0.29133858267716534
          },
          {
            "number": 7,
            "ticks": 20193,
            "time": 52.5859375,
            "value": 0.25984251968503935
          },
          {
            "number": 7,
            "ticks": 20286,
            "time": 52.828125,
            "value": 0.2283464566929134
          },
          {
            "number": 7,
            "ticks": 20379,
            "time": 53.0703125,
            "value": 0.2047244094488189
          },
          {
            "number": 7,
            "ticks": 20472,
            "time": 53.3125,
            "value": 0.18110236220472442
          },
          {
            "number": 7,
            "ticks": 20565,
            "time": 53.5546875,
            "value": 0.14960629921259844
          },
          {
            "number": 7,
            "ticks": 20658,
            "time": 53.796875,
            "value": 0.12598425196850394
          },
          {
            "number": 7,
            "ticks": 20751,
            "time": 54.0390625,
            "value": 0.10236220472440945
          },
          {
            "number": 7,
            "ticks": 20844,
            "time": 54.28125,
            "value": 0.07086614173228346
          },
          {
            "number": 7,
            "ticks": 20936,
            "time": 54.520833333333336,
            "value": 0.047244094488188976
          },
          {
            "number": 7,
            "ticks": 21029,
            "time": 54.763020833333336,
            "value": 0.023622047244094488
          },
          {
            "number": 7,
            "ticks": 21122,
            "time": 55.005208333333336,
            "value": 0
          }
        ],
        "91": [
          {
            "number": 91,
            "ticks": 189,
            "time": 0.4921875,
            "value": 0.7795275590551181
          }
        ]
      },
      "pitchBends": [],
      "instrument": {
        "family": "drums",
        "number": 0,
        "name": "standard kit"
      },
      "name": "",
      "notes": [
        {
          "duration": 0.02604166666666652,
          "durationTicks": 10,
          "midi": 36,
          "name": "C2",
          "ticks": 415,
          "time": 1.0807291666666667,
          "velocity": 0.7165354330708661
        },
        {
          "duration": 0.0234375,
          "durationTicks": 9,
          "midi": 42,
          "name": "F#2",
          "ticks": 415,
          "time": 1.0807291666666667,
          "velocity": 0.6299212598425197
        },
        {
          "duration": 0.02604166666666674,
          "durationTicks": 10,
          "midi": 42,
          "name": "F#2",
          "ticks": 461,
          "time": 1.2005208333333333,
          "velocity": 0.5275590551181102
        },
        {
          "duration": 0.02604166666666674,
          "durationTicks": 10,
          "midi": 46,
          "name": "A#2",
          "ticks": 507,
          "time": 1.3203125,
          "velocity": 0.5354330708661418
        },
        {
          "duration": 0.02864583333333326,
          "durationTicks": 11,
          "midi": 36,
          "name": "C2",
          "ticks": 600,
          "time": 1.5625,
          "velocity": 0.7165354330708661
        },
        {
          "duration": 0.0234375,
          "durationTicks": 9,
          "midi": 38,
          "name": "D2",
          "ticks": 601,
          "time": 1.5651041666666667,
          "velocity": 0.7559055118110236
        },
        {
          "duration": 0.0234375,
          "durationTicks": 9,
          "midi": 42,
          "name": "F#2",
          "ticks": 601,
          "time": 1.5651041666666667,
          "velocity": 0.6062992125984252
        },
        {
          "duration": 0.02604166666666674,
          "durationTicks": 10,
          "midi": 42,
          "name": "F#2",
          "ticks": 647,
          "time": 1.6848958333333333,
          "velocity": 0.5275590551181102
        },
        {
          "duration": 0.02604166666666674,
          "durationTicks": 10,
          "midi": 46,
          "name": "A#2",
          "ticks": 693,
          "time": 1.8046875,
          "velocity": 0.5354330708661418
        },
        {
          "duration": 0.02604166666666652,
          "durationTicks": 10,
          "midi": 36,
          "name": "C2",
          "ticks": 786,
          "time": 2.046875,
          "velocity": 0.7165354330708661
        },
        {
          "duration": 0.0234375,
          "durationTicks": 9,
          "midi": 42,
          "name": "F#2",
          "ticks": 787,
          "time": 2.0494791666666665,
          "velocity": 0.6062992125984252
        },
        {
          "duration": 0.0234375,
          "durationTicks": 9,
          "midi": 42,
          "name": "F#2",
          "ticks": 833,
          "time": 2.1692708333333335,
          "velocity": 0.5275590551181102
        },
        {
          "duration": 0.02604166666666652,
          "durationTicks": 10,
          "midi": 46,
          "name": "A#2",
          "ticks": 879,
          "time": 2.2890625,
          "velocity": 0.5354330708661418
        },
        {
          "duration": 0.02604166666666652,
          "durationTicks": 10,
          "midi": 36,
          "name": "C2",
          "ticks": 972,
          "time": 2.53125,
          "velocity": 0.7165354330708661
        },
        {
          "duration": 0.02604166666666652,
          "durationTicks": 10,
          "midi": 38,
          "name": "D2",
          "ticks": 972,
          "time": 2.53125,
          "velocity": 0.7559055118110236
        },
        {
          "duration": 0.0234375,
          "durationTicks": 9,
          "midi": 42,
          "name": "F#2",
          "ticks": 973,
          "time": 2.5338541666666665,
          "velocity": 0.6062992125984252
        },
        {
          "duration": 0.026041666666666963,
          "durationTicks": 10,
          "midi": 42,
          "name": "F#2",
          "ticks": 1018,
          "time": 2.6510416666666665,
          "velocity": 0.5275590551181102
        },
        {
          "duration": 0.0234375,
          "durationTicks": 9,
          "midi": 46,
          "name": "A#2",
          "ticks": 1065,
          "time": 2.7734375,
          "velocity": 0.5354330708661418
        },
        {
          "duration": 0.02604166666666652,
          "durationTicks": 10,
          "midi": 36,
          "name": "C2",
          "ticks": 1158,
          "time": 3.015625,
          "velocity": 0.7165354330708661
        },
        {
          "duration": 0.0234375,
          "durationTicks": 9,
          "midi": 42,
          "name": "F#2",
          "ticks": 1158,
          "time": 3.015625,
          "velocity": 0.6299212598425197
        },
        {
          "duration": 0.026041666666666963,
          "durationTicks": 10,
          "midi": 42,
          "name": "F#2",
          "ticks": 1204,
          "time": 3.1354166666666665,
          "velocity": 0.5275590551181102
        },
        {
          "duration": 0.0234375,
          "durationTicks": 9,
          "midi": 46,
          "name": "A#2",
          "ticks": 1251,
          "time": 3.2578125,
          "velocity": 0.5354330708661418
        },
        {
          "duration": 0.028645833333333037,
          "durationTicks": 11,
          "midi": 36,
          "name": "C2",
          "ticks": 1343,
          "time": 3.4973958333333335,
          "velocity": 0.7165354330708661
        },
        {
          "duration": 0.02604166666666652,
          "durationTicks": 10,
          "midi": 38,
          "name": "D2",
          "ticks": 1344,
          "time": 3.5,
          "velocity": 0.7559055118110236
        },
        {
          "duration": 0.0234375,
          "durationTicks": 9,
          "midi": 42,
          "name": "F#2",
          "ticks": 1344,
          "time": 3.5,
          "velocity": 0.6062992125984252
        },
        {
          "duration": 0.026041666666666963,
          "durationTicks": 10,
          "midi": 42,
          "name": "F#2",
          "ticks": 1390,
          "time": 3.6197916666666665,
          "velocity": 0.5275590551181102
        },
        {
          "duration": 0.02604166666666652,
          "durationTicks": 10,
          "midi": 46,
          "name": "A#2",
          "ticks": 1436,
          "time": 3.7395833333333335,
          "velocity": 0.5354330708661418
        },
        {
          "duration": 0.02604166666666652,
          "durationTicks": 10,
          "midi": 36,
          "name": "C2",
          "ticks": 1529,
          "time": 3.9817708333333335,
          "velocity": 0.7165354330708661
        },
        {
          "duration": 0.0234375,
          "durationTicks": 9,
          "midi": 42,
          "name": "F#2",
          "ticks": 1530,
          "time": 3.984375,
          "velocity": 0.6062992125984252
        },
        {
          "duration": 0.0234375,
          "durationTicks": 9,
          "midi": 42,
          "name": "F#2",
          "ticks": 1576,
          "time": 4.104166666666667,
          "velocity": 0.5275590551181102
        },
        {
          "duration": 0.026041666666666963,
          "durationTicks": 10,
          "midi": 46,
          "name": "A#2",
          "ticks": 1622,
          "time": 4.223958333333333,
          "velocity": 0.5354330708661418
        },
        {
          "duration": 0.028645833333333925,
          "durationTicks": 11,
          "midi": 36,
          "name": "C2",
          "ticks": 1715,
          "time": 4.466145833333333,
          "velocity": 0.7165354330708661
        },
        {
          "duration": 0.026041666666666963,
          "durationTicks": 10,
          "midi": 38,
          "name": "D2",
          "ticks": 1715,
          "time": 4.466145833333333,
          "velocity": 0.7559055118110236
        },
        {
          "duration": 0.0234375,
          "durationTicks": 9,
          "midi": 42,
          "name": "F#2",
          "ticks": 1716,
          "time": 4.46875,
          "velocity": 0.6062992125984252
        },
        {
          "duration": 0.0234375,
          "durationTicks": 9,
          "midi": 42,
          "name": "F#2",
          "ticks": 1762,
          "time": 4.588541666666667,
          "velocity": 0.5275590551181102
        },
        {
          "duration": 0.026041666666666963,
          "durationTicks": 10,
          "midi": 46,
          "name": "A#2",
          "ticks": 1808,
          "time": 4.708333333333333,
          "velocity": 0.5354330708661418
        },
        {
          "duration": 0.026041666666666963,
          "durationTicks": 10,
          "midi": 36,
          "name": "C2",
          "ticks": 1901,
          "time": 4.950520833333333,
          "velocity": 0.7165354330708661
        },
        {
          "duration": 0.0234375,
          "durationTicks": 9,
          "midi": 42,
          "name": "F#2",
          "ticks": 1901,
          "time": 4.950520833333333,
          "velocity": 0.6299212598425197
        },
        {
          "duration": 0.026041666666666963,
          "durationTicks": 10,
          "midi": 42,
          "name": "F#2",
          "ticks": 1947,
          "time": 5.0703125,
          "velocity": 0.5275590551181102
        },
        {
          "duration": 0.0234375,
          "durationTicks": 9,
          "midi": 46,
          "name": "A#2",
          "ticks": 1994,
          "time": 5.192708333333333,
          "velocity": 0.5354330708661418
        },
        {
          "duration": 0.026041666666666963,
          "durationTicks": 10,
          "midi": 36,
          "name": "C2",
          "ticks": 2087,
          "time": 5.434895833333333,
          "velocity": 0.7165354330708661
        },
        {
          "duration": 0.026041666666666963,
          "durationTicks": 10,
          "midi": 38,
          "name": "D2",
          "ticks": 2087,
          "time": 5.434895833333333,
          "velocity": 0.7559055118110236
        },
        {
          "duration": 0.020833333333333037,
          "durationTicks": 8,
          "midi": 42,
          "name": "F#2",
          "ticks": 2088,
          "time": 5.4375,
          "velocity": 0.6062992125984252
        },
        {
          "duration": 0.026041666666666963,
          "durationTicks": 10,
          "midi": 42,
          "name": "F#2",
          "ticks": 2133,
          "time": 5.5546875,
          "velocity": 0.5275590551181102
        },
        {
          "duration": 0.0234375,
          "durationTicks": 9,
          "midi": 46,
          "name": "A#2",
          "ticks": 2180,
          "time": 5.677083333333333,
          "velocity": 0.5354330708661418
        },
        {
          "duration": 0.026041666666666075,
          "durationTicks": 10,
          "midi": 36,
          "name": "C2",
          "ticks": 2272,
          "time": 5.916666666666667,
          "velocity": 0.7165354330708661
        },
        {
          "duration": 0.0234375,
          "durationTicks": 9,
          "midi": 42,
          "name": "F#2",
          "ticks": 2273,
          "time": 5.919270833333333,
          "velocity": 0.6062992125984252
        },
        {
          "duration": 0.026041666666666963,
          "durationTicks": 10,
          "midi": 42,
          "name": "F#2",
          "ticks": 2319,
          "time": 6.0390625,
          "velocity": 0.5275590551181102
        },
        {
          "duration": 0.026041666666666075,
          "durationTicks": 10,
          "midi": 46,
          "name": "A#2",
          "ticks": 2365,
          "time": 6.158854166666667,
          "velocity": 0.5354330708661418
        },
        {
          "duration": 0.026041666666666075,
          "durationTicks": 10,
          "midi": 36,
          "name": "C2",
          "ticks": 2458,
          "time": 6.401041666666667,
          "velocity": 0.7165354330708661
        },
        {
          "duration": 0.0234375,
          "durationTicks": 9,
          "midi": 38,
          "name": "D2",
          "ticks": 2459,
          "time": 6.403645833333333,
          "velocity": 0.7559055118110236
        },
        {
          "duration": 0.026041666666666963,
          "durationTicks": 10,
          "midi": 42,
          "name": "F#2",
          "ticks": 2459,
          "time": 6.403645833333333,
          "velocity": 0.6062992125984252
        },
        {
          "duration": 0.0234375,
          "durationTicks": 9,
          "midi": 42,
          "name": "F#2",
          "ticks": 2505,
          "time": 6.5234375,
          "velocity": 0.5275590551181102
        },
        {
          "duration": 0.026041666666666075,
          "durationTicks": 10,
          "midi": 46,
          "name": "A#2",
          "ticks": 2551,
          "time": 6.643229166666667,
          "velocity": 0.5354330708661418
        },
        {
          "duration": 0.026041666666666075,
          "durationTicks": 10,
          "midi": 36,
          "name": "C2",
          "ticks": 2644,
          "time": 6.885416666666667,
          "velocity": 0.7165354330708661
        },
        {
          "duration": 0.026041666666666075,
          "durationTicks": 10,
          "midi": 42,
          "name": "F#2",
          "ticks": 2644,
          "time": 6.885416666666667,
          "velocity": 0.6299212598425197
        },
        {
          "duration": 0.0234375,
          "durationTicks": 9,
          "midi": 42,
          "name": "F#2",
          "ticks": 2691,
          "time": 7.0078125,
          "velocity": 0.5275590551181102
        },
        {
          "duration": 0.026041666666666075,
          "durationTicks": 10,
          "midi": 46,
          "name": "A#2",
          "ticks": 2737,
          "time": 7.127604166666667,
          "velocity": 0.5354330708661418
        },
        {
          "duration": 0.026041666666666075,
          "durationTicks": 10,
          "midi": 36,
          "name": "C2",
          "ticks": 2830,
          "time": 7.369791666666667,
          "velocity": 0.7165354330708661
        },
        {
          "duration": 0.026041666666666075,
          "durationTicks": 10,
          "midi": 38,
          "name": "D2",
          "ticks": 2830,
          "time": 7.369791666666667,
          "velocity": 0.7559055118110236
        },
        {
          "duration": 0.0234375,
          "durationTicks": 9,
          "midi": 42,
          "name": "F#2",
          "ticks": 2831,
          "time": 7.372395833333333,
          "velocity": 0.6062992125984252
        },
        {
          "duration": 0.026041666666666963,
          "durationTicks": 10,
          "midi": 42,
          "name": "F#2",
          "ticks": 2876,
          "time": 7.489583333333333,
          "velocity": 0.5275590551181102
        },
        {
          "duration": 0.0234375,
          "durationTicks": 9,
          "midi": 46,
          "name": "A#2",
          "ticks": 2923,
          "time": 7.611979166666667,
          "velocity": 0.5354330708661418
        },
        {
          "duration": 0.026041666666666075,
          "durationTicks": 10,
          "midi": 36,
          "name": "C2",
          "ticks": 3016,
          "time": 7.854166666666667,
          "velocity": 0.7165354330708661
        },
        {
          "duration": 0.0234375,
          "durationTicks": 9,
          "midi": 42,
          "name": "F#2",
          "ticks": 3016,
          "time": 7.854166666666667,
          "velocity": 0.6062992125984252
        },
        {
          "duration": 0.026041666666666963,
          "durationTicks": 10,
          "midi": 42,
          "name": "F#2",
          "ticks": 3062,
          "time": 7.973958333333333,
          "velocity": 0.5275590551181102
        },
        {
          "duration": 0.0234375,
          "durationTicks": 9,
          "midi": 46,
          "name": "A#2",
          "ticks": 3109,
          "time": 8.096354166666666,
          "velocity": 0.5354330708661418
        },
        {
          "duration": 0.028645833333333925,
          "durationTicks": 11,
          "midi": 36,
          "name": "C2",
          "ticks": 3201,
          "time": 8.3359375,
          "velocity": 0.7165354330708661
        },
        {
          "duration": 0.0234375,
          "durationTicks": 9,
          "midi": 38,
          "name": "D2",
          "ticks": 3202,
          "time": 8.338541666666666,
          "velocity": 0.7559055118110236
        },
        {
          "duration": 0.0234375,
          "durationTicks": 9,
          "midi": 42,
          "name": "F#2",
          "ticks": 3202,
          "time": 8.338541666666666,
          "velocity": 0.6062992125984252
        },
        {
          "duration": 0.026041666666666075,
          "durationTicks": 10,
          "midi": 42,
          "name": "F#2",
          "ticks": 3248,
          "time": 8.458333333333334,
          "velocity": 0.5275590551181102
        },
        {
          "duration": 0.026041666666666075,
          "durationTicks": 10,
          "midi": 46,
          "name": "A#2",
          "ticks": 3294,
          "time": 8.578125,
          "velocity": 0.5354330708661418
        },
        {
          "duration": 0.026041666666666075,
          "durationTicks": 10,
          "midi": 36,
          "name": "C2",
          "ticks": 3387,
          "time": 8.8203125,
          "velocity": 0.7165354330708661
        },
        {
          "duration": 0.0234375,
          "durationTicks": 9,
          "midi": 42,
          "name": "F#2",
          "ticks": 3388,
          "time": 8.822916666666666,
          "velocity": 0.6299212598425197
        },
        {
          "duration": 0.0234375,
          "durationTicks": 9,
          "midi": 42,
          "name": "F#2",
          "ticks": 3434,
          "time": 8.942708333333334,
          "velocity": 0.5275590551181102
        },
        {
          "duration": 0.026041666666666075,
          "durationTicks": 10,
          "midi": 46,
          "name": "A#2",
          "ticks": 3480,
          "time": 9.0625,
          "velocity": 0.5354330708661418
        },
        {
          "duration": 0.026041666666666075,
          "durationTicks": 10,
          "midi": 36,
          "name": "C2",
          "ticks": 3573,
          "time": 9.3046875,
          "velocity": 0.7165354330708661
        },
        {
          "duration": 0.026041666666666075,
          "durationTicks": 10,
          "midi": 38,
          "name": "D2",
          "ticks": 3573,
          "time": 9.3046875,
          "velocity": 0.7559055118110236
        },
        {
          "duration": 0.0234375,
          "durationTicks": 9,
          "midi": 42,
          "name": "F#2",
          "ticks": 3574,
          "time": 9.307291666666666,
          "velocity": 0.6062992125984252
        },
        {
          "duration": 0.02604166666666785,
          "durationTicks": 10,
          "midi": 42,
          "name": "F#2",
          "ticks": 3619,
          "time": 9.424479166666666,
          "velocity": 0.5275590551181102
        },
        {
          "duration": 0.026041666666666075,
          "durationTicks": 10,
          "midi": 46,
          "name": "A#2",
          "ticks": 3666,
          "time": 9.546875,
          "velocity": 0.5354330708661418
        },
        {
          "duration": 0.026041666666666075,
          "durationTicks": 10,
          "midi": 36,
          "name": "C2",
          "ticks": 3759,
          "time": 9.7890625,
          "velocity": 0.7165354330708661
        },
        {
          "duration": 0.0234375,
          "durationTicks": 9,
          "midi": 42,
          "name": "F#2",
          "ticks": 3759,
          "time": 9.7890625,
          "velocity": 0.6062992125984252
        },
        {
          "duration": 0.02604166666666785,
          "durationTicks": 10,
          "midi": 42,
          "name": "F#2",
          "ticks": 3805,
          "time": 9.908854166666666,
          "velocity": 0.5275590551181102
        },
        {
          "duration": 0.0234375,
          "durationTicks": 9,
          "midi": 46,
          "name": "A#2",
          "ticks": 3852,
          "time": 10.03125,
          "velocity": 0.5354330708661418
        },
        {
          "duration": 0.02864583333333215,
          "durationTicks": 11,
          "midi": 36,
          "name": "C2",
          "ticks": 3944,
          "time": 10.270833333333334,
          "velocity": 0.7165354330708661
        },
        {
          "duration": 0.026041666666666075,
          "durationTicks": 10,
          "midi": 38,
          "name": "D2",
          "ticks": 3945,
          "time": 10.2734375,
          "velocity": 0.7559055118110236
        },
        {
          "duration": 0.0234375,
          "durationTicks": 9,
          "midi": 42,
          "name": "F#2",
          "ticks": 3945,
          "time": 10.2734375,
          "velocity": 0.6062992125984252
        },
        {
          "duration": 0.02604166666666785,
          "durationTicks": 10,
          "midi": 42,
          "name": "F#2",
          "ticks": 3991,
          "time": 10.393229166666666,
          "velocity": 0.5275590551181102
        },
        {
          "duration": 0.026041666666666075,
          "durationTicks": 10,
          "midi": 46,
          "name": "A#2",
          "ticks": 4037,
          "time": 10.513020833333334,
          "velocity": 0.5354330708661418
        },
        {
          "duration": 0.02864583333333215,
          "durationTicks": 11,
          "midi": 36,
          "name": "C2",
          "ticks": 4130,
          "time": 10.755208333333334,
          "velocity": 0.7165354330708661
        },
        {
          "duration": 0.0234375,
          "durationTicks": 9,
          "midi": 42,
          "name": "F#2",
          "ticks": 4131,
          "time": 10.7578125,
          "velocity": 0.6299212598425197
        },
        {
          "duration": 0.0234375,
          "durationTicks": 9,
          "midi": 42,
          "name": "F#2",
          "ticks": 4177,
          "time": 10.877604166666666,
          "velocity": 0.5275590551181102
        },
        {
          "duration": 0.026041666666666075,
          "durationTicks": 10,
          "midi": 46,
          "name": "A#2",
          "ticks": 4223,
          "time": 10.997395833333334,
          "velocity": 0.5354330708661418
        },
        {
          "duration": 0.02864583333333215,
          "durationTicks": 11,
          "midi": 36,
          "name": "C2",
          "ticks": 4316,
          "time": 11.239583333333334,
          "velocity": 0.7165354330708661
        },
        {
          "duration": 0.026041666666666075,
          "durationTicks": 10,
          "midi": 38,
          "name": "D2",
          "ticks": 4316,
          "time": 11.239583333333334,
          "velocity": 0.7559055118110236
        },
        {
          "duration": 0.0234375,
          "durationTicks": 9,
          "midi": 42,
          "name": "F#2",
          "ticks": 4317,
          "time": 11.2421875,
          "velocity": 0.6062992125984252
        },
        {
          "duration": 0.0234375,
          "durationTicks": 9,
          "midi": 42,
          "name": "F#2",
          "ticks": 4363,
          "time": 11.361979166666666,
          "velocity": 0.5275590551181102
        },
        {
          "duration": 0.026041666666666075,
          "durationTicks": 10,
          "midi": 46,
          "name": "A#2",
          "ticks": 4409,
          "time": 11.481770833333334,
          "velocity": 0.5354330708661418
        },
        {
          "duration": 0.026041666666666075,
          "durationTicks": 10,
          "midi": 36,
          "name": "C2",
          "ticks": 4502,
          "time": 11.723958333333334,
          "velocity": 0.7165354330708661
        },
        {
          "duration": 0.026041666666666075,
          "durationTicks": 10,
          "midi": 42,
          "name": "F#2",
          "ticks": 4502,
          "time": 11.723958333333334,
          "velocity": 0.6062992125984252
        },
        {
          "duration": 0.026041666666666075,
          "durationTicks": 10,
          "midi": 42,
          "name": "F#2",
          "ticks": 4548,
          "time": 11.84375,
          "velocity": 0.5275590551181102
        },
        {
          "duration": 0.026041666666666075,
          "durationTicks": 10,
          "midi": 38,
          "name": "D2",
          "ticks": 4595,
          "time": 11.966145833333334,
          "velocity": 0.7559055118110236
        },
        {
          "duration": 0.0234375,
          "durationTicks": 9,
          "midi": 46,
          "name": "A#2",
          "ticks": 4595,
          "time": 11.966145833333334,
          "velocity": 0.5354330708661418
        },
        {
          "duration": 0.026041666666666075,
          "durationTicks": 10,
          "midi": 36,
          "name": "C2",
          "ticks": 4688,
          "time": 12.208333333333334,
          "velocity": 0.7165354330708661
        },
        {
          "duration": 0.026041666666666075,
          "durationTicks": 10,
          "midi": 38,
          "name": "D2",
          "ticks": 4688,
          "time": 12.208333333333334,
          "velocity": 0.7559055118110236
        },
        {
          "duration": 0.020833333333333925,
          "durationTicks": 8,
          "midi": 42,
          "name": "F#2",
          "ticks": 4689,
          "time": 12.2109375,
          "velocity": 0.6062992125984252
        },
        {
          "duration": 0.026041666666666075,
          "durationTicks": 10,
          "midi": 38,
          "name": "D2",
          "ticks": 4734,
          "time": 12.328125,
          "velocity": 0.7559055118110236
        },
        {
          "duration": 0.026041666666666075,
          "durationTicks": 10,
          "midi": 42,
          "name": "F#2",
          "ticks": 4734,
          "time": 12.328125,
          "velocity": 0.5275590551181102
        },
        {
          "duration": 0.026041666666666075,
          "durationTicks": 10,
          "midi": 45,
          "name": "A2",
          "ticks": 4781,
          "time": 12.450520833333334,
          "velocity": 0.7007874015748031
        },
        {
          "duration": 0.0234375,
          "durationTicks": 9,
          "midi": 46,
          "name": "A#2",
          "ticks": 4781,
          "time": 12.450520833333334,
          "velocity": 0.5354330708661418
        },
        {
          "duration": 0.026041666666666075,
          "durationTicks": 10,
          "midi": 41,
          "name": "F2",
          "ticks": 4827,
          "time": 12.5703125,
          "velocity": 0.6929133858267716
        },
        {
          "duration": 0.0234375,
          "durationTicks": 9,
          "midi": 36,
          "name": "C2",
          "ticks": 4874,
          "time": 12.692708333333334,
          "velocity": 0.7165354330708661
        },
        {
          "duration": 0.026041666666666075,
          "durationTicks": 10,
          "midi": 42,
          "name": "F#2",
          "ticks": 4874,
          "time": 12.692708333333334,
          "velocity": 0.6299212598425197
        },
        {
          "duration": 0.026041666666666075,
          "durationTicks": 10,
          "midi": 49,
          "name": "C#3",
          "ticks": 4875,
          "time": 12.6953125,
          "velocity": 0.6771653543307087
        },
        {
          "duration": 0.0234375,
          "durationTicks": 9,
          "midi": 54,
          "name": "F#3",
          "ticks": 4876,
          "time": 12.697916666666666,
          "velocity": 0.5905511811023622
        },
        {
          "duration": 0.026041666666666075,
          "durationTicks": 10,
          "midi": 42,
          "name": "F#2",
          "ticks": 4920,
          "time": 12.8125,
          "velocity": 0.5275590551181102
        },
        {
          "duration": 0.0234375,
          "durationTicks": 9,
          "midi": 46,
          "name": "A#2",
          "ticks": 4967,
          "time": 12.934895833333334,
          "velocity": 0.5354330708661418
        },
        {
          "duration": 0.026041666666666075,
          "durationTicks": 10,
          "midi": 54,
          "name": "F#3",
          "ticks": 4967,
          "time": 12.934895833333334,
          "velocity": 0.4881889763779528
        },
        {
          "duration": 0.026041666666666075,
          "durationTicks": 10,
          "midi": 54,
          "name": "F#3",
          "ticks": 5013,
          "time": 13.0546875,
          "velocity": 0.4881889763779528
        },
        {
          "duration": 0.028645833333333925,
          "durationTicks": 11,
          "midi": 36,
          "name": "C2",
          "ticks": 5059,
          "time": 13.174479166666666,
          "velocity": 0.7165354330708661
        },
        {
          "duration": 0.0234375,
          "durationTicks": 9,
          "midi": 38,
          "name": "D2",
          "ticks": 5060,
          "time": 13.177083333333334,
          "velocity": 0.7559055118110236
        },
        {
          "duration": 0.0234375,
          "durationTicks": 9,
          "midi": 42,
          "name": "F#2",
          "ticks": 5060,
          "time": 13.177083333333334,
          "velocity": 0.6062992125984252
        },
        {
          "duration": 0.026041666666666075,
          "durationTicks": 10,
          "midi": 54,
          "name": "F#3",
          "ticks": 5060,
          "time": 13.177083333333334,
          "velocity": 0.5905511811023622
        },
        {
          "duration": 0.0234375,
          "durationTicks": 9,
          "midi": 42,
          "name": "F#2",
          "ticks": 5106,
          "time": 13.296875,
          "velocity": 0.5275590551181102
        },
        {
          "duration": 0.02604166666666785,
          "durationTicks": 10,
          "midi": 46,
          "name": "A#2",
          "ticks": 5152,
          "time": 13.416666666666666,
          "velocity": 0.5354330708661418
        },
        {
          "duration": 0.026041666666666075,
          "durationTicks": 10,
          "midi": 54,
          "name": "F#3",
          "ticks": 5153,
          "time": 13.419270833333334,
          "velocity": 0.4881889763779528
        },
        {
          "duration": 0.0234375,
          "durationTicks": 9,
          "midi": 54,
          "name": "F#3",
          "ticks": 5199,
          "time": 13.5390625,
          "velocity": 0.4881889763779528
        },
        {
          "duration": 0.02604166666666785,
          "durationTicks": 10,
          "midi": 36,
          "name": "C2",
          "ticks": 5245,
          "time": 13.658854166666666,
          "velocity": 0.7165354330708661
        },
        {
          "duration": 0.02604166666666785,
          "durationTicks": 10,
          "midi": 42,
          "name": "F#2",
          "ticks": 5245,
          "time": 13.658854166666666,
          "velocity": 0.6062992125984252
        },
        {
          "duration": 0.026041666666666075,
          "durationTicks": 10,
          "midi": 54,
          "name": "F#3",
          "ticks": 5246,
          "time": 13.661458333333334,
          "velocity": 0.5905511811023622
        },
        {
          "duration": 0.0234375,
          "durationTicks": 9,
          "midi": 42,
          "name": "F#2",
          "ticks": 5292,
          "time": 13.78125,
          "velocity": 0.5275590551181102
        },
        {
          "duration": 0.02604166666666785,
          "durationTicks": 10,
          "midi": 46,
          "name": "A#2",
          "ticks": 5338,
          "time": 13.901041666666666,
          "velocity": 0.5354330708661418
        },
        {
          "duration": 0.0234375,
          "durationTicks": 9,
          "midi": 54,
          "name": "F#3",
          "ticks": 5339,
          "time": 13.903645833333334,
          "velocity": 0.4881889763779528
        },
        {
          "duration": 0.0234375,
          "durationTicks": 9,
          "midi": 54,
          "name": "F#3",
          "ticks": 5385,
          "time": 14.0234375,
          "velocity": 0.4881889763779528
        },
        {
          "duration": 0.02604166666666785,
          "durationTicks": 10,
          "midi": 36,
          "name": "C2",
          "ticks": 5431,
          "time": 14.143229166666666,
          "velocity": 0.7165354330708661
        },
        {
          "duration": 0.02604166666666785,
          "durationTicks": 10,
          "midi": 38,
          "name": "D2",
          "ticks": 5431,
          "time": 14.143229166666666,
          "velocity": 0.7559055118110236
        },
        {
          "duration": 0.0234375,
          "durationTicks": 9,
          "midi": 42,
          "name": "F#2",
          "ticks": 5432,
          "time": 14.145833333333334,
          "velocity": 0.6062992125984252
        },
        {
          "duration": 0.026041666666666075,
          "durationTicks": 10,
          "midi": 54,
          "name": "F#3",
          "ticks": 5433,
          "time": 14.1484375,
          "velocity": 0.5905511811023622
        },
        {
          "duration": 0.026041666666666075,
          "durationTicks": 10,
          "midi": 42,
          "name": "F#2",
          "ticks": 5477,
          "time": 14.263020833333334,
          "velocity": 0.5275590551181102
        },
        {
          "duration": 0.02604166666666785,
          "durationTicks": 10,
          "midi": 46,
          "name": "A#2",
          "ticks": 5524,
          "time": 14.385416666666666,
          "velocity": 0.5354330708661418
        },
        {
          "duration": 0.02604166666666785,
          "durationTicks": 10,
          "midi": 54,
          "name": "F#3",
          "ticks": 5524,
          "time": 14.385416666666666,
          "velocity": 0.4881889763779528
        },
        {
          "duration": 0.026041666666666075,
          "durationTicks": 10,
          "midi": 54,
          "name": "F#3",
          "ticks": 5570,
          "time": 14.505208333333334,
          "velocity": 0.4881889763779528
        },
        {
          "duration": 0.02604166666666785,
          "durationTicks": 10,
          "midi": 36,
          "name": "C2",
          "ticks": 5617,
          "time": 14.627604166666666,
          "velocity": 0.7165354330708661
        },
        {
          "duration": 0.0234375,
          "durationTicks": 9,
          "midi": 42,
          "name": "F#2",
          "ticks": 5617,
          "time": 14.627604166666666,
          "velocity": 0.6299212598425197
        },
        {
          "duration": 0.0234375,
          "durationTicks": 9,
          "midi": 54,
          "name": "F#3",
          "ticks": 5618,
          "time": 14.630208333333334,
          "velocity": 0.5905511811023622
        },
        {
          "duration": 0.026041666666666075,
          "durationTicks": 10,
          "midi": 42,
          "name": "F#2",
          "ticks": 5663,
          "time": 14.747395833333334,
          "velocity": 0.5275590551181102
        },
        {
          "duration": 0.0234375,
          "durationTicks": 9,
          "midi": 46,
          "name": "A#2",
          "ticks": 5710,
          "time": 14.869791666666666,
          "velocity": 0.5354330708661418
        },
        {
          "duration": 0.02604166666666785,
          "durationTicks": 10,
          "midi": 54,
          "name": "F#3",
          "ticks": 5710,
          "time": 14.869791666666666,
          "velocity": 0.4881889763779528
        },
        {
          "duration": 0.026041666666666075,
          "durationTicks": 10,
          "midi": 54,
          "name": "F#3",
          "ticks": 5756,
          "time": 14.989583333333334,
          "velocity": 0.4881889763779528
        },
        {
          "duration": 0.028645833333333925,
          "durationTicks": 11,
          "midi": 36,
          "name": "C2",
          "ticks": 5802,
          "time": 15.109375,
          "velocity": 0.7165354330708661
        },
        {
          "duration": 0.0234375,
          "durationTicks": 9,
          "midi": 38,
          "name": "D2",
          "ticks": 5803,
          "time": 15.111979166666666,
          "velocity": 0.7559055118110236
        },
        {
          "duration": 0.0234375,
          "durationTicks": 9,
          "midi": 42,
          "name": "F#2",
          "ticks": 5803,
          "time": 15.111979166666666,
          "velocity": 0.6062992125984252
        },
        {
          "duration": 0.0234375,
          "durationTicks": 9,
          "midi": 54,
          "name": "F#3",
          "ticks": 5804,
          "time": 15.114583333333334,
          "velocity": 0.5905511811023622
        },
        {
          "duration": 0.026041666666666075,
          "durationTicks": 10,
          "midi": 42,
          "name": "F#2",
          "ticks": 5849,
          "time": 15.231770833333334,
          "velocity": 0.5275590551181102
        },
        {
          "duration": 0.026041666666666075,
          "durationTicks": 10,
          "midi": 46,
          "name": "A#2",
          "ticks": 5895,
          "time": 15.3515625,
          "velocity": 0.5354330708661418
        },
        {
          "duration": 0.0234375,
          "durationTicks": 9,
          "midi": 54,
          "name": "F#3",
          "ticks": 5896,
          "time": 15.354166666666666,
          "velocity": 0.4881889763779528
        },
        {
          "duration": 0.026041666666666075,
          "durationTicks": 10,
          "midi": 54,
          "name": "F#3",
          "ticks": 5942,
          "time": 15.473958333333334,
          "velocity": 0.4881889763779528
        },
        {
          "duration": 0.026041666666666075,
          "durationTicks": 10,
          "midi": 36,
          "name": "C2",
          "ticks": 5988,
          "time": 15.59375,
          "velocity": 0.7165354330708661
        },
        {
          "duration": 0.0234375,
          "durationTicks": 9,
          "midi": 42,
          "name": "F#2",
          "ticks": 5989,
          "time": 15.596354166666666,
          "velocity": 0.6062992125984252
        },
        {
          "duration": 0.02604166666666785,
          "durationTicks": 10,
          "midi": 54,
          "name": "F#3",
          "ticks": 5989,
          "time": 15.596354166666666,
          "velocity": 0.5905511811023622
        },
        {
          "duration": 0.0234375,
          "durationTicks": 9,
          "midi": 42,
          "name": "F#2",
          "ticks": 6035,
          "time": 15.716145833333334,
          "velocity": 0.5275590551181102
        },
        {
          "duration": 0.026041666666666075,
          "durationTicks": 10,
          "midi": 46,
          "name": "A#2",
          "ticks": 6081,
          "time": 15.8359375,
          "velocity": 0.5354330708661418
        },
        {
          "duration": 0.0234375,
          "durationTicks": 9,
          "midi": 54,
          "name": "F#3",
          "ticks": 6082,
          "time": 15.838541666666666,
          "velocity": 0.4881889763779528
        },
        {
          "duration": 0.02604166666666785,
          "durationTicks": 10,
          "midi": 54,
          "name": "F#3",
          "ticks": 6127,
          "time": 15.955729166666666,
          "velocity": 0.4881889763779528
        },
        {
          "duration": 0.02604166666666785,
          "durationTicks": 10,
          "midi": 36,
          "name": "C2",
          "ticks": 6174,
          "time": 16.078125,
          "velocity": 0.7165354330708661
        },
        {
          "duration": 0.0234375,
          "durationTicks": 9,
          "midi": 38,
          "name": "D2",
          "ticks": 6175,
          "time": 16.080729166666668,
          "velocity": 0.7559055118110236
        },
        {
          "duration": 0.0234375,
          "durationTicks": 9,
          "midi": 42,
          "name": "F#2",
          "ticks": 6175,
          "time": 16.080729166666668,
          "velocity": 0.6062992125984252
        },
        {
          "duration": 0.026041666666664298,
          "durationTicks": 10,
          "midi": 54,
          "name": "F#3",
          "ticks": 6175,
          "time": 16.080729166666668,
          "velocity": 0.5905511811023622
        },
        {
          "duration": 0.026041666666664298,
          "durationTicks": 10,
          "midi": 42,
          "name": "F#2",
          "ticks": 6220,
          "time": 16.197916666666668,
          "velocity": 0.5275590551181102
        },
        {
          "duration": 0.02604166666666785,
          "durationTicks": 10,
          "midi": 46,
          "name": "A#2",
          "ticks": 6267,
          "time": 16.3203125,
          "velocity": 0.5354330708661418
        },
        {
          "duration": 0.02604166666666785,
          "durationTicks": 10,
          "midi": 54,
          "name": "F#3",
          "ticks": 6267,
          "time": 16.3203125,
          "velocity": 0.4881889763779528
        },
        {
          "duration": 0.026041666666664298,
          "durationTicks": 10,
          "midi": 54,
          "name": "F#3",
          "ticks": 6313,
          "time": 16.440104166666668,
          "velocity": 0.4881889763779528
        },
        {
          "duration": 0.02604166666666785,
          "durationTicks": 10,
          "midi": 36,
          "name": "C2",
          "ticks": 6360,
          "time": 16.5625,
          "velocity": 0.7165354330708661
        },
        {
          "duration": 0.0234375,
          "durationTicks": 9,
          "midi": 42,
          "name": "F#2",
          "ticks": 6360,
          "time": 16.5625,
          "velocity": 0.6299212598425197
        },
        {
          "duration": 0.0234375,
          "durationTicks": 9,
          "midi": 54,
          "name": "F#3",
          "ticks": 6362,
          "time": 16.567708333333332,
          "velocity": 0.5905511811023622
        },
        {
          "duration": 0.026041666666664298,
          "durationTicks": 10,
          "midi": 42,
          "name": "F#2",
          "ticks": 6406,
          "time": 16.682291666666668,
          "velocity": 0.5275590551181102
        },
        {
          "duration": 0.0234375,
          "durationTicks": 9,
          "midi": 46,
          "name": "A#2",
          "ticks": 6453,
          "time": 16.8046875,
          "velocity": 0.5354330708661418
        },
        {
          "duration": 0.0234375,
          "durationTicks": 9,
          "midi": 54,
          "name": "F#3",
          "ticks": 6454,
          "time": 16.807291666666668,
          "velocity": 0.4881889763779528
        },
        {
          "duration": 0.026041666666664298,
          "durationTicks": 10,
          "midi": 54,
          "name": "F#3",
          "ticks": 6499,
          "time": 16.924479166666668,
          "velocity": 0.4881889763779528
        },
        {
          "duration": 0.02604166666666785,
          "durationTicks": 10,
          "midi": 36,
          "name": "C2",
          "ticks": 6546,
          "time": 17.046875,
          "velocity": 0.7165354330708661
        },
        {
          "duration": 0.02604166666666785,
          "durationTicks": 10,
          "midi": 38,
          "name": "D2",
          "ticks": 6546,
          "time": 17.046875,
          "velocity": 0.7559055118110236
        },
        {
          "duration": 0.0234375,
          "durationTicks": 9,
          "midi": 42,
          "name": "F#2",
          "ticks": 6546,
          "time": 17.046875,
          "velocity": 0.6062992125984252
        },
        {
          "duration": 0.0234375,
          "durationTicks": 9,
          "midi": 54,
          "name": "F#3",
          "ticks": 6547,
          "time": 17.049479166666668,
          "velocity": 0.5905511811023622
        },
        {
          "duration": 0.026041666666664298,
          "durationTicks": 10,
          "midi": 42,
          "name": "F#2",
          "ticks": 6592,
          "time": 17.166666666666668,
          "velocity": 0.5275590551181102
        },
        {
          "duration": 0.02604166666666785,
          "durationTicks": 10,
          "midi": 46,
          "name": "A#2",
          "ticks": 6638,
          "time": 17.286458333333332,
          "velocity": 0.5354330708661418
        },
        {
          "duration": 0.0234375,
          "durationTicks": 9,
          "midi": 54,
          "name": "F#3",
          "ticks": 6640,
          "time": 17.291666666666668,
          "velocity": 0.4881889763779528
        },
        {
          "duration": 0.026041666666664298,
          "durationTicks": 10,
          "midi": 54,
          "name": "F#3",
          "ticks": 6685,
          "time": 17.408854166666668,
          "velocity": 0.4881889763779528
        },
        {
          "duration": 0.028645833333335702,
          "durationTicks": 11,
          "midi": 36,
          "name": "C2",
          "ticks": 6731,
          "time": 17.528645833333332,
          "velocity": 0.7165354330708661
        },
        {
          "duration": 0.0234375,
          "durationTicks": 9,
          "midi": 42,
          "name": "F#2",
          "ticks": 6732,
          "time": 17.53125,
          "velocity": 0.6062992125984252
        },
        {
          "duration": 0.0234375,
          "durationTicks": 9,
          "midi": 54,
          "name": "F#3",
          "ticks": 6733,
          "time": 17.533854166666668,
          "velocity": 0.5905511811023622
        },
        {
          "duration": 0.0234375,
          "durationTicks": 9,
          "midi": 42,
          "name": "F#2",
          "ticks": 6778,
          "time": 17.651041666666668,
          "velocity": 0.5275590551181102
        },
        {
          "duration": 0.02604166666666785,
          "durationTicks": 10,
          "midi": 46,
          "name": "A#2",
          "ticks": 6824,
          "time": 17.770833333333332,
          "velocity": 0.5354330708661418
        },
        {
          "duration": 0.02604166666666785,
          "durationTicks": 10,
          "midi": 54,
          "name": "F#3",
          "ticks": 6825,
          "time": 17.7734375,
          "velocity": 0.4881889763779528
        },
        {
          "duration": 0.0234375,
          "durationTicks": 9,
          "midi": 54,
          "name": "F#3",
          "ticks": 6871,
          "time": 17.893229166666668,
          "velocity": 0.4881889763779528
        },
        {
          "duration": 0.028645833333335702,
          "durationTicks": 11,
          "midi": 36,
          "name": "C2",
          "ticks": 6917,
          "time": 18.013020833333332,
          "velocity": 0.7165354330708661
        },
        {
          "duration": 0.0234375,
          "durationTicks": 9,
          "midi": 38,
          "name": "D2",
          "ticks": 6918,
          "time": 18.015625,
          "velocity": 0.7559055118110236
        },
        {
          "duration": 0.0234375,
          "durationTicks": 9,
          "midi": 42,
          "name": "F#2",
          "ticks": 6918,
          "time": 18.015625,
          "velocity": 0.6062992125984252
        },
        {
          "duration": 0.026041666666664298,
          "durationTicks": 10,
          "midi": 54,
          "name": "F#3",
          "ticks": 6919,
          "time": 18.018229166666668,
          "velocity": 0.5905511811023622
        },
        {
          "duration": 0.0234375,
          "durationTicks": 9,
          "midi": 42,
          "name": "F#2",
          "ticks": 6964,
          "time": 18.135416666666668,
          "velocity": 0.5275590551181102
        },
        {
          "duration": 0.02604166666666785,
          "durationTicks": 10,
          "midi": 46,
          "name": "A#2",
          "ticks": 7010,
          "time": 18.255208333333332,
          "velocity": 0.5354330708661418
        },
        {
          "duration": 0.02604166666666785,
          "durationTicks": 10,
          "midi": 54,
          "name": "F#3",
          "ticks": 7010,
          "time": 18.255208333333332,
          "velocity": 0.4881889763779528
        },
        {
          "duration": 0.02604166666666785,
          "durationTicks": 10,
          "midi": 54,
          "name": "F#3",
          "ticks": 7056,
          "time": 18.375,
          "velocity": 0.4881889763779528
        },
        {
          "duration": 0.02604166666666785,
          "durationTicks": 10,
          "midi": 36,
          "name": "C2",
          "ticks": 7103,
          "time": 18.497395833333332,
          "velocity": 0.7165354330708661
        },
        {
          "duration": 0.02604166666666785,
          "durationTicks": 10,
          "midi": 42,
          "name": "F#2",
          "ticks": 7103,
          "time": 18.497395833333332,
          "velocity": 0.6299212598425197
        },
        {
          "duration": 0.02604166666666785,
          "durationTicks": 10,
          "midi": 54,
          "name": "F#3",
          "ticks": 7104,
          "time": 18.5,
          "velocity": 0.5905511811023622
        },
        {
          "duration": 0.02604166666666785,
          "durationTicks": 10,
          "midi": 42,
          "name": "F#2",
          "ticks": 7149,
          "time": 18.6171875,
          "velocity": 0.5275590551181102
        },
        {
          "duration": 0.02604166666666785,
          "durationTicks": 10,
          "midi": 46,
          "name": "A#2",
          "ticks": 7196,
          "time": 18.739583333333332,
          "velocity": 0.5354330708661418
        },
        {
          "duration": 0.02604166666666785,
          "durationTicks": 10,
          "midi": 54,
          "name": "F#3",
          "ticks": 7196,
          "time": 18.739583333333332,
          "velocity": 0.4881889763779528
        },
        {
          "duration": 0.02604166666666785,
          "durationTicks": 10,
          "midi": 54,
          "name": "F#3",
          "ticks": 7242,
          "time": 18.859375,
          "velocity": 0.4881889763779528
        },
        {
          "duration": 0.02604166666666785,
          "durationTicks": 10,
          "midi": 36,
          "name": "C2",
          "ticks": 7289,
          "time": 18.981770833333332,
          "velocity": 0.7165354330708661
        },
        {
          "duration": 0.02604166666666785,
          "durationTicks": 10,
          "midi": 38,
          "name": "D2",
          "ticks": 7289,
          "time": 18.981770833333332,
          "velocity": 0.7559055118110236
        },
        {
          "duration": 0.02083333333333215,
          "durationTicks": 8,
          "midi": 42,
          "name": "F#2",
          "ticks": 7290,
          "time": 18.984375,
          "velocity": 0.6062992125984252
        },
        {
          "duration": 0.0234375,
          "durationTicks": 9,
          "midi": 54,
          "name": "F#3",
          "ticks": 7290,
          "time": 18.984375,
          "velocity": 0.5905511811023622
        },
        {
          "duration": 0.02604166666666785,
          "durationTicks": 10,
          "midi": 42,
          "name": "F#2",
          "ticks": 7335,
          "time": 19.1015625,
          "velocity": 0.5275590551181102
        },
        {
          "duration": 0.0234375,
          "durationTicks": 9,
          "midi": 46,
          "name": "A#2",
          "ticks": 7382,
          "time": 19.223958333333332,
          "velocity": 0.5354330708661418
        },
        {
          "duration": 0.02604166666666785,
          "durationTicks": 10,
          "midi": 54,
          "name": "F#3",
          "ticks": 7382,
          "time": 19.223958333333332,
          "velocity": 0.4881889763779528
        },
        {
          "duration": 0.02604166666666785,
          "durationTicks": 10,
          "midi": 54,
          "name": "F#3",
          "ticks": 7428,
          "time": 19.34375,
          "velocity": 0.4881889763779528
        },
        {
          "duration": 0.02604166666666785,
          "durationTicks": 10,
          "midi": 36,
          "name": "C2",
          "ticks": 7475,
          "time": 19.466145833333332,
          "velocity": 0.7165354330708661
        },
        {
          "duration": 0.0234375,
          "durationTicks": 9,
          "midi": 42,
          "name": "F#2",
          "ticks": 7475,
          "time": 19.466145833333332,
          "velocity": 0.6062992125984252
        },
        {
          "duration": 0.02604166666666785,
          "durationTicks": 10,
          "midi": 54,
          "name": "F#3",
          "ticks": 7475,
          "time": 19.466145833333332,
          "velocity": 0.5905511811023622
        },
        {
          "duration": 0.02604166666666785,
          "durationTicks": 10,
          "midi": 42,
          "name": "F#2",
          "ticks": 7521,
          "time": 19.5859375,
          "velocity": 0.5275590551181102
        },
        {
          "duration": 0.0234375,
          "durationTicks": 9,
          "midi": 46,
          "name": "A#2",
          "ticks": 7568,
          "time": 19.708333333333332,
          "velocity": 0.5354330708661418
        },
        {
          "duration": 0.0234375,
          "durationTicks": 9,
          "midi": 54,
          "name": "F#3",
          "ticks": 7569,
          "time": 19.7109375,
          "velocity": 0.4881889763779528
        },
        {
          "duration": 0.02604166666666785,
          "durationTicks": 10,
          "midi": 54,
          "name": "F#3",
          "ticks": 7614,
          "time": 19.828125,
          "velocity": 0.4881889763779528
        },
        {
          "duration": 0.026041666666664298,
          "durationTicks": 10,
          "midi": 36,
          "name": "C2",
          "ticks": 7660,
          "time": 19.947916666666668,
          "velocity": 0.7165354330708661
        },
        {
          "duration": 0.0234375,
          "durationTicks": 9,
          "midi": 38,
          "name": "D2",
          "ticks": 7661,
          "time": 19.950520833333332,
          "velocity": 0.7559055118110236
        },
        {
          "duration": 0.02604166666666785,
          "durationTicks": 10,
          "midi": 42,
          "name": "F#2",
          "ticks": 7661,
          "time": 19.950520833333332,
          "velocity": 0.6062992125984252
        },
        {
          "duration": 0.0234375,
          "durationTicks": 9,
          "midi": 54,
          "name": "F#3",
          "ticks": 7662,
          "time": 19.953125,
          "velocity": 0.5905511811023622
        },
        {
          "duration": 0.02604166666666785,
          "durationTicks": 10,
          "midi": 42,
          "name": "F#2",
          "ticks": 7707,
          "time": 20.0703125,
          "velocity": 0.5275590551181102
        },
        {
          "duration": 0.026041666666664298,
          "durationTicks": 10,
          "midi": 46,
          "name": "A#2",
          "ticks": 7753,
          "time": 20.190104166666668,
          "velocity": 0.5354330708661418
        },
        {
          "duration": 0.02604166666666785,
          "durationTicks": 10,
          "midi": 54,
          "name": "F#3",
          "ticks": 7754,
          "time": 20.192708333333332,
          "velocity": 0.4881889763779528
        },
        {
          "duration": 0.0234375,
          "durationTicks": 9,
          "midi": 54,
          "name": "F#3",
          "ticks": 7800,
          "time": 20.3125,
          "velocity": 0.4881889763779528
        },
        {
          "duration": 0.026041666666664298,
          "durationTicks": 10,
          "midi": 36,
          "name": "C2",
          "ticks": 7846,
          "time": 20.432291666666668,
          "velocity": 0.7165354330708661
        },
        {
          "duration": 0.026041666666664298,
          "durationTicks": 10,
          "midi": 42,
          "name": "F#2",
          "ticks": 7846,
          "time": 20.432291666666668,
          "velocity": 0.6299212598425197
        },
        {
          "duration": 0.02604166666666785,
          "durationTicks": 10,
          "midi": 54,
          "name": "F#3",
          "ticks": 7848,
          "time": 20.4375,
          "velocity": 0.5905511811023622
        },
        {
          "duration": 0.0234375,
          "durationTicks": 9,
          "midi": 42,
          "name": "F#2",
          "ticks": 7893,
          "time": 20.5546875,
          "velocity": 0.5275590551181102
        },
        {
          "duration": 0.026041666666664298,
          "durationTicks": 10,
          "midi": 46,
          "name": "A#2",
          "ticks": 7939,
          "time": 20.674479166666668,
          "velocity": 0.5354330708661418
        },
        {
          "duration": 0.026041666666664298,
          "durationTicks": 10,
          "midi": 54,
          "name": "F#3",
          "ticks": 7939,
          "time": 20.674479166666668,
          "velocity": 0.4881889763779528
        },
        {
          "duration": 0.0234375,
          "durationTicks": 9,
          "midi": 54,
          "name": "F#3",
          "ticks": 7986,
          "time": 20.796875,
          "velocity": 0.4881889763779528
        },
        {
          "duration": 0.026041666666664298,
          "durationTicks": 10,
          "midi": 36,
          "name": "C2",
          "ticks": 8032,
          "time": 20.916666666666668,
          "velocity": 0.7165354330708661
        },
        {
          "duration": 0.026041666666664298,
          "durationTicks": 10,
          "midi": 38,
          "name": "D2",
          "ticks": 8032,
          "time": 20.916666666666668,
          "velocity": 0.7559055118110236
        },
        {
          "duration": 0.0234375,
          "durationTicks": 9,
          "midi": 42,
          "name": "F#2",
          "ticks": 8033,
          "time": 20.919270833333332,
          "velocity": 0.6062992125984252
        },
        {
          "duration": 0.02604166666666785,
          "durationTicks": 10,
          "midi": 54,
          "name": "F#3",
          "ticks": 8033,
          "time": 20.919270833333332,
          "velocity": 0.5905511811023622
        },
        {
          "duration": 0.02604166666666785,
          "durationTicks": 10,
          "midi": 42,
          "name": "F#2",
          "ticks": 8078,
          "time": 21.036458333333332,
          "velocity": 0.5275590551181102
        },
        {
          "duration": 0.026041666666664298,
          "durationTicks": 10,
          "midi": 46,
          "name": "A#2",
          "ticks": 8125,
          "time": 21.158854166666668,
          "velocity": 0.5354330708661418
        },
        {
          "duration": 0.0234375,
          "durationTicks": 9,
          "midi": 54,
          "name": "F#3",
          "ticks": 8126,
          "time": 21.161458333333332,
          "velocity": 0.4881889763779528
        },
        {
          "duration": 0.02604166666666785,
          "durationTicks": 10,
          "midi": 54,
          "name": "F#3",
          "ticks": 8171,
          "time": 21.278645833333332,
          "velocity": 0.4881889763779528
        },
        {
          "duration": 0.026041666666664298,
          "durationTicks": 10,
          "midi": 36,
          "name": "C2",
          "ticks": 8218,
          "time": 21.401041666666668,
          "velocity": 0.7165354330708661
        },
        {
          "duration": 0.026041666666664298,
          "durationTicks": 10,
          "midi": 42,
          "name": "F#2",
          "ticks": 8218,
          "time": 21.401041666666668,
          "velocity": 0.6062992125984252
        },
        {
          "duration": 0.0234375,
          "durationTicks": 9,
          "midi": 54,
          "name": "F#3",
          "ticks": 8219,
          "time": 21.403645833333332,
          "velocity": 0.5905511811023622
        },
        {
          "duration": 0.02604166666666785,
          "durationTicks": 10,
          "midi": 42,
          "name": "F#2",
          "ticks": 8264,
          "time": 21.520833333333332,
          "velocity": 0.5275590551181102
        },
        {
          "duration": 0.0234375,
          "durationTicks": 9,
          "midi": 46,
          "name": "A#2",
          "ticks": 8311,
          "time": 21.643229166666668,
          "velocity": 0.5354330708661418
        },
        {
          "duration": 0.0234375,
          "durationTicks": 9,
          "midi": 54,
          "name": "F#3",
          "ticks": 8312,
          "time": 21.645833333333332,
          "velocity": 0.4881889763779528
        },
        {
          "duration": 0.02604166666666785,
          "durationTicks": 10,
          "midi": 54,
          "name": "F#3",
          "ticks": 8357,
          "time": 21.763020833333332,
          "velocity": 0.4881889763779528
        },
        {
          "duration": 0.02864583333333215,
          "durationTicks": 11,
          "midi": 36,
          "name": "C2",
          "ticks": 8403,
          "time": 21.8828125,
          "velocity": 0.7165354330708661
        },
        {
          "duration": 0.026041666666664298,
          "durationTicks": 10,
          "midi": 38,
          "name": "D2",
          "ticks": 8404,
          "time": 21.885416666666668,
          "velocity": 0.7559055118110236
        },
        {
          "duration": 0.0234375,
          "durationTicks": 9,
          "midi": 42,
          "name": "F#2",
          "ticks": 8404,
          "time": 21.885416666666668,
          "velocity": 0.6062992125984252
        },
        {
          "duration": 0.0234375,
          "durationTicks": 9,
          "midi": 54,
          "name": "F#3",
          "ticks": 8405,
          "time": 21.888020833333332,
          "velocity": 0.5905511811023622
        },
        {
          "duration": 0.02604166666666785,
          "durationTicks": 10,
          "midi": 42,
          "name": "F#2",
          "ticks": 8450,
          "time": 22.005208333333332,
          "velocity": 0.5275590551181102
        },
        {
          "duration": 0.02604166666666785,
          "durationTicks": 10,
          "midi": 46,
          "name": "A#2",
          "ticks": 8496,
          "time": 22.125,
          "velocity": 0.5354330708661418
        },
        {
          "duration": 0.0234375,
          "durationTicks": 9,
          "midi": 54,
          "name": "F#3",
          "ticks": 8497,
          "time": 22.127604166666668,
          "velocity": 0.4881889763779528
        },
        {
          "duration": 0.02604166666666785,
          "durationTicks": 10,
          "midi": 54,
          "name": "F#3",
          "ticks": 8543,
          "time": 22.247395833333332,
          "velocity": 0.4881889763779528
        },
        {
          "duration": 0.02604166666666785,
          "durationTicks": 10,
          "midi": 36,
          "name": "C2",
          "ticks": 8589,
          "time": 22.3671875,
          "velocity": 0.7165354330708661
        },
        {
          "duration": 0.0234375,
          "durationTicks": 9,
          "midi": 42,
          "name": "F#2",
          "ticks": 8590,
          "time": 22.369791666666668,
          "velocity": 0.6299212598425197
        },
        {
          "duration": 0.026041666666664298,
          "durationTicks": 10,
          "midi": 54,
          "name": "F#3",
          "ticks": 8590,
          "time": 22.369791666666668,
          "velocity": 0.5905511811023622
        },
        {
          "duration": 0.0234375,
          "durationTicks": 9,
          "midi": 42,
          "name": "F#2",
          "ticks": 8636,
          "time": 22.489583333333332,
          "velocity": 0.5275590551181102
        },
        {
          "duration": 0.02604166666666785,
          "durationTicks": 10,
          "midi": 46,
          "name": "A#2",
          "ticks": 8682,
          "time": 22.609375,
          "velocity": 0.5354330708661418
        },
        {
          "duration": 0.0234375,
          "durationTicks": 9,
          "midi": 54,
          "name": "F#3",
          "ticks": 8683,
          "time": 22.611979166666668,
          "velocity": 0.4881889763779528
        },
        {
          "duration": 0.0234375,
          "durationTicks": 9,
          "midi": 54,
          "name": "F#3",
          "ticks": 8729,
          "time": 22.731770833333332,
          "velocity": 0.4881889763779528
        },
        {
          "duration": 0.02604166666666785,
          "durationTicks": 10,
          "midi": 36,
          "name": "C2",
          "ticks": 8775,
          "time": 22.8515625,
          "velocity": 0.7165354330708661
        },
        {
          "duration": 0.0234375,
          "durationTicks": 9,
          "midi": 38,
          "name": "D2",
          "ticks": 8776,
          "time": 22.854166666666668,
          "velocity": 0.7559055118110236
        },
        {
          "duration": 0.0234375,
          "durationTicks": 9,
          "midi": 42,
          "name": "F#2",
          "ticks": 8776,
          "time": 22.854166666666668,
          "velocity": 0.6062992125984252
        },
        {
          "duration": 0.026041666666664298,
          "durationTicks": 10,
          "midi": 54,
          "name": "F#3",
          "ticks": 8776,
          "time": 22.854166666666668,
          "velocity": 0.5905511811023622
        },
        {
          "duration": 0.026041666666664298,
          "durationTicks": 10,
          "midi": 42,
          "name": "F#2",
          "ticks": 8821,
          "time": 22.971354166666668,
          "velocity": 0.5275590551181102
        },
        {
          "duration": 0.02604166666666785,
          "durationTicks": 10,
          "midi": 46,
          "name": "A#2",
          "ticks": 8868,
          "time": 23.09375,
          "velocity": 0.5354330708661418
        },
        {
          "duration": 0.02604166666666785,
          "durationTicks": 10,
          "midi": 54,
          "name": "F#3",
          "ticks": 8868,
          "time": 23.09375,
          "velocity": 0.4881889763779528
        },
        {
          "duration": 0.026041666666664298,
          "durationTicks": 10,
          "midi": 54,
          "name": "F#3",
          "ticks": 8914,
          "time": 23.213541666666668,
          "velocity": 0.4881889763779528
        },
        {
          "duration": 0.02604166666666785,
          "durationTicks": 10,
          "midi": 36,
          "name": "C2",
          "ticks": 8961,
          "time": 23.3359375,
          "velocity": 0.7165354330708661
        },
        {
          "duration": 0.02604166666666785,
          "durationTicks": 10,
          "midi": 42,
          "name": "F#2",
          "ticks": 8961,
          "time": 23.3359375,
          "velocity": 0.6062992125984252
        },
        {
          "duration": 0.026041666666664298,
          "durationTicks": 10,
          "midi": 54,
          "name": "F#3",
          "ticks": 8962,
          "time": 23.338541666666668,
          "velocity": 0.5905511811023622
        },
        {
          "duration": 0.026041666666664298,
          "durationTicks": 10,
          "midi": 42,
          "name": "F#2",
          "ticks": 9007,
          "time": 23.455729166666668,
          "velocity": 0.5275590551181102
        },
        {
          "duration": 0.0234375,
          "durationTicks": 9,
          "midi": 46,
          "name": "A#2",
          "ticks": 9054,
          "time": 23.578125,
          "velocity": 0.5354330708661418
        },
        {
          "duration": 0.02604166666666785,
          "durationTicks": 10,
          "midi": 54,
          "name": "F#3",
          "ticks": 9054,
          "time": 23.578125,
          "velocity": 0.4881889763779528
        },
        {
          "duration": 0.026041666666664298,
          "durationTicks": 10,
          "midi": 54,
          "name": "F#3",
          "ticks": 9100,
          "time": 23.697916666666668,
          "velocity": 0.4881889763779528
        },
        {
          "duration": 0.02604166666666785,
          "durationTicks": 10,
          "midi": 36,
          "name": "C2",
          "ticks": 9147,
          "time": 23.8203125,
          "velocity": 0.7165354330708661
        },
        {
          "duration": 0.0234375,
          "durationTicks": 9,
          "midi": 38,
          "name": "D2",
          "ticks": 9147,
          "time": 23.8203125,
          "velocity": 0.7559055118110236
        },
        {
          "duration": 0.0234375,
          "durationTicks": 9,
          "midi": 42,
          "name": "F#2",
          "ticks": 9148,
          "time": 23.822916666666668,
          "velocity": 0.6062992125984252
        },
        {
          "duration": 0.026041666666664298,
          "durationTicks": 10,
          "midi": 54,
          "name": "F#3",
          "ticks": 9148,
          "time": 23.822916666666668,
          "velocity": 0.5905511811023622
        },
        {
          "duration": 0.026041666666664298,
          "durationTicks": 10,
          "midi": 42,
          "name": "F#2",
          "ticks": 9193,
          "time": 23.940104166666668,
          "velocity": 0.5275590551181102
        },
        {
          "duration": 0.02604166666666785,
          "durationTicks": 10,
          "midi": 46,
          "name": "A#2",
          "ticks": 9239,
          "time": 24.059895833333332,
          "velocity": 0.5354330708661418
        },
        {
          "duration": 0.02604166666666785,
          "durationTicks": 10,
          "midi": 54,
          "name": "F#3",
          "ticks": 9240,
          "time": 24.0625,
          "velocity": 0.4881889763779528
        },
        {
          "duration": 0.026041666666664298,
          "durationTicks": 10,
          "midi": 54,
          "name": "F#3",
          "ticks": 9286,
          "time": 24.182291666666668,
          "velocity": 0.4881889763779528
        },
        {
          "duration": 0.028645833333335702,
          "durationTicks": 11,
          "midi": 36,
          "name": "C2",
          "ticks": 9332,
          "time": 24.302083333333332,
          "velocity": 0.7165354330708661
        },
        {
          "duration": 0.02604166666666785,
          "durationTicks": 10,
          "midi": 38,
          "name": "D2",
          "ticks": 9333,
          "time": 24.3046875,
          "velocity": 0.7559055118110236
        },
        {
          "duration": 0.0234375,
          "durationTicks": 9,
          "midi": 42,
          "name": "F#2",
          "ticks": 9333,
          "time": 24.3046875,
          "velocity": 0.6299212598425197
        },
        {
          "duration": 0.02604166666666785,
          "durationTicks": 10,
          "midi": 49,
          "name": "C#3",
          "ticks": 9333,
          "time": 24.3046875,
          "velocity": 0.6771653543307087
        },
        {
          "duration": 0.0234375,
          "durationTicks": 9,
          "midi": 54,
          "name": "F#3",
          "ticks": 9335,
          "time": 24.309895833333332,
          "velocity": 0.5905511811023622
        },
        {
          "duration": 0.02604166666666785,
          "durationTicks": 10,
          "midi": 54,
          "name": "F#3",
          "ticks": 9425,
          "time": 24.544270833333332,
          "velocity": 0.4881889763779528
        },
        {
          "duration": 0.0234375,
          "durationTicks": 9,
          "midi": 54,
          "name": "F#3",
          "ticks": 9472,
          "time": 24.666666666666668,
          "velocity": 0.4881889763779528
        },
        {
          "duration": 0.028645833333335702,
          "durationTicks": 11,
          "midi": 36,
          "name": "C2",
          "ticks": 9518,
          "time": 24.786458333333332,
          "velocity": 0.7165354330708661
        },
        {
          "duration": 0.0234375,
          "durationTicks": 9,
          "midi": 42,
          "name": "F#2",
          "ticks": 9519,
          "time": 24.7890625,
          "velocity": 0.6062992125984252
        },
        {
          "duration": 0.0234375,
          "durationTicks": 9,
          "midi": 54,
          "name": "F#3",
          "ticks": 9519,
          "time": 24.7890625,
          "velocity": 0.5905511811023622
        },
        {
          "duration": 0.02604166666666785,
          "durationTicks": 10,
          "midi": 38,
          "name": "D2",
          "ticks": 9611,
          "time": 25.028645833333332,
          "velocity": 0.7559055118110236
        },
        {
          "duration": 0.02604166666666785,
          "durationTicks": 10,
          "midi": 57,
          "name": "A3",
          "ticks": 9611,
          "time": 25.028645833333332,
          "velocity": 0.6771653543307087
        },
        {
          "duration": 0.026041666666664298,
          "durationTicks": 10,
          "midi": 54,
          "name": "F#3",
          "ticks": 9613,
          "time": 25.033854166666668,
          "velocity": 0.4881889763779528
        },
        {
          "duration": 0.0234375,
          "durationTicks": 9,
          "midi": 54,
          "name": "F#3",
          "ticks": 9658,
          "time": 25.151041666666668,
          "velocity": 0.4881889763779528
        },
        {
          "duration": 0.028645833333335702,
          "durationTicks": 11,
          "midi": 36,
          "name": "C2",
          "ticks": 9704,
          "time": 25.270833333333332,
          "velocity": 0.7165354330708661
        },
        {
          "duration": 0.02604166666666785,
          "durationTicks": 10,
          "midi": 42,
          "name": "F#2",
          "ticks": 9704,
          "time": 25.270833333333332,
          "velocity": 0.6062992125984252
        },
        {
          "duration": 0.0234375,
          "durationTicks": 9,
          "midi": 54,
          "name": "F#3",
          "ticks": 9705,
          "time": 25.2734375,
          "velocity": 0.5905511811023622
        },
        {
          "duration": 0.02604166666666785,
          "durationTicks": 10,
          "midi": 54,
          "name": "F#3",
          "ticks": 9797,
          "time": 25.513020833333332,
          "velocity": 0.4881889763779528
        },
        {
          "duration": 0.02604166666666785,
          "durationTicks": 10,
          "midi": 54,
          "name": "F#3",
          "ticks": 9843,
          "time": 25.6328125,
          "velocity": 0.4881889763779528
        },
        {
          "duration": 0.02604166666666785,
          "durationTicks": 10,
          "midi": 36,
          "name": "C2",
          "ticks": 9890,
          "time": 25.755208333333332,
          "velocity": 0.7165354330708661
        },
        {
          "duration": 0.02604166666666785,
          "durationTicks": 10,
          "midi": 38,
          "name": "D2",
          "ticks": 9890,
          "time": 25.755208333333332,
          "velocity": 0.7559055118110236
        },
        {
          "duration": 0.02083333333333215,
          "durationTicks": 8,
          "midi": 42,
          "name": "F#2",
          "ticks": 9891,
          "time": 25.7578125,
          "velocity": 0.6062992125984252
        },
        {
          "duration": 0.0234375,
          "durationTicks": 9,
          "midi": 49,
          "name": "C#3",
          "ticks": 9891,
          "time": 25.7578125,
          "velocity": 0.6771653543307087
        },
        {
          "duration": 0.0234375,
          "durationTicks": 9,
          "midi": 54,
          "name": "F#3",
          "ticks": 9892,
          "time": 25.760416666666668,
          "velocity": 0.5905511811023622
        },
        {
          "duration": 0.0234375,
          "durationTicks": 9,
          "midi": 54,
          "name": "F#3",
          "ticks": 9983,
          "time": 25.997395833333332,
          "velocity": 0.4881889763779528
        },
        {
          "duration": 0.02604166666666785,
          "durationTicks": 10,
          "midi": 54,
          "name": "F#3",
          "ticks": 10029,
          "time": 26.1171875,
          "velocity": 0.4881889763779528
        },
        {
          "duration": 0.02604166666666785,
          "durationTicks": 10,
          "midi": 36,
          "name": "C2",
          "ticks": 10076,
          "time": 26.239583333333332,
          "velocity": 0.7165354330708661
        },
        {
          "duration": 0.0234375,
          "durationTicks": 9,
          "midi": 42,
          "name": "F#2",
          "ticks": 10076,
          "time": 26.239583333333332,
          "velocity": 0.6299212598425197
        },
        {
          "duration": 0.02604166666666785,
          "durationTicks": 10,
          "midi": 54,
          "name": "F#3",
          "ticks": 10076,
          "time": 26.239583333333332,
          "velocity": 0.5905511811023622
        },
        {
          "duration": 0.0234375,
          "durationTicks": 9,
          "midi": 38,
          "name": "D2",
          "ticks": 10169,
          "time": 26.481770833333332,
          "velocity": 0.7559055118110236
        },
        {
          "duration": 0.0234375,
          "durationTicks": 9,
          "midi": 57,
          "name": "A3",
          "ticks": 10169,
          "time": 26.481770833333332,
          "velocity": 0.6771653543307087
        },
        {
          "duration": 0.0234375,
          "durationTicks": 9,
          "midi": 54,
          "name": "F#3",
          "ticks": 10171,
          "time": 26.486979166666668,
          "velocity": 0.4881889763779528
        },
        {
          "duration": 0.02604166666666785,
          "durationTicks": 10,
          "midi": 54,
          "name": "F#3",
          "ticks": 10215,
          "time": 26.6015625,
          "velocity": 0.4881889763779528
        },
        {
          "duration": 0.02864583333333215,
          "durationTicks": 11,
          "midi": 36,
          "name": "C2",
          "ticks": 10261,
          "time": 26.721354166666668,
          "velocity": 0.7165354330708661
        },
        {
          "duration": 0.0234375,
          "durationTicks": 9,
          "midi": 42,
          "name": "F#2",
          "ticks": 10262,
          "time": 26.723958333333332,
          "velocity": 0.6062992125984252
        },
        {
          "duration": 0.0234375,
          "durationTicks": 9,
          "midi": 54,
          "name": "F#3",
          "ticks": 10262,
          "time": 26.723958333333332,
          "velocity": 0.5905511811023622
        },
        {
          "duration": 0.026041666666664298,
          "durationTicks": 10,
          "midi": 54,
          "name": "F#3",
          "ticks": 10354,
          "time": 26.963541666666668,
          "velocity": 0.4881889763779528
        },
        {
          "duration": 0.0234375,
          "durationTicks": 9,
          "midi": 54,
          "name": "F#3",
          "ticks": 10401,
          "time": 27.0859375,
          "velocity": 0.4881889763779528
        },
        {
          "duration": 0.02864583333333215,
          "durationTicks": 11,
          "midi": 36,
          "name": "C2",
          "ticks": 10447,
          "time": 27.205729166666668,
          "velocity": 0.7165354330708661
        },
        {
          "duration": 0.0234375,
          "durationTicks": 9,
          "midi": 38,
          "name": "D2",
          "ticks": 10448,
          "time": 27.208333333333332,
          "velocity": 0.7559055118110236
        },
        {
          "duration": 0.0234375,
          "durationTicks": 9,
          "midi": 42,
          "name": "F#2",
          "ticks": 10448,
          "time": 27.208333333333332,
          "velocity": 0.6062992125984252
        },
        {
          "duration": 0.02604166666666785,
          "durationTicks": 10,
          "midi": 49,
          "name": "C#3",
          "ticks": 10448,
          "time": 27.208333333333332,
          "velocity": 0.6771653543307087
        },
        {
          "duration": 0.0234375,
          "durationTicks": 9,
          "midi": 54,
          "name": "F#3",
          "ticks": 10450,
          "time": 27.213541666666668,
          "velocity": 0.5905511811023622
        },
        {
          "duration": 0.026041666666664298,
          "durationTicks": 10,
          "midi": 54,
          "name": "F#3",
          "ticks": 10540,
          "time": 27.447916666666668,
          "velocity": 0.4881889763779528
        },
        {
          "duration": 0.0234375,
          "durationTicks": 9,
          "midi": 54,
          "name": "F#3",
          "ticks": 10587,
          "time": 27.5703125,
          "velocity": 0.4881889763779528
        },
        {
          "duration": 0.026041666666664298,
          "durationTicks": 10,
          "midi": 36,
          "name": "C2",
          "ticks": 10633,
          "time": 27.690104166666668,
          "velocity": 0.7165354330708661
        },
        {
          "duration": 0.026041666666664298,
          "durationTicks": 10,
          "midi": 38,
          "name": "D2",
          "ticks": 10633,
          "time": 27.690104166666668,
          "velocity": 0.7559055118110236
        },
        {
          "duration": 0.02604166666666785,
          "durationTicks": 10,
          "midi": 42,
          "name": "F#2",
          "ticks": 10634,
          "time": 27.692708333333332,
          "velocity": 0.6062992125984252
        },
        {
          "duration": 0.02604166666666785,
          "durationTicks": 10,
          "midi": 57,
          "name": "A3",
          "ticks": 10634,
          "time": 27.692708333333332,
          "velocity": 0.6771653543307087
        },
        {
          "duration": 0.02604166666666785,
          "durationTicks": 10,
          "midi": 54,
          "name": "F#3",
          "ticks": 10635,
          "time": 27.6953125,
          "velocity": 0.5905511811023622
        },
        {
          "duration": 0.026041666666664298,
          "durationTicks": 10,
          "midi": 54,
          "name": "F#3",
          "ticks": 10726,
          "time": 27.932291666666668,
          "velocity": 0.4881889763779528
        },
        {
          "duration": 0.02604166666666785,
          "durationTicks": 10,
          "midi": 54,
          "name": "F#3",
          "ticks": 10772,
          "time": 28.052083333333332,
          "velocity": 0.4881889763779528
        },
        {
          "duration": 0.0078125,
          "durationTicks": 3,
          "midi": 36,
          "name": "C2",
          "ticks": 10819,
          "time": 28.174479166666668,
          "velocity": 0.7165354330708661
        },
        {
          "duration": 0.010416666666664298,
          "durationTicks": 4,
          "midi": 38,
          "name": "D2",
          "ticks": 10819,
          "time": 28.174479166666668,
          "velocity": 0.7559055118110236
        },
        {
          "duration": 0.005208333333335702,
          "durationTicks": 2,
          "midi": 42,
          "name": "F#2",
          "ticks": 10820,
          "time": 28.177083333333332,
          "velocity": 0.6299212598425197
        },
        {
          "duration": 0.0078125,
          "durationTicks": 3,
          "midi": 49,
          "name": "C#3",
          "ticks": 10820,
          "time": 28.177083333333332,
          "velocity": 0.6771653543307087
        },
        {
          "duration": 0.005208333333332149,
          "durationTicks": 2,
          "midi": 54,
          "name": "F#3",
          "ticks": 10821,
          "time": 28.1796875,
          "velocity": 0.5905511811023622
        },
        {
          "duration": 0.026041666666664298,
          "durationTicks": 10,
          "midi": 36,
          "name": "C2",
          "ticks": 11005,
          "time": 28.658854166666668,
          "velocity": 0.7165354330708661
        },
        {
          "duration": 0.026041666666664298,
          "durationTicks": 10,
          "midi": 38,
          "name": "D2",
          "ticks": 11005,
          "time": 28.658854166666668,
          "velocity": 0.7559055118110236
        },
        {
          "duration": 0.0234375,
          "durationTicks": 9,
          "midi": 42,
          "name": "F#2",
          "ticks": 11005,
          "time": 28.658854166666668,
          "velocity": 0.6062992125984252
        },
        {
          "duration": 0.0234375,
          "durationTicks": 9,
          "midi": 57,
          "name": "A3",
          "ticks": 11006,
          "time": 28.661458333333332,
          "velocity": 0.6771653543307087
        },
        {
          "duration": 0.02864583333333215,
          "durationTicks": 11,
          "midi": 36,
          "name": "C2",
          "ticks": 11190,
          "time": 29.140625,
          "velocity": 0.7165354330708661
        },
        {
          "duration": 0.0234375,
          "durationTicks": 9,
          "midi": 38,
          "name": "D2",
          "ticks": 11191,
          "time": 29.143229166666668,
          "velocity": 0.7559055118110236
        },
        {
          "duration": 0.0234375,
          "durationTicks": 9,
          "midi": 42,
          "name": "F#2",
          "ticks": 11191,
          "time": 29.143229166666668,
          "velocity": 0.6062992125984252
        },
        {
          "duration": 0.0234375,
          "durationTicks": 9,
          "midi": 49,
          "name": "C#3",
          "ticks": 11192,
          "time": 29.145833333333332,
          "velocity": 0.6771653543307087
        },
        {
          "duration": 0.02604166666666785,
          "durationTicks": 10,
          "midi": 36,
          "name": "C2",
          "ticks": 11376,
          "time": 29.625,
          "velocity": 0.7165354330708661
        },
        {
          "duration": 0.0234375,
          "durationTicks": 9,
          "midi": 38,
          "name": "D2",
          "ticks": 11377,
          "time": 29.627604166666668,
          "velocity": 0.7559055118110236
        },
        {
          "duration": 0.026041666666664298,
          "durationTicks": 10,
          "midi": 42,
          "name": "F#2",
          "ticks": 11377,
          "time": 29.627604166666668,
          "velocity": 0.6062992125984252
        },
        {
          "duration": 0.0234375,
          "durationTicks": 9,
          "midi": 57,
          "name": "A3",
          "ticks": 11378,
          "time": 29.630208333333332,
          "velocity": 0.6771653543307087
        },
        {
          "duration": 0.02604166666666785,
          "durationTicks": 10,
          "midi": 36,
          "name": "C2",
          "ticks": 11562,
          "time": 30.109375,
          "velocity": 0.7165354330708661
        },
        {
          "duration": 0.02604166666666785,
          "durationTicks": 10,
          "midi": 38,
          "name": "D2",
          "ticks": 11562,
          "time": 30.109375,
          "velocity": 0.7559055118110236
        },
        {
          "duration": 0.0234375,
          "durationTicks": 9,
          "midi": 42,
          "name": "F#2",
          "ticks": 11563,
          "time": 30.111979166666668,
          "velocity": 0.6299212598425197
        },
        {
          "duration": 0.0234375,
          "durationTicks": 9,
          "midi": 49,
          "name": "C#3",
          "ticks": 11564,
          "time": 30.114583333333332,
          "velocity": 0.6771653543307087
        },
        {
          "duration": 0.0234375,
          "durationTicks": 9,
          "midi": 38,
          "name": "D2",
          "ticks": 11655,
          "time": 30.3515625,
          "velocity": 0.7559055118110236
        },
        {
          "duration": 0.026041666666664298,
          "durationTicks": 10,
          "midi": 38,
          "name": "D2",
          "ticks": 11701,
          "time": 30.471354166666668,
          "velocity": 0.7559055118110236
        },
        {
          "duration": 0.02604166666666785,
          "durationTicks": 10,
          "midi": 36,
          "name": "C2",
          "ticks": 11748,
          "time": 30.59375,
          "velocity": 0.7165354330708661
        },
        {
          "duration": 0.0234375,
          "durationTicks": 9,
          "midi": 38,
          "name": "D2",
          "ticks": 11748,
          "time": 30.59375,
          "velocity": 0.7559055118110236
        },
        {
          "duration": 0.026041666666664298,
          "durationTicks": 10,
          "midi": 38,
          "name": "D2",
          "ticks": 11794,
          "time": 30.713541666666668,
          "velocity": 0.7559055118110236
        },
        {
          "duration": 0.02604166666666785,
          "durationTicks": 10,
          "midi": 48,
          "name": "C3",
          "ticks": 11840,
          "time": 30.833333333333332,
          "velocity": 0.7086614173228346
        },
        {
          "duration": 0.026041666666664298,
          "durationTicks": 10,
          "midi": 48,
          "name": "C3",
          "ticks": 11887,
          "time": 30.955729166666668,
          "velocity": 0.7086614173228346
        },
        {
          "duration": 0.028645833333335702,
          "durationTicks": 11,
          "midi": 36,
          "name": "C2",
          "ticks": 11933,
          "time": 31.075520833333332,
          "velocity": 0.7165354330708661
        },
        {
          "duration": 0.0234375,
          "durationTicks": 9,
          "midi": 45,
          "name": "A2",
          "ticks": 11934,
          "time": 31.078125,
          "velocity": 0.7007874015748031
        },
        {
          "duration": 0.026041666666664298,
          "durationTicks": 10,
          "midi": 45,
          "name": "A2",
          "ticks": 11980,
          "time": 31.197916666666668,
          "velocity": 0.7007874015748031
        },
        {
          "duration": 0.02604166666666785,
          "durationTicks": 10,
          "midi": 45,
          "name": "A2",
          "ticks": 12026,
          "time": 31.317708333333332,
          "velocity": 0.7007874015748031
        },
        {
          "duration": 0.0234375,
          "durationTicks": 9,
          "midi": 45,
          "name": "A2",
          "ticks": 12073,
          "time": 31.440104166666668,
          "velocity": 0.7007874015748031
        },
        {
          "duration": 0.02604166666666785,
          "durationTicks": 10,
          "midi": 36,
          "name": "C2",
          "ticks": 12119,
          "time": 31.559895833333332,
          "velocity": 0.7165354330708661
        },
        {
          "duration": 0.0234375,
          "durationTicks": 9,
          "midi": 41,
          "name": "F2",
          "ticks": 12120,
          "time": 31.5625,
          "velocity": 0.6929133858267716
        },
        {
          "duration": 0.0234375,
          "durationTicks": 9,
          "midi": 41,
          "name": "F2",
          "ticks": 12166,
          "time": 31.682291666666668,
          "velocity": 0.6929133858267716
        },
        {
          "duration": 0.02604166666666785,
          "durationTicks": 10,
          "midi": 41,
          "name": "F2",
          "ticks": 12212,
          "time": 31.802083333333332,
          "velocity": 0.6929133858267716
        },
        {
          "duration": 0.0234375,
          "durationTicks": 9,
          "midi": 41,
          "name": "F2",
          "ticks": 12259,
          "time": 31.924479166666668,
          "velocity": 0.6929133858267716
        },
        {
          "duration": 0.026041666666664298,
          "durationTicks": 10,
          "midi": 36,
          "name": "C2",
          "ticks": 12305,
          "time": 32.044270833333336,
          "velocity": 0.7165354330708661
        },
        {
          "duration": 0.026041666666664298,
          "durationTicks": 10,
          "midi": 42,
          "name": "F#2",
          "ticks": 12305,
          "time": 32.044270833333336,
          "velocity": 0.6299212598425197
        },
        {
          "duration": 0.0234375,
          "durationTicks": 9,
          "midi": 57,
          "name": "A3",
          "ticks": 12306,
          "time": 32.046875,
          "velocity": 0.6771653543307087
        },
        {
          "duration": 0.0234375,
          "durationTicks": 9,
          "midi": 54,
          "name": "F#3",
          "ticks": 12307,
          "time": 32.049479166666664,
          "velocity": 0.5905511811023622
        },
        {
          "duration": 0.0234375,
          "durationTicks": 9,
          "midi": 42,
          "name": "F#2",
          "ticks": 12352,
          "time": 32.166666666666664,
          "velocity": 0.5275590551181102
        },
        {
          "duration": 0.026041666666664298,
          "durationTicks": 10,
          "midi": 46,
          "name": "A#2",
          "ticks": 12398,
          "time": 32.286458333333336,
          "velocity": 0.5354330708661418
        },
        {
          "duration": 0.026041666666664298,
          "durationTicks": 10,
          "midi": 54,
          "name": "F#3",
          "ticks": 12399,
          "time": 32.2890625,
          "velocity": 0.4881889763779528
        },
        {
          "duration": 0.026041666666664298,
          "durationTicks": 10,
          "midi": 54,
          "name": "F#3",
          "ticks": 12444,
          "time": 32.40625,
          "velocity": 0.4881889763779528
        },
        {
          "duration": 0.026041666666664298,
          "durationTicks": 10,
          "midi": 36,
          "name": "C2",
          "ticks": 12491,
          "time": 32.528645833333336,
          "velocity": 0.7165354330708661
        },
        {
          "duration": 0.026041666666664298,
          "durationTicks": 10,
          "midi": 38,
          "name": "D2",
          "ticks": 12491,
          "time": 32.528645833333336,
          "velocity": 0.7559055118110236
        },
        {
          "duration": 0.026041666666664298,
          "durationTicks": 10,
          "midi": 39,
          "name": "D#2",
          "ticks": 12492,
          "time": 32.53125,
          "velocity": 0.7244094488188977
        },
        {
          "duration": 0.020833333333335702,
          "durationTicks": 8,
          "midi": 42,
          "name": "F#2",
          "ticks": 12492,
          "time": 32.53125,
          "velocity": 0.6062992125984252
        },
        {
          "duration": 0.0234375,
          "durationTicks": 9,
          "midi": 54,
          "name": "F#3",
          "ticks": 12493,
          "time": 32.533854166666664,
          "velocity": 0.5905511811023622
        },
        {
          "duration": 0.026041666666664298,
          "durationTicks": 10,
          "midi": 42,
          "name": "F#2",
          "ticks": 12537,
          "time": 32.6484375,
          "velocity": 0.5275590551181102
        },
        {
          "duration": 0.0234375,
          "durationTicks": 9,
          "midi": 46,
          "name": "A#2",
          "ticks": 12584,
          "time": 32.770833333333336,
          "velocity": 0.5354330708661418
        },
        {
          "duration": 0.0234375,
          "durationTicks": 9,
          "midi": 54,
          "name": "F#3",
          "ticks": 12585,
          "time": 32.7734375,
          "velocity": 0.4881889763779528
        },
        {
          "duration": 0.026041666666664298,
          "durationTicks": 10,
          "midi": 54,
          "name": "F#3",
          "ticks": 12630,
          "time": 32.890625,
          "velocity": 0.4881889763779528
        },
        {
          "duration": 0.026041666666664298,
          "durationTicks": 10,
          "midi": 36,
          "name": "C2",
          "ticks": 12677,
          "time": 33.013020833333336,
          "velocity": 0.7165354330708661
        },
        {
          "duration": 0.0234375,
          "durationTicks": 9,
          "midi": 42,
          "name": "F#2",
          "ticks": 12677,
          "time": 33.013020833333336,
          "velocity": 0.6062992125984252
        },
        {
          "duration": 0.0234375,
          "durationTicks": 9,
          "midi": 54,
          "name": "F#3",
          "ticks": 12678,
          "time": 33.015625,
          "velocity": 0.5905511811023622
        },
        {
          "duration": 0.026041666666664298,
          "durationTicks": 10,
          "midi": 42,
          "name": "F#2",
          "ticks": 12723,
          "time": 33.1328125,
          "velocity": 0.5275590551181102
        },
        {
          "duration": 0.0234375,
          "durationTicks": 9,
          "midi": 46,
          "name": "A#2",
          "ticks": 12770,
          "time": 33.255208333333336,
          "velocity": 0.5354330708661418
        },
        {
          "duration": 0.0234375,
          "durationTicks": 9,
          "midi": 54,
          "name": "F#3",
          "ticks": 12772,
          "time": 33.260416666666664,
          "velocity": 0.4881889763779528
        },
        {
          "duration": 0.026041666666664298,
          "durationTicks": 10,
          "midi": 54,
          "name": "F#3",
          "ticks": 12818,
          "time": 33.380208333333336,
          "velocity": 0.4881889763779528
        },
        {
          "duration": 0.026041666666664298,
          "durationTicks": 10,
          "midi": 36,
          "name": "C2",
          "ticks": 12863,
          "time": 33.497395833333336,
          "velocity": 0.7165354330708661
        },
        {
          "duration": 0.0234375,
          "durationTicks": 9,
          "midi": 38,
          "name": "D2",
          "ticks": 12863,
          "time": 33.497395833333336,
          "velocity": 0.7559055118110236
        },
        {
          "duration": 0.0234375,
          "durationTicks": 9,
          "midi": 42,
          "name": "F#2",
          "ticks": 12863,
          "time": 33.497395833333336,
          "velocity": 0.6062992125984252
        },
        {
          "duration": 0.0234375,
          "durationTicks": 9,
          "midi": 39,
          "name": "D#2",
          "ticks": 12864,
          "time": 33.5,
          "velocity": 0.7244094488188977
        },
        {
          "duration": 0.020833333333328596,
          "durationTicks": 8,
          "midi": 54,
          "name": "F#3",
          "ticks": 12866,
          "time": 33.505208333333336,
          "velocity": 0.5905511811023622
        },
        {
          "duration": 0.026041666666664298,
          "durationTicks": 10,
          "midi": 42,
          "name": "F#2",
          "ticks": 12909,
          "time": 33.6171875,
          "velocity": 0.5275590551181102
        },
        {
          "duration": 0.0234375,
          "durationTicks": 9,
          "midi": 46,
          "name": "A#2",
          "ticks": 12956,
          "time": 33.739583333333336,
          "velocity": 0.5354330708661418
        },
        {
          "duration": 0.0234375,
          "durationTicks": 9,
          "midi": 54,
          "name": "F#3",
          "ticks": 12957,
          "time": 33.7421875,
          "velocity": 0.4881889763779528
        },
        {
          "duration": 0.026041666666664298,
          "durationTicks": 10,
          "midi": 54,
          "name": "F#3",
          "ticks": 13002,
          "time": 33.859375,
          "velocity": 0.4881889763779528
        },
        {
          "duration": 0.026041666666671404,
          "durationTicks": 10,
          "midi": 36,
          "name": "C2",
          "ticks": 13048,
          "time": 33.979166666666664,
          "velocity": 0.7165354330708661
        },
        {
          "duration": 0.0234375,
          "durationTicks": 9,
          "midi": 42,
          "name": "F#2",
          "ticks": 13049,
          "time": 33.981770833333336,
          "velocity": 0.6299212598425197
        },
        {
          "duration": 0.026041666666664298,
          "durationTicks": 10,
          "midi": 54,
          "name": "F#3",
          "ticks": 13049,
          "time": 33.981770833333336,
          "velocity": 0.5905511811023622
        },
        {
          "duration": 0.0234375,
          "durationTicks": 9,
          "midi": 42,
          "name": "F#2",
          "ticks": 13095,
          "time": 34.1015625,
          "velocity": 0.5275590551181102
        },
        {
          "duration": 0.026041666666671404,
          "durationTicks": 10,
          "midi": 46,
          "name": "A#2",
          "ticks": 13141,
          "time": 34.221354166666664,
          "velocity": 0.5354330708661418
        },
        {
          "duration": 0.026041666666664298,
          "durationTicks": 10,
          "midi": 54,
          "name": "F#3",
          "ticks": 13143,
          "time": 34.2265625,
          "velocity": 0.4881889763779528
        },
        {
          "duration": 0.0234375,
          "durationTicks": 9,
          "midi": 54,
          "name": "F#3",
          "ticks": 13188,
          "time": 34.34375,
          "velocity": 0.4881889763779528
        },
        {
          "duration": 0.026041666666671404,
          "durationTicks": 10,
          "midi": 36,
          "name": "C2",
          "ticks": 13234,
          "time": 34.463541666666664,
          "velocity": 0.7165354330708661
        },
        {
          "duration": 0.026041666666671404,
          "durationTicks": 10,
          "midi": 38,
          "name": "D2",
          "ticks": 13234,
          "time": 34.463541666666664,
          "velocity": 0.7559055118110236
        },
        {
          "duration": 0.026041666666664298,
          "durationTicks": 10,
          "midi": 39,
          "name": "D#2",
          "ticks": 13235,
          "time": 34.466145833333336,
          "velocity": 0.7244094488188977
        },
        {
          "duration": 0.026041666666664298,
          "durationTicks": 10,
          "midi": 42,
          "name": "F#2",
          "ticks": 13235,
          "time": 34.466145833333336,
          "velocity": 0.6062992125984252
        },
        {
          "duration": 0.026041666666671404,
          "durationTicks": 10,
          "midi": 54,
          "name": "F#3",
          "ticks": 13237,
          "time": 34.471354166666664,
          "velocity": 0.5905511811023622
        },
        {
          "duration": 0.0234375,
          "durationTicks": 9,
          "midi": 42,
          "name": "F#2",
          "ticks": 13281,
          "time": 34.5859375,
          "velocity": 0.5275590551181102
        },
        {
          "duration": 0.0234375,
          "durationTicks": 9,
          "midi": 46,
          "name": "A#2",
          "ticks": 13328,
          "time": 34.708333333333336,
          "velocity": 0.5354330708661418
        },
        {
          "duration": 0.026041666666664298,
          "durationTicks": 10,
          "midi": 54,
          "name": "F#3",
          "ticks": 13329,
          "time": 34.7109375,
          "velocity": 0.4881889763779528
        },
        {
          "duration": 0.026041666666664298,
          "durationTicks": 10,
          "midi": 54,
          "name": "F#3",
          "ticks": 13373,
          "time": 34.825520833333336,
          "velocity": 0.4881889763779528
        },
        {
          "duration": 0.026041666666671404,
          "durationTicks": 10,
          "midi": 36,
          "name": "C2",
          "ticks": 13420,
          "time": 34.947916666666664,
          "velocity": 0.7165354330708661
        },
        {
          "duration": 0.026041666666671404,
          "durationTicks": 10,
          "midi": 42,
          "name": "F#2",
          "ticks": 13420,
          "time": 34.947916666666664,
          "velocity": 0.6062992125984252
        },
        {
          "duration": 0.0234375,
          "durationTicks": 9,
          "midi": 54,
          "name": "F#3",
          "ticks": 13422,
          "time": 34.953125,
          "velocity": 0.5905511811023622
        },
        {
          "duration": 0.026041666666664298,
          "durationTicks": 10,
          "midi": 42,
          "name": "F#2",
          "ticks": 13466,
          "time": 35.067708333333336,
          "velocity": 0.5275590551181102
        },
        {
          "duration": 0.0234375,
          "durationTicks": 9,
          "midi": 46,
          "name": "A#2",
          "ticks": 13514,
          "time": 35.192708333333336,
          "velocity": 0.5354330708661418
        },
        {
          "duration": 0.0234375,
          "durationTicks": 9,
          "midi": 54,
          "name": "F#3",
          "ticks": 13515,
          "time": 35.1953125,
          "velocity": 0.4881889763779528
        },
        {
          "duration": 0.026041666666664298,
          "durationTicks": 10,
          "midi": 54,
          "name": "F#3",
          "ticks": 13559,
          "time": 35.309895833333336,
          "velocity": 0.4881889763779528
        },
        {
          "duration": 0.026041666666671404,
          "durationTicks": 10,
          "midi": 36,
          "name": "C2",
          "ticks": 13606,
          "time": 35.432291666666664,
          "velocity": 0.7165354330708661
        },
        {
          "duration": 0.026041666666671404,
          "durationTicks": 10,
          "midi": 38,
          "name": "D2",
          "ticks": 13606,
          "time": 35.432291666666664,
          "velocity": 0.7559055118110236
        },
        {
          "duration": 0.0234375,
          "durationTicks": 9,
          "midi": 42,
          "name": "F#2",
          "ticks": 13606,
          "time": 35.432291666666664,
          "velocity": 0.6062992125984252
        },
        {
          "duration": 0.0234375,
          "durationTicks": 9,
          "midi": 39,
          "name": "D#2",
          "ticks": 13607,
          "time": 35.434895833333336,
          "velocity": 0.7244094488188977
        },
        {
          "duration": 0.0234375,
          "durationTicks": 9,
          "midi": 54,
          "name": "F#3",
          "ticks": 13608,
          "time": 35.4375,
          "velocity": 0.5905511811023622
        },
        {
          "duration": 0.026041666666664298,
          "durationTicks": 10,
          "midi": 42,
          "name": "F#2",
          "ticks": 13652,
          "time": 35.552083333333336,
          "velocity": 0.5275590551181102
        },
        {
          "duration": 0.026041666666664298,
          "durationTicks": 10,
          "midi": 46,
          "name": "A#2",
          "ticks": 13698,
          "time": 35.671875,
          "velocity": 0.5354330708661418
        },
        {
          "duration": 0.0234375,
          "durationTicks": 9,
          "midi": 54,
          "name": "F#3",
          "ticks": 13701,
          "time": 35.6796875,
          "velocity": 0.4881889763779528
        },
        {
          "duration": 0.026041666666664298,
          "durationTicks": 10,
          "midi": 54,
          "name": "F#3",
          "ticks": 13746,
          "time": 35.796875,
          "velocity": 0.4881889763779528
        },
        {
          "duration": 0.028645833333335702,
          "durationTicks": 11,
          "midi": 36,
          "name": "C2",
          "ticks": 13791,
          "time": 35.9140625,
          "velocity": 0.7165354330708661
        },
        {
          "duration": 0.0234375,
          "durationTicks": 9,
          "midi": 42,
          "name": "F#2",
          "ticks": 13792,
          "time": 35.916666666666664,
          "velocity": 0.6299212598425197
        },
        {
          "duration": 0.026041666666664298,
          "durationTicks": 10,
          "midi": 54,
          "name": "F#3",
          "ticks": 13793,
          "time": 35.919270833333336,
          "velocity": 0.5905511811023622
        },
        {
          "duration": 0.026041666666664298,
          "durationTicks": 10,
          "midi": 42,
          "name": "F#2",
          "ticks": 13838,
          "time": 36.036458333333336,
          "velocity": 0.5275590551181102
        },
        {
          "duration": 0.026041666666664298,
          "durationTicks": 10,
          "midi": 46,
          "name": "A#2",
          "ticks": 13884,
          "time": 36.15625,
          "velocity": 0.5354330708661418
        },
        {
          "duration": 0.0234375,
          "durationTicks": 9,
          "midi": 54,
          "name": "F#3",
          "ticks": 13886,
          "time": 36.161458333333336,
          "velocity": 0.4881889763779528
        },
        {
          "duration": 0.0234375,
          "durationTicks": 9,
          "midi": 54,
          "name": "F#3",
          "ticks": 13931,
          "time": 36.278645833333336,
          "velocity": 0.4881889763779528
        },
        {
          "duration": 0.0234375,
          "durationTicks": 9,
          "midi": 36,
          "name": "C2",
          "ticks": 13978,
          "time": 36.401041666666664,
          "velocity": 0.7165354330708661
        },
        {
          "duration": 0.0234375,
          "durationTicks": 9,
          "midi": 38,
          "name": "D2",
          "ticks": 13978,
          "time": 36.401041666666664,
          "velocity": 0.7559055118110236
        },
        {
          "duration": 0.0234375,
          "durationTicks": 9,
          "midi": 42,
          "name": "F#2",
          "ticks": 13978,
          "time": 36.401041666666664,
          "velocity": 0.6062992125984252
        },
        {
          "duration": 0.0234375,
          "durationTicks": 9,
          "midi": 39,
          "name": "D#2",
          "ticks": 13979,
          "time": 36.403645833333336,
          "velocity": 0.7244094488188977
        },
        {
          "duration": 0.0234375,
          "durationTicks": 9,
          "midi": 54,
          "name": "F#3",
          "ticks": 13980,
          "time": 36.40625,
          "velocity": 0.5905511811023622
        },
        {
          "duration": 0.0234375,
          "durationTicks": 9,
          "midi": 42,
          "name": "F#2",
          "ticks": 14024,
          "time": 36.520833333333336,
          "velocity": 0.5275590551181102
        },
        {
          "duration": 0.026041666666664298,
          "durationTicks": 10,
          "midi": 46,
          "name": "A#2",
          "ticks": 14070,
          "time": 36.640625,
          "velocity": 0.5354330708661418
        },
        {
          "duration": 0.026041666666664298,
          "durationTicks": 10,
          "midi": 54,
          "name": "F#3",
          "ticks": 14073,
          "time": 36.6484375,
          "velocity": 0.4881889763779528
        },
        {
          "duration": 0.026041666666671404,
          "durationTicks": 10,
          "midi": 54,
          "name": "F#3",
          "ticks": 14116,
          "time": 36.760416666666664,
          "velocity": 0.4881889763779528
        },
        {
          "duration": 0.026041666666664298,
          "durationTicks": 10,
          "midi": 36,
          "name": "C2",
          "ticks": 14163,
          "time": 36.8828125,
          "velocity": 0.7165354330708661
        },
        {
          "duration": 0.0234375,
          "durationTicks": 9,
          "midi": 42,
          "name": "F#2",
          "ticks": 14164,
          "time": 36.885416666666664,
          "velocity": 0.6062992125984252
        },
        {
          "duration": 0.026041666666671404,
          "durationTicks": 10,
          "midi": 54,
          "name": "F#3",
          "ticks": 14164,
          "time": 36.885416666666664,
          "velocity": 0.5905511811023622
        },
        {
          "duration": 0.026041666666671404,
          "durationTicks": 10,
          "midi": 42,
          "name": "F#2",
          "ticks": 14209,
          "time": 37.002604166666664,
          "velocity": 0.5275590551181102
        },
        {
          "duration": 0.0234375,
          "durationTicks": 9,
          "midi": 46,
          "name": "A#2",
          "ticks": 14256,
          "time": 37.125,
          "velocity": 0.5354330708661418
        },
        {
          "duration": 0.0234375,
          "durationTicks": 9,
          "midi": 54,
          "name": "F#3",
          "ticks": 14258,
          "time": 37.130208333333336,
          "velocity": 0.4881889763779528
        },
        {
          "duration": 0.026041666666671404,
          "durationTicks": 10,
          "midi": 54,
          "name": "F#3",
          "ticks": 14305,
          "time": 37.252604166666664,
          "velocity": 0.4881889763779528
        },
        {
          "duration": 0.026041666666664298,
          "durationTicks": 10,
          "midi": 36,
          "name": "C2",
          "ticks": 14349,
          "time": 37.3671875,
          "velocity": 0.7165354330708661
        },
        {
          "duration": 0.026041666666664298,
          "durationTicks": 10,
          "midi": 38,
          "name": "D2",
          "ticks": 14349,
          "time": 37.3671875,
          "velocity": 0.7559055118110236
        },
        {
          "duration": 0.020833333333335702,
          "durationTicks": 8,
          "midi": 42,
          "name": "F#2",
          "ticks": 14350,
          "time": 37.369791666666664,
          "velocity": 0.6062992125984252
        },
        {
          "duration": 0.0234375,
          "durationTicks": 9,
          "midi": 39,
          "name": "D#2",
          "ticks": 14351,
          "time": 37.372395833333336,
          "velocity": 0.7244094488188977
        },
        {
          "duration": 0.020833333333335702,
          "durationTicks": 8,
          "midi": 54,
          "name": "F#3",
          "ticks": 14352,
          "time": 37.375,
          "velocity": 0.5905511811023622
        },
        {
          "duration": 0.026041666666671404,
          "durationTicks": 10,
          "midi": 42,
          "name": "F#2",
          "ticks": 14395,
          "time": 37.486979166666664,
          "velocity": 0.5275590551181102
        },
        {
          "duration": 0.0234375,
          "durationTicks": 9,
          "midi": 46,
          "name": "A#2",
          "ticks": 14442,
          "time": 37.609375,
          "velocity": 0.5354330708661418
        },
        {
          "duration": 0.0234375,
          "durationTicks": 9,
          "midi": 54,
          "name": "F#3",
          "ticks": 14443,
          "time": 37.611979166666664,
          "velocity": 0.4881889763779528
        },
        {
          "duration": 0.026041666666671404,
          "durationTicks": 10,
          "midi": 54,
          "name": "F#3",
          "ticks": 14488,
          "time": 37.729166666666664,
          "velocity": 0.4881889763779528
        },
        {
          "duration": 0.028645833333328596,
          "durationTicks": 11,
          "midi": 36,
          "name": "C2",
          "ticks": 14534,
          "time": 37.848958333333336,
          "velocity": 0.7165354330708661
        },
        {
          "duration": 0.0234375,
          "durationTicks": 9,
          "midi": 42,
          "name": "F#2",
          "ticks": 14535,
          "time": 37.8515625,
          "velocity": 0.6299212598425197
        },
        {
          "duration": 0.0234375,
          "durationTicks": 9,
          "midi": 54,
          "name": "F#3",
          "ticks": 14536,
          "time": 37.854166666666664,
          "velocity": 0.5905511811023622
        },
        {
          "duration": 0.026041666666671404,
          "durationTicks": 10,
          "midi": 42,
          "name": "F#2",
          "ticks": 14581,
          "time": 37.971354166666664,
          "velocity": 0.5275590551181102
        },
        {
          "duration": 0.026041666666664298,
          "durationTicks": 10,
          "midi": 46,
          "name": "A#2",
          "ticks": 14627,
          "time": 38.091145833333336,
          "velocity": 0.5354330708661418
        },
        {
          "duration": 0.0234375,
          "durationTicks": 9,
          "midi": 54,
          "name": "F#3",
          "ticks": 14629,
          "time": 38.096354166666664,
          "velocity": 0.4881889763779528
        },
        {
          "duration": 0.0234375,
          "durationTicks": 9,
          "midi": 54,
          "name": "F#3",
          "ticks": 14674,
          "time": 38.213541666666664,
          "velocity": 0.4881889763779528
        },
        {
          "duration": 0.026041666666664298,
          "durationTicks": 10,
          "midi": 36,
          "name": "C2",
          "ticks": 14720,
          "time": 38.333333333333336,
          "velocity": 0.7165354330708661
        },
        {
          "duration": 0.0234375,
          "durationTicks": 9,
          "midi": 38,
          "name": "D2",
          "ticks": 14721,
          "time": 38.3359375,
          "velocity": 0.7559055118110236
        },
        {
          "duration": 0.026041666666664298,
          "durationTicks": 10,
          "midi": 39,
          "name": "D#2",
          "ticks": 14721,
          "time": 38.3359375,
          "velocity": 0.7244094488188977
        },
        {
          "duration": 0.0234375,
          "durationTicks": 9,
          "midi": 42,
          "name": "F#2",
          "ticks": 14722,
          "time": 38.338541666666664,
          "velocity": 0.6062992125984252
        },
        {
          "duration": 0.0234375,
          "durationTicks": 9,
          "midi": 54,
          "name": "F#3",
          "ticks": 14723,
          "time": 38.341145833333336,
          "velocity": 0.5905511811023622
        },
        {
          "duration": 0.0234375,
          "durationTicks": 9,
          "midi": 42,
          "name": "F#2",
          "ticks": 14767,
          "time": 38.455729166666664,
          "velocity": 0.5275590551181102
        },
        {
          "duration": 0.026041666666664298,
          "durationTicks": 10,
          "midi": 46,
          "name": "A#2",
          "ticks": 14813,
          "time": 38.575520833333336,
          "velocity": 0.5354330708661418
        },
        {
          "duration": 0.026041666666664298,
          "durationTicks": 10,
          "midi": 54,
          "name": "F#3",
          "ticks": 14814,
          "time": 38.578125,
          "velocity": 0.4881889763779528
        },
        {
          "duration": 0.0234375,
          "durationTicks": 9,
          "midi": 54,
          "name": "F#3",
          "ticks": 14860,
          "time": 38.697916666666664,
          "velocity": 0.4881889763779528
        },
        {
          "duration": 0.026041666666664298,
          "durationTicks": 10,
          "midi": 36,
          "name": "C2",
          "ticks": 14906,
          "time": 38.817708333333336,
          "velocity": 0.7165354330708661
        },
        {
          "duration": 0.026041666666664298,
          "durationTicks": 10,
          "midi": 42,
          "name": "F#2",
          "ticks": 14906,
          "time": 38.817708333333336,
          "velocity": 0.6062992125984252
        },
        {
          "duration": 0.0234375,
          "durationTicks": 9,
          "midi": 54,
          "name": "F#3",
          "ticks": 14908,
          "time": 38.822916666666664,
          "velocity": 0.5905511811023622
        },
        {
          "duration": 0.0234375,
          "durationTicks": 9,
          "midi": 42,
          "name": "F#2",
          "ticks": 14953,
          "time": 38.940104166666664,
          "velocity": 0.5275590551181102
        },
        {
          "duration": 0.026041666666664298,
          "durationTicks": 10,
          "midi": 46,
          "name": "A#2",
          "ticks": 14999,
          "time": 39.059895833333336,
          "velocity": 0.5354330708661418
        },
        {
          "duration": 0.026041666666664298,
          "durationTicks": 10,
          "midi": 54,
          "name": "F#3",
          "ticks": 15000,
          "time": 39.0625,
          "velocity": 0.4881889763779528
        },
        {
          "duration": 0.0234375,
          "durationTicks": 9,
          "midi": 54,
          "name": "F#3",
          "ticks": 15046,
          "time": 39.182291666666664,
          "velocity": 0.4881889763779528
        },
        {
          "duration": 0.026041666666664298,
          "durationTicks": 10,
          "midi": 36,
          "name": "C2",
          "ticks": 15092,
          "time": 39.302083333333336,
          "velocity": 0.7165354330708661
        },
        {
          "duration": 0.026041666666664298,
          "durationTicks": 10,
          "midi": 38,
          "name": "D2",
          "ticks": 15092,
          "time": 39.302083333333336,
          "velocity": 0.7559055118110236
        },
        {
          "duration": 0.026041666666664298,
          "durationTicks": 10,
          "midi": 39,
          "name": "D#2",
          "ticks": 15093,
          "time": 39.3046875,
          "velocity": 0.7244094488188977
        },
        {
          "duration": 0.0234375,
          "durationTicks": 9,
          "midi": 42,
          "name": "F#2",
          "ticks": 15093,
          "time": 39.3046875,
          "velocity": 0.6062992125984252
        },
        {
          "duration": 0.026041666666664298,
          "durationTicks": 10,
          "midi": 54,
          "name": "F#3",
          "ticks": 15093,
          "time": 39.3046875,
          "velocity": 0.5905511811023622
        },
        {
          "duration": 0.026041666666664298,
          "durationTicks": 10,
          "midi": 42,
          "name": "F#2",
          "ticks": 15138,
          "time": 39.421875,
          "velocity": 0.5275590551181102
        },
        {
          "duration": 0.0234375,
          "durationTicks": 9,
          "midi": 46,
          "name": "A#2",
          "ticks": 15185,
          "time": 39.544270833333336,
          "velocity": 0.5354330708661418
        },
        {
          "duration": 0.0234375,
          "durationTicks": 9,
          "midi": 54,
          "name": "F#3",
          "ticks": 15186,
          "time": 39.546875,
          "velocity": 0.4881889763779528
        },
        {
          "duration": 0.026041666666664298,
          "durationTicks": 10,
          "midi": 54,
          "name": "F#3",
          "ticks": 15231,
          "time": 39.6640625,
          "velocity": 0.4881889763779528
        },
        {
          "duration": 0.026041666666664298,
          "durationTicks": 10,
          "midi": 36,
          "name": "C2",
          "ticks": 15278,
          "time": 39.786458333333336,
          "velocity": 0.7165354330708661
        },
        {
          "duration": 0.0234375,
          "durationTicks": 9,
          "midi": 42,
          "name": "F#2",
          "ticks": 15278,
          "time": 39.786458333333336,
          "velocity": 0.6299212598425197
        },
        {
          "duration": 0.020833333333335702,
          "durationTicks": 8,
          "midi": 49,
          "name": "C#3",
          "ticks": 15280,
          "time": 39.791666666666664,
          "velocity": 0.6771653543307087
        },
        {
          "duration": 0.020833333333328596,
          "durationTicks": 8,
          "midi": 54,
          "name": "F#3",
          "ticks": 15281,
          "time": 39.794270833333336,
          "velocity": 0.5905511811023622
        },
        {
          "duration": 0.026041666666664298,
          "durationTicks": 10,
          "midi": 42,
          "name": "F#2",
          "ticks": 15324,
          "time": 39.90625,
          "velocity": 0.5275590551181102
        },
        {
          "duration": 0.0234375,
          "durationTicks": 9,
          "midi": 46,
          "name": "A#2",
          "ticks": 15371,
          "time": 40.028645833333336,
          "velocity": 0.5354330708661418
        },
        {
          "duration": 0.0234375,
          "durationTicks": 9,
          "midi": 54,
          "name": "F#3",
          "ticks": 15373,
          "time": 40.033854166666664,
          "velocity": 0.4881889763779528
        },
        {
          "duration": 0.026041666666664298,
          "durationTicks": 10,
          "midi": 54,
          "name": "F#3",
          "ticks": 15417,
          "time": 40.1484375,
          "velocity": 0.4881889763779528
        },
        {
          "duration": 0.026041666666664298,
          "durationTicks": 10,
          "midi": 36,
          "name": "C2",
          "ticks": 15464,
          "time": 40.270833333333336,
          "velocity": 0.7165354330708661
        },
        {
          "duration": 0.0234375,
          "durationTicks": 9,
          "midi": 38,
          "name": "D2",
          "ticks": 15464,
          "time": 40.270833333333336,
          "velocity": 0.7559055118110236
        },
        {
          "duration": 0.0234375,
          "durationTicks": 9,
          "midi": 42,
          "name": "F#2",
          "ticks": 15464,
          "time": 40.270833333333336,
          "velocity": 0.6062992125984252
        },
        {
          "duration": 0.0234375,
          "durationTicks": 9,
          "midi": 39,
          "name": "D#2",
          "ticks": 15465,
          "time": 40.2734375,
          "velocity": 0.7244094488188977
        },
        {
          "duration": 0.0234375,
          "durationTicks": 9,
          "midi": 54,
          "name": "F#3",
          "ticks": 15466,
          "time": 40.276041666666664,
          "velocity": 0.5905511811023622
        },
        {
          "duration": 0.026041666666664298,
          "durationTicks": 10,
          "midi": 42,
          "name": "F#2",
          "ticks": 15510,
          "time": 40.390625,
          "velocity": 0.5275590551181102
        },
        {
          "duration": 0.0234375,
          "durationTicks": 9,
          "midi": 46,
          "name": "A#2",
          "ticks": 15557,
          "time": 40.513020833333336,
          "velocity": 0.5354330708661418
        },
        {
          "duration": 0.0234375,
          "durationTicks": 9,
          "midi": 54,
          "name": "F#3",
          "ticks": 15558,
          "time": 40.515625,
          "velocity": 0.4881889763779528
        },
        {
          "duration": 0.026041666666664298,
          "durationTicks": 10,
          "midi": 54,
          "name": "F#3",
          "ticks": 15603,
          "time": 40.6328125,
          "velocity": 0.4881889763779528
        },
        {
          "duration": 0.026041666666671404,
          "durationTicks": 10,
          "midi": 36,
          "name": "C2",
          "ticks": 15649,
          "time": 40.752604166666664,
          "velocity": 0.7165354330708661
        },
        {
          "duration": 0.026041666666664298,
          "durationTicks": 10,
          "midi": 42,
          "name": "F#2",
          "ticks": 15650,
          "time": 40.755208333333336,
          "velocity": 0.6062992125984252
        },
        {
          "duration": 0.0234375,
          "durationTicks": 9,
          "midi": 54,
          "name": "F#3",
          "ticks": 15652,
          "time": 40.760416666666664,
          "velocity": 0.5905511811023622
        },
        {
          "duration": 0.0234375,
          "durationTicks": 9,
          "midi": 42,
          "name": "F#2",
          "ticks": 15696,
          "time": 40.875,
          "velocity": 0.5275590551181102
        },
        {
          "duration": 0.026041666666671404,
          "durationTicks": 10,
          "midi": 46,
          "name": "A#2",
          "ticks": 15742,
          "time": 40.994791666666664,
          "velocity": 0.5354330708661418
        },
        {
          "duration": 0.026041666666664298,
          "durationTicks": 10,
          "midi": 54,
          "name": "F#3",
          "ticks": 15744,
          "time": 41,
          "velocity": 0.4881889763779528
        },
        {
          "duration": 0.0234375,
          "durationTicks": 9,
          "midi": 54,
          "name": "F#3",
          "ticks": 15789,
          "time": 41.1171875,
          "velocity": 0.4881889763779528
        },
        {
          "duration": 0.028645833333335702,
          "durationTicks": 11,
          "midi": 36,
          "name": "C2",
          "ticks": 15835,
          "time": 41.236979166666664,
          "velocity": 0.7165354330708661
        },
        {
          "duration": 0.026041666666671404,
          "durationTicks": 10,
          "midi": 38,
          "name": "D2",
          "ticks": 15835,
          "time": 41.236979166666664,
          "velocity": 0.7559055118110236
        },
        {
          "duration": 0.026041666666664298,
          "durationTicks": 10,
          "midi": 39,
          "name": "D#2",
          "ticks": 15836,
          "time": 41.239583333333336,
          "velocity": 0.7244094488188977
        },
        {
          "duration": 0.0234375,
          "durationTicks": 9,
          "midi": 42,
          "name": "F#2",
          "ticks": 15836,
          "time": 41.239583333333336,
          "velocity": 0.6062992125984252
        },
        {
          "duration": 0.026041666666664298,
          "durationTicks": 10,
          "midi": 54,
          "name": "F#3",
          "ticks": 15837,
          "time": 41.2421875,
          "velocity": 0.5905511811023622
        },
        {
          "duration": 0.0234375,
          "durationTicks": 9,
          "midi": 42,
          "name": "F#2",
          "ticks": 15882,
          "time": 41.359375,
          "velocity": 0.5275590551181102
        },
        {
          "duration": 0.026041666666671404,
          "durationTicks": 10,
          "midi": 46,
          "name": "A#2",
          "ticks": 15928,
          "time": 41.479166666666664,
          "velocity": 0.5354330708661418
        },
        {
          "duration": 0.026041666666664298,
          "durationTicks": 10,
          "midi": 54,
          "name": "F#3",
          "ticks": 15929,
          "time": 41.481770833333336,
          "velocity": 0.4881889763779528
        },
        {
          "duration": 0.026041666666664298,
          "durationTicks": 10,
          "midi": 54,
          "name": "F#3",
          "ticks": 15974,
          "time": 41.598958333333336,
          "velocity": 0.4881889763779528
        },
        {
          "duration": 0.026041666666671404,
          "durationTicks": 10,
          "midi": 36,
          "name": "C2",
          "ticks": 16021,
          "time": 41.721354166666664,
          "velocity": 0.7165354330708661
        },
        {
          "duration": 0.026041666666664298,
          "durationTicks": 10,
          "midi": 42,
          "name": "F#2",
          "ticks": 16022,
          "time": 41.723958333333336,
          "velocity": 0.6299212598425197
        },
        {
          "duration": 0.0234375,
          "durationTicks": 9,
          "midi": 54,
          "name": "F#3",
          "ticks": 16024,
          "time": 41.729166666666664,
          "velocity": 0.5905511811023622
        },
        {
          "duration": 0.026041666666664298,
          "durationTicks": 10,
          "midi": 42,
          "name": "F#2",
          "ticks": 16067,
          "time": 41.841145833333336,
          "velocity": 0.5275590551181102
        },
        {
          "duration": 0.026041666666671404,
          "durationTicks": 10,
          "midi": 46,
          "name": "A#2",
          "ticks": 16114,
          "time": 41.963541666666664,
          "velocity": 0.5354330708661418
        },
        {
          "duration": 0.0234375,
          "durationTicks": 9,
          "midi": 54,
          "name": "F#3",
          "ticks": 16115,
          "time": 41.966145833333336,
          "velocity": 0.4881889763779528
        },
        {
          "duration": 0.026041666666664298,
          "durationTicks": 10,
          "midi": 54,
          "name": "F#3",
          "ticks": 16160,
          "time": 42.083333333333336,
          "velocity": 0.4881889763779528
        },
        {
          "duration": 0.026041666666671404,
          "durationTicks": 10,
          "midi": 36,
          "name": "C2",
          "ticks": 16207,
          "time": 42.205729166666664,
          "velocity": 0.7165354330708661
        },
        {
          "duration": 0.026041666666671404,
          "durationTicks": 10,
          "midi": 38,
          "name": "D2",
          "ticks": 16207,
          "time": 42.205729166666664,
          "velocity": 0.7559055118110236
        },
        {
          "duration": 0.0234375,
          "durationTicks": 9,
          "midi": 42,
          "name": "F#2",
          "ticks": 16207,
          "time": 42.205729166666664,
          "velocity": 0.6062992125984252
        },
        {
          "duration": 0.026041666666664298,
          "durationTicks": 10,
          "midi": 39,
          "name": "D#2",
          "ticks": 16208,
          "time": 42.208333333333336,
          "velocity": 0.7244094488188977
        },
        {
          "duration": 0.026041666666664298,
          "durationTicks": 10,
          "midi": 54,
          "name": "F#3",
          "ticks": 16208,
          "time": 42.208333333333336,
          "velocity": 0.5905511811023622
        },
        {
          "duration": 0.026041666666664298,
          "durationTicks": 10,
          "midi": 42,
          "name": "F#2",
          "ticks": 16253,
          "time": 42.325520833333336,
          "velocity": 0.5275590551181102
        },
        {
          "duration": 0.0234375,
          "durationTicks": 9,
          "midi": 46,
          "name": "A#2",
          "ticks": 16300,
          "time": 42.447916666666664,
          "velocity": 0.5354330708661418
        },
        {
          "duration": 0.0234375,
          "durationTicks": 9,
          "midi": 54,
          "name": "F#3",
          "ticks": 16303,
          "time": 42.455729166666664,
          "velocity": 0.4881889763779528
        },
        {
          "duration": 0.026041666666664298,
          "durationTicks": 10,
          "midi": 54,
          "name": "F#3",
          "ticks": 16346,
          "time": 42.567708333333336,
          "velocity": 0.4881889763779528
        },
        {
          "duration": 0.026041666666664298,
          "durationTicks": 10,
          "midi": 36,
          "name": "C2",
          "ticks": 16392,
          "time": 42.6875,
          "velocity": 0.7165354330708661
        },
        {
          "duration": 0.0234375,
          "durationTicks": 9,
          "midi": 42,
          "name": "F#2",
          "ticks": 16393,
          "time": 42.690104166666664,
          "velocity": 0.6062992125984252
        },
        {
          "duration": 0.0234375,
          "durationTicks": 9,
          "midi": 54,
          "name": "F#3",
          "ticks": 16395,
          "time": 42.6953125,
          "velocity": 0.5905511811023622
        },
        {
          "duration": 0.026041666666664298,
          "durationTicks": 10,
          "midi": 42,
          "name": "F#2",
          "ticks": 16439,
          "time": 42.809895833333336,
          "velocity": 0.5275590551181102
        },
        {
          "duration": 0.026041666666664298,
          "durationTicks": 10,
          "midi": 46,
          "name": "A#2",
          "ticks": 16485,
          "time": 42.9296875,
          "velocity": 0.5354330708661418
        },
        {
          "duration": 0.0234375,
          "durationTicks": 9,
          "midi": 54,
          "name": "F#3",
          "ticks": 16487,
          "time": 42.934895833333336,
          "velocity": 0.4881889763779528
        },
        {
          "duration": 0.0234375,
          "durationTicks": 9,
          "midi": 54,
          "name": "F#3",
          "ticks": 16532,
          "time": 43.052083333333336,
          "velocity": 0.4881889763779528
        },
        {
          "duration": 0.026041666666664298,
          "durationTicks": 10,
          "midi": 36,
          "name": "C2",
          "ticks": 16578,
          "time": 43.171875,
          "velocity": 0.7165354330708661
        },
        {
          "duration": 0.0234375,
          "durationTicks": 9,
          "midi": 38,
          "name": "D2",
          "ticks": 16579,
          "time": 43.174479166666664,
          "velocity": 0.7559055118110236
        },
        {
          "duration": 0.026041666666671404,
          "durationTicks": 10,
          "midi": 39,
          "name": "D#2",
          "ticks": 16579,
          "time": 43.174479166666664,
          "velocity": 0.7244094488188977
        },
        {
          "duration": 0.026041666666671404,
          "durationTicks": 10,
          "midi": 42,
          "name": "F#2",
          "ticks": 16579,
          "time": 43.174479166666664,
          "velocity": 0.6062992125984252
        },
        {
          "duration": 0.026041666666664298,
          "durationTicks": 10,
          "midi": 54,
          "name": "F#3",
          "ticks": 16580,
          "time": 43.177083333333336,
          "velocity": 0.5905511811023622
        },
        {
          "duration": 0.0234375,
          "durationTicks": 9,
          "midi": 42,
          "name": "F#2",
          "ticks": 16625,
          "time": 43.294270833333336,
          "velocity": 0.5275590551181102
        },
        {
          "duration": 0.026041666666664298,
          "durationTicks": 10,
          "midi": 46,
          "name": "A#2",
          "ticks": 16671,
          "time": 43.4140625,
          "velocity": 0.5354330708661418
        },
        {
          "duration": 0.026041666666664298,
          "durationTicks": 10,
          "midi": 54,
          "name": "F#3",
          "ticks": 16673,
          "time": 43.419270833333336,
          "velocity": 0.4881889763779528
        },
        {
          "duration": 0.026041666666671404,
          "durationTicks": 10,
          "midi": 54,
          "name": "F#3",
          "ticks": 16717,
          "time": 43.533854166666664,
          "velocity": 0.4881889763779528
        },
        {
          "duration": 0.026041666666664298,
          "durationTicks": 10,
          "midi": 36,
          "name": "C2",
          "ticks": 16764,
          "time": 43.65625,
          "velocity": 0.7165354330708661
        },
        {
          "duration": 0.026041666666664298,
          "durationTicks": 10,
          "midi": 42,
          "name": "F#2",
          "ticks": 16764,
          "time": 43.65625,
          "velocity": 0.6299212598425197
        },
        {
          "duration": 0.0234375,
          "durationTicks": 9,
          "midi": 57,
          "name": "A3",
          "ticks": 16765,
          "time": 43.658854166666664,
          "velocity": 0.6771653543307087
        },
        {
          "duration": 0.026041666666664298,
          "durationTicks": 10,
          "midi": 54,
          "name": "F#3",
          "ticks": 16766,
          "time": 43.661458333333336,
          "velocity": 0.5905511811023622
        },
        {
          "duration": 0.026041666666671404,
          "durationTicks": 10,
          "midi": 42,
          "name": "F#2",
          "ticks": 16810,
          "time": 43.776041666666664,
          "velocity": 0.5275590551181102
        },
        {
          "duration": 0.026041666666664298,
          "durationTicks": 10,
          "midi": 46,
          "name": "A#2",
          "ticks": 16857,
          "time": 43.8984375,
          "velocity": 0.5354330708661418
        },
        {
          "duration": 0.026041666666671404,
          "durationTicks": 10,
          "midi": 54,
          "name": "F#3",
          "ticks": 16858,
          "time": 43.901041666666664,
          "velocity": 0.4881889763779528
        },
        {
          "duration": 0.026041666666671404,
          "durationTicks": 10,
          "midi": 54,
          "name": "F#3",
          "ticks": 16903,
          "time": 44.018229166666664,
          "velocity": 0.4881889763779528
        },
        {
          "duration": 0.026041666666664298,
          "durationTicks": 10,
          "midi": 36,
          "name": "C2",
          "ticks": 16950,
          "time": 44.140625,
          "velocity": 0.7165354330708661
        },
        {
          "duration": 0.026041666666664298,
          "durationTicks": 10,
          "midi": 38,
          "name": "D2",
          "ticks": 16950,
          "time": 44.140625,
          "velocity": 0.7559055118110236
        },
        {
          "duration": 0.026041666666671404,
          "durationTicks": 10,
          "midi": 39,
          "name": "D#2",
          "ticks": 16951,
          "time": 44.143229166666664,
          "velocity": 0.7244094488188977
        },
        {
          "duration": 0.020833333333335702,
          "durationTicks": 8,
          "midi": 42,
          "name": "F#2",
          "ticks": 16951,
          "time": 44.143229166666664,
          "velocity": 0.6062992125984252
        },
        {
          "duration": 0.026041666666671404,
          "durationTicks": 10,
          "midi": 54,
          "name": "F#3",
          "ticks": 16951,
          "time": 44.143229166666664,
          "velocity": 0.5905511811023622
        },
        {
          "duration": 0.026041666666671404,
          "durationTicks": 10,
          "midi": 42,
          "name": "F#2",
          "ticks": 16996,
          "time": 44.260416666666664,
          "velocity": 0.5275590551181102
        },
        {
          "duration": 0.0234375,
          "durationTicks": 9,
          "midi": 46,
          "name": "A#2",
          "ticks": 17043,
          "time": 44.3828125,
          "velocity": 0.5354330708661418
        },
        {
          "duration": 0.0234375,
          "durationTicks": 9,
          "midi": 54,
          "name": "F#3",
          "ticks": 17046,
          "time": 44.390625,
          "velocity": 0.4881889763779528
        },
        {
          "duration": 0.026041666666671404,
          "durationTicks": 10,
          "midi": 54,
          "name": "F#3",
          "ticks": 17089,
          "time": 44.502604166666664,
          "velocity": 0.4881889763779528
        },
        {
          "duration": 0.026041666666664298,
          "durationTicks": 10,
          "midi": 36,
          "name": "C2",
          "ticks": 17136,
          "time": 44.625,
          "velocity": 0.7165354330708661
        },
        {
          "duration": 0.0234375,
          "durationTicks": 9,
          "midi": 42,
          "name": "F#2",
          "ticks": 17136,
          "time": 44.625,
          "velocity": 0.6062992125984252
        },
        {
          "duration": 0.026041666666664298,
          "durationTicks": 10,
          "midi": 54,
          "name": "F#3",
          "ticks": 17138,
          "time": 44.630208333333336,
          "velocity": 0.5905511811023622
        },
        {
          "duration": 0.026041666666671404,
          "durationTicks": 10,
          "midi": 42,
          "name": "F#2",
          "ticks": 17182,
          "time": 44.744791666666664,
          "velocity": 0.5275590551181102
        },
        {
          "duration": 0.026041666666664298,
          "durationTicks": 10,
          "midi": 46,
          "name": "A#2",
          "ticks": 17228,
          "time": 44.864583333333336,
          "velocity": 0.5354330708661418
        },
        {
          "duration": 0.0234375,
          "durationTicks": 9,
          "midi": 54,
          "name": "F#3",
          "ticks": 17230,
          "time": 44.869791666666664,
          "velocity": 0.4881889763779528
        },
        {
          "duration": 0.026041666666671404,
          "durationTicks": 10,
          "midi": 54,
          "name": "F#3",
          "ticks": 17275,
          "time": 44.986979166666664,
          "velocity": 0.4881889763779528
        },
        {
          "duration": 0.028645833333328596,
          "durationTicks": 11,
          "midi": 36,
          "name": "C2",
          "ticks": 17321,
          "time": 45.106770833333336,
          "velocity": 0.7165354330708661
        },
        {
          "duration": 0.026041666666664298,
          "durationTicks": 10,
          "midi": 38,
          "name": "D2",
          "ticks": 17322,
          "time": 45.109375,
          "velocity": 0.7559055118110236
        },
        {
          "duration": 0.026041666666664298,
          "durationTicks": 10,
          "midi": 39,
          "name": "D#2",
          "ticks": 17322,
          "time": 45.109375,
          "velocity": 0.7244094488188977
        },
        {
          "duration": 0.0234375,
          "durationTicks": 9,
          "midi": 42,
          "name": "F#2",
          "ticks": 17322,
          "time": 45.109375,
          "velocity": 0.6062992125984252
        },
        {
          "duration": 0.026041666666671404,
          "durationTicks": 10,
          "midi": 54,
          "name": "F#3",
          "ticks": 17323,
          "time": 45.111979166666664,
          "velocity": 0.5905511811023622
        },
        {
          "duration": 0.0234375,
          "durationTicks": 9,
          "midi": 42,
          "name": "F#2",
          "ticks": 17368,
          "time": 45.229166666666664,
          "velocity": 0.5275590551181102
        },
        {
          "duration": 0.026041666666664298,
          "durationTicks": 10,
          "midi": 46,
          "name": "A#2",
          "ticks": 17414,
          "time": 45.348958333333336,
          "velocity": 0.5354330708661418
        },
        {
          "duration": 0.026041666666664298,
          "durationTicks": 10,
          "midi": 54,
          "name": "F#3",
          "ticks": 17417,
          "time": 45.356770833333336,
          "velocity": 0.4881889763779528
        },
        {
          "duration": 0.0234375,
          "durationTicks": 9,
          "midi": 54,
          "name": "F#3",
          "ticks": 17463,
          "time": 45.4765625,
          "velocity": 0.4881889763779528
        },
        {
          "duration": 0.026041666666664298,
          "durationTicks": 10,
          "midi": 36,
          "name": "C2",
          "ticks": 17507,
          "time": 45.591145833333336,
          "velocity": 0.7165354330708661
        },
        {
          "duration": 0.026041666666664298,
          "durationTicks": 10,
          "midi": 42,
          "name": "F#2",
          "ticks": 17507,
          "time": 45.591145833333336,
          "velocity": 0.6299212598425197
        },
        {
          "duration": 0.0234375,
          "durationTicks": 9,
          "midi": 49,
          "name": "C#3",
          "ticks": 17509,
          "time": 45.596354166666664,
          "velocity": 0.6771653543307087
        },
        {
          "duration": 0.026041666666664298,
          "durationTicks": 10,
          "midi": 54,
          "name": "F#3",
          "ticks": 17510,
          "time": 45.598958333333336,
          "velocity": 0.5905511811023622
        },
        {
          "duration": 0.0234375,
          "durationTicks": 9,
          "midi": 42,
          "name": "F#2",
          "ticks": 17554,
          "time": 45.713541666666664,
          "velocity": 0.5275590551181102
        },
        {
          "duration": 0.026041666666664298,
          "durationTicks": 10,
          "midi": 46,
          "name": "A#2",
          "ticks": 17600,
          "time": 45.833333333333336,
          "velocity": 0.5354330708661418
        },
        {
          "duration": 0.026041666666664298,
          "durationTicks": 10,
          "midi": 54,
          "name": "F#3",
          "ticks": 17601,
          "time": 45.8359375,
          "velocity": 0.4881889763779528
        },
        {
          "duration": 0.0234375,
          "durationTicks": 9,
          "midi": 54,
          "name": "F#3",
          "ticks": 17647,
          "time": 45.955729166666664,
          "velocity": 0.4881889763779528
        },
        {
          "duration": 0.026041666666664298,
          "durationTicks": 10,
          "midi": 36,
          "name": "C2",
          "ticks": 17693,
          "time": 46.075520833333336,
          "velocity": 0.7165354330708661
        },
        {
          "duration": 0.026041666666664298,
          "durationTicks": 10,
          "midi": 38,
          "name": "D2",
          "ticks": 17693,
          "time": 46.075520833333336,
          "velocity": 0.7559055118110236
        },
        {
          "duration": 0.026041666666664298,
          "durationTicks": 10,
          "midi": 39,
          "name": "D#2",
          "ticks": 17694,
          "time": 46.078125,
          "velocity": 0.7244094488188977
        },
        {
          "duration": 0.026041666666664298,
          "durationTicks": 10,
          "midi": 42,
          "name": "F#2",
          "ticks": 17694,
          "time": 46.078125,
          "velocity": 0.6062992125984252
        },
        {
          "duration": 0.026041666666671404,
          "durationTicks": 10,
          "midi": 54,
          "name": "F#3",
          "ticks": 17695,
          "time": 46.080729166666664,
          "velocity": 0.5905511811023622
        },
        {
          "duration": 0.026041666666664298,
          "durationTicks": 10,
          "midi": 42,
          "name": "F#2",
          "ticks": 17739,
          "time": 46.1953125,
          "velocity": 0.5275590551181102
        },
        {
          "duration": 0.026041666666664298,
          "durationTicks": 10,
          "midi": 46,
          "name": "A#2",
          "ticks": 17786,
          "time": 46.317708333333336,
          "velocity": 0.5354330708661418
        },
        {
          "duration": 0.0234375,
          "durationTicks": 9,
          "midi": 54,
          "name": "F#3",
          "ticks": 17787,
          "time": 46.3203125,
          "velocity": 0.4881889763779528
        },
        {
          "duration": 0.026041666666664298,
          "durationTicks": 10,
          "midi": 54,
          "name": "F#3",
          "ticks": 17832,
          "time": 46.4375,
          "velocity": 0.4881889763779528
        },
        {
          "duration": 0.026041666666664298,
          "durationTicks": 10,
          "midi": 36,
          "name": "C2",
          "ticks": 17879,
          "time": 46.559895833333336,
          "velocity": 0.7165354330708661
        },
        {
          "duration": 0.0234375,
          "durationTicks": 9,
          "midi": 42,
          "name": "F#2",
          "ticks": 17879,
          "time": 46.559895833333336,
          "velocity": 0.6062992125984252
        },
        {
          "duration": 0.0234375,
          "durationTicks": 9,
          "midi": 54,
          "name": "F#3",
          "ticks": 17880,
          "time": 46.5625,
          "velocity": 0.5905511811023622
        },
        {
          "duration": 0.026041666666664298,
          "durationTicks": 10,
          "midi": 42,
          "name": "F#2",
          "ticks": 17925,
          "time": 46.6796875,
          "velocity": 0.5275590551181102
        },
        {
          "duration": 0.0234375,
          "durationTicks": 9,
          "midi": 46,
          "name": "A#2",
          "ticks": 17972,
          "time": 46.802083333333336,
          "velocity": 0.5354330708661418
        },
        {
          "duration": 0.026041666666664298,
          "durationTicks": 10,
          "midi": 54,
          "name": "F#3",
          "ticks": 17972,
          "time": 46.802083333333336,
          "velocity": 0.4881889763779528
        },
        {
          "duration": 0.026041666666664298,
          "durationTicks": 10,
          "midi": 54,
          "name": "F#3",
          "ticks": 18018,
          "time": 46.921875,
          "velocity": 0.4881889763779528
        },
        {
          "duration": 0.0234375,
          "durationTicks": 9,
          "midi": 36,
          "name": "C2",
          "ticks": 18065,
          "time": 47.044270833333336,
          "velocity": 0.7165354330708661
        },
        {
          "duration": 0.0234375,
          "durationTicks": 9,
          "midi": 38,
          "name": "D2",
          "ticks": 18065,
          "time": 47.044270833333336,
          "velocity": 0.7559055118110236
        },
        {
          "duration": 0.028645833333328596,
          "durationTicks": 11,
          "midi": 39,
          "name": "D#2",
          "ticks": 18065,
          "time": 47.044270833333336,
          "velocity": 0.7244094488188977
        },
        {
          "duration": 0.0234375,
          "durationTicks": 9,
          "midi": 42,
          "name": "F#2",
          "ticks": 18066,
          "time": 47.046875,
          "velocity": 0.6062992125984252
        },
        {
          "duration": 0.026041666666664298,
          "durationTicks": 10,
          "midi": 54,
          "name": "F#3",
          "ticks": 18066,
          "time": 47.046875,
          "velocity": 0.5905511811023622
        },
        {
          "duration": 0.026041666666664298,
          "durationTicks": 10,
          "midi": 42,
          "name": "F#2",
          "ticks": 18111,
          "time": 47.1640625,
          "velocity": 0.5275590551181102
        },
        {
          "duration": 0.0234375,
          "durationTicks": 9,
          "midi": 46,
          "name": "A#2",
          "ticks": 18158,
          "time": 47.286458333333336,
          "velocity": 0.5354330708661418
        },
        {
          "duration": 0.0234375,
          "durationTicks": 9,
          "midi": 54,
          "name": "F#3",
          "ticks": 18159,
          "time": 47.2890625,
          "velocity": 0.4881889763779528
        },
        {
          "duration": 0.026041666666664298,
          "durationTicks": 10,
          "midi": 54,
          "name": "F#3",
          "ticks": 18204,
          "time": 47.40625,
          "velocity": 0.4881889763779528
        },
        {
          "duration": 0.026041666666671404,
          "durationTicks": 10,
          "midi": 36,
          "name": "C2",
          "ticks": 18250,
          "time": 47.526041666666664,
          "velocity": 0.7165354330708661
        },
        {
          "duration": 0.026041666666664298,
          "durationTicks": 10,
          "midi": 42,
          "name": "F#2",
          "ticks": 18251,
          "time": 47.528645833333336,
          "velocity": 0.6299212598425197
        },
        {
          "duration": 0.0234375,
          "durationTicks": 9,
          "midi": 57,
          "name": "A3",
          "ticks": 18252,
          "time": 47.53125,
          "velocity": 0.6771653543307087
        },
        {
          "duration": 0.0234375,
          "durationTicks": 9,
          "midi": 54,
          "name": "F#3",
          "ticks": 18253,
          "time": 47.533854166666664,
          "velocity": 0.5905511811023622
        },
        {
          "duration": 0.026041666666664298,
          "durationTicks": 10,
          "midi": 42,
          "name": "F#2",
          "ticks": 18297,
          "time": 47.6484375,
          "velocity": 0.5275590551181102
        },
        {
          "duration": 0.026041666666671404,
          "durationTicks": 10,
          "midi": 46,
          "name": "A#2",
          "ticks": 18343,
          "time": 47.768229166666664,
          "velocity": 0.5354330708661418
        },
        {
          "duration": 0.0234375,
          "durationTicks": 9,
          "midi": 54,
          "name": "F#3",
          "ticks": 18345,
          "time": 47.7734375,
          "velocity": 0.4881889763779528
        },
        {
          "duration": 0.0234375,
          "durationTicks": 9,
          "midi": 54,
          "name": "F#3",
          "ticks": 18390,
          "time": 47.890625,
          "velocity": 0.4881889763779528
        },
        {
          "duration": 0.028645833333335702,
          "durationTicks": 11,
          "midi": 36,
          "name": "C2",
          "ticks": 18436,
          "time": 48.010416666666664,
          "velocity": 0.7165354330708661
        },
        {
          "duration": 0.0234375,
          "durationTicks": 9,
          "midi": 38,
          "name": "D2",
          "ticks": 18437,
          "time": 48.013020833333336,
          "velocity": 0.7559055118110236
        },
        {
          "duration": 0.0234375,
          "durationTicks": 9,
          "midi": 42,
          "name": "F#2",
          "ticks": 18437,
          "time": 48.013020833333336,
          "velocity": 0.6062992125984252
        },
        {
          "duration": 0.0234375,
          "durationTicks": 9,
          "midi": 39,
          "name": "D#2",
          "ticks": 18438,
          "time": 48.015625,
          "velocity": 0.7244094488188977
        },
        {
          "duration": 0.0234375,
          "durationTicks": 9,
          "midi": 54,
          "name": "F#3",
          "ticks": 18438,
          "time": 48.015625,
          "velocity": 0.5905511811023622
        },
        {
          "duration": 0.0234375,
          "durationTicks": 9,
          "midi": 42,
          "name": "F#2",
          "ticks": 18483,
          "time": 48.1328125,
          "velocity": 0.5275590551181102
        },
        {
          "duration": 0.026041666666671404,
          "durationTicks": 10,
          "midi": 46,
          "name": "A#2",
          "ticks": 18529,
          "time": 48.252604166666664,
          "velocity": 0.5354330708661418
        },
        {
          "duration": 0.026041666666664298,
          "durationTicks": 10,
          "midi": 54,
          "name": "F#3",
          "ticks": 18530,
          "time": 48.255208333333336,
          "velocity": 0.4881889763779528
        },
        {
          "duration": 0.0234375,
          "durationTicks": 9,
          "midi": 54,
          "name": "F#3",
          "ticks": 18576,
          "time": 48.375,
          "velocity": 0.4881889763779528
        },
        {
          "duration": 0.026041666666671404,
          "durationTicks": 10,
          "midi": 36,
          "name": "C2",
          "ticks": 18622,
          "time": 48.494791666666664,
          "velocity": 0.7165354330708661
        },
        {
          "duration": 0.026041666666671404,
          "durationTicks": 10,
          "midi": 42,
          "name": "F#2",
          "ticks": 18622,
          "time": 48.494791666666664,
          "velocity": 0.6062992125984252
        },
        {
          "duration": 0.026041666666664298,
          "durationTicks": 10,
          "midi": 54,
          "name": "F#3",
          "ticks": 18623,
          "time": 48.497395833333336,
          "velocity": 0.5905511811023622
        },
        {
          "duration": 0.026041666666664298,
          "durationTicks": 10,
          "midi": 42,
          "name": "F#2",
          "ticks": 18668,
          "time": 48.614583333333336,
          "velocity": 0.5275590551181102
        },
        {
          "duration": 0.026041666666671404,
          "durationTicks": 10,
          "midi": 46,
          "name": "A#2",
          "ticks": 18715,
          "time": 48.736979166666664,
          "velocity": 0.5354330708661418
        },
        {
          "duration": 0.0234375,
          "durationTicks": 9,
          "midi": 54,
          "name": "F#3",
          "ticks": 18717,
          "time": 48.7421875,
          "velocity": 0.4881889763779528
        },
        {
          "duration": 0.026041666666671404,
          "durationTicks": 10,
          "midi": 54,
          "name": "F#3",
          "ticks": 18763,
          "time": 48.861979166666664,
          "velocity": 0.4881889763779528
        },
        {
          "duration": 0.026041666666671404,
          "durationTicks": 10,
          "midi": 36,
          "name": "C2",
          "ticks": 18808,
          "time": 48.979166666666664,
          "velocity": 0.7165354330708661
        },
        {
          "duration": 0.026041666666671404,
          "durationTicks": 10,
          "midi": 38,
          "name": "D2",
          "ticks": 18808,
          "time": 48.979166666666664,
          "velocity": 0.7559055118110236
        },
        {
          "duration": 0.0234375,
          "durationTicks": 9,
          "midi": 42,
          "name": "F#2",
          "ticks": 18808,
          "time": 48.979166666666664,
          "velocity": 0.6062992125984252
        },
        {
          "duration": 0.0234375,
          "durationTicks": 9,
          "midi": 39,
          "name": "D#2",
          "ticks": 18810,
          "time": 48.984375,
          "velocity": 0.7244094488188977
        },
        {
          "duration": 0.020833333333335702,
          "durationTicks": 8,
          "midi": 54,
          "name": "F#3",
          "ticks": 18811,
          "time": 48.986979166666664,
          "velocity": 0.5905511811023622
        },
        {
          "duration": 0.026041666666664298,
          "durationTicks": 10,
          "midi": 42,
          "name": "F#2",
          "ticks": 18854,
          "time": 49.098958333333336,
          "velocity": 0.5275590551181102
        },
        {
          "duration": 0.0234375,
          "durationTicks": 9,
          "midi": 46,
          "name": "A#2",
          "ticks": 18901,
          "time": 49.221354166666664,
          "velocity": 0.5354330708661418
        },
        {
          "duration": 0.0234375,
          "durationTicks": 9,
          "midi": 54,
          "name": "F#3",
          "ticks": 18902,
          "time": 49.223958333333336,
          "velocity": 0.4881889763779528
        },
        {
          "duration": 0.026041666666664298,
          "durationTicks": 10,
          "midi": 54,
          "name": "F#3",
          "ticks": 18947,
          "time": 49.341145833333336,
          "velocity": 0.4881889763779528
        },
        {
          "duration": 0.028645833333335702,
          "durationTicks": 11,
          "midi": 36,
          "name": "C2",
          "ticks": 18993,
          "time": 49.4609375,
          "velocity": 0.7165354330708661
        },
        {
          "duration": 0.0234375,
          "durationTicks": 9,
          "midi": 42,
          "name": "F#2",
          "ticks": 18994,
          "time": 49.463541666666664,
          "velocity": 0.6299212598425197
        },
        {
          "duration": 0.0234375,
          "durationTicks": 9,
          "midi": 54,
          "name": "F#3",
          "ticks": 18995,
          "time": 49.466145833333336,
          "velocity": 0.5905511811023622
        },
        {
          "duration": 0.026041666666664298,
          "durationTicks": 10,
          "midi": 42,
          "name": "F#2",
          "ticks": 19040,
          "time": 49.583333333333336,
          "velocity": 0.5275590551181102
        },
        {
          "duration": 0.026041666666664298,
          "durationTicks": 10,
          "midi": 46,
          "name": "A#2",
          "ticks": 19086,
          "time": 49.703125,
          "velocity": 0.5354330708661418
        },
        {
          "duration": 0.026041666666664298,
          "durationTicks": 10,
          "midi": 54,
          "name": "F#3",
          "ticks": 19088,
          "time": 49.708333333333336,
          "velocity": 0.4881889763779528
        },
        {
          "duration": 0.026041666666664298,
          "durationTicks": 10,
          "midi": 54,
          "name": "F#3",
          "ticks": 19133,
          "time": 49.825520833333336,
          "velocity": 0.4881889763779528
        },
        {
          "duration": 0.026041666666664298,
          "durationTicks": 10,
          "midi": 36,
          "name": "C2",
          "ticks": 19179,
          "time": 49.9453125,
          "velocity": 0.7165354330708661
        },
        {
          "duration": 0.0234375,
          "durationTicks": 9,
          "midi": 38,
          "name": "D2",
          "ticks": 19180,
          "time": 49.947916666666664,
          "velocity": 0.7559055118110236
        },
        {
          "duration": 0.026041666666671404,
          "durationTicks": 10,
          "midi": 39,
          "name": "D#2",
          "ticks": 19180,
          "time": 49.947916666666664,
          "velocity": 0.7244094488188977
        },
        {
          "duration": 0.0234375,
          "durationTicks": 9,
          "midi": 42,
          "name": "F#2",
          "ticks": 19181,
          "time": 49.950520833333336,
          "velocity": 0.6062992125984252
        },
        {
          "duration": 0.0234375,
          "durationTicks": 9,
          "midi": 54,
          "name": "F#3",
          "ticks": 19182,
          "time": 49.953125,
          "velocity": 0.5905511811023622
        },
        {
          "duration": 0.0234375,
          "durationTicks": 9,
          "midi": 42,
          "name": "F#2",
          "ticks": 19226,
          "time": 50.067708333333336,
          "velocity": 0.5275590551181102
        },
        {
          "duration": 0.026041666666671404,
          "durationTicks": 10,
          "midi": 46,
          "name": "A#2",
          "ticks": 19273,
          "time": 50.190104166666664,
          "velocity": 0.5354330708661418
        },
        {
          "duration": 0.0234375,
          "durationTicks": 9,
          "midi": 54,
          "name": "F#3",
          "ticks": 19275,
          "time": 50.1953125,
          "velocity": 0.4881889763779528
        },
        {
          "duration": 0.026041666666671404,
          "durationTicks": 10,
          "midi": 54,
          "name": "F#3",
          "ticks": 19318,
          "time": 50.307291666666664,
          "velocity": 0.4881889763779528
        },
        {
          "duration": 0.026041666666664298,
          "durationTicks": 10,
          "midi": 36,
          "name": "C2",
          "ticks": 19365,
          "time": 50.4296875,
          "velocity": 0.7165354330708661
        },
        {
          "duration": 0.0234375,
          "durationTicks": 9,
          "midi": 42,
          "name": "F#2",
          "ticks": 19366,
          "time": 50.432291666666664,
          "velocity": 0.6062992125984252
        },
        {
          "duration": 0.026041666666664298,
          "durationTicks": 10,
          "midi": 54,
          "name": "F#3",
          "ticks": 19367,
          "time": 50.434895833333336,
          "velocity": 0.5905511811023622
        },
        {
          "duration": 0.026041666666671404,
          "durationTicks": 10,
          "midi": 42,
          "name": "F#2",
          "ticks": 19411,
          "time": 50.549479166666664,
          "velocity": 0.5275590551181102
        },
        {
          "duration": 0.026041666666671404,
          "durationTicks": 10,
          "midi": 46,
          "name": "A#2",
          "ticks": 19459,
          "time": 50.674479166666664,
          "velocity": 0.5354330708661418
        },
        {
          "duration": 0.0234375,
          "durationTicks": 9,
          "midi": 54,
          "name": "F#3",
          "ticks": 19460,
          "time": 50.677083333333336,
          "velocity": 0.4881889763779528
        },
        {
          "duration": 0.026041666666671404,
          "durationTicks": 10,
          "midi": 54,
          "name": "F#3",
          "ticks": 19504,
          "time": 50.791666666666664,
          "velocity": 0.4881889763779528
        },
        {
          "duration": 0.026041666666664298,
          "durationTicks": 10,
          "midi": 36,
          "name": "C2",
          "ticks": 19551,
          "time": 50.9140625,
          "velocity": 0.7165354330708661
        },
        {
          "duration": 0.0234375,
          "durationTicks": 9,
          "midi": 38,
          "name": "D2",
          "ticks": 19551,
          "time": 50.9140625,
          "velocity": 0.7559055118110236
        },
        {
          "duration": 0.026041666666671404,
          "durationTicks": 10,
          "midi": 39,
          "name": "D#2",
          "ticks": 19552,
          "time": 50.916666666666664,
          "velocity": 0.7244094488188977
        },
        {
          "duration": 0.026041666666671404,
          "durationTicks": 10,
          "midi": 42,
          "name": "F#2",
          "ticks": 19552,
          "time": 50.916666666666664,
          "velocity": 0.6062992125984252
        },
        {
          "duration": 0.0234375,
          "durationTicks": 9,
          "midi": 54,
          "name": "F#3",
          "ticks": 19553,
          "time": 50.919270833333336,
          "velocity": 0.5905511811023622
        },
        {
          "duration": 0.026041666666671404,
          "durationTicks": 10,
          "midi": 42,
          "name": "F#2",
          "ticks": 19597,
          "time": 51.033854166666664,
          "velocity": 0.5275590551181102
        },
        {
          "duration": 0.0234375,
          "durationTicks": 9,
          "midi": 46,
          "name": "A#2",
          "ticks": 19644,
          "time": 51.15625,
          "velocity": 0.5354330708661418
        },
        {
          "duration": 0.0234375,
          "durationTicks": 9,
          "midi": 54,
          "name": "F#3",
          "ticks": 19647,
          "time": 51.1640625,
          "velocity": 0.4881889763779528
        },
        {
          "duration": 0.026041666666671404,
          "durationTicks": 10,
          "midi": 54,
          "name": "F#3",
          "ticks": 19690,
          "time": 51.276041666666664,
          "velocity": 0.4881889763779528
        },
        {
          "duration": 0.026041666666664298,
          "durationTicks": 10,
          "midi": 36,
          "name": "C2",
          "ticks": 19737,
          "time": 51.3984375,
          "velocity": 0.7165354330708661
        },
        {
          "duration": 0.0234375,
          "durationTicks": 9,
          "midi": 42,
          "name": "F#2",
          "ticks": 19737,
          "time": 51.3984375,
          "velocity": 0.6299212598425197
        },
        {
          "duration": 0.026041666666664298,
          "durationTicks": 10,
          "midi": 49,
          "name": "C#3",
          "ticks": 19737,
          "time": 51.3984375,
          "velocity": 0.6771653543307087
        },
        {
          "duration": 0.0234375,
          "durationTicks": 9,
          "midi": 54,
          "name": "F#3",
          "ticks": 19739,
          "time": 51.403645833333336,
          "velocity": 0.5905511811023622
        },
        {
          "duration": 0.026041666666671404,
          "durationTicks": 10,
          "midi": 42,
          "name": "F#2",
          "ticks": 19783,
          "time": 51.518229166666664,
          "velocity": 0.5275590551181102
        },
        {
          "duration": 0.0234375,
          "durationTicks": 9,
          "midi": 46,
          "name": "A#2",
          "ticks": 19830,
          "time": 51.640625,
          "velocity": 0.5354330708661418
        },
        {
          "duration": 0.0234375,
          "durationTicks": 9,
          "midi": 54,
          "name": "F#3",
          "ticks": 19831,
          "time": 51.643229166666664,
          "velocity": 0.4881889763779528
        },
        {
          "duration": 0.026041666666671404,
          "durationTicks": 10,
          "midi": 54,
          "name": "F#3",
          "ticks": 19876,
          "time": 51.760416666666664,
          "velocity": 0.4881889763779528
        },
        {
          "duration": 0.026041666666664298,
          "durationTicks": 10,
          "midi": 36,
          "name": "C2",
          "ticks": 19923,
          "time": 51.8828125,
          "velocity": 0.7165354330708661
        },
        {
          "duration": 0.0234375,
          "durationTicks": 9,
          "midi": 38,
          "name": "D2",
          "ticks": 19923,
          "time": 51.8828125,
          "velocity": 0.7559055118110236
        },
        {
          "duration": 0.026041666666664298,
          "durationTicks": 10,
          "midi": 39,
          "name": "D#2",
          "ticks": 19923,
          "time": 51.8828125,
          "velocity": 0.7244094488188977
        },
        {
          "duration": 0.0234375,
          "durationTicks": 9,
          "midi": 42,
          "name": "F#2",
          "ticks": 19924,
          "time": 51.885416666666664,
          "velocity": 0.6062992125984252
        },
        {
          "duration": 0.0234375,
          "durationTicks": 9,
          "midi": 54,
          "name": "F#3",
          "ticks": 19925,
          "time": 51.888020833333336,
          "velocity": 0.5905511811023622
        },
        {
          "duration": 0.026041666666671404,
          "durationTicks": 10,
          "midi": 42,
          "name": "F#2",
          "ticks": 19969,
          "time": 52.002604166666664,
          "velocity": 0.5275590551181102
        },
        {
          "duration": 0.026041666666664298,
          "durationTicks": 10,
          "midi": 46,
          "name": "A#2",
          "ticks": 20015,
          "time": 52.122395833333336,
          "velocity": 0.5354330708661418
        },
        {
          "duration": 0.026041666666664298,
          "durationTicks": 10,
          "midi": 54,
          "name": "F#3",
          "ticks": 20018,
          "time": 52.130208333333336,
          "velocity": 0.4881889763779528
        },
        {
          "duration": 0.0234375,
          "durationTicks": 9,
          "midi": 54,
          "name": "F#3",
          "ticks": 20062,
          "time": 52.244791666666664,
          "velocity": 0.4881889763779528
        },
        {
          "duration": 0.026041666666664298,
          "durationTicks": 10,
          "midi": 36,
          "name": "C2",
          "ticks": 20108,
          "time": 52.364583333333336,
          "velocity": 0.7165354330708661
        },
        {
          "duration": 0.0234375,
          "durationTicks": 9,
          "midi": 42,
          "name": "F#2",
          "ticks": 20109,
          "time": 52.3671875,
          "velocity": 0.6062992125984252
        },
        {
          "duration": 0.0234375,
          "durationTicks": 9,
          "midi": 54,
          "name": "F#3",
          "ticks": 20110,
          "time": 52.369791666666664,
          "velocity": 0.5905511811023622
        },
        {
          "duration": 0.0234375,
          "durationTicks": 9,
          "midi": 42,
          "name": "F#2",
          "ticks": 20155,
          "time": 52.486979166666664,
          "velocity": 0.5275590551181102
        },
        {
          "duration": 0.026041666666664298,
          "durationTicks": 10,
          "midi": 46,
          "name": "A#2",
          "ticks": 20201,
          "time": 52.606770833333336,
          "velocity": 0.5354330708661418
        },
        {
          "duration": 0.026041666666664298,
          "durationTicks": 10,
          "midi": 54,
          "name": "F#3",
          "ticks": 20204,
          "time": 52.614583333333336,
          "velocity": 0.4881889763779528
        },
        {
          "duration": 0.0234375,
          "durationTicks": 9,
          "midi": 54,
          "name": "F#3",
          "ticks": 20250,
          "time": 52.734375,
          "velocity": 0.4881889763779528
        },
        {
          "duration": 0.028645833333328596,
          "durationTicks": 11,
          "midi": 36,
          "name": "C2",
          "ticks": 20294,
          "time": 52.848958333333336,
          "velocity": 0.7165354330708661
        },
        {
          "duration": 0.026041666666664298,
          "durationTicks": 10,
          "midi": 38,
          "name": "D2",
          "ticks": 20294,
          "time": 52.848958333333336,
          "velocity": 0.7559055118110236
        },
        {
          "duration": 0.0234375,
          "durationTicks": 9,
          "midi": 42,
          "name": "F#2",
          "ticks": 20295,
          "time": 52.8515625,
          "velocity": 0.6062992125984252
        },
        {
          "duration": 0.0234375,
          "durationTicks": 9,
          "midi": 39,
          "name": "D#2",
          "ticks": 20296,
          "time": 52.854166666666664,
          "velocity": 0.7244094488188977
        },
        {
          "duration": 0.0234375,
          "durationTicks": 9,
          "midi": 54,
          "name": "F#3",
          "ticks": 20297,
          "time": 52.856770833333336,
          "velocity": 0.5905511811023622
        },
        {
          "duration": 0.0234375,
          "durationTicks": 9,
          "midi": 42,
          "name": "F#2",
          "ticks": 20341,
          "time": 52.971354166666664,
          "velocity": 0.5275590551181102
        },
        {
          "duration": 0.026041666666664298,
          "durationTicks": 10,
          "midi": 46,
          "name": "A#2",
          "ticks": 20387,
          "time": 53.091145833333336,
          "velocity": 0.5354330708661418
        },
        {
          "duration": 0.026041666666664298,
          "durationTicks": 10,
          "midi": 54,
          "name": "F#3",
          "ticks": 20388,
          "time": 53.09375,
          "velocity": 0.4881889763779528
        },
        {
          "duration": 0.026041666666664298,
          "durationTicks": 10,
          "midi": 54,
          "name": "F#3",
          "ticks": 20433,
          "time": 53.2109375,
          "velocity": 0.4881889763779528
        },
        {
          "duration": 0.026041666666664298,
          "durationTicks": 10,
          "midi": 36,
          "name": "C2",
          "ticks": 20480,
          "time": 53.333333333333336,
          "velocity": 0.7165354330708661
        },
        {
          "duration": 0.0234375,
          "durationTicks": 9,
          "midi": 42,
          "name": "F#2",
          "ticks": 20480,
          "time": 53.333333333333336,
          "velocity": 0.6299212598425197
        },
        {
          "duration": 0.0234375,
          "durationTicks": 9,
          "midi": 54,
          "name": "F#3",
          "ticks": 20481,
          "time": 53.3359375,
          "velocity": 0.5905511811023622
        },
        {
          "duration": 0.026041666666664298,
          "durationTicks": 10,
          "midi": 42,
          "name": "F#2",
          "ticks": 20526,
          "time": 53.453125,
          "velocity": 0.5275590551181102
        },
        {
          "duration": 0.0234375,
          "durationTicks": 9,
          "midi": 46,
          "name": "A#2",
          "ticks": 20573,
          "time": 53.575520833333336,
          "velocity": 0.5354330708661418
        },
        {
          "duration": 0.0234375,
          "durationTicks": 9,
          "midi": 54,
          "name": "F#3",
          "ticks": 20574,
          "time": 53.578125,
          "velocity": 0.4881889763779528
        },
        {
          "duration": 0.026041666666664298,
          "durationTicks": 10,
          "midi": 54,
          "name": "F#3",
          "ticks": 20619,
          "time": 53.6953125,
          "velocity": 0.4881889763779528
        },
        {
          "duration": 0.0234375,
          "durationTicks": 9,
          "midi": 36,
          "name": "C2",
          "ticks": 20666,
          "time": 53.817708333333336,
          "velocity": 0.7165354330708661
        },
        {
          "duration": 0.028645833333328596,
          "durationTicks": 11,
          "midi": 38,
          "name": "D2",
          "ticks": 20666,
          "time": 53.817708333333336,
          "velocity": 0.7559055118110236
        },
        {
          "duration": 0.026041666666664298,
          "durationTicks": 10,
          "midi": 39,
          "name": "D#2",
          "ticks": 20667,
          "time": 53.8203125,
          "velocity": 0.7244094488188977
        },
        {
          "duration": 0.0234375,
          "durationTicks": 9,
          "midi": 42,
          "name": "F#2",
          "ticks": 20667,
          "time": 53.8203125,
          "velocity": 0.6062992125984252
        },
        {
          "duration": 0.0234375,
          "durationTicks": 9,
          "midi": 54,
          "name": "F#3",
          "ticks": 20668,
          "time": 53.822916666666664,
          "velocity": 0.5905511811023622
        },
        {
          "duration": 0.026041666666664298,
          "durationTicks": 10,
          "midi": 42,
          "name": "F#2",
          "ticks": 20712,
          "time": 53.9375,
          "velocity": 0.5275590551181102
        },
        {
          "duration": 0.0234375,
          "durationTicks": 9,
          "midi": 46,
          "name": "A#2",
          "ticks": 20759,
          "time": 54.059895833333336,
          "velocity": 0.5354330708661418
        },
        {
          "duration": 0.026041666666664298,
          "durationTicks": 10,
          "midi": 54,
          "name": "F#3",
          "ticks": 20759,
          "time": 54.059895833333336,
          "velocity": 0.4881889763779528
        },
        {
          "duration": 0.026041666666664298,
          "durationTicks": 10,
          "midi": 54,
          "name": "F#3",
          "ticks": 20805,
          "time": 54.1796875,
          "velocity": 0.4881889763779528
        },
        {
          "duration": 0.0234375,
          "durationTicks": 9,
          "midi": 36,
          "name": "C2",
          "ticks": 20852,
          "time": 54.302083333333336,
          "velocity": 0.7165354330708661
        },
        {
          "duration": 0.0234375,
          "durationTicks": 9,
          "midi": 42,
          "name": "F#2",
          "ticks": 20852,
          "time": 54.302083333333336,
          "velocity": 0.6062992125984252
        },
        {
          "duration": 0.026041666666664298,
          "durationTicks": 10,
          "midi": 54,
          "name": "F#3",
          "ticks": 20852,
          "time": 54.302083333333336,
          "velocity": 0.5905511811023622
        },
        {
          "duration": 0.026041666666664298,
          "durationTicks": 10,
          "midi": 42,
          "name": "F#2",
          "ticks": 20898,
          "time": 54.421875,
          "velocity": 0.5275590551181102
        },
        {
          "duration": 0.026041666666671404,
          "durationTicks": 10,
          "midi": 46,
          "name": "A#2",
          "ticks": 20944,
          "time": 54.541666666666664,
          "velocity": 0.5354330708661418
        },
        {
          "duration": 0.026041666666664298,
          "durationTicks": 10,
          "midi": 54,
          "name": "F#3",
          "ticks": 20945,
          "time": 54.544270833333336,
          "velocity": 0.4881889763779528
        },
        {
          "duration": 0.0234375,
          "durationTicks": 9,
          "midi": 54,
          "name": "F#3",
          "ticks": 20991,
          "time": 54.6640625,
          "velocity": 0.4881889763779528
        },
        {
          "duration": 0.028645833333335702,
          "durationTicks": 11,
          "midi": 36,
          "name": "C2",
          "ticks": 21037,
          "time": 54.783854166666664,
          "velocity": 0.7165354330708661
        },
        {
          "duration": 0.0234375,
          "durationTicks": 9,
          "midi": 38,
          "name": "D2",
          "ticks": 21038,
          "time": 54.786458333333336,
          "velocity": 0.7559055118110236
        },
        {
          "duration": 0.026041666666664298,
          "durationTicks": 10,
          "midi": 39,
          "name": "D#2",
          "ticks": 21038,
          "time": 54.786458333333336,
          "velocity": 0.7244094488188977
        },
        {
          "duration": 0.0234375,
          "durationTicks": 9,
          "midi": 42,
          "name": "F#2",
          "ticks": 21038,
          "time": 54.786458333333336,
          "velocity": 0.6062992125984252
        },
        {
          "duration": 0.0234375,
          "durationTicks": 9,
          "midi": 54,
          "name": "F#3",
          "ticks": 21039,
          "time": 54.7890625,
          "velocity": 0.5905511811023622
        },
        {
          "duration": 0.0234375,
          "durationTicks": 9,
          "midi": 42,
          "name": "F#2",
          "ticks": 21084,
          "time": 54.90625,
          "velocity": 0.5275590551181102
        }
      ],
      "endOfTrackTicks": 21184
    },
    {
      "channel": 0,
      "controlChanges": {
        "0": [
          {
            "number": 0,
            "ticks": 217,
            "time": 0.5651041666666666,
            "value": 0
          }
        ]
      },
      "pitchBends": [],
      "instrument": {
        "family": "piano",
        "number": 0,
        "name": "acoustic grand piano"
      },
      "name": "",
      "notes": []
    },
    {
      "channel": 3,
      "controlChanges": {
        "1": [
          {
            "number": 1,
            "ticks": 235,
            "time": 0.6119791666666666,
            "value": 0
          }
        ],
        "7": [
          {
            "number": 7,
            "ticks": 223,
            "time": 0.5807291666666666,
            "value": 0.3543307086614173
          },
          {
            "number": 7,
            "ticks": 18616,
            "time": 48.479166666666664,
            "value": 0.33070866141732286
          },
          {
            "number": 7,
            "ticks": 18709,
            "time": 48.721354166666664,
            "value": 0.3228346456692913
          },
          {
            "number": 7,
            "ticks": 18802,
            "time": 48.963541666666664,
            "value": 0.30708661417322836
          },
          {
            "number": 7,
            "ticks": 18894,
            "time": 49.203125,
            "value": 0.2992125984251969
          },
          {
            "number": 7,
            "ticks": 18987,
            "time": 49.4453125,
            "value": 0.28346456692913385
          },
          {
            "number": 7,
            "ticks": 19080,
            "time": 49.6875,
            "value": 0.2677165354330709
          },
          {
            "number": 7,
            "ticks": 19173,
            "time": 49.9296875,
            "value": 0.25984251968503935
          },
          {
            "number": 7,
            "ticks": 19266,
            "time": 50.171875,
            "value": 0.2440944881889764
          },
          {
            "number": 7,
            "ticks": 19359,
            "time": 50.4140625,
            "value": 0.23622047244094488
          },
          {
            "number": 7,
            "ticks": 19452,
            "time": 50.65625,
            "value": 0.2204724409448819
          },
          {
            "number": 7,
            "ticks": 19545,
            "time": 50.8984375,
            "value": 0.2125984251968504
          },
          {
            "number": 7,
            "ticks": 19637,
            "time": 51.138020833333336,
            "value": 0.1968503937007874
          },
          {
            "number": 7,
            "ticks": 19730,
            "time": 51.380208333333336,
            "value": 0.18110236220472442
          },
          {
            "number": 7,
            "ticks": 19823,
            "time": 51.622395833333336,
            "value": 0.1732283464566929
          },
          {
            "number": 7,
            "ticks": 19916,
            "time": 51.864583333333336,
            "value": 0.15748031496062992
          },
          {
            "number": 7,
            "ticks": 20009,
            "time": 52.106770833333336,
            "value": 0.14960629921259844
          },
          {
            "number": 7,
            "ticks": 20102,
            "time": 52.348958333333336,
            "value": 0.13385826771653545
          },
          {
            "number": 7,
            "ticks": 20195,
            "time": 52.591145833333336,
            "value": 0.11811023622047244
          },
          {
            "number": 7,
            "ticks": 20288,
            "time": 52.833333333333336,
            "value": 0.11023622047244094
          },
          {
            "number": 7,
            "ticks": 20381,
            "time": 53.075520833333336,
            "value": 0.09448818897637795
          },
          {
            "number": 7,
            "ticks": 20473,
            "time": 53.315104166666664,
            "value": 0.08661417322834646
          },
          {
            "number": 7,
            "ticks": 20566,
            "time": 53.557291666666664,
            "value": 0.07086614173228346
          },
          {
            "number": 7,
            "ticks": 20659,
            "time": 53.799479166666664,
            "value": 0.05511811023622047
          },
          {
            "number": 7,
            "ticks": 20752,
            "time": 54.041666666666664,
            "value": 0.047244094488188976
          },
          {
            "number": 7,
            "ticks": 20845,
            "time": 54.283854166666664,
            "value": 0.031496062992125984
          },
          {
            "number": 7,
            "ticks": 20938,
            "time": 54.526041666666664,
            "value": 0.023622047244094488
          },
          {
            "number": 7,
            "ticks": 21031,
            "time": 54.768229166666664,
            "value": 0.007874015748031496
          },
          {
            "number": 7,
            "ticks": 21124,
            "time": 55.010416666666664,
            "value": 0
          }
        ],
        "10": [
          {
            "number": 10,
            "ticks": 226,
            "time": 0.5885416666666666,
            "value": 0.5039370078740157
          }
        ],
        "91": [
          {
            "number": 91,
            "ticks": 229,
            "time": 0.5963541666666666,
            "value": 0.7086614173228346
          }
        ],
        "93": [
          {
            "number": 93,
            "ticks": 232,
            "time": 0.6041666666666666,
            "value": 0.9448818897637795
          }
        ]
      },
      "pitchBends": [],
      "instrument": {
        "family": "ensemble",
        "number": 50,
        "name": "synthstrings 1"
      },
      "name": "",
      "notes": [
        {
          "duration": 3.8671875,
          "durationTicks": 1485,
          "midi": 56,
          "name": "G#3",
          "ticks": 402,
          "time": 1.046875,
          "velocity": 0.7086614173228346
        },
        {
          "duration": 3.872395833333333,
          "durationTicks": 1487,
          "midi": 59,
          "name": "B3",
          "ticks": 402,
          "time": 1.046875,
          "velocity": 0.7086614173228346
        },
        {
          "duration": 3.872395833333333,
          "durationTicks": 1487,
          "midi": 63,
          "name": "D#4",
          "ticks": 403,
          "time": 1.0494791666666667,
          "velocity": 0.7086614173228346
        },
        {
          "duration": 3.877604166666666,
          "durationTicks": 1489,
          "midi": 66,
          "name": "F#4",
          "ticks": 403,
          "time": 1.0494791666666667,
          "velocity": 0.7086614173228346
        },
        {
          "duration": 3.861979166666667,
          "durationTicks": 1483,
          "midi": 56,
          "name": "G#3",
          "ticks": 1891,
          "time": 4.924479166666667,
          "velocity": 0.7086614173228346
        },
        {
          "duration": 3.867187499999999,
          "durationTicks": 1485,
          "midi": 59,
          "name": "B3",
          "ticks": 1891,
          "time": 4.924479166666667,
          "velocity": 0.7086614173228346
        },
        {
          "duration": 3.867187500000001,
          "durationTicks": 1485,
          "midi": 63,
          "name": "D#4",
          "ticks": 1892,
          "time": 4.927083333333333,
          "velocity": 0.7086614173228346
        },
        {
          "duration": 3.8671875,
          "durationTicks": 1485,
          "midi": 66,
          "name": "F#4",
          "ticks": 1893,
          "time": 4.9296875,
          "velocity": 0.7086614173228346
        },
        {
          "duration": 3.84375,
          "durationTicks": 1476,
          "midi": 56,
          "name": "G#3",
          "ticks": 3379,
          "time": 8.799479166666666,
          "velocity": 0.7086614173228346
        },
        {
          "duration": 3.84375,
          "durationTicks": 1476,
          "midi": 59,
          "name": "B3",
          "ticks": 3379,
          "time": 8.799479166666666,
          "velocity": 0.7086614173228346
        },
        {
          "duration": 3.848958333333334,
          "durationTicks": 1478,
          "midi": 63,
          "name": "D#4",
          "ticks": 3379,
          "time": 8.799479166666666,
          "velocity": 0.7086614173228346
        },
        {
          "duration": 3.846354166666666,
          "durationTicks": 1477,
          "midi": 66,
          "name": "F#4",
          "ticks": 3380,
          "time": 8.802083333333334,
          "velocity": 0.7086614173228346
        },
        {
          "duration": 3.854166666666666,
          "durationTicks": 1480,
          "midi": 66,
          "name": "F#4",
          "ticks": 4861,
          "time": 12.658854166666666,
          "velocity": 0.6299212598425197
        },
        {
          "duration": 3.854166666666666,
          "durationTicks": 1480,
          "midi": 70,
          "name": "A#4",
          "ticks": 4862,
          "time": 12.661458333333334,
          "velocity": 0.6299212598425197
        },
        {
          "duration": 3.856770833333334,
          "durationTicks": 1481,
          "midi": 73,
          "name": "C#5",
          "ticks": 4862,
          "time": 12.661458333333334,
          "velocity": 0.6299212598425197
        },
        {
          "duration": 3.8567708333333357,
          "durationTicks": 1481,
          "midi": 66,
          "name": "F#4",
          "ticks": 6347,
          "time": 16.528645833333332,
          "velocity": 0.6299212598425197
        },
        {
          "duration": 3.854166666666668,
          "durationTicks": 1480,
          "midi": 70,
          "name": "A#4",
          "ticks": 6348,
          "time": 16.53125,
          "velocity": 0.6299212598425197
        },
        {
          "duration": 3.859375,
          "durationTicks": 1482,
          "midi": 75,
          "name": "D#5",
          "ticks": 6348,
          "time": 16.53125,
          "velocity": 0.6299212598425197
        },
        {
          "duration": 3.846354166666668,
          "durationTicks": 1477,
          "midi": 66,
          "name": "F#4",
          "ticks": 7833,
          "time": 20.3984375,
          "velocity": 0.6299212598425197
        },
        {
          "duration": 3.848958333333332,
          "durationTicks": 1478,
          "midi": 71,
          "name": "B4",
          "ticks": 7834,
          "time": 20.401041666666668,
          "velocity": 0.6299212598425197
        },
        {
          "duration": 3.8489583333333357,
          "durationTicks": 1478,
          "midi": 75,
          "name": "D#5",
          "ticks": 7835,
          "time": 20.403645833333332,
          "velocity": 0.6299212598425197
        },
        {
          "duration": 0.29947916666666785,
          "durationTicks": 115,
          "midi": 68,
          "name": "G#4",
          "ticks": 9320,
          "time": 24.270833333333332,
          "velocity": 0.7086614173228346
        },
        {
          "duration": 0.296875,
          "durationTicks": 114,
          "midi": 73,
          "name": "C#5",
          "ticks": 9320,
          "time": 24.270833333333332,
          "velocity": 0.7086614173228346
        },
        {
          "duration": 0.29947916666666785,
          "durationTicks": 115,
          "midi": 77,
          "name": "F5",
          "ticks": 9321,
          "time": 24.2734375,
          "velocity": 0.7086614173228346
        },
        {
          "duration": 0.296875,
          "durationTicks": 114,
          "midi": 66,
          "name": "F#4",
          "ticks": 9599,
          "time": 24.997395833333332,
          "velocity": 0.7086614173228346
        },
        {
          "duration": 0.29947916666666785,
          "durationTicks": 115,
          "midi": 71,
          "name": "B4",
          "ticks": 9600,
          "time": 25,
          "velocity": 0.7086614173228346
        },
        {
          "duration": 0.29427083333333215,
          "durationTicks": 113,
          "midi": 75,
          "name": "D#5",
          "ticks": 9600,
          "time": 25,
          "velocity": 0.7086614173228346
        },
        {
          "duration": 0.29427083333333215,
          "durationTicks": 113,
          "midi": 65,
          "name": "F4",
          "ticks": 9877,
          "time": 25.721354166666668,
          "velocity": 0.7086614173228346
        },
        {
          "duration": 0.2942708333333357,
          "durationTicks": 113,
          "midi": 70,
          "name": "A#4",
          "ticks": 9878,
          "time": 25.723958333333332,
          "velocity": 0.7086614173228346
        },
        {
          "duration": 0.3046875,
          "durationTicks": 117,
          "midi": 73,
          "name": "C#5",
          "ticks": 9878,
          "time": 25.723958333333332,
          "velocity": 0.7086614173228346
        },
        {
          "duration": 0.2942708333333357,
          "durationTicks": 113,
          "midi": 63,
          "name": "D#4",
          "ticks": 10157,
          "time": 26.450520833333332,
          "velocity": 0.7086614173228346
        },
        {
          "duration": 0.26822916666666785,
          "durationTicks": 103,
          "midi": 68,
          "name": "G#4",
          "ticks": 10157,
          "time": 26.450520833333332,
          "velocity": 0.7086614173228346
        },
        {
          "duration": 0.28125,
          "durationTicks": 108,
          "midi": 71,
          "name": "B4",
          "ticks": 10158,
          "time": 26.453125,
          "velocity": 0.7086614173228346
        },
        {
          "duration": 0.265625,
          "durationTicks": 102,
          "midi": 61,
          "name": "C#4",
          "ticks": 10435,
          "time": 27.174479166666668,
          "velocity": 0.7086614173228346
        },
        {
          "duration": 0.29947916666666785,
          "durationTicks": 115,
          "midi": 66,
          "name": "F#4",
          "ticks": 10436,
          "time": 27.177083333333332,
          "velocity": 0.7086614173228346
        },
        {
          "duration": 0.29947916666666785,
          "durationTicks": 115,
          "midi": 70,
          "name": "A#4",
          "ticks": 10436,
          "time": 27.177083333333332,
          "velocity": 0.7086614173228346
        },
        {
          "duration": 0.3125,
          "durationTicks": 120,
          "midi": 61,
          "name": "C#4",
          "ticks": 10620,
          "time": 27.65625,
          "velocity": 0.7086614173228346
        },
        {
          "duration": 0.29427083333333215,
          "durationTicks": 113,
          "midi": 65,
          "name": "F4",
          "ticks": 10621,
          "time": 27.658854166666668,
          "velocity": 0.7086614173228346
        },
        {
          "duration": 0.32291666666666785,
          "durationTicks": 124,
          "midi": 68,
          "name": "G#4",
          "ticks": 10622,
          "time": 27.661458333333332,
          "velocity": 0.7086614173228346
        },
        {
          "duration": 0.16145833333333215,
          "durationTicks": 62,
          "midi": 61,
          "name": "C#4",
          "ticks": 10806,
          "time": 28.140625,
          "velocity": 0.7244094488188977
        },
        {
          "duration": 0.1588541666666643,
          "durationTicks": 61,
          "midi": 73,
          "name": "C#5",
          "ticks": 10807,
          "time": 28.143229166666668,
          "velocity": 0.7244094488188977
        },
        {
          "duration": 0.14583333333333215,
          "durationTicks": 56,
          "midi": 61,
          "name": "C#4",
          "ticks": 10992,
          "time": 28.625,
          "velocity": 0.7244094488188977
        },
        {
          "duration": 0.13020833333333215,
          "durationTicks": 50,
          "midi": 73,
          "name": "C#5",
          "ticks": 10992,
          "time": 28.625,
          "velocity": 0.7559055118110236
        },
        {
          "duration": 0.13541666666666785,
          "durationTicks": 52,
          "midi": 61,
          "name": "C#4",
          "ticks": 11178,
          "time": 29.109375,
          "velocity": 0.7559055118110236
        },
        {
          "duration": 0.125,
          "durationTicks": 48,
          "midi": 73,
          "name": "C#5",
          "ticks": 11178,
          "time": 29.109375,
          "velocity": 0.7559055118110236
        },
        {
          "duration": 0.15625,
          "durationTicks": 60,
          "midi": 61,
          "name": "C#4",
          "ticks": 11364,
          "time": 29.59375,
          "velocity": 0.7559055118110236
        },
        {
          "duration": 0.16145833333333215,
          "durationTicks": 62,
          "midi": 73,
          "name": "C#5",
          "ticks": 11364,
          "time": 29.59375,
          "velocity": 0.7637795275590551
        },
        {
          "duration": 1.3307291666666679,
          "durationTicks": 511,
          "midi": 61,
          "name": "C#4",
          "ticks": 11549,
          "time": 30.075520833333332,
          "velocity": 0.7637795275590551
        },
        {
          "duration": 1.3307291666666679,
          "durationTicks": 511,
          "midi": 73,
          "name": "C#5",
          "ticks": 11550,
          "time": 30.078125,
          "velocity": 0.7716535433070866
        },
        {
          "duration": 3.8541666666666643,
          "durationTicks": 1480,
          "midi": 61,
          "name": "C#4",
          "ticks": 12293,
          "time": 32.013020833333336,
          "velocity": 0.7086614173228346
        },
        {
          "duration": 3.8541666666666643,
          "durationTicks": 1480,
          "midi": 66,
          "name": "F#4",
          "ticks": 12293,
          "time": 32.013020833333336,
          "velocity": 0.7086614173228346
        },
        {
          "duration": 3.8567708333333357,
          "durationTicks": 1481,
          "midi": 70,
          "name": "A#4",
          "ticks": 12294,
          "time": 32.015625,
          "velocity": 0.7086614173228346
        },
        {
          "duration": 3.8541666666666643,
          "durationTicks": 1480,
          "midi": 63,
          "name": "D#4",
          "ticks": 13779,
          "time": 35.8828125,
          "velocity": 0.7086614173228346
        },
        {
          "duration": 3.8541666666666714,
          "durationTicks": 1480,
          "midi": 66,
          "name": "F#4",
          "ticks": 13780,
          "time": 35.885416666666664,
          "velocity": 0.7086614173228346
        },
        {
          "duration": 3.8567708333333357,
          "durationTicks": 1481,
          "midi": 70,
          "name": "A#4",
          "ticks": 13780,
          "time": 35.885416666666664,
          "velocity": 0.7086614173228346
        },
        {
          "duration": 3.8463541666666714,
          "durationTicks": 1477,
          "midi": 59,
          "name": "B3",
          "ticks": 15265,
          "time": 39.752604166666664,
          "velocity": 0.7086614173228346
        },
        {
          "duration": 3.84375,
          "durationTicks": 1476,
          "midi": 63,
          "name": "D#4",
          "ticks": 15266,
          "time": 39.755208333333336,
          "velocity": 0.7086614173228346
        },
        {
          "duration": 0.9609375,
          "durationTicks": 369,
          "midi": 68,
          "name": "G#4",
          "ticks": 15267,
          "time": 39.7578125,
          "velocity": 0.7086614173228346
        },
        {
          "duration": 0.9635416666666714,
          "durationTicks": 370,
          "midi": 67,
          "name": "G4",
          "ticks": 15637,
          "time": 40.721354166666664,
          "velocity": 0.7086614173228346
        },
        {
          "duration": 0.9635416666666714,
          "durationTicks": 370,
          "midi": 66,
          "name": "F#4",
          "ticks": 16009,
          "time": 41.690104166666664,
          "velocity": 0.7086614173228346
        },
        {
          "duration": 0.953125,
          "durationTicks": 366,
          "midi": 68,
          "name": "G#4",
          "ticks": 16380,
          "time": 42.65625,
          "velocity": 0.7086614173228346
        },
        {
          "duration": 3.6067708333333357,
          "durationTicks": 1385,
          "midi": 58,
          "name": "A#3",
          "ticks": 16752,
          "time": 43.625,
          "velocity": 0.6299212598425197
        },
        {
          "duration": 3.6067708333333357,
          "durationTicks": 1385,
          "midi": 59,
          "name": "B3",
          "ticks": 16753,
          "time": 43.627604166666664,
          "velocity": 0.6299212598425197
        },
        {
          "duration": 3.609375,
          "durationTicks": 1386,
          "midi": 63,
          "name": "D#4",
          "ticks": 16753,
          "time": 43.627604166666664,
          "velocity": 0.6299212598425197
        },
        {
          "duration": 3.609375,
          "durationTicks": 1386,
          "midi": 66,
          "name": "F#4",
          "ticks": 16753,
          "time": 43.627604166666664,
          "velocity": 0.6299212598425197
        },
        {
          "duration": 3.8541666666666714,
          "durationTicks": 1480,
          "midi": 61,
          "name": "C#4",
          "ticks": 18238,
          "time": 47.494791666666664,
          "velocity": 0.7086614173228346
        },
        {
          "duration": 3.8567708333333357,
          "durationTicks": 1481,
          "midi": 66,
          "name": "F#4",
          "ticks": 18238,
          "time": 47.494791666666664,
          "velocity": 0.7086614173228346
        },
        {
          "duration": 3.859375,
          "durationTicks": 1482,
          "midi": 70,
          "name": "A#4",
          "ticks": 18238,
          "time": 47.494791666666664,
          "velocity": 0.7086614173228346
        },
        {
          "duration": 2.8854166666666643,
          "durationTicks": 1108,
          "midi": 63,
          "name": "D#4",
          "ticks": 19725,
          "time": 51.3671875,
          "velocity": 0.7086614173228346
        },
        {
          "duration": 2.8854166666666643,
          "durationTicks": 1108,
          "midi": 66,
          "name": "F#4",
          "ticks": 19725,
          "time": 51.3671875,
          "velocity": 0.7086614173228346
        },
        {
          "duration": 2.8880208333333357,
          "durationTicks": 1109,
          "midi": 70,
          "name": "A#4",
          "ticks": 19726,
          "time": 51.369791666666664,
          "velocity": 0.7086614173228346
        }
      ]
    },
    {
      "channel": 0,
      "controlChanges": {
        "0": [
          {
            "number": 0,
            "ticks": 222,
            "time": 0.578125,
            "value": 0
          }
        ]
      },
      "pitchBends": [],
      "instrument": {
        "family": "piano",
        "number": 0,
        "name": "acoustic grand piano"
      },
      "name": "",
      "notes": []
    },
    {
      "channel": 5,
      "controlChanges": {
        "1": [
          {
            "number": 1,
            "ticks": 240,
            "time": 0.625,
            "value": 0
          }
        ],
        "7": [
          {
            "number": 7,
            "ticks": 228,
            "time": 0.59375,
            "value": 0.5196850393700787
          },
          {
            "number": 7,
            "ticks": 18615,
            "time": 48.4765625,
            "value": 0.5039370078740157
          },
          {
            "number": 7,
            "ticks": 18708,
            "time": 48.71875,
            "value": 0.4881889763779528
          },
          {
            "number": 7,
            "ticks": 18801,
            "time": 48.9609375,
            "value": 0.47244094488188976
          },
          {
            "number": 7,
            "ticks": 18894,
            "time": 49.203125,
            "value": 0.44881889763779526
          },
          {
            "number": 7,
            "ticks": 18986,
            "time": 49.442708333333336,
            "value": 0.4330708661417323
          },
          {
            "number": 7,
            "ticks": 19080,
            "time": 49.6875,
            "value": 0.4094488188976378
          },
          {
            "number": 7,
            "ticks": 19172,
            "time": 49.927083333333336,
            "value": 0.3937007874015748
          },
          {
            "number": 7,
            "ticks": 19265,
            "time": 50.169270833333336,
            "value": 0.3779527559055118
          },
          {
            "number": 7,
            "ticks": 19358,
            "time": 50.411458333333336,
            "value": 0.3543307086614173
          },
          {
            "number": 7,
            "ticks": 19451,
            "time": 50.653645833333336,
            "value": 0.33858267716535434
          },
          {
            "number": 7,
            "ticks": 19544,
            "time": 50.895833333333336,
            "value": 0.31496062992125984
          },
          {
            "number": 7,
            "ticks": 19637,
            "time": 51.138020833333336,
            "value": 0.2992125984251969
          },
          {
            "number": 7,
            "ticks": 19730,
            "time": 51.380208333333336,
            "value": 0.28346456692913385
          },
          {
            "number": 7,
            "ticks": 19823,
            "time": 51.622395833333336,
            "value": 0.25984251968503935
          },
          {
            "number": 7,
            "ticks": 19915,
            "time": 51.861979166666664,
            "value": 0.2440944881889764
          },
          {
            "number": 7,
            "ticks": 20008,
            "time": 52.104166666666664,
            "value": 0.2204724409448819
          },
          {
            "number": 7,
            "ticks": 20101,
            "time": 52.346354166666664,
            "value": 0.2047244094488189
          },
          {
            "number": 7,
            "ticks": 20194,
            "time": 52.588541666666664,
            "value": 0.1889763779527559
          },
          {
            "number": 7,
            "ticks": 20287,
            "time": 52.830729166666664,
            "value": 0.16535433070866143
          },
          {
            "number": 7,
            "ticks": 20380,
            "time": 53.072916666666664,
            "value": 0.14960629921259844
          },
          {
            "number": 7,
            "ticks": 20473,
            "time": 53.315104166666664,
            "value": 0.12598425196850394
          },
          {
            "number": 7,
            "ticks": 20566,
            "time": 53.557291666666664,
            "value": 0.11023622047244094
          },
          {
            "number": 7,
            "ticks": 20659,
            "time": 53.799479166666664,
            "value": 0.09448818897637795
          },
          {
            "number": 7,
            "ticks": 20751,
            "time": 54.0390625,
            "value": 0.07086614173228346
          },
          {
            "number": 7,
            "ticks": 20844,
            "time": 54.28125,
            "value": 0.05511811023622047
          },
          {
            "number": 7,
            "ticks": 20937,
            "time": 54.5234375,
            "value": 0.031496062992125984
          },
          {
            "number": 7,
            "ticks": 21030,
            "time": 54.765625,
            "value": 0.015748031496062992
          },
          {
            "number": 7,
            "ticks": 21123,
            "time": 55.0078125,
            "value": 0
          }
        ],
        "10": [
          {
            "number": 10,
            "ticks": 231,
            "time": 0.6015625,
            "value": 0.6299212598425197
          }
        ],
        "91": [
          {
            "number": 91,
            "ticks": 234,
            "time": 0.609375,
            "value": 0.8661417322834646
          }
        ],
        "93": [
          {
            "number": 93,
            "ticks": 237,
            "time": 0.6171875,
            "value": 0.8661417322834646
          }
        ]
      },
      "pitchBends": [],
      "instrument": {
        "family": "ensemble",
        "number": 48,
        "name": "string ensemble 1"
      },
      "name": "",
      "notes": [
        {
          "duration": 0.12239583333333393,
          "durationTicks": 47,
          "midi": 58,
          "name": "A#3",
          "ticks": 3376,
          "time": 8.791666666666666,
          "velocity": 0.6299212598425197
        },
        {
          "duration": 0.12239583333333393,
          "durationTicks": 47,
          "midi": 70,
          "name": "A#4",
          "ticks": 3376,
          "time": 8.791666666666666,
          "velocity": 0.6299212598425197
        },
        {
          "duration": 0.11979166666666607,
          "durationTicks": 46,
          "midi": 56,
          "name": "G#3",
          "ticks": 3422,
          "time": 8.911458333333334,
          "velocity": 0.6062992125984252
        },
        {
          "duration": 0.11979166666666607,
          "durationTicks": 46,
          "midi": 68,
          "name": "G#4",
          "ticks": 3423,
          "time": 8.9140625,
          "velocity": 0.6062992125984252
        },
        {
          "duration": 0.1171875,
          "durationTicks": 45,
          "midi": 59,
          "name": "B3",
          "ticks": 3470,
          "time": 9.036458333333334,
          "velocity": 0.7007874015748031
        },
        {
          "duration": 0.11979166666666607,
          "durationTicks": 46,
          "midi": 71,
          "name": "B4",
          "ticks": 3470,
          "time": 9.036458333333334,
          "velocity": 0.7007874015748031
        },
        {
          "duration": 0.11979166666666607,
          "durationTicks": 46,
          "midi": 58,
          "name": "A#3",
          "ticks": 3515,
          "time": 9.153645833333334,
          "velocity": 0.6377952755905512
        },
        {
          "duration": 0.11979166666666607,
          "durationTicks": 46,
          "midi": 70,
          "name": "A#4",
          "ticks": 3516,
          "time": 9.15625,
          "velocity": 0.6377952755905512
        },
        {
          "duration": 0.11979166666666785,
          "durationTicks": 46,
          "midi": 61,
          "name": "C#4",
          "ticks": 3562,
          "time": 9.276041666666666,
          "velocity": 0.6771653543307087
        },
        {
          "duration": 0.11979166666666785,
          "durationTicks": 46,
          "midi": 73,
          "name": "C#5",
          "ticks": 3562,
          "time": 9.276041666666666,
          "velocity": 0.6771653543307087
        },
        {
          "duration": 0.1171875,
          "durationTicks": 45,
          "midi": 59,
          "name": "B3",
          "ticks": 3609,
          "time": 9.3984375,
          "velocity": 0.6771653543307087
        },
        {
          "duration": 0.11979166666666607,
          "durationTicks": 46,
          "midi": 71,
          "name": "B4",
          "ticks": 3609,
          "time": 9.3984375,
          "velocity": 0.6771653543307087
        },
        {
          "duration": 0.11979166666666785,
          "durationTicks": 46,
          "midi": 63,
          "name": "D#4",
          "ticks": 3655,
          "time": 9.518229166666666,
          "velocity": 0.6377952755905512
        },
        {
          "duration": 0.12239583333333393,
          "durationTicks": 47,
          "midi": 75,
          "name": "D#5",
          "ticks": 3655,
          "time": 9.518229166666666,
          "velocity": 0.6377952755905512
        },
        {
          "duration": 0.1171875,
          "durationTicks": 45,
          "midi": 61,
          "name": "C#4",
          "ticks": 3702,
          "time": 9.640625,
          "velocity": 0.5984251968503937
        },
        {
          "duration": 0.11979166666666607,
          "durationTicks": 46,
          "midi": 73,
          "name": "C#5",
          "ticks": 3702,
          "time": 9.640625,
          "velocity": 0.5984251968503937
        },
        {
          "duration": 0.11979166666666785,
          "durationTicks": 46,
          "midi": 65,
          "name": "F4",
          "ticks": 3748,
          "time": 9.760416666666666,
          "velocity": 0.6535433070866141
        },
        {
          "duration": 0.1171875,
          "durationTicks": 45,
          "midi": 77,
          "name": "F5",
          "ticks": 3749,
          "time": 9.763020833333334,
          "velocity": 0.6535433070866141
        },
        {
          "duration": 0.12239583333333393,
          "durationTicks": 47,
          "midi": 63,
          "name": "D#4",
          "ticks": 3793,
          "time": 9.877604166666666,
          "velocity": 0.6299212598425197
        },
        {
          "duration": 0.11979166666666607,
          "durationTicks": 46,
          "midi": 75,
          "name": "D#5",
          "ticks": 3795,
          "time": 9.8828125,
          "velocity": 0.6299212598425197
        },
        {
          "duration": 0.1171875,
          "durationTicks": 45,
          "midi": 66,
          "name": "F#4",
          "ticks": 3841,
          "time": 10.002604166666666,
          "velocity": 0.6220472440944882
        },
        {
          "duration": 0.11979166666666785,
          "durationTicks": 46,
          "midi": 78,
          "name": "F#5",
          "ticks": 3841,
          "time": 10.002604166666666,
          "velocity": 0.6220472440944882
        },
        {
          "duration": 0.1171875,
          "durationTicks": 45,
          "midi": 65,
          "name": "F4",
          "ticks": 3888,
          "time": 10.125,
          "velocity": 0.5984251968503937
        },
        {
          "duration": 0.11979166666666607,
          "durationTicks": 46,
          "midi": 77,
          "name": "F5",
          "ticks": 3888,
          "time": 10.125,
          "velocity": 0.5984251968503937
        },
        {
          "duration": 0.11979166666666607,
          "durationTicks": 46,
          "midi": 68,
          "name": "G#4",
          "ticks": 3933,
          "time": 10.2421875,
          "velocity": 0.6614173228346457
        },
        {
          "duration": 0.11979166666666785,
          "durationTicks": 46,
          "midi": 80,
          "name": "G#5",
          "ticks": 3934,
          "time": 10.244791666666666,
          "velocity": 0.6614173228346457
        },
        {
          "duration": 0.11979166666666607,
          "durationTicks": 46,
          "midi": 66,
          "name": "F#4",
          "ticks": 3980,
          "time": 10.364583333333334,
          "velocity": 0.6220472440944882
        },
        {
          "duration": 0.1171875,
          "durationTicks": 45,
          "midi": 78,
          "name": "F#5",
          "ticks": 3981,
          "time": 10.3671875,
          "velocity": 0.6220472440944882
        },
        {
          "duration": 0.11979166666666785,
          "durationTicks": 46,
          "midi": 70,
          "name": "A#4",
          "ticks": 4027,
          "time": 10.486979166666666,
          "velocity": 0.6771653543307087
        },
        {
          "duration": 0.11979166666666785,
          "durationTicks": 46,
          "midi": 82,
          "name": "A#5",
          "ticks": 4027,
          "time": 10.486979166666666,
          "velocity": 0.6771653543307087
        },
        {
          "duration": 0.12239583333333393,
          "durationTicks": 47,
          "midi": 68,
          "name": "G#4",
          "ticks": 4072,
          "time": 10.604166666666666,
          "velocity": 0.6299212598425197
        },
        {
          "duration": 0.11979166666666607,
          "durationTicks": 46,
          "midi": 80,
          "name": "G#5",
          "ticks": 4073,
          "time": 10.606770833333334,
          "velocity": 0.6299212598425197
        },
        {
          "duration": 0.1171875,
          "durationTicks": 45,
          "midi": 71,
          "name": "B4",
          "ticks": 4120,
          "time": 10.729166666666666,
          "velocity": 0.6929133858267716
        },
        {
          "duration": 0.11979166666666785,
          "durationTicks": 46,
          "midi": 83,
          "name": "B5",
          "ticks": 4120,
          "time": 10.729166666666666,
          "velocity": 0.6929133858267716
        },
        {
          "duration": 0.11979166666666607,
          "durationTicks": 46,
          "midi": 70,
          "name": "A#4",
          "ticks": 4166,
          "time": 10.848958333333334,
          "velocity": 0.6299212598425197
        },
        {
          "duration": 0.1171875,
          "durationTicks": 45,
          "midi": 82,
          "name": "A#5",
          "ticks": 4167,
          "time": 10.8515625,
          "velocity": 0.6299212598425197
        },
        {
          "duration": 0.11979166666666607,
          "durationTicks": 46,
          "midi": 73,
          "name": "C#5",
          "ticks": 4212,
          "time": 10.96875,
          "velocity": 0.5984251968503937
        },
        {
          "duration": 0.1171875,
          "durationTicks": 45,
          "midi": 85,
          "name": "C#6",
          "ticks": 4213,
          "time": 10.971354166666666,
          "velocity": 0.5984251968503937
        },
        {
          "duration": 0.11979166666666607,
          "durationTicks": 46,
          "midi": 71,
          "name": "B4",
          "ticks": 4259,
          "time": 11.091145833333334,
          "velocity": 0.6692913385826772
        },
        {
          "duration": 0.11979166666666607,
          "durationTicks": 46,
          "midi": 83,
          "name": "B5",
          "ticks": 4259,
          "time": 11.091145833333334,
          "velocity": 0.6692913385826772
        },
        {
          "duration": 0.11979166666666607,
          "durationTicks": 46,
          "midi": 75,
          "name": "D#5",
          "ticks": 4305,
          "time": 11.2109375,
          "velocity": 0.6299212598425197
        },
        {
          "duration": 0.11979166666666785,
          "durationTicks": 46,
          "midi": 87,
          "name": "D#6",
          "ticks": 4306,
          "time": 11.213541666666666,
          "velocity": 0.6299212598425197
        },
        {
          "duration": 0.11979166666666785,
          "durationTicks": 46,
          "midi": 73,
          "name": "C#5",
          "ticks": 4351,
          "time": 11.330729166666666,
          "velocity": 0.5826771653543307
        },
        {
          "duration": 0.11979166666666607,
          "durationTicks": 46,
          "midi": 85,
          "name": "C#6",
          "ticks": 4352,
          "time": 11.333333333333334,
          "velocity": 0.5826771653543307
        },
        {
          "duration": 0.11979166666666607,
          "durationTicks": 46,
          "midi": 77,
          "name": "F5",
          "ticks": 4398,
          "time": 11.453125,
          "velocity": 0.6771653543307087
        },
        {
          "duration": 0.1171875,
          "durationTicks": 45,
          "midi": 89,
          "name": "F6",
          "ticks": 4399,
          "time": 11.455729166666666,
          "velocity": 0.6771653543307087
        },
        {
          "duration": 0.1171875,
          "durationTicks": 45,
          "midi": 75,
          "name": "D#5",
          "ticks": 4445,
          "time": 11.575520833333334,
          "velocity": 0.6299212598425197
        },
        {
          "duration": 0.11979166666666607,
          "durationTicks": 46,
          "midi": 87,
          "name": "D#6",
          "ticks": 4445,
          "time": 11.575520833333334,
          "velocity": 0.6299212598425197
        },
        {
          "duration": 0.11979166666666607,
          "durationTicks": 46,
          "midi": 78,
          "name": "F#5",
          "ticks": 4491,
          "time": 11.6953125,
          "velocity": 0.7007874015748031
        },
        {
          "duration": 0.11979166666666607,
          "durationTicks": 46,
          "midi": 90,
          "name": "F#6",
          "ticks": 4491,
          "time": 11.6953125,
          "velocity": 0.7007874015748031
        },
        {
          "duration": 0.1171875,
          "durationTicks": 45,
          "midi": 77,
          "name": "F5",
          "ticks": 4538,
          "time": 11.817708333333334,
          "velocity": 0.6535433070866141
        },
        {
          "duration": 0.11979166666666607,
          "durationTicks": 46,
          "midi": 89,
          "name": "F6",
          "ticks": 4538,
          "time": 11.817708333333334,
          "velocity": 0.6535433070866141
        },
        {
          "duration": 0.12239583333333215,
          "durationTicks": 47,
          "midi": 80,
          "name": "G#5",
          "ticks": 4583,
          "time": 11.934895833333334,
          "velocity": 0.7007874015748031
        },
        {
          "duration": 0.12239583333333393,
          "durationTicks": 47,
          "midi": 92,
          "name": "G#6",
          "ticks": 4584,
          "time": 11.9375,
          "velocity": 0.7007874015748031
        },
        {
          "duration": 0.11979166666666785,
          "durationTicks": 46,
          "midi": 78,
          "name": "F#5",
          "ticks": 4630,
          "time": 12.057291666666666,
          "velocity": 0.6614173228346457
        },
        {
          "duration": 0.1171875,
          "durationTicks": 45,
          "midi": 90,
          "name": "F#6",
          "ticks": 4631,
          "time": 12.059895833333334,
          "velocity": 0.6614173228346457
        },
        {
          "duration": 0.11979166666666607,
          "durationTicks": 46,
          "midi": 82,
          "name": "A#5",
          "ticks": 4677,
          "time": 12.1796875,
          "velocity": 0.6850393700787402
        },
        {
          "duration": 0.11979166666666607,
          "durationTicks": 46,
          "midi": 94,
          "name": "A#6",
          "ticks": 4677,
          "time": 12.1796875,
          "velocity": 0.6850393700787402
        },
        {
          "duration": 0.11979166666666785,
          "durationTicks": 46,
          "midi": 80,
          "name": "G#5",
          "ticks": 4723,
          "time": 12.299479166666666,
          "velocity": 0.6299212598425197
        },
        {
          "duration": 0.11979166666666607,
          "durationTicks": 46,
          "midi": 92,
          "name": "G#6",
          "ticks": 4724,
          "time": 12.302083333333334,
          "velocity": 0.6299212598425197
        },
        {
          "duration": 0.1171875,
          "durationTicks": 45,
          "midi": 83,
          "name": "B5",
          "ticks": 4771,
          "time": 12.424479166666666,
          "velocity": 0.7244094488188977
        },
        {
          "duration": 0.1171875,
          "durationTicks": 45,
          "midi": 95,
          "name": "B6",
          "ticks": 4771,
          "time": 12.424479166666666,
          "velocity": 0.7244094488188977
        },
        {
          "duration": 0.12239583333333393,
          "durationTicks": 47,
          "midi": 82,
          "name": "A#5",
          "ticks": 4816,
          "time": 12.541666666666666,
          "velocity": 0.6771653543307087
        },
        {
          "duration": 0.11979166666666607,
          "durationTicks": 46,
          "midi": 94,
          "name": "A#6",
          "ticks": 4817,
          "time": 12.544270833333334,
          "velocity": 0.6771653543307087
        },
        {
          "duration": 0.11458333333333393,
          "durationTicks": 44,
          "midi": 85,
          "name": "C#6",
          "ticks": 4864,
          "time": 12.666666666666666,
          "velocity": 0.7007874015748031
        },
        {
          "duration": 0.1171875,
          "durationTicks": 45,
          "midi": 97,
          "name": "C#7",
          "ticks": 4864,
          "time": 12.666666666666666,
          "velocity": 0.7007874015748031
        },
        {
          "duration": 7.703125,
          "durationTicks": 2958,
          "midi": 66,
          "name": "F#4",
          "ticks": 12293,
          "time": 32.013020833333336,
          "velocity": 0.5039370078740157
        },
        {
          "duration": 7.705729166666664,
          "durationTicks": 2959,
          "midi": 70,
          "name": "A#4",
          "ticks": 12294,
          "time": 32.015625,
          "velocity": 0.5039370078740157
        },
        {
          "duration": 3.8697916666666643,
          "durationTicks": 1486,
          "midi": 73,
          "name": "C#5",
          "ticks": 12294,
          "time": 32.015625,
          "velocity": 0.5039370078740157
        },
        {
          "duration": 3.8333333333333286,
          "durationTicks": 1472,
          "midi": 75,
          "name": "D#5",
          "ticks": 13781,
          "time": 35.888020833333336,
          "velocity": 0.5039370078740157
        },
        {
          "duration": 0.96875,
          "durationTicks": 372,
          "midi": 68,
          "name": "G#4",
          "ticks": 15266,
          "time": 39.755208333333336,
          "velocity": 0.5669291338582677
        },
        {
          "duration": 0.9661458333333357,
          "durationTicks": 371,
          "midi": 80,
          "name": "G#5",
          "ticks": 15267,
          "time": 39.7578125,
          "velocity": 0.5669291338582677
        },
        {
          "duration": 0.9661458333333357,
          "durationTicks": 371,
          "midi": 67,
          "name": "G4",
          "ticks": 15639,
          "time": 40.7265625,
          "velocity": 0.5669291338582677
        },
        {
          "duration": 0.9661458333333357,
          "durationTicks": 371,
          "midi": 79,
          "name": "G5",
          "ticks": 15639,
          "time": 40.7265625,
          "velocity": 0.5669291338582677
        },
        {
          "duration": 0.7213541666666643,
          "durationTicks": 277,
          "midi": 66,
          "name": "F#4",
          "ticks": 16011,
          "time": 41.6953125,
          "velocity": 0.5669291338582677
        },
        {
          "duration": 0.7213541666666643,
          "durationTicks": 277,
          "midi": 78,
          "name": "F#5",
          "ticks": 16011,
          "time": 41.6953125,
          "velocity": 0.5669291338582677
        },
        {
          "duration": 0.6015625,
          "durationTicks": 231,
          "midi": 68,
          "name": "G#4",
          "ticks": 16289,
          "time": 42.419270833333336,
          "velocity": 0.5669291338582677
        },
        {
          "duration": 0.6041666666666643,
          "durationTicks": 232,
          "midi": 80,
          "name": "G#5",
          "ticks": 16289,
          "time": 42.419270833333336,
          "velocity": 0.5669291338582677
        },
        {
          "duration": 0.1223958333333357,
          "durationTicks": 47,
          "midi": 58,
          "name": "A#3",
          "ticks": 16752,
          "time": 43.625,
          "velocity": 0.6299212598425197
        },
        {
          "duration": 0.1171875,
          "durationTicks": 45,
          "midi": 70,
          "name": "A#4",
          "ticks": 16754,
          "time": 43.630208333333336,
          "velocity": 0.6299212598425197
        },
        {
          "duration": 0.1171875,
          "durationTicks": 45,
          "midi": 56,
          "name": "G#3",
          "ticks": 16800,
          "time": 43.75,
          "velocity": 0.6062992125984252
        },
        {
          "duration": 0.1197916666666643,
          "durationTicks": 46,
          "midi": 68,
          "name": "G#4",
          "ticks": 16800,
          "time": 43.75,
          "velocity": 0.6062992125984252
        },
        {
          "duration": 0.1197916666666714,
          "durationTicks": 46,
          "midi": 59,
          "name": "B3",
          "ticks": 16846,
          "time": 43.869791666666664,
          "velocity": 0.7007874015748031
        },
        {
          "duration": 0.1171875,
          "durationTicks": 45,
          "midi": 71,
          "name": "B4",
          "ticks": 16847,
          "time": 43.872395833333336,
          "velocity": 0.7007874015748031
        },
        {
          "duration": 0.1171875,
          "durationTicks": 45,
          "midi": 58,
          "name": "A#3",
          "ticks": 16893,
          "time": 43.9921875,
          "velocity": 0.6377952755905512
        },
        {
          "duration": 0.1197916666666643,
          "durationTicks": 46,
          "midi": 70,
          "name": "A#4",
          "ticks": 16893,
          "time": 43.9921875,
          "velocity": 0.6377952755905512
        },
        {
          "duration": 0.1197916666666714,
          "durationTicks": 46,
          "midi": 61,
          "name": "C#4",
          "ticks": 16939,
          "time": 44.111979166666664,
          "velocity": 0.6771653543307087
        },
        {
          "duration": 0.1171875,
          "durationTicks": 45,
          "midi": 73,
          "name": "C#5",
          "ticks": 16940,
          "time": 44.114583333333336,
          "velocity": 0.6771653543307087
        },
        {
          "duration": 0.1197916666666643,
          "durationTicks": 46,
          "midi": 59,
          "name": "B3",
          "ticks": 16985,
          "time": 44.231770833333336,
          "velocity": 0.6771653543307087
        },
        {
          "duration": 0.1197916666666643,
          "durationTicks": 46,
          "midi": 71,
          "name": "B4",
          "ticks": 16986,
          "time": 44.234375,
          "velocity": 0.6771653543307087
        },
        {
          "duration": 0.1197916666666714,
          "durationTicks": 46,
          "midi": 63,
          "name": "D#4",
          "ticks": 17032,
          "time": 44.354166666666664,
          "velocity": 0.6377952755905512
        },
        {
          "duration": 0.1197916666666714,
          "durationTicks": 46,
          "midi": 75,
          "name": "D#5",
          "ticks": 17032,
          "time": 44.354166666666664,
          "velocity": 0.6377952755905512
        },
        {
          "duration": 0.1171875,
          "durationTicks": 45,
          "midi": 61,
          "name": "C#4",
          "ticks": 17079,
          "time": 44.4765625,
          "velocity": 0.5984251968503937
        },
        {
          "duration": 0.1197916666666643,
          "durationTicks": 46,
          "midi": 73,
          "name": "C#5",
          "ticks": 17079,
          "time": 44.4765625,
          "velocity": 0.5984251968503937
        },
        {
          "duration": 0.1197916666666643,
          "durationTicks": 46,
          "midi": 65,
          "name": "F4",
          "ticks": 17124,
          "time": 44.59375,
          "velocity": 0.6535433070866141
        },
        {
          "duration": 0.1197916666666714,
          "durationTicks": 46,
          "midi": 77,
          "name": "F5",
          "ticks": 17125,
          "time": 44.596354166666664,
          "velocity": 0.6535433070866141
        },
        {
          "duration": 0.1197916666666643,
          "durationTicks": 46,
          "midi": 63,
          "name": "D#4",
          "ticks": 17171,
          "time": 44.716145833333336,
          "velocity": 0.6299212598425197
        },
        {
          "duration": 0.1171875,
          "durationTicks": 45,
          "midi": 75,
          "name": "D#5",
          "ticks": 17172,
          "time": 44.71875,
          "velocity": 0.6299212598425197
        },
        {
          "duration": 0.1197916666666714,
          "durationTicks": 46,
          "midi": 66,
          "name": "F#4",
          "ticks": 17218,
          "time": 44.838541666666664,
          "velocity": 0.6220472440944882
        },
        {
          "duration": 0.1197916666666714,
          "durationTicks": 46,
          "midi": 78,
          "name": "F#5",
          "ticks": 17218,
          "time": 44.838541666666664,
          "velocity": 0.6220472440944882
        },
        {
          "duration": 0.1223958333333357,
          "durationTicks": 47,
          "midi": 65,
          "name": "F4",
          "ticks": 17263,
          "time": 44.955729166666664,
          "velocity": 0.5984251968503937
        },
        {
          "duration": 0.1197916666666643,
          "durationTicks": 46,
          "midi": 77,
          "name": "F5",
          "ticks": 17264,
          "time": 44.958333333333336,
          "velocity": 0.5984251968503937
        },
        {
          "duration": 0.1171875,
          "durationTicks": 45,
          "midi": 68,
          "name": "G#4",
          "ticks": 17311,
          "time": 45.080729166666664,
          "velocity": 0.6614173228346457
        },
        {
          "duration": 0.1197916666666714,
          "durationTicks": 46,
          "midi": 80,
          "name": "G#5",
          "ticks": 17311,
          "time": 45.080729166666664,
          "velocity": 0.6614173228346457
        },
        {
          "duration": 0.1197916666666643,
          "durationTicks": 46,
          "midi": 66,
          "name": "F#4",
          "ticks": 17357,
          "time": 45.200520833333336,
          "velocity": 0.6220472440944882
        },
        {
          "duration": 0.1171875,
          "durationTicks": 45,
          "midi": 78,
          "name": "F#5",
          "ticks": 17358,
          "time": 45.203125,
          "velocity": 0.6220472440944882
        },
        {
          "duration": 0.1197916666666643,
          "durationTicks": 46,
          "midi": 70,
          "name": "A#4",
          "ticks": 17403,
          "time": 45.3203125,
          "velocity": 0.6771653543307087
        },
        {
          "duration": 0.1171875,
          "durationTicks": 45,
          "midi": 82,
          "name": "A#5",
          "ticks": 17404,
          "time": 45.322916666666664,
          "velocity": 0.6771653543307087
        },
        {
          "duration": 0.1197916666666643,
          "durationTicks": 46,
          "midi": 68,
          "name": "G#4",
          "ticks": 17450,
          "time": 45.442708333333336,
          "velocity": 0.6299212598425197
        },
        {
          "duration": 0.1171875,
          "durationTicks": 45,
          "midi": 80,
          "name": "G#5",
          "ticks": 17451,
          "time": 45.4453125,
          "velocity": 0.6299212598425197
        },
        {
          "duration": 0.1197916666666643,
          "durationTicks": 46,
          "midi": 71,
          "name": "B4",
          "ticks": 17496,
          "time": 45.5625,
          "velocity": 0.6929133858267716
        },
        {
          "duration": 0.1197916666666714,
          "durationTicks": 46,
          "midi": 83,
          "name": "B5",
          "ticks": 17497,
          "time": 45.565104166666664,
          "velocity": 0.6929133858267716
        },
        {
          "duration": 0.1223958333333357,
          "durationTicks": 47,
          "midi": 70,
          "name": "A#4",
          "ticks": 17542,
          "time": 45.682291666666664,
          "velocity": 0.6299212598425197
        },
        {
          "duration": 0.1197916666666643,
          "durationTicks": 46,
          "midi": 82,
          "name": "A#5",
          "ticks": 17543,
          "time": 45.684895833333336,
          "velocity": 0.6299212598425197
        },
        {
          "duration": 0.1197916666666643,
          "durationTicks": 46,
          "midi": 73,
          "name": "C#5",
          "ticks": 17589,
          "time": 45.8046875,
          "velocity": 0.5984251968503937
        },
        {
          "duration": 0.1197916666666714,
          "durationTicks": 46,
          "midi": 85,
          "name": "C#6",
          "ticks": 17590,
          "time": 45.807291666666664,
          "velocity": 0.5984251968503937
        },
        {
          "duration": 0.1197916666666714,
          "durationTicks": 46,
          "midi": 71,
          "name": "B4",
          "ticks": 17635,
          "time": 45.924479166666664,
          "velocity": 0.6692913385826772
        },
        {
          "duration": 0.1197916666666643,
          "durationTicks": 46,
          "midi": 83,
          "name": "B5",
          "ticks": 17636,
          "time": 45.927083333333336,
          "velocity": 0.6692913385826772
        },
        {
          "duration": 0.1197916666666643,
          "durationTicks": 46,
          "midi": 75,
          "name": "D#5",
          "ticks": 17682,
          "time": 46.046875,
          "velocity": 0.6299212598425197
        },
        {
          "duration": 0.1197916666666643,
          "durationTicks": 46,
          "midi": 87,
          "name": "D#6",
          "ticks": 17682,
          "time": 46.046875,
          "velocity": 0.6299212598425197
        },
        {
          "duration": 0.1171875,
          "durationTicks": 45,
          "midi": 73,
          "name": "C#5",
          "ticks": 17729,
          "time": 46.169270833333336,
          "velocity": 0.5826771653543307
        },
        {
          "duration": 0.1197916666666643,
          "durationTicks": 46,
          "midi": 85,
          "name": "C#6",
          "ticks": 17729,
          "time": 46.169270833333336,
          "velocity": 0.5826771653543307
        },
        {
          "duration": 0.1197916666666643,
          "durationTicks": 46,
          "midi": 77,
          "name": "F5",
          "ticks": 17775,
          "time": 46.2890625,
          "velocity": 0.6771653543307087
        },
        {
          "duration": 0.1197916666666714,
          "durationTicks": 46,
          "midi": 89,
          "name": "F6",
          "ticks": 17776,
          "time": 46.291666666666664,
          "velocity": 0.6771653543307087
        },
        {
          "duration": 0.1197916666666714,
          "durationTicks": 46,
          "midi": 75,
          "name": "D#5",
          "ticks": 17821,
          "time": 46.408854166666664,
          "velocity": 0.6299212598425197
        },
        {
          "duration": 0.1171875,
          "durationTicks": 45,
          "midi": 87,
          "name": "D#6",
          "ticks": 17822,
          "time": 46.411458333333336,
          "velocity": 0.6299212598425197
        },
        {
          "duration": 0.1197916666666643,
          "durationTicks": 46,
          "midi": 78,
          "name": "F#5",
          "ticks": 17868,
          "time": 46.53125,
          "velocity": 0.7007874015748031
        },
        {
          "duration": 0.1171875,
          "durationTicks": 45,
          "midi": 90,
          "name": "F#6",
          "ticks": 17869,
          "time": 46.533854166666664,
          "velocity": 0.7007874015748031
        },
        {
          "duration": 0.1197916666666714,
          "durationTicks": 46,
          "midi": 77,
          "name": "F5",
          "ticks": 17914,
          "time": 46.651041666666664,
          "velocity": 0.6535433070866141
        },
        {
          "duration": 0.1171875,
          "durationTicks": 45,
          "midi": 89,
          "name": "F6",
          "ticks": 17915,
          "time": 46.653645833333336,
          "velocity": 0.6535433070866141
        },
        {
          "duration": 0.1197916666666643,
          "durationTicks": 46,
          "midi": 80,
          "name": "G#5",
          "ticks": 17961,
          "time": 46.7734375,
          "velocity": 0.7007874015748031
        },
        {
          "duration": 0.1197916666666643,
          "durationTicks": 46,
          "midi": 92,
          "name": "G#6",
          "ticks": 17961,
          "time": 46.7734375,
          "velocity": 0.7007874015748031
        },
        {
          "duration": 0.1197916666666714,
          "durationTicks": 46,
          "midi": 78,
          "name": "F#5",
          "ticks": 18007,
          "time": 46.893229166666664,
          "velocity": 0.6614173228346457
        },
        {
          "duration": 0.1171875,
          "durationTicks": 45,
          "midi": 90,
          "name": "F#6",
          "ticks": 18008,
          "time": 46.895833333333336,
          "velocity": 0.6614173228346457
        },
        {
          "duration": 0.1171875,
          "durationTicks": 45,
          "midi": 82,
          "name": "A#5",
          "ticks": 18054,
          "time": 47.015625,
          "velocity": 0.6850393700787402
        },
        {
          "duration": 0.1197916666666643,
          "durationTicks": 46,
          "midi": 94,
          "name": "A#6",
          "ticks": 18054,
          "time": 47.015625,
          "velocity": 0.6850393700787402
        },
        {
          "duration": 0.1197916666666714,
          "durationTicks": 46,
          "midi": 80,
          "name": "G#5",
          "ticks": 18100,
          "time": 47.135416666666664,
          "velocity": 0.6299212598425197
        },
        {
          "duration": 0.1171875,
          "durationTicks": 45,
          "midi": 92,
          "name": "G#6",
          "ticks": 18101,
          "time": 47.138020833333336,
          "velocity": 0.6299212598425197
        },
        {
          "duration": 0.1197916666666643,
          "durationTicks": 46,
          "midi": 83,
          "name": "B5",
          "ticks": 18147,
          "time": 47.2578125,
          "velocity": 0.7244094488188977
        },
        {
          "duration": 0.1197916666666643,
          "durationTicks": 46,
          "midi": 95,
          "name": "B6",
          "ticks": 18147,
          "time": 47.2578125,
          "velocity": 0.7244094488188977
        },
        {
          "duration": 0.1223958333333357,
          "durationTicks": 47,
          "midi": 82,
          "name": "A#5",
          "ticks": 18192,
          "time": 47.375,
          "velocity": 0.6771653543307087
        },
        {
          "duration": 0.1197916666666714,
          "durationTicks": 46,
          "midi": 94,
          "name": "A#6",
          "ticks": 18193,
          "time": 47.377604166666664,
          "velocity": 0.6771653543307087
        },
        {
          "duration": 6.729166666666664,
          "durationTicks": 2584,
          "midi": 66,
          "name": "F#4",
          "ticks": 18240,
          "time": 47.5,
          "velocity": 0.5039370078740157
        },
        {
          "duration": 6.734375,
          "durationTicks": 2586,
          "midi": 70,
          "name": "A#4",
          "ticks": 18240,
          "time": 47.5,
          "velocity": 0.5039370078740157
        },
        {
          "duration": 3.8697916666666643,
          "durationTicks": 1486,
          "midi": 73,
          "name": "C#5",
          "ticks": 18240,
          "time": 47.5,
          "velocity": 0.5039370078740157
        },
        {
          "duration": 0.2317708333333357,
          "durationTicks": 89,
          "midi": 85,
          "name": "C#6",
          "ticks": 18241,
          "time": 47.502604166666664,
          "velocity": 0.6929133858267716
        },
        {
          "duration": 0.2161458333333357,
          "durationTicks": 83,
          "midi": 97,
          "name": "C#7",
          "ticks": 18241,
          "time": 47.502604166666664,
          "velocity": 0.6929133858267716
        },
        {
          "duration": 2.8619791666666643,
          "durationTicks": 1099,
          "midi": 75,
          "name": "D#5",
          "ticks": 19727,
          "time": 51.372395833333336,
          "velocity": 0.5039370078740157
        }
      ]
    },
    {
      "channel": 0,
      "controlChanges": {
        "0": [
          {
            "number": 0,
            "ticks": 230,
            "time": 0.5989583333333334,
            "value": 0
          }
        ]
      },
      "pitchBends": [],
      "instrument": {
        "family": "piano",
        "number": 0,
        "name": "acoustic grand piano"
      },
      "name": "",
      "notes": []
    },
    {
      "channel": 0,
      "controlChanges": {
        "0": [
          {
            "number": 0,
            "ticks": 231,
            "time": 0.6015625,
            "value": 0
          }
        ]
      },
      "pitchBends": [],
      "instrument": {
        "family": "piano",
        "number": 0,
        "name": "acoustic grand piano"
      },
      "name": "",
      "notes": []
    },
    {
      "channel": 4,
      "controlChanges": {
        "1": [
          {
            "number": 1,
            "ticks": 247,
            "time": 0.6432291666666666,
            "value": 0
          }
        ],
        "7": [
          {
            "number": 7,
            "ticks": 236,
            "time": 0.6145833333333334,
            "value": 0.5984251968503937
          },
          {
            "number": 7,
            "ticks": 18522,
            "time": 48.234375,
            "value": 0.5905511811023622
          },
          {
            "number": 7,
            "ticks": 18615,
            "time": 48.4765625,
            "value": 0.5669291338582677
          },
          {
            "number": 7,
            "ticks": 18708,
            "time": 48.71875,
            "value": 0.5511811023622047
          },
          {
            "number": 7,
            "ticks": 18801,
            "time": 48.9609375,
            "value": 0.5275590551181102
          },
          {
            "number": 7,
            "ticks": 18894,
            "time": 49.203125,
            "value": 0.5039370078740157
          },
          {
            "number": 7,
            "ticks": 18987,
            "time": 49.4453125,
            "value": 0.4881889763779528
          },
          {
            "number": 7,
            "ticks": 19080,
            "time": 49.6875,
            "value": 0.4645669291338583
          },
          {
            "number": 7,
            "ticks": 19173,
            "time": 49.9296875,
            "value": 0.4409448818897638
          },
          {
            "number": 7,
            "ticks": 19266,
            "time": 50.171875,
            "value": 0.4251968503937008
          },
          {
            "number": 7,
            "ticks": 19358,
            "time": 50.411458333333336,
            "value": 0.4015748031496063
          },
          {
            "number": 7,
            "ticks": 19451,
            "time": 50.653645833333336,
            "value": 0.3779527559055118
          },
          {
            "number": 7,
            "ticks": 19544,
            "time": 50.895833333333336,
            "value": 0.3543307086614173
          },
          {
            "number": 7,
            "ticks": 19637,
            "time": 51.138020833333336,
            "value": 0.33858267716535434
          },
          {
            "number": 7,
            "ticks": 19730,
            "time": 51.380208333333336,
            "value": 0.31496062992125984
          },
          {
            "number": 7,
            "ticks": 19823,
            "time": 51.622395833333336,
            "value": 0.29133858267716534
          },
          {
            "number": 7,
            "ticks": 19916,
            "time": 51.864583333333336,
            "value": 0.2755905511811024
          },
          {
            "number": 7,
            "ticks": 20009,
            "time": 52.106770833333336,
            "value": 0.25196850393700787
          },
          {
            "number": 7,
            "ticks": 20102,
            "time": 52.348958333333336,
            "value": 0.2283464566929134
          },
          {
            "number": 7,
            "ticks": 20195,
            "time": 52.591145833333336,
            "value": 0.2125984251968504
          },
          {
            "number": 7,
            "ticks": 20287,
            "time": 52.830729166666664,
            "value": 0.1889763779527559
          },
          {
            "number": 7,
            "ticks": 20380,
            "time": 53.072916666666664,
            "value": 0.16535433070866143
          },
          {
            "number": 7,
            "ticks": 20473,
            "time": 53.315104166666664,
            "value": 0.14173228346456693
          },
          {
            "number": 7,
            "ticks": 20566,
            "time": 53.557291666666664,
            "value": 0.12598425196850394
          },
          {
            "number": 7,
            "ticks": 20659,
            "time": 53.799479166666664,
            "value": 0.10236220472440945
          },
          {
            "number": 7,
            "ticks": 20752,
            "time": 54.041666666666664,
            "value": 0.07874015748031496
          },
          {
            "number": 7,
            "ticks": 20845,
            "time": 54.283854166666664,
            "value": 0.06299212598425197
          },
          {
            "number": 7,
            "ticks": 20938,
            "time": 54.526041666666664,
            "value": 0.03937007874015748
          },
          {
            "number": 7,
            "ticks": 21031,
            "time": 54.768229166666664,
            "value": 0.015748031496062992
          },
          {
            "number": 7,
            "ticks": 21123,
            "time": 55.0078125,
            "value": 0
          }
        ],
        "10": [
          {
            "number": 10,
            "ticks": 239,
            "time": 0.6223958333333334,
            "value": 0.6456692913385826
          }
        ],
        "91": [
          {
            "number": 91,
            "ticks": 241,
            "time": 0.6276041666666666,
            "value": 0.6299212598425197
          }
        ],
        "93": [
          {
            "number": 93,
            "ticks": 244,
            "time": 0.6354166666666666,
            "value": 0
          }
        ]
      },
      "pitchBends": [],
      "instrument": {
        "family": "brass",
        "number": 58,
        "name": "tuba"
      },
      "name": "",
      "notes": [
        {
          "duration": 0.6614583333333335,
          "durationTicks": 254,
          "midi": 49,
          "name": "C#3",
          "ticks": 416,
          "time": 1.0833333333333333,
          "velocity": 0.8503937007874016
        },
        {
          "duration": 0.09375,
          "durationTicks": 36,
          "midi": 49,
          "name": "C#3",
          "ticks": 694,
          "time": 1.8072916666666667,
          "velocity": 0.8188976377952756
        },
        {
          "duration": 0.08854166666666674,
          "durationTicks": 34,
          "midi": 49,
          "name": "C#3",
          "ticks": 740,
          "time": 1.9270833333333333,
          "velocity": 0.8110236220472441
        },
        {
          "duration": 0.643229166666667,
          "durationTicks": 247,
          "midi": 49,
          "name": "C#3",
          "ticks": 787,
          "time": 2.0494791666666665,
          "velocity": 0.8503937007874016
        },
        {
          "duration": 0.09635416666666652,
          "durationTicks": 37,
          "midi": 49,
          "name": "C#3",
          "ticks": 1065,
          "time": 2.7734375,
          "velocity": 0.8188976377952756
        },
        {
          "duration": 0.09635416666666696,
          "durationTicks": 37,
          "midi": 49,
          "name": "C#3",
          "ticks": 1111,
          "time": 2.8932291666666665,
          "velocity": 0.7874015748031497
        },
        {
          "duration": 1.557291666666667,
          "durationTicks": 598,
          "midi": 49,
          "name": "C#3",
          "ticks": 1158,
          "time": 3.015625,
          "velocity": 0.84251968503937
        },
        {
          "duration": 0.661458333333333,
          "durationTicks": 254,
          "midi": 49,
          "name": "C#3",
          "ticks": 1902,
          "time": 4.953125,
          "velocity": 0.8503937007874016
        },
        {
          "duration": 0.09635416666666696,
          "durationTicks": 37,
          "midi": 49,
          "name": "C#3",
          "ticks": 2180,
          "time": 5.677083333333333,
          "velocity": 0.8188976377952756
        },
        {
          "duration": 0.09114583333333304,
          "durationTicks": 35,
          "midi": 49,
          "name": "C#3",
          "ticks": 2226,
          "time": 5.796875,
          "velocity": 0.8110236220472441
        },
        {
          "duration": 0.643229166666667,
          "durationTicks": 247,
          "midi": 49,
          "name": "C#3",
          "ticks": 2273,
          "time": 5.919270833333333,
          "velocity": 0.8503937007874016
        },
        {
          "duration": 0.09635416666666607,
          "durationTicks": 37,
          "midi": 49,
          "name": "C#3",
          "ticks": 2551,
          "time": 6.643229166666667,
          "velocity": 0.8188976377952756
        },
        {
          "duration": 0.09375,
          "durationTicks": 36,
          "midi": 49,
          "name": "C#3",
          "ticks": 2598,
          "time": 6.765625,
          "velocity": 0.7874015748031497
        },
        {
          "duration": 1.5546875000000009,
          "durationTicks": 597,
          "midi": 49,
          "name": "C#3",
          "ticks": 2645,
          "time": 6.888020833333333,
          "velocity": 0.84251968503937
        },
        {
          "duration": 0.6640625,
          "durationTicks": 255,
          "midi": 49,
          "name": "C#3",
          "ticks": 3388,
          "time": 8.822916666666666,
          "velocity": 0.8503937007874016
        },
        {
          "duration": 0.09635416666666607,
          "durationTicks": 37,
          "midi": 49,
          "name": "C#3",
          "ticks": 3666,
          "time": 9.546875,
          "velocity": 0.8188976377952756
        },
        {
          "duration": 0.09375,
          "durationTicks": 36,
          "midi": 49,
          "name": "C#3",
          "ticks": 3712,
          "time": 9.666666666666666,
          "velocity": 0.8110236220472441
        },
        {
          "duration": 0.6458333333333339,
          "durationTicks": 248,
          "midi": 49,
          "name": "C#3",
          "ticks": 3759,
          "time": 9.7890625,
          "velocity": 0.8503937007874016
        },
        {
          "duration": 0.09375,
          "durationTicks": 36,
          "midi": 49,
          "name": "C#3",
          "ticks": 4038,
          "time": 10.515625,
          "velocity": 0.8188976377952756
        },
        {
          "duration": 0.09635416666666785,
          "durationTicks": 37,
          "midi": 49,
          "name": "C#3",
          "ticks": 4084,
          "time": 10.635416666666666,
          "velocity": 0.7874015748031497
        },
        {
          "duration": 1.5546875,
          "durationTicks": 597,
          "midi": 49,
          "name": "C#3",
          "ticks": 4131,
          "time": 10.7578125,
          "velocity": 0.84251968503937
        },
        {
          "duration": 0.16145833333333215,
          "durationTicks": 62,
          "midi": 49,
          "name": "C#3",
          "ticks": 10821,
          "time": 28.1796875,
          "velocity": 0.8582677165354331
        },
        {
          "duration": 0.171875,
          "durationTicks": 66,
          "midi": 49,
          "name": "C#3",
          "ticks": 11006,
          "time": 28.661458333333332,
          "velocity": 0.8661417322834646
        },
        {
          "duration": 0.171875,
          "durationTicks": 66,
          "midi": 49,
          "name": "C#3",
          "ticks": 11192,
          "time": 29.145833333333332,
          "velocity": 0.8661417322834646
        },
        {
          "duration": 0.1744791666666643,
          "durationTicks": 67,
          "midi": 49,
          "name": "C#3",
          "ticks": 11377,
          "time": 29.627604166666668,
          "velocity": 0.8661417322834646
        },
        {
          "duration": 0.17708333333333215,
          "durationTicks": 68,
          "midi": 49,
          "name": "C#3",
          "ticks": 11563,
          "time": 30.111979166666668,
          "velocity": 0.8740157480314961
        },
        {
          "duration": 0.2291666666666643,
          "durationTicks": 88,
          "midi": 42,
          "name": "F#2",
          "ticks": 12306,
          "time": 32.046875,
          "velocity": 0.8661417322834646
        },
        {
          "duration": 0.2083333333333357,
          "durationTicks": 80,
          "midi": 42,
          "name": "F#2",
          "ticks": 12492,
          "time": 32.53125,
          "velocity": 0.8661417322834646
        },
        {
          "duration": 0.1953125,
          "durationTicks": 75,
          "midi": 42,
          "name": "F#2",
          "ticks": 12677,
          "time": 33.013020833333336,
          "velocity": 0.889763779527559
        },
        {
          "duration": 0.171875,
          "durationTicks": 66,
          "midi": 37,
          "name": "C#2",
          "ticks": 12864,
          "time": 33.5,
          "velocity": 0.8503937007874016
        },
        {
          "duration": 0.1822916666666714,
          "durationTicks": 70,
          "midi": 42,
          "name": "F#2",
          "ticks": 12955,
          "time": 33.736979166666664,
          "velocity": 0.8976377952755905
        },
        {
          "duration": 0.3489583333333286,
          "durationTicks": 134,
          "midi": 39,
          "name": "D#2",
          "ticks": 13793,
          "time": 35.919270833333336,
          "velocity": 0.8661417322834646
        },
        {
          "duration": 0.2109375,
          "durationTicks": 81,
          "midi": 34,
          "name": "A#1",
          "ticks": 13977,
          "time": 36.3984375,
          "velocity": 0.8661417322834646
        },
        {
          "duration": 0.1979166666666643,
          "durationTicks": 76,
          "midi": 39,
          "name": "D#2",
          "ticks": 14163,
          "time": 36.8828125,
          "velocity": 0.889763779527559
        },
        {
          "duration": 0.171875,
          "durationTicks": 66,
          "midi": 34,
          "name": "A#1",
          "ticks": 14350,
          "time": 37.369791666666664,
          "velocity": 0.8503937007874016
        },
        {
          "duration": 0.1796875,
          "durationTicks": 69,
          "midi": 39,
          "name": "D#2",
          "ticks": 14442,
          "time": 37.609375,
          "velocity": 0.8976377952755905
        },
        {
          "duration": 0.7734375,
          "durationTicks": 297,
          "midi": 44,
          "name": "G#2",
          "ticks": 15279,
          "time": 39.7890625,
          "velocity": 0.8740157480314961
        },
        {
          "duration": 0.8125,
          "durationTicks": 312,
          "midi": 44,
          "name": "G#2",
          "ticks": 15651,
          "time": 40.7578125,
          "velocity": 0.8661417322834646
        },
        {
          "duration": 0.8125,
          "durationTicks": 312,
          "midi": 44,
          "name": "G#2",
          "ticks": 16022,
          "time": 41.723958333333336,
          "velocity": 0.8661417322834646
        },
        {
          "duration": 0.8072916666666643,
          "durationTicks": 310,
          "midi": 44,
          "name": "G#2",
          "ticks": 16394,
          "time": 42.692708333333336,
          "velocity": 0.8661417322834646
        },
        {
          "duration": 0.2109375,
          "durationTicks": 81,
          "midi": 37,
          "name": "C#2",
          "ticks": 16765,
          "time": 43.658854166666664,
          "velocity": 0.8661417322834646
        },
        {
          "duration": 0.8932291666666714,
          "durationTicks": 343,
          "midi": 37,
          "name": "C#2",
          "ticks": 17137,
          "time": 44.627604166666664,
          "velocity": 0.8976377952755905
        },
        {
          "duration": 0.21875,
          "durationTicks": 84,
          "midi": 37,
          "name": "C#2",
          "ticks": 17508,
          "time": 45.59375,
          "velocity": 0.8661417322834646
        },
        {
          "duration": 0.3489583333333357,
          "durationTicks": 134,
          "midi": 42,
          "name": "F#2",
          "ticks": 18252,
          "time": 47.53125,
          "velocity": 0.8661417322834646
        },
        {
          "duration": 0.2109375,
          "durationTicks": 81,
          "midi": 37,
          "name": "C#2",
          "ticks": 18436,
          "time": 48.010416666666664,
          "velocity": 0.8661417322834646
        },
        {
          "duration": 0.1927083333333286,
          "durationTicks": 74,
          "midi": 42,
          "name": "F#2",
          "ticks": 18623,
          "time": 48.497395833333336,
          "velocity": 0.889763779527559
        },
        {
          "duration": 0.1744791666666643,
          "durationTicks": 67,
          "midi": 37,
          "name": "C#2",
          "ticks": 18809,
          "time": 48.981770833333336,
          "velocity": 0.8503937007874016
        },
        {
          "duration": 0.1796875,
          "durationTicks": 69,
          "midi": 42,
          "name": "F#2",
          "ticks": 18901,
          "time": 49.221354166666664,
          "velocity": 0.8976377952755905
        },
        {
          "duration": 0.3489583333333357,
          "durationTicks": 134,
          "midi": 39,
          "name": "D#2",
          "ticks": 19738,
          "time": 51.401041666666664,
          "velocity": 0.8661417322834646
        },
        {
          "duration": 0.2135416666666643,
          "durationTicks": 82,
          "midi": 34,
          "name": "A#1",
          "ticks": 19922,
          "time": 51.880208333333336,
          "velocity": 0.8661417322834646
        },
        {
          "duration": 0.1953125,
          "durationTicks": 75,
          "midi": 39,
          "name": "D#2",
          "ticks": 20109,
          "time": 52.3671875,
          "velocity": 0.889763779527559
        },
        {
          "duration": 0.1744791666666643,
          "durationTicks": 67,
          "midi": 34,
          "name": "A#1",
          "ticks": 20295,
          "time": 52.8515625,
          "velocity": 0.8503937007874016
        },
        {
          "duration": 0.1822916666666643,
          "durationTicks": 70,
          "midi": 39,
          "name": "D#2",
          "ticks": 20387,
          "time": 53.091145833333336,
          "velocity": 0.8976377952755905
        }
      ]
    },
    {
      "channel": 0,
      "controlChanges": {
        "0": [
          {
            "number": 0,
            "ticks": 233,
            "time": 0.6067708333333334,
            "value": 0
          }
        ]
      },
      "pitchBends": [],
      "instrument": {
        "family": "piano",
        "number": 0,
        "name": "acoustic grand piano"
      },
      "name": "",
      "notes": []
    },
    {
      "channel": 0,
      "controlChanges": {
        "0": [
          {
            "number": 0,
            "ticks": 233,
            "time": 0.6067708333333334,
            "value": 0
          }
        ]
      },
      "pitchBends": [],
      "instrument": {
        "family": "piano",
        "number": 0,
        "name": "acoustic grand piano"
      },
      "name": "",
      "notes": []
    },
    {
      "channel": 0,
      "controlChanges": {
        "0": [
          {
            "number": 0,
            "ticks": 234,
            "time": 0.609375,
            "value": 0
          }
        ]
      },
      "pitchBends": [],
      "instrument": {
        "family": "piano",
        "number": 0,
        "name": "acoustic grand piano"
      },
      "name": "",
      "notes": []
    },
    {
      "channel": 6,
      "controlChanges": {
        "1": [
          {
            "number": 1,
            "ticks": 249,
            "time": 0.6484375,
            "value": 0
          }
        ],
        "7": [
          {
            "number": 7,
            "ticks": 237,
            "time": 0.6171875,
            "value": 0.7480314960629921
          },
          {
            "number": 7,
            "ticks": 18429,
            "time": 47.9921875,
            "value": 0.7401574803149606
          },
          {
            "number": 7,
            "ticks": 18522,
            "time": 48.234375,
            "value": 0.7244094488188977
          },
          {
            "number": 7,
            "ticks": 18615,
            "time": 48.4765625,
            "value": 0.7007874015748031
          },
          {
            "number": 7,
            "ticks": 18707,
            "time": 48.716145833333336,
            "value": 0.6692913385826772
          },
          {
            "number": 7,
            "ticks": 18800,
            "time": 48.958333333333336,
            "value": 0.6456692913385826
          },
          {
            "number": 7,
            "ticks": 18893,
            "time": 49.200520833333336,
            "value": 0.6220472440944882
          },
          {
            "number": 7,
            "ticks": 18986,
            "time": 49.442708333333336,
            "value": 0.5905511811023622
          },
          {
            "number": 7,
            "ticks": 19079,
            "time": 49.684895833333336,
            "value": 0.5669291338582677
          },
          {
            "number": 7,
            "ticks": 19172,
            "time": 49.927083333333336,
            "value": 0.5433070866141733
          },
          {
            "number": 7,
            "ticks": 19265,
            "time": 50.169270833333336,
            "value": 0.5196850393700787
          },
          {
            "number": 7,
            "ticks": 19358,
            "time": 50.411458333333336,
            "value": 0.4881889763779528
          },
          {
            "number": 7,
            "ticks": 19450,
            "time": 50.651041666666664,
            "value": 0.4645669291338583
          },
          {
            "number": 7,
            "ticks": 19543,
            "time": 50.893229166666664,
            "value": 0.4409448818897638
          },
          {
            "number": 7,
            "ticks": 19636,
            "time": 51.135416666666664,
            "value": 0.4094488188976378
          },
          {
            "number": 7,
            "ticks": 19729,
            "time": 51.377604166666664,
            "value": 0.3858267716535433
          },
          {
            "number": 7,
            "ticks": 19822,
            "time": 51.619791666666664,
            "value": 0.36220472440944884
          },
          {
            "number": 7,
            "ticks": 19915,
            "time": 51.861979166666664,
            "value": 0.33070866141732286
          },
          {
            "number": 7,
            "ticks": 20008,
            "time": 52.104166666666664,
            "value": 0.30708661417322836
          },
          {
            "number": 7,
            "ticks": 20101,
            "time": 52.346354166666664,
            "value": 0.28346456692913385
          },
          {
            "number": 7,
            "ticks": 20194,
            "time": 52.588541666666664,
            "value": 0.25984251968503935
          },
          {
            "number": 7,
            "ticks": 20287,
            "time": 52.830729166666664,
            "value": 0.2283464566929134
          },
          {
            "number": 7,
            "ticks": 20380,
            "time": 53.072916666666664,
            "value": 0.2047244094488189
          },
          {
            "number": 7,
            "ticks": 20472,
            "time": 53.3125,
            "value": 0.18110236220472442
          },
          {
            "number": 7,
            "ticks": 20565,
            "time": 53.5546875,
            "value": 0.14960629921259844
          },
          {
            "number": 7,
            "ticks": 20658,
            "time": 53.796875,
            "value": 0.12598425196850394
          },
          {
            "number": 7,
            "ticks": 20751,
            "time": 54.0390625,
            "value": 0.10236220472440945
          },
          {
            "number": 7,
            "ticks": 20844,
            "time": 54.28125,
            "value": 0.07086614173228346
          },
          {
            "number": 7,
            "ticks": 20937,
            "time": 54.5234375,
            "value": 0.047244094488188976
          },
          {
            "number": 7,
            "ticks": 21030,
            "time": 54.765625,
            "value": 0.023622047244094488
          },
          {
            "number": 7,
            "ticks": 21123,
            "time": 55.0078125,
            "value": 0
          }
        ],
        "10": [
          {
            "number": 10,
            "ticks": 240,
            "time": 0.625,
            "value": 0.1889763779527559
          }
        ],
        "91": [
          {
            "number": 91,
            "ticks": 243,
            "time": 0.6328125,
            "value": 0.8661417322834646
          }
        ],
        "93": [
          {
            "number": 93,
            "ticks": 246,
            "time": 0.640625,
            "value": 0
          }
        ]
      },
      "pitchBends": [],
      "instrument": {
        "family": "brass",
        "number": 61,
        "name": "brass section"
      },
      "name": "",
      "notes": [
        {
          "duration": 0.0572916666666643,
          "durationTicks": 22,
          "midi": 61,
          "name": "C#4",
          "ticks": 12770,
          "time": 33.255208333333336,
          "velocity": 0.7401574803149606
        },
        {
          "duration": 0.0598958333333357,
          "durationTicks": 23,
          "midi": 66,
          "name": "F#4",
          "ticks": 12771,
          "time": 33.2578125,
          "velocity": 0.7637795275590551
        },
        {
          "duration": 0.0625,
          "durationTicks": 24,
          "midi": 70,
          "name": "A#4",
          "ticks": 12771,
          "time": 33.2578125,
          "velocity": 0.7795275590551181
        },
        {
          "duration": 0.0546875,
          "durationTicks": 21,
          "midi": 61,
          "name": "C#4",
          "ticks": 12815,
          "time": 33.372395833333336,
          "velocity": 0.7874015748031497
        },
        {
          "duration": 0.0572916666666643,
          "durationTicks": 22,
          "midi": 66,
          "name": "F#4",
          "ticks": 12816,
          "time": 33.375,
          "velocity": 0.7874015748031497
        },
        {
          "duration": 0.0651041666666714,
          "durationTicks": 25,
          "midi": 70,
          "name": "A#4",
          "ticks": 12817,
          "time": 33.377604166666664,
          "velocity": 0.7401574803149606
        },
        {
          "duration": 0.0651041666666643,
          "durationTicks": 25,
          "midi": 61,
          "name": "C#4",
          "ticks": 12864,
          "time": 33.5,
          "velocity": 0.7952755905511811
        },
        {
          "duration": 0.0625,
          "durationTicks": 24,
          "midi": 66,
          "name": "F#4",
          "ticks": 12865,
          "time": 33.502604166666664,
          "velocity": 0.7952755905511811
        },
        {
          "duration": 0.0677083333333357,
          "durationTicks": 26,
          "midi": 70,
          "name": "A#4",
          "ticks": 12865,
          "time": 33.502604166666664,
          "velocity": 0.8110236220472441
        },
        {
          "duration": 0.0572916666666643,
          "durationTicks": 22,
          "midi": 58,
          "name": "A#3",
          "ticks": 14256,
          "time": 37.125,
          "velocity": 0.7401574803149606
        },
        {
          "duration": 0.0598958333333357,
          "durationTicks": 23,
          "midi": 63,
          "name": "D#4",
          "ticks": 14257,
          "time": 37.127604166666664,
          "velocity": 0.7637795275590551
        },
        {
          "duration": 0.059895833333328596,
          "durationTicks": 23,
          "midi": 66,
          "name": "F#4",
          "ticks": 14258,
          "time": 37.130208333333336,
          "velocity": 0.7795275590551181
        },
        {
          "duration": 0.0572916666666643,
          "durationTicks": 22,
          "midi": 58,
          "name": "A#3",
          "ticks": 14301,
          "time": 37.2421875,
          "velocity": 0.7874015748031497
        },
        {
          "duration": 0.0546875,
          "durationTicks": 21,
          "midi": 63,
          "name": "D#4",
          "ticks": 14304,
          "time": 37.25,
          "velocity": 0.7874015748031497
        },
        {
          "duration": 0.0625,
          "durationTicks": 24,
          "midi": 66,
          "name": "F#4",
          "ticks": 14304,
          "time": 37.25,
          "velocity": 0.7401574803149606
        },
        {
          "duration": 0.0651041666666714,
          "durationTicks": 25,
          "midi": 58,
          "name": "A#3",
          "ticks": 14350,
          "time": 37.369791666666664,
          "velocity": 0.7952755905511811
        },
        {
          "duration": 0.0625,
          "durationTicks": 24,
          "midi": 63,
          "name": "D#4",
          "ticks": 14351,
          "time": 37.372395833333336,
          "velocity": 0.7952755905511811
        },
        {
          "duration": 0.0677083333333286,
          "durationTicks": 26,
          "midi": 66,
          "name": "F#4",
          "ticks": 14351,
          "time": 37.372395833333336,
          "velocity": 0.8110236220472441
        },
        {
          "duration": 2.8567708333333357,
          "durationTicks": 1097,
          "midi": 59,
          "name": "B3",
          "ticks": 15279,
          "time": 39.7890625,
          "velocity": 0.7086614173228346
        },
        {
          "duration": 2.8619791666666643,
          "durationTicks": 1099,
          "midi": 63,
          "name": "D#4",
          "ticks": 15279,
          "time": 39.7890625,
          "velocity": 0.7165354330708661
        },
        {
          "duration": 0.9583333333333357,
          "durationTicks": 368,
          "midi": 68,
          "name": "G#4",
          "ticks": 15280,
          "time": 39.791666666666664,
          "velocity": 0.7401574803149606
        },
        {
          "duration": 0.9609375,
          "durationTicks": 369,
          "midi": 67,
          "name": "G4",
          "ticks": 15651,
          "time": 40.7578125,
          "velocity": 0.7401574803149606
        },
        {
          "duration": 0.703125,
          "durationTicks": 270,
          "midi": 66,
          "name": "F#4",
          "ticks": 16023,
          "time": 41.7265625,
          "velocity": 0.7480314960629921
        },
        {
          "duration": 0.15625,
          "durationTicks": 60,
          "midi": 68,
          "name": "G#4",
          "ticks": 16301,
          "time": 42.450520833333336,
          "velocity": 0.7559055118110236
        },
        {
          "duration": 0.0598958333333357,
          "durationTicks": 23,
          "midi": 61,
          "name": "C#4",
          "ticks": 18714,
          "time": 48.734375,
          "velocity": 0.7401574803149606
        },
        {
          "duration": 0.059895833333328596,
          "durationTicks": 23,
          "midi": 66,
          "name": "F#4",
          "ticks": 18716,
          "time": 48.739583333333336,
          "velocity": 0.7637795275590551
        },
        {
          "duration": 0.0572916666666643,
          "durationTicks": 22,
          "midi": 70,
          "name": "A#4",
          "ticks": 18717,
          "time": 48.7421875,
          "velocity": 0.7795275590551181
        },
        {
          "duration": 0.0546875,
          "durationTicks": 21,
          "midi": 61,
          "name": "C#4",
          "ticks": 18760,
          "time": 48.854166666666664,
          "velocity": 0.7874015748031497
        },
        {
          "duration": 0.0546875,
          "durationTicks": 21,
          "midi": 66,
          "name": "F#4",
          "ticks": 18762,
          "time": 48.859375,
          "velocity": 0.7874015748031497
        },
        {
          "duration": 0.0651041666666714,
          "durationTicks": 25,
          "midi": 70,
          "name": "A#4",
          "ticks": 18763,
          "time": 48.861979166666664,
          "velocity": 0.7401574803149606
        },
        {
          "duration": 0.0651041666666643,
          "durationTicks": 25,
          "midi": 61,
          "name": "C#4",
          "ticks": 18809,
          "time": 48.981770833333336,
          "velocity": 0.7952755905511811
        },
        {
          "duration": 0.0625,
          "durationTicks": 24,
          "midi": 66,
          "name": "F#4",
          "ticks": 18810,
          "time": 48.984375,
          "velocity": 0.7952755905511811
        },
        {
          "duration": 0.0677083333333357,
          "durationTicks": 26,
          "midi": 70,
          "name": "A#4",
          "ticks": 18810,
          "time": 48.984375,
          "velocity": 0.8110236220472441
        },
        {
          "duration": 0.0572916666666643,
          "durationTicks": 22,
          "midi": 58,
          "name": "A#3",
          "ticks": 20201,
          "time": 52.606770833333336,
          "velocity": 0.7401574803149606
        },
        {
          "duration": 0.057291666666671404,
          "durationTicks": 22,
          "midi": 63,
          "name": "D#4",
          "ticks": 20203,
          "time": 52.611979166666664,
          "velocity": 0.7637795275590551
        },
        {
          "duration": 0.0598958333333357,
          "durationTicks": 23,
          "midi": 66,
          "name": "F#4",
          "ticks": 20203,
          "time": 52.611979166666664,
          "velocity": 0.7795275590551181
        },
        {
          "duration": 0.0546875,
          "durationTicks": 21,
          "midi": 58,
          "name": "A#3",
          "ticks": 20247,
          "time": 52.7265625,
          "velocity": 0.7874015748031497
        },
        {
          "duration": 0.0546875,
          "durationTicks": 21,
          "midi": 63,
          "name": "D#4",
          "ticks": 20249,
          "time": 52.731770833333336,
          "velocity": 0.7874015748031497
        },
        {
          "duration": 0.0651041666666643,
          "durationTicks": 25,
          "midi": 66,
          "name": "F#4",
          "ticks": 20249,
          "time": 52.731770833333336,
          "velocity": 0.7401574803149606
        },
        {
          "duration": 0.0651041666666643,
          "durationTicks": 25,
          "midi": 58,
          "name": "A#3",
          "ticks": 20295,
          "time": 52.8515625,
          "velocity": 0.7952755905511811
        },
        {
          "duration": 0.0651041666666714,
          "durationTicks": 25,
          "midi": 63,
          "name": "D#4",
          "ticks": 20296,
          "time": 52.854166666666664,
          "velocity": 0.7952755905511811
        },
        {
          "duration": 0.0651041666666643,
          "durationTicks": 25,
          "midi": 66,
          "name": "F#4",
          "ticks": 20297,
          "time": 52.856770833333336,
          "velocity": 0.8110236220472441
        }
      ]
    },
    {
      "channel": 2,
      "controlChanges": {
        "1": [
          {
            "number": 1,
            "ticks": 250,
            "time": 0.6510416666666666,
            "value": 0
          }
        ],
        "7": [
          {
            "number": 7,
            "ticks": 239,
            "time": 0.6223958333333334,
            "value": 0.6771653543307087
          },
          {
            "number": 7,
            "ticks": 18429,
            "time": 47.9921875,
            "value": 0.6692913385826772
          },
          {
            "number": 7,
            "ticks": 18522,
            "time": 48.234375,
            "value": 0.6614173228346457
          },
          {
            "number": 7,
            "ticks": 18616,
            "time": 48.479166666666664,
            "value": 0.6377952755905512
          },
          {
            "number": 7,
            "ticks": 18709,
            "time": 48.721354166666664,
            "value": 0.6141732283464567
          },
          {
            "number": 7,
            "ticks": 18802,
            "time": 48.963541666666664,
            "value": 0.5905511811023622
          },
          {
            "number": 7,
            "ticks": 18895,
            "time": 49.205729166666664,
            "value": 0.5669291338582677
          },
          {
            "number": 7,
            "ticks": 18988,
            "time": 49.447916666666664,
            "value": 0.5433070866141733
          },
          {
            "number": 7,
            "ticks": 19081,
            "time": 49.690104166666664,
            "value": 0.5196850393700787
          },
          {
            "number": 7,
            "ticks": 19173,
            "time": 49.9296875,
            "value": 0.49606299212598426
          },
          {
            "number": 7,
            "ticks": 19266,
            "time": 50.171875,
            "value": 0.47244094488188976
          },
          {
            "number": 7,
            "ticks": 19359,
            "time": 50.4140625,
            "value": 0.44881889763779526
          },
          {
            "number": 7,
            "ticks": 19452,
            "time": 50.65625,
            "value": 0.4251968503937008
          },
          {
            "number": 7,
            "ticks": 19545,
            "time": 50.8984375,
            "value": 0.4015748031496063
          },
          {
            "number": 7,
            "ticks": 19638,
            "time": 51.140625,
            "value": 0.3779527559055118
          },
          {
            "number": 7,
            "ticks": 19731,
            "time": 51.3828125,
            "value": 0.3543307086614173
          },
          {
            "number": 7,
            "ticks": 19824,
            "time": 51.625,
            "value": 0.33070866141732286
          },
          {
            "number": 7,
            "ticks": 19917,
            "time": 51.8671875,
            "value": 0.30708661417322836
          },
          {
            "number": 7,
            "ticks": 20010,
            "time": 52.109375,
            "value": 0.28346456692913385
          },
          {
            "number": 7,
            "ticks": 20102,
            "time": 52.348958333333336,
            "value": 0.25984251968503935
          },
          {
            "number": 7,
            "ticks": 20195,
            "time": 52.591145833333336,
            "value": 0.23622047244094488
          },
          {
            "number": 7,
            "ticks": 20288,
            "time": 52.833333333333336,
            "value": 0.2125984251968504
          },
          {
            "number": 7,
            "ticks": 20381,
            "time": 53.075520833333336,
            "value": 0.1889763779527559
          },
          {
            "number": 7,
            "ticks": 20474,
            "time": 53.317708333333336,
            "value": 0.16535433070866143
          },
          {
            "number": 7,
            "ticks": 20567,
            "time": 53.559895833333336,
            "value": 0.14173228346456693
          },
          {
            "number": 7,
            "ticks": 20660,
            "time": 53.802083333333336,
            "value": 0.11811023622047244
          },
          {
            "number": 7,
            "ticks": 20753,
            "time": 54.044270833333336,
            "value": 0.09448818897637795
          },
          {
            "number": 7,
            "ticks": 20845,
            "time": 54.283854166666664,
            "value": 0.07086614173228346
          },
          {
            "number": 7,
            "ticks": 20938,
            "time": 54.526041666666664,
            "value": 0.047244094488188976
          },
          {
            "number": 7,
            "ticks": 21031,
            "time": 54.768229166666664,
            "value": 0.023622047244094488
          },
          {
            "number": 7,
            "ticks": 21124,
            "time": 55.010416666666664,
            "value": 0
          }
        ],
        "10": [
          {
            "number": 10,
            "ticks": 242,
            "time": 0.6302083333333334,
            "value": 0.5039370078740157
          }
        ],
        "91": [
          {
            "number": 91,
            "ticks": 245,
            "time": 0.6380208333333334,
            "value": 0.8267716535433071
          }
        ],
        "93": [
          {
            "number": 93,
            "ticks": 248,
            "time": 0.6458333333333334,
            "value": 0.15748031496062992
          }
        ]
      },
      "pitchBends": [],
      "instrument": {
        "family": "brass",
        "number": 61,
        "name": "brass section"
      },
      "name": "",
      "notes": [
        {
          "duration": 0.6145833333333333,
          "durationTicks": 236,
          "midi": 70,
          "name": "A#4",
          "ticks": 417,
          "time": 1.0859375,
          "velocity": 0.9763779527559056
        },
        {
          "duration": 0.1015625,
          "durationTicks": 39,
          "midi": 68,
          "name": "G#4",
          "ticks": 694,
          "time": 1.8072916666666667,
          "velocity": 0.9291338582677166
        },
        {
          "duration": 0.864583333333333,
          "durationTicks": 332,
          "midi": 63,
          "name": "D#4",
          "ticks": 788,
          "time": 2.0520833333333335,
          "velocity": 0.9763779527559056
        },
        {
          "duration": 0.13020833333333348,
          "durationTicks": 50,
          "midi": 70,
          "name": "A#4",
          "ticks": 1252,
          "time": 3.2604166666666665,
          "velocity": 0.9606299212598425
        },
        {
          "duration": 0.23177083333333348,
          "durationTicks": 89,
          "midi": 68,
          "name": "G#4",
          "ticks": 1345,
          "time": 3.5026041666666665,
          "velocity": 0.9212598425196851
        },
        {
          "duration": 0.12239583333333348,
          "durationTicks": 47,
          "midi": 73,
          "name": "C#5",
          "ticks": 1437,
          "time": 3.7421875,
          "velocity": 0.9763779527559056
        },
        {
          "duration": 0.125,
          "durationTicks": 48,
          "midi": 70,
          "name": "A#4",
          "ticks": 1484,
          "time": 3.8645833333333335,
          "velocity": 0.968503937007874
        },
        {
          "duration": 0.11979166666666696,
          "durationTicks": 46,
          "midi": 70,
          "name": "A#4",
          "ticks": 1577,
          "time": 4.106770833333333,
          "velocity": 0.9133858267716536
        },
        {
          "duration": 0.109375,
          "durationTicks": 42,
          "midi": 68,
          "name": "G#4",
          "ticks": 1624,
          "time": 4.229166666666667,
          "velocity": 0.9763779527559056
        },
        {
          "duration": 0.359375,
          "durationTicks": 138,
          "midi": 63,
          "name": "D#4",
          "ticks": 1717,
          "time": 4.471354166666667,
          "velocity": 0.9606299212598425
        },
        {
          "duration": 0.6145833333333339,
          "durationTicks": 236,
          "midi": 70,
          "name": "A#4",
          "ticks": 1904,
          "time": 4.958333333333333,
          "velocity": 0.8818897637795275
        },
        {
          "duration": 0.619791666666667,
          "durationTicks": 238,
          "midi": 82,
          "name": "A#5",
          "ticks": 1904,
          "time": 4.958333333333333,
          "velocity": 0.8818897637795275
        },
        {
          "duration": 0.1015625,
          "durationTicks": 39,
          "midi": 68,
          "name": "G#4",
          "ticks": 2180,
          "time": 5.677083333333333,
          "velocity": 0.8267716535433071
        },
        {
          "duration": 0.1015625,
          "durationTicks": 39,
          "midi": 80,
          "name": "G#5",
          "ticks": 2181,
          "time": 5.6796875,
          "velocity": 0.8661417322834646
        },
        {
          "duration": 0.864583333333333,
          "durationTicks": 332,
          "midi": 63,
          "name": "D#4",
          "ticks": 2274,
          "time": 5.921875,
          "velocity": 0.8818897637795275
        },
        {
          "duration": 0.864583333333333,
          "durationTicks": 332,
          "midi": 75,
          "name": "D#5",
          "ticks": 2275,
          "time": 5.924479166666667,
          "velocity": 0.8740157480314961
        },
        {
          "duration": 0.13020833333333393,
          "durationTicks": 50,
          "midi": 70,
          "name": "A#4",
          "ticks": 2738,
          "time": 7.130208333333333,
          "velocity": 0.8661417322834646
        },
        {
          "duration": 0.1328125,
          "durationTicks": 51,
          "midi": 82,
          "name": "A#5",
          "ticks": 2738,
          "time": 7.130208333333333,
          "velocity": 0.8740157480314961
        },
        {
          "duration": 0.22916666666666696,
          "durationTicks": 88,
          "midi": 68,
          "name": "G#4",
          "ticks": 2832,
          "time": 7.375,
          "velocity": 0.8188976377952756
        },
        {
          "duration": 0.22916666666666696,
          "durationTicks": 88,
          "midi": 80,
          "name": "G#5",
          "ticks": 2832,
          "time": 7.375,
          "velocity": 0.8267716535433071
        },
        {
          "duration": 0.11979166666666696,
          "durationTicks": 46,
          "midi": 73,
          "name": "C#5",
          "ticks": 2924,
          "time": 7.614583333333333,
          "velocity": 0.8818897637795275
        },
        {
          "duration": 0.11979166666666696,
          "durationTicks": 46,
          "midi": 85,
          "name": "C#6",
          "ticks": 2924,
          "time": 7.614583333333333,
          "velocity": 0.8818897637795275
        },
        {
          "duration": 0.125,
          "durationTicks": 48,
          "midi": 70,
          "name": "A#4",
          "ticks": 2971,
          "time": 7.736979166666667,
          "velocity": 0.84251968503937
        },
        {
          "duration": 0.12239583333333393,
          "durationTicks": 47,
          "midi": 82,
          "name": "A#5",
          "ticks": 2972,
          "time": 7.739583333333333,
          "velocity": 0.84251968503937
        },
        {
          "duration": 0.11979166666666607,
          "durationTicks": 46,
          "midi": 70,
          "name": "A#4",
          "ticks": 3063,
          "time": 7.9765625,
          "velocity": 0.8740157480314961
        },
        {
          "duration": 0.12239583333333304,
          "durationTicks": 47,
          "midi": 82,
          "name": "A#5",
          "ticks": 3064,
          "time": 7.979166666666667,
          "velocity": 0.8503937007874016
        },
        {
          "duration": 0.109375,
          "durationTicks": 42,
          "midi": 68,
          "name": "G#4",
          "ticks": 3110,
          "time": 8.098958333333334,
          "velocity": 0.8818897637795275
        },
        {
          "duration": 0.109375,
          "durationTicks": 42,
          "midi": 80,
          "name": "G#5",
          "ticks": 3111,
          "time": 8.1015625,
          "velocity": 0.8582677165354331
        },
        {
          "duration": 0.3619791666666661,
          "durationTicks": 139,
          "midi": 63,
          "name": "D#4",
          "ticks": 3203,
          "time": 8.341145833333334,
          "velocity": 0.8346456692913385
        },
        {
          "duration": 0.3619791666666661,
          "durationTicks": 139,
          "midi": 75,
          "name": "D#5",
          "ticks": 3204,
          "time": 8.34375,
          "velocity": 0.8267716535433071
        },
        {
          "duration": 0.6041666666666661,
          "durationTicks": 232,
          "midi": 70,
          "name": "A#4",
          "ticks": 3390,
          "time": 8.828125,
          "velocity": 0.7952755905511811
        },
        {
          "duration": 0.6119791666666661,
          "durationTicks": 235,
          "midi": 71,
          "name": "B4",
          "ticks": 3390,
          "time": 8.828125,
          "velocity": 0.7795275590551181
        },
        {
          "duration": 0.6067708333333339,
          "durationTicks": 233,
          "midi": 75,
          "name": "D#5",
          "ticks": 3391,
          "time": 8.830729166666666,
          "velocity": 0.7716535433070866
        },
        {
          "duration": 0.6119791666666679,
          "durationTicks": 235,
          "midi": 78,
          "name": "F#5",
          "ticks": 3391,
          "time": 8.830729166666666,
          "velocity": 0.7716535433070866
        },
        {
          "duration": 0.0703125,
          "durationTicks": 27,
          "midi": 70,
          "name": "A#4",
          "ticks": 3667,
          "time": 9.549479166666666,
          "velocity": 0.7480314960629921
        },
        {
          "duration": 0.0703125,
          "durationTicks": 27,
          "midi": 71,
          "name": "B4",
          "ticks": 3667,
          "time": 9.549479166666666,
          "velocity": 0.7637795275590551
        },
        {
          "duration": 0.07291666666666607,
          "durationTicks": 28,
          "midi": 75,
          "name": "D#5",
          "ticks": 3668,
          "time": 9.552083333333334,
          "velocity": 0.7637795275590551
        },
        {
          "duration": 0.08854166666666607,
          "durationTicks": 34,
          "midi": 78,
          "name": "F#5",
          "ticks": 3669,
          "time": 9.5546875,
          "velocity": 0.7165354330708661
        },
        {
          "duration": 0.0703125,
          "durationTicks": 27,
          "midi": 70,
          "name": "A#4",
          "ticks": 3713,
          "time": 9.669270833333334,
          "velocity": 0.6692913385826772
        },
        {
          "duration": 0.07291666666666607,
          "durationTicks": 28,
          "midi": 71,
          "name": "B4",
          "ticks": 3714,
          "time": 9.671875,
          "velocity": 0.7007874015748031
        },
        {
          "duration": 0.07552083333333393,
          "durationTicks": 29,
          "midi": 75,
          "name": "D#5",
          "ticks": 3714,
          "time": 9.671875,
          "velocity": 0.7322834645669292
        },
        {
          "duration": 0.6223958333333321,
          "durationTicks": 239,
          "midi": 70,
          "name": "A#4",
          "ticks": 3761,
          "time": 9.794270833333334,
          "velocity": 0.8031496062992126
        },
        {
          "duration": 0.6223958333333321,
          "durationTicks": 239,
          "midi": 71,
          "name": "B4",
          "ticks": 3761,
          "time": 9.794270833333334,
          "velocity": 0.8031496062992126
        },
        {
          "duration": 0.6276041666666661,
          "durationTicks": 241,
          "midi": 75,
          "name": "D#5",
          "ticks": 3761,
          "time": 9.794270833333334,
          "velocity": 0.7874015748031497
        },
        {
          "duration": 0.625,
          "durationTicks": 240,
          "midi": 78,
          "name": "F#5",
          "ticks": 3762,
          "time": 9.796875,
          "velocity": 0.7952755905511811
        },
        {
          "duration": 0.08072916666666607,
          "durationTicks": 31,
          "midi": 70,
          "name": "A#4",
          "ticks": 4038,
          "time": 10.515625,
          "velocity": 0.7480314960629921
        },
        {
          "duration": 0.08072916666666785,
          "durationTicks": 31,
          "midi": 71,
          "name": "B4",
          "ticks": 4039,
          "time": 10.518229166666666,
          "velocity": 0.7401574803149606
        },
        {
          "duration": 0.0703125,
          "durationTicks": 27,
          "midi": 75,
          "name": "D#5",
          "ticks": 4040,
          "time": 10.520833333333334,
          "velocity": 0.7401574803149606
        },
        {
          "duration": 0.0625,
          "durationTicks": 24,
          "midi": 78,
          "name": "F#5",
          "ticks": 4040,
          "time": 10.520833333333334,
          "velocity": 0.7322834645669292
        },
        {
          "duration": 0.07552083333333215,
          "durationTicks": 29,
          "midi": 70,
          "name": "A#4",
          "ticks": 4085,
          "time": 10.638020833333334,
          "velocity": 0.7322834645669292
        },
        {
          "duration": 0.08072916666666607,
          "durationTicks": 31,
          "midi": 71,
          "name": "B4",
          "ticks": 4085,
          "time": 10.638020833333334,
          "velocity": 0.7401574803149606
        },
        {
          "duration": 0.0625,
          "durationTicks": 24,
          "midi": 75,
          "name": "D#5",
          "ticks": 4086,
          "time": 10.640625,
          "velocity": 0.7322834645669292
        },
        {
          "duration": 0.08072916666666785,
          "durationTicks": 31,
          "midi": 78,
          "name": "F#5",
          "ticks": 4087,
          "time": 10.643229166666666,
          "velocity": 0.7244094488188977
        },
        {
          "duration": 1.6354166666666679,
          "durationTicks": 628,
          "midi": 70,
          "name": "A#4",
          "ticks": 4132,
          "time": 10.760416666666666,
          "velocity": 0.7952755905511811
        },
        {
          "duration": 1.6458333333333321,
          "durationTicks": 632,
          "midi": 71,
          "name": "B4",
          "ticks": 4133,
          "time": 10.763020833333334,
          "velocity": 0.7952755905511811
        },
        {
          "duration": 1.6380208333333321,
          "durationTicks": 629,
          "midi": 75,
          "name": "D#5",
          "ticks": 4133,
          "time": 10.763020833333334,
          "velocity": 0.8031496062992126
        },
        {
          "duration": 1.643229166666666,
          "durationTicks": 631,
          "midi": 78,
          "name": "F#5",
          "ticks": 4133,
          "time": 10.763020833333334,
          "velocity": 0.7795275590551181
        },
        {
          "duration": 0.07552083333333393,
          "durationTicks": 29,
          "midi": 73,
          "name": "C#5",
          "ticks": 4876,
          "time": 12.697916666666666,
          "velocity": 0.8110236220472441
        },
        {
          "duration": 0.3619791666666661,
          "durationTicks": 139,
          "midi": 70,
          "name": "A#4",
          "ticks": 4968,
          "time": 12.9375,
          "velocity": 0.7874015748031497
        },
        {
          "duration": 0.40625,
          "durationTicks": 156,
          "midi": 68,
          "name": "G#4",
          "ticks": 5154,
          "time": 13.421875,
          "velocity": 0.7952755905511811
        },
        {
          "duration": 0.1015625,
          "durationTicks": 39,
          "midi": 70,
          "name": "A#4",
          "ticks": 5339,
          "time": 13.903645833333334,
          "velocity": 0.8031496062992126
        },
        {
          "duration": 1.7109375,
          "durationTicks": 657,
          "midi": 61,
          "name": "C#4",
          "ticks": 5433,
          "time": 14.1484375,
          "velocity": 0.8031496062992126
        },
        {
          "duration": 0.11197916666666785,
          "durationTicks": 43,
          "midi": 75,
          "name": "D#5",
          "ticks": 6362,
          "time": 16.567708333333332,
          "velocity": 0.8110236220472441
        },
        {
          "duration": 0.3619791666666643,
          "durationTicks": 139,
          "midi": 70,
          "name": "A#4",
          "ticks": 6454,
          "time": 16.807291666666668,
          "velocity": 0.7874015748031497
        },
        {
          "duration": 0.40625,
          "durationTicks": 156,
          "midi": 68,
          "name": "G#4",
          "ticks": 6640,
          "time": 17.291666666666668,
          "velocity": 0.7952755905511811
        },
        {
          "duration": 0.09895833333333215,
          "durationTicks": 38,
          "midi": 70,
          "name": "A#4",
          "ticks": 6826,
          "time": 17.776041666666668,
          "velocity": 0.8031496062992126
        },
        {
          "duration": 1.7083333333333357,
          "durationTicks": 656,
          "midi": 63,
          "name": "D#4",
          "ticks": 6920,
          "time": 18.020833333333332,
          "velocity": 0.8031496062992126
        },
        {
          "duration": 0.1640625,
          "durationTicks": 63,
          "midi": 75,
          "name": "D#5",
          "ticks": 7848,
          "time": 20.4375,
          "velocity": 0.8110236220472441
        },
        {
          "duration": 0.34375,
          "durationTicks": 132,
          "midi": 71,
          "name": "B4",
          "ticks": 7940,
          "time": 20.677083333333332,
          "velocity": 0.7795275590551181
        },
        {
          "duration": 0.3880208333333357,
          "durationTicks": 149,
          "midi": 70,
          "name": "A#4",
          "ticks": 8126,
          "time": 21.161458333333332,
          "velocity": 0.7795275590551181
        },
        {
          "duration": 1.7682291666666679,
          "durationTicks": 679,
          "midi": 71,
          "name": "B4",
          "ticks": 8312,
          "time": 21.645833333333332,
          "velocity": 0.8031496062992126
        },
        {
          "duration": 0.39322916666666785,
          "durationTicks": 151,
          "midi": 73,
          "name": "C#5",
          "ticks": 9335,
          "time": 24.309895833333332,
          "velocity": 0.8188976377952756
        },
        {
          "duration": 0.3984375,
          "durationTicks": 153,
          "midi": 77,
          "name": "F5",
          "ticks": 9335,
          "time": 24.309895833333332,
          "velocity": 0.8188976377952756
        },
        {
          "duration": 0.39322916666666785,
          "durationTicks": 151,
          "midi": 71,
          "name": "B4",
          "ticks": 9614,
          "time": 25.036458333333332,
          "velocity": 0.7795275590551181
        },
        {
          "duration": 0.3984375,
          "durationTicks": 153,
          "midi": 75,
          "name": "D#5",
          "ticks": 9614,
          "time": 25.036458333333332,
          "velocity": 0.7795275590551181
        },
        {
          "duration": 0.4270833333333357,
          "durationTicks": 164,
          "midi": 70,
          "name": "A#4",
          "ticks": 9893,
          "time": 25.763020833333332,
          "velocity": 0.7795275590551181
        },
        {
          "duration": 0.4270833333333357,
          "durationTicks": 164,
          "midi": 73,
          "name": "C#5",
          "ticks": 9893,
          "time": 25.763020833333332,
          "velocity": 0.7795275590551181
        },
        {
          "duration": 0.4296875,
          "durationTicks": 165,
          "midi": 68,
          "name": "G#4",
          "ticks": 10171,
          "time": 26.486979166666668,
          "velocity": 0.7795275590551181
        },
        {
          "duration": 0.4270833333333357,
          "durationTicks": 164,
          "midi": 71,
          "name": "B4",
          "ticks": 10172,
          "time": 26.489583333333332,
          "velocity": 0.7795275590551181
        },
        {
          "duration": 0.20052083333333215,
          "durationTicks": 77,
          "midi": 66,
          "name": "F#4",
          "ticks": 10450,
          "time": 27.213541666666668,
          "velocity": 0.8031496062992126
        },
        {
          "duration": 0.2057291666666643,
          "durationTicks": 79,
          "midi": 70,
          "name": "A#4",
          "ticks": 10450,
          "time": 27.213541666666668,
          "velocity": 0.8031496062992126
        },
        {
          "duration": 0.20052083333333215,
          "durationTicks": 77,
          "midi": 65,
          "name": "F4",
          "ticks": 10636,
          "time": 27.697916666666668,
          "velocity": 0.8031496062992126
        },
        {
          "duration": 0.203125,
          "durationTicks": 78,
          "midi": 68,
          "name": "G#4",
          "ticks": 10636,
          "time": 27.697916666666668,
          "velocity": 0.8031496062992126
        },
        {
          "duration": 0.15625,
          "durationTicks": 60,
          "midi": 73,
          "name": "C#5",
          "ticks": 10822,
          "time": 28.182291666666668,
          "velocity": 0.8740157480314961
        },
        {
          "duration": 0.15364583333333215,
          "durationTicks": 59,
          "midi": 78,
          "name": "F#5",
          "ticks": 10824,
          "time": 28.1875,
          "velocity": 0.8740157480314961
        },
        {
          "duration": 0.203125,
          "durationTicks": 78,
          "midi": 73,
          "name": "C#5",
          "ticks": 11007,
          "time": 28.6640625,
          "velocity": 0.8267716535433071
        },
        {
          "duration": 0.19791666666666785,
          "durationTicks": 76,
          "midi": 78,
          "name": "F#5",
          "ticks": 11007,
          "time": 28.6640625,
          "velocity": 0.7795275590551181
        },
        {
          "duration": 0.203125,
          "durationTicks": 78,
          "midi": 73,
          "name": "C#5",
          "ticks": 11193,
          "time": 29.1484375,
          "velocity": 0.8031496062992126
        },
        {
          "duration": 0.21354166666666785,
          "durationTicks": 82,
          "midi": 78,
          "name": "F#5",
          "ticks": 11193,
          "time": 29.1484375,
          "velocity": 0.8110236220472441
        },
        {
          "duration": 0.21875,
          "durationTicks": 84,
          "midi": 73,
          "name": "C#5",
          "ticks": 11378,
          "time": 29.630208333333332,
          "velocity": 0.7952755905511811
        },
        {
          "duration": 0.20833333333333215,
          "durationTicks": 80,
          "midi": 78,
          "name": "F#5",
          "ticks": 11379,
          "time": 29.6328125,
          "velocity": 0.84251968503937
        },
        {
          "duration": 0.19791666666666785,
          "durationTicks": 76,
          "midi": 73,
          "name": "C#5",
          "ticks": 11564,
          "time": 30.114583333333332,
          "velocity": 0.8503937007874016
        },
        {
          "duration": 0.19791666666666785,
          "durationTicks": 76,
          "midi": 78,
          "name": "F#5",
          "ticks": 11565,
          "time": 30.1171875,
          "velocity": 0.8503937007874016
        },
        {
          "duration": 0.0911458333333357,
          "durationTicks": 35,
          "midi": 70,
          "name": "A#4",
          "ticks": 13144,
          "time": 34.229166666666664,
          "velocity": 0.7952755905511811
        },
        {
          "duration": 0.0911458333333357,
          "durationTicks": 35,
          "midi": 82,
          "name": "A#5",
          "ticks": 13144,
          "time": 34.229166666666664,
          "velocity": 0.8267716535433071
        },
        {
          "duration": 0.234375,
          "durationTicks": 90,
          "midi": 70,
          "name": "A#4",
          "ticks": 13238,
          "time": 34.473958333333336,
          "velocity": 0.8267716535433071
        },
        {
          "duration": 0.2395833333333286,
          "durationTicks": 92,
          "midi": 82,
          "name": "A#5",
          "ticks": 13238,
          "time": 34.473958333333336,
          "velocity": 0.8582677165354331
        },
        {
          "duration": 0.0859375,
          "durationTicks": 33,
          "midi": 68,
          "name": "G#4",
          "ticks": 13330,
          "time": 34.713541666666664,
          "velocity": 0.8110236220472441
        },
        {
          "duration": 0.0885416666666643,
          "durationTicks": 34,
          "midi": 80,
          "name": "G#5",
          "ticks": 13331,
          "time": 34.716145833333336,
          "velocity": 0.84251968503937
        },
        {
          "duration": 0.2395833333333357,
          "durationTicks": 92,
          "midi": 68,
          "name": "G#4",
          "ticks": 13422,
          "time": 34.953125,
          "velocity": 0.8110236220472441
        },
        {
          "duration": 0.2421875,
          "durationTicks": 93,
          "midi": 80,
          "name": "G#5",
          "ticks": 13423,
          "time": 34.955729166666664,
          "velocity": 0.84251968503937
        },
        {
          "duration": 0.0911458333333357,
          "durationTicks": 35,
          "midi": 66,
          "name": "F#4",
          "ticks": 13516,
          "time": 35.197916666666664,
          "velocity": 0.7874015748031497
        },
        {
          "duration": 0.0911458333333357,
          "durationTicks": 35,
          "midi": 78,
          "name": "F#5",
          "ticks": 13516,
          "time": 35.197916666666664,
          "velocity": 0.8188976377952756
        },
        {
          "duration": 0.2395833333333357,
          "durationTicks": 92,
          "midi": 66,
          "name": "F#4",
          "ticks": 13608,
          "time": 35.4375,
          "velocity": 0.7952755905511811
        },
        {
          "duration": 0.2395833333333357,
          "durationTicks": 92,
          "midi": 78,
          "name": "F#5",
          "ticks": 13609,
          "time": 35.440104166666664,
          "velocity": 0.8267716535433071
        },
        {
          "duration": 0.1145833333333357,
          "durationTicks": 44,
          "midi": 65,
          "name": "F4",
          "ticks": 13702,
          "time": 35.682291666666664,
          "velocity": 0.8031496062992126
        },
        {
          "duration": 0.1171875,
          "durationTicks": 45,
          "midi": 77,
          "name": "F5",
          "ticks": 13702,
          "time": 35.682291666666664,
          "velocity": 0.8346456692913385
        },
        {
          "duration": 0.4453125,
          "durationTicks": 171,
          "midi": 65,
          "name": "F4",
          "ticks": 13794,
          "time": 35.921875,
          "velocity": 0.8188976377952756
        },
        {
          "duration": 0.4453125,
          "durationTicks": 171,
          "midi": 77,
          "name": "F5",
          "ticks": 13794,
          "time": 35.921875,
          "velocity": 0.8188976377952756
        },
        {
          "duration": 0.2369791666666643,
          "durationTicks": 91,
          "midi": 66,
          "name": "F#4",
          "ticks": 13980,
          "time": 36.40625,
          "velocity": 0.8031496062992126
        },
        {
          "duration": 0.2395833333333357,
          "durationTicks": 92,
          "midi": 78,
          "name": "F#5",
          "ticks": 13980,
          "time": 36.40625,
          "velocity": 0.8031496062992126
        },
        {
          "duration": 0.2005208333333357,
          "durationTicks": 77,
          "midi": 58,
          "name": "A#3",
          "ticks": 14073,
          "time": 36.6484375,
          "velocity": 0.8031496062992126
        },
        {
          "duration": 0.203125,
          "durationTicks": 78,
          "midi": 70,
          "name": "A#4",
          "ticks": 14074,
          "time": 36.651041666666664,
          "velocity": 0.8031496062992126
        },
        {
          "duration": 0.0963541666666714,
          "durationTicks": 37,
          "midi": 68,
          "name": "G#4",
          "ticks": 15373,
          "time": 40.033854166666664,
          "velocity": 0.7952755905511811
        },
        {
          "duration": 0.0989583333333357,
          "durationTicks": 38,
          "midi": 80,
          "name": "G#5",
          "ticks": 15373,
          "time": 40.033854166666664,
          "velocity": 0.8267716535433071
        },
        {
          "duration": 0.5052083333333357,
          "durationTicks": 194,
          "midi": 68,
          "name": "G#4",
          "ticks": 15466,
          "time": 40.276041666666664,
          "velocity": 0.8188976377952756
        },
        {
          "duration": 0.5052083333333286,
          "durationTicks": 194,
          "midi": 80,
          "name": "G#5",
          "ticks": 15467,
          "time": 40.278645833333336,
          "velocity": 0.8503937007874016
        },
        {
          "duration": 0.0807291666666714,
          "durationTicks": 31,
          "midi": 67,
          "name": "G4",
          "ticks": 15745,
          "time": 41.002604166666664,
          "velocity": 0.7952755905511811
        },
        {
          "duration": 0.0859375,
          "durationTicks": 33,
          "midi": 79,
          "name": "G5",
          "ticks": 15745,
          "time": 41.002604166666664,
          "velocity": 0.8267716535433071
        },
        {
          "duration": 0.34375,
          "durationTicks": 132,
          "midi": 67,
          "name": "G4",
          "ticks": 15838,
          "time": 41.244791666666664,
          "velocity": 0.8110236220472441
        },
        {
          "duration": 0.3463541666666714,
          "durationTicks": 133,
          "midi": 79,
          "name": "G5",
          "ticks": 15838,
          "time": 41.244791666666664,
          "velocity": 0.84251968503937
        },
        {
          "duration": 0.6692708333333357,
          "durationTicks": 257,
          "midi": 66,
          "name": "F#4",
          "ticks": 16024,
          "time": 41.729166666666664,
          "velocity": 0.7952755905511811
        },
        {
          "duration": 0.6692708333333286,
          "durationTicks": 257,
          "midi": 78,
          "name": "F#5",
          "ticks": 16025,
          "time": 41.731770833333336,
          "velocity": 0.8267716535433071
        },
        {
          "duration": 0.1692708333333286,
          "durationTicks": 65,
          "midi": 65,
          "name": "F4",
          "ticks": 16301,
          "time": 42.450520833333336,
          "velocity": 0.7874015748031497
        },
        {
          "duration": 0.1692708333333357,
          "durationTicks": 65,
          "midi": 77,
          "name": "F5",
          "ticks": 16303,
          "time": 42.455729166666664,
          "velocity": 0.8188976377952756
        },
        {
          "duration": 0.5598958333333357,
          "durationTicks": 215,
          "midi": 70,
          "name": "A#4",
          "ticks": 16767,
          "time": 43.6640625,
          "velocity": 0.7401574803149606
        },
        {
          "duration": 0.5833333333333357,
          "durationTicks": 224,
          "midi": 71,
          "name": "B4",
          "ticks": 16767,
          "time": 43.6640625,
          "velocity": 0.7401574803149606
        },
        {
          "duration": 0.5677083333333357,
          "durationTicks": 218,
          "midi": 75,
          "name": "D#5",
          "ticks": 16768,
          "time": 43.666666666666664,
          "velocity": 0.7716535433070866
        },
        {
          "duration": 0.5729166666666714,
          "durationTicks": 220,
          "midi": 78,
          "name": "F#5",
          "ticks": 16768,
          "time": 43.666666666666664,
          "velocity": 0.7716535433070866
        },
        {
          "duration": 0.0572916666666643,
          "durationTicks": 22,
          "midi": 70,
          "name": "A#4",
          "ticks": 17045,
          "time": 44.388020833333336,
          "velocity": 0.7244094488188977
        },
        {
          "duration": 0.0651041666666643,
          "durationTicks": 25,
          "midi": 71,
          "name": "B4",
          "ticks": 17046,
          "time": 44.390625,
          "velocity": 0.7401574803149606
        },
        {
          "duration": 0.0651041666666643,
          "durationTicks": 25,
          "midi": 75,
          "name": "D#5",
          "ticks": 17046,
          "time": 44.390625,
          "velocity": 0.7716535433070866
        },
        {
          "duration": 0.057291666666671404,
          "durationTicks": 22,
          "midi": 78,
          "name": "F#5",
          "ticks": 17047,
          "time": 44.393229166666664,
          "velocity": 0.7244094488188977
        },
        {
          "duration": 0.5494791666666643,
          "durationTicks": 211,
          "midi": 70,
          "name": "A#4",
          "ticks": 17138,
          "time": 44.630208333333336,
          "velocity": 0.7401574803149606
        },
        {
          "duration": 0.5729166666666643,
          "durationTicks": 220,
          "midi": 71,
          "name": "B4",
          "ticks": 17139,
          "time": 44.6328125,
          "velocity": 0.7401574803149606
        },
        {
          "duration": 0.5625,
          "durationTicks": 216,
          "midi": 75,
          "name": "D#5",
          "ticks": 17139,
          "time": 44.6328125,
          "velocity": 0.7401574803149606
        },
        {
          "duration": 0.5755208333333357,
          "durationTicks": 221,
          "midi": 78,
          "name": "F#5",
          "ticks": 17140,
          "time": 44.635416666666664,
          "velocity": 0.7086614173228346
        },
        {
          "duration": 0.0546875,
          "durationTicks": 21,
          "midi": 70,
          "name": "A#4",
          "ticks": 17416,
          "time": 45.354166666666664,
          "velocity": 0.7086614173228346
        },
        {
          "duration": 0.0572916666666643,
          "durationTicks": 22,
          "midi": 71,
          "name": "B4",
          "ticks": 17418,
          "time": 45.359375,
          "velocity": 0.7401574803149606
        },
        {
          "duration": 0.0520833333333357,
          "durationTicks": 20,
          "midi": 75,
          "name": "D#5",
          "ticks": 17418,
          "time": 45.359375,
          "velocity": 0.7716535433070866
        },
        {
          "duration": 0.0442708333333357,
          "durationTicks": 17,
          "midi": 78,
          "name": "F#5",
          "ticks": 17418,
          "time": 45.359375,
          "velocity": 0.7401574803149606
        },
        {
          "duration": 0.059895833333328596,
          "durationTicks": 23,
          "midi": 70,
          "name": "A#4",
          "ticks": 17462,
          "time": 45.473958333333336,
          "velocity": 0.7086614173228346
        },
        {
          "duration": 0.0546875,
          "durationTicks": 21,
          "midi": 71,
          "name": "B4",
          "ticks": 17462,
          "time": 45.473958333333336,
          "velocity": 0.7165354330708661
        },
        {
          "duration": 0.0651041666666643,
          "durationTicks": 25,
          "midi": 75,
          "name": "D#5",
          "ticks": 17462,
          "time": 45.473958333333336,
          "velocity": 0.7401574803149606
        },
        {
          "duration": 0.0651041666666714,
          "durationTicks": 25,
          "midi": 78,
          "name": "F#5",
          "ticks": 17464,
          "time": 45.479166666666664,
          "velocity": 0.7086614173228346
        },
        {
          "duration": 1.234375,
          "durationTicks": 474,
          "midi": 70,
          "name": "A#4",
          "ticks": 17509,
          "time": 45.596354166666664,
          "velocity": 0.7244094488188977
        },
        {
          "duration": 1.2578125,
          "durationTicks": 483,
          "midi": 71,
          "name": "B4",
          "ticks": 17511,
          "time": 45.6015625,
          "velocity": 0.6771653543307087
        },
        {
          "duration": 1.2630208333333357,
          "durationTicks": 485,
          "midi": 75,
          "name": "D#5",
          "ticks": 17511,
          "time": 45.6015625,
          "velocity": 0.7244094488188977
        },
        {
          "duration": 1.2291666666666643,
          "durationTicks": 472,
          "midi": 78,
          "name": "F#5",
          "ticks": 17511,
          "time": 45.6015625,
          "velocity": 0.6929133858267716
        },
        {
          "duration": 0.0911458333333357,
          "durationTicks": 35,
          "midi": 70,
          "name": "A#4",
          "ticks": 19089,
          "time": 49.7109375,
          "velocity": 0.7952755905511811
        },
        {
          "duration": 0.09375,
          "durationTicks": 36,
          "midi": 82,
          "name": "A#5",
          "ticks": 19089,
          "time": 49.7109375,
          "velocity": 0.8267716535433071
        },
        {
          "duration": 0.2369791666666643,
          "durationTicks": 91,
          "midi": 70,
          "name": "A#4",
          "ticks": 19182,
          "time": 49.953125,
          "velocity": 0.8267716535433071
        },
        {
          "duration": 0.2395833333333357,
          "durationTicks": 92,
          "midi": 82,
          "name": "A#5",
          "ticks": 19183,
          "time": 49.955729166666664,
          "velocity": 0.8582677165354331
        },
        {
          "duration": 0.0859375,
          "durationTicks": 33,
          "midi": 68,
          "name": "G#4",
          "ticks": 19275,
          "time": 50.1953125,
          "velocity": 0.8110236220472441
        },
        {
          "duration": 0.0885416666666714,
          "durationTicks": 34,
          "midi": 80,
          "name": "G#5",
          "ticks": 19276,
          "time": 50.197916666666664,
          "velocity": 0.84251968503937
        },
        {
          "duration": 0.2369791666666643,
          "durationTicks": 91,
          "midi": 68,
          "name": "G#4",
          "ticks": 19368,
          "time": 50.4375,
          "velocity": 0.8110236220472441
        },
        {
          "duration": 0.2421875,
          "durationTicks": 93,
          "midi": 80,
          "name": "G#5",
          "ticks": 19368,
          "time": 50.4375,
          "velocity": 0.84251968503937
        },
        {
          "duration": 0.0911458333333357,
          "durationTicks": 35,
          "midi": 66,
          "name": "F#4",
          "ticks": 19461,
          "time": 50.6796875,
          "velocity": 0.7874015748031497
        },
        {
          "duration": 0.0911458333333357,
          "durationTicks": 35,
          "midi": 78,
          "name": "F#5",
          "ticks": 19461,
          "time": 50.6796875,
          "velocity": 0.8188976377952756
        },
        {
          "duration": 0.2369791666666643,
          "durationTicks": 91,
          "midi": 66,
          "name": "F#4",
          "ticks": 19554,
          "time": 50.921875,
          "velocity": 0.7952755905511811
        },
        {
          "duration": 0.2395833333333357,
          "durationTicks": 92,
          "midi": 78,
          "name": "F#5",
          "ticks": 19554,
          "time": 50.921875,
          "velocity": 0.8267716535433071
        },
        {
          "duration": 0.1145833333333357,
          "durationTicks": 44,
          "midi": 65,
          "name": "F4",
          "ticks": 19647,
          "time": 51.1640625,
          "velocity": 0.8031496062992126
        },
        {
          "duration": 0.1171875,
          "durationTicks": 45,
          "midi": 77,
          "name": "F5",
          "ticks": 19647,
          "time": 51.1640625,
          "velocity": 0.8346456692913385
        },
        {
          "duration": 0.4453125,
          "durationTicks": 171,
          "midi": 65,
          "name": "F4",
          "ticks": 19739,
          "time": 51.403645833333336,
          "velocity": 0.8188976377952756
        },
        {
          "duration": 0.4427083333333357,
          "durationTicks": 170,
          "midi": 77,
          "name": "F5",
          "ticks": 19740,
          "time": 51.40625,
          "velocity": 0.8188976377952756
        },
        {
          "duration": 0.2369791666666643,
          "durationTicks": 91,
          "midi": 66,
          "name": "F#4",
          "ticks": 19925,
          "time": 51.888020833333336,
          "velocity": 0.8031496062992126
        },
        {
          "duration": 0.2395833333333357,
          "durationTicks": 92,
          "midi": 78,
          "name": "F#5",
          "ticks": 19926,
          "time": 51.890625,
          "velocity": 0.8031496062992126
        },
        {
          "duration": 0.2005208333333357,
          "durationTicks": 77,
          "midi": 58,
          "name": "A#3",
          "ticks": 20019,
          "time": 52.1328125,
          "velocity": 0.8031496062992126
        },
        {
          "duration": 0.2057291666666643,
          "durationTicks": 79,
          "midi": 70,
          "name": "A#4",
          "ticks": 20019,
          "time": 52.1328125,
          "velocity": 0.8031496062992126
        }
      ]
    },
    {
      "channel": 1,
      "controlChanges": {
        "1": [
          {
            "number": 1,
            "ticks": 250,
            "time": 0.6510416666666666,
            "value": 0
          }
        ],
        "7": [
          {
            "number": 7,
            "ticks": 239,
            "time": 0.6223958333333334,
            "value": 0.8503937007874016
          },
          {
            "number": 7,
            "ticks": 18429,
            "time": 47.9921875,
            "value": 0.8346456692913385
          },
          {
            "number": 7,
            "ticks": 18523,
            "time": 48.236979166666664,
            "value": 0.8110236220472441
          },
          {
            "number": 7,
            "ticks": 18616,
            "time": 48.479166666666664,
            "value": 0.7795275590551181
          },
          {
            "number": 7,
            "ticks": 18709,
            "time": 48.721354166666664,
            "value": 0.7480314960629921
          },
          {
            "number": 7,
            "ticks": 18802,
            "time": 48.963541666666664,
            "value": 0.7244094488188977
          },
          {
            "number": 7,
            "ticks": 18895,
            "time": 49.205729166666664,
            "value": 0.6929133858267716
          },
          {
            "number": 7,
            "ticks": 18988,
            "time": 49.447916666666664,
            "value": 0.6614173228346457
          },
          {
            "number": 7,
            "ticks": 19081,
            "time": 49.690104166666664,
            "value": 0.6377952755905512
          },
          {
            "number": 7,
            "ticks": 19174,
            "time": 49.932291666666664,
            "value": 0.6062992125984252
          },
          {
            "number": 7,
            "ticks": 19267,
            "time": 50.174479166666664,
            "value": 0.5748031496062992
          },
          {
            "number": 7,
            "ticks": 19359,
            "time": 50.4140625,
            "value": 0.5511811023622047
          },
          {
            "number": 7,
            "ticks": 19452,
            "time": 50.65625,
            "value": 0.5196850393700787
          },
          {
            "number": 7,
            "ticks": 19545,
            "time": 50.8984375,
            "value": 0.4881889763779528
          },
          {
            "number": 7,
            "ticks": 19638,
            "time": 51.140625,
            "value": 0.4645669291338583
          },
          {
            "number": 7,
            "ticks": 19731,
            "time": 51.3828125,
            "value": 0.4330708661417323
          },
          {
            "number": 7,
            "ticks": 19824,
            "time": 51.625,
            "value": 0.4015748031496063
          },
          {
            "number": 7,
            "ticks": 19917,
            "time": 51.8671875,
            "value": 0.3700787401574803
          },
          {
            "number": 7,
            "ticks": 20010,
            "time": 52.109375,
            "value": 0.3464566929133858
          },
          {
            "number": 7,
            "ticks": 20103,
            "time": 52.3515625,
            "value": 0.31496062992125984
          },
          {
            "number": 7,
            "ticks": 20195,
            "time": 52.591145833333336,
            "value": 0.28346456692913385
          },
          {
            "number": 7,
            "ticks": 20288,
            "time": 52.833333333333336,
            "value": 0.25984251968503935
          },
          {
            "number": 7,
            "ticks": 20381,
            "time": 53.075520833333336,
            "value": 0.2283464566929134
          },
          {
            "number": 7,
            "ticks": 20474,
            "time": 53.317708333333336,
            "value": 0.1968503937007874
          },
          {
            "number": 7,
            "ticks": 20567,
            "time": 53.559895833333336,
            "value": 0.1732283464566929
          },
          {
            "number": 7,
            "ticks": 20660,
            "time": 53.802083333333336,
            "value": 0.14173228346456693
          },
          {
            "number": 7,
            "ticks": 20753,
            "time": 54.044270833333336,
            "value": 0.11023622047244094
          },
          {
            "number": 7,
            "ticks": 20846,
            "time": 54.286458333333336,
            "value": 0.08661417322834646
          },
          {
            "number": 7,
            "ticks": 20939,
            "time": 54.528645833333336,
            "value": 0.05511811023622047
          },
          {
            "number": 7,
            "ticks": 21032,
            "time": 54.770833333333336,
            "value": 0.023622047244094488
          },
          {
            "number": 7,
            "ticks": 21125,
            "time": 55.013020833333336,
            "value": 0
          }
        ],
        "10": [
          {
            "number": 10,
            "ticks": 242,
            "time": 0.6302083333333334,
            "value": 0.5039370078740157
          }
        ],
        "91": [
          {
            "number": 91,
            "ticks": 245,
            "time": 0.6380208333333334,
            "value": 0
          }
        ],
        "93": [
          {
            "number": 93,
            "ticks": 248,
            "time": 0.6458333333333334,
            "value": 0
          }
        ]
      },
      "pitchBends": [],
      "instrument": {
        "family": "bass",
        "number": 33,
        "name": "electric bass (finger)"
      },
      "name": "",
      "notes": [
        {
          "duration": 3.622395833333334,
          "durationTicks": 1391,
          "midi": 37,
          "name": "C#2",
          "ticks": 416,
          "time": 1.0833333333333333,
          "velocity": 0.6299212598425197
        },
        {
          "duration": 3.614583333333333,
          "durationTicks": 1388,
          "midi": 37,
          "name": "C#2",
          "ticks": 1903,
          "time": 4.955729166666667,
          "velocity": 0.6299212598425197
        },
        {
          "duration": 3.622395833333332,
          "durationTicks": 1391,
          "midi": 37,
          "name": "C#2",
          "ticks": 3389,
          "time": 8.825520833333334,
          "velocity": 0.6299212598425197
        },
        {
          "duration": 0.20833333333333393,
          "durationTicks": 80,
          "midi": 30,
          "name": "F#1",
          "ticks": 4876,
          "time": 12.697916666666666,
          "velocity": 0.6299212598425197
        },
        {
          "duration": 0.22135416666666607,
          "durationTicks": 85,
          "midi": 30,
          "name": "F#1",
          "ticks": 5061,
          "time": 13.1796875,
          "velocity": 0.6299212598425197
        },
        {
          "duration": 0.20833333333333393,
          "durationTicks": 80,
          "midi": 30,
          "name": "F#1",
          "ticks": 5247,
          "time": 13.6640625,
          "velocity": 0.6299212598425197
        },
        {
          "duration": 0.21875,
          "durationTicks": 84,
          "midi": 30,
          "name": "F#1",
          "ticks": 5433,
          "time": 14.1484375,
          "velocity": 0.6299212598425197
        },
        {
          "duration": 0.21875,
          "durationTicks": 84,
          "midi": 30,
          "name": "F#1",
          "ticks": 5619,
          "time": 14.6328125,
          "velocity": 0.6299212598425197
        },
        {
          "duration": 0.20052083333333215,
          "durationTicks": 77,
          "midi": 30,
          "name": "F#1",
          "ticks": 5804,
          "time": 15.114583333333334,
          "velocity": 0.6299212598425197
        },
        {
          "duration": 0.20833333333333393,
          "durationTicks": 80,
          "midi": 30,
          "name": "F#1",
          "ticks": 5989,
          "time": 15.596354166666666,
          "velocity": 0.6299212598425197
        },
        {
          "duration": 0.21354166666666785,
          "durationTicks": 82,
          "midi": 30,
          "name": "F#1",
          "ticks": 6176,
          "time": 16.083333333333332,
          "velocity": 0.6299212598425197
        },
        {
          "duration": 0.2057291666666643,
          "durationTicks": 79,
          "midi": 39,
          "name": "D#2",
          "ticks": 6361,
          "time": 16.565104166666668,
          "velocity": 0.6299212598425197
        },
        {
          "duration": 0.2083333333333357,
          "durationTicks": 80,
          "midi": 39,
          "name": "D#2",
          "ticks": 6548,
          "time": 17.052083333333332,
          "velocity": 0.6299212598425197
        },
        {
          "duration": 0.203125,
          "durationTicks": 78,
          "midi": 39,
          "name": "D#2",
          "ticks": 6732,
          "time": 17.53125,
          "velocity": 0.6299212598425197
        },
        {
          "duration": 0.20833333333333215,
          "durationTicks": 80,
          "midi": 39,
          "name": "D#2",
          "ticks": 6919,
          "time": 18.018229166666668,
          "velocity": 0.6299212598425197
        },
        {
          "duration": 0.22395833333333215,
          "durationTicks": 86,
          "midi": 39,
          "name": "D#2",
          "ticks": 7105,
          "time": 18.502604166666668,
          "velocity": 0.6299212598425197
        },
        {
          "duration": 0.21875,
          "durationTicks": 84,
          "midi": 39,
          "name": "D#2",
          "ticks": 7291,
          "time": 18.986979166666668,
          "velocity": 0.6299212598425197
        },
        {
          "duration": 0.23177083333333215,
          "durationTicks": 89,
          "midi": 33,
          "name": "A1",
          "ticks": 7477,
          "time": 19.471354166666668,
          "velocity": 0.6535433070866141
        },
        {
          "duration": 0.2317708333333357,
          "durationTicks": 89,
          "midi": 45,
          "name": "A2",
          "ticks": 7568,
          "time": 19.708333333333332,
          "velocity": 0.6299212598425197
        },
        {
          "duration": 0.2421875,
          "durationTicks": 93,
          "midi": 34,
          "name": "A#1",
          "ticks": 7662,
          "time": 19.953125,
          "velocity": 0.6535433070866141
        },
        {
          "duration": 0.20052083333333215,
          "durationTicks": 77,
          "midi": 46,
          "name": "A#2",
          "ticks": 7755,
          "time": 20.1953125,
          "velocity": 0.6299212598425197
        },
        {
          "duration": 0.2109375,
          "durationTicks": 81,
          "midi": 35,
          "name": "B1",
          "ticks": 7847,
          "time": 20.434895833333332,
          "velocity": 0.6299212598425197
        },
        {
          "duration": 0.21875,
          "durationTicks": 84,
          "midi": 35,
          "name": "B1",
          "ticks": 8034,
          "time": 20.921875,
          "velocity": 0.6299212598425197
        },
        {
          "duration": 0.2109375,
          "durationTicks": 81,
          "midi": 35,
          "name": "B1",
          "ticks": 8219,
          "time": 21.403645833333332,
          "velocity": 0.6299212598425197
        },
        {
          "duration": 0.22135416666666785,
          "durationTicks": 85,
          "midi": 35,
          "name": "B1",
          "ticks": 8405,
          "time": 21.888020833333332,
          "velocity": 0.6299212598425197
        },
        {
          "duration": 0.21875,
          "durationTicks": 84,
          "midi": 35,
          "name": "B1",
          "ticks": 8591,
          "time": 22.372395833333332,
          "velocity": 0.6299212598425197
        },
        {
          "duration": 0.19791666666666785,
          "durationTicks": 76,
          "midi": 35,
          "name": "B1",
          "ticks": 8777,
          "time": 22.856770833333332,
          "velocity": 0.6299212598425197
        },
        {
          "duration": 0.203125,
          "durationTicks": 78,
          "midi": 35,
          "name": "B1",
          "ticks": 8963,
          "time": 23.341145833333332,
          "velocity": 0.6299212598425197
        },
        {
          "duration": 0.21354166666666785,
          "durationTicks": 82,
          "midi": 35,
          "name": "B1",
          "ticks": 9149,
          "time": 23.825520833333332,
          "velocity": 0.6299212598425197
        },
        {
          "duration": 0.6848958333333321,
          "durationTicks": 263,
          "midi": 41,
          "name": "F2",
          "ticks": 9334,
          "time": 24.307291666666668,
          "velocity": 0.6614173228346457
        },
        {
          "duration": 0.7083333333333321,
          "durationTicks": 272,
          "midi": 39,
          "name": "D#2",
          "ticks": 9613,
          "time": 25.033854166666668,
          "velocity": 0.6456692913385826
        },
        {
          "duration": 0.7161458333333321,
          "durationTicks": 275,
          "midi": 37,
          "name": "C#2",
          "ticks": 9892,
          "time": 25.760416666666668,
          "velocity": 0.6456692913385826
        },
        {
          "duration": 0.6614583333333321,
          "durationTicks": 254,
          "midi": 35,
          "name": "B1",
          "ticks": 10171,
          "time": 26.486979166666668,
          "velocity": 0.6456692913385826
        },
        {
          "duration": 0.40625,
          "durationTicks": 156,
          "midi": 34,
          "name": "A#1",
          "ticks": 10449,
          "time": 27.2109375,
          "velocity": 0.6299212598425197
        },
        {
          "duration": 0.4140625,
          "durationTicks": 159,
          "midi": 32,
          "name": "G#1",
          "ticks": 10635,
          "time": 27.6953125,
          "velocity": 0.6299212598425197
        },
        {
          "duration": 0.16145833333333215,
          "durationTicks": 62,
          "midi": 37,
          "name": "C#2",
          "ticks": 10821,
          "time": 28.1796875,
          "velocity": 0.6299212598425197
        },
        {
          "duration": 0.20572916666666785,
          "durationTicks": 79,
          "midi": 37,
          "name": "C#2",
          "ticks": 11006,
          "time": 28.661458333333332,
          "velocity": 0.6299212598425197
        },
        {
          "duration": 0.2109375,
          "durationTicks": 81,
          "midi": 37,
          "name": "C#2",
          "ticks": 11192,
          "time": 29.145833333333332,
          "velocity": 0.6299212598425197
        },
        {
          "duration": 0.2109375,
          "durationTicks": 81,
          "midi": 37,
          "name": "C#2",
          "ticks": 11378,
          "time": 29.630208333333332,
          "velocity": 0.6299212598425197
        },
        {
          "duration": 1.5859375,
          "durationTicks": 609,
          "midi": 37,
          "name": "C#2",
          "ticks": 11564,
          "time": 30.114583333333332,
          "velocity": 0.6299212598425197
        },
        {
          "duration": 0.1901041666666714,
          "durationTicks": 73,
          "midi": 30,
          "name": "F#1",
          "ticks": 12307,
          "time": 32.049479166666664,
          "velocity": 0.6535433070866141
        },
        {
          "duration": 0.0755208333333357,
          "durationTicks": 29,
          "midi": 42,
          "name": "F#2",
          "ticks": 12399,
          "time": 32.2890625,
          "velocity": 0.6299212598425197
        },
        {
          "duration": 0.1119791666666714,
          "durationTicks": 43,
          "midi": 42,
          "name": "F#2",
          "ticks": 12445,
          "time": 32.408854166666664,
          "velocity": 0.6299212598425197
        },
        {
          "duration": 0.2135416666666714,
          "durationTicks": 82,
          "midi": 30,
          "name": "F#1",
          "ticks": 12493,
          "time": 32.533854166666664,
          "velocity": 0.6299212598425197
        },
        {
          "duration": 0.2109375,
          "durationTicks": 81,
          "midi": 42,
          "name": "F#2",
          "ticks": 12585,
          "time": 32.7734375,
          "velocity": 0.6299212598425197
        },
        {
          "duration": 0.1822916666666714,
          "durationTicks": 70,
          "midi": 30,
          "name": "F#1",
          "ticks": 12679,
          "time": 33.018229166666664,
          "velocity": 0.6535433070866141
        },
        {
          "duration": 0.0677083333333286,
          "durationTicks": 26,
          "midi": 42,
          "name": "F#2",
          "ticks": 12770,
          "time": 33.255208333333336,
          "velocity": 0.6299212598425197
        },
        {
          "duration": 0.0911458333333357,
          "durationTicks": 35,
          "midi": 42,
          "name": "F#2",
          "ticks": 12817,
          "time": 33.377604166666664,
          "velocity": 0.6299212598425197
        },
        {
          "duration": 0.2135416666666714,
          "durationTicks": 82,
          "midi": 30,
          "name": "F#1",
          "ticks": 12865,
          "time": 33.502604166666664,
          "velocity": 0.6299212598425197
        },
        {
          "duration": 0.21875,
          "durationTicks": 84,
          "midi": 42,
          "name": "F#2",
          "ticks": 12956,
          "time": 33.739583333333336,
          "velocity": 0.6299212598425197
        },
        {
          "duration": 0.1848958333333357,
          "durationTicks": 71,
          "midi": 30,
          "name": "F#1",
          "ticks": 13050,
          "time": 33.984375,
          "velocity": 0.6456692913385826
        },
        {
          "duration": 0.0546875,
          "durationTicks": 21,
          "midi": 42,
          "name": "F#2",
          "ticks": 13142,
          "time": 34.223958333333336,
          "velocity": 0.6299212598425197
        },
        {
          "duration": 0.1223958333333357,
          "durationTicks": 47,
          "midi": 42,
          "name": "F#2",
          "ticks": 13189,
          "time": 34.346354166666664,
          "velocity": 0.6456692913385826
        },
        {
          "duration": 0.2395833333333357,
          "durationTicks": 92,
          "midi": 30,
          "name": "F#1",
          "ticks": 13237,
          "time": 34.471354166666664,
          "velocity": 0.6299212598425197
        },
        {
          "duration": 0.1744791666666643,
          "durationTicks": 67,
          "midi": 42,
          "name": "F#2",
          "ticks": 13329,
          "time": 34.7109375,
          "velocity": 0.6299212598425197
        },
        {
          "duration": 0.2447916666666643,
          "durationTicks": 94,
          "midi": 37,
          "name": "C#2",
          "ticks": 13421,
          "time": 34.950520833333336,
          "velocity": 0.6456692913385826
        },
        {
          "duration": 0.203125,
          "durationTicks": 78,
          "midi": 49,
          "name": "C#3",
          "ticks": 13515,
          "time": 35.1953125,
          "velocity": 0.6299212598425197
        },
        {
          "duration": 0.2265625,
          "durationTicks": 87,
          "midi": 38,
          "name": "D2",
          "ticks": 13607,
          "time": 35.434895833333336,
          "velocity": 0.6456692913385826
        },
        {
          "duration": 0.1953125,
          "durationTicks": 75,
          "midi": 50,
          "name": "D3",
          "ticks": 13700,
          "time": 35.677083333333336,
          "velocity": 0.6299212598425197
        },
        {
          "duration": 0.1901041666666643,
          "durationTicks": 73,
          "midi": 39,
          "name": "D#2",
          "ticks": 13793,
          "time": 35.919270833333336,
          "velocity": 0.6535433070866141
        },
        {
          "duration": 0.0755208333333357,
          "durationTicks": 29,
          "midi": 51,
          "name": "D#3",
          "ticks": 13885,
          "time": 36.158854166666664,
          "velocity": 0.6299212598425197
        },
        {
          "duration": 0.109375,
          "durationTicks": 42,
          "midi": 51,
          "name": "D#3",
          "ticks": 13932,
          "time": 36.28125,
          "velocity": 0.6299212598425197
        },
        {
          "duration": 0.2135416666666643,
          "durationTicks": 82,
          "midi": 39,
          "name": "D#2",
          "ticks": 13979,
          "time": 36.403645833333336,
          "velocity": 0.6299212598425197
        },
        {
          "duration": 0.2109375,
          "durationTicks": 81,
          "midi": 51,
          "name": "D#3",
          "ticks": 14072,
          "time": 36.645833333333336,
          "velocity": 0.6299212598425197
        },
        {
          "duration": 0.1848958333333286,
          "durationTicks": 71,
          "midi": 39,
          "name": "D#2",
          "ticks": 14165,
          "time": 36.888020833333336,
          "velocity": 0.6535433070866141
        },
        {
          "duration": 0.0651041666666714,
          "durationTicks": 25,
          "midi": 51,
          "name": "D#3",
          "ticks": 14257,
          "time": 37.127604166666664,
          "velocity": 0.6299212598425197
        },
        {
          "duration": 0.0911458333333286,
          "durationTicks": 35,
          "midi": 51,
          "name": "D#3",
          "ticks": 14303,
          "time": 37.247395833333336,
          "velocity": 0.6299212598425197
        },
        {
          "duration": 0.2109375,
          "durationTicks": 81,
          "midi": 39,
          "name": "D#2",
          "ticks": 14352,
          "time": 37.375,
          "velocity": 0.6299212598425197
        },
        {
          "duration": 0.2161458333333357,
          "durationTicks": 83,
          "midi": 51,
          "name": "D#3",
          "ticks": 14443,
          "time": 37.611979166666664,
          "velocity": 0.6299212598425197
        },
        {
          "duration": 0.1848958333333357,
          "durationTicks": 71,
          "midi": 39,
          "name": "D#2",
          "ticks": 14536,
          "time": 37.854166666666664,
          "velocity": 0.6456692913385826
        },
        {
          "duration": 0.0572916666666643,
          "durationTicks": 22,
          "midi": 51,
          "name": "D#3",
          "ticks": 14628,
          "time": 38.09375,
          "velocity": 0.6299212598425197
        },
        {
          "duration": 0.1223958333333286,
          "durationTicks": 47,
          "midi": 51,
          "name": "D#3",
          "ticks": 14675,
          "time": 38.216145833333336,
          "velocity": 0.6456692913385826
        },
        {
          "duration": 0.2395833333333286,
          "durationTicks": 92,
          "midi": 39,
          "name": "D#2",
          "ticks": 14723,
          "time": 38.341145833333336,
          "velocity": 0.6299212598425197
        },
        {
          "duration": 0.1744791666666714,
          "durationTicks": 67,
          "midi": 51,
          "name": "D#3",
          "ticks": 14815,
          "time": 38.580729166666664,
          "velocity": 0.6299212598425197
        },
        {
          "duration": 0.2421875,
          "durationTicks": 93,
          "midi": 30,
          "name": "F#1",
          "ticks": 14907,
          "time": 38.8203125,
          "velocity": 0.6456692913385826
        },
        {
          "duration": 0.203125,
          "durationTicks": 78,
          "midi": 42,
          "name": "F#2",
          "ticks": 15001,
          "time": 39.065104166666664,
          "velocity": 0.6299212598425197
        },
        {
          "duration": 0.2239583333333357,
          "durationTicks": 86,
          "midi": 31,
          "name": "G1",
          "ticks": 15094,
          "time": 39.307291666666664,
          "velocity": 0.6456692913385826
        },
        {
          "duration": 0.1979166666666643,
          "durationTicks": 76,
          "midi": 43,
          "name": "G2",
          "ticks": 15186,
          "time": 39.546875,
          "velocity": 0.6299212598425197
        },
        {
          "duration": 0.1875,
          "durationTicks": 72,
          "midi": 32,
          "name": "G#1",
          "ticks": 15280,
          "time": 39.791666666666664,
          "velocity": 0.6535433070866141
        },
        {
          "duration": 0.078125,
          "durationTicks": 30,
          "midi": 44,
          "name": "G#2",
          "ticks": 15371,
          "time": 40.028645833333336,
          "velocity": 0.6299212598425197
        },
        {
          "duration": 0.1119791666666714,
          "durationTicks": 43,
          "midi": 44,
          "name": "G#2",
          "ticks": 15418,
          "time": 40.151041666666664,
          "velocity": 0.6299212598425197
        },
        {
          "duration": 0.2161458333333357,
          "durationTicks": 83,
          "midi": 32,
          "name": "G#1",
          "ticks": 15465,
          "time": 40.2734375,
          "velocity": 0.6299212598425197
        },
        {
          "duration": 0.2135416666666643,
          "durationTicks": 82,
          "midi": 44,
          "name": "G#2",
          "ticks": 15557,
          "time": 40.513020833333336,
          "velocity": 0.6299212598425197
        },
        {
          "duration": 0.1848958333333357,
          "durationTicks": 71,
          "midi": 32,
          "name": "G#1",
          "ticks": 15651,
          "time": 40.7578125,
          "velocity": 0.6535433070866141
        },
        {
          "duration": 0.0651041666666643,
          "durationTicks": 25,
          "midi": 44,
          "name": "G#2",
          "ticks": 15743,
          "time": 40.997395833333336,
          "velocity": 0.6299212598425197
        },
        {
          "duration": 0.0885416666666714,
          "durationTicks": 34,
          "midi": 44,
          "name": "G#2",
          "ticks": 15790,
          "time": 41.119791666666664,
          "velocity": 0.6299212598425197
        },
        {
          "duration": 0.2135416666666643,
          "durationTicks": 82,
          "midi": 32,
          "name": "G#1",
          "ticks": 15837,
          "time": 41.2421875,
          "velocity": 0.6299212598425197
        },
        {
          "duration": 0.2161458333333286,
          "durationTicks": 83,
          "midi": 44,
          "name": "G#2",
          "ticks": 15929,
          "time": 41.481770833333336,
          "velocity": 0.6299212598425197
        },
        {
          "duration": 0.1875,
          "durationTicks": 72,
          "midi": 32,
          "name": "G#1",
          "ticks": 16023,
          "time": 41.7265625,
          "velocity": 0.6535433070866141
        },
        {
          "duration": 0.0755208333333286,
          "durationTicks": 29,
          "midi": 44,
          "name": "G#2",
          "ticks": 16115,
          "time": 41.966145833333336,
          "velocity": 0.6299212598425197
        },
        {
          "duration": 0.1119791666666643,
          "durationTicks": 43,
          "midi": 44,
          "name": "G#2",
          "ticks": 16161,
          "time": 42.0859375,
          "velocity": 0.6299212598425197
        },
        {
          "duration": 0.2161458333333286,
          "durationTicks": 83,
          "midi": 32,
          "name": "G#1",
          "ticks": 16208,
          "time": 42.208333333333336,
          "velocity": 0.6299212598425197
        },
        {
          "duration": 0.2109375,
          "durationTicks": 81,
          "midi": 44,
          "name": "G#2",
          "ticks": 16301,
          "time": 42.450520833333336,
          "velocity": 0.6299212598425197
        },
        {
          "duration": 0.1848958333333286,
          "durationTicks": 71,
          "midi": 32,
          "name": "G#1",
          "ticks": 16394,
          "time": 42.692708333333336,
          "velocity": 0.6535433070866141
        },
        {
          "duration": 0.0677083333333357,
          "durationTicks": 26,
          "midi": 44,
          "name": "G#2",
          "ticks": 16486,
          "time": 42.932291666666664,
          "velocity": 0.6299212598425197
        },
        {
          "duration": 0.0911458333333357,
          "durationTicks": 35,
          "midi": 44,
          "name": "G#2",
          "ticks": 16533,
          "time": 43.0546875,
          "velocity": 0.6299212598425197
        },
        {
          "duration": 0.2135416666666643,
          "durationTicks": 82,
          "midi": 32,
          "name": "G#1",
          "ticks": 16580,
          "time": 43.177083333333336,
          "velocity": 0.6299212598425197
        },
        {
          "duration": 0.2161458333333357,
          "durationTicks": 83,
          "midi": 44,
          "name": "G#2",
          "ticks": 16672,
          "time": 43.416666666666664,
          "velocity": 0.6299212598425197
        },
        {
          "duration": 0.1875,
          "durationTicks": 72,
          "midi": 37,
          "name": "C#2",
          "ticks": 16766,
          "time": 43.661458333333336,
          "velocity": 0.6535433070866141
        },
        {
          "duration": 0.0755208333333357,
          "durationTicks": 29,
          "midi": 49,
          "name": "C#3",
          "ticks": 16858,
          "time": 43.901041666666664,
          "velocity": 0.6299212598425197
        },
        {
          "duration": 0.1119791666666643,
          "durationTicks": 43,
          "midi": 49,
          "name": "C#3",
          "ticks": 16904,
          "time": 44.020833333333336,
          "velocity": 0.6299212598425197
        },
        {
          "duration": 0.2135416666666643,
          "durationTicks": 82,
          "midi": 37,
          "name": "C#2",
          "ticks": 16952,
          "time": 44.145833333333336,
          "velocity": 0.6299212598425197
        },
        {
          "duration": 0.2135416666666714,
          "durationTicks": 82,
          "midi": 49,
          "name": "C#3",
          "ticks": 17044,
          "time": 44.385416666666664,
          "velocity": 0.6299212598425197
        },
        {
          "duration": 0.1848958333333357,
          "durationTicks": 71,
          "midi": 37,
          "name": "C#2",
          "ticks": 17137,
          "time": 44.627604166666664,
          "velocity": 0.6535433070866141
        },
        {
          "duration": 0.0677083333333357,
          "durationTicks": 26,
          "midi": 49,
          "name": "C#3",
          "ticks": 17229,
          "time": 44.8671875,
          "velocity": 0.6299212598425197
        },
        {
          "duration": 0.0911458333333286,
          "durationTicks": 35,
          "midi": 49,
          "name": "C#3",
          "ticks": 17276,
          "time": 44.989583333333336,
          "velocity": 0.6299212598425197
        },
        {
          "duration": 0.2135416666666714,
          "durationTicks": 82,
          "midi": 37,
          "name": "C#2",
          "ticks": 17323,
          "time": 45.111979166666664,
          "velocity": 0.6299212598425197
        },
        {
          "duration": 0.2161458333333357,
          "durationTicks": 83,
          "midi": 49,
          "name": "C#3",
          "ticks": 17415,
          "time": 45.3515625,
          "velocity": 0.6299212598425197
        },
        {
          "duration": 0.1848958333333357,
          "durationTicks": 71,
          "midi": 37,
          "name": "C#2",
          "ticks": 17509,
          "time": 45.596354166666664,
          "velocity": 0.6456692913385826
        },
        {
          "duration": 0.0546875,
          "durationTicks": 21,
          "midi": 49,
          "name": "C#3",
          "ticks": 17601,
          "time": 45.8359375,
          "velocity": 0.6299212598425197
        },
        {
          "duration": 0.125,
          "durationTicks": 48,
          "midi": 49,
          "name": "C#3",
          "ticks": 17647,
          "time": 45.955729166666664,
          "velocity": 0.6456692913385826
        },
        {
          "duration": 0.2369791666666643,
          "durationTicks": 91,
          "midi": 37,
          "name": "C#2",
          "ticks": 17696,
          "time": 46.083333333333336,
          "velocity": 0.6299212598425197
        },
        {
          "duration": 0.1744791666666714,
          "durationTicks": 67,
          "midi": 49,
          "name": "C#3",
          "ticks": 17788,
          "time": 46.322916666666664,
          "velocity": 0.6299212598425197
        },
        {
          "duration": 0.2395833333333357,
          "durationTicks": 92,
          "midi": 28,
          "name": "E1",
          "ticks": 17881,
          "time": 46.565104166666664,
          "velocity": 0.6456692913385826
        },
        {
          "duration": 0.203125,
          "durationTicks": 78,
          "midi": 40,
          "name": "E2",
          "ticks": 17974,
          "time": 46.807291666666664,
          "velocity": 0.6299212598425197
        },
        {
          "duration": 0.2239583333333357,
          "durationTicks": 86,
          "midi": 29,
          "name": "F1",
          "ticks": 18067,
          "time": 47.049479166666664,
          "velocity": 0.6456692913385826
        },
        {
          "duration": 0.1979166666666643,
          "durationTicks": 76,
          "midi": 41,
          "name": "F2",
          "ticks": 18158,
          "time": 47.286458333333336,
          "velocity": 0.6299212598425197
        },
        {
          "duration": 0.1901041666666643,
          "durationTicks": 73,
          "midi": 30,
          "name": "F#1",
          "ticks": 18252,
          "time": 47.53125,
          "velocity": 0.6535433070866141
        },
        {
          "duration": 0.0755208333333286,
          "durationTicks": 29,
          "midi": 42,
          "name": "F#2",
          "ticks": 18344,
          "time": 47.770833333333336,
          "velocity": 0.6299212598425197
        },
        {
          "duration": 0.109375,
          "durationTicks": 42,
          "midi": 42,
          "name": "F#2",
          "ticks": 18391,
          "time": 47.893229166666664,
          "velocity": 0.6299212598425197
        },
        {
          "duration": 0.2135416666666643,
          "durationTicks": 82,
          "midi": 30,
          "name": "F#1",
          "ticks": 18438,
          "time": 48.015625,
          "velocity": 0.6299212598425197
        },
        {
          "duration": 0.2109375,
          "durationTicks": 81,
          "midi": 42,
          "name": "F#2",
          "ticks": 18530,
          "time": 48.255208333333336,
          "velocity": 0.6299212598425197
        },
        {
          "duration": 0.1848958333333357,
          "durationTicks": 71,
          "midi": 30,
          "name": "F#1",
          "ticks": 18624,
          "time": 48.5,
          "velocity": 0.6535433070866141
        },
        {
          "duration": 0.0651041666666643,
          "durationTicks": 25,
          "midi": 42,
          "name": "F#2",
          "ticks": 18716,
          "time": 48.739583333333336,
          "velocity": 0.6299212598425197
        },
        {
          "duration": 0.0911458333333357,
          "durationTicks": 35,
          "midi": 42,
          "name": "F#2",
          "ticks": 18762,
          "time": 48.859375,
          "velocity": 0.6299212598425197
        },
        {
          "duration": 0.2109375,
          "durationTicks": 81,
          "midi": 30,
          "name": "F#1",
          "ticks": 18811,
          "time": 48.986979166666664,
          "velocity": 0.6299212598425197
        },
        {
          "duration": 0.2161458333333286,
          "durationTicks": 83,
          "midi": 42,
          "name": "F#2",
          "ticks": 18902,
          "time": 49.223958333333336,
          "velocity": 0.6299212598425197
        },
        {
          "duration": 0.1848958333333286,
          "durationTicks": 71,
          "midi": 30,
          "name": "F#1",
          "ticks": 18995,
          "time": 49.466145833333336,
          "velocity": 0.6456692913385826
        },
        {
          "duration": 0.057291666666671404,
          "durationTicks": 22,
          "midi": 42,
          "name": "F#2",
          "ticks": 19087,
          "time": 49.705729166666664,
          "velocity": 0.6299212598425197
        },
        {
          "duration": 0.1223958333333357,
          "durationTicks": 47,
          "midi": 42,
          "name": "F#2",
          "ticks": 19134,
          "time": 49.828125,
          "velocity": 0.6456692913385826
        },
        {
          "duration": 0.2421875,
          "durationTicks": 93,
          "midi": 30,
          "name": "F#1",
          "ticks": 19181,
          "time": 49.950520833333336,
          "velocity": 0.6299212598425197
        },
        {
          "duration": 0.1744791666666643,
          "durationTicks": 67,
          "midi": 42,
          "name": "F#2",
          "ticks": 19274,
          "time": 50.192708333333336,
          "velocity": 0.6299212598425197
        },
        {
          "duration": 0.2421875,
          "durationTicks": 93,
          "midi": 37,
          "name": "C#2",
          "ticks": 19367,
          "time": 50.434895833333336,
          "velocity": 0.6456692913385826
        },
        {
          "duration": 0.203125,
          "durationTicks": 78,
          "midi": 49,
          "name": "C#3",
          "ticks": 19460,
          "time": 50.677083333333336,
          "velocity": 0.6299212598425197
        },
        {
          "duration": 0.2239583333333286,
          "durationTicks": 86,
          "midi": 38,
          "name": "D2",
          "ticks": 19553,
          "time": 50.919270833333336,
          "velocity": 0.6456692913385826
        },
        {
          "duration": 0.1953125,
          "durationTicks": 75,
          "midi": 50,
          "name": "D3",
          "ticks": 19646,
          "time": 51.161458333333336,
          "velocity": 0.6299212598425197
        },
        {
          "duration": 0.1875,
          "durationTicks": 72,
          "midi": 39,
          "name": "D#2",
          "ticks": 19739,
          "time": 51.403645833333336,
          "velocity": 0.6535433070866141
        },
        {
          "duration": 0.0755208333333357,
          "durationTicks": 29,
          "midi": 51,
          "name": "D#3",
          "ticks": 19831,
          "time": 51.643229166666664,
          "velocity": 0.6299212598425197
        },
        {
          "duration": 0.1119791666666643,
          "durationTicks": 43,
          "midi": 51,
          "name": "D#3",
          "ticks": 19877,
          "time": 51.763020833333336,
          "velocity": 0.6299212598425197
        },
        {
          "duration": 0.2161458333333357,
          "durationTicks": 83,
          "midi": 39,
          "name": "D#2",
          "ticks": 19924,
          "time": 51.885416666666664,
          "velocity": 0.6299212598425197
        },
        {
          "duration": 0.2109375,
          "durationTicks": 81,
          "midi": 51,
          "name": "D#3",
          "ticks": 20017,
          "time": 52.127604166666664,
          "velocity": 0.6299212598425197
        },
        {
          "duration": 0.1875,
          "durationTicks": 72,
          "midi": 39,
          "name": "D#2",
          "ticks": 20109,
          "time": 52.3671875,
          "velocity": 0.6535433070866141
        },
        {
          "duration": 0.0651041666666643,
          "durationTicks": 25,
          "midi": 51,
          "name": "D#3",
          "ticks": 20202,
          "time": 52.609375,
          "velocity": 0.6299212598425197
        },
        {
          "duration": 0.0911458333333357,
          "durationTicks": 35,
          "midi": 51,
          "name": "D#3",
          "ticks": 20248,
          "time": 52.729166666666664,
          "velocity": 0.6299212598425197
        },
        {
          "duration": 0.2109375,
          "durationTicks": 81,
          "midi": 39,
          "name": "D#2",
          "ticks": 20297,
          "time": 52.856770833333336,
          "velocity": 0.6299212598425197
        },
        {
          "duration": 0.2161458333333357,
          "durationTicks": 83,
          "midi": 51,
          "name": "D#3",
          "ticks": 20388,
          "time": 53.09375,
          "velocity": 0.6299212598425197
        },
        {
          "duration": 0.1848958333333357,
          "durationTicks": 71,
          "midi": 39,
          "name": "D#2",
          "ticks": 20481,
          "time": 53.3359375,
          "velocity": 0.6456692913385826
        },
        {
          "duration": 0.0546875,
          "durationTicks": 21,
          "midi": 51,
          "name": "D#3",
          "ticks": 20574,
          "time": 53.578125,
          "velocity": 0.6299212598425197
        },
        {
          "duration": 0.125,
          "durationTicks": 48,
          "midi": 51,
          "name": "D#3",
          "ticks": 20620,
          "time": 53.697916666666664,
          "velocity": 0.6456692913385826
        },
        {
          "duration": 0.2395833333333357,
          "durationTicks": 92,
          "midi": 39,
          "name": "D#2",
          "ticks": 20668,
          "time": 53.822916666666664,
          "velocity": 0.6299212598425197
        },
        {
          "duration": 0.1744791666666643,
          "durationTicks": 67,
          "midi": 51,
          "name": "D#3",
          "ticks": 20760,
          "time": 54.0625,
          "velocity": 0.6299212598425197
        },
        {
          "duration": 0.2421875,
          "durationTicks": 93,
          "midi": 30,
          "name": "F#1",
          "ticks": 20853,
          "time": 54.3046875,
          "velocity": 0.6456692913385826
        },
        {
          "duration": 0.203125,
          "durationTicks": 78,
          "midi": 42,
          "name": "F#2",
          "ticks": 20946,
          "time": 54.546875,
          "velocity": 0.6299212598425197
        },
        {
          "duration": 0.2239583333333357,
          "durationTicks": 86,
          "midi": 31,
          "name": "G1",
          "ticks": 21039,
          "time": 54.7890625,
          "velocity": 0.6456692913385826
        }
      ]
    },
    {
      "channel": 0,
      "controlChanges": {
        "1": [
          {
            "number": 1,
            "ticks": 251,
            "time": 0.6536458333333334,
            "value": 0
          }
        ],
        "7": [
          {
            "number": 7,
            "ticks": 240,
            "time": 0.625,
            "value": 0.5354330708661418
          },
          {
            "number": 7,
            "ticks": 18430,
            "time": 47.994791666666664,
            "value": 0.5275590551181102
          },
          {
            "number": 7,
            "ticks": 18523,
            "time": 48.236979166666664,
            "value": 0.5196850393700787
          },
          {
            "number": 7,
            "ticks": 18617,
            "time": 48.481770833333336,
            "value": 0.5039370078740157
          },
          {
            "number": 7,
            "ticks": 18710,
            "time": 48.723958333333336,
            "value": 0.4881889763779528
          },
          {
            "number": 7,
            "ticks": 18803,
            "time": 48.966145833333336,
            "value": 0.4645669291338583
          },
          {
            "number": 7,
            "ticks": 18895,
            "time": 49.205729166666664,
            "value": 0.44881889763779526
          },
          {
            "number": 7,
            "ticks": 18988,
            "time": 49.447916666666664,
            "value": 0.4330708661417323
          },
          {
            "number": 7,
            "ticks": 19081,
            "time": 49.690104166666664,
            "value": 0.41732283464566927
          },
          {
            "number": 7,
            "ticks": 19174,
            "time": 49.932291666666664,
            "value": 0.3937007874015748
          },
          {
            "number": 7,
            "ticks": 19267,
            "time": 50.174479166666664,
            "value": 0.3779527559055118
          },
          {
            "number": 7,
            "ticks": 19360,
            "time": 50.416666666666664,
            "value": 0.3543307086614173
          },
          {
            "number": 7,
            "ticks": 19453,
            "time": 50.658854166666664,
            "value": 0.33070866141732286
          },
          {
            "number": 7,
            "ticks": 19546,
            "time": 50.901041666666664,
            "value": 0.31496062992125984
          },
          {
            "number": 7,
            "ticks": 19639,
            "time": 51.143229166666664,
            "value": 0.29133858267716534
          },
          {
            "number": 7,
            "ticks": 19732,
            "time": 51.385416666666664,
            "value": 0.2755905511811024
          },
          {
            "number": 7,
            "ticks": 19824,
            "time": 51.625,
            "value": 0.25196850393700787
          },
          {
            "number": 7,
            "ticks": 19917,
            "time": 51.8671875,
            "value": 0.23622047244094488
          },
          {
            "number": 7,
            "ticks": 20010,
            "time": 52.109375,
            "value": 0.2204724409448819
          },
          {
            "number": 7,
            "ticks": 20103,
            "time": 52.3515625,
            "value": 0.1968503937007874
          },
          {
            "number": 7,
            "ticks": 20196,
            "time": 52.59375,
            "value": 0.18110236220472442
          },
          {
            "number": 7,
            "ticks": 20289,
            "time": 52.8359375,
            "value": 0.15748031496062992
          },
          {
            "number": 7,
            "ticks": 20382,
            "time": 53.078125,
            "value": 0.14173228346456693
          },
          {
            "number": 7,
            "ticks": 20475,
            "time": 53.3203125,
            "value": 0.11811023622047244
          },
          {
            "number": 7,
            "ticks": 20567,
            "time": 53.559895833333336,
            "value": 0.10236220472440945
          },
          {
            "number": 7,
            "ticks": 20660,
            "time": 53.802083333333336,
            "value": 0.08661417322834646
          },
          {
            "number": 7,
            "ticks": 20753,
            "time": 54.044270833333336,
            "value": 0.07086614173228346
          },
          {
            "number": 7,
            "ticks": 20846,
            "time": 54.286458333333336,
            "value": 0.047244094488188976
          },
          {
            "number": 7,
            "ticks": 20939,
            "time": 54.528645833333336,
            "value": 0.031496062992125984
          },
          {
            "number": 7,
            "ticks": 21032,
            "time": 54.770833333333336,
            "value": 0.015748031496062992
          },
          {
            "number": 7,
            "ticks": 21125,
            "time": 55.013020833333336,
            "value": 0
          }
        ],
        "10": [
          {
            "number": 10,
            "ticks": 242,
            "time": 0.6302083333333334,
            "value": 0.3543307086614173
          }
        ],
        "91": [
          {
            "number": 91,
            "ticks": 245,
            "time": 0.6380208333333334,
            "value": 0.6141732283464567
          }
        ],
        "93": [
          {
            "number": 93,
            "ticks": 248,
            "time": 0.6458333333333334,
            "value": 0.5511811023622047
          }
        ]
      },
      "pitchBends": [],
      "instrument": {
        "family": "piano",
        "number": 4,
        "name": "electric piano 1"
      },
      "name": "",
      "notes": [
        {
          "duration": 3.669270833333333,
          "durationTicks": 1409,
          "midi": 49,
          "name": "C#3",
          "ticks": 418,
          "time": 1.0885416666666667,
          "velocity": 0.6299212598425197
        },
        {
          "duration": 3.669270833333334,
          "durationTicks": 1409,
          "midi": 59,
          "name": "B3",
          "ticks": 419,
          "time": 1.0911458333333333,
          "velocity": 0.6299212598425197
        },
        {
          "duration": 3.674479166666667,
          "durationTicks": 1411,
          "midi": 63,
          "name": "D#4",
          "ticks": 419,
          "time": 1.0911458333333333,
          "velocity": 0.6929133858267716
        },
        {
          "duration": 3.65625,
          "durationTicks": 1404,
          "midi": 66,
          "name": "F#4",
          "ticks": 420,
          "time": 1.09375,
          "velocity": 0.6929133858267716
        },
        {
          "duration": 3.661458333333333,
          "durationTicks": 1406,
          "midi": 70,
          "name": "A#4",
          "ticks": 420,
          "time": 1.09375,
          "velocity": 0.6456692913385826
        },
        {
          "duration": 3.7265625,
          "durationTicks": 1431,
          "midi": 49,
          "name": "C#3",
          "ticks": 1905,
          "time": 4.9609375,
          "velocity": 0.6614173228346457
        },
        {
          "duration": 3.7421875,
          "durationTicks": 1437,
          "midi": 59,
          "name": "B3",
          "ticks": 1905,
          "time": 4.9609375,
          "velocity": 0.6614173228346457
        },
        {
          "duration": 3.723958333333333,
          "durationTicks": 1430,
          "midi": 63,
          "name": "D#4",
          "ticks": 1906,
          "time": 4.963541666666667,
          "velocity": 0.6929133858267716
        },
        {
          "duration": 3.729166666666667,
          "durationTicks": 1432,
          "midi": 66,
          "name": "F#4",
          "ticks": 1906,
          "time": 4.963541666666667,
          "velocity": 0.6456692913385826
        },
        {
          "duration": 3.716145833333333,
          "durationTicks": 1427,
          "midi": 70,
          "name": "A#4",
          "ticks": 1907,
          "time": 4.966145833333333,
          "velocity": 0.6299212598425197
        },
        {
          "duration": 0.8203125,
          "durationTicks": 315,
          "midi": 49,
          "name": "C#3",
          "ticks": 3392,
          "time": 8.833333333333334,
          "velocity": 0.6535433070866141
        },
        {
          "duration": 0.8151041666666661,
          "durationTicks": 313,
          "midi": 59,
          "name": "B3",
          "ticks": 3392,
          "time": 8.833333333333334,
          "velocity": 0.6456692913385826
        },
        {
          "duration": 0.828125,
          "durationTicks": 318,
          "midi": 63,
          "name": "D#4",
          "ticks": 3393,
          "time": 8.8359375,
          "velocity": 0.6614173228346457
        },
        {
          "duration": 0.8359375,
          "durationTicks": 321,
          "midi": 66,
          "name": "F#4",
          "ticks": 3393,
          "time": 8.8359375,
          "velocity": 0.6456692913385826
        },
        {
          "duration": 0.8203125,
          "durationTicks": 315,
          "midi": 70,
          "name": "A#4",
          "ticks": 3393,
          "time": 8.8359375,
          "velocity": 0.6456692913385826
        },
        {
          "duration": 0.8541666666666679,
          "durationTicks": 328,
          "midi": 49,
          "name": "C#3",
          "ticks": 3763,
          "time": 9.799479166666666,
          "velocity": 0.6299212598425197
        },
        {
          "duration": 0.8541666666666679,
          "durationTicks": 328,
          "midi": 59,
          "name": "B3",
          "ticks": 3763,
          "time": 9.799479166666666,
          "velocity": 0.6456692913385826
        },
        {
          "duration": 0.8619791666666661,
          "durationTicks": 331,
          "midi": 63,
          "name": "D#4",
          "ticks": 3764,
          "time": 9.802083333333334,
          "velocity": 0.6614173228346457
        },
        {
          "duration": 0.8567708333333321,
          "durationTicks": 329,
          "midi": 66,
          "name": "F#4",
          "ticks": 3764,
          "time": 9.802083333333334,
          "velocity": 0.6929133858267716
        },
        {
          "duration": 0.8567708333333321,
          "durationTicks": 329,
          "midi": 70,
          "name": "A#4",
          "ticks": 3764,
          "time": 9.802083333333334,
          "velocity": 0.6141732283464567
        },
        {
          "duration": 1.747395833333334,
          "durationTicks": 671,
          "midi": 49,
          "name": "C#3",
          "ticks": 4134,
          "time": 10.765625,
          "velocity": 0.6299212598425197
        },
        {
          "duration": 1.7447916666666679,
          "durationTicks": 670,
          "midi": 59,
          "name": "B3",
          "ticks": 4135,
          "time": 10.768229166666666,
          "velocity": 0.6929133858267716
        },
        {
          "duration": 1.7604166666666679,
          "durationTicks": 676,
          "midi": 63,
          "name": "D#4",
          "ticks": 4135,
          "time": 10.768229166666666,
          "velocity": 0.6929133858267716
        },
        {
          "duration": 1.755208333333334,
          "durationTicks": 674,
          "midi": 66,
          "name": "F#4",
          "ticks": 4135,
          "time": 10.768229166666666,
          "velocity": 0.6456692913385826
        },
        {
          "duration": 1.736979166666666,
          "durationTicks": 667,
          "midi": 70,
          "name": "A#4",
          "ticks": 4136,
          "time": 10.770833333333334,
          "velocity": 0.6614173228346457
        },
        {
          "duration": 0.14583333333333215,
          "durationTicks": 56,
          "midi": 66,
          "name": "F#4",
          "ticks": 4877,
          "time": 12.700520833333334,
          "velocity": 0.7086614173228346
        },
        {
          "duration": 0.140625,
          "durationTicks": 54,
          "midi": 70,
          "name": "A#4",
          "ticks": 4878,
          "time": 12.703125,
          "velocity": 0.7480314960629921
        },
        {
          "duration": 0.14583333333333393,
          "durationTicks": 56,
          "midi": 73,
          "name": "C#5",
          "ticks": 4878,
          "time": 12.703125,
          "velocity": 0.6614173228346457
        },
        {
          "duration": 0.11197916666666785,
          "durationTicks": 43,
          "midi": 66,
          "name": "F#4",
          "ticks": 4969,
          "time": 12.940104166666666,
          "velocity": 0.6771653543307087
        },
        {
          "duration": 0.09895833333333215,
          "durationTicks": 38,
          "midi": 70,
          "name": "A#4",
          "ticks": 4970,
          "time": 12.942708333333334,
          "velocity": 0.6771653543307087
        },
        {
          "duration": 0.109375,
          "durationTicks": 42,
          "midi": 73,
          "name": "C#5",
          "ticks": 4970,
          "time": 12.942708333333334,
          "velocity": 0.6614173228346457
        },
        {
          "duration": 0.0859375,
          "durationTicks": 33,
          "midi": 66,
          "name": "F#4",
          "ticks": 5155,
          "time": 13.424479166666666,
          "velocity": 0.6614173228346457
        },
        {
          "duration": 0.09114583333333393,
          "durationTicks": 35,
          "midi": 70,
          "name": "A#4",
          "ticks": 5155,
          "time": 13.424479166666666,
          "velocity": 0.7086614173228346
        },
        {
          "duration": 0.09895833333333215,
          "durationTicks": 38,
          "midi": 73,
          "name": "C#5",
          "ticks": 5156,
          "time": 13.427083333333334,
          "velocity": 0.7086614173228346
        },
        {
          "duration": 0.5807291666666679,
          "durationTicks": 223,
          "midi": 66,
          "name": "F#4",
          "ticks": 5341,
          "time": 13.908854166666666,
          "velocity": 0.6456692913385826
        },
        {
          "duration": 0.5755208333333339,
          "durationTicks": 221,
          "midi": 70,
          "name": "A#4",
          "ticks": 5341,
          "time": 13.908854166666666,
          "velocity": 0.6771653543307087
        },
        {
          "duration": 0.5859375,
          "durationTicks": 225,
          "midi": 73,
          "name": "C#5",
          "ticks": 5342,
          "time": 13.911458333333334,
          "velocity": 0.6771653543307087
        },
        {
          "duration": 0.265625,
          "durationTicks": 102,
          "midi": 66,
          "name": "F#4",
          "ticks": 5620,
          "time": 14.635416666666666,
          "velocity": 0.7086614173228346
        },
        {
          "duration": 0.265625,
          "durationTicks": 102,
          "midi": 70,
          "name": "A#4",
          "ticks": 5620,
          "time": 14.635416666666666,
          "velocity": 0.7086614173228346
        },
        {
          "duration": 0.28125,
          "durationTicks": 108,
          "midi": 73,
          "name": "C#5",
          "ticks": 5620,
          "time": 14.635416666666666,
          "velocity": 0.7086614173228346
        },
        {
          "duration": 0.09635416666666607,
          "durationTicks": 37,
          "midi": 66,
          "name": "F#4",
          "ticks": 5759,
          "time": 14.997395833333334,
          "velocity": 0.6614173228346457
        },
        {
          "duration": 0.1015625,
          "durationTicks": 39,
          "midi": 70,
          "name": "A#4",
          "ticks": 5759,
          "time": 14.997395833333334,
          "velocity": 0.6771653543307087
        },
        {
          "duration": 0.08333333333333393,
          "durationTicks": 32,
          "midi": 73,
          "name": "C#5",
          "ticks": 5760,
          "time": 15,
          "velocity": 0.6614173228346457
        },
        {
          "duration": 0.2682291666666661,
          "durationTicks": 103,
          "midi": 66,
          "name": "F#4",
          "ticks": 5898,
          "time": 15.359375,
          "velocity": 0.6771653543307087
        },
        {
          "duration": 0.25,
          "durationTicks": 96,
          "midi": 70,
          "name": "A#4",
          "ticks": 5899,
          "time": 15.361979166666666,
          "velocity": 0.6771653543307087
        },
        {
          "duration": 0.2708333333333339,
          "durationTicks": 104,
          "midi": 73,
          "name": "C#5",
          "ticks": 5899,
          "time": 15.361979166666666,
          "velocity": 0.6771653543307087
        },
        {
          "duration": 0.09895833333333215,
          "durationTicks": 38,
          "midi": 66,
          "name": "F#4",
          "ticks": 6038,
          "time": 15.723958333333334,
          "velocity": 0.6614173228346457
        },
        {
          "duration": 0.08072916666666607,
          "durationTicks": 31,
          "midi": 70,
          "name": "A#4",
          "ticks": 6038,
          "time": 15.723958333333334,
          "velocity": 0.6456692913385826
        },
        {
          "duration": 0.10416666666666607,
          "durationTicks": 40,
          "midi": 73,
          "name": "C#5",
          "ticks": 6038,
          "time": 15.723958333333334,
          "velocity": 0.6456692913385826
        },
        {
          "duration": 0.3515625,
          "durationTicks": 135,
          "midi": 66,
          "name": "F#4",
          "ticks": 6177,
          "time": 16.0859375,
          "velocity": 0.6614173228346457
        },
        {
          "duration": 0.3671875,
          "durationTicks": 141,
          "midi": 70,
          "name": "A#4",
          "ticks": 6177,
          "time": 16.0859375,
          "velocity": 0.6771653543307087
        },
        {
          "duration": 0.390625,
          "durationTicks": 150,
          "midi": 73,
          "name": "C#5",
          "ticks": 6178,
          "time": 16.088541666666668,
          "velocity": 0.6771653543307087
        },
        {
          "duration": 0.1588541666666643,
          "durationTicks": 61,
          "midi": 66,
          "name": "F#4",
          "ticks": 6364,
          "time": 16.572916666666668,
          "velocity": 0.7086614173228346
        },
        {
          "duration": 0.16927083333333215,
          "durationTicks": 65,
          "midi": 70,
          "name": "A#4",
          "ticks": 6364,
          "time": 16.572916666666668,
          "velocity": 0.7480314960629921
        },
        {
          "duration": 0.1614583333333357,
          "durationTicks": 62,
          "midi": 75,
          "name": "D#5",
          "ticks": 6365,
          "time": 16.575520833333332,
          "velocity": 0.7086614173228346
        },
        {
          "duration": 0.10416666666666785,
          "durationTicks": 40,
          "midi": 66,
          "name": "F#4",
          "ticks": 6456,
          "time": 16.8125,
          "velocity": 0.6771653543307087
        },
        {
          "duration": 0.11458333333333215,
          "durationTicks": 44,
          "midi": 70,
          "name": "A#4",
          "ticks": 6456,
          "time": 16.8125,
          "velocity": 0.7086614173228346
        },
        {
          "duration": 0.125,
          "durationTicks": 48,
          "midi": 75,
          "name": "D#5",
          "ticks": 6456,
          "time": 16.8125,
          "velocity": 0.6614173228346457
        },
        {
          "duration": 0.09635416666666785,
          "durationTicks": 37,
          "midi": 66,
          "name": "F#4",
          "ticks": 6641,
          "time": 17.294270833333332,
          "velocity": 0.6771653543307087
        },
        {
          "duration": 0.09635416666666785,
          "durationTicks": 37,
          "midi": 70,
          "name": "A#4",
          "ticks": 6642,
          "time": 17.296875,
          "velocity": 0.7086614173228346
        },
        {
          "duration": 0.13020833333333215,
          "durationTicks": 50,
          "midi": 73,
          "name": "C#5",
          "ticks": 6642,
          "time": 17.296875,
          "velocity": 0.6771653543307087
        },
        {
          "duration": 0.10677083333333215,
          "durationTicks": 41,
          "midi": 75,
          "name": "D#5",
          "ticks": 6643,
          "time": 17.299479166666668,
          "velocity": 0.6771653543307087
        },
        {
          "duration": 0.5989583333333357,
          "durationTicks": 230,
          "midi": 66,
          "name": "F#4",
          "ticks": 6827,
          "time": 17.778645833333332,
          "velocity": 0.6771653543307087
        },
        {
          "duration": 0.59375,
          "durationTicks": 228,
          "midi": 70,
          "name": "A#4",
          "ticks": 6828,
          "time": 17.78125,
          "velocity": 0.7086614173228346
        },
        {
          "duration": 0.6067708333333321,
          "durationTicks": 233,
          "midi": 73,
          "name": "C#5",
          "ticks": 6828,
          "time": 17.78125,
          "velocity": 0.7086614173228346
        },
        {
          "duration": 0.59375,
          "durationTicks": 228,
          "midi": 75,
          "name": "D#5",
          "ticks": 6828,
          "time": 17.78125,
          "velocity": 0.7086614173228346
        },
        {
          "duration": 0.2630208333333357,
          "durationTicks": 101,
          "midi": 66,
          "name": "F#4",
          "ticks": 7106,
          "time": 18.505208333333332,
          "velocity": 0.7086614173228346
        },
        {
          "duration": 0.2421875,
          "durationTicks": 93,
          "midi": 70,
          "name": "A#4",
          "ticks": 7106,
          "time": 18.505208333333332,
          "velocity": 0.6771653543307087
        },
        {
          "duration": 0.26822916666666785,
          "durationTicks": 103,
          "midi": 73,
          "name": "C#5",
          "ticks": 7107,
          "time": 18.5078125,
          "velocity": 0.6771653543307087
        },
        {
          "duration": 0.22916666666666785,
          "durationTicks": 88,
          "midi": 75,
          "name": "D#5",
          "ticks": 7107,
          "time": 18.5078125,
          "velocity": 0.6614173228346457
        },
        {
          "duration": 0.1015625,
          "durationTicks": 39,
          "midi": 66,
          "name": "F#4",
          "ticks": 7245,
          "time": 18.8671875,
          "velocity": 0.6771653543307087
        },
        {
          "duration": 0.0885416666666643,
          "durationTicks": 34,
          "midi": 70,
          "name": "A#4",
          "ticks": 7246,
          "time": 18.869791666666668,
          "velocity": 0.6771653543307087
        },
        {
          "duration": 0.1354166666666643,
          "durationTicks": 52,
          "midi": 73,
          "name": "C#5",
          "ticks": 7246,
          "time": 18.869791666666668,
          "velocity": 0.6614173228346457
        },
        {
          "duration": 0.1197916666666643,
          "durationTicks": 46,
          "midi": 75,
          "name": "D#5",
          "ticks": 7246,
          "time": 18.869791666666668,
          "velocity": 0.6771653543307087
        },
        {
          "duration": 0.33072916666666785,
          "durationTicks": 127,
          "midi": 66,
          "name": "F#4",
          "ticks": 7385,
          "time": 19.231770833333332,
          "velocity": 0.6771653543307087
        },
        {
          "duration": 0.3567708333333357,
          "durationTicks": 137,
          "midi": 70,
          "name": "A#4",
          "ticks": 7385,
          "time": 19.231770833333332,
          "velocity": 0.7086614173228346
        },
        {
          "duration": 0.3411458333333357,
          "durationTicks": 131,
          "midi": 75,
          "name": "D#5",
          "ticks": 7385,
          "time": 19.231770833333332,
          "velocity": 0.6614173228346457
        },
        {
          "duration": 0.1171875,
          "durationTicks": 45,
          "midi": 66,
          "name": "F#4",
          "ticks": 7570,
          "time": 19.713541666666668,
          "velocity": 0.6614173228346457
        },
        {
          "duration": 0.10416666666666785,
          "durationTicks": 40,
          "midi": 70,
          "name": "A#4",
          "ticks": 7571,
          "time": 19.716145833333332,
          "velocity": 0.6614173228346457
        },
        {
          "duration": 0.10416666666666785,
          "durationTicks": 40,
          "midi": 73,
          "name": "C#5",
          "ticks": 7571,
          "time": 19.716145833333332,
          "velocity": 0.6614173228346457
        },
        {
          "duration": 0.10677083333333215,
          "durationTicks": 41,
          "midi": 75,
          "name": "D#5",
          "ticks": 7572,
          "time": 19.71875,
          "velocity": 0.6614173228346457
        },
        {
          "duration": 0.2421875,
          "durationTicks": 93,
          "midi": 66,
          "name": "F#4",
          "ticks": 7663,
          "time": 19.955729166666668,
          "velocity": 0.7086614173228346
        },
        {
          "duration": 0.2552083333333357,
          "durationTicks": 98,
          "midi": 70,
          "name": "A#4",
          "ticks": 7664,
          "time": 19.958333333333332,
          "velocity": 0.7086614173228346
        },
        {
          "duration": 0.265625,
          "durationTicks": 102,
          "midi": 73,
          "name": "C#5",
          "ticks": 7664,
          "time": 19.958333333333332,
          "velocity": 0.6771653543307087
        },
        {
          "duration": 0.26041666666666785,
          "durationTicks": 100,
          "midi": 75,
          "name": "D#5",
          "ticks": 7664,
          "time": 19.958333333333332,
          "velocity": 0.6771653543307087
        },
        {
          "duration": 0.15885416666666785,
          "durationTicks": 61,
          "midi": 66,
          "name": "F#4",
          "ticks": 7850,
          "time": 20.442708333333332,
          "velocity": 0.7086614173228346
        },
        {
          "duration": 0.17447916666666785,
          "durationTicks": 67,
          "midi": 71,
          "name": "B4",
          "ticks": 7850,
          "time": 20.442708333333332,
          "velocity": 0.7086614173228346
        },
        {
          "duration": 0.18229166666666785,
          "durationTicks": 70,
          "midi": 75,
          "name": "D#5",
          "ticks": 7851,
          "time": 20.4453125,
          "velocity": 0.7086614173228346
        },
        {
          "duration": 0.11458333333333215,
          "durationTicks": 44,
          "midi": 66,
          "name": "F#4",
          "ticks": 7942,
          "time": 20.682291666666668,
          "velocity": 0.6614173228346457
        },
        {
          "duration": 0.10677083333333215,
          "durationTicks": 41,
          "midi": 71,
          "name": "B4",
          "ticks": 7942,
          "time": 20.682291666666668,
          "velocity": 0.6614173228346457
        },
        {
          "duration": 0.1223958333333357,
          "durationTicks": 47,
          "midi": 75,
          "name": "D#5",
          "ticks": 7943,
          "time": 20.684895833333332,
          "velocity": 0.6456692913385826
        },
        {
          "duration": 0.09895833333333215,
          "durationTicks": 38,
          "midi": 66,
          "name": "F#4",
          "ticks": 8128,
          "time": 21.166666666666668,
          "velocity": 0.6771653543307087
        },
        {
          "duration": 0.0859375,
          "durationTicks": 33,
          "midi": 71,
          "name": "B4",
          "ticks": 8128,
          "time": 21.166666666666668,
          "velocity": 0.7086614173228346
        },
        {
          "duration": 0.078125,
          "durationTicks": 30,
          "midi": 75,
          "name": "D#5",
          "ticks": 8129,
          "time": 21.169270833333332,
          "velocity": 0.6771653543307087
        },
        {
          "duration": 0.6041666666666643,
          "durationTicks": 232,
          "midi": 66,
          "name": "F#4",
          "ticks": 8314,
          "time": 21.651041666666668,
          "velocity": 0.6771653543307087
        },
        {
          "duration": 0.5989583333333321,
          "durationTicks": 230,
          "midi": 71,
          "name": "B4",
          "ticks": 8314,
          "time": 21.651041666666668,
          "velocity": 0.6771653543307087
        },
        {
          "duration": 0.59375,
          "durationTicks": 228,
          "midi": 75,
          "name": "D#5",
          "ticks": 8314,
          "time": 21.651041666666668,
          "velocity": 0.7086614173228346
        },
        {
          "duration": 0.26822916666666785,
          "durationTicks": 103,
          "midi": 66,
          "name": "F#4",
          "ticks": 8592,
          "time": 22.375,
          "velocity": 0.7086614173228346
        },
        {
          "duration": 0.2447916666666643,
          "durationTicks": 94,
          "midi": 71,
          "name": "B4",
          "ticks": 8593,
          "time": 22.377604166666668,
          "velocity": 0.7086614173228346
        },
        {
          "duration": 0.25520833333333215,
          "durationTicks": 98,
          "midi": 75,
          "name": "D#5",
          "ticks": 8593,
          "time": 22.377604166666668,
          "velocity": 0.7086614173228346
        },
        {
          "duration": 0.10416666666666785,
          "durationTicks": 40,
          "midi": 66,
          "name": "F#4",
          "ticks": 8732,
          "time": 22.739583333333332,
          "velocity": 0.6771653543307087
        },
        {
          "duration": 0.08072916666666785,
          "durationTicks": 31,
          "midi": 71,
          "name": "B4",
          "ticks": 8732,
          "time": 22.739583333333332,
          "velocity": 0.6771653543307087
        },
        {
          "duration": 0.09375,
          "durationTicks": 36,
          "midi": 75,
          "name": "D#5",
          "ticks": 8732,
          "time": 22.739583333333332,
          "velocity": 0.6771653543307087
        },
        {
          "duration": 0.27083333333333215,
          "durationTicks": 104,
          "midi": 66,
          "name": "F#4",
          "ticks": 8871,
          "time": 23.1015625,
          "velocity": 0.7086614173228346
        },
        {
          "duration": 0.26822916666666785,
          "durationTicks": 103,
          "midi": 71,
          "name": "B4",
          "ticks": 8871,
          "time": 23.1015625,
          "velocity": 0.6771653543307087
        },
        {
          "duration": 0.25,
          "durationTicks": 96,
          "midi": 75,
          "name": "D#5",
          "ticks": 8872,
          "time": 23.104166666666668,
          "velocity": 0.6456692913385826
        },
        {
          "duration": 0.1119791666666643,
          "durationTicks": 43,
          "midi": 66,
          "name": "F#4",
          "ticks": 9010,
          "time": 23.463541666666668,
          "velocity": 0.6614173228346457
        },
        {
          "duration": 0.1145833333333357,
          "durationTicks": 44,
          "midi": 71,
          "name": "B4",
          "ticks": 9011,
          "time": 23.466145833333332,
          "velocity": 0.6771653543307087
        },
        {
          "duration": 0.0989583333333357,
          "durationTicks": 38,
          "midi": 75,
          "name": "D#5",
          "ticks": 9011,
          "time": 23.466145833333332,
          "velocity": 0.6614173228346457
        },
        {
          "duration": 0.13020833333333215,
          "durationTicks": 50,
          "midi": 66,
          "name": "F#4",
          "ticks": 9150,
          "time": 23.828125,
          "velocity": 0.7086614173228346
        },
        {
          "duration": 0.15885416666666785,
          "durationTicks": 61,
          "midi": 71,
          "name": "B4",
          "ticks": 9150,
          "time": 23.828125,
          "velocity": 0.6771653543307087
        },
        {
          "duration": 0.14583333333333215,
          "durationTicks": 56,
          "midi": 75,
          "name": "D#5",
          "ticks": 9150,
          "time": 23.828125,
          "velocity": 0.6771653543307087
        },
        {
          "duration": 0.29166666666666785,
          "durationTicks": 112,
          "midi": 68,
          "name": "G#4",
          "ticks": 9336,
          "time": 24.3125,
          "velocity": 0.7480314960629921
        },
        {
          "duration": 0.29427083333333215,
          "durationTicks": 113,
          "midi": 73,
          "name": "C#5",
          "ticks": 9337,
          "time": 24.315104166666668,
          "velocity": 0.7480314960629921
        },
        {
          "duration": 0.27864583333333215,
          "durationTicks": 107,
          "midi": 77,
          "name": "F5",
          "ticks": 9337,
          "time": 24.315104166666668,
          "velocity": 0.7086614173228346
        },
        {
          "duration": 0.30989583333333215,
          "durationTicks": 119,
          "midi": 66,
          "name": "F#4",
          "ticks": 9615,
          "time": 25.0390625,
          "velocity": 0.7086614173228346
        },
        {
          "duration": 0.31510416666666785,
          "durationTicks": 121,
          "midi": 71,
          "name": "B4",
          "ticks": 9615,
          "time": 25.0390625,
          "velocity": 0.7480314960629921
        },
        {
          "duration": 0.296875,
          "durationTicks": 114,
          "midi": 75,
          "name": "D#5",
          "ticks": 9616,
          "time": 25.041666666666668,
          "velocity": 0.7480314960629921
        },
        {
          "duration": 0.33333333333333215,
          "durationTicks": 128,
          "midi": 65,
          "name": "F4",
          "ticks": 9894,
          "time": 25.765625,
          "velocity": 0.7795275590551181
        },
        {
          "duration": 0.35677083333333215,
          "durationTicks": 137,
          "midi": 70,
          "name": "A#4",
          "ticks": 9894,
          "time": 25.765625,
          "velocity": 0.7480314960629921
        },
        {
          "duration": 0.35416666666666785,
          "durationTicks": 136,
          "midi": 73,
          "name": "C#5",
          "ticks": 9894,
          "time": 25.765625,
          "velocity": 0.7480314960629921
        },
        {
          "duration": 0.265625,
          "durationTicks": 102,
          "midi": 63,
          "name": "D#4",
          "ticks": 10172,
          "time": 26.489583333333332,
          "velocity": 0.7795275590551181
        },
        {
          "duration": 0.24739583333333215,
          "durationTicks": 95,
          "midi": 68,
          "name": "G#4",
          "ticks": 10173,
          "time": 26.4921875,
          "velocity": 0.7795275590551181
        },
        {
          "duration": 0.2734375,
          "durationTicks": 105,
          "midi": 71,
          "name": "B4",
          "ticks": 10173,
          "time": 26.4921875,
          "velocity": 0.7795275590551181
        },
        {
          "duration": 0.17447916666666785,
          "durationTicks": 67,
          "midi": 61,
          "name": "C#4",
          "ticks": 10451,
          "time": 27.216145833333332,
          "velocity": 0.7480314960629921
        },
        {
          "duration": 0.15625,
          "durationTicks": 60,
          "midi": 66,
          "name": "F#4",
          "ticks": 10452,
          "time": 27.21875,
          "velocity": 0.7480314960629921
        },
        {
          "duration": 0.16666666666666785,
          "durationTicks": 64,
          "midi": 70,
          "name": "A#4",
          "ticks": 10452,
          "time": 27.21875,
          "velocity": 0.7480314960629921
        },
        {
          "duration": 0.12760416666666785,
          "durationTicks": 49,
          "midi": 61,
          "name": "C#4",
          "ticks": 10637,
          "time": 27.700520833333332,
          "velocity": 0.7480314960629921
        },
        {
          "duration": 0.14322916666666785,
          "durationTicks": 55,
          "midi": 65,
          "name": "F4",
          "ticks": 10637,
          "time": 27.700520833333332,
          "velocity": 0.7480314960629921
        },
        {
          "duration": 0.16666666666666785,
          "durationTicks": 64,
          "midi": 68,
          "name": "G#4",
          "ticks": 10638,
          "time": 27.703125,
          "velocity": 0.7086614173228346
        },
        {
          "duration": 0.09895833333333215,
          "durationTicks": 38,
          "midi": 68,
          "name": "G#4",
          "ticks": 10824,
          "time": 28.1875,
          "velocity": 0.7086614173228346
        },
        {
          "duration": 0.13541666666666785,
          "durationTicks": 52,
          "midi": 71,
          "name": "B4",
          "ticks": 10824,
          "time": 28.1875,
          "velocity": 0.7480314960629921
        },
        {
          "duration": 0.1276041666666643,
          "durationTicks": 49,
          "midi": 75,
          "name": "D#5",
          "ticks": 10825,
          "time": 28.190104166666668,
          "velocity": 0.7086614173228346
        },
        {
          "duration": 0.1484375,
          "durationTicks": 57,
          "midi": 78,
          "name": "F#5",
          "ticks": 10825,
          "time": 28.190104166666668,
          "velocity": 0.6771653543307087
        },
        {
          "duration": 0.15364583333333215,
          "durationTicks": 59,
          "midi": 68,
          "name": "G#4",
          "ticks": 11008,
          "time": 28.666666666666668,
          "velocity": 0.7086614173228346
        },
        {
          "duration": 0.1380208333333357,
          "durationTicks": 53,
          "midi": 71,
          "name": "B4",
          "ticks": 11009,
          "time": 28.669270833333332,
          "velocity": 0.6771653543307087
        },
        {
          "duration": 0.15625,
          "durationTicks": 60,
          "midi": 75,
          "name": "D#5",
          "ticks": 11009,
          "time": 28.669270833333332,
          "velocity": 0.7086614173228346
        },
        {
          "duration": 0.14322916666666785,
          "durationTicks": 55,
          "midi": 78,
          "name": "F#5",
          "ticks": 11009,
          "time": 28.669270833333332,
          "velocity": 0.7086614173228346
        },
        {
          "duration": 0.14583333333333215,
          "durationTicks": 56,
          "midi": 68,
          "name": "G#4",
          "ticks": 11194,
          "time": 29.151041666666668,
          "velocity": 0.6771653543307087
        },
        {
          "duration": 0.125,
          "durationTicks": 48,
          "midi": 71,
          "name": "B4",
          "ticks": 11195,
          "time": 29.153645833333332,
          "velocity": 0.7480314960629921
        },
        {
          "duration": 0.1770833333333357,
          "durationTicks": 68,
          "midi": 75,
          "name": "D#5",
          "ticks": 11195,
          "time": 29.153645833333332,
          "velocity": 0.7480314960629921
        },
        {
          "duration": 0.171875,
          "durationTicks": 66,
          "midi": 78,
          "name": "F#5",
          "ticks": 11195,
          "time": 29.153645833333332,
          "velocity": 0.7086614173228346
        },
        {
          "duration": 0.12239583333333215,
          "durationTicks": 47,
          "midi": 68,
          "name": "G#4",
          "ticks": 11380,
          "time": 29.635416666666668,
          "velocity": 0.7480314960629921
        },
        {
          "duration": 0.1354166666666643,
          "durationTicks": 52,
          "midi": 71,
          "name": "B4",
          "ticks": 11380,
          "time": 29.635416666666668,
          "velocity": 0.7480314960629921
        },
        {
          "duration": 0.1458333333333357,
          "durationTicks": 56,
          "midi": 75,
          "name": "D#5",
          "ticks": 11381,
          "time": 29.638020833333332,
          "velocity": 0.7086614173228346
        },
        {
          "duration": 0.1302083333333357,
          "durationTicks": 50,
          "midi": 78,
          "name": "F#5",
          "ticks": 11381,
          "time": 29.638020833333332,
          "velocity": 0.7480314960629921
        },
        {
          "duration": 0.1640625,
          "durationTicks": 63,
          "midi": 68,
          "name": "G#4",
          "ticks": 11566,
          "time": 30.119791666666668,
          "velocity": 0.7480314960629921
        },
        {
          "duration": 1.484375,
          "durationTicks": 570,
          "midi": 71,
          "name": "B4",
          "ticks": 11566,
          "time": 30.119791666666668,
          "velocity": 0.7795275590551181
        },
        {
          "duration": 1.4817708333333357,
          "durationTicks": 569,
          "midi": 75,
          "name": "D#5",
          "ticks": 11567,
          "time": 30.122395833333332,
          "velocity": 0.7480314960629921
        },
        {
          "duration": 1.4869791666666679,
          "durationTicks": 571,
          "midi": 78,
          "name": "F#5",
          "ticks": 11567,
          "time": 30.122395833333332,
          "velocity": 0.7480314960629921
        },
        {
          "duration": 0.84375,
          "durationTicks": 324,
          "midi": 66,
          "name": "F#4",
          "ticks": 12309,
          "time": 32.0546875,
          "velocity": 0.7480314960629921
        },
        {
          "duration": 0.8489583333333357,
          "durationTicks": 326,
          "midi": 70,
          "name": "A#4",
          "ticks": 12309,
          "time": 32.0546875,
          "velocity": 0.7480314960629921
        },
        {
          "duration": 0.8515625,
          "durationTicks": 327,
          "midi": 73,
          "name": "C#5",
          "ticks": 12310,
          "time": 32.057291666666664,
          "velocity": 0.7480314960629921
        },
        {
          "duration": 0.84375,
          "durationTicks": 324,
          "midi": 66,
          "name": "F#4",
          "ticks": 12679,
          "time": 33.018229166666664,
          "velocity": 0.7480314960629921
        },
        {
          "duration": 0.8567708333333357,
          "durationTicks": 329,
          "midi": 70,
          "name": "A#4",
          "ticks": 12681,
          "time": 33.0234375,
          "velocity": 0.7480314960629921
        },
        {
          "duration": 0.8489583333333357,
          "durationTicks": 326,
          "midi": 73,
          "name": "C#5",
          "ticks": 12681,
          "time": 33.0234375,
          "velocity": 0.7480314960629921
        },
        {
          "duration": 0.2734375,
          "durationTicks": 105,
          "midi": 66,
          "name": "F#4",
          "ticks": 13051,
          "time": 33.986979166666664,
          "velocity": 0.7086614173228346
        },
        {
          "duration": 0.3020833333333357,
          "durationTicks": 116,
          "midi": 70,
          "name": "A#4",
          "ticks": 13051,
          "time": 33.986979166666664,
          "velocity": 0.7480314960629921
        },
        {
          "duration": 0.2838541666666643,
          "durationTicks": 109,
          "midi": 73,
          "name": "C#5",
          "ticks": 13052,
          "time": 33.989583333333336,
          "velocity": 0.7086614173228346
        },
        {
          "duration": 0.0963541666666643,
          "durationTicks": 37,
          "midi": 66,
          "name": "F#4",
          "ticks": 13190,
          "time": 34.348958333333336,
          "velocity": 0.7086614173228346
        },
        {
          "duration": 0.109375,
          "durationTicks": 42,
          "midi": 70,
          "name": "A#4",
          "ticks": 13191,
          "time": 34.3515625,
          "velocity": 0.7086614173228346
        },
        {
          "duration": 0.1041666666666643,
          "durationTicks": 40,
          "midi": 73,
          "name": "C#5",
          "ticks": 13191,
          "time": 34.3515625,
          "velocity": 0.7086614173228346
        },
        {
          "duration": 1.0390625,
          "durationTicks": 399,
          "midi": 66,
          "name": "F#4",
          "ticks": 13331,
          "time": 34.716145833333336,
          "velocity": 0.7086614173228346
        },
        {
          "duration": 1.0833333333333286,
          "durationTicks": 416,
          "midi": 70,
          "name": "A#4",
          "ticks": 13331,
          "time": 34.716145833333336,
          "velocity": 0.7480314960629921
        },
        {
          "duration": 0.4375,
          "durationTicks": 168,
          "midi": 73,
          "name": "C#5",
          "ticks": 13332,
          "time": 34.71875,
          "velocity": 0.7480314960629921
        },
        {
          "duration": 0.2239583333333286,
          "durationTicks": 86,
          "midi": 75,
          "name": "D#5",
          "ticks": 13517,
          "time": 35.200520833333336,
          "velocity": 0.7480314960629921
        },
        {
          "duration": 0.3307291666666714,
          "durationTicks": 127,
          "midi": 73,
          "name": "C#5",
          "ticks": 13609,
          "time": 35.440104166666664,
          "velocity": 0.7086614173228346
        },
        {
          "duration": 0.8567708333333286,
          "durationTicks": 329,
          "midi": 66,
          "name": "F#4",
          "ticks": 13796,
          "time": 35.927083333333336,
          "velocity": 0.7086614173228346
        },
        {
          "duration": 0.8697916666666643,
          "durationTicks": 334,
          "midi": 70,
          "name": "A#4",
          "ticks": 13797,
          "time": 35.9296875,
          "velocity": 0.7480314960629921
        },
        {
          "duration": 0.859375,
          "durationTicks": 330,
          "midi": 75,
          "name": "D#5",
          "ticks": 13797,
          "time": 35.9296875,
          "velocity": 0.7480314960629921
        },
        {
          "duration": 1.0833333333333357,
          "durationTicks": 416,
          "midi": 66,
          "name": "F#4",
          "ticks": 14166,
          "time": 36.890625,
          "velocity": 0.6771653543307087
        },
        {
          "duration": 1.1119791666666714,
          "durationTicks": 427,
          "midi": 70,
          "name": "A#4",
          "ticks": 14167,
          "time": 36.893229166666664,
          "velocity": 0.7480314960629921
        },
        {
          "duration": 1.1067708333333357,
          "durationTicks": 425,
          "midi": 75,
          "name": "D#5",
          "ticks": 14167,
          "time": 36.893229166666664,
          "velocity": 0.7480314960629921
        },
        {
          "duration": 0.2942708333333286,
          "durationTicks": 113,
          "midi": 66,
          "name": "F#4",
          "ticks": 14630,
          "time": 38.098958333333336,
          "velocity": 0.7086614173228346
        },
        {
          "duration": 0.2994791666666643,
          "durationTicks": 115,
          "midi": 70,
          "name": "A#4",
          "ticks": 14631,
          "time": 38.1015625,
          "velocity": 0.7086614173228346
        },
        {
          "duration": 0.2916666666666643,
          "durationTicks": 112,
          "midi": 75,
          "name": "D#5",
          "ticks": 14631,
          "time": 38.1015625,
          "velocity": 0.7086614173228346
        },
        {
          "duration": 0.0651041666666714,
          "durationTicks": 25,
          "midi": 66,
          "name": "F#4",
          "ticks": 14770,
          "time": 38.463541666666664,
          "velocity": 0.6771653543307087
        },
        {
          "duration": 0.0859375,
          "durationTicks": 33,
          "midi": 70,
          "name": "A#4",
          "ticks": 14770,
          "time": 38.463541666666664,
          "velocity": 0.7086614173228346
        },
        {
          "duration": 0.0807291666666714,
          "durationTicks": 31,
          "midi": 75,
          "name": "D#5",
          "ticks": 14770,
          "time": 38.463541666666664,
          "velocity": 0.7086614173228346
        },
        {
          "duration": 0.4192708333333286,
          "durationTicks": 161,
          "midi": 66,
          "name": "F#4",
          "ticks": 14909,
          "time": 38.825520833333336,
          "velocity": 0.6771653543307087
        },
        {
          "duration": 0.4401041666666643,
          "durationTicks": 169,
          "midi": 70,
          "name": "A#4",
          "ticks": 14909,
          "time": 38.825520833333336,
          "velocity": 0.7086614173228346
        },
        {
          "duration": 0.4322916666666643,
          "durationTicks": 166,
          "midi": 75,
          "name": "D#5",
          "ticks": 14910,
          "time": 38.828125,
          "velocity": 0.6771653543307087
        },
        {
          "duration": 0.3177083333333286,
          "durationTicks": 122,
          "midi": 66,
          "name": "F#4",
          "ticks": 15095,
          "time": 39.309895833333336,
          "velocity": 0.7086614173228346
        },
        {
          "duration": 0.328125,
          "durationTicks": 126,
          "midi": 70,
          "name": "A#4",
          "ticks": 15095,
          "time": 39.309895833333336,
          "velocity": 0.7086614173228346
        },
        {
          "duration": 0.3255208333333357,
          "durationTicks": 125,
          "midi": 75,
          "name": "D#5",
          "ticks": 15096,
          "time": 39.3125,
          "velocity": 0.7480314960629921
        },
        {
          "duration": 0.796875,
          "durationTicks": 306,
          "midi": 71,
          "name": "B4",
          "ticks": 15282,
          "time": 39.796875,
          "velocity": 0.7244094488188977
        },
        {
          "duration": 0.8151041666666714,
          "durationTicks": 313,
          "midi": 75,
          "name": "D#5",
          "ticks": 15283,
          "time": 39.799479166666664,
          "velocity": 0.7874015748031497
        },
        {
          "duration": 0.7890625,
          "durationTicks": 303,
          "midi": 80,
          "name": "G#5",
          "ticks": 15283,
          "time": 39.799479166666664,
          "velocity": 0.7637795275590551
        },
        {
          "duration": 0.84375,
          "durationTicks": 324,
          "midi": 71,
          "name": "B4",
          "ticks": 15653,
          "time": 40.763020833333336,
          "velocity": 0.7244094488188977
        },
        {
          "duration": 0.8463541666666643,
          "durationTicks": 325,
          "midi": 75,
          "name": "D#5",
          "ticks": 15654,
          "time": 40.765625,
          "velocity": 0.7637795275590551
        },
        {
          "duration": 0.8359375,
          "durationTicks": 321,
          "midi": 79,
          "name": "G5",
          "ticks": 15654,
          "time": 40.765625,
          "velocity": 0.7637795275590551
        },
        {
          "duration": 0.8515625,
          "durationTicks": 327,
          "midi": 71,
          "name": "B4",
          "ticks": 16026,
          "time": 41.734375,
          "velocity": 0.7637795275590551
        },
        {
          "duration": 0.8567708333333357,
          "durationTicks": 329,
          "midi": 75,
          "name": "D#5",
          "ticks": 16026,
          "time": 41.734375,
          "velocity": 0.7795275590551181
        },
        {
          "duration": 0.8567708333333357,
          "durationTicks": 329,
          "midi": 78,
          "name": "F#5",
          "ticks": 16026,
          "time": 41.734375,
          "velocity": 0.7637795275590551
        },
        {
          "duration": 0.7135416666666714,
          "durationTicks": 274,
          "midi": 71,
          "name": "B4",
          "ticks": 16396,
          "time": 42.697916666666664,
          "velocity": 0.7637795275590551
        },
        {
          "duration": 0.7005208333333286,
          "durationTicks": 269,
          "midi": 75,
          "name": "D#5",
          "ticks": 16397,
          "time": 42.700520833333336,
          "velocity": 0.7874015748031497
        },
        {
          "duration": 0.71875,
          "durationTicks": 276,
          "midi": 80,
          "name": "G#5",
          "ticks": 16397,
          "time": 42.700520833333336,
          "velocity": 0.7637795275590551
        },
        {
          "duration": 0.8463541666666643,
          "durationTicks": 325,
          "midi": 70,
          "name": "A#4",
          "ticks": 16769,
          "time": 43.669270833333336,
          "velocity": 0.7086614173228346
        },
        {
          "duration": 0.8671875,
          "durationTicks": 333,
          "midi": 71,
          "name": "B4",
          "ticks": 16769,
          "time": 43.669270833333336,
          "velocity": 0.6771653543307087
        },
        {
          "duration": 0.8541666666666643,
          "durationTicks": 328,
          "midi": 75,
          "name": "D#5",
          "ticks": 16770,
          "time": 43.671875,
          "velocity": 0.7086614173228346
        },
        {
          "duration": 0.8385416666666643,
          "durationTicks": 322,
          "midi": 78,
          "name": "F#5",
          "ticks": 16770,
          "time": 43.671875,
          "velocity": 0.7480314960629921
        },
        {
          "duration": 0.640625,
          "durationTicks": 246,
          "midi": 70,
          "name": "A#4",
          "ticks": 17140,
          "time": 44.635416666666664,
          "velocity": 0.7480314960629921
        },
        {
          "duration": 0.65625,
          "durationTicks": 252,
          "midi": 71,
          "name": "B4",
          "ticks": 17140,
          "time": 44.635416666666664,
          "velocity": 0.7480314960629921
        },
        {
          "duration": 0.6328125,
          "durationTicks": 243,
          "midi": 75,
          "name": "D#5",
          "ticks": 17141,
          "time": 44.638020833333336,
          "velocity": 0.7480314960629921
        },
        {
          "duration": 0.6848958333333286,
          "durationTicks": 263,
          "midi": 78,
          "name": "F#5",
          "ticks": 17141,
          "time": 44.638020833333336,
          "velocity": 0.7086614173228346
        },
        {
          "duration": 1.5416666666666714,
          "durationTicks": 592,
          "midi": 71,
          "name": "B4",
          "ticks": 17512,
          "time": 45.604166666666664,
          "velocity": 0.7480314960629921
        },
        {
          "duration": 1.5338541666666714,
          "durationTicks": 589,
          "midi": 75,
          "name": "D#5",
          "ticks": 17512,
          "time": 45.604166666666664,
          "velocity": 0.7480314960629921
        },
        {
          "duration": 1.5260416666666714,
          "durationTicks": 586,
          "midi": 78,
          "name": "F#5",
          "ticks": 17512,
          "time": 45.604166666666664,
          "velocity": 0.7480314960629921
        },
        {
          "duration": 1.4895833333333286,
          "durationTicks": 572,
          "midi": 82,
          "name": "A#5",
          "ticks": 17513,
          "time": 45.606770833333336,
          "velocity": 0.7480314960629921
        },
        {
          "duration": 0.8333333333333286,
          "durationTicks": 320,
          "midi": 66,
          "name": "F#4",
          "ticks": 18254,
          "time": 47.536458333333336,
          "velocity": 0.7480314960629921
        },
        {
          "duration": 0.8463541666666643,
          "durationTicks": 325,
          "midi": 70,
          "name": "A#4",
          "ticks": 18255,
          "time": 47.5390625,
          "velocity": 0.7480314960629921
        },
        {
          "duration": 0.84375,
          "durationTicks": 324,
          "midi": 73,
          "name": "C#5",
          "ticks": 18255,
          "time": 47.5390625,
          "velocity": 0.7480314960629921
        },
        {
          "duration": 1.1145833333333357,
          "durationTicks": 428,
          "midi": 66,
          "name": "F#4",
          "ticks": 18625,
          "time": 48.502604166666664,
          "velocity": 0.7086614173228346
        },
        {
          "duration": 1.1171875,
          "durationTicks": 429,
          "midi": 70,
          "name": "A#4",
          "ticks": 18626,
          "time": 48.505208333333336,
          "velocity": 0.7480314960629921
        },
        {
          "duration": 1.1067708333333286,
          "durationTicks": 425,
          "midi": 73,
          "name": "C#5",
          "ticks": 18626,
          "time": 48.505208333333336,
          "velocity": 0.7480314960629921
        },
        {
          "duration": 0.2916666666666714,
          "durationTicks": 112,
          "midi": 66,
          "name": "F#4",
          "ticks": 19090,
          "time": 49.713541666666664,
          "velocity": 0.7086614173228346
        },
        {
          "duration": 0.3072916666666643,
          "durationTicks": 118,
          "midi": 70,
          "name": "A#4",
          "ticks": 19091,
          "time": 49.716145833333336,
          "velocity": 0.7480314960629921
        },
        {
          "duration": 0.3020833333333286,
          "durationTicks": 116,
          "midi": 73,
          "name": "C#5",
          "ticks": 19091,
          "time": 49.716145833333336,
          "velocity": 0.7086614173228346
        },
        {
          "duration": 0.0859375,
          "durationTicks": 33,
          "midi": 66,
          "name": "F#4",
          "ticks": 19229,
          "time": 50.075520833333336,
          "velocity": 0.6771653543307087
        },
        {
          "duration": 0.0911458333333286,
          "durationTicks": 35,
          "midi": 70,
          "name": "A#4",
          "ticks": 19229,
          "time": 50.075520833333336,
          "velocity": 0.7086614173228346
        },
        {
          "duration": 0.0989583333333286,
          "durationTicks": 38,
          "midi": 73,
          "name": "C#5",
          "ticks": 19229,
          "time": 50.075520833333336,
          "velocity": 0.7086614173228346
        },
        {
          "duration": 0.8098958333333357,
          "durationTicks": 311,
          "midi": 66,
          "name": "F#4",
          "ticks": 19369,
          "time": 50.440104166666664,
          "velocity": 0.7086614173228346
        },
        {
          "duration": 0.828125,
          "durationTicks": 318,
          "midi": 70,
          "name": "A#4",
          "ticks": 19369,
          "time": 50.440104166666664,
          "velocity": 0.7480314960629921
        },
        {
          "duration": 0.8151041666666643,
          "durationTicks": 313,
          "midi": 73,
          "name": "C#5",
          "ticks": 19370,
          "time": 50.442708333333336,
          "velocity": 0.7086614173228346
        },
        {
          "duration": 0.2942708333333357,
          "durationTicks": 113,
          "midi": 66,
          "name": "F#4",
          "ticks": 19741,
          "time": 51.408854166666664,
          "velocity": 0.7086614173228346
        },
        {
          "duration": 0.3020833333333286,
          "durationTicks": 116,
          "midi": 70,
          "name": "A#4",
          "ticks": 19742,
          "time": 51.411458333333336,
          "velocity": 0.7480314960629921
        },
        {
          "duration": 0.296875,
          "durationTicks": 114,
          "midi": 75,
          "name": "D#5",
          "ticks": 19742,
          "time": 51.411458333333336,
          "velocity": 0.7795275590551181
        },
        {
          "duration": 0.0755208333333357,
          "durationTicks": 29,
          "midi": 66,
          "name": "F#4",
          "ticks": 19879,
          "time": 51.768229166666664,
          "velocity": 0.7086614173228346
        },
        {
          "duration": 0.0833333333333357,
          "durationTicks": 32,
          "midi": 70,
          "name": "A#4",
          "ticks": 19879,
          "time": 51.768229166666664,
          "velocity": 0.6614173228346457
        },
        {
          "duration": 0.0885416666666643,
          "durationTicks": 34,
          "midi": 75,
          "name": "D#5",
          "ticks": 19880,
          "time": 51.770833333333336,
          "velocity": 0.7086614173228346
        },
        {
          "duration": 0.8802083333333357,
          "durationTicks": 338,
          "midi": 66,
          "name": "F#4",
          "ticks": 20019,
          "time": 52.1328125,
          "velocity": 0.7086614173228346
        },
        {
          "duration": 0.8880208333333357,
          "durationTicks": 341,
          "midi": 70,
          "name": "A#4",
          "ticks": 20020,
          "time": 52.135416666666664,
          "velocity": 0.7480314960629921
        },
        {
          "duration": 0.8723958333333357,
          "durationTicks": 335,
          "midi": 75,
          "name": "D#5",
          "ticks": 20020,
          "time": 52.135416666666664,
          "velocity": 0.7086614173228346
        },
        {
          "duration": 0.2760416666666643,
          "durationTicks": 106,
          "midi": 66,
          "name": "F#4",
          "ticks": 20576,
          "time": 53.583333333333336,
          "velocity": 0.7086614173228346
        },
        {
          "duration": 0.2864583333333286,
          "durationTicks": 110,
          "midi": 70,
          "name": "A#4",
          "ticks": 20576,
          "time": 53.583333333333336,
          "velocity": 0.7480314960629921
        },
        {
          "duration": 0.2916666666666643,
          "durationTicks": 112,
          "midi": 75,
          "name": "D#5",
          "ticks": 20576,
          "time": 53.583333333333336,
          "velocity": 0.7480314960629921
        },
        {
          "duration": 0.0859375,
          "durationTicks": 33,
          "midi": 66,
          "name": "F#4",
          "ticks": 20715,
          "time": 53.9453125,
          "velocity": 0.7086614173228346
        },
        {
          "duration": 0.0911458333333357,
          "durationTicks": 35,
          "midi": 70,
          "name": "A#4",
          "ticks": 20715,
          "time": 53.9453125,
          "velocity": 0.7480314960629921
        },
        {
          "duration": 0.0833333333333357,
          "durationTicks": 32,
          "midi": 75,
          "name": "D#5",
          "ticks": 20716,
          "time": 53.947916666666664,
          "velocity": 0.7086614173228346
        },
        {
          "duration": 0.8359375,
          "durationTicks": 321,
          "midi": 66,
          "name": "F#4",
          "ticks": 20854,
          "time": 54.307291666666664,
          "velocity": 0.6771653543307087
        },
        {
          "duration": 0.8359375,
          "durationTicks": 321,
          "midi": 70,
          "name": "A#4",
          "ticks": 20855,
          "time": 54.309895833333336,
          "velocity": 0.7480314960629921
        },
        {
          "duration": 0.8385416666666643,
          "durationTicks": 322,
          "midi": 75,
          "name": "D#5",
          "ticks": 20855,
          "time": 54.309895833333336,
          "velocity": 0.7480314960629921
        }
      ]
    }
  ]
}
